<?xml version="1.0" encoding="utf-8"?>
<!-- Generator: Adobe Illustrator 21.1.0, SVG Export Plug-In . SVG Version: 6.00 Build 0)  -->
<svg version="1.1" xmlns="http://www.w3.org/2000/svg" xmlns:xlink="http://www.w3.org/1999/xlink" x="0px" y="0px"
	 viewBox="0 0 305.6 305.6" style="enable-background:new 0 0 305.6 305.6;" xml:space="preserve">
<style type="text/css">
	.st0{fill:#2C3E50;}
	.st1{fill:#2881BB;}
	.st2{fill:none;stroke:#FFFFFF;stroke-width:1.25;stroke-miterlimit:10;}
	.st3{fill:none;stroke:#000000;stroke-width:0.25;stroke-miterlimit:10;}
	.st4{fill:#52B36E;}
	.st5{fill:#3B95D2;}
	.st6{fill:none;stroke:#E30613;stroke-width:0.4819;stroke-miterlimit:10;}
	.st7{fill:none;stroke:#2699D6;stroke-width:0.5669;stroke-miterlimit:10;}
	.st8{fill:#1D1D1B;}
	.st9{fill:none;stroke:#E30613;stroke-width:0.7087;stroke-miterlimit:10;}
	.st10{fill:#93C01F;}
	.st11{fill:#575756;}
</style>
<g id="Ebene_1">
	<path class="st4" d="M60.1,293.1V141.5c0-24.4,24.4-24.7,24.7-24.7h136.1c24.4,0,24.7,24.4,24.7,24.7v151.7h-2V141.5
		c-0.2-4-1.2-7.9-3-11.5c-3.8-7.4-10.4-11.2-19.7-11.2H84.8c-4,0.2-7.9,1.2-11.5,3c-7.4,3.8-11.2,10.4-11.2,19.7v151.6H60.1z"/>
	<g>
		<path class="st0" d="M114.5,82.9v-5.7l-1.2,1.1v-0.7l1.2-1h0.7v6.4H114.5z"/>
		<path class="st0" d="M117.7,82.9v-0.8h0.8v0.8H117.7z"/>
		<path class="st0" d="M126.6,83.2l-0.7-0.7c-0.4,0.3-0.9,0.5-1.4,0.4c-0.6,0-1.2-0.2-1.6-0.7c-0.6-0.6-0.6-1.2-0.6-2.6s0-2,0.6-2.6
			c0.9-0.9,2.4-0.9,3.3,0c0.6,0.6,0.6,1.2,0.6,2.6s0,1.8-0.4,2.4l0.7,0.7L126.6,83.2z M125.6,77.5c-0.6-0.6-1.6-0.6-2.2,0
			c-0.4,0.4-0.4,0.8-0.4,2.2s0,1.8,0.4,2.2c0.3,0.3,0.7,0.5,1.1,0.5c0.3,0,0.6-0.1,0.9-0.3l-0.8-0.8l0.4-0.4l0.8,0.8
			c0.3-0.6,0.3-1.3,0.3-1.9C126.1,78.4,126,77.9,125.6,77.5L125.6,77.5z"/>
		<path class="st0" d="M132,82.9l-1.5-2.8H129v2.8h-0.7v-6.4h2.4c1-0.1,1.8,0.6,1.9,1.6c0,0.1,0,0.2,0,0.2c0,0.8-0.6,1.6-1.4,1.7
			l1.5,2.9H132z M130.7,77.1H129v2.3h1.7c0.6,0.1,1.2-0.4,1.3-1.1c0.1-0.6-0.4-1.2-1.1-1.3C130.9,77.1,130.8,77.1,130.7,77.1z"/>
		<path class="st0" d="M134,80.8v-0.6h2.5v0.6H134z"/>
		<path class="st0" d="M140.1,82.9c-0.6,0-1.2-0.2-1.6-0.7c-0.6-0.6-0.6-1.2-0.6-2.6s0-2,0.6-2.6c0.4-0.4,1-0.7,1.6-0.7
			c1.1,0,2.1,0.8,2.2,1.9h-0.7c-0.1-0.8-0.8-1.3-1.5-1.3c-0.4,0-0.8,0.2-1.1,0.4c-0.4,0.4-0.4,0.9-0.4,2.2s0,1.8,0.4,2.2
			c0.6,0.6,1.6,0.6,2.2,0c0.2-0.2,0.4-0.5,0.4-0.8h0.7C142.2,82.1,141.2,83,140.1,82.9z"/>
		<path class="st0" d="M146.6,82.4c-0.7,0.7-1.8,0.7-2.5,0c-0.7-1.1-0.7-2.5,0-3.5c0.7-0.7,1.8-0.7,2.5,0
			C147.3,80,147.3,81.4,146.6,82.4z M146.1,79.3c-0.2-0.2-0.5-0.3-0.8-0.3c-0.3,0-0.6,0.1-0.8,0.3c-0.5,0.8-0.5,1.9,0,2.7
			c0.2,0.2,0.5,0.3,0.8,0.3c0.3,0,0.6-0.1,0.8-0.3C146.6,81.2,146.6,80.2,146.1,79.3z"/>
		<path class="st0" d="M151.1,82.9v-0.5c-0.3,0.4-0.8,0.6-1.3,0.6c-0.4,0-0.8-0.1-1.1-0.4c-0.7-1.2-0.7-2.6,0-3.8
			c0.3-0.3,0.7-0.4,1.1-0.4c0.5,0,1,0.2,1.2,0.6v-2.5h0.7v6.4H151.1z M150,79c-1,0-1.1,0.8-1.1,1.7s0.1,1.7,1.1,1.7s1.1-0.8,1.1-1.7
			S151,79,150,79L150,79z"/>
		<path class="st0" d="M153.8,80.9c0,1,0.5,1.5,1.3,1.5c0.4,0,0.9-0.2,1.2-0.5l0.4,0.4c-0.4,0.5-1,0.7-1.6,0.7
			c-1.2,0-1.9-0.7-1.9-2.3s0.7-2.3,1.8-2.3s1.8,0.8,1.8,2.1v0.3L153.8,80.9z M156,79.6c-0.3-0.6-0.9-0.8-1.5-0.6
			c-0.2,0.1-0.4,0.3-0.6,0.6c-0.1,0.2-0.1,0.5-0.1,0.7h2.3C156.2,80.1,156.1,79.9,156,79.6L156,79.6z"/>
		<path class="st0" d="M161.8,82.9c-0.7,0-1.3-0.2-1.8-0.6l0.4-0.4c0.4,0.4,0.9,0.5,1.4,0.5c0.7,0,1.2-0.3,1.2-0.8s-0.2-0.6-0.7-0.7
			l-0.7-0.1c-0.9-0.1-1.3-0.5-1.3-1.2s0.7-1.3,1.6-1.3c0.6,0,1.1,0.1,1.6,0.5l-0.4,0.4c-0.3-0.2-0.8-0.4-1.2-0.4c-0.6,0-1,0.3-1,0.7
			s0.2,0.6,0.8,0.7l0.7,0.1c0.8,0.1,1.3,0.4,1.3,1.2S162.9,82.9,161.8,82.9z"/>
		<path class="st0" d="M166.6,82.9c-1.1,0-2-0.8-2-2.3s0.9-2.3,2-2.3c0.6,0,1.1,0.2,1.5,0.7l-0.4,0.4c-0.2-0.3-0.6-0.5-1-0.5
			c-0.4,0-0.8,0.2-1,0.5c-0.4,0.7-0.4,1.6,0,2.4c0.2,0.3,0.6,0.5,1,0.5c0.4,0,0.8-0.2,1-0.5l0.4,0.4C167.7,82.7,167.1,83,166.6,82.9
			z"/>
		<path class="st0" d="M171.7,82.9v-0.4c-0.3,0.3-0.8,0.5-1.3,0.5c-0.5,0.1-0.9-0.1-1.2-0.4c-0.2-0.2-0.3-0.6-0.3-0.9
			c0-0.8,0.5-1.3,1.5-1.3h1.3v-0.5c0-0.7-0.3-1-1.1-1c-0.4-0.1-0.9,0.1-1.1,0.5L169,79c0.4-0.5,1-0.7,1.6-0.7c1.2,0,1.8,0.5,1.8,1.5
			v3L171.7,82.9z M171.7,80.9h-1.2c-0.7,0-1,0.3-1,0.8s0.3,0.8,1,0.8c0.4,0,0.7-0.1,1-0.3c0.2-0.2,0.3-0.5,0.2-0.8L171.7,80.9z"/>
		<path class="st0" d="M176.7,82.9v-2.8c0.1-0.6-0.4-1.1-1-1.2c-0.6-0.1-1.1,0.4-1.2,1c0,0.1,0,0.1,0,0.2v2.8h-0.6v-4.5h0.6v0.5
			c0.3-0.4,0.8-0.6,1.2-0.5c0.4,0,0.8,0.1,1.1,0.4c0.3,0.3,0.5,0.8,0.5,1.2v2.9H176.7z"/>
		<path class="st0" d="M181.8,82.9v-2.8c0.1-0.6-0.4-1.1-1-1.2c-0.6-0.1-1.1,0.4-1.2,1c0,0.1,0,0.1,0,0.2v2.8H179v-4.5h0.6v0.5
			c0.3-0.4,0.8-0.6,1.2-0.5c0.4,0,0.8,0.1,1.1,0.4c0.3,0.3,0.5,0.8,0.5,1.2v2.9H181.8z"/>
		<path class="st0" d="M184.4,80.9c0,1,0.5,1.5,1.3,1.5c0.4,0,0.9-0.2,1.2-0.5l0.4,0.4c-0.4,0.5-1,0.7-1.6,0.7
			c-1.2,0-1.9-0.7-1.9-2.3s0.7-2.3,1.8-2.3s1.8,0.8,1.8,2.1v0.3L184.4,80.9z M186.6,79.6c-0.3-0.6-0.9-0.8-1.5-0.6
			c-0.2,0.1-0.4,0.3-0.6,0.6c-0.1,0.2-0.1,0.5-0.1,0.7h2.3C186.8,80.1,186.7,79.9,186.6,79.6L186.6,79.6z"/>
		<path class="st0" d="M191.6,82.9v-2.8c0.1-0.6-0.4-1.1-1-1.2c-0.6-0.1-1.1,0.4-1.2,1c0,0.1,0,0.1,0,0.2v2.8h-0.6v-4.5h0.6v0.5
			c0.3-0.4,0.8-0.6,1.2-0.5c0.4,0,0.8,0.1,1.1,0.4c0.3,0.3,0.5,0.8,0.5,1.2v2.9H191.6z"/>
	</g>
	<g>
		<path class="st0" d="M108.5,96.5v-0.6l2.5-3.2c0.2-0.3,0.4-0.6,0.4-0.9c0.1-0.6-0.4-1.2-1-1.2s-1.2,0.4-1.2,1c0,0.1,0,0.1,0,0.2
			h-0.7c0-0.9,0.7-1.7,1.6-1.7c0.1,0,0.1,0,0.2,0c0.9-0.1,1.7,0.6,1.8,1.5c0,0.1,0,0.2,0,0.2c0,0.5-0.2,0.9-0.5,1.3l-2.2,2.8h2.8
			v0.6L108.5,96.5z"/>
		<path class="st0" d="M113.4,96.5v-0.8h0.8v0.8H113.4z"/>
		<path class="st0" d="M118.9,90.7v2.4h2.8v0.6h-2.8v2.8h-0.7v-6.4h4v0.6H118.9z"/>
		<path class="st0" d="M125.5,92.9c-0.2-0.2-0.5-0.3-0.8-0.3c-0.6,0-1.1,0.5-1.1,1.1c0,0,0,0.1,0,0.1v2.7h-0.6v-4.4h0.7v0.5
			c0.3-0.4,0.8-0.6,1.2-0.6c0.4,0,0.8,0.1,1.1,0.4L125.5,92.9z"/>
		<path class="st0" d="M129.3,96.5v-0.4c-0.3,0.3-0.8,0.5-1.3,0.5c-0.5,0.1-0.9-0.1-1.2-0.4c-0.2-0.2-0.3-0.6-0.3-0.9
			c0-0.8,0.5-1.3,1.5-1.3h1.3v-0.4c0-0.7-0.3-1-1.1-1c-0.4-0.1-0.9,0.1-1.1,0.5l-0.4-0.4c0.4-0.5,1-0.7,1.6-0.7
			c1.2,0,1.8,0.5,1.8,1.5v3L129.3,96.5z M129.3,94.5h-1.2c-0.7,0-1,0.3-1,0.8s0.3,0.8,1,0.8c0.4,0,0.7-0.1,1-0.3
			c0.2-0.2,0.3-0.5,0.2-0.8L129.3,94.5z"/>
		<path class="st0" d="M132.9,98.6c-0.6,0-1.1-0.2-1.5-0.6l0.4-0.4c0.3,0.3,0.7,0.5,1.1,0.4c0.9,0,1.2-0.6,1.2-1.4v-0.7
			c-0.3,0.4-0.8,0.6-1.2,0.6c-0.4,0-0.8-0.1-1.1-0.4c-0.7-1.1-0.7-2.6,0-3.7c0.3-0.3,0.7-0.4,1.1-0.4c0.5,0,1,0.2,1.2,0.6v-0.5h0.6
			v4.6c0.1,1-0.6,1.8-1.6,1.9C133.1,98.6,133,98.6,132.9,98.6z M133,92.6c-1,0-1.1,0.8-1.1,1.7s0.2,1.6,1.1,1.6s1.1-0.8,1.1-1.7
			S134,92.6,133,92.6L133,92.6z"/>
		<path class="st0" d="M136.8,94.5c0,1,0.5,1.5,1.3,1.5c0.4,0,0.9-0.2,1.2-0.5l0.4,0.4c-0.4,0.5-1,0.7-1.6,0.7
			c-1.2,0-1.9-0.7-1.9-2.3s0.7-2.3,1.8-2.3s1.8,0.8,1.8,2.1v0.3L136.8,94.5z M139,93.3c-0.3-0.6-0.9-0.8-1.5-0.6
			c-0.2,0.1-0.4,0.3-0.6,0.6c-0.1,0.2-0.1,0.5-0.1,0.7h2.3C139.1,93.8,139.1,93.5,139,93.3L139,93.3z"/>
		<path class="st0" d="M144,96.5v-2.7c0.1-0.5-0.3-1.1-0.8-1.2c-0.1,0-0.2,0-0.3,0c-0.5-0.1-1,0.3-1.1,0.9c0,0.1,0,0.2,0,0.3v2.7
			h-0.6v-4.4h0.6v0.5c0.3-0.4,0.8-0.6,1.2-0.5c0.4,0,0.8,0.1,1.1,0.4c0.3,0.3,0.5,0.8,0.5,1.2v2.8H144z"/>
		<path class="st0" d="M151.4,96.2c-0.3,0.3-0.7,0.4-1.1,0.4c-0.5,0-1-0.2-1.2-0.6v0.5h-0.6v-6.4h0.6v2.5c0.3-0.4,0.8-0.6,1.2-0.6
			c0.4,0,0.8,0.1,1.1,0.4C152.1,93.6,152.1,95,151.4,96.2L151.4,96.2z M150.2,92.6c-1,0-1.1,0.8-1.1,1.7s0.1,1.7,1.1,1.7
			s1.1-0.8,1.1-1.7S151.2,92.6,150.2,92.6L150.2,92.6z"/>
		<path class="st0" d="M153.8,94.5c0,1,0.5,1.5,1.3,1.5c0.4,0,0.9-0.2,1.2-0.5l0.4,0.4c-0.4,0.5-1,0.7-1.6,0.7
			c-1.2,0-1.9-0.7-1.9-2.3s0.7-2.3,1.8-2.3s1.8,0.8,1.8,2.1v0.3L153.8,94.5z M156,93.3c-0.3-0.6-0.9-0.8-1.5-0.6
			c-0.2,0.1-0.4,0.3-0.6,0.6c-0.1,0.2-0.1,0.5-0.1,0.7h2.3C156.1,93.8,156,93.5,156,93.3L156,93.3z"/>
		<path class="st0" d="M160.6,96.5v-0.4c-0.3,0.3-0.8,0.5-1.3,0.5c-0.5,0.1-0.9-0.1-1.2-0.4c-0.2-0.2-0.3-0.6-0.3-0.9
			c0-0.8,0.5-1.3,1.5-1.3h1.3v-0.4c0-0.7-0.3-1-1.1-1c-0.4-0.1-0.9,0.1-1.1,0.5l-0.4-0.4c0.4-0.5,1-0.7,1.6-0.7
			c1.2,0,1.8,0.5,1.8,1.5v3L160.6,96.5z M160.6,94.5h-1.2c-0.7,0-1,0.3-1,0.8s0.3,0.8,1,0.8c0.4,0,0.7-0.1,1-0.3
			c0.2-0.2,0.3-0.5,0.2-0.8L160.6,94.5z"/>
		<path class="st0" d="M165.7,96.5v-2.7c0.1-0.6-0.4-1.1-1-1.2c-0.6-0.1-1.1,0.4-1.2,1c0,0.1,0,0.1,0,0.2v2.7h-0.6v-4.4h0.6v0.5
			c0.3-0.4,0.8-0.6,1.2-0.5c0.4,0,0.8,0.1,1.1,0.4c0.3,0.3,0.5,0.8,0.5,1.2v2.8H165.7z"/>
		<path class="st0" d="M169.2,96.5c-0.6,0-1.1-0.5-1.1-1.1c0,0,0-0.1,0-0.1v-2.7h-0.6v-0.5h0.6v-1.4h0.6v1.4h0.9v0.5h-0.9v2.7
			c0,0.4,0.2,0.7,0.6,0.7h0.3v0.6L169.2,96.5z"/>
		<path class="st0" d="M175.1,96.5h-0.6l-1.2-3.4l-1.1,3.4h-0.6l-1.4-4.4h0.7l1,3.6l1.2-3.6h0.6l1.2,3.6l1-3.6h0.7L175.1,96.5z"/>
		<path class="st0" d="M180.2,96.1c-0.7,0.7-1.8,0.7-2.5,0c-0.7-1.1-0.7-2.5,0-3.5c0.7-0.7,1.8-0.7,2.5,0
			C180.9,93.6,180.9,95,180.2,96.1z M179.8,92.9c-0.2-0.2-0.5-0.3-0.8-0.3c-0.3,0-0.6,0.1-0.8,0.3c-0.5,0.8-0.5,1.9,0,2.7
			c0.2,0.2,0.5,0.3,0.8,0.3c0.3,0,0.6-0.1,0.8-0.3C180.2,94.8,180.2,93.8,179.8,92.9z"/>
		<path class="st0" d="M184.6,92.9c-0.2-0.2-0.5-0.3-0.8-0.3c-0.6,0-1.1,0.5-1.1,1.1c0,0,0,0.1,0,0.1v2.7h-0.6v-4.4h0.6v0.5
			c0.3-0.4,0.8-0.6,1.2-0.6c0.4,0,0.8,0.1,1.1,0.4L184.6,92.9z"/>
		<path class="st0" d="M187.2,96.5c-0.6,0-1.1-0.5-1.1-1.1c0,0,0-0.1,0-0.1v-2.7h-0.6v-0.5h0.6v-1.4h0.6v1.4h0.9v0.5h-0.9v2.7
			c0,0.4,0.2,0.7,0.6,0.7h0.3v0.6L187.2,96.5z"/>
		<path class="st0" d="M189.3,94.5c0,1,0.5,1.5,1.3,1.5c0.4,0,0.9-0.2,1.2-0.5l0.4,0.4c-0.4,0.5-1,0.7-1.6,0.7
			c-1.2,0-1.9-0.7-1.9-2.3s0.7-2.3,1.8-2.3s1.8,0.8,1.8,2.1v0.3L189.3,94.5z M191.5,93.3c-0.3-0.6-0.9-0.8-1.5-0.6
			c-0.2,0.1-0.4,0.3-0.6,0.6c-0.1,0.2-0.1,0.5-0.1,0.7h2.3C191.6,93.8,191.6,93.5,191.5,93.3L191.5,93.3z"/>
		<path class="st0" d="M196.5,96.5v-2.7c0.1-0.6-0.4-1.1-1-1.2c-0.6-0.1-1.1,0.4-1.2,1c0,0.1,0,0.1,0,0.2v2.7h-0.6v-4.4h0.6v0.5
			c0.3-0.4,0.8-0.6,1.2-0.5c0.4,0,0.8,0.1,1.1,0.4c0.3,0.3,0.5,0.8,0.5,1.2v2.8H196.5z"/>
	</g>
	<path class="st2" d="M284.6,290.6v15 M284.6,15V0 M21,290.6v15 M21,15V0 M290.6,284.6h15 M15,284.6H0 M290.6,21h15 M15,21H0"/>
	<path class="st3" d="M284.6,290.6v15 M284.6,15V0 M21,290.6v15 M21,15V0 M290.6,284.6h15 M15,284.6H0 M290.6,21h15 M15,21H0"/>
	<g>
		<path d="M91.7,258.1c-1,0-1.9-0.5-2-1.8h0.9c0,0.7,0.5,1,1,1c0.6,0,1-0.4,1-1.1c0-0.6-0.4-1.1-1.1-1.1h-0.2v-0.8h0.2
			c0.7,0,1-0.4,1-1c0-0.6-0.4-1-0.9-1c-0.6,0-0.9,0.4-1,0.9h-0.9c0.1-1.1,0.9-1.7,1.9-1.7c1.1,0,1.9,0.7,1.9,1.8
			c0,0.7-0.3,1.1-0.8,1.4c0.5,0.2,0.9,0.7,0.9,1.5C93.6,257.5,92.7,258.1,91.7,258.1z"/>
		<path d="M94.8,258.1V257h1.1v1.1H94.8z"/>
		<path d="M99.2,258.1v-0.8l3-4.7h-2.8v-0.9h4v0.8l-3,4.7h3v0.9H99.2z"/>
		<path d="M107.2,258.1v-0.5c-0.3,0.3-0.8,0.5-1.2,0.5c-0.5,0-0.9-0.2-1.1-0.4c-0.4-0.3-0.5-0.8-0.5-1.3v-2.9h0.9v2.8
			c0,0.7,0.4,1,0.9,1c0.5,0,0.9-0.3,0.9-1v-2.8h0.9v4.6H107.2z"/>
		<path d="M115.4,258.1v-2.8h-2.6v2.8h-1v-6.4h1v2.7h2.6v-2.7h1v6.4H115.4z"/>
		<path d="M120.4,258.1v-0.4c-0.3,0.3-0.6,0.5-1.2,0.5c-0.6,0-0.9-0.1-1.2-0.4c-0.2-0.2-0.4-0.6-0.4-1c0-0.8,0.5-1.3,1.6-1.3h1.2
			v-0.3c0-0.6-0.3-0.9-1-0.9c-0.5,0-0.7,0.1-1,0.4l-0.6-0.6c0.4-0.5,0.9-0.7,1.6-0.7c1.3,0,1.9,0.5,1.9,1.6v3.1H120.4z M120.4,256.1
			h-1.1c-0.5,0-0.8,0.2-0.8,0.7s0.3,0.6,0.8,0.6c0.4,0,0.6,0,0.9-0.3c0.1-0.1,0.2-0.4,0.2-0.7V256.1z"/>
		<path d="M125.5,258.1v-0.5c-0.3,0.3-0.8,0.5-1.2,0.5c-0.5,0-0.9-0.2-1.1-0.4c-0.4-0.3-0.5-0.8-0.5-1.3v-2.9h0.9v2.8
			c0,0.7,0.4,1,0.9,1s0.9-0.3,0.9-1v-2.8h0.9v4.6H125.5z"/>
		<path d="M129.3,258.1c-0.7,0-1.4-0.1-1.9-0.7l0.6-0.6c0.4,0.4,0.9,0.5,1.3,0.5c0.6,0,1-0.2,1-0.6c0-0.3-0.2-0.5-0.6-0.5l-0.7-0.1
			c-0.9-0.1-1.4-0.5-1.4-1.3c0-0.9,0.8-1.4,1.7-1.4c0.7,0,1.3,0.1,1.7,0.5l-0.6,0.6c-0.3-0.2-0.7-0.3-1.1-0.3
			c-0.5,0-0.8,0.2-0.8,0.6c0,0.3,0.1,0.5,0.6,0.5l0.7,0.1c0.9,0.1,1.4,0.5,1.4,1.3C131.2,257.6,130.4,258.1,129.3,258.1z"/>
		<path d="M133,256.1c0,0.8,0.4,1.3,1.2,1.3c0.5,0,0.8-0.1,1.1-0.5l0.6,0.5c-0.5,0.5-0.9,0.7-1.7,0.7c-1.1,0-2.1-0.6-2.1-2.3
			c0-1.5,0.8-2.3,1.9-2.3c1.2,0,1.9,0.9,1.9,2.2v0.4H133z M135,254.8c-0.1-0.3-0.5-0.6-0.9-0.6c-0.4,0-0.8,0.2-0.9,0.6
			c-0.1,0.2-0.1,0.3-0.1,0.6h2.1C135.1,255.1,135,255,135,254.8z"/>
		<path d="M141.8,258.1v-0.4c-0.3,0.3-0.6,0.5-1.2,0.5c-0.6,0-0.9-0.1-1.2-0.4c-0.2-0.2-0.4-0.6-0.4-1c0-0.8,0.5-1.3,1.6-1.3h1.2
			v-0.3c0-0.6-0.3-0.9-1-0.9c-0.5,0-0.7,0.1-1,0.4l-0.6-0.6c0.4-0.5,0.9-0.7,1.6-0.7c1.3,0,1.9,0.5,1.9,1.6v3.1H141.8z M141.8,256.1
			h-1.1c-0.5,0-0.8,0.2-0.8,0.7s0.3,0.6,0.8,0.6c0.4,0,0.6,0,0.9-0.3c0.1-0.1,0.2-0.4,0.2-0.7V256.1z"/>
		<path d="M146.9,258.1v-0.5c-0.3,0.3-0.8,0.5-1.2,0.5c-0.5,0-0.9-0.2-1.1-0.4c-0.4-0.3-0.5-0.8-0.5-1.3v-2.9h0.9v2.8
			c0,0.7,0.4,1,0.9,1c0.5,0,0.9-0.3,0.9-1v-2.8h0.9v4.6H146.9z"/>
		<path d="M150.3,254.3v3.8h-0.9v-3.8h-0.5v-0.7h0.5v-0.7c0-0.7,0.4-1.3,1.3-1.3h0.6v0.8h-0.4c-0.3,0-0.5,0.2-0.5,0.5v0.7h0.9v0.7
			H150.3z"/>
		<path class="st4" d="M155,256.1c0,0.8,0.4,1.3,1.2,1.3c0.5,0,0.8-0.1,1.1-0.5l0.6,0.5c-0.5,0.5-0.9,0.7-1.7,0.7
			c-1.1,0-2.1-0.6-2.1-2.3c0-1.5,0.8-2.3,1.9-2.3c1.2,0,1.9,0.9,1.9,2.2v0.4H155z M157,254.8c-0.1-0.3-0.5-0.6-0.9-0.6
			c-0.4,0-0.8,0.2-0.9,0.6c-0.1,0.2-0.1,0.3-0.1,0.6h2.1C157.1,255.1,157,255,157,254.8z"/>
		<path class="st4" d="M160.4,258.1c-0.9,0-1.3-0.6-1.3-1.3v-5.1h0.9v5.1c0,0.4,0.1,0.5,0.5,0.5h0.4v0.8H160.4z"/>
		<path class="st4" d="M163.2,258.1c-0.9,0-1.3-0.6-1.3-1.3v-5.1h0.9v5.1c0,0.4,0.1,0.5,0.5,0.5h0.4v0.8H163.2z"/>
		<path class="st4" d="M164.8,252.6v-1h1v1H164.8z M164.8,258.1v-4.6h0.9v4.6H164.8z"/>
		<path class="st4" d="M167.2,258.1V257h1.1v1.1H167.2z"/>
		<path class="st4" d="M169.7,252.6v-1h1v1H169.7z M169.7,258.1v-4.6h0.9v4.6H169.7z"/>
		<path class="st4" d="M174.8,258.1v-2.8c0-0.7-0.4-1-0.9-1s-0.9,0.3-0.9,1v2.8h-0.9v-4.6h0.9v0.5c0.3-0.3,0.8-0.5,1.2-0.5
			c0.5,0,0.9,0.2,1.1,0.4c0.4,0.3,0.5,0.8,0.5,1.3v2.9H174.8z"/>
		<path class="st4" d="M180,258.1v-2.8c0-0.7-0.4-1-0.9-1s-0.9,0.3-0.9,1v2.8h-0.9v-4.6h0.9v0.5c0.3-0.3,0.8-0.5,1.2-0.5
			c0.5,0,0.9,0.2,1.1,0.4c0.4,0.3,0.5,0.8,0.5,1.3v2.9H180z"/>
		<path class="st4" d="M185.3,257.6c-0.3,0.3-0.7,0.5-1.4,0.5s-1.1-0.2-1.4-0.5c-0.4-0.5-0.5-1-0.5-1.8c0-0.8,0.1-1.3,0.5-1.8
			c0.3-0.3,0.7-0.5,1.4-0.5s1.1,0.2,1.4,0.5c0.4,0.5,0.5,1,0.5,1.8C185.9,256.6,185.8,257.1,185.3,257.6z M184.6,254.5
			c-0.2-0.2-0.4-0.3-0.7-0.3c-0.3,0-0.5,0.1-0.7,0.3c-0.3,0.3-0.3,0.8-0.3,1.3c0,0.5,0,1,0.3,1.3c0.2,0.2,0.4,0.3,0.7,0.3
			c0.3,0,0.5-0.1,0.7-0.3c0.3-0.3,0.3-0.8,0.3-1.3C185,255.3,184.9,254.8,184.6,254.5z"/>
		<path class="st4" d="M186.8,258.1v-0.7l2.3-3h-2.1v-0.8h3.3v0.7l-2.3,3h2.3v0.8H186.8z"/>
		<path class="st4" d="M191.3,258.1V257h1.1v1.1H191.3z"/>
		<path class="st4" d="M195.3,258.1c-0.7,0-1.4-0.1-1.9-0.7l0.6-0.6c0.4,0.4,0.9,0.5,1.3,0.5c0.6,0,1-0.2,1-0.6
			c0-0.3-0.2-0.5-0.6-0.5l-0.7-0.1c-0.9-0.1-1.4-0.5-1.4-1.3c0-0.9,0.8-1.4,1.7-1.4c0.7,0,1.3,0.1,1.7,0.5l-0.6,0.6
			c-0.3-0.2-0.7-0.3-1.1-0.3c-0.5,0-0.8,0.2-0.8,0.6c0,0.3,0.1,0.5,0.6,0.5l0.7,0.1c0.9,0.1,1.4,0.5,1.4,1.3
			C197.2,257.6,196.4,258.1,195.3,258.1z"/>
		<path class="st4" d="M201.6,257.7c-0.3,0.3-0.6,0.4-1.1,0.4c-0.5,0-0.9-0.1-1.2-0.5v2.3h-0.9v-6.4h0.9v0.5
			c0.3-0.4,0.7-0.5,1.2-0.5c0.5,0,0.9,0.2,1.1,0.4c0.5,0.5,0.5,1.2,0.5,1.9C202.1,256.5,202,257.3,201.6,257.7z M200.2,254.3
			c-0.8,0-1,0.7-1,1.5c0,0.8,0.1,1.5,1,1.5s0.9-0.7,0.9-1.5C201.1,255,201,254.3,200.2,254.3z"/>
		<path class="st4" d="M205.8,258.1v-0.4c-0.3,0.3-0.6,0.5-1.2,0.5s-0.9-0.1-1.2-0.4c-0.2-0.2-0.4-0.6-0.4-1c0-0.8,0.5-1.3,1.6-1.3
			h1.2v-0.3c0-0.6-0.3-0.9-1-0.9c-0.5,0-0.7,0.1-1,0.4l-0.6-0.6c0.4-0.5,0.9-0.7,1.6-0.7c1.3,0,1.9,0.5,1.9,1.6v3.1H205.8z
			 M205.7,256.1h-1.1c-0.5,0-0.8,0.2-0.8,0.7s0.3,0.6,0.8,0.6c0.4,0,0.6,0,0.9-0.3c0.1-0.1,0.2-0.4,0.2-0.7V256.1z"/>
		<path class="st4" d="M209.9,258.1c-1,0-2-0.6-2-2.3c0-1.7,1-2.3,2-2.3c0.6,0,1.1,0.2,1.5,0.6l-0.6,0.6c-0.3-0.3-0.5-0.4-0.9-0.4
			c-0.4,0-0.6,0.1-0.8,0.4c-0.2,0.3-0.3,0.6-0.3,1.1c0,0.5,0.1,0.9,0.3,1.1c0.2,0.3,0.5,0.4,0.8,0.4c0.4,0,0.6-0.1,0.9-0.4l0.6,0.6
			C210.9,257.9,210.5,258.1,209.9,258.1z"/>
		<path class="st4" d="M213,256.1c0,0.8,0.4,1.3,1.2,1.3c0.5,0,0.8-0.1,1.1-0.5l0.6,0.5c-0.5,0.5-0.9,0.7-1.7,0.7
			c-1.1,0-2.1-0.6-2.1-2.3c0-1.5,0.8-2.3,1.9-2.3c1.2,0,1.9,0.9,1.9,2.2v0.4H213z M214.9,254.8c-0.1-0.3-0.5-0.6-0.9-0.6
			c-0.4,0-0.8,0.2-0.9,0.6c-0.1,0.2-0.1,0.3-0.1,0.6h2.1C215,255.1,215,255,214.9,254.8z"/>
		<path d="M102.1,268.9v-0.5c-0.3,0.4-0.7,0.5-1.2,0.5c-0.5,0-0.9-0.2-1.1-0.4c-0.5-0.5-0.5-1.2-0.5-1.9c0-0.7,0.1-1.5,0.5-1.9
			c0.3-0.3,0.6-0.4,1.1-0.4c0.5,0,0.9,0.1,1.2,0.5v-2.3h0.9v6.4H102.1z M101.2,265.1c-0.8,0-1,0.7-1,1.5c0,0.8,0.1,1.5,1,1.5
			s0.9-0.7,0.9-1.5C102.1,265.8,102,265.1,101.2,265.1z"/>
		<path d="M105.2,266.9c0,0.8,0.4,1.3,1.2,1.3c0.5,0,0.8-0.1,1.1-0.5l0.6,0.5c-0.5,0.5-0.9,0.7-1.7,0.7c-1.1,0-2.1-0.6-2.1-2.3
			c0-1.5,0.8-2.3,1.9-2.3c1.2,0,1.9,0.9,1.9,2.2v0.4H105.2z M107.1,265.6c-0.1-0.3-0.5-0.6-0.9-0.6s-0.8,0.2-0.9,0.6
			c-0.1,0.2-0.1,0.3-0.1,0.6h2.1C107.2,265.9,107.2,265.8,107.1,265.6z"/>
		<path d="M112.1,268.9v-2.8c0-0.7-0.4-1-0.9-1s-0.9,0.3-0.9,1v2.8h-0.9v-4.6h0.9v0.5c0.3-0.3,0.8-0.5,1.2-0.5
			c0.5,0,0.9,0.2,1.1,0.4c0.4,0.3,0.5,0.8,0.5,1.3v2.9H112.1z"/>
		<path d="M117.7,263.3v2h2.7v0.9h-2.7v2.7h-1v-6.4h4.1v0.9H117.7z"/>
		<path d="M124.1,265.4c-0.2-0.2-0.4-0.3-0.7-0.3c-0.5,0-0.9,0.4-0.9,1v2.8h-0.9v-4.6h0.9v0.5c0.2-0.3,0.7-0.5,1.2-0.5
			c0.4,0,0.8,0.1,1.1,0.4L124.1,265.4z"/>
		<path d="M127.9,268.9v-0.4c-0.3,0.3-0.6,0.5-1.2,0.5s-0.9-0.1-1.2-0.4c-0.2-0.2-0.4-0.6-0.4-1c0-0.8,0.5-1.3,1.6-1.3h1.2v-0.3
			c0-0.6-0.3-0.9-1-0.9c-0.5,0-0.7,0.1-1,0.4l-0.6-0.6c0.4-0.5,0.9-0.7,1.6-0.7c1.3,0,1.9,0.5,1.9,1.6v3.1H127.9z M127.9,266.9h-1.1
			c-0.5,0-0.8,0.2-0.8,0.7s0.3,0.6,0.8,0.6c0.4,0,0.6,0,0.9-0.3c0.1-0.1,0.2-0.4,0.2-0.7V266.9z"/>
		<path d="M131.8,270.8c-0.7,0-1.1-0.2-1.6-0.6l0.6-0.6c0.3,0.3,0.5,0.4,1,0.4c0.8,0,1.1-0.5,1.1-1.2v-0.6c-0.3,0.4-0.7,0.5-1.2,0.5
			c-0.5,0-0.8-0.2-1.1-0.4c-0.4-0.4-0.5-1.1-0.5-1.9c0-0.8,0.1-1.4,0.5-1.9c0.3-0.3,0.6-0.4,1.1-0.4c0.5,0,0.9,0.1,1.2,0.5v-0.5h0.9
			v4.5C133.7,270,133,270.8,131.8,270.8z M131.9,265.1c-0.8,0-0.9,0.7-0.9,1.4c0,0.7,0.1,1.4,0.9,1.4s0.9-0.7,0.9-1.4
			C132.8,265.8,132.7,265.1,131.9,265.1z"/>
		<path d="M135.9,266.9c0,0.8,0.4,1.3,1.2,1.3c0.5,0,0.8-0.1,1.1-0.5l0.6,0.5c-0.5,0.5-0.9,0.7-1.7,0.7c-1.1,0-2.1-0.6-2.1-2.3
			c0-1.5,0.8-2.3,1.9-2.3c1.2,0,1.9,0.9,1.9,2.2v0.4H135.9z M137.8,265.6c-0.1-0.3-0.5-0.6-0.9-0.6s-0.8,0.2-0.9,0.6
			c-0.1,0.2-0.1,0.3-0.1,0.6h2.1C137.9,265.9,137.9,265.8,137.8,265.6z"/>
		<path d="M143.3,268.5c-0.3,0.3-0.7,0.4-1.1,0.4c-0.5,0-0.9-0.1-1.2-0.5v0.5H140v-6.4h0.9v2.3c0.3-0.4,0.7-0.5,1.2-0.5
			c0.5,0,0.9,0.2,1.1,0.4c0.5,0.5,0.5,1.2,0.5,1.9C143.8,267.3,143.7,268.1,143.3,268.5z M141.9,265.1c-0.8,0-1,0.7-1,1.5
			c0,0.8,0.1,1.5,1,1.5s0.9-0.7,0.9-1.5C142.9,265.8,142.7,265.1,141.9,265.1z"/>
		<path d="M148.1,268.4c-0.3,0.3-0.7,0.5-1.4,0.5s-1.1-0.2-1.4-0.5c-0.4-0.5-0.5-1-0.5-1.8c0-0.8,0.1-1.3,0.5-1.8
			c0.3-0.3,0.7-0.5,1.4-0.5s1.1,0.2,1.4,0.5c0.4,0.5,0.5,1,0.5,1.8C148.6,267.4,148.5,267.9,148.1,268.4z M147.4,265.3
			c-0.2-0.2-0.4-0.3-0.7-0.3c-0.3,0-0.5,0.1-0.7,0.3c-0.3,0.3-0.3,0.8-0.3,1.3s0,1,0.3,1.3c0.2,0.2,0.4,0.3,0.7,0.3
			c0.3,0,0.5-0.1,0.7-0.3c0.3-0.3,0.3-0.8,0.3-1.3S147.7,265.6,147.4,265.3z"/>
		<path d="M151.4,270.8c-0.7,0-1.1-0.2-1.6-0.6l0.6-0.6c0.3,0.3,0.5,0.4,1,0.4c0.8,0,1.1-0.5,1.1-1.2v-0.6c-0.3,0.4-0.7,0.5-1.2,0.5
			c-0.5,0-0.8-0.2-1.1-0.4c-0.4-0.4-0.5-1.1-0.5-1.9c0-0.8,0.1-1.4,0.5-1.9c0.3-0.3,0.6-0.4,1.1-0.4c0.5,0,0.9,0.1,1.2,0.5v-0.5h0.9
			v4.5C153.3,270,152.6,270.8,151.4,270.8z M151.5,265.1c-0.8,0-0.9,0.7-0.9,1.4c0,0.7,0.1,1.4,0.9,1.4s0.9-0.7,0.9-1.4
			C152.4,265.8,152.3,265.1,151.5,265.1z"/>
		<path d="M155.5,266.9c0,0.8,0.4,1.3,1.2,1.3c0.5,0,0.8-0.1,1.1-0.5l0.6,0.5c-0.5,0.5-0.9,0.7-1.7,0.7c-1.1,0-2.1-0.6-2.1-2.3
			c0-1.5,0.8-2.3,1.9-2.3c1.2,0,1.9,0.9,1.9,2.2v0.4H155.5z M157.4,265.6c-0.1-0.3-0.5-0.6-0.9-0.6c-0.4,0-0.8,0.2-0.9,0.6
			c-0.1,0.2-0.1,0.3-0.1,0.6h2.1C157.5,265.9,157.5,265.8,157.4,265.6z"/>
		<path d="M162.4,268.9v-2.8c0-0.7-0.4-1-0.9-1s-0.9,0.3-0.9,1v2.8h-0.9v-4.6h0.9v0.5c0.3-0.3,0.8-0.5,1.2-0.5
			c0.5,0,0.9,0.2,1.1,0.4c0.4,0.3,0.5,0.8,0.5,1.3v2.9H162.4z"/>
		<path d="M169.4,268.9v-0.4c-0.3,0.3-0.6,0.5-1.2,0.5s-0.9-0.1-1.2-0.4c-0.2-0.2-0.4-0.6-0.4-1c0-0.8,0.5-1.3,1.6-1.3h1.2v-0.3
			c0-0.6-0.3-0.9-1-0.9c-0.5,0-0.7,0.1-1,0.4l-0.6-0.6c0.4-0.5,0.9-0.7,1.6-0.7c1.3,0,1.9,0.5,1.9,1.6v3.1H169.4z M169.4,266.9h-1.1
			c-0.5,0-0.8,0.2-0.8,0.7s0.3,0.6,0.8,0.6c0.4,0,0.6,0,0.9-0.3c0.1-0.1,0.2-0.4,0.2-0.7V266.9z"/>
		<path d="M174.4,268.9v-0.5c-0.3,0.3-0.8,0.5-1.2,0.5c-0.5,0-0.9-0.2-1.1-0.4c-0.4-0.3-0.5-0.8-0.5-1.3v-2.9h0.9v2.8
			c0,0.7,0.4,1,0.9,1c0.5,0,0.9-0.3,0.9-1v-2.8h0.9v4.6H174.4z"/>
		<path d="M178.3,268.9c-0.7,0-1.4-0.1-1.9-0.7l0.6-0.6c0.4,0.4,0.9,0.5,1.3,0.5c0.6,0,1-0.2,1-0.6c0-0.3-0.2-0.5-0.6-0.5l-0.7-0.1
			c-0.9-0.1-1.4-0.5-1.4-1.3c0-0.9,0.8-1.4,1.7-1.4c0.7,0,1.3,0.1,1.7,0.5l-0.6,0.6c-0.3-0.2-0.7-0.3-1.1-0.3
			c-0.5,0-0.8,0.2-0.8,0.6c0,0.3,0.1,0.5,0.6,0.5l0.7,0.1c0.9,0.1,1.4,0.5,1.4,1.3C180.2,268.4,179.4,268.9,178.3,268.9z"/>
		<path d="M182.3,265.1v3.8h-0.9v-3.8h-0.5v-0.7h0.5v-0.7c0-0.7,0.4-1.3,1.3-1.3h0.6v0.8h-0.4c-0.3,0-0.5,0.2-0.5,0.5v0.7h0.9v0.7
			H182.3z"/>
		<path d="M187,268.9v-0.5c-0.3,0.3-0.8,0.5-1.2,0.5c-0.5,0-0.9-0.2-1.1-0.4c-0.4-0.3-0.5-0.8-0.5-1.3v-2.9h0.9v2.8
			c0,0.7,0.4,1,0.9,1c0.5,0,0.9-0.3,0.9-1v-2.8h0.9v4.6H187z M184.6,263.4v-1h0.8v1H184.6z M186.6,263.4v-1h0.8v1H186.6z"/>
		<path d="M190.6,268.9c-0.9,0-1.3-0.6-1.3-1.3v-5.1h0.9v5.1c0,0.4,0.1,0.5,0.5,0.5h0.4v0.8H190.6z"/>
		<path d="M193.4,268.9c-0.9,0-1.3-0.6-1.3-1.3v-5.1h0.9v5.1c0,0.4,0.1,0.5,0.5,0.5h0.4v0.8H193.4z"/>
		<path d="M195.4,266.9c0,0.8,0.4,1.3,1.2,1.3c0.5,0,0.8-0.1,1.1-0.5l0.6,0.5c-0.5,0.5-0.9,0.7-1.7,0.7c-1.1,0-2.1-0.6-2.1-2.3
			c0-1.5,0.8-2.3,1.9-2.3c1.2,0,1.9,0.9,1.9,2.2v0.4H195.4z M197.3,265.6c-0.1-0.3-0.5-0.6-0.9-0.6c-0.4,0-0.8,0.2-0.9,0.6
			c-0.1,0.2-0.1,0.3-0.1,0.6h2.1C197.4,265.9,197.4,265.8,197.3,265.6z"/>
		<path d="M202.4,268.9v-2.8c0-0.7-0.4-1-0.9-1s-0.9,0.3-0.9,1v2.8h-0.9v-4.6h0.9v0.5c0.3-0.3,0.8-0.5,1.2-0.5
			c0.5,0,0.9,0.2,1.1,0.4c0.4,0.3,0.5,0.8,0.5,1.3v2.9H202.4z"/>
		<path d="M206,267h-0.7l-0.2-4.5h1.1L206,267z M205.1,268.9v-1h1v1H205.1z"/>
	</g>
</g>
<g id="Ebene_2">
</g>
</svg>
