<?xml version="1.0" encoding="utf-8"?>
<!-- Generator: Adobe Illustrator 21.1.0, SVG Export Plug-In . SVG Version: 6.00 Build 0)  -->
<svg version="1.1" xmlns="http://www.w3.org/2000/svg" xmlns:xlink="http://www.w3.org/1999/xlink" x="0px" y="0px"
	 viewBox="0 0 305.6 305.6" style="enable-background:new 0 0 305.6 305.6;" xml:space="preserve">
<style type="text/css">
	.st0{fill:#2C3E50;}
	.st1{fill:#2881BB;}
	.st2{fill:none;stroke:#FFFFFF;stroke-width:1.25;stroke-miterlimit:10;}
	.st3{fill:none;stroke:#000000;stroke-width:0.25;stroke-miterlimit:10;}
	.st4{fill:#52B36E;}
	.st5{fill:#3B95D2;}
	.st6{fill:none;stroke:#E30613;stroke-width:0.4819;stroke-miterlimit:10;}
	.st7{fill:none;stroke:#2699D6;stroke-width:0.5669;stroke-miterlimit:10;}
	.st8{fill:#1D1D1B;}
	.st9{fill:none;stroke:#E30613;stroke-width:0.7087;stroke-miterlimit:10;}
	.st10{fill:#93C01F;}
	.st11{fill:#575756;}
</style>
<g id="Ebene_1">
	<g>
		<path class="st0" d="M113.3,107.1h6.4v1h-6.4v6.5h-1.1v-14.3h8.6v1h-7.6V107.1z"/>
		<path class="st0" d="M126.4,113.8c1,0,2-0.4,2.7-1.2l0.8,0.6c-0.9,1-2.2,1.5-3.5,1.5c-2.7,0-4.1-1.7-4.1-4.9s1.4-4.9,3.9-4.9
			c2.4,0,3.9,1.7,3.9,4.7v0.5h-6.7C123.3,112.4,124.3,113.8,126.4,113.8z M128.6,107.3c-0.6-1.4-2.2-2-3.6-1.4
			c-0.6,0.3-1.1,0.8-1.4,1.4c-0.2,0.6-0.3,1.2-0.3,1.8h5.7C128.9,108.5,128.8,107.9,128.6,107.3z"/>
		<path class="st0" d="M136.8,113.8c1,0,2-0.4,2.7-1.2l0.8,0.6c-0.9,1-2.2,1.5-3.5,1.5c-2.7,0-4.1-1.7-4.1-4.9s1.4-4.9,3.9-4.9
			c2.4,0,3.9,1.7,3.9,4.7v0.5h-6.7C133.7,112.4,134.8,113.8,136.8,113.8z M139,107.3c-0.6-1.4-2.2-2-3.6-1.4
			c-0.6,0.3-1.1,0.8-1.4,1.4c-0.2,0.6-0.3,1.2-0.3,1.8h5.7C139.4,108.5,139.3,107.9,139,107.3z"/>
		<path class="st0" d="M149.6,113.3c-0.6,0.9-1.7,1.4-2.9,1.4c-0.9,0-1.7-0.3-2.4-0.8c-0.9-1.2-1.4-2.6-1.2-4.1
			c-0.1-1.5,0.3-2.9,1.2-4.1c0.6-0.6,1.5-0.9,2.4-0.8c1.1-0.1,2.2,0.4,2.9,1.4v-5.8h1v14.2h-1V113.3z M146.9,105.7
			c-2.4,0-2.7,2-2.7,4s0.4,4,2.7,4c2.4,0,2.7-2,2.7-4S149.3,105.7,146.9,105.7z"/>
		<path class="st0" d="M160.7,113.8c-0.6,0.6-1.5,0.9-2.4,0.8c-1.1,0.1-2.2-0.4-2.9-1.4v1.2h-1v-14.2h1v5.8c0.6-0.9,1.7-1.4,2.9-1.4
			c0.9,0,1.7,0.3,2.4,0.8c0.9,1.2,1.4,2.6,1.2,4.1C162.1,111.2,161.7,112.7,160.7,113.8z M158.3,105.7c-2.4,0-2.7,2-2.7,4
			s0.4,4,2.7,4c2.4,0,2.7-2,2.7-4S160.6,105.7,158.3,105.7z"/>
		<path class="st0" d="M171,113.6c-0.8,0.8-1.8,1.2-2.9,1.1c-1,0.1-2.1-0.2-2.8-0.9c-0.5-0.5-0.7-1.2-0.7-1.9c0-1.8,1.3-2.8,3.4-2.8
			h3.1V108c0-1.5-0.7-2.4-2.7-2.4c-1-0.1-2.1,0.3-2.7,1.2l-0.7-0.6c0.8-1.1,2.1-1.6,3.4-1.5c2.6,0,3.7,1.1,3.7,3.2v6.6h-1L171,113.6
			z M168,110c-1.6,0-2.5,0.6-2.5,1.9s0.8,1.9,2.5,1.9c0.9,0.1,1.7-0.2,2.4-0.7c0.4-0.5,0.6-1.2,0.5-1.8V110H168z"/>
		<path class="st0" d="M179.5,114.7c-2.6,0-4.2-1.9-4.2-4.9s1.6-4.9,4.2-4.9c1.2-0.1,2.4,0.5,3.2,1.5l-0.7,0.6
			c-0.6-0.8-1.5-1.2-2.5-1.2c-1,0-2,0.5-2.6,1.3c-0.9,1.7-0.9,3.8,0,5.5c0.6,0.8,1.5,1.3,2.6,1.3c1,0,1.9-0.4,2.5-1.2l0.7,0.6
			C181.9,114.2,180.7,114.7,179.5,114.7z"/>
		<path class="st0" d="M188.9,109.3l-2.2,2.5v2.8h-1v-14.2h1v10l4.8-5.4h1.3l-3.2,3.6l3.9,6h-1.3L188.9,109.3z"/>
	</g>
	<path class="st4" d="M243.5,293.1V152.5c-0.2-4-1.2-7.9-3-11.5c-3.8-7.4-10.4-11.2-19.7-11.2h-136c-4,0.2-7.9,1.2-11.5,3
		c-7.4,3.8-11.2,10.4-11.2,19.7v140.7h-2V152.5c0-24.4,24.4-24.7,24.7-24.7h136.1c24.4,0,24.7,24.4,24.7,24.7v140.7H243.5z"/>
	<g>
		<path class="st4" d="M139,200.7h-0.1l-10-1.7c-0.8-0.1-1.4-0.9-1.4-1.7c0-2.3,0.1-10.4,1.6-15.7c0.4-1.2,1.5-2.2,2.8-2.3l1.5-0.2
			c1.9-0.3,3.7-0.4,5.6-0.5l0,0c0.5,0,0.8,0.4,0.8,0.8s-0.4,0.8-0.8,0.8c-1.8,0-3.6,0.2-5.4,0.5L132,181c-0.6,0.1-1.2,0.5-1.4,1.1
			c-1.5,5.1-1.6,12.9-1.6,15.2l10,1.7c0.4,0.1,0.8,0.5,0.7,0.9C139.7,200.4,139.3,200.7,139,200.7L139,200.7z"/>
		<path class="st4" d="M129.8,216.7c-3,0-5.4-2.4-5.4-5.4s2.4-5.4,5.4-5.4s5.4,2.4,5.4,5.4v0C135.2,214.3,132.8,216.7,129.8,216.7z
			 M129.8,207.6c-2.1,0-3.8,1.7-3.8,3.8s1.7,3.8,3.8,3.8s3.8-1.7,3.8-3.8C133.5,209.2,131.8,207.6,129.8,207.6z"/>
		<path class="st4" d="M137.3,210.7c-0.5,0-0.8-0.4-0.8-0.8v0c0-4.9-2.8-5.9-5.1-5.9h-5.3c-1,0.1-1.9,0.4-2.7,0.8
			c-0.4,0.2-0.9,0.1-1.1-0.3c-0.2-0.4-0.1-0.9,0.3-1.1c1.1-0.6,2.3-0.9,3.6-1h5.3c2,0,6.7,0.7,6.7,7.5
			C138.1,210.3,137.7,210.7,137.3,210.7z"/>
		<path class="st4" d="M168.3,210.7c-0.5,0-0.8-0.4-0.8-0.8v0c0-6.8,4.7-7.5,6.7-7.5h5.3c1.2,0.1,2.5,0.4,3.6,1
			c0.2,0.1,0.3,0.3,0.4,0.5c0,0.1,0.3,1.5,0.5,2.6c0.1,0.5-0.3,0.9-0.7,0.9s-0.9-0.3-0.9-0.7c-0.1-0.7-0.3-1.6-0.4-2.1
			c-0.8-0.4-1.6-0.6-2.4-0.7h-5.3c-2.3,0-5.1,1-5.1,5.9C169.2,210.3,168.8,210.6,168.3,210.7C168.4,210.7,168.3,210.7,168.3,210.7z"
			/>
		<path class="st4" d="M166.6,200.7c-0.5,0-0.8-0.4-0.8-0.8c0-0.4,0.3-0.7,0.7-0.8l10-1.7c0.1-2.4,0-10.2-1.5-15.3
			c-0.2-0.6-0.7-1.1-1.4-1.1l-1.5-0.2c-1.8-0.3-3.6-0.4-5.4-0.5c-0.5,0-0.8-0.4-0.8-0.8s0.4-0.8,0.8-0.8l0,0c1.9,0,3.8,0.2,5.6,0.5
			l1.5,0.2c1.3,0.1,2.4,1.1,2.8,2.3c1.6,5.3,1.6,13.3,1.6,15.7c0,0.8-0.6,1.6-1.4,1.7l-10,1.7L166.6,200.7z"/>
		<path class="st4" d="M163,209.8h-10.2c-0.5,0-0.8-0.4-0.8-0.8c0,0,0,0,0,0v-30.8c0-0.5,0.4-0.8,0.8-0.8h0H163
			c0.5,0,0.8,0.4,0.8,0.8v0V209C163.8,209.4,163.5,209.8,163,209.8C163,209.8,163,209.8,163,209.8z M153.7,208.2h8.5v-29.1h-8.5
			V208.2z"/>
		<path class="st4" d="M152.8,209.8h-10.2c-0.5,0-0.8-0.4-0.8-0.8v0v-30.8c0-0.5,0.4-0.8,0.8-0.8h0h10.2c0.5,0,0.8,0.4,0.8,0.8v0
			V209C153.6,209.4,153.3,209.8,152.8,209.8C152.8,209.8,152.8,209.8,152.8,209.8z M143.5,208.2h8.5v-29.1h-8.5L143.5,208.2z"/>
		<path class="st4" d="M165.3,175.2c-0.4,0-0.7-0.2-0.8-0.6l-0.8-3c-7.2-1-14.5-1-21.8,0l-0.8,3c-0.1,0.4-0.6,0.7-1,0.6
			s-0.7-0.6-0.6-1l1-3.5c0.1-0.3,0.3-0.5,0.7-0.6c7.7-1.1,15.6-1.1,23.3,0c0.3,0,0.6,0.3,0.7,0.6l1,3.5c0.1,0.4-0.2,0.9-0.6,1
			C165.5,175.2,165.4,175.2,165.3,175.2L165.3,175.2z"/>
		<path class="st4" d="M175.8,216.7c-3,0-5.4-2.4-5.4-5.4c0-3,2.4-5.4,5.4-5.4s5.4,2.4,5.4,5.4c0,0,0,0,0,0
			C181.2,214.3,178.8,216.7,175.8,216.7z M175.8,207.6c-2.1,0-3.8,1.7-3.8,3.8s1.7,3.8,3.8,3.8s3.8-1.7,3.8-3.8
			C179.6,209.2,177.9,207.6,175.8,207.6z"/>
		<path class="st4" d="M182.8,213.4c-0.5,0-0.8-0.4-0.8-0.8c0-0.3,0.2-0.6,0.5-0.8c0.5-0.3,0.9-0.6,1.3-1v-2.6
			c-0.3-0.3-0.7-0.6-1.1-0.8c-0.2-0.1-0.4-0.4-0.4-0.6c-0.1-1.1-0.4-2.5-0.4-2.5c-0.1-0.3,0.1-0.7,0.4-0.9c0.4-0.3,0.8-0.7,1.1-1.1
			c0-1.5-0.1-3.4-0.2-4.3c-0.5-6.2-1.4-12.3-2.8-18.3c-0.4-1.8-1.9-3.1-3.7-3.4c-7.5-0.9-15.1-1.2-22.7-1.1h-2.1
			c-7.6-0.1-15.2,0.2-22.8,1.1c-1.8,0.2-3.3,1.6-3.7,3.3c-1.4,6-2.3,12.1-2.7,18.3c-0.1,1.3-0.2,2.9-0.2,4.3
			c0.3,0.4,0.6,0.8,1.1,1.1c0.3,0.2,0.4,0.5,0.4,0.9c0,0-0.3,1.4-0.4,2.5c0,0.3-0.2,0.5-0.4,0.6c-0.4,0.2-0.8,0.5-1.1,0.8v2.6
			c0.4,0.4,0.9,0.7,1.3,1c0.4,0.2,0.6,0.7,0.5,1.1c-0.2,0.4-0.7,0.6-1.1,0.4c-0.8-0.4-1.5-0.9-2.1-1.6c-0.2-0.2-0.2-0.4-0.2-0.6
			v-3.4c0-0.2,0.1-0.5,0.3-0.6c0.4-0.4,0.9-0.8,1.4-1.1c0.1-0.6,0.2-1.3,0.3-1.7c-0.5-0.4-0.9-0.9-1.2-1.5c-0.1-0.1-0.1-0.3-0.1-0.4
			c0-1.5,0.1-3.2,0.2-4.6c0.5-6.2,1.4-12.4,2.8-18.5c0.6-2.5,2.6-4.3,5.1-4.6c7.6-0.9,15.3-1.3,22.9-1.1h2.1
			c7.7-0.1,15.3,0.2,22.9,1.1c2.5,0.3,4.6,2.1,5.1,4.6c1.4,6.1,2.3,12.3,2.8,18.5c0.1,1.5,0.2,3.2,0.2,4.6c0,0.1,0,0.3-0.1,0.4
			c-0.3,0.6-0.8,1.1-1.2,1.5c0.1,0.4,0.2,1.1,0.3,1.7c0.5,0.3,0.9,0.7,1.4,1.1c0.2,0.2,0.3,0.4,0.3,0.6v3.4c0,0.2-0.1,0.4-0.2,0.6
			c-0.6,0.6-1.3,1.2-2.1,1.6C183,213.4,182.9,213.4,182.8,213.4z"/>
		<path class="st4" d="M169.1,213.4h-32.6c-0.5,0-0.8-0.4-0.8-0.8s0.4-0.8,0.8-0.8h32.6c0.5,0,0.8,0.4,0.8,0.8
			S169.6,213.4,169.1,213.4L169.1,213.4z"/>
		<path class="st4" d="M152.8,148.5c-24.6,0-44.5,19.9-44.5,44.5s19.9,44.5,44.5,44.5s44.5-19.9,44.5-44.5l0,0
			C197.3,168.4,177.4,148.5,152.8,148.5z M152.8,235.5c-23.5,0-42.5-19-42.5-42.5c0-23.5,19-42.5,42.5-42.5
			c23.5,0,42.5,19,42.5,42.5c0,0,0,0,0,0C195.3,216.5,176.3,235.5,152.8,235.5L152.8,235.5z"/>
	</g>
	<path class="st2" d="M284.6,290.6v15 M284.6,15V0 M21,290.6v15 M21,15V0 M290.6,284.6h15 M15,284.6H0 M290.6,21h15 M15,21H0"/>
	<path class="st3" d="M284.6,290.6v15 M284.6,15V0 M21,290.6v15 M21,15V0 M290.6,284.6h15 M15,284.6H0 M290.6,21h15 M15,21H0"/>
	<g>
		<g>
			<path class="st10" d="M125.4,79.7v-9.8c-0.1,0-0.2,0-0.4,0c-0.1,0-0.2,0-0.4,0v9.8c-1,0.2-1.7,1-1.7,2.1c0,1.2,0.9,2.1,2.1,2.1
				c1.2,0,2.1-0.9,2.1-2.1C127.1,80.8,126.4,79.9,125.4,79.7z M125,83.2c-0.8,0-1.4-0.6-1.4-1.4s0.6-1.4,1.4-1.4
				c0.8,0,1.4,0.6,1.4,1.4S125.8,83.2,125,83.2z"/>
			<path class="st10" d="M140.2,66.3c-1,0-1.9,0.8-2.1,1.7h-11.5c0,0.1,0,0.2,0,0.4c0,0.1,0,0.2,0,0.4h11.5c0.2,1,1,1.7,2.1,1.7
				c1.2,0,2.1-0.9,2.1-2.1S141.4,66.3,140.2,66.3z M140.2,69.7c-0.8,0-1.4-0.6-1.4-1.4c0-0.8,0.6-1.4,1.4-1.4c0.8,0,1.4,0.6,1.4,1.4
				C141.6,69.1,141,69.7,140.2,69.7z"/>
		</g>
		<g>
			<path class="st10" d="M139.9,41.6v10c0.1,0,0.2,0,0.4,0c0.1,0,0.2,0,0.4,0v-10c1-0.2,1.7-1,1.7-2.1c0-1.2-0.9-2.1-2.1-2.1
				c-1.2,0-2.1,0.9-2.1,2.1C138.1,40.6,138.9,41.4,139.9,41.6z M140.2,38.1c0.8,0,1.4,0.6,1.4,1.4s-0.6,1.4-1.4,1.4
				c-0.8,0-1.4-0.6-1.4-1.4S139.4,38.1,140.2,38.1z"/>
			<path class="st10" d="M138.5,53.2c0-0.1,0-0.2,0-0.4h-11.5c-0.2-1-1-1.7-2.1-1.7c-1.2,0-2.1,0.9-2.1,2.1c0,1.2,0.9,2.1,2.1,2.1
				c1,0,1.9-0.8,2.1-1.7h11.5C138.5,53.4,138.5,53.3,138.5,53.2z M125,54.6c-0.8,0-1.4-0.6-1.4-1.4c0-0.8,0.6-1.4,1.4-1.4
				c0.8,0,1.4,0.6,1.4,1.4C126.4,53.9,125.8,54.6,125,54.6z"/>
		</g>
		<g>
			<path class="st11" d="M151.5,70v-2.8h-3.1V70H148v-6h0.5v2.8h3.1V64h0.5v6H151.5z"/>
			<path class="st11" d="M155.8,70.1c-1.2,0-2.1-0.8-2.1-2V64h0.5v4c0,1,0.6,1.7,1.6,1.7c1,0,1.6-0.7,1.6-1.7v-4h0.5v4.1
				C157.9,69.3,157,70.1,155.8,70.1z"/>
			<path class="st11" d="M161.9,70h-2.3v-6h2.2c1,0,1.7,0.6,1.7,1.6c0,0.6-0.4,1.2-0.9,1.3c0.6,0.2,1,0.8,1,1.5
				C163.7,69.5,163,70,161.9,70z M161.8,64.5h-1.7v2.3h1.7c0.7,0,1.3-0.3,1.3-1.2C163.1,64.8,162.5,64.5,161.8,64.5z M161.9,67.2
				h-1.8v2.5h1.8c0.8,0,1.4-0.5,1.4-1.2C163.2,67.6,162.7,67.2,161.9,67.2z"/>
			<path class="st10" d="M169.2,70.1c-0.7,0-1.2-0.2-1.6-0.6c-0.6-0.6-0.6-1.3-0.6-2.4c0-1.1,0-1.8,0.6-2.4c0.4-0.4,0.9-0.6,1.6-0.6
				c1.1,0,2,0.6,2.2,1.9h-1.2c-0.1-0.5-0.4-0.9-1-0.9c-0.3,0-0.6,0.1-0.8,0.3c-0.2,0.3-0.3,0.5-0.3,1.7c0,1.1,0.1,1.4,0.3,1.7
				c0.2,0.2,0.4,0.3,0.8,0.3c0.6,0,0.9-0.4,1-0.9h1.2C171.2,69.5,170.4,70.1,169.2,70.1z"/>
			<path class="st10" d="M175.7,70v-2.5h-2V70h-1.2v-6h1.2v2.5h2V64h1.2v6H175.7z"/>
			<path class="st10" d="M181.6,70l-0.4-1.1h-2.1l-0.4,1.1h-1.2l2.2-6h0.9l2.2,6H181.6z M180.2,65.8l-0.8,2.2h1.5L180.2,65.8z"/>
			<path class="st10" d="M183.6,70v-6h1.2v6H183.6z"/>
			<path class="st10" d="M189.7,70l-2.4-3.7V70h-1.2v-6h1l2.4,3.7V64h1.2v6H189.7z"/>
		</g>
		<path class="st11" d="M194.2,51.1c-0.9,0-1.7,0.6-2,1.4h-50.1c-0.3-0.8-1.1-1.4-2-1.4c-1.2,0-2.1,0.9-2.1,2.1
			c0,0.3,0.1,0.6,0.2,0.9l-12.4,12.4c-0.3-0.1-0.6-0.2-0.9-0.2c-0.9,0-1.7,0.6-2,1.4h-9.7c-0.3-0.8-1.1-1.4-2-1.4
			c-1.2,0-2.1,0.9-2.1,2.1s0.9,2.1,2.1,2.1c0.9,0,1.7-0.6,2-1.4h9.7c0.3,0.8,1.1,1.4,2,1.4c1.2,0,2.1-0.9,2.1-2.1
			c0-0.3-0.1-0.6-0.2-0.9l12.4-12.4c0.3,0.1,0.6,0.2,0.9,0.2c0.9,0,1.7-0.6,2-1.4h50.1c0.3,0.8,1.1,1.4,2,1.4c1.2,0,2.1-0.9,2.1-2.1
			S195.4,51.1,194.2,51.1z M111.4,69.7c-0.8,0-1.4-0.6-1.4-1.4c0-0.8,0.6-1.4,1.4-1.4c0.8,0,1.4,0.6,1.4,1.4
			C112.8,69.1,112.2,69.7,111.4,69.7z M125,69.7c-0.1,0-0.2,0-0.3,0c0,0-0.1,0-0.1,0c-0.1,0-0.2-0.1-0.2-0.1c0,0,0,0-0.1,0
			c-0.2-0.1-0.4-0.3-0.5-0.5c-0.1-0.2-0.2-0.4-0.2-0.7s0.1-0.5,0.2-0.7c0.1-0.2,0.3-0.4,0.5-0.5c0,0,0,0,0.1,0
			c0.1,0,0.2-0.1,0.2-0.1c0,0,0.1,0,0.1,0c0.1,0,0.2,0,0.3,0c0.8,0,1.4,0.6,1.4,1.4C126.4,69.1,125.8,69.7,125,69.7z M141.4,53.9
			L141.4,53.9c-0.1,0.2-0.3,0.4-0.5,0.5c0,0,0,0-0.1,0c-0.1,0-0.2,0.1-0.2,0.1c0,0-0.1,0-0.1,0c-0.1,0-0.2,0-0.3,0
			c-0.8,0-1.4-0.6-1.4-1.4s0.6-1.4,1.4-1.4c0.1,0,0.2,0,0.3,0c0,0,0.1,0,0.1,0c0.1,0,0.2,0.1,0.2,0.1c0,0,0,0,0.1,0
			c0.2,0.1,0.4,0.3,0.5,0.5l0,0l0,0c0.1,0.2,0.2,0.4,0.2,0.7S141.5,53.7,141.4,53.9L141.4,53.9z M194.2,54.6c-0.8,0-1.4-0.6-1.4-1.4
			s0.6-1.4,1.4-1.4s1.4,0.6,1.4,1.4S195,54.6,194.2,54.6z"/>
	</g>
</g>
<g id="Ebene_2">
	<g>
		<path class="st0" d="M141.5,270.9v-8.5h5.6v1.5h-4v2h3.4v1.5h-3.4v2.1h4v1.5H141.5z"/>
		<path class="st0" d="M148.7,270.9v-8.5h1.7v7.1h3.9v1.5H148.7z"/>
		<path class="st0" d="M155.6,270.9v-8.5h1.7v7.1h3.9v1.5H155.6z"/>
		<path class="st0" d="M162.5,270.9v-8.5h1.7v8.5H162.5z"/>
	</g>
</g>
</svg>
