<svg id="Ebene_1" data-name="Ebene 1" xmlns="http://www.w3.org/2000/svg" viewBox="0 0 305.63 305.63"><defs><style>.cls-1{fill:#2c3e50;}.cls-2{fill:#2881bb;}.cls-3,.cls-4,.cls-5,.cls-6{fill:none;stroke-miterlimit:10;}.cls-3{stroke:#fff;stroke-width:1.25px;}.cls-4{stroke:#000;stroke-width:0.25px;}.cls-5{stroke:#e30613;}.cls-5,.cls-6{stroke-width:0.28px;}.cls-6{stroke:#2699d6;}.cls-7{fill:#1d1d1b;}.cls-8{fill:#e30613;}</style></defs><title>Zeichenfläche 3</title><path class="cls-1" d="M114,95.12h6.44v1H114v6.46h-1.08V88.3h8.64v1H114Z"/><path class="cls-1" d="M127.11,101.74a3.36,3.36,0,0,0,2.66-1.16l.76.6a4.37,4.37,0,0,1-3.48,1.48c-2.66,0-4.1-1.72-4.1-4.94s1.44-4.94,3.86-4.94,3.86,1.74,3.86,4.7v.46H124C124,100.4,125,101.74,127.11,101.74Zm2.2-6.44a2.74,2.74,0,0,0-5,0,5.26,5.26,0,0,0-.34,1.82h5.68A4.4,4.4,0,0,0,129.31,95.3Z"/><path class="cls-1" d="M137.57,101.74a3.36,3.36,0,0,0,2.66-1.16l.76.6a4.37,4.37,0,0,1-3.48,1.48c-2.66,0-4.1-1.72-4.1-4.94s1.44-4.94,3.86-4.94,3.86,1.74,3.86,4.7v.46h-6.7C134.43,100.4,135.51,101.74,137.57,101.74Zm2.2-6.44a2.74,2.74,0,0,0-5,0,5.26,5.26,0,0,0-.34,1.82h5.68A4.4,4.4,0,0,0,139.77,95.3Z"/><path class="cls-1" d="M150.33,101.3a3.2,3.2,0,0,1-2.86,1.36,3.33,3.33,0,0,1-2.36-.84,5.78,5.78,0,0,1-1.24-4.1,5.78,5.78,0,0,1,1.24-4.1,3.33,3.33,0,0,1,2.36-.84,3.2,3.2,0,0,1,2.86,1.36V88.3h1v14.24h-1Zm-2.72-7.62c-2.36,0-2.72,2-2.72,4s.36,4,2.72,4,2.72-2,2.72-4S150,93.68,147.61,93.68Z"/><path class="cls-1" d="M161.47,101.82a3.33,3.33,0,0,1-2.36.84,3.2,3.2,0,0,1-2.86-1.36v1.24h-1V88.3h1v5.84a3.2,3.2,0,0,1,2.86-1.36,3.33,3.33,0,0,1,2.36.84,5.78,5.78,0,0,1,1.24,4.1A5.78,5.78,0,0,1,161.47,101.82ZM159,93.68c-2.36,0-2.72,2-2.72,4s.36,4,2.72,4,2.72-2,2.72-4S161.33,93.68,159,93.68Z"/><path class="cls-1" d="M171.69,101.58a3.59,3.59,0,0,1-2.94,1.08,3.54,3.54,0,0,1-2.84-.88,2.67,2.67,0,0,1-.7-1.88c0-1.76,1.26-2.78,3.36-2.78h3.12V96c0-1.54-.74-2.36-2.72-2.36a2.77,2.77,0,0,0-2.66,1.22l-.74-.64a3.65,3.65,0,0,1,3.4-1.48c2.56,0,3.74,1.14,3.74,3.16v6.6h-1Zm-3-3.64c-1.64,0-2.46.64-2.46,1.94s.76,1.88,2.52,1.88a3.2,3.2,0,0,0,2.4-.74,2.5,2.5,0,0,0,.54-1.84V97.94Z"/><path class="cls-1" d="M180.19,102.66c-2.64,0-4.24-1.88-4.24-4.94s1.6-4.94,4.24-4.94a3.75,3.75,0,0,1,3.18,1.48l-.7.64a3,3,0,0,0-2.48-1.22A2.91,2.91,0,0,0,177.63,95a6.1,6.1,0,0,0,0,5.52,2.91,2.91,0,0,0,2.56,1.28,3,3,0,0,0,2.48-1.22l.7.64A3.75,3.75,0,0,1,180.19,102.66Z"/><path class="cls-1" d="M189.59,97.24l-2.2,2.54v2.76h-1V88.3h1v10l4.78-5.44h1.3l-3.18,3.6,3.88,6h-1.26Z"/><path class="cls-2" d="M243.52,293.13V141.48a28.76,28.76,0,0,0-3-11.53c-3.78-7.4-10.41-11.15-19.7-11.15H84.78a28.77,28.77,0,0,0-11.53,3c-7.4,3.78-11.15,10.41-11.15,19.7V293.13h-2V141.48c0-24.39,24.43-24.68,24.68-24.68H220.85c24.39,0,24.68,24.43,24.68,24.68V293.13Z"/><path class="cls-1" d="M138.14,271.09a3.55,3.55,0,0,1-2.77-1l.79-.78a2.58,2.58,0,0,0,2,.75c1,0,1.62-.44,1.62-1.2a1.06,1.06,0,0,0-.31-.81,1.36,1.36,0,0,0-.86-.33l-.92-.13a2.68,2.68,0,0,1-1.49-.63,2,2,0,0,1-.57-1.5,2.32,2.32,0,0,1,2.62-2.3,3.26,3.26,0,0,1,2.43.89l-.76.75a2.3,2.3,0,0,0-1.71-.61c-.92,0-1.43.53-1.43,1.22a.93.93,0,0,0,.3.73,1.74,1.74,0,0,0,.88.36l.89.13a2.6,2.6,0,0,1,1.46.58,2,2,0,0,1,.64,1.61C141,270.23,139.78,271.09,138.14,271.09Z"/><path class="cls-1" d="M145.79,271V267.6a1.08,1.08,0,0,0-1.12-1.22,1.09,1.09,0,0,0-1.13,1.22V271h-1.12v-7.83h1.12V266a1.92,1.92,0,0,1,1.44-.63,1.85,1.85,0,0,1,1.94,2V271Z"/><path class="cls-1" d="M152,271v-.56a2,2,0,0,1-1.49.63,1.93,1.93,0,0,1-1.38-.51,2,2,0,0,1-.56-1.57v-3.56h1.12v3.4a1.08,1.08,0,0,0,1.12,1.24,1.11,1.11,0,0,0,1.16-1.24v-3.4h1.12V271Z"/><path class="cls-1" d="M156.55,271a1.45,1.45,0,0,1-1.53-1.55V266.4h-.64v-.86H155v-1.69h1.12v1.69h1.08v.86h-1.08v3a.57.57,0,0,0,.62.65h.46v1Z"/><path class="cls-1" d="M160.31,271a1.45,1.45,0,0,1-1.53-1.55V266.4h-.64v-.86h.64v-1.69h1.12v1.69H161v.86h-1.08v3a.57.57,0,0,0,.62.65H161v1Z"/><path class="cls-1" d="M163.91,271a1.42,1.42,0,0,1-1.53-1.54v-6.29h1.12v6.23c0,.43.15.65.6.65h.5v1Z"/><path class="cls-1" d="M166.39,268.56a1.37,1.37,0,0,0,1.42,1.56,1.66,1.66,0,0,0,1.35-.57l.72.67a2.62,2.62,0,0,1-2.09.87c-1.4,0-2.51-.74-2.51-2.86,0-1.8.93-2.85,2.37-2.85s2.37,1.1,2.37,2.68v.49Zm2.35-1.54a1.15,1.15,0,0,0-1.1-.7,1.16,1.16,0,0,0-1.11.7,1.77,1.77,0,0,0-.14.76h2.51A1.75,1.75,0,0,0,168.75,267Z"/><path class="cls-2" d="M139,189.7h-.14l-10-1.66a1.71,1.71,0,0,1-1.43-1.69c0-2.34.08-10.39,1.64-15.66a3.27,3.27,0,0,1,2.76-2.3l1.5-.2a42.05,42.05,0,0,1,5.61-.48h0a.82.82,0,0,1,0,1.65,40.45,40.45,0,0,0-5.41.47l-1.53.2a1.63,1.63,0,0,0-1.38,1.13c-1.5,5.05-1.58,12.9-1.57,15.19l10,1.73a.82.82,0,0,1-.13,1.63Z"/><path class="cls-2" d="M129.78,205.71a5.4,5.4,0,1,1,5.4-5.4A5.4,5.4,0,0,1,129.78,205.71Zm0-9.14a3.75,3.75,0,1,0,3.75,3.75A3.76,3.76,0,0,0,129.78,196.57Z"/><path class="cls-2" d="M137.3,199.69a.82.82,0,0,1-.82-.82c0-4.87-2.76-5.89-5.08-5.89h-5.27a6.82,6.82,0,0,0-2.74.82.82.82,0,0,1-.81-1.43,8.42,8.42,0,0,1,3.55-1h5.27c2,0,6.72.73,6.72,7.54A.82.82,0,0,1,137.3,199.69Z"/><path class="cls-2" d="M168.33,199.69a.82.82,0,0,1-.82-.82c0-6.8,4.7-7.54,6.72-7.54h5.27a8.42,8.42,0,0,1,3.55,1,.83.83,0,0,1,.4.54c0,.06.32,1.51.47,2.63a.82.82,0,0,1-1.63.22c-.1-.72-.27-1.62-.37-2.12a6.25,6.25,0,0,0-2.42-.66h-5.27c-2.32,0-5.08,1-5.08,5.89A.82.82,0,0,1,168.33,199.69Z"/><path class="cls-2" d="M166.59,189.7a.82.82,0,0,1-.13-1.63l10-1.66c.07-2.35,0-10.2-1.52-15.26a1.63,1.63,0,0,0-1.38-1.13l-1.53-.2a40.46,40.46,0,0,0-5.41-.47.82.82,0,0,1,0-1.65h0a42,42,0,0,1,5.61.48l1.5.2a3.28,3.28,0,0,1,2.76,2.3c1.56,5.28,1.65,13.32,1.64,15.66a1.71,1.71,0,0,1-1.43,1.69l-10,1.66Z"/><path class="cls-2" d="M163,198.86H152.82A.82.82,0,0,1,152,198V167.24a.82.82,0,0,1,.82-.82H163a.82.82,0,0,1,.82.82V198A.82.82,0,0,1,163,198.86Zm-9.34-1.65h8.52V168.07h-8.52Z"/><path class="cls-2" d="M152.82,198.86H142.65a.82.82,0,0,1-.82-.82V167.24a.82.82,0,0,1,.82-.82h10.16a.82.82,0,0,1,.82.82V198A.82.82,0,0,1,152.82,198.86Zm-9.34-1.65H152V168.07h-8.52Z"/><path class="cls-2" d="M165.31,164.26a.82.82,0,0,1-.79-.6l-.83-3a78,78,0,0,0-21.75,0l-.82,3a.82.82,0,0,1-1.59-.44l1-3.49a.82.82,0,0,1,.67-.59,79.65,79.65,0,0,1,23.3,0,.82.82,0,0,1,.67.59l1,3.49a.82.82,0,0,1-.79,1Z"/><path class="cls-2" d="M175.85,205.71a5.4,5.4,0,1,1,5.39-5.4A5.4,5.4,0,0,1,175.85,205.71Zm0-9.14a3.75,3.75,0,1,0,3.75,3.75A3.76,3.76,0,0,0,175.85,196.57Z"/><path class="cls-2" d="M182.84,202.41a.82.82,0,0,1-.31-1.58,6.39,6.39,0,0,0,1.34-1v-2.62a7.32,7.32,0,0,0-1.12-.83.82.82,0,0,1-.45-.63c-.14-1.06-.45-2.49-.45-2.5a.82.82,0,0,1,.36-.86,4,4,0,0,0,1.06-1.1c0-1.54-.11-3.39-.16-4.3a122.63,122.63,0,0,0-2.75-18.28,4.35,4.35,0,0,0-3.74-3.35,172.21,172.21,0,0,0-22.74-1.11h-2.12A172.4,172.4,0,0,0,129,165.37a4.35,4.35,0,0,0-3.73,3.34A122.41,122.41,0,0,0,122.53,187c-.07,1.29-.15,2.92-.16,4.3a4.05,4.05,0,0,0,1.06,1.1.82.82,0,0,1,.36.86s-.31,1.45-.45,2.5a.82.82,0,0,1-.45.63,7.39,7.39,0,0,0-1.12.83v2.62a6.34,6.34,0,0,0,1.34,1,.82.82,0,0,1-.62,1.52,8.68,8.68,0,0,1-2.12-1.58.83.83,0,0,1-.25-.59v-3.35a.82.82,0,0,1,.27-.61,13.15,13.15,0,0,1,1.37-1.09c.1-.62.22-1.28.31-1.72a5.94,5.94,0,0,1-1.25-1.5.82.82,0,0,1-.1-.4c0-1.46.09-3.24.17-4.63a124.14,124.14,0,0,1,2.79-18.54,6,6,0,0,1,5.14-4.62,172.09,172.09,0,0,1,22.94-1.12h2.11a172.93,172.93,0,0,1,22.94,1.12,6,6,0,0,1,5.14,4.62,124.25,124.25,0,0,1,2.79,18.54c.08,1.48.17,3.19.17,4.63a.82.82,0,0,1-.11.4,6,6,0,0,1-1.25,1.5c.09.44.21,1.1.31,1.72a13.2,13.2,0,0,1,1.37,1.09.83.83,0,0,1,.27.61v3.35a.82.82,0,0,1-.25.59,8.69,8.69,0,0,1-2.12,1.58A.81.81,0,0,1,182.84,202.41Z"/><path class="cls-2" d="M169.13,202.41H136.51a.82.82,0,0,1,0-1.65h32.62a.82.82,0,0,1,0,1.65Z"/><path class="cls-2" d="M152.82,137.48A44.52,44.52,0,1,0,197.34,182,44.57,44.57,0,0,0,152.82,137.48Zm0,87A42.52,42.52,0,1,1,195.34,182,42.56,42.56,0,0,1,152.82,224.52Z"/><path class="cls-3" d="M284.62,290.62v15m0-290.62V0M21,290.62v15M21,15V0M290.62,284.62h15M15,284.62H0M290.62,21h15M15,21H0"/><path class="cls-4" d="M284.62,290.62v15m0-290.62V0M21,290.62v15M21,15V0M290.62,284.62h15M15,284.62H0M290.62,21h15M15,21H0"/><path class="cls-5" d="M143,65.27a11.2,11.2,0,0,1-11.14-12.36c.39-3.74-.64-5.39-3.55-5.7a7.14,7.14,0,1,1,7.83-7.83c.31,2.91,2,3.94,5.7,3.55a11.59,11.59,0,0,1,1.16-.06,11.2,11.2,0,0,1,0,22.4"/><path class="cls-5" d="M142,61.9A8.88,8.88,0,0,1,133.08,53a9.08,9.08,0,0,1,0-.92c.31-2.95-.5-4.25-2.79-4.49a5.66,5.66,0,1,1,6.21-6.21c.24,2.29,1.54,3.09,4.49,2.79a9.18,9.18,0,0,1,.92,0,8.87,8.87,0,0,1,0,17.74"/><path class="cls-5" d="M140.91,58.53A6.54,6.54,0,0,1,134.38,52c0-.22,0-.45,0-.68.22-2.15-.37-3.1-2-3.27A4.18,4.18,0,1,1,137,43.46c.18,1.67,1.12,2.25,3.27,2a6.34,6.34,0,0,1,.68,0,6.53,6.53,0,1,1,0,13.07"/><path class="cls-5" d="M139.87,46.75l-.43,0a2.27,2.27,0,0,1-1.55-.23,1.33,1.33,0,0,1-.5-1l0-.16h0a2.69,2.69,0,1,0-3.09,3.08v0l.17,0c.77.07,1.45.38,1.28,2.05a3.1,3.1,0,0,0,0,.43,4.2,4.2,0,1,0,4.2-4.2Z"/><path class="cls-6" d="M127.42,70.75A8.41,8.41,0,0,1,126.56,54c3.45-.36,4.66-2.32,4.21-6.74A13.21,13.21,0,1,1,142.53,59c-4.43-.46-6.38.76-6.74,4.21a8.38,8.38,0,0,1-8.37,7.56"/><path class="cls-6" d="M128.33,69.12a7.7,7.7,0,0,1-.78-15.35c3.14-.33,4.26-2.11,3.84-6.15a12.38,12.38,0,0,1-.06-1.25,12.07,12.07,0,1,1,12.07,12.07,12.26,12.26,0,0,1-1.25-.07c-4-.42-5.82.69-6.16,3.84a7.67,7.67,0,0,1-7.66,6.91"/><path class="cls-6" d="M129.25,67.49a7,7,0,0,1-.71-13.92c2.84-.3,3.85-1.91,3.47-5.57a11.21,11.21,0,0,1-.06-1.13,10.94,10.94,0,1,1,9.81,10.89c-3.66-.37-5.27.63-5.57,3.47a7,7,0,0,1-6.94,6.27"/><path class="cls-6" d="M130.16,65.85a6.26,6.26,0,0,1-.64-12.49c2.54-.27,3.44-1.71,3.1-5a10.07,10.07,0,0,1-.05-1,9.81,9.81,0,1,1,8.8,9.76c-3.27-.33-4.71.56-5,3.1a6.24,6.24,0,0,1-6.23,5.62"/><path class="cls-6" d="M131.08,64.22a5.54,5.54,0,0,1-.56-11.06c2.24-.24,3-1.51,2.73-4.39A8.69,8.69,0,1,1,141,56.51c-2.88-.3-4.15.49-4.39,2.73a5.52,5.52,0,0,1-5.52,5"/><path class="cls-6" d="M132,62.59A4.83,4.83,0,0,1,131.5,53c1.94-.2,2.62-1.31,2.36-3.8a7.67,7.67,0,0,1,0-.78,7.55,7.55,0,1,1,7.55,7.55,7.7,7.7,0,0,1-.78,0c-2.5-.26-3.6.43-3.8,2.36a4.81,4.81,0,0,1-4.8,4.34"/><path class="cls-6" d="M132.91,61a4.11,4.11,0,0,1-.42-8.2c1.64-.17,2.21-1.1,2-3.21a6.54,6.54,0,0,1,0-.67,6.42,6.42,0,1,1,6.42,6.42,6.54,6.54,0,0,1-.67,0c-2.11-.22-3,.36-3.21,2A4.1,4.1,0,0,1,132.91,61"/><path class="cls-6" d="M133.83,59.32a3.38,3.38,0,0,1-.5-6.73l0,0,.17,0c1.34-.14,1.81-.9,1.63-2.62a5.42,5.42,0,0,1,0-.55,5.29,5.29,0,1,1,4.75,5.27c-1.73-.18-2.49.29-2.62,1.63l0,.17,0,0a3.37,3.37,0,0,1-3.34,2.89"/><path class="cls-6" d="M134.74,57.69a2.67,2.67,0,0,1-.43-5.3h0l.16,0c.76-.08,1.43-.38,1.26-2,0-.14,0-.29,0-.43a4.17,4.17,0,1,1,4.16,4.16l-.43,0c-1.66-.17-2,.51-2,1.26l0,.17,0,0a2.66,2.66,0,0,1-2.63,2.24"/><path class="cls-6" d="M135.66,56.05a2,2,0,0,1-.36-3.87h0l.16,0a.94.94,0,0,0,.73-.35,1.63,1.63,0,0,0,.16-1.1l0-.24h0s0-.06,0-.09a3,3,0,1,1,3,3h-.07l-.24,0a1.63,1.63,0,0,0-1.1.16.94.94,0,0,0-.35.73l0,.18v0a1.94,1.94,0,0,1-1.91,1.59"/><path class="cls-7" d="M165.07,44a1.61,1.61,0,0,0-1.26-.54,1.67,1.67,0,0,0-.9.25,1.73,1.73,0,0,0-.62.7,2.35,2.35,0,0,0-.21,1v.09a2.11,2.11,0,0,0,.48,1.45,1.61,1.61,0,0,0,1.26.54,1.72,1.72,0,0,0,.9-.24,1.67,1.67,0,0,0,.61-.7,2.29,2.29,0,0,0,.22-1v-.09A2.09,2.09,0,0,0,165.07,44Zm.05,1.5a1.82,1.82,0,0,1-.36,1.18,1.22,1.22,0,0,1-1.89,0,1.77,1.77,0,0,1-.36-1.14v-.08a1.82,1.82,0,0,1,.36-1.18A1.21,1.21,0,0,1,164.5,44a1.31,1.31,0,0,1,.46.57,2,2,0,0,1,.17.82Z"/><path class="cls-7" d="M169.17,43.95a1.3,1.3,0,0,0-1.09-.53,1.38,1.38,0,0,0-1.22.62l0-.55h-.39v5.39h.43v-2a1.43,1.43,0,0,0,1.22.56,1.26,1.26,0,0,0,1.08-.54,2.3,2.3,0,0,0,.41-1.44v-.06A2.39,2.39,0,0,0,169.17,43.95Zm-.33,2.71a1,1,0,0,1-.85.43,1.28,1.28,0,0,1-.68-.17,1.12,1.12,0,0,1-.44-.52V44.54a1.15,1.15,0,0,1,.43-.56,1.18,1.18,0,0,1,.68-.19,1,1,0,0,1,.86.43,2,2,0,0,1,.3,1.17A2.2,2.2,0,0,1,168.83,46.66Z"/><path class="cls-7" d="M173.48,45.47v-.24a2,2,0,0,0-.42-1.32,1.4,1.4,0,0,0-1.12-.48,1.5,1.5,0,0,0-.84.26,1.73,1.73,0,0,0-.6.71,2.29,2.29,0,0,0-.22,1v.15a2.12,2.12,0,0,0,.22,1,1.66,1.66,0,0,0,.62.68,1.69,1.69,0,0,0,.9.24,1.57,1.57,0,0,0,1.38-.69l-.27-.21a1.34,1.34,0,0,1-.48.4,1.4,1.4,0,0,1-.61.13,1.21,1.21,0,0,1-1-.44,1.63,1.63,0,0,1-.38-1.1v-.08Zm-2.36-1.32a1.08,1.08,0,0,1,.82-.36,1,1,0,0,1,.79.35,1.43,1.43,0,0,1,.32.91v0h-2.33A1.64,1.64,0,0,1,171.13,44.15Z"/><path class="cls-7" d="M174.73,43.5v.67a1.54,1.54,0,0,1,.55-.55,1.41,1.41,0,0,1,.72-.19,1.17,1.17,0,0,1,.93.35,1.59,1.59,0,0,1,.31,1.06v2.55h-.43V44.83a1.19,1.19,0,0,0-.22-.78.86.86,0,0,0-.7-.26,1.09,1.09,0,0,0-.71.25,1.47,1.47,0,0,0-.45.67v2.66h-.43V43.5Z"/><path class="cls-7" d="M162.71,52.33V53a1.44,1.44,0,0,1,.54-.53,1.47,1.47,0,0,1,.72-.18,1.09,1.09,0,0,1,1.17.75,1.46,1.46,0,0,1,.56-.56,1.54,1.54,0,0,1,.77-.2q1.25,0,1.28,1.37v2.59h-.43V53.65a1.16,1.16,0,0,0-.22-.77.91.91,0,0,0-.72-.25,1.15,1.15,0,0,0-.78.3,1.06,1.06,0,0,0-.36.71v2.57h-.43V53.62a1.07,1.07,0,0,0-.24-.75.94.94,0,0,0-.71-.25,1.08,1.08,0,0,0-.7.23,1.36,1.36,0,0,0-.43.69v2.67h-.43V52.33Z"/><path class="cls-7" d="M168.6,54.21a2.29,2.29,0,0,1,.22-1,1.63,1.63,0,0,1,1.51-.95,1.6,1.6,0,0,1,1.26.54,2.1,2.1,0,0,1,.48,1.44v.09a2.31,2.31,0,0,1-.22,1,1.63,1.63,0,0,1-.61.7,1.68,1.68,0,0,1-.9.24,1.6,1.6,0,0,1-1.26-.54,2.1,2.1,0,0,1-.48-1.44Zm.43.12a1.76,1.76,0,0,0,.36,1.14,1.22,1.22,0,0,0,1.89,0,1.82,1.82,0,0,0,.36-1.18v-.08a2,2,0,0,0-.17-.82,1.32,1.32,0,0,0-.46-.57,1.19,1.19,0,0,0-.68-.2,1.15,1.15,0,0,0-.94.45,1.83,1.83,0,0,0-.36,1.18Z"/><path class="cls-7" d="M176.09,54.31a2.34,2.34,0,0,1-.4,1.44,1.28,1.28,0,0,1-1.08.53,1.4,1.4,0,0,1-1.23-.6l0,.53H173V50.7h.43v2.2a1.35,1.35,0,0,1,1.21-.64,1.3,1.3,0,0,1,1.09.53,2.37,2.37,0,0,1,.4,1.46Zm-.43-.07a2,2,0,0,0-.3-1.19,1,1,0,0,0-.84-.42,1.19,1.19,0,0,0-.7.2,1.23,1.23,0,0,0-.43.59v1.75a1.15,1.15,0,0,0,1.14.73,1,1,0,0,0,.83-.42,2.17,2.17,0,0,0,.3-1.26"/><path class="cls-7" d="M177,51.2a.29.29,0,0,1,.08-.2.28.28,0,0,1,.22-.08.29.29,0,0,1,.22.08.28.28,0,0,1,.08.2.28.28,0,0,1-.08.2.29.29,0,0,1-.22.08.28.28,0,0,1-.29-.29m.51,5h-.43V52.33h.43Z"/><rect class="cls-7" x="178.74" y="50.7" width="0.43" height="5.52"/><path class="cls-7" d="M180.32,51.2a.29.29,0,0,1,.08-.2.28.28,0,0,1,.22-.08.29.29,0,0,1,.22.08.28.28,0,0,1,.08.2.28.28,0,0,1-.08.2.29.29,0,0,1-.22.08.28.28,0,0,1-.29-.29m.51,5h-.43V52.33h.43Z"/><path class="cls-7" d="M182.66,51.33v1h.8v.35h-.8v2.59a.81.81,0,0,0,.12.48.45.45,0,0,0,.39.16l.35,0,0,.35a1.42,1.42,0,0,1-.46.06.77.77,0,0,1-.64-.26,1.21,1.21,0,0,1-.2-.76V52.68h-.72v-.35h.72v-1Z"/><path class="cls-7" d="M185.59,55.6l1.14-3.27h.46l-1.66,4.55-.09.2a1,1,0,0,1-1,.71,1.21,1.21,0,0,1-.33-.05v-.36l.22,0a.8.8,0,0,0,.51-.16,1.18,1.18,0,0,0,.33-.54l.19-.52-1.47-3.86h.47Z"/><path class="cls-7" d="M162.63,65V61.51H162v-.35h.64v-.47a1.28,1.28,0,0,1,.3-.92,1.11,1.11,0,0,1,.85-.32,1.64,1.64,0,0,1,.46.06l0,.36a1.68,1.68,0,0,0-.39,0,.71.71,0,0,0-.55.22.92.92,0,0,0-.2.63v.48H164v.35h-.93V65Z"/><path class="cls-7" d="M164.52,63a2.29,2.29,0,0,1,.22-1,1.63,1.63,0,0,1,1.51-.95,1.6,1.6,0,0,1,1.26.54,2.1,2.1,0,0,1,.48,1.44v.09a2.31,2.31,0,0,1-.22,1,1.63,1.63,0,0,1-.61.7,1.69,1.69,0,0,1-.9.24,1.6,1.6,0,0,1-1.26-.54,2.1,2.1,0,0,1-.48-1.44Zm.43.12a1.77,1.77,0,0,0,.36,1.14,1.22,1.22,0,0,0,1.89,0,1.82,1.82,0,0,0,.36-1.18V63a2,2,0,0,0-.17-.81,1.32,1.32,0,0,0-.46-.57,1.18,1.18,0,0,0-.68-.2,1.15,1.15,0,0,0-.94.45,1.83,1.83,0,0,0-.36,1.18Z"/><path class="cls-7" d="M170.67,61.53l-.29,0a1,1,0,0,0-.68.22,1.24,1.24,0,0,0-.4.65V65h-.43V61.16h.42v.62a1.14,1.14,0,0,1,1.1-.69.71.71,0,0,1,.28,0Z"/><path class="cls-7" d="M173.85,64.55a1.4,1.4,0,0,1-1.24.56,1.2,1.2,0,0,1-.94-.36,1.58,1.58,0,0,1-.33-1.07V61.16h.43v2.48q0,1.11.9,1.11a1.1,1.1,0,0,0,1.18-.77V61.16h.43V65h-.42Z"/><path class="cls-7" d="M175.8,61.16v.63a1.44,1.44,0,0,1,.54-.53,1.48,1.48,0,0,1,.72-.18,1.09,1.09,0,0,1,1.17.75,1.45,1.45,0,0,1,.56-.56,1.54,1.54,0,0,1,.77-.2q1.25,0,1.28,1.37V65h-.43V62.48a1.16,1.16,0,0,0-.22-.77.91.91,0,0,0-.72-.25,1.14,1.14,0,0,0-.78.3,1.06,1.06,0,0,0-.36.71V65h-.43V62.45a1.07,1.07,0,0,0-.24-.75.94.94,0,0,0-.71-.25,1.08,1.08,0,0,0-.7.23,1.36,1.36,0,0,0-.43.69V65h-.43V61.16Z"/><path class="cls-5" d="M139.35,53.47a3,3,0,0,1-3-3s0-.06,0-.09h0l0-.24c.12-1.11-.27-1.38-.89-1.45l-.16,0a2,2,0,1,1,2.28-2.27h0l0,.16c.06.62.33,1,1.45.89l.24,0h.08a3,3,0,0,1,0,6.07"/><path class="cls-5" d="M140.39,56.84A5.38,5.38,0,0,1,135,51.47a5.57,5.57,0,0,1,0-.56c.18-1.75-.3-2.52-1.65-2.66l-.18,0a3.44,3.44,0,1,1,3.92-3.91l0,0,0,.17c.14,1.36.91,1.84,2.66,1.66a5.37,5.37,0,1,1,.56,10.71"/><path class="cls-5" d="M141.43,60.21a7.71,7.71,0,0,1-7.7-7.7,7.84,7.84,0,0,1,0-.8c.26-2.55-.43-3.67-2.41-3.88a4.92,4.92,0,1,1,5.4-5.39c.21,2,1.33,2.67,3.88,2.41a7.7,7.7,0,1,1,.8,15.36"/><path class="cls-5" d="M142.47,63.59a10,10,0,0,1-10-10,10.3,10.3,0,0,1,.05-1c.35-3.34-.57-4.82-3.17-5.09a6.4,6.4,0,1,1,7-7c.27,2.6,1.75,3.52,5.09,3.17a10,10,0,1,1,1,20"/><path class="cls-8" d="M139.35,53.6a3.19,3.19,0,1,1,3.19-3.19,3.19,3.19,0,0,1-3.19,3.19m0-5.95a2.76,2.76,0,1,0,2.76,2.76,2.76,2.76,0,0,0-2.76-2.76"/></svg>