<svg id="Ebene_1" data-name="Ebene 1" xmlns="http://www.w3.org/2000/svg" viewBox="0 0 305.63 305.63"><defs><style>.cls-1{fill:#3b95d2;}.cls-2{font-size:8px;font-family:DINPro-Regular, DINPro;}.cls-2,.cls-3{fill:#2c3e50;}.cls-4,.cls-5{fill:none;stroke-miterlimit:10;}.cls-4{stroke:#fff;stroke-width:1.25px;}.cls-5{stroke:#000;stroke-width:0.25px;}</style></defs><title>Zeichenfläche 1 Kopie</title><path class="cls-1" d="M60.11,293.13V141.48c0-24.39,24.43-24.68,24.68-24.68H220.85c24.39,0,24.68,24.43,24.68,24.68V293.13h-2V141.48a28.76,28.76,0,0,0-3-11.53c-3.78-7.4-10.41-11.15-19.7-11.15H84.78a28.77,28.77,0,0,0-11.53,3c-7.4,3.78-11.15,10.41-11.15,19.7V293.13Z"/><text class="cls-2" transform="translate(103.63 253.76)">Auf </text><path class="cls-1" d="M120.62,253.76v-2.49a.78.78,0,0,0-.82-.89.79.79,0,0,0-.82.89v2.49h-.82v-5.69H119v2a1.39,1.39,0,0,1,1-.46,1.34,1.34,0,0,1,1.41,1.49v2.61Z"/><path class="cls-1" d="M123.9,253.76a1.06,1.06,0,0,1-1.11-1.13V250.4h-.46v-.62h.46v-1.23h.82v1.23h.78v.62h-.78v2.19a.41.41,0,0,0,.45.47h.34v.7Z"/><path class="cls-1" d="M126.64,253.76a1.06,1.06,0,0,1-1.11-1.13V250.4h-.46v-.62h.46v-1.23h.82v1.23h.78v.62h-.78v2.19a.41.41,0,0,0,.45.47h.34v.7Z"/><path class="cls-1" d="M131,253.45a1.38,1.38,0,0,1-1,.36,1.26,1.26,0,0,1-1.06-.46v2.05h-.82V249.7h.8v.43a1.25,1.25,0,0,1,1.07-.48,1.4,1.4,0,0,1,1,.36,3.46,3.46,0,0,1,0,3.43Zm-1.2-3.06c-.74,0-.85.62-.85,1.34s.11,1.35.85,1.35.84-.63.84-1.35S130.56,250.38,129.83,250.38Z"/><path class="cls-1" d="M133.9,253.81a2.23,2.23,0,0,1-1.7-.58l.54-.54a1.57,1.57,0,0,0,1.17.42c.5,0,.89-.18.89-.56s-.15-.45-.54-.48l-.65-.06c-.76-.06-1.2-.41-1.2-1.12s.68-1.24,1.53-1.24a2.23,2.23,0,0,1,1.5.46l-.51.52a1.53,1.53,0,0,0-1-.3c-.49,0-.74.22-.74.52s.13.42.56.46l.64.06c.76.06,1.21.42,1.21,1.14S134.87,253.81,133.9,253.81Z"/><path class="cls-1" d="M136.76,251.48v-1h1v1Zm0,2.28v-1h1v1Z"/><path class="cls-1" d="M139.14,254.35h-.78l2.28-6.88h.78Z"/><path class="cls-1" d="M142.18,254.35h-.78l2.28-6.88h.78Z"/><path class="cls-1" d="M146.39,253.81a2.23,2.23,0,0,1-1.7-.58l.54-.54a1.57,1.57,0,0,0,1.17.42c.5,0,.89-.18.89-.56s-.15-.45-.54-.48l-.65-.06c-.76-.06-1.2-.41-1.2-1.12s.68-1.24,1.53-1.24a2.23,2.23,0,0,1,1.5.46l-.51.52a1.53,1.53,0,0,0-1-.3c-.49,0-.74.22-.74.52s.13.42.56.46l.64.06c.76.06,1.21.42,1.21,1.14S147.36,253.81,146.39,253.81Z"/><path class="cls-1" d="M151.53,253.76v-2.49a.78.78,0,0,0-.82-.89.79.79,0,0,0-.82.89v2.49h-.82v-5.69h.82v2a1.39,1.39,0,0,1,1-.46,1.34,1.34,0,0,1,1.41,1.49v2.61Z"/><path class="cls-1" d="M156.05,253.76v-.41a1.45,1.45,0,0,1-1.08.46,1.4,1.4,0,0,1-1-.37,1.49,1.49,0,0,1-.41-1.14V249.7h.82v2.47a.79.79,0,0,0,.82.9.81.81,0,0,0,.84-.9V249.7h.82v4.05Z"/><path class="cls-1" d="M159.35,253.76a1.06,1.06,0,0,1-1.11-1.13V250.4h-.46v-.62h.46v-1.23h.82v1.23h.78v.62h-.78v2.19a.41.41,0,0,0,.45.47h.34v.7Z"/><path class="cls-1" d="M162.09,253.76a1.06,1.06,0,0,1-1.11-1.13V250.4h-.46v-.62H161v-1.23h.82v1.23h.78v.62h-.78v2.19a.41.41,0,0,0,.45.47h.34v.7Z"/><path class="cls-1" d="M164.71,253.76a1,1,0,0,1-1.11-1.12v-4.57h.82v4.53c0,.31.11.47.44.47h.36v.7Z"/><path class="cls-1" d="M166.51,252a1,1,0,0,0,1,1.14,1.21,1.21,0,0,0,1-.42l.52.49a1.9,1.9,0,0,1-1.52.63c-1,0-1.82-.54-1.82-2.08,0-1.31.68-2.07,1.72-2.07a1.72,1.72,0,0,1,1.72,2V252Zm1.71-1.12a.83.83,0,0,0-.8-.51.85.85,0,0,0-.81.51,1.28,1.28,0,0,0-.1.55h1.82A1.27,1.27,0,0,0,168.22,250.85Z"/><path class="cls-1" d="M170.2,253.76v-1h1v1Z"/><path class="cls-1" d="M172.42,248.9V248h.86v.86Zm0,4.85V249.7h.82v4.05Z"/><path class="cls-1" d="M177,253.76v-2.47a.79.79,0,0,0-.82-.9.81.81,0,0,0-.84.9v2.47h-.82V249.7h.8v.41a1.45,1.45,0,0,1,1.08-.46,1.41,1.41,0,0,1,1,.37,1.49,1.49,0,0,1,.41,1.14v2.59Z"/><path class="cls-1" d="M181.57,253.76v-2.47a.79.79,0,0,0-.82-.9.81.81,0,0,0-.84.9v2.47h-.82V249.7h.8v.41a1.45,1.45,0,0,1,1.08-.46,1.41,1.41,0,0,1,1,.37,1.49,1.49,0,0,1,.41,1.14v2.59Z"/><path class="cls-1" d="M186.35,253.33a1.64,1.64,0,0,1-1.22.48,1.62,1.62,0,0,1-1.21-.48,2.89,2.89,0,0,1,0-3.19,1.62,1.62,0,0,1,1.21-.48,1.64,1.64,0,0,1,1.22.48,2.89,2.89,0,0,1,0,3.19Zm-.62-2.71a.83.83,0,0,0-.6-.23.81.81,0,0,0-.59.23,2.35,2.35,0,0,0,0,2.22.81.81,0,0,0,.59.24.83.83,0,0,0,.6-.24,2.34,2.34,0,0,0,0-2.22Z"/><path class="cls-1" d="M187.64,253.76v-.65l2-2.68h-1.9v-.73h2.91v.65l-2,2.68h2v.73Z"/><path class="cls-1" d="M191.67,253.76v-1h1v1Z"/><path class="cls-1" d="M196.24,253.76v-.43a1.25,1.25,0,0,1-1.07.48,1.41,1.41,0,0,1-1-.36,3.46,3.46,0,0,1,0-3.43,1.39,1.39,0,0,1,1-.36,1.25,1.25,0,0,1,1.06.46v-2H197v5.69Zm-.86-3.37c-.74,0-.85.62-.85,1.34s.11,1.35.85,1.35.84-.63.84-1.35S196.12,250.38,195.39,250.38Z"/><path class="cls-1" d="M198.94,252a1,1,0,0,0,1,1.14,1.21,1.21,0,0,0,1-.42l.52.49a1.9,1.9,0,0,1-1.52.63c-1,0-1.82-.54-1.82-2.08,0-1.31.68-2.07,1.72-2.07a1.72,1.72,0,0,1,1.72,2V252Zm1.71-1.12a.83.83,0,0,0-.8-.51.85.85,0,0,0-.81.51,1.28,1.28,0,0,0-.1.55h1.82A1.27,1.27,0,0,0,200.65,250.85Z"/><path class="cls-3" d="M114.42,258.21v2.09h2.49v.54h-2.49v2.51h-.61v-5.69h3.53v.54Z"/><path class="cls-3" d="M120.31,260.17a.82.82,0,0,0-.68-.29,1,1,0,0,0-.94,1.05v2.42h-.58v-3.93h.58v.48a1.32,1.32,0,0,1,1.1-.53,1.21,1.21,0,0,1,.94.37Z"/><path class="cls-3" d="M123.64,263.36V263a1.38,1.38,0,0,1-1.14.42,1.4,1.4,0,0,1-1.11-.36,1.14,1.14,0,0,1-.3-.8c0-.69.48-1.14,1.36-1.14h1.18v-.38c0-.58-.29-.86-1-.86a1,1,0,0,0-1,.45l-.39-.36a1.53,1.53,0,0,1,1.39-.58c1.06,0,1.58.46,1.58,1.31v2.67Zm0-1.82h-1.1c-.59,0-.88.24-.88.7s.28.67.9.67a1.15,1.15,0,0,0,.88-.26.91.91,0,0,0,.2-.68Z"/><path class="cls-3" d="M126.88,265.16a1.74,1.74,0,0,1-1.34-.53l.38-.37a1.21,1.21,0,0,0,.94.39c.76,0,1.08-.54,1.08-1.21v-.62a1.27,1.27,0,0,1-1.1.51,1.35,1.35,0,0,1-1-.35,3,3,0,0,1,0-3.28,1.37,1.37,0,0,1,1-.34,1.24,1.24,0,0,1,1.1.51v-.46h.57v4.05A1.57,1.57,0,0,1,126.88,265.16Zm.09-5.28c-.86,0-1,.74-1,1.47s.13,1.47,1,1.47,1-.74,1-1.47S127.83,259.89,127,259.89Z"/><path class="cls-3" d="M130.32,261.54c0,.86.41,1.36,1.16,1.36a1.29,1.29,0,0,0,1-.45l.39.34a1.8,1.8,0,0,1-1.44.61c-1,0-1.72-.62-1.72-2s.62-2,1.61-2,1.62.74,1.62,1.9v.26Zm2-1.09a1,1,0,0,0-1.84,0,1.65,1.65,0,0,0-.12.66h2.08A1.65,1.65,0,0,0,132.28,260.45Z"/><path class="cls-3" d="M136.85,263.06a1.37,1.37,0,0,1-1,.34,1.26,1.26,0,0,1-1.11-.52v.47h-.58v-5.69h.58v2.21a1.27,1.27,0,0,1,1.11-.5,1.37,1.37,0,0,1,1,.34,3.15,3.15,0,0,1,0,3.34Zm-1.08-3.17c-.86,0-1,.74-1,1.5s.14,1.5,1,1.5,1-.74,1-1.5S136.63,259.89,135.77,259.89Z"/><path class="cls-3" d="M141.09,263a1.64,1.64,0,0,1-2.25,0,2.8,2.8,0,0,1,0-3.13,1.64,1.64,0,0,1,2.25,0,2.8,2.8,0,0,1,0,3.13Zm-.41-2.78a1,1,0,0,0-.72-.29,1,1,0,0,0-.71.29,2.47,2.47,0,0,0,0,2.43,1,1,0,0,0,.71.29,1,1,0,0,0,.72-.29,2.52,2.52,0,0,0,0-2.43Z"/><path class="cls-3" d="M144.07,265.16a1.74,1.74,0,0,1-1.34-.53l.38-.37a1.21,1.21,0,0,0,.94.39c.76,0,1.08-.54,1.08-1.21v-.62a1.27,1.27,0,0,1-1.1.51,1.36,1.36,0,0,1-1-.35,3,3,0,0,1,0-3.28,1.37,1.37,0,0,1,1-.34,1.24,1.24,0,0,1,1.1.51v-.46h.57v4.05A1.57,1.57,0,0,1,144.07,265.16Zm.09-5.28c-.86,0-1,.74-1,1.47s.13,1.47,1,1.47,1-.74,1-1.47S145,259.89,144.16,259.89Z"/><path class="cls-3" d="M147.51,261.54c0,.86.41,1.36,1.16,1.36a1.29,1.29,0,0,0,1-.45l.39.34a1.8,1.8,0,0,1-1.44.61c-1,0-1.72-.62-1.72-2s.62-2,1.61-2,1.62.74,1.62,1.9v.26Zm2-1.09a1,1,0,0,0-1.84,0,1.65,1.65,0,0,0-.12.66h2.08A1.65,1.65,0,0,0,149.47,260.45Z"/><path class="cls-3" d="M153.91,263.36v-2.42a1,1,0,1,0-1.94,0v2.42h-.58v-3.93H152v.43a1.42,1.42,0,0,1,1.1-.48,1.38,1.38,0,0,1,1,.37,1.46,1.46,0,0,1,.41,1.1v2.52Z"/><path class="cls-3" d="M160.11,263.36V263a1.38,1.38,0,0,1-1.13.42,1.4,1.4,0,0,1-1.11-.36,1.13,1.13,0,0,1-.3-.8c0-.69.48-1.14,1.36-1.14h1.18v-.38c0-.58-.29-.86-1-.86a1,1,0,0,0-1,.45l-.39-.36a1.53,1.53,0,0,1,1.39-.58c1.06,0,1.58.46,1.58,1.31v2.67Zm0-1.82H159c-.59,0-.88.24-.88.7s.28.67.9.67a1.15,1.15,0,0,0,.88-.26.91.91,0,0,0,.2-.68Z"/><path class="cls-3" d="M164.57,263.36v-.44a1.44,1.44,0,0,1-1.11.49,1.4,1.4,0,0,1-1-.37,1.47,1.47,0,0,1-.4-1.1v-2.51h.58v2.42c0,.7.37,1,1,1a.93.93,0,0,0,1-1v-2.42h.58v3.93Z"/><path class="cls-3" d="M167.82,263.4a2.17,2.17,0,0,1-1.62-.57l.38-.38a1.61,1.61,0,0,0,1.22.46c.65,0,1-.23,1-.7s-.2-.54-.66-.58l-.65-.06c-.77-.06-1.18-.41-1.18-1.05s.61-1.15,1.45-1.15a2.22,2.22,0,0,1,1.42.42l-.37.38a1.68,1.68,0,0,0-1-.31c-.58,0-.88.25-.88.65s.19.54.69.58l.63.06c.69.06,1.16.33,1.16,1.06S168.77,263.4,167.82,263.4Z"/><path class="cls-3" d="M171.25,259.89v3.47h-.58v-3.47h-.5v-.44h.5v-.74a1,1,0,0,1,1-1.06h.42v.5h-.31c-.37,0-.53.22-.53.58v.73h.84v.44Z"/><path class="cls-3" d="M175.55,263.36v-.44a1.44,1.44,0,0,1-1.11.49,1.4,1.4,0,0,1-1-.37,1.47,1.47,0,0,1-.4-1.1v-2.51h.58v2.42c0,.7.37,1,1,1a.93.93,0,0,0,1-1v-2.42h.58v3.93Zm-2.13-4.81v-.71H174v.71Zm1.7,0v-.71h.58v.71Z"/><path class="cls-3" d="M178.54,263.36a.94.94,0,0,1-1-1v-4.65h.58v4.62c0,.38.13.58.53.58H179v.5Z"/><path class="cls-3" d="M180.92,263.36a.94.94,0,0,1-1-1v-4.65h.58v4.62c0,.38.13.58.53.58h.31v.5Z"/><path class="cls-3" d="M182.47,261.54c0,.86.41,1.36,1.16,1.36a1.29,1.29,0,0,0,1-.45l.39.34a1.8,1.8,0,0,1-1.44.61c-1,0-1.72-.62-1.72-2s.62-2,1.62-2,1.62.74,1.62,1.9v.26Zm2-1.09a1,1,0,0,0-1.84,0,1.67,1.67,0,0,0-.12.66h2.08A1.65,1.65,0,0,0,184.43,260.45Z"/><path class="cls-3" d="M188.87,263.36v-2.42a1,1,0,1,0-1.94,0v2.42h-.58v-3.93h.58v.43a1.42,1.42,0,0,1,1.1-.48,1.38,1.38,0,0,1,1,.37,1.46,1.46,0,0,1,.41,1.1v2.52Z"/><path class="cls-3" d="M191.16,263.36v-.67h.69v.67Zm.59-1.6h-.5l-.08-4.09h.66Z"/><path class="cls-3" d="M114.73,71V65.28l-1.2,1.05V65.6l1.2-1h.65V71Z"/><path class="cls-3" d="M117.9,71v-.85h.85V71Z"/><path class="cls-3" d="M126.79,71.29l-.71-.71a2.24,2.24,0,0,1-1.38.45,2.27,2.27,0,0,1-1.64-.67c-.6-.6-.6-1.23-.6-2.59s0-2,.6-2.59a2.35,2.35,0,0,1,3.28,0c.6.6.6,1.23.6,2.59s0,1.85-.44,2.4l.7.7Zm-1-5.71a1.57,1.57,0,0,0-2.21,0c-.4.41-.45.85-.45,2.19s0,1.77.45,2.19a1.55,1.55,0,0,0,1.11.46,1.47,1.47,0,0,0,.91-.31l-.81-.81.41-.41.78.78a3.68,3.68,0,0,0,.26-1.9C126.26,66.43,126.22,66,125.81,65.58Z"/><path class="cls-3" d="M132.23,71l-1.46-2.84h-1.54V71h-.68V64.56H131a1.73,1.73,0,0,1,1.9,1.78,1.66,1.66,0,0,1-1.4,1.72L133,71Zm-1.29-5.8h-1.71v2.35h1.71a1.18,1.18,0,1,0,0-2.35Z"/><path class="cls-3" d="M134.21,68.85v-.6h2.47v.6Z"/><path class="cls-3" d="M140.28,71a2.28,2.28,0,0,1-1.64-.67c-.6-.6-.6-1.23-.6-2.59s0-2,.6-2.59a2.28,2.28,0,0,1,1.64-.67,2.16,2.16,0,0,1,2.22,1.91h-.7a1.51,1.51,0,0,0-1.52-1.3,1.54,1.54,0,0,0-1.11.45c-.4.41-.45.86-.45,2.2s0,1.78.45,2.2a1.57,1.57,0,0,0,2.65-.85h.68A2.16,2.16,0,0,1,140.28,71Z"/><path class="cls-3" d="M146.75,70.52a1.85,1.85,0,0,1-2.54,0,3.15,3.15,0,0,1,0-3.53,1.85,1.85,0,0,1,2.54,0,3.15,3.15,0,0,1,0,3.53Zm-.46-3.13a1.14,1.14,0,0,0-.81-.32,1.11,1.11,0,0,0-.8.32,2.78,2.78,0,0,0,0,2.74,1.11,1.11,0,0,0,.8.32,1.14,1.14,0,0,0,.81-.32,2.84,2.84,0,0,0,0-2.74Z"/><path class="cls-3" d="M151.32,71v-.53a1.44,1.44,0,0,1-1.26.59,1.54,1.54,0,0,1-1.08-.39,3.55,3.55,0,0,1,0-3.76,1.54,1.54,0,0,1,1.08-.39,1.42,1.42,0,0,1,1.25.57V64.56H152V71Zm-1.12-3.91c-1,0-1.12.83-1.12,1.69s.15,1.69,1.12,1.69,1.11-.83,1.11-1.69S151.16,67.07,150.2,67.07Z"/><path class="cls-3" d="M154,68.93c0,1,.46,1.53,1.3,1.53a1.45,1.45,0,0,0,1.16-.5l.44.39a2,2,0,0,1-1.62.68c-1.17,0-1.94-.7-1.94-2.27s.69-2.27,1.82-2.27,1.82.83,1.82,2.14v.3Zm2.21-1.22a1.14,1.14,0,0,0-2.07,0,1.85,1.85,0,0,0-.13.74h2.34A1.85,1.85,0,0,0,156.19,67.71Z"/><path class="cls-3" d="M162,71a2.44,2.44,0,0,1-1.82-.64l.43-.43a1.81,1.81,0,0,0,1.38.51c.73,0,1.18-.26,1.18-.78s-.22-.6-.74-.65l-.73-.06c-.86-.07-1.32-.46-1.32-1.19s.68-1.3,1.63-1.3a2.51,2.51,0,0,1,1.59.48l-.42.42A1.89,1.89,0,0,0,162,67c-.65,0-1,.28-1,.73s.22.6.77.65l.71.06c.77.07,1.3.37,1.3,1.2S163.05,71,162,71Z"/><path class="cls-3" d="M166.77,71c-1.12,0-2-.76-2-2.27s.85-2.27,2-2.27a1.75,1.75,0,0,1,1.46.66l-.44.41a1.22,1.22,0,0,0-1-.5,1.2,1.2,0,0,0-1,.5,2.59,2.59,0,0,0,0,2.38,1.2,1.2,0,0,0,1,.5,1.23,1.23,0,0,0,1-.5l.44.42A1.75,1.75,0,0,1,166.77,71Z"/><path class="cls-3" d="M171.86,71v-.42a1.56,1.56,0,0,1-1.28.48,1.58,1.58,0,0,1-1.25-.41,1.28,1.28,0,0,1-.33-.9c0-.77.54-1.28,1.53-1.28h1.33V68c0-.65-.32-1-1.13-1a1.16,1.16,0,0,0-1.12.5l-.44-.41a1.72,1.72,0,0,1,1.57-.66c1.19,0,1.77.51,1.77,1.48v3Zm0-2h-1.24c-.67,0-1,.27-1,.78s.32.76,1,.76a1.29,1.29,0,0,0,1-.3,1,1,0,0,0,.23-.77Z"/><path class="cls-3" d="M176.92,71V68.25a1.1,1.1,0,1,0-2.19,0V71h-.65V66.54h.65V67a1.6,1.6,0,0,1,1.24-.54,1.55,1.55,0,0,1,1.13.41,1.64,1.64,0,0,1,.46,1.23V71Z"/><path class="cls-3" d="M182,71V68.25a1.1,1.1,0,1,0-2.19,0V71h-.65V66.54h.65V67a1.6,1.6,0,0,1,1.24-.54,1.55,1.55,0,0,1,1.13.41,1.64,1.64,0,0,1,.46,1.23V71Z"/><path class="cls-3" d="M184.61,68.93c0,1,.46,1.53,1.3,1.53a1.45,1.45,0,0,0,1.16-.5l.44.39a2,2,0,0,1-1.62.68c-1.17,0-1.94-.7-1.94-2.27s.69-2.27,1.82-2.27,1.82.83,1.82,2.14v.3Zm2.21-1.22a1.14,1.14,0,0,0-2.07,0,1.85,1.85,0,0,0-.13.74h2.34A1.85,1.85,0,0,0,186.81,67.71Z"/><path class="cls-3" d="M191.81,71V68.25a1.1,1.1,0,1,0-2.19,0V71H189V66.54h.65V67a1.6,1.6,0,0,1,1.24-.54,1.55,1.55,0,0,1,1.13.41,1.64,1.64,0,0,1,.46,1.23V71Z"/><path class="cls-3" d="M108.46,84.61V84L111,80.82a1.46,1.46,0,0,0,.36-.95,1.12,1.12,0,1,0-2.23,0h-.65a1.67,1.67,0,0,1,1.76-1.74A1.64,1.64,0,0,1,112,79.87a1.92,1.92,0,0,1-.51,1.3L109.24,84H112v.58Z"/><path class="cls-3" d="M113.34,84.61v-.85h.85v.85Z"/><path class="cls-3" d="M118.83,78.81v2.36h2.81v.61h-2.81v2.83h-.68V78.2h4v.61Z"/><path class="cls-3" d="M125.46,81a.93.93,0,0,0-.77-.32,1.08,1.08,0,0,0-1.06,1.19v2.72H123V80.18h.65v.54a1.49,1.49,0,0,1,1.24-.59,1.36,1.36,0,0,1,1.06.41Z"/><path class="cls-3" d="M129.2,84.61v-.42a1.55,1.55,0,0,1-1.28.48,1.58,1.58,0,0,1-1.25-.41,1.28,1.28,0,0,1-.33-.9c0-.77.54-1.28,1.53-1.28h1.33v-.42c0-.65-.32-1-1.13-1a1.16,1.16,0,0,0-1.12.5l-.44-.41a1.72,1.72,0,0,1,1.57-.66c1.19,0,1.77.51,1.77,1.48v3Zm0-2H128c-.67,0-1,.27-1,.78s.31.76,1,.76a1.29,1.29,0,0,0,1-.3,1,1,0,0,0,.23-.77Z"/><path class="cls-3" d="M132.85,86.64a2,2,0,0,1-1.5-.59l.42-.41a1.36,1.36,0,0,0,1.06.44c.85,0,1.22-.6,1.22-1.36V84a1.43,1.43,0,0,1-1.24.58,1.52,1.52,0,0,1-1.07-.4,3.42,3.42,0,0,1,0-3.69,1.54,1.54,0,0,1,1.08-.39,1.4,1.4,0,0,1,1.24.58v-.52h.64v4.56A1.76,1.76,0,0,1,132.85,86.64Zm.1-5.94c-1,0-1.11.83-1.11,1.66S132,84,132.95,84s1.1-.83,1.1-1.66S133.91,80.7,132.95,80.7Z"/><path class="cls-3" d="M136.72,82.57c0,1,.46,1.53,1.31,1.53a1.45,1.45,0,0,0,1.16-.5l.44.39a2,2,0,0,1-1.62.68c-1.17,0-1.94-.7-1.94-2.27s.69-2.27,1.82-2.27,1.82.83,1.82,2.14v.3Zm2.21-1.22a1.14,1.14,0,0,0-2.07,0,1.86,1.86,0,0,0-.14.74h2.34A1.86,1.86,0,0,0,138.92,81.34Z"/><path class="cls-3" d="M143.92,84.61V81.88a1,1,0,0,0-1.09-1.18,1,1,0,0,0-1.1,1.18v2.73h-.65V80.18h.65v.49a1.6,1.6,0,0,1,1.24-.54,1.55,1.55,0,0,1,1.13.41,1.64,1.64,0,0,1,.46,1.23v2.84Z"/><path class="cls-3" d="M151.36,84.28a1.54,1.54,0,0,1-1.08.39,1.42,1.42,0,0,1-1.25-.59v.53h-.65V78.2H149v2.49a1.42,1.42,0,0,1,1.25-.57,1.54,1.54,0,0,1,1.08.39,3.55,3.55,0,0,1,0,3.76Zm-1.22-3.57c-1,0-1.12.83-1.12,1.69s.15,1.69,1.12,1.69,1.11-.83,1.11-1.69S151.11,80.7,150.15,80.7Z"/><path class="cls-3" d="M153.69,82.57c0,1,.46,1.53,1.3,1.53a1.45,1.45,0,0,0,1.16-.5l.44.39a2,2,0,0,1-1.62.68c-1.17,0-1.94-.7-1.94-2.27s.69-2.27,1.82-2.27,1.82.83,1.82,2.14v.3Zm2.21-1.22a1.14,1.14,0,0,0-2.07,0,1.85,1.85,0,0,0-.13.74H156A1.85,1.85,0,0,0,155.9,81.34Z"/><path class="cls-3" d="M160.57,84.61v-.42a1.56,1.56,0,0,1-1.28.48,1.58,1.58,0,0,1-1.25-.41,1.28,1.28,0,0,1-.33-.9c0-.77.54-1.28,1.53-1.28h1.33v-.42c0-.65-.32-1-1.13-1a1.16,1.16,0,0,0-1.12.5l-.44-.41a1.72,1.72,0,0,1,1.57-.66c1.19,0,1.77.51,1.77,1.48v3Zm0-2h-1.24c-.67,0-1,.27-1,.78s.32.76,1,.76a1.3,1.3,0,0,0,1-.3,1,1,0,0,0,.23-.77Z"/><path class="cls-3" d="M165.63,84.61V81.88a1.1,1.1,0,1,0-2.19,0v2.73h-.65V80.18h.65v.49a1.6,1.6,0,0,1,1.24-.54,1.55,1.55,0,0,1,1.13.41,1.64,1.64,0,0,1,.46,1.23v2.84Z"/><path class="cls-3" d="M169.09,84.61A1.09,1.09,0,0,1,168,83.42V80.7h-.56v-.5H168V78.82h.65v1.39h.95v.5h-.95v2.7c0,.41.19.65.6.65h.34v.56Z"/><path class="cls-3" d="M175.05,84.61h-.6l-1.16-3.44-1.15,3.44h-.6l-1.41-4.43h.7l1,3.56L173,80.18h.56l1.17,3.56,1-3.56h.7Z"/><path class="cls-3" d="M180.15,84.16a1.85,1.85,0,0,1-2.54,0,3.15,3.15,0,0,1,0-3.53,1.85,1.85,0,0,1,2.54,0,3.15,3.15,0,0,1,0,3.53ZM179.69,81a1.14,1.14,0,0,0-.81-.32,1.11,1.11,0,0,0-.8.32,2.78,2.78,0,0,0,0,2.74,1.11,1.11,0,0,0,.8.32,1.14,1.14,0,0,0,.81-.32,2.85,2.85,0,0,0,0-2.74Z"/><path class="cls-3" d="M184.55,81a.93.93,0,0,0-.77-.32,1.08,1.08,0,0,0-1.06,1.19v2.72h-.65V80.18h.65v.54a1.49,1.49,0,0,1,1.24-.59,1.36,1.36,0,0,1,1.06.41Z"/><path class="cls-3" d="M187.11,84.61A1.09,1.09,0,0,1,186,83.42V80.7h-.56v-.5H186V78.82h.65v1.39h.95v.5h-.95v2.7c0,.41.19.65.6.65h.34v.56Z"/><path class="cls-3" d="M189.2,82.57c0,1,.46,1.53,1.3,1.53a1.45,1.45,0,0,0,1.16-.5l.44.39a2,2,0,0,1-1.62.68c-1.17,0-1.94-.7-1.94-2.27s.69-2.27,1.82-2.27,1.82.83,1.82,2.14v.3Zm2.21-1.22a1.14,1.14,0,0,0-2.07,0,1.85,1.85,0,0,0-.13.74h2.34A1.85,1.85,0,0,0,191.4,81.34Z"/><path class="cls-3" d="M196.4,84.61V81.88a1.1,1.1,0,1,0-2.19,0v2.73h-.65V80.18h.65v.49a1.6,1.6,0,0,1,1.24-.54,1.55,1.55,0,0,1,1.13.41,1.64,1.64,0,0,1,.46,1.23v2.84Z"/><path class="cls-3" d="M108.29,98.31a1.7,1.7,0,0,1-1.88-1.69h.65a1.13,1.13,0,0,0,1.23,1.12,1.17,1.17,0,0,0,1.23-1.24,1.11,1.11,0,0,0-1.26-1.24h-.13v-.57h.13a1,1,0,0,0,1.14-1.16,1.07,1.07,0,0,0-1.12-1.17,1.09,1.09,0,0,0-1.15,1.07h-.65a1.71,1.71,0,0,1,1.8-1.65,1.66,1.66,0,0,1,1.76,1.74,1.44,1.44,0,0,1-.86,1.42,1.5,1.5,0,0,1,1,1.57A1.74,1.74,0,0,1,108.29,98.31Z"/><path class="cls-3" d="M111.52,98.24V97.4h.85v.85Z"/><path class="cls-3" d="M120.06,98.24l-.51-1.45h-2.8l-.51,1.45h-.73l2.36-6.41h.58l2.35,6.41Zm-1.9-5.43L117,96.2h2.39Z"/><path class="cls-3" d="M124.51,98.24v-.5a1.62,1.62,0,0,1-1.25.55,1.57,1.57,0,0,1-1.14-.41,1.65,1.65,0,0,1-.45-1.24V93.81h.65v2.73c0,.78.41,1.18,1.08,1.18a1,1,0,0,0,1.11-1.18V93.81h.65v4.43Z"/><path class="cls-3" d="M128.16,98.3a2.44,2.44,0,0,1-1.82-.64l.43-.43a1.81,1.81,0,0,0,1.38.51c.73,0,1.18-.26,1.18-.78s-.23-.6-.74-.65l-.73-.06c-.86-.07-1.32-.46-1.32-1.19s.68-1.3,1.63-1.3a2.51,2.51,0,0,1,1.59.48l-.42.42a1.89,1.89,0,0,0-1.18-.35c-.65,0-1,.28-1,.73s.22.6.77.65l.71.06c.77.07,1.31.37,1.31,1.2S129.23,98.3,128.16,98.3Z"/><path class="cls-3" d="M135.44,98.24h-.6l-1.16-3.44-1.15,3.44h-.6l-1.4-4.43h.7l1,3.56,1.16-3.56H134l1.17,3.56,1-3.56h.7Z"/><path class="cls-3" d="M138.11,96.2c0,1,.46,1.53,1.31,1.53a1.45,1.45,0,0,0,1.16-.5l.44.39a2,2,0,0,1-1.62.68c-1.17,0-1.94-.7-1.94-2.27s.69-2.27,1.82-2.27,1.82.83,1.82,2.14v.3ZM140.32,95a1.14,1.14,0,0,0-2.07,0,1.86,1.86,0,0,0-.14.74h2.34A1.86,1.86,0,0,0,140.32,95Z"/><path class="cls-3" d="M145,94.66a.93.93,0,0,0-.77-.32,1.08,1.08,0,0,0-1.06,1.19v2.72h-.65V93.81h.65v.54a1.49,1.49,0,0,1,1.24-.59,1.36,1.36,0,0,1,1.06.41Z"/><path class="cls-3" d="M147.51,98.24a1.09,1.09,0,0,1-1.13-1.19V94.34h-.56v-.5h.56V92.45H147v1.39H148v.5H147V97c0,.41.19.65.6.65H148v.56Z"/><path class="cls-3" d="M152.06,98.24v-.5a1.62,1.62,0,0,1-1.25.55,1.57,1.57,0,0,1-1.14-.41,1.65,1.65,0,0,1-.45-1.24V93.81h.65v2.73c0,.78.41,1.18,1.08,1.18A1,1,0,0,0,152,96.54V93.81h.65v4.43Z"/><path class="cls-3" d="M157.15,98.24V95.52a1.1,1.1,0,1,0-2.19,0v2.73h-.65V93.81H155v.49a1.6,1.6,0,0,1,1.24-.54,1.55,1.55,0,0,1,1.13.41,1.64,1.64,0,0,1,.46,1.23v2.84Z"/><path class="cls-3" d="M160.79,100.28a2,2,0,0,1-1.5-.59l.42-.41a1.36,1.36,0,0,0,1.06.44c.86,0,1.21-.6,1.21-1.36v-.69a1.43,1.43,0,0,1-1.24.58,1.52,1.52,0,0,1-1.07-.4,3.42,3.42,0,0,1,0-3.69,1.54,1.54,0,0,1,1.08-.39,1.4,1.4,0,0,1,1.24.58v-.52h.64v4.56A1.76,1.76,0,0,1,160.79,100.28Zm.1-5.94c-1,0-1.11.83-1.11,1.66s.14,1.66,1.11,1.66S162,96.82,162,96,161.86,94.34,160.89,94.34Z"/><path class="cls-3" d="M169,98.24v-.42a1.56,1.56,0,0,1-1.28.48,1.58,1.58,0,0,1-1.25-.41,1.28,1.28,0,0,1-.33-.9c0-.77.54-1.28,1.53-1.28H169v-.42c0-.65-.32-1-1.13-1a1.16,1.16,0,0,0-1.12.5l-.44-.41a1.72,1.72,0,0,1,1.57-.66c1.19,0,1.77.51,1.77,1.48v3Zm0-2h-1.24c-.67,0-1,.27-1,.78s.32.76,1,.76a1.3,1.3,0,0,0,1-.3,1,1,0,0,0,.23-.77Z"/><path class="cls-3" d="M174.07,98.24V95.52a1.1,1.1,0,1,0-2.19,0v2.73h-.65V93.81h.65v.49a1.6,1.6,0,0,1,1.24-.54,1.55,1.55,0,0,1,1.13.41,1.64,1.64,0,0,1,.46,1.23v2.84Z"/><path class="cls-3" d="M177.69,98.3a2.44,2.44,0,0,1-1.82-.64l.43-.43a1.81,1.81,0,0,0,1.38.51c.73,0,1.18-.26,1.18-.78s-.22-.6-.74-.65l-.73-.06c-.86-.07-1.32-.46-1.32-1.19s.68-1.3,1.63-1.3a2.51,2.51,0,0,1,1.59.48l-.42.42a1.89,1.89,0,0,0-1.18-.35c-.65,0-1,.28-1,.73s.22.6.77.65l.71.06c.77.07,1.3.37,1.3,1.2S178.76,98.3,177.69,98.3Z"/><path class="cls-3" d="M181.16,96.2c0,1,.46,1.53,1.3,1.53a1.45,1.45,0,0,0,1.16-.5l.44.39a2,2,0,0,1-1.62.68c-1.17,0-1.94-.7-1.94-2.27s.69-2.27,1.82-2.27,1.82.83,1.82,2.14v.3ZM183.37,95a1.14,1.14,0,0,0-2.07,0,1.85,1.85,0,0,0-.13.74h2.34A1.85,1.85,0,0,0,183.37,95Z"/><path class="cls-3" d="M188.36,98.24V95.51a1,1,0,0,0-1.08-1.17,1,1,0,0,0-1.11,1.17v2.74h-.65V91.83h.65V94.3a1.58,1.58,0,0,1,1.24-.54A1.5,1.5,0,0,1,189,95.4v2.84Z"/><path class="cls-3" d="M191,96.2c0,1,.46,1.53,1.3,1.53a1.45,1.45,0,0,0,1.16-.5l.44.39a2,2,0,0,1-1.62.68c-1.17,0-1.94-.7-1.94-2.27s.69-2.27,1.82-2.27,1.82.83,1.82,2.14v.3ZM193.19,95a1.14,1.14,0,0,0-2.07,0,1.85,1.85,0,0,0-.13.74h2.34A1.85,1.85,0,0,0,193.19,95Z"/><path class="cls-3" d="M198.19,98.24V95.52a1.1,1.1,0,1,0-2.19,0v2.73h-.65V93.81H196v.49a1.6,1.6,0,0,1,1.24-.54,1.55,1.55,0,0,1,1.13.41,1.64,1.64,0,0,1,.46,1.23v2.84Z"/><path class="cls-4" d="M284.62,290.62v15m0-290.62V0M21,290.62v15M21,15V0M290.62,284.62h15M15,284.62H0M290.62,21h15M15,21H0"/><path class="cls-5" d="M284.62,290.62v15m0-290.62V0M21,290.62v15M21,15V0M290.62,284.62h15M15,284.62H0M290.62,21h15M15,21H0"/></svg>