<svg xmlns="http://www.w3.org/2000/svg" viewBox="0 0 305.62 305.62"><defs><style>.cls-1,.cls-2,.cls-5{fill:none;}.cls-1{stroke:#fff;stroke-width:1.25px;}.cls-1,.cls-2{stroke-miterlimit:10;}.cls-2{stroke:#000;stroke-width:0.25px;}.cls-3{fill:#2c3f50;}.cls-4{fill:#39b197;}.cls-5{stroke:#39b197;stroke-width:2px;}</style></defs><title>feedback_politikplanung_back</title><g id="Ebene_2" data-name="Ebene 2"><path class="cls-1" d="M284.62,290.62v15m0-290.62V0M21,290.62v15M21,15V0M290.62,284.62h15M15,284.62H0M290.62,21h15M15,21H0"/><path class="cls-2" d="M284.62,290.62v15m0-290.62V0M21,290.62v15M21,15V0M290.62,284.62h15M15,284.62H0M290.62,21h15M15,21H0"/></g><g id="Ebene_1" data-name="Ebene 1"><path class="cls-3" d="M126.34,66V65.4h1.56V60.9h-.06l-1.41,1.31-.39-.42,1.48-1.39h1v5H130V66Z"/><path class="cls-3" d="M131.52,66.08a.5.5,0,0,1-.37-.12.49.49,0,0,1-.12-.34v-.1a.47.47,0,0,1,.12-.34.46.46,0,0,1,.37-.13.45.45,0,0,1,.37.13.47.47,0,0,1,.12.34v.1a.42.42,0,0,1-.49.46Z"/><path class="cls-3" d="M135.91,66h-.67V60.4h2.23a1.54,1.54,0,0,1,1.14.41A1.57,1.57,0,0,1,139,62a1.68,1.68,0,0,1-.29,1,1.36,1.36,0,0,1-.83.52L139.19,66h-.76l-1.21-2.4h-1.31Zm1.56-3a.88.88,0,0,0,.62-.21.78.78,0,0,0,.22-.59V61.8a.82.82,0,0,0-.22-.6.87.87,0,0,0-.62-.2h-1.56v2Z"/><path class="cls-3" d="M141.74,66.08a1.87,1.87,0,0,1-.76-.15,1.7,1.7,0,0,1-.59-.43,2.14,2.14,0,0,1-.38-.68,2.83,2.83,0,0,1-.14-.9A2.71,2.71,0,0,1,140,63a2.09,2.09,0,0,1,.38-.69,1.58,1.58,0,0,1,.59-.43,1.73,1.73,0,0,1,.76-.16,1.68,1.68,0,0,1,.75.16,1.58,1.58,0,0,1,.59.43,1.94,1.94,0,0,1,.39.69,2.71,2.71,0,0,1,.13.88,2.84,2.84,0,0,1-.13.9,2,2,0,0,1-.39.68,1.7,1.7,0,0,1-.59.43A1.83,1.83,0,0,1,141.74,66.08Zm0-.56a1.2,1.2,0,0,0,.85-.32,1.36,1.36,0,0,0,.32-1v-.59a1.36,1.36,0,0,0-.32-1,1.2,1.2,0,0,0-.85-.32,1.18,1.18,0,0,0-.85.32,1.32,1.32,0,0,0-.33,1v.59a1.32,1.32,0,0,0,.33,1A1.18,1.18,0,0,0,141.74,65.52Z"/><path class="cls-3" d="M145.34,66a.66.66,0,0,1-.51-.19.7.7,0,0,1-.17-.48V60.07h.64v5.35h.61V66Z"/><path class="cls-3" d="M147.48,66a.69.69,0,0,1-.51-.19.7.7,0,0,1-.17-.48V60.07h.64v5.35h.61V66Z"/><path class="cls-3" d="M150.53,66.08a1.84,1.84,0,0,1-.76-.15,1.7,1.7,0,0,1-.59-.43,1.94,1.94,0,0,1-.37-.68,2.83,2.83,0,0,1-.14-.9,2.71,2.71,0,0,1,.14-.88,1.91,1.91,0,0,1,.37-.69,1.58,1.58,0,0,1,.59-.43,1.7,1.7,0,0,1,.76-.16,1.61,1.61,0,0,1,.74.16,1.66,1.66,0,0,1,.56.41,1.75,1.75,0,0,1,.36.64,2.53,2.53,0,0,1,.12.8v.31h-3v.19a1.33,1.33,0,0,0,.08.49,1.47,1.47,0,0,0,.24.4,1,1,0,0,0,.38.26,1.46,1.46,0,0,0,.52.1,1.26,1.26,0,0,0,.68-.19,1.2,1.2,0,0,0,.46-.53l.45.33a1.53,1.53,0,0,1-.62.69A1.83,1.83,0,0,1,150.53,66.08Zm0-3.78a1.21,1.21,0,0,0-.48.09,1.08,1.08,0,0,0-.37.26,1.14,1.14,0,0,0-.25.39,1.59,1.59,0,0,0-.08.5v.06h2.28v-.09a1.25,1.25,0,0,0-.3-.88A1,1,0,0,0,150.53,62.3Z"/><path class="cls-3" d="M154.83,61.86h.62l.44,1.78.44,1.81h0l.5-1.81.52-1.78h.57l.53,1.78.52,1.81h0l.43-1.81.44-1.78h.6L159.38,66h-.79L158,64l-.36-1.25h0L157.28,64l-.57,2h-.78Z"/><path class="cls-3" d="M164.33,66a.67.67,0,0,1-.52-.19.94.94,0,0,1-.19-.48h0a1.07,1.07,0,0,1-.45.57,1.38,1.38,0,0,1-.74.19,1.46,1.46,0,0,1-1-.33,1.17,1.17,0,0,1-.37-.91,1,1,0,0,1,.43-.9,2.27,2.27,0,0,1,1.33-.31h.82v-.41a.89.89,0,0,0-.24-.67,1,1,0,0,0-.74-.23,1.14,1.14,0,0,0-.63.16,1.64,1.64,0,0,0-.42.45l-.38-.36a1.46,1.46,0,0,1,.54-.57,1.63,1.63,0,0,1,.92-.24,1.73,1.73,0,0,1,1.17.37,1.3,1.3,0,0,1,.42,1v2.27h.47V66ZM161.93,61a.38.38,0,0,1-.3-.1.36.36,0,0,1-.09-.26v-.09a.4.4,0,0,1,.09-.27.5.5,0,0,1,.6,0,.4.4,0,0,1,.09.27v.09a.36.36,0,0,1-.09.26A.38.38,0,0,1,161.93,61Zm.56,4.5a1.51,1.51,0,0,0,.44-.06.89.89,0,0,0,.34-.16.87.87,0,0,0,.23-.24.6.6,0,0,0,.08-.29v-.68h-.85a1.48,1.48,0,0,0-.8.16.51.51,0,0,0-.26.46v.17a.57.57,0,0,0,.22.47A1,1,0,0,0,162.49,65.54Zm.93-4.5a.38.38,0,0,1-.3-.1.36.36,0,0,1-.09-.26v-.09a.4.4,0,0,1,.09-.27.5.5,0,0,1,.6,0,.4.4,0,0,1,.09.27v.09a.36.36,0,0,1-.09.26A.38.38,0,0,1,163.42,61Z"/><path class="cls-3" d="M165.6,60.07h.64v2.45h0a1.39,1.39,0,0,1,.43-.55,1.2,1.2,0,0,1,.74-.21,1.26,1.26,0,0,1,1,.42,1.65,1.65,0,0,1,.38,1.16V66h-.64V63.45c0-.75-.32-1.12-.94-1.12a1.5,1.5,0,0,0-.37.05,1.22,1.22,0,0,0-.33.14.75.75,0,0,0-.22.25.65.65,0,0,0-.09.35V66h-.64Z"/><path class="cls-3" d="M170.83,66a.62.62,0,0,1-.68-.67V60.07h.64v5.35h.6V66Z"/><path class="cls-3" d="M173.87,66.08a1.87,1.87,0,0,1-.76-.15,1.8,1.8,0,0,1-.59-.43,2.12,2.12,0,0,1-.37-.68,2.84,2.84,0,0,1-.13-.9,2.71,2.71,0,0,1,.13-.88,2.07,2.07,0,0,1,.37-.69,1.66,1.66,0,0,1,.59-.43,1.73,1.73,0,0,1,.76-.16,1.65,1.65,0,0,1,.75.16,1.76,1.76,0,0,1,.56.41,1.88,1.88,0,0,1,.35.64,2.28,2.28,0,0,1,.13.8v.31h-3v.19a1.57,1.57,0,0,0,.08.49,1.47,1.47,0,0,0,.24.4,1.16,1.16,0,0,0,.39.26,1.36,1.36,0,0,0,.51.1,1.32,1.32,0,0,0,.69-.19,1.24,1.24,0,0,0,.45-.53l.46.33a1.61,1.61,0,0,1-.63.69A1.83,1.83,0,0,1,173.87,66.08Zm0-3.78a1.28,1.28,0,0,0-.48.09,1.18,1.18,0,0,0-.37.26,1.28,1.28,0,0,0-.24.39,1.35,1.35,0,0,0-.09.5v.06H175v-.09a1.25,1.25,0,0,0-.3-.88A1,1,0,0,0,173.87,62.3Z"/><path class="cls-3" d="M176.71,66V61.86h.64v.66h0a1.37,1.37,0,0,1,.42-.55,1.2,1.2,0,0,1,.74-.21,1.3,1.3,0,0,1,1,.42,1.7,1.7,0,0,1,.37,1.16V66h-.64V63.45c0-.75-.31-1.12-.94-1.12a1.5,1.5,0,0,0-.37.05,1,1,0,0,0-.32.14.68.68,0,0,0-.23.25.65.65,0,0,0-.09.35V66Z"/><path class="cls-3" d="M120.66,78.42H117v-.69l1.83-1.68a3.81,3.81,0,0,0,.65-.76,1.51,1.51,0,0,0,.27-.82v-.1a1.09,1.09,0,0,0-.26-.75,1,1,0,0,0-.77-.29,1.52,1.52,0,0,0-.45.07,1.08,1.08,0,0,0-.33.2,1.38,1.38,0,0,0-.24.3,1.57,1.57,0,0,0-.14.38L117,74a2.05,2.05,0,0,1,.22-.48,1.59,1.59,0,0,1,.86-.71,2.16,2.16,0,0,1,.71-.11,2.11,2.11,0,0,1,.73.12,1.49,1.49,0,0,1,.53.33,1.36,1.36,0,0,1,.33.52,1.67,1.67,0,0,1,.12.65,2,2,0,0,1-.09.61,2.57,2.57,0,0,1-.25.53,3.49,3.49,0,0,1-.39.49c-.15.16-.32.32-.49.48l-1.51,1.36h2.94Z"/><path class="cls-3" d="M122.28,78.52a.5.5,0,0,1-.37-.13.49.49,0,0,1-.12-.34V78a.49.49,0,0,1,.12-.34.5.5,0,0,1,.37-.13.44.44,0,0,1,.49.47v.1a.44.44,0,0,1-.49.47Z"/><path class="cls-3" d="M129.32,79.73h-.82a.64.64,0,0,1-.51-.19.66.66,0,0,1-.16-.46v-.57a2.37,2.37,0,0,1-.88-.26,2,2,0,0,1-.66-.57,2.77,2.77,0,0,1-.42-.88,4.62,4.62,0,0,1,0-2.41,2.55,2.55,0,0,1,.48-.91,1.92,1.92,0,0,1,.74-.55,2.38,2.38,0,0,1,1-.19,2.41,2.41,0,0,1,1,.19,1.92,1.92,0,0,1,.74.55,2.55,2.55,0,0,1,.48.91,4.18,4.18,0,0,1,.17,1.24,3.29,3.29,0,0,1-.54,2,2.09,2.09,0,0,1-1.45.85v.68h.85Zm-1.23-1.81a1.76,1.76,0,0,0,.66-.13,1.54,1.54,0,0,0,.53-.37,1.74,1.74,0,0,0,.34-.58,2.19,2.19,0,0,0,.12-.75v-.93a2.19,2.19,0,0,0-.12-.75,1.74,1.74,0,0,0-.34-.58,1.54,1.54,0,0,0-.53-.37,1.74,1.74,0,0,0-1.32,0,1.54,1.54,0,0,0-.53.37,1.74,1.74,0,0,0-.34.58,2.19,2.19,0,0,0-.12.75v.93a2.19,2.19,0,0,0,.12.75,1.74,1.74,0,0,0,.34.58,1.54,1.54,0,0,0,.53.37A1.76,1.76,0,0,0,128.09,77.92Z"/><path class="cls-3" d="M132.34,78.42h-.67V72.84h2.22a1.58,1.58,0,0,1,1.15.4,1.63,1.63,0,0,1,.41,1.18,1.75,1.75,0,0,1-.28,1,1.37,1.37,0,0,1-.84.53l1.28,2.46h-.76L133.64,76h-1.3Zm1.55-3a.91.91,0,0,0,.62-.2.78.78,0,0,0,.22-.6v-.41a.78.78,0,0,0-.22-.6.91.91,0,0,0-.62-.2h-1.55v2Z"/><path class="cls-3" d="M136.47,76.33v-.69h2.09v.69Z"/><path class="cls-3" d="M142,78.52a2,2,0,0,1-1.66-.73,3.26,3.26,0,0,1-.59-2.13,3.39,3.39,0,0,1,.59-2.16,2,2,0,0,1,1.66-.76,2,2,0,0,1,1.18.32,2.14,2.14,0,0,1,.74.9l-.55.32a1.55,1.55,0,0,0-.51-.69,1.42,1.42,0,0,0-.86-.26,1.51,1.51,0,0,0-.65.14,1.29,1.29,0,0,0-.48.39,1.88,1.88,0,0,0-.3.6,2.68,2.68,0,0,0-.1.78v.84a2,2,0,0,0,.4,1.35,1.35,1.35,0,0,0,1.13.49,1.45,1.45,0,0,0,.89-.27,1.63,1.63,0,0,0,.53-.73l.54.33a2,2,0,0,1-2,1.27Z"/><path class="cls-3" d="M146.44,78.52a1.88,1.88,0,0,1-.76-.16,1.66,1.66,0,0,1-.59-.43,2.14,2.14,0,0,1-.38-.68,2.77,2.77,0,0,1-.13-.89,2.73,2.73,0,0,1,.13-.89,2.09,2.09,0,0,1,.38-.69,1.66,1.66,0,0,1,.59-.43,2,2,0,0,1,1.52,0,1.76,1.76,0,0,1,.59.43,2.09,2.09,0,0,1,.38.69,2.72,2.72,0,0,1,.14.89,2.77,2.77,0,0,1-.14.89,2.14,2.14,0,0,1-.38.68,1.76,1.76,0,0,1-.59.43A1.88,1.88,0,0,1,146.44,78.52Zm0-.57a1.18,1.18,0,0,0,.85-.32,1.32,1.32,0,0,0,.33-1v-.59a1.32,1.32,0,0,0-.33-1,1.18,1.18,0,0,0-.85-.32,1.2,1.2,0,0,0-.85.32,1.36,1.36,0,0,0-.32,1v.59a1.36,1.36,0,0,0,.32,1A1.2,1.2,0,0,0,146.44,78Z"/><path class="cls-3" d="M152,77.76h0a1.27,1.27,0,0,1-1.21.76,1.56,1.56,0,0,1-.69-.16,1.49,1.49,0,0,1-.54-.43,2,2,0,0,1-.33-.68,3.4,3.4,0,0,1,0-1.79,2,2,0,0,1,.33-.68,1.49,1.49,0,0,1,.54-.43,1.55,1.55,0,0,1,.69-.15,1.42,1.42,0,0,1,.74.18A1.19,1.19,0,0,1,152,75h0V72.5h.64v5.92H152Zm-1.06.19a1.4,1.4,0,0,0,.41-.06,1.19,1.19,0,0,0,.34-.16.85.85,0,0,0,.23-.27.8.8,0,0,0,.08-.36V75.56a.72.72,0,0,0-.08-.32.78.78,0,0,0-.23-.25,1.2,1.2,0,0,0-.34-.17,1.4,1.4,0,0,0-.41-.06,1.13,1.13,0,0,0-.86.34,1.28,1.28,0,0,0-.31.9v.71a1.28,1.28,0,0,0,.31.9A1.13,1.13,0,0,0,150.94,78Z"/><path class="cls-3" d="M155.55,78.52a1.88,1.88,0,0,1-.76-.16,1.55,1.55,0,0,1-.58-.43,2,2,0,0,1-.38-.68,2.77,2.77,0,0,1-.13-.89,2.73,2.73,0,0,1,.13-.89,1.92,1.92,0,0,1,.38-.69,1.55,1.55,0,0,1,.58-.43,1.87,1.87,0,0,1,.76-.15,1.79,1.79,0,0,1,.75.15,1.65,1.65,0,0,1,.56.42,1.75,1.75,0,0,1,.35.63,2.28,2.28,0,0,1,.13.8v.31h-3v.19a1.53,1.53,0,0,0,.08.49,1.33,1.33,0,0,0,.24.4,1.16,1.16,0,0,0,.39.26,1.19,1.19,0,0,0,.51.1,1.23,1.23,0,0,0,.69-.19,1.27,1.27,0,0,0,.45-.52l.45.33a1.56,1.56,0,0,1-.62.68A1.84,1.84,0,0,1,155.55,78.52Zm0-3.79a1.28,1.28,0,0,0-.48.09,1.08,1.08,0,0,0-.37.26,1.28,1.28,0,0,0-.24.39,1.39,1.39,0,0,0-.09.5V76h2.28v-.09a1.25,1.25,0,0,0-.3-.88A1,1,0,0,0,155.55,74.73Z"/><path class="cls-3" d="M161.52,78.52a2,2,0,0,1-1-.22,2.36,2.36,0,0,1-.67-.59l.46-.37a1.8,1.8,0,0,0,.53.47,1.41,1.41,0,0,0,.69.16,1.1,1.1,0,0,0,.64-.17.61.61,0,0,0,.22-.5.59.59,0,0,0-.15-.41.92.92,0,0,0-.57-.24l-.32-.05a2.06,2.06,0,0,1-.53-.12,1.67,1.67,0,0,1-.42-.22,1,1,0,0,1-.28-.35,1.12,1.12,0,0,1-.1-.5,1.25,1.25,0,0,1,.11-.53,1,1,0,0,1,.31-.38,1.29,1.29,0,0,1,.47-.23,2.15,2.15,0,0,1,.58-.07,1.75,1.75,0,0,1,.84.17,1.88,1.88,0,0,1,.6.49l-.42.38a1.52,1.52,0,0,0-.4-.34,1.26,1.26,0,0,0-.67-.16.93.93,0,0,0-.6.17.58.58,0,0,0-.21.47.49.49,0,0,0,.21.44,1.45,1.45,0,0,0,.59.2l.32,0a1.75,1.75,0,0,1,1,.39,1.06,1.06,0,0,1,.29.77,1.17,1.17,0,0,1-.41.94A1.67,1.67,0,0,1,161.52,78.52Z"/><path class="cls-3" d="M165.71,78.52a1.93,1.93,0,0,1-.77-.16,1.47,1.47,0,0,1-.58-.43,1.84,1.84,0,0,1-.36-.68,3.15,3.15,0,0,1,0-1.79,1.84,1.84,0,0,1,.36-.68,1.47,1.47,0,0,1,.58-.43,1.92,1.92,0,0,1,.77-.15,1.53,1.53,0,0,1,1.55,1l-.54.28a1,1,0,0,0-.37-.5,1.08,1.08,0,0,0-.64-.18,1.12,1.12,0,0,0-.5.1,1,1,0,0,0-.36.25,1.07,1.07,0,0,0-.22.39,2,2,0,0,0-.07.5v.71a1.36,1.36,0,0,0,.29.89,1.09,1.09,0,0,0,.86.35,1.16,1.16,0,0,0,1.12-.72l.47.31a1.61,1.61,0,0,1-.6.71A1.7,1.7,0,0,1,165.71,78.52Z"/><path class="cls-3" d="M171.2,78.42a.6.6,0,0,1-.51-.19,1,1,0,0,1-.2-.48h0a1,1,0,0,1-.45.57,1.36,1.36,0,0,1-.74.2,1.46,1.46,0,0,1-1-.34,1.16,1.16,0,0,1-.37-.91,1.07,1.07,0,0,1,.43-.9,2.27,2.27,0,0,1,1.33-.31h.82v-.41a.89.89,0,0,0-.24-.67,1.26,1.26,0,0,0-1.36-.06,1.36,1.36,0,0,0-.42.44L168,75a1.46,1.46,0,0,1,.54-.57,1.65,1.65,0,0,1,.93-.23,1.7,1.7,0,0,1,1.16.36,1.3,1.3,0,0,1,.42,1v2.27h.47v.57ZM169.36,78a2,2,0,0,0,.44,0,1.61,1.61,0,0,0,.35-.16.83.83,0,0,0,.22-.24.64.64,0,0,0,.08-.3v-.68h-.85a1.5,1.5,0,0,0-.8.16.51.51,0,0,0-.25.46v.17a.55.55,0,0,0,.22.47A.88.88,0,0,0,169.36,78Z"/><path class="cls-3" d="M172.47,78.42V74.29h.64V75h0a1.34,1.34,0,0,1,.42-.56,1.2,1.2,0,0,1,.74-.2,1.29,1.29,0,0,1,1,.41,1.7,1.7,0,0,1,.37,1.16v2.65h-.64V75.88c0-.75-.31-1.12-.94-1.12a1.5,1.5,0,0,0-.37,0,.86.86,0,0,0-.32.15.59.59,0,0,0-.23.24.68.68,0,0,0-.09.35v2.87Z"/><path class="cls-3" d="M177,78.42V74.29h.64V75h0a1.28,1.28,0,0,1,.43-.56,1.18,1.18,0,0,1,.74-.2,1.28,1.28,0,0,1,1,.41,1.65,1.65,0,0,1,.37,1.16v2.65h-.64V75.88c0-.75-.31-1.12-.93-1.12a1.58,1.58,0,0,0-.38,0A.94.94,0,0,0,178,75a.66.66,0,0,0-.23.24.67.67,0,0,0-.08.35v2.87Z"/><path class="cls-3" d="M183.11,78.52a1.88,1.88,0,0,1-.76-.16,1.55,1.55,0,0,1-.58-.43,2,2,0,0,1-.38-.68,2.77,2.77,0,0,1-.13-.89,2.73,2.73,0,0,1,.13-.89,1.92,1.92,0,0,1,.38-.69,1.55,1.55,0,0,1,.58-.43,1.87,1.87,0,0,1,.76-.15,1.79,1.79,0,0,1,.75.15,1.65,1.65,0,0,1,.56.42,1.75,1.75,0,0,1,.35.63,2.28,2.28,0,0,1,.13.8v.31h-3v.19a1.53,1.53,0,0,0,.08.49,1.33,1.33,0,0,0,.24.4,1.16,1.16,0,0,0,.39.26,1.19,1.19,0,0,0,.51.1,1.21,1.21,0,0,0,.69-.19,1.27,1.27,0,0,0,.45-.52l.46.33a1.65,1.65,0,0,1-.63.68A1.84,1.84,0,0,1,183.11,78.52Zm0-3.79a1.28,1.28,0,0,0-.48.09,1.18,1.18,0,0,0-.37.26,1.28,1.28,0,0,0-.24.39,1.39,1.39,0,0,0-.09.5V76h2.28v-.09a1.25,1.25,0,0,0-.3-.88A1,1,0,0,0,183.11,74.73Z"/><path class="cls-3" d="M186,78.42V74.29h.64V75h0a1.34,1.34,0,0,1,.42-.56,1.2,1.2,0,0,1,.74-.2,1.29,1.29,0,0,1,1,.41,1.7,1.7,0,0,1,.37,1.16v2.65h-.64V75.88c0-.75-.31-1.12-.94-1.12a1.5,1.5,0,0,0-.37,0,.86.86,0,0,0-.32.15.59.59,0,0,0-.23.24.68.68,0,0,0-.09.35v2.87Z"/><path class="cls-3" d="M114.55,87.62a1.26,1.26,0,0,0,.86-.26.84.84,0,0,0,.28-.66v-.06a.81.81,0,0,0-.27-.66,1.2,1.2,0,0,0-.73-.22,1.23,1.23,0,0,0-.7.19,1.59,1.59,0,0,0-.45.51l-.5-.38a2,2,0,0,1,.26-.34,1.59,1.59,0,0,1,.34-.28,1.68,1.68,0,0,1,.47-.21,2.13,2.13,0,0,1,.6-.08,2.39,2.39,0,0,1,.66.09,1.52,1.52,0,0,1,.54.27,1.33,1.33,0,0,1,.36.45,1.46,1.46,0,0,1,0,1.08,1.16,1.16,0,0,1-.23.37,1.27,1.27,0,0,1-.34.27,1.54,1.54,0,0,1-.42.17v0a2.32,2.32,0,0,1,.44.16,1.44,1.44,0,0,1,.37.28,1.38,1.38,0,0,1,.27.42,1.62,1.62,0,0,1,0,1.22,1.48,1.48,0,0,1-.38.51,1.77,1.77,0,0,1-.6.34,2.45,2.45,0,0,1-.78.12,2.49,2.49,0,0,1-.64-.08,1.88,1.88,0,0,1-.5-.21,1.6,1.6,0,0,1-.37-.31,2.52,2.52,0,0,1-.3-.35l.51-.38a2.32,2.32,0,0,0,.22.3,2.09,2.09,0,0,0,.28.24,1.28,1.28,0,0,0,.34.14,1.53,1.53,0,0,0,.45.06,1.31,1.31,0,0,0,.9-.27,1,1,0,0,0,.3-.77v-.07a1,1,0,0,0-.3-.77,1.31,1.31,0,0,0-.9-.27H114v-.59Z"/><path class="cls-3" d="M118.35,91a.5.5,0,0,1-.37-.13.53.53,0,0,1-.11-.34v-.1A.53.53,0,0,1,118,90a.5.5,0,0,1,.37-.12.51.51,0,0,1,.38.12.53.53,0,0,1,.11.34v.1a.53.53,0,0,1-.11.34A.51.51,0,0,1,118.35,91Z"/><path class="cls-3" d="M122.07,90.85V85.27h3.33v.59h-2.65v1.87h2.42v.59h-2.42v2.53Z"/><path class="cls-3" d="M126.33,90.85V86.72H127v.76h0a1.22,1.22,0,0,1,.4-.52,1.2,1.2,0,0,1,.79-.24h.25v.64h-.38a1.47,1.47,0,0,0-.81.2.58.58,0,0,0-.29.49v2.8Z"/><path class="cls-3" d="M132.24,90.85a.6.6,0,0,1-.51-.19,1,1,0,0,1-.2-.48h0a1.06,1.06,0,0,1-.45.58,1.45,1.45,0,0,1-.74.19,1.41,1.41,0,0,1-1-.34,1.19,1.19,0,0,1-.37-.91,1.07,1.07,0,0,1,.43-.9,2.35,2.35,0,0,1,1.33-.31h.82v-.41a.9.9,0,0,0-.24-.67,1,1,0,0,0-.74-.23,1.08,1.08,0,0,0-.62.17,1.3,1.3,0,0,0-.42.45l-.39-.36a1.42,1.42,0,0,1,.54-.58,1.73,1.73,0,0,1,.93-.23,1.7,1.7,0,0,1,1.16.36,1.31,1.31,0,0,1,.42,1v2.26h.47v.57Zm-1.84-.45a2,2,0,0,0,.44-.05,1.25,1.25,0,0,0,.35-.16.83.83,0,0,0,.22-.24.61.61,0,0,0,.08-.3V89h-.85a1.5,1.5,0,0,0-.8.16.52.52,0,0,0-.25.47v.16a.57.57,0,0,0,.22.48A.94.94,0,0,0,130.4,90.4Z"/><path class="cls-3" d="M137,91.31a1,1,0,0,1-.5.94,3,3,0,0,1-1.5.3,2.72,2.72,0,0,1-1.39-.27.82.82,0,0,1-.42-.75.76.76,0,0,1,.17-.52,1,1,0,0,1,.48-.28v-.08a.6.6,0,0,1-.36-.58.56.56,0,0,1,.2-.47,1.21,1.21,0,0,1,.51-.24v0a1.21,1.21,0,0,1-.57-.5,1.4,1.4,0,0,1-.21-.76,1.54,1.54,0,0,1,.11-.58,1.36,1.36,0,0,1,.32-.46,1.59,1.59,0,0,1,.49-.29,2,2,0,0,1,1.42.06v-.08a.72.72,0,0,1,.11-.4.44.44,0,0,1,.37-.15h.61v.56h-.78V87a1.31,1.31,0,0,1,.35.46,1.48,1.48,0,0,1,.12.61,1.52,1.52,0,0,1-.11.57,1.23,1.23,0,0,1-.32.46,1.48,1.48,0,0,1-.49.29,1.83,1.83,0,0,1-.64.1,1.87,1.87,0,0,1-.4,0,1.4,1.4,0,0,0-.37.17.32.32,0,0,0-.17.3.26.26,0,0,0,.17.25,1.47,1.47,0,0,0,.46.06h.88a1.79,1.79,0,0,1,1.12.29A1,1,0,0,1,137,91.31Zm-.6,0a.49.49,0,0,0-.18-.4,1.12,1.12,0,0,0-.67-.15h-1.38a.6.6,0,0,0-.38.56.65.65,0,0,0,.2.47,1.05,1.05,0,0,0,.69.19h.6a1.74,1.74,0,0,0,.83-.17A.53.53,0,0,0,136.39,91.36ZM135,89a1,1,0,0,0,.65-.2.73.73,0,0,0,.24-.6v-.23a.73.73,0,0,0-.24-.6,1.16,1.16,0,0,0-1.3,0,.73.73,0,0,0-.24.6v.23a.73.73,0,0,0,.24.6A1,1,0,0,0,135,89Z"/><path class="cls-3" d="M139.25,91a1.84,1.84,0,0,1-.76-.15,1.72,1.72,0,0,1-.59-.44,1.94,1.94,0,0,1-.37-.68,2.72,2.72,0,0,1-.14-.89,2.77,2.77,0,0,1,.14-.89,1.91,1.91,0,0,1,.37-.69,1.7,1.7,0,0,1,.59-.43,1.84,1.84,0,0,1,.76-.15,1.72,1.72,0,0,1,.74.15,1.56,1.56,0,0,1,.56.42,1.79,1.79,0,0,1,.36.63,2.6,2.6,0,0,1,.12.81v.3h-3v.19a1.29,1.29,0,0,0,.08.49,1.22,1.22,0,0,0,.24.4,1,1,0,0,0,.38.26,1.27,1.27,0,0,0,.52.1,1.19,1.19,0,0,0,1.14-.71l.45.33a1.64,1.64,0,0,1-.62.69A2,2,0,0,1,139.25,91Zm0-3.79a1.21,1.21,0,0,0-.85.35,1.18,1.18,0,0,0-.25.4,1.53,1.53,0,0,0-.08.49v.06h2.28v-.09a1.27,1.27,0,0,0-.3-.88A1,1,0,0,0,139.25,87.16Z"/><path class="cls-3" d="M142.09,90.85V86.72h.64v.67h0a1.43,1.43,0,0,1,.43-.56,1.25,1.25,0,0,1,.74-.2,1.27,1.27,0,0,1,1,.41,1.65,1.65,0,0,1,.37,1.16v2.65h-.64V88.31q0-1.11-.93-1.11a1.5,1.5,0,0,0-.37,0,1.24,1.24,0,0,0-.33.15.76.76,0,0,0-.23.24.78.78,0,0,0-.08.35v2.87Z"/><path class="cls-3" d="M148.52,84.93h.64v2.46h0a1.25,1.25,0,0,1,.47-.58,1.45,1.45,0,0,1,.74-.18,1.6,1.6,0,0,1,.7.15,1.46,1.46,0,0,1,.53.43,2.07,2.07,0,0,1,.34.68,3.58,3.58,0,0,1,.11.9,3.44,3.44,0,0,1-.11.89,1.89,1.89,0,0,1-.34.68,1.47,1.47,0,0,1-1.23.59,1.27,1.27,0,0,1-1.21-.76h0v.66h-.64Zm1.71,5.45a1.09,1.09,0,0,0,.85-.34,1.28,1.28,0,0,0,.31-.9v-.71a1.24,1.24,0,0,0-.31-.89,1.09,1.09,0,0,0-.85-.34,1.42,1.42,0,0,0-.42.06,1.19,1.19,0,0,0-.34.16.75.75,0,0,0-.22.25.62.62,0,0,0-.09.32v1.55a.68.68,0,0,0,.09.35.73.73,0,0,0,.22.27,1,1,0,0,0,.34.16A1.42,1.42,0,0,0,150.23,90.38Z"/><path class="cls-3" d="M154.71,91a1.87,1.87,0,0,1-.76-.15,1.69,1.69,0,0,1-.58-.44,2,2,0,0,1-.38-.68,2.73,2.73,0,0,1-.13-.89,2.77,2.77,0,0,1,.13-.89,1.92,1.92,0,0,1,.38-.69,1.66,1.66,0,0,1,.58-.43,1.87,1.87,0,0,1,.76-.15,1.79,1.79,0,0,1,.75.15,1.65,1.65,0,0,1,.56.42,1.93,1.93,0,0,1,.35.63,2.33,2.33,0,0,1,.13.81v.3h-3v.19a1.53,1.53,0,0,0,.08.49,1.22,1.22,0,0,0,.24.4,1.16,1.16,0,0,0,.39.26,1.19,1.19,0,0,0,.51.1,1.17,1.17,0,0,0,1.14-.71l.46.33a1.74,1.74,0,0,1-.63.69A1.92,1.92,0,0,1,154.71,91Zm0-3.79a1.12,1.12,0,0,0-.48.1,1.15,1.15,0,0,0-.37.25,1.33,1.33,0,0,0-.24.4,1.3,1.3,0,0,0-.09.49v.06h2.28v-.09a1.27,1.27,0,0,0-.3-.88A1,1,0,0,0,154.71,87.16Z"/><path class="cls-3" d="M160.55,90.85a.6.6,0,0,1-.51-.19,1,1,0,0,1-.2-.48h0a1.06,1.06,0,0,1-.45.58,1.63,1.63,0,0,1-1.76-.15,1.18,1.18,0,0,1-.36-.91,1.06,1.06,0,0,1,.42-.9,2.36,2.36,0,0,1,1.34-.31h.81v-.41a.9.9,0,0,0-.24-.67,1,1,0,0,0-.73-.23,1.11,1.11,0,0,0-.63.17,1.3,1.3,0,0,0-.42.45l-.39-.36a1.49,1.49,0,0,1,.54-.58A2,2,0,0,1,160,87a1.33,1.33,0,0,1,.41,1v2.26h.47v.57Zm-1.84-.45a2,2,0,0,0,.44-.05,1.13,1.13,0,0,0,.35-.16.83.83,0,0,0,.22-.24.61.61,0,0,0,.08-.3V89H159a1.52,1.52,0,0,0-.8.16.52.52,0,0,0-.25.47v.16a.57.57,0,0,0,.22.48A.94.94,0,0,0,158.71,90.4Z"/><path class="cls-3" d="M161.83,90.85V86.72h.64v.67h0a1.34,1.34,0,0,1,.43-.56,1.25,1.25,0,0,1,.74-.2,1.28,1.28,0,0,1,1,.41,1.65,1.65,0,0,1,.37,1.16v2.65h-.64V88.31c0-.74-.31-1.11-.94-1.11a1.55,1.55,0,0,0-.37,0,1.05,1.05,0,0,0-.32.15.66.66,0,0,0-.23.24.67.67,0,0,0-.08.35v2.87Z"/><path class="cls-3" d="M167.28,90.85a.66.66,0,0,1-.51-.19.69.69,0,0,1-.17-.49V87.29h-.68v-.57h.39a.36.36,0,0,0,.28-.08.44.44,0,0,0,.08-.29v-.77h.57v1.14h.91v.57h-.91v3h.84v.57Z"/><path class="cls-3" d="M168.75,86.72h.62l.44,1.79.44,1.81h0l.5-1.81.52-1.79h.57l.53,1.79.52,1.81h0l.43-1.81.44-1.79h.6l-1.09,4.13h-.79l-.58-2-.36-1.26h0l-.35,1.26-.57,2h-.78Z"/><path class="cls-3" d="M176.84,91a1.87,1.87,0,0,1-.76-.15,1.82,1.82,0,0,1-.59-.44,2.14,2.14,0,0,1-.38-.68,2.73,2.73,0,0,1-.13-.89,2.77,2.77,0,0,1,.13-.89,2.09,2.09,0,0,1,.38-.69,1.8,1.8,0,0,1,.59-.43,2,2,0,0,1,1.52,0,1.91,1.91,0,0,1,.59.43,2.09,2.09,0,0,1,.38.69,2.77,2.77,0,0,1,.14.89,2.72,2.72,0,0,1-.14.89,2.14,2.14,0,0,1-.38.68,1.94,1.94,0,0,1-.59.44A1.87,1.87,0,0,1,176.84,91Zm0-.57a1.18,1.18,0,0,0,.85-.32,1.3,1.3,0,0,0,.33-1v-.59a1.28,1.28,0,0,0-.33-1,1.14,1.14,0,0,0-.85-.32,1.15,1.15,0,0,0-.85.32,1.28,1.28,0,0,0-.32,1v.59a1.3,1.3,0,0,0,.32,1A1.2,1.2,0,0,0,176.84,90.38Z"/><path class="cls-3" d="M179.76,90.85V86.72h.64v.76h0a1.3,1.3,0,0,1,.4-.52,1.2,1.2,0,0,1,.79-.24h.25v.64h-.37a1.48,1.48,0,0,0-.82.2.58.58,0,0,0-.29.49v2.8Z"/><path class="cls-3" d="M183.64,90.85a.66.66,0,0,1-.51-.19.69.69,0,0,1-.17-.49V87.29h-.68v-.57h.39a.36.36,0,0,0,.28-.08.44.44,0,0,0,.07-.29v-.77h.58v1.14h.91v.57h-.91v3h.84v.57Z"/><path class="cls-3" d="M187.06,91a1.87,1.87,0,0,1-.76-.15,1.69,1.69,0,0,1-.58-.44,2,2,0,0,1-.38-.68,2.73,2.73,0,0,1-.13-.89,2.77,2.77,0,0,1,.13-.89,1.92,1.92,0,0,1,.38-.69,1.66,1.66,0,0,1,.58-.43,1.87,1.87,0,0,1,.76-.15,1.79,1.79,0,0,1,.75.15,1.65,1.65,0,0,1,.56.42,1.93,1.93,0,0,1,.35.63,2.33,2.33,0,0,1,.13.81v.3h-3v.19a1.53,1.53,0,0,0,.08.49,1.22,1.22,0,0,0,.24.4,1.16,1.16,0,0,0,.39.26,1.19,1.19,0,0,0,.51.1,1.29,1.29,0,0,0,.69-.18,1.3,1.3,0,0,0,.45-.53l.46.33a1.74,1.74,0,0,1-.63.69A1.92,1.92,0,0,1,187.06,91Zm0-3.79a1.12,1.12,0,0,0-.48.1,1.15,1.15,0,0,0-.37.25,1.33,1.33,0,0,0-.24.4,1.3,1.3,0,0,0-.09.49v.06h2.28v-.09a1.27,1.27,0,0,0-.3-.88A1,1,0,0,0,187.06,87.16Z"/><path class="cls-3" d="M189.9,90.85V86.72h.64v.67h0a1.41,1.41,0,0,1,.42-.56,1.27,1.27,0,0,1,.74-.2,1.29,1.29,0,0,1,1,.41,1.7,1.7,0,0,1,.37,1.16v2.65h-.64V88.31c0-.74-.31-1.11-.94-1.11a1.5,1.5,0,0,0-.37,0,1.05,1.05,0,0,0-.32.15.59.59,0,0,0-.23.24.68.68,0,0,0-.09.35v2.87Z"/><path class="cls-3" d="M113.89,103.28v-1.09h-2.7v-.59l2.34-3.9h1v3.93h.81v.56h-.81v1.09Zm-2.06-1.65h2.06V98.22h0Z"/><path class="cls-3" d="M116.78,103.38a.45.45,0,0,1-.37-.13.46.46,0,0,1-.12-.33v-.11a.43.43,0,0,1,.49-.46.46.46,0,0,1,.37.13.45.45,0,0,1,.12.33v.11a.43.43,0,0,1-.49.46Z"/><path class="cls-3" d="M124,103.28l-.56-1.64h-2.25l-.56,1.64h-.68l2-5.58h.86l2,5.58Zm-1.67-5h0l-.94,2.72h1.93Z"/><path class="cls-3" d="M128.11,102.62h0a1.91,1.91,0,0,1-.15.28,1.34,1.34,0,0,1-.23.25,1.28,1.28,0,0,1-.33.17,1.53,1.53,0,0,1-.45.06,1.32,1.32,0,0,1-1-.41,1.7,1.7,0,0,1-.38-1.17V99.16h.64v2.54c0,.74.32,1.11,1,1.11a1.18,1.18,0,0,0,.37,0,1.15,1.15,0,0,0,.32-.14.83.83,0,0,0,.22-.24.69.69,0,0,0,.09-.36V99.16h.64v4.12h-.64Z"/><path class="cls-3" d="M131.35,103.38a1.91,1.91,0,0,1-1-.22,2.21,2.21,0,0,1-.67-.59l.46-.37a1.7,1.7,0,0,0,.54.47,1.34,1.34,0,0,0,.68.17,1,1,0,0,0,.64-.18.6.6,0,0,0,.23-.5.57.57,0,0,0-.16-.41,1,1,0,0,0-.56-.23l-.33,0a2.74,2.74,0,0,1-.53-.13,1.4,1.4,0,0,1-.42-.22,1,1,0,0,1-.28-.35,1.22,1.22,0,0,1-.1-.49,1.3,1.3,0,0,1,.11-.54,1.15,1.15,0,0,1,.31-.38,1.36,1.36,0,0,1,.47-.22,2.2,2.2,0,0,1,.58-.08,1.81,1.81,0,0,1,.85.18,1.92,1.92,0,0,1,.59.48l-.42.39a1.16,1.16,0,0,0-.4-.35,1.34,1.34,0,0,0-.66-.16.91.91,0,0,0-.61.18.58.58,0,0,0-.2.46.49.49,0,0,0,.2.44,1.5,1.5,0,0,0,.59.2l.32.05a1.72,1.72,0,0,1,1,.4,1,1,0,0,1,.28.76,1.18,1.18,0,0,1-.4,1A1.76,1.76,0,0,1,131.35,103.38Z"/><path class="cls-3" d="M133.51,99.16h.62l.44,1.78.44,1.81h0l.5-1.81.52-1.78h.57l.53,1.78.52,1.81h0l.43-1.81.44-1.78h.6l-1.09,4.12h-.79l-.58-2-.36-1.26h0L136,101.3l-.57,2h-.78Z"/><path class="cls-3" d="M141.6,103.38a1.84,1.84,0,0,1-.76-.15,1.69,1.69,0,0,1-.59-.44,2,2,0,0,1-.37-.68,2.73,2.73,0,0,1-.13-.89,2.77,2.77,0,0,1,.13-.89,2,2,0,0,1,.37-.68,1.69,1.69,0,0,1,.59-.44,1.84,1.84,0,0,1,.76-.15,1.79,1.79,0,0,1,.75.15,1.76,1.76,0,0,1,.56.42,1.93,1.93,0,0,1,.35.63,2.64,2.64,0,0,1,.13.81v.3h-3v.19a1.64,1.64,0,0,0,.08.5,1.28,1.28,0,0,0,.24.39,1.23,1.23,0,0,0,.39.27,1.36,1.36,0,0,0,.51.09,1.31,1.31,0,0,0,.69-.18,1.24,1.24,0,0,0,.45-.53l.45.33a1.64,1.64,0,0,1-.62.69A1.92,1.92,0,0,1,141.6,103.38Zm0-3.78a1.28,1.28,0,0,0-.48.09,1,1,0,0,0-.37.26,1.11,1.11,0,0,0-.24.39,1.35,1.35,0,0,0-.09.5v0h2.28v-.09a1.24,1.24,0,0,0-.3-.87A1,1,0,0,0,141.6,99.6Z"/><path class="cls-3" d="M144.44,103.28V99.16h.64v.76h0a1.27,1.27,0,0,1,.4-.53,1.2,1.2,0,0,1,.79-.23h.25v.64h-.37a1.49,1.49,0,0,0-.82.19.59.59,0,0,0-.29.49v2.8Z"/><path class="cls-3" d="M148.31,103.28a.65.65,0,0,1-.5-.18.7.7,0,0,1-.18-.5V99.72H147v-.56h.39a.35.35,0,0,0,.28-.09.42.42,0,0,0,.08-.29V98h.57v1.15h.91v.56h-.91v3h.84v.56Z"/><path class="cls-3" d="M152.75,102.62h0a1.91,1.91,0,0,1-.15.28,1.34,1.34,0,0,1-.23.25,1.28,1.28,0,0,1-.33.17,1.53,1.53,0,0,1-.45.06,1.32,1.32,0,0,1-1-.41,1.7,1.7,0,0,1-.38-1.17V99.16h.64v2.54c0,.74.32,1.11.94,1.11a1.2,1.2,0,0,0,.38,0,1.15,1.15,0,0,0,.32-.14,1,1,0,0,0,.22-.24.68.68,0,0,0,.08-.36V99.16h.64v4.12h-.64Z"/><path class="cls-3" d="M154.75,103.28V99.16h.64v.66h0a1.31,1.31,0,0,1,.42-.55,1.2,1.2,0,0,1,.74-.21,1.33,1.33,0,0,1,1,.41,1.73,1.73,0,0,1,.37,1.17v2.64h-.64v-2.54c0-.74-.31-1.11-.94-1.11a1.14,1.14,0,0,0-.37.05,1,1,0,0,0-.32.14.66.66,0,0,0-.23.24.68.68,0,0,0-.09.35v2.87Z"/><path class="cls-3" d="M162.78,103.74a1,1,0,0,1-.5.94,3,3,0,0,1-1.5.3,2.79,2.79,0,0,1-1.39-.26A.84.84,0,0,1,159,104a.73.73,0,0,1,.18-.52,1,1,0,0,1,.48-.27v-.09a.6.6,0,0,1-.37-.58.59.59,0,0,1,.2-.47,1.21,1.21,0,0,1,.51-.24v0a1.41,1.41,0,0,1-.57-.51,1.37,1.37,0,0,1-.2-.76,1.4,1.4,0,0,1,.11-.58,1.21,1.21,0,0,1,.31-.45,1.44,1.44,0,0,1,.49-.3,1.83,1.83,0,0,1,.64-.1,1.78,1.78,0,0,1,.78.16v-.07a.7.7,0,0,1,.11-.4.42.42,0,0,1,.37-.16h.62v.57h-.79v.26a1.31,1.31,0,0,1,.35.46,1.48,1.48,0,0,1,.13.61,1.44,1.44,0,0,1-.43,1,1.59,1.59,0,0,1-.49.29,1.91,1.91,0,0,1-.64.11,2.58,2.58,0,0,1-.4,0,1.18,1.18,0,0,0-.38.16.34.34,0,0,0-.17.3.25.25,0,0,0,.18.25,1.44,1.44,0,0,0,.45.06h.88a1.75,1.75,0,0,1,1.12.29A1,1,0,0,1,162.78,103.74Zm-.6.05a.47.47,0,0,0-.19-.4,1.12,1.12,0,0,0-.67-.15H160a.59.59,0,0,0-.39.56.62.62,0,0,0,.21.47,1,1,0,0,0,.69.19h.59a1.71,1.71,0,0,0,.83-.17A.54.54,0,0,0,162.18,103.79Zm-1.43-2.39a1,1,0,0,0,.64-.19.75.75,0,0,0,.24-.61v-.22a.74.74,0,0,0-.24-.61,1,1,0,0,0-.64-.2,1,1,0,0,0-.65.2.74.74,0,0,0-.24.61v.22a.75.75,0,0,0,.24.61A1,1,0,0,0,160.75,101.4Z"/><path class="cls-3" d="M168.41,103.28a.64.64,0,0,1-.52-.19.94.94,0,0,1-.19-.48h0a1.06,1.06,0,0,1-.45.58,1.38,1.38,0,0,1-.74.19,1.41,1.41,0,0,1-1-.34,1.14,1.14,0,0,1-.37-.91,1,1,0,0,1,.43-.89,2.27,2.27,0,0,1,1.33-.32h.82v-.4a.91.91,0,0,0-.24-.68,1.06,1.06,0,0,0-.74-.23,1.14,1.14,0,0,0-.63.17,1.52,1.52,0,0,0-.42.45l-.38-.36a1.34,1.34,0,0,1,.54-.57,1.63,1.63,0,0,1,.92-.24,1.68,1.68,0,0,1,1.17.37,1.27,1.27,0,0,1,.42,1v2.27h.47v.56Zm-1.84-.44a1.51,1.51,0,0,0,.44-.06,1.07,1.07,0,0,0,.34-.16.87.87,0,0,0,.23-.24.61.61,0,0,0,.08-.3v-.68h-.85a1.57,1.57,0,0,0-.8.16.54.54,0,0,0-.26.47v.17a.57.57,0,0,0,.22.47A1,1,0,0,0,166.57,102.84Z"/><path class="cls-3" d="M169.68,103.28V99.16h.64v.66h0a1.41,1.41,0,0,1,.43-.55,1.2,1.2,0,0,1,.74-.21,1.29,1.29,0,0,1,1,.41,1.68,1.68,0,0,1,.38,1.17v2.64h-.64v-2.54c0-.74-.32-1.11-.94-1.11a1.14,1.14,0,0,0-.37.05,1.22,1.22,0,0,0-.33.14.72.72,0,0,0-.22.24.68.68,0,0,0-.09.35v2.87Z"/><path class="cls-3" d="M175.47,103.38a1.91,1.91,0,0,1-1-.22,2.21,2.21,0,0,1-.67-.59l.46-.37a1.7,1.7,0,0,0,.54.47,1.34,1.34,0,0,0,.68.17,1,1,0,0,0,.64-.18.6.6,0,0,0,.23-.5.57.57,0,0,0-.16-.41,1,1,0,0,0-.56-.23l-.33,0a2.74,2.74,0,0,1-.53-.13,1.4,1.4,0,0,1-.42-.22,1,1,0,0,1-.28-.35,1.22,1.22,0,0,1-.1-.49,1.3,1.3,0,0,1,.11-.54,1.15,1.15,0,0,1,.31-.38,1.36,1.36,0,0,1,.47-.22,2.2,2.2,0,0,1,.58-.08,1.81,1.81,0,0,1,.85.18,1.92,1.92,0,0,1,.59.48l-.42.39a1.16,1.16,0,0,0-.4-.35,1.34,1.34,0,0,0-.66-.16.91.91,0,0,0-.61.18.58.58,0,0,0-.2.46.49.49,0,0,0,.2.44,1.5,1.5,0,0,0,.59.2l.32.05a1.72,1.72,0,0,1,1,.4,1,1,0,0,1,.28.76,1.18,1.18,0,0,1-.4,1A1.76,1.76,0,0,1,175.47,103.38Z"/><path class="cls-3" d="M179.67,103.38a1.87,1.87,0,0,1-.76-.15,1.57,1.57,0,0,1-.58-.44,1.88,1.88,0,0,1-.38-.68,2.73,2.73,0,0,1-.13-.89,2.77,2.77,0,0,1,.13-.89,1.88,1.88,0,0,1,.38-.68,1.57,1.57,0,0,1,.58-.44,1.87,1.87,0,0,1,.76-.15,1.79,1.79,0,0,1,.75.15,1.65,1.65,0,0,1,.56.42,1.93,1.93,0,0,1,.35.63,2.37,2.37,0,0,1,.13.81v.3h-3v.19a1.64,1.64,0,0,0,.08.5,1.28,1.28,0,0,0,.24.39,1.16,1.16,0,0,0,.9.36,1.31,1.31,0,0,0,.69-.18,1.24,1.24,0,0,0,.45-.53l.46.33a1.74,1.74,0,0,1-.63.69A1.92,1.92,0,0,1,179.67,103.38Zm0-3.78a1.28,1.28,0,0,0-.48.09,1,1,0,0,0-.37.26,1.28,1.28,0,0,0-.24.39,1.35,1.35,0,0,0-.09.5v0h2.28v-.09a1.24,1.24,0,0,0-.3-.87A1,1,0,0,0,179.67,99.6Z"/><path class="cls-3" d="M182.51,97.36h.64v2.46h0a1.41,1.41,0,0,1,.43-.55,1.2,1.2,0,0,1,.74-.21,1.33,1.33,0,0,1,1,.41,1.73,1.73,0,0,1,.37,1.17v2.64h-.64v-2.54c0-.74-.31-1.11-.94-1.11a1.14,1.14,0,0,0-.37.05,1,1,0,0,0-.32.14.66.66,0,0,0-.23.24.68.68,0,0,0-.09.35v2.87h-.64Z"/><path class="cls-3" d="M188.61,103.38a1.84,1.84,0,0,1-.76-.15,1.61,1.61,0,0,1-.59-.44,1.86,1.86,0,0,1-.37-.68,2.72,2.72,0,0,1-.14-.89,2.77,2.77,0,0,1,.14-.89,1.86,1.86,0,0,1,.37-.68,1.61,1.61,0,0,1,.59-.44,1.84,1.84,0,0,1,.76-.15,1.75,1.75,0,0,1,.74.15,1.56,1.56,0,0,1,.56.42,1.79,1.79,0,0,1,.36.63,2.64,2.64,0,0,1,.12.81v.3h-3v.19a1.38,1.38,0,0,0,.08.5,1.11,1.11,0,0,0,.24.39,1.19,1.19,0,0,0,.38.27,1.46,1.46,0,0,0,.52.09,1.25,1.25,0,0,0,.68-.18,1.2,1.2,0,0,0,.46-.53l.45.33a1.64,1.64,0,0,1-.62.69A2,2,0,0,1,188.61,103.38Zm0-3.78a1.21,1.21,0,0,0-.48.09,1,1,0,0,0-.37.26,1.14,1.14,0,0,0-.25.39,1.35,1.35,0,0,0-.08.5v0h2.28v-.09a1.29,1.29,0,0,0-.3-.87A1,1,0,0,0,188.61,99.6Z"/><path class="cls-3" d="M191.45,103.28V99.16h.64v.66h0a1.25,1.25,0,0,1,.43-.55,1.18,1.18,0,0,1,.74-.21,1.3,1.3,0,0,1,1,.41,1.68,1.68,0,0,1,.37,1.17v2.64H194v-2.54q0-1.11-.93-1.11a1.24,1.24,0,0,0-.38.05,1.15,1.15,0,0,0-.32.14.75.75,0,0,0-.23.24.78.78,0,0,0-.08.35v2.87Z"/><path class="cls-3" d="M82.44,254.16l-.56-1.65H79.63l-.56,1.65h-.68l2-5.58h.85l2,5.58Zm-1.67-5h0l-.94,2.72h1.93Z"/><path class="cls-3" d="M86.55,253.5h0a1.91,1.91,0,0,1-.15.28,1.79,1.79,0,0,1-.23.25,1.28,1.28,0,0,1-.33.17,1.53,1.53,0,0,1-.45.06,1.32,1.32,0,0,1-1-.41,1.7,1.7,0,0,1-.38-1.17V250h.64v2.54c0,.74.32,1.11.94,1.11a1.58,1.58,0,0,0,.38-.05,1.15,1.15,0,0,0,.32-.14.88.88,0,0,0,.22-.25.63.63,0,0,0,.08-.35V250h.64v4.12h-.64Z"/><path class="cls-3" d="M88.78,250.6h-.67V250h.67v-.84a1,1,0,0,1,.22-.69.84.84,0,0,1,.68-.27h.63v.57h-.89V250h.89v.56h-.89v3.56h-.64Z"/><path class="cls-4" d="M93,248.24h.64v2.46h0a1.31,1.31,0,0,1,.42-.55,1.2,1.2,0,0,1,.74-.21,1.33,1.33,0,0,1,1,.41,1.72,1.72,0,0,1,.37,1.16v2.65h-.64v-2.54c0-.74-.31-1.11-.94-1.11a1.14,1.14,0,0,0-.37.05,1,1,0,0,0-.32.14.59.59,0,0,0-.23.24.68.68,0,0,0-.09.35v2.87H93Z"/><path class="cls-4" d="M98.49,254.16A.69.69,0,0,1,98,254a.74.74,0,0,1-.17-.5V250.6h-.68V250h.38a.37.37,0,0,0,.29-.09.42.42,0,0,0,.07-.29v-.77h.58V250h.9v.56h-.9v3h.84v.57Z"/><path class="cls-4" d="M101.23,254.16a.65.65,0,0,1-.5-.18.7.7,0,0,1-.18-.5V250.6h-.68V250h.39a.35.35,0,0,0,.28-.09.42.42,0,0,0,.08-.29v-.77h.57V250h.91v.56h-.91v3H102v.57Z"/><path class="cls-4" d="M103.13,250h.64v.66h0a1.17,1.17,0,0,1,.47-.57,1.36,1.36,0,0,1,.74-.19,1.6,1.6,0,0,1,.7.15,1.68,1.68,0,0,1,.53.43,1.88,1.88,0,0,1,.33.68,3.43,3.43,0,0,1,0,1.8,1.75,1.75,0,0,1-.33.67,1.47,1.47,0,0,1-1.23.59,1.25,1.25,0,0,1-1.21-.76h0v2.26h-.64Zm1.7,3.65a1.09,1.09,0,0,0,.86-.34,1.28,1.28,0,0,0,.31-.9v-.7a1.28,1.28,0,0,0-.31-.9,1.09,1.09,0,0,0-.86-.34,1.4,1.4,0,0,0-.41.06,1.19,1.19,0,0,0-.34.16,1,1,0,0,0-.23.26.68.68,0,0,0-.08.31v1.55a.86.86,0,0,0,.08.36,1,1,0,0,0,.23.26,1,1,0,0,0,.34.16A1.4,1.4,0,0,0,104.83,253.69Z"/><path class="cls-4" d="M109,254.26a1.87,1.87,0,0,1-1-.22,2.1,2.1,0,0,1-.67-.59l.45-.37a1.7,1.7,0,0,0,.54.47,1.41,1.41,0,0,0,.69.16,1,1,0,0,0,.63-.17.57.57,0,0,0,.23-.5.61.61,0,0,0-.15-.41,1,1,0,0,0-.57-.23l-.33-.05a2.64,2.64,0,0,1-.52-.13,1.4,1.4,0,0,1-.42-.22.87.87,0,0,1-.28-.35,1.07,1.07,0,0,1-.1-.49,1.16,1.16,0,0,1,.11-.54,1,1,0,0,1,.31-.38,1.53,1.53,0,0,1,.46-.23,2.27,2.27,0,0,1,.59-.07,1.77,1.77,0,0,1,.84.18,1.85,1.85,0,0,1,.6.48L110,251a1.16,1.16,0,0,0-.4-.35,1.29,1.29,0,0,0-.66-.16.86.86,0,0,0-.6.18.56.56,0,0,0-.21.46.48.48,0,0,0,.21.44,1.45,1.45,0,0,0,.58.2l.32.05a1.69,1.69,0,0,1,1,.4,1,1,0,0,1,.29.76,1.19,1.19,0,0,1-.41.95A1.74,1.74,0,0,1,109,254.26Z"/><path class="cls-4" d="M112.15,251a.46.46,0,0,1-.37-.13.49.49,0,0,1-.11-.33v-.11a.49.49,0,0,1,.11-.33.46.46,0,0,1,.37-.13.47.47,0,0,1,.38.13.49.49,0,0,1,.11.33v.11a.49.49,0,0,1-.11.33A.47.47,0,0,1,112.15,251Zm0,3.25a.46.46,0,0,1-.37-.13.5.5,0,0,1-.11-.33v-.11a.49.49,0,0,1,.11-.33.46.46,0,0,1,.37-.13.47.47,0,0,1,.38.13.49.49,0,0,1,.11.33v.11a.5.5,0,0,1-.11.33A.47.47,0,0,1,112.15,254.26Z"/><path class="cls-4" d="M113.39,255.37l2.09-7.13h.58L114,255.37Z"/><path class="cls-4" d="M115.5,255.37l2.09-7.13h.57l-2.09,7.13Z"/><path class="cls-4" d="M120.41,254.26a1.89,1.89,0,0,1-1-.22,2.21,2.21,0,0,1-.67-.59l.45-.37a1.7,1.7,0,0,0,.54.47,1.41,1.41,0,0,0,.69.16,1,1,0,0,0,.63-.17.57.57,0,0,0,.23-.5.61.61,0,0,0-.15-.41,1,1,0,0,0-.57-.23l-.33-.05a2.64,2.64,0,0,1-.52-.13,1.4,1.4,0,0,1-.42-.22.87.87,0,0,1-.28-.35,1.07,1.07,0,0,1-.1-.49,1.16,1.16,0,0,1,.11-.54,1,1,0,0,1,.31-.38,1.53,1.53,0,0,1,.46-.23,2.27,2.27,0,0,1,.59-.07,1.77,1.77,0,0,1,.84.18,1.85,1.85,0,0,1,.6.48l-.43.39a1.16,1.16,0,0,0-.4-.35,1.29,1.29,0,0,0-.66-.16.86.86,0,0,0-.6.18.56.56,0,0,0-.21.46.48.48,0,0,0,.21.44,1.45,1.45,0,0,0,.58.2l.32.05a1.69,1.69,0,0,1,1,.4,1,1,0,0,1,.29.76,1.19,1.19,0,0,1-.41.95A1.72,1.72,0,0,1,120.41,254.26Z"/><path class="cls-4" d="M125.61,253.5h0a2,2,0,0,1-.16.28,1.34,1.34,0,0,1-.23.25,1.38,1.38,0,0,1-.32.17,1.53,1.53,0,0,1-.45.06,1.33,1.33,0,0,1-1-.41,1.69,1.69,0,0,1-.37-1.17V250h.64v2.54c0,.74.31,1.11.94,1.11a1.5,1.5,0,0,0,.37-.05,1,1,0,0,0,.32-.14.78.78,0,0,0,.23-.25.72.72,0,0,0,.08-.35V250h.64v4.12h-.64Z"/><path class="cls-4" d="M127.61,254.16V250h.64v.76h0a1.18,1.18,0,0,1,1.19-.76h.25v.63h-.38a1.47,1.47,0,0,0-.81.2.59.59,0,0,0-.29.49v2.8Z"/><path class="cls-4" d="M131.53,254.16,130.08,250h.64l.72,2,.45,1.41h0l.45-1.41.73-2h.62l-1.46,4.12Z"/><path class="cls-4" d="M136.05,254.26a1.84,1.84,0,0,1-.76-.15,1.61,1.61,0,0,1-.59-.44,1.86,1.86,0,0,1-.37-.68,2.72,2.72,0,0,1-.14-.89,2.77,2.77,0,0,1,.14-.89,1.86,1.86,0,0,1,.37-.68,1.61,1.61,0,0,1,.59-.44,1.84,1.84,0,0,1,.76-.15,1.72,1.72,0,0,1,.74.15,1.56,1.56,0,0,1,.56.42,1.79,1.79,0,0,1,.36.63,2.64,2.64,0,0,1,.12.81v.3h-3v.19a1.38,1.38,0,0,0,.08.5,1.28,1.28,0,0,0,.24.39,1,1,0,0,0,.38.26,1.27,1.27,0,0,0,.52.1,1.19,1.19,0,0,0,1.14-.71l.45.33a1.64,1.64,0,0,1-.62.69A1.92,1.92,0,0,1,136.05,254.26Zm0-3.79a1.21,1.21,0,0,0-.48.1,1,1,0,0,0-.37.26,1.14,1.14,0,0,0-.25.39,1.59,1.59,0,0,0-.08.5v.05h2.28v-.09a1.29,1.29,0,0,0-.3-.88A1.07,1.07,0,0,0,136.05,250.47Z"/><path class="cls-4" d="M141.39,250H142l-1.85,5.08a1.8,1.8,0,0,1-.15.31.55.55,0,0,1-.17.2.88.88,0,0,1-.26.1,2.09,2.09,0,0,1-.38,0h-.33v-.56h.65l.31-.88L138.31,250H139l1,2.8.19.67h0l.22-.67Z"/><path class="cls-4" d="M142.81,254.26a.43.43,0,0,1-.49-.46v-.11a.45.45,0,0,1,.12-.33.59.59,0,0,1,.74,0,.45.45,0,0,1,.12.33v.11a.43.43,0,0,1-.49.46Z"/><path class="cls-4" d="M144.9,249.07a.41.41,0,0,1-.3-.1.39.39,0,0,1-.09-.26v-.11a.39.39,0,0,1,.09-.26.5.5,0,0,1,.6,0,.39.39,0,0,1,.09.26v.11a.39.39,0,0,1-.09.26A.41.41,0,0,1,144.9,249.07Zm-.32,1h.64v4.12h-.64Z"/><path class="cls-4" d="M146.58,254.16V250h.64v.66h0a1.25,1.25,0,0,1,.43-.55,1.18,1.18,0,0,1,.74-.21,1.3,1.3,0,0,1,1,.41,1.67,1.67,0,0,1,.37,1.16v2.65h-.64v-2.54q0-1.11-.93-1.11a1.2,1.2,0,0,0-.38.05,1.15,1.15,0,0,0-.32.14.66.66,0,0,0-.23.24.78.78,0,0,0-.08.35v2.87Z"/><path class="cls-4" d="M151.12,254.16V250h.64v.66h0a1.33,1.33,0,0,1,.43-.55,1.2,1.2,0,0,1,.74-.21,1.29,1.29,0,0,1,1,.41,1.67,1.67,0,0,1,.38,1.16v2.65h-.64v-2.54c0-.74-.32-1.11-.94-1.11a1.14,1.14,0,0,0-.37.05,1.22,1.22,0,0,0-.33.14.64.64,0,0,0-.22.24.68.68,0,0,0-.09.35v2.87Z"/><path class="cls-4" d="M157.23,254.26a1.87,1.87,0,0,1-.76-.15,1.61,1.61,0,0,1-.59-.44,2,2,0,0,1-.38-.68,2.72,2.72,0,0,1-.14-.89,2.77,2.77,0,0,1,.14-.89,2,2,0,0,1,.38-.68,1.61,1.61,0,0,1,.59-.44,1.87,1.87,0,0,1,.76-.15,1.83,1.83,0,0,1,.75.15,1.69,1.69,0,0,1,.59.44,2,2,0,0,1,.38.68,2.77,2.77,0,0,1,.14.89,2.72,2.72,0,0,1-.14.89,2,2,0,0,1-.38.68,1.69,1.69,0,0,1-.59.44A1.83,1.83,0,0,1,157.23,254.26Zm0-.57a1.17,1.17,0,0,0,.84-.32,1.29,1.29,0,0,0,.33-1v-.6a1.29,1.29,0,0,0-.33-1,1.28,1.28,0,0,0-1.69,0,1.29,1.29,0,0,0-.33,1v.6a1.29,1.29,0,0,0,.33,1A1.18,1.18,0,0,0,157.23,253.69Z"/><path class="cls-4" d="M159.7,254.16v-.54l2.34-3h-2.27V250h3v.48l-2.39,3.07h2.45v.57Z"/><path class="cls-4" d="M164.35,254.26a.46.46,0,0,1-.37-.13.46.46,0,0,1-.11-.33v-.11a.44.44,0,0,1,.11-.33.46.46,0,0,1,.37-.13.42.42,0,0,1,.49.46v.11a.5.5,0,0,1-.11.33A.49.49,0,0,1,164.35,254.26Z"/><path class="cls-4" d="M167.36,254.26a1.89,1.89,0,0,1-1-.22,2.21,2.21,0,0,1-.67-.59l.46-.37a1.67,1.67,0,0,0,.53.47,1.41,1.41,0,0,0,.69.16,1,1,0,0,0,.64-.17.59.59,0,0,0,.22-.5.61.61,0,0,0-.15-.41,1,1,0,0,0-.57-.23l-.32-.05a2.57,2.57,0,0,1-.53-.13,1.4,1.4,0,0,1-.42-.22.87.87,0,0,1-.28-.35,1.07,1.07,0,0,1-.1-.49,1.16,1.16,0,0,1,.11-.54,1,1,0,0,1,.31-.38,1.47,1.47,0,0,1,.47-.23,2.15,2.15,0,0,1,.58-.07,1.74,1.74,0,0,1,.84.18,1.85,1.85,0,0,1,.6.48l-.42.39a1.38,1.38,0,0,0-.4-.35,1.35,1.35,0,0,0-.67-.16.86.86,0,0,0-.6.18.56.56,0,0,0-.21.46.48.48,0,0,0,.21.44,1.45,1.45,0,0,0,.58.2l.33.05a1.68,1.68,0,0,1,1,.4,1,1,0,0,1,.29.76,1.19,1.19,0,0,1-.41.95A1.72,1.72,0,0,1,167.36,254.26Z"/><path class="cls-4" d="M170,250h.64v.66h0a1.12,1.12,0,0,1,.47-.57,1.34,1.34,0,0,1,.74-.19,1.55,1.55,0,0,1,.69.15,1.61,1.61,0,0,1,.54.43,2.27,2.27,0,0,1,.33.68,3.43,3.43,0,0,1,0,1.8,2.1,2.1,0,0,1-.33.67,1.52,1.52,0,0,1-.54.44,1.55,1.55,0,0,1-.69.15,1.24,1.24,0,0,1-1.21-.76h0v2.26H170Zm1.7,3.65a1.11,1.11,0,0,0,.86-.34,1.28,1.28,0,0,0,.31-.9v-.7a1.28,1.28,0,0,0-.31-.9,1.11,1.11,0,0,0-.86-.34,1.4,1.4,0,0,0-.41.06,1.19,1.19,0,0,0-.34.16.82.82,0,0,0-.23.26.68.68,0,0,0-.08.31v1.55a.86.86,0,0,0,.08.36.82.82,0,0,0,.23.26,1,1,0,0,0,.34.16A1.4,1.4,0,0,0,171.72,253.69Z"/><path class="cls-4" d="M177.66,254.16a.64.64,0,0,1-.52-.19,1,1,0,0,1-.2-.48h0a1.11,1.11,0,0,1-.45.58,1.39,1.39,0,0,1-.75.19,1.45,1.45,0,0,1-1-.34,1.17,1.17,0,0,1-.36-.91,1,1,0,0,1,.43-.89,2.24,2.24,0,0,1,1.33-.32h.82v-.4a.91.91,0,0,0-.24-.68,1.06,1.06,0,0,0-.74-.23,1.14,1.14,0,0,0-.63.17,1.3,1.3,0,0,0-.42.45l-.38-.36a1.46,1.46,0,0,1,.53-.58,1.78,1.78,0,0,1,.93-.23,1.69,1.69,0,0,1,1.17.37,1.27,1.27,0,0,1,.42,1v2.26H178v.57Zm-1.84-.45a1.56,1.56,0,0,0,.44-.05,1.07,1.07,0,0,0,.34-.16.87.87,0,0,0,.23-.24.61.61,0,0,0,.08-.3v-.68h-.85a1.64,1.64,0,0,0-.81.16.54.54,0,0,0-.25.47v.17a.55.55,0,0,0,.22.47A1,1,0,0,0,175.82,253.71Z"/><path class="cls-4" d="M180.47,254.26a1.94,1.94,0,0,1-.78-.15,1.57,1.57,0,0,1-.58-.44,1.8,1.8,0,0,1-.36-.67,3.44,3.44,0,0,1,0-1.8,1.93,1.93,0,0,1,.36-.68,1.66,1.66,0,0,1,.58-.43,1.94,1.94,0,0,1,.78-.15,1.55,1.55,0,0,1,1.54,1l-.54.27a1,1,0,0,0-.36-.5,1.2,1.2,0,0,0-.64-.17,1.33,1.33,0,0,0-.51.09,1,1,0,0,0-.36.26.91.91,0,0,0-.21.39,1.59,1.59,0,0,0-.08.5v.7a1.31,1.31,0,0,0,.3.89,1,1,0,0,0,.86.35,1.17,1.17,0,0,0,1.12-.72l.46.31a1.62,1.62,0,0,1-.6.72A1.76,1.76,0,0,1,180.47,254.26Z"/><path class="cls-4" d="M184.46,254.26a1.89,1.89,0,0,1-.77-.15,1.66,1.66,0,0,1-.58-.44,2,2,0,0,1-.38-.68,2.73,2.73,0,0,1-.13-.89,2.77,2.77,0,0,1,.13-.89,2,2,0,0,1,.38-.68,1.66,1.66,0,0,1,.58-.44,1.89,1.89,0,0,1,.77-.15,1.78,1.78,0,0,1,.74.15,1.56,1.56,0,0,1,.56.42,2,2,0,0,1,.36.63,2.64,2.64,0,0,1,.12.81v.3h-3v.19a1.39,1.39,0,0,0,.09.5,1,1,0,0,0,.24.39,1,1,0,0,0,.38.26,1.21,1.21,0,0,0,.52.1,1.25,1.25,0,0,0,.68-.18,1.17,1.17,0,0,0,.45-.53l.46.33a1.64,1.64,0,0,1-.62.69A2,2,0,0,1,184.46,254.26Zm0-3.79a1.21,1.21,0,0,0-.48.1,1,1,0,0,0-.38.26,1.28,1.28,0,0,0-.24.39,1.35,1.35,0,0,0-.09.5v.05h2.28v-.09a1.29,1.29,0,0,0-.3-.88A1,1,0,0,0,184.46,250.47Z"/><path class="cls-3" d="M189.17,248.24h.64V252h0l.63-.71,1.17-1.25h.78l-1.53,1.63,1.68,2.49h-.78l-1.37-2.1-.61.63v1.47h-.64Z"/><path class="cls-3" d="M194.81,254.26a1.87,1.87,0,0,1-.76-.15,1.61,1.61,0,0,1-.59-.44,2,2,0,0,1-.38-.68,2.72,2.72,0,0,1-.14-.89,2.77,2.77,0,0,1,.14-.89,2,2,0,0,1,.38-.68,1.61,1.61,0,0,1,.59-.44,1.87,1.87,0,0,1,.76-.15,1.79,1.79,0,0,1,.75.15,1.61,1.61,0,0,1,.59.44,1.89,1.89,0,0,1,.39.68,2.77,2.77,0,0,1,.13.89,2.73,2.73,0,0,1-.13.89,1.89,1.89,0,0,1-.39.68,1.61,1.61,0,0,1-.59.44A1.79,1.79,0,0,1,194.81,254.26Zm0-.57a1.18,1.18,0,0,0,.85-.32,1.29,1.29,0,0,0,.32-1v-.6a1.29,1.29,0,0,0-.32-1,1.29,1.29,0,0,0-1.7,0,1.29,1.29,0,0,0-.33,1v.6a1.29,1.29,0,0,0,.33,1A1.18,1.18,0,0,0,194.81,253.69Zm-.74-4.47a.38.38,0,0,1-.3-.1.4.4,0,0,1-.09-.27v-.09a.36.36,0,0,1,.09-.26.5.5,0,0,1,.6,0,.36.36,0,0,1,.1.26v.09a.41.41,0,0,1-.1.27A.38.38,0,0,1,194.07,249.22Zm1.49,0a.38.38,0,0,1-.3-.1.4.4,0,0,1-.09-.27v-.09a.36.36,0,0,1,.09-.26.5.5,0,0,1,.6,0,.36.36,0,0,1,.09.26v.09a.4.4,0,0,1-.09.27A.38.38,0,0,1,195.56,249.22Z"/><path class="cls-3" d="M197.73,254.16V250h.64v.66h0a1.25,1.25,0,0,1,.43-.55,1.18,1.18,0,0,1,.74-.21,1.3,1.3,0,0,1,1,.41,1.67,1.67,0,0,1,.37,1.16v2.65h-.64v-2.54q0-1.11-.93-1.11a1.14,1.14,0,0,0-.37.05,1.22,1.22,0,0,0-.33.14.76.76,0,0,0-.23.24.78.78,0,0,0-.08.35v2.87Z"/><path class="cls-3" d="M202.27,254.16V250h.64v.66h0a1.41,1.41,0,0,1,.43-.55,1.2,1.2,0,0,1,.74-.21,1.33,1.33,0,0,1,1,.41,1.72,1.72,0,0,1,.37,1.16v2.65h-.64v-2.54c0-.74-.31-1.11-.94-1.11a1.14,1.14,0,0,0-.37.05,1.22,1.22,0,0,0-.33.14.64.64,0,0,0-.22.24.68.68,0,0,0-.09.35v2.87Z"/><path class="cls-3" d="M208.37,254.26a1.92,1.92,0,0,1-.77-.15,1.66,1.66,0,0,1-.58-.44,2,2,0,0,1-.38-.68,3,3,0,0,1-.13-.89,3.08,3.08,0,0,1,.13-.89,2,2,0,0,1,.38-.68,1.66,1.66,0,0,1,.58-.44,1.92,1.92,0,0,1,.77-.15,1.75,1.75,0,0,1,.74.15,1.56,1.56,0,0,1,.56.42,1.79,1.79,0,0,1,.36.63,2.64,2.64,0,0,1,.12.81v.3h-3v.19a1.39,1.39,0,0,0,.09.5,1.11,1.11,0,0,0,.24.39,1,1,0,0,0,.38.26,1.27,1.27,0,0,0,.52.1,1.19,1.19,0,0,0,1.14-.71l.45.33a1.64,1.64,0,0,1-.62.69A2,2,0,0,1,208.37,254.26Zm0-3.79a1.21,1.21,0,0,0-.48.1,1,1,0,0,0-.37.26,1.14,1.14,0,0,0-.25.39,1.35,1.35,0,0,0-.09.5v.05h2.29v-.09a1.34,1.34,0,0,0-.3-.88A1.07,1.07,0,0,0,208.37,250.47Z"/><path class="cls-3" d="M211.21,254.16V250h.64v.66h0a1.25,1.25,0,0,1,.43-.55,1.18,1.18,0,0,1,.74-.21,1.32,1.32,0,0,1,1,.41,1.67,1.67,0,0,1,.37,1.16v2.65h-.64v-2.54q0-1.11-.93-1.11a1.2,1.2,0,0,0-.38.05,1.15,1.15,0,0,0-.32.14.66.66,0,0,0-.23.24.78.78,0,0,0-.08.35v2.87Z"/><path class="cls-3" d="M219.27,254.26a2.45,2.45,0,0,1-1.16-.26,2.32,2.32,0,0,1-.81-.72l.49-.41a2.13,2.13,0,0,0,.66.59,1.65,1.65,0,0,0,.85.21,1.31,1.31,0,0,0,.91-.29,1,1,0,0,0,.32-.77.76.76,0,0,0-.24-.61,1.82,1.82,0,0,0-.79-.35l-.46-.1a2.66,2.66,0,0,1-1.17-.54,1.25,1.25,0,0,1-.41-1,1.51,1.51,0,0,1,.14-.65,1.21,1.21,0,0,1,.38-.48,1.77,1.77,0,0,1,.58-.3,3,3,0,0,1,.75-.1,2.44,2.44,0,0,1,1.09.23,2.17,2.17,0,0,1,.76.69l-.5.36a1.89,1.89,0,0,0-.56-.5,1.69,1.69,0,0,0-.82-.18,1.38,1.38,0,0,0-.84.22.8.8,0,0,0-.31.69.72.72,0,0,0,.26.6,1.89,1.89,0,0,0,.79.33l.45.1a2.32,2.32,0,0,1,1.19.56,1.34,1.34,0,0,1,.37,1,1.75,1.75,0,0,1-.13.7,1.4,1.4,0,0,1-.38.52,1.77,1.77,0,0,1-.6.34A2.55,2.55,0,0,1,219.27,254.26Z"/><path class="cls-3" d="M222.61,249.07a.41.41,0,0,1-.3-.1.39.39,0,0,1-.09-.26v-.11a.39.39,0,0,1,.09-.26.5.5,0,0,1,.6,0,.39.39,0,0,1,.09.26v.11a.39.39,0,0,1-.09.26A.41.41,0,0,1,222.61,249.07Zm-.32,1h.64v4.12h-.64Z"/><path class="cls-3" d="M225.84,254.26a1.84,1.84,0,0,1-.76-.15,1.61,1.61,0,0,1-.59-.44,1.86,1.86,0,0,1-.37-.68,2.72,2.72,0,0,1-.14-.89,2.77,2.77,0,0,1,.14-.89,1.86,1.86,0,0,1,.37-.68,1.61,1.61,0,0,1,.59-.44,1.84,1.84,0,0,1,.76-.15,1.75,1.75,0,0,1,.74.15,1.56,1.56,0,0,1,.56.42,1.79,1.79,0,0,1,.36.63,2.64,2.64,0,0,1,.12.81v.3h-3v.19a1.38,1.38,0,0,0,.08.5,1.28,1.28,0,0,0,.24.39,1,1,0,0,0,.38.26,1.27,1.27,0,0,0,.52.1A1.19,1.19,0,0,0,227,253l.45.33a1.64,1.64,0,0,1-.62.69A2,2,0,0,1,225.84,254.26Zm0-3.79a1.21,1.21,0,0,0-.48.1,1,1,0,0,0-.37.26,1.14,1.14,0,0,0-.25.39,1.35,1.35,0,0,0-.08.5v.05h2.28v-.09a1.29,1.29,0,0,0-.3-.88A1.07,1.07,0,0,0,225.84,250.47Z"/><path class="cls-3" d="M70.54,263.86a1.91,1.91,0,0,1-1-.22,2.18,2.18,0,0,1-.66-.59l.45-.37a1.7,1.7,0,0,0,.54.47,1.41,1.41,0,0,0,.69.16,1,1,0,0,0,.63-.17.6.6,0,0,0,.23-.5.57.57,0,0,0-.16-.41,1,1,0,0,0-.56-.23L70.4,262a2.74,2.74,0,0,1-.53-.13,1.53,1.53,0,0,1-.42-.22.85.85,0,0,1-.27-.35,1.07,1.07,0,0,1-.11-.49,1.16,1.16,0,0,1,.12-.54,1,1,0,0,1,.3-.38,1.71,1.71,0,0,1,.47-.23,2.22,2.22,0,0,1,.59-.07,1.93,1.93,0,0,1,.84.17,2,2,0,0,1,.6.49l-.43.39a1.16,1.16,0,0,0-.4-.35,1.22,1.22,0,0,0-.66-.16.91.91,0,0,0-.61.18.58.58,0,0,0-.2.46.49.49,0,0,0,.2.44,1.56,1.56,0,0,0,.59.2l.32.05a1.69,1.69,0,0,1,1,.4,1,1,0,0,1,.29.76,1.16,1.16,0,0,1-.41.94A1.69,1.69,0,0,1,70.54,263.86Z"/><path class="cls-3" d="M73.51,258.67a.4.4,0,0,1-.29-.1.35.35,0,0,1-.1-.26v-.11a.35.35,0,0,1,.1-.26.4.4,0,0,1,.29-.1.41.41,0,0,1,.3.1.35.35,0,0,1,.1.26v.11a.35.35,0,0,1-.1.26A.41.41,0,0,1,73.51,258.67Zm-.32,1h.64v4.13h-.64Z"/><path class="cls-3" d="M76.73,263.86a1.94,1.94,0,0,1-.78-.15,1.57,1.57,0,0,1-.58-.44,2.09,2.09,0,0,1-.36-.68,3,3,0,0,1-.12-.89,3.16,3.16,0,0,1,.12-.9,2.31,2.31,0,0,1,.36-.68,1.66,1.66,0,0,1,.58-.43,1.94,1.94,0,0,1,.78-.15,1.66,1.66,0,0,1,1,.27,1.58,1.58,0,0,1,.55.7l-.53.27a1,1,0,0,0-.37-.5,1.15,1.15,0,0,0-.64-.17,1.28,1.28,0,0,0-.5.09.88.88,0,0,0-.36.26.93.93,0,0,0-.22.39,1.59,1.59,0,0,0-.07.5v.7a1.36,1.36,0,0,0,.29.89,1.07,1.07,0,0,0,.86.35,1.16,1.16,0,0,0,1.12-.72l.46.31a1.59,1.59,0,0,1-.59.71A1.72,1.72,0,0,1,76.73,263.86Z"/><path class="cls-3" d="M79.22,257.84h.64v2.46h0a1.33,1.33,0,0,1,.43-.55,1.18,1.18,0,0,1,.74-.21,1.3,1.3,0,0,1,1,.41,1.67,1.67,0,0,1,.37,1.16v2.65H81.8v-2.54q0-1.11-.93-1.11a1.2,1.2,0,0,0-.38.05,1.15,1.15,0,0,0-.32.14.66.66,0,0,0-.23.24.78.78,0,0,0-.08.35v2.87h-.64Z"/><path class="cls-3" d="M85.45,263.76v-.56h.78v-4.46h-.78v-.56h2.24v.56h-.78v4.46h.78v.56Z"/><path class="cls-3" d="M88.85,257.84h.64v2.46h0a1.33,1.33,0,0,1,.43-.55,1.2,1.2,0,0,1,.74-.21,1.29,1.29,0,0,1,1,.41,1.67,1.67,0,0,1,.37,1.16v2.65h-.64v-2.54q0-1.11-.93-1.11a1.14,1.14,0,0,0-.37.05,1.22,1.22,0,0,0-.33.14.76.76,0,0,0-.23.24.78.78,0,0,0-.08.35v2.87h-.64Z"/><path class="cls-3" d="M93.39,263.76v-4.13H94v.76h0a1.3,1.3,0,0,1,.4-.52,1.23,1.23,0,0,1,.8-.24h.24v.64h-.37a1.42,1.42,0,0,0-.81.2.58.58,0,0,0-.3.49v2.8Z"/><path class="cls-3" d="M97.85,263.86a1.84,1.84,0,0,1-.76-.15,1.69,1.69,0,0,1-.59-.44,2.12,2.12,0,0,1-.37-.68,2.72,2.72,0,0,1-.14-.89,2.77,2.77,0,0,1,.14-.89,2,2,0,0,1,.37-.68,1.69,1.69,0,0,1,.59-.44,1.84,1.84,0,0,1,.76-.15,1.79,1.79,0,0,1,.75.15,1.62,1.62,0,0,1,.55.42,1.79,1.79,0,0,1,.36.63,2.64,2.64,0,0,1,.13.81v.3h-3V262a1.38,1.38,0,0,0,.08.5,1.28,1.28,0,0,0,.24.39,1.12,1.12,0,0,0,.38.26,1.27,1.27,0,0,0,.52.1,1.19,1.19,0,0,0,1.14-.71l.45.33a1.64,1.64,0,0,1-.62.69A1.92,1.92,0,0,1,97.85,263.86Zm0-3.79a1.25,1.25,0,0,0-.48.1,1.05,1.05,0,0,0-.37.25,1.1,1.1,0,0,0-.24.4,1.31,1.31,0,0,0-.09.5v.05H99v-.09a1.29,1.29,0,0,0-.3-.88A1,1,0,0,0,97.85,260.07Z"/><path class="cls-3" d="M106.25,263.76h-4.06v-.61l3.22-4.38h-3.06v-.59h3.79v.61l-3.23,4.38h3.34Z"/><path class="cls-3" d="M109.72,263.1h0a1.33,1.33,0,0,1-.16.28.95.95,0,0,1-.55.42,1.53,1.53,0,0,1-.45.06,1.33,1.33,0,0,1-1-.41,1.69,1.69,0,0,1-.37-1.17v-2.65h.64v2.55c0,.74.31,1.11.94,1.11a1.65,1.65,0,0,0,.38-.05,1.09,1.09,0,0,0,.31-.14.78.78,0,0,0,.23-.25.72.72,0,0,0,.08-.35v-2.87h.64v4.13h-.64Z"/><path class="cls-3" d="M113,263.86a1.89,1.89,0,0,1-1-.22,2.21,2.21,0,0,1-.67-.59l.46-.37a1.78,1.78,0,0,0,.53.47,1.41,1.41,0,0,0,.69.16,1,1,0,0,0,.64-.17.59.59,0,0,0,.22-.5.61.61,0,0,0-.15-.41,1,1,0,0,0-.57-.23l-.32-.05a2.57,2.57,0,0,1-.53-.13,1.4,1.4,0,0,1-.42-.22,1,1,0,0,1-.28-.35,1.07,1.07,0,0,1-.1-.49,1.3,1.3,0,0,1,.11-.54,1,1,0,0,1,.31-.38,1.58,1.58,0,0,1,.47-.23,2.15,2.15,0,0,1,.58-.07,1.87,1.87,0,0,1,.84.17,2,2,0,0,1,.6.49l-.42.39a1.27,1.27,0,0,0-1.07-.51.88.88,0,0,0-.6.18.56.56,0,0,0-.21.46.48.48,0,0,0,.21.44,1.45,1.45,0,0,0,.59.2l.32.05a1.68,1.68,0,0,1,1,.4,1,1,0,0,1,.29.76,1.16,1.16,0,0,1-.41.94A1.67,1.67,0,0,1,113,263.86Z"/><path class="cls-3" d="M118.62,263.76a.64.64,0,0,1-.52-.19.94.94,0,0,1-.19-.48h0a1.06,1.06,0,0,1-.45.58,1.39,1.39,0,0,1-.75.19,1.45,1.45,0,0,1-1-.34,1.17,1.17,0,0,1-.36-.91,1,1,0,0,1,.43-.9,2.33,2.33,0,0,1,1.33-.31h.82V261a.91.91,0,0,0-.24-.68,1.06,1.06,0,0,0-.74-.23,1.14,1.14,0,0,0-.63.17,1.3,1.3,0,0,0-.42.45l-.38-.36a1.46,1.46,0,0,1,.53-.58,1.78,1.78,0,0,1,.93-.23,1.69,1.69,0,0,1,1.17.37,1.27,1.27,0,0,1,.42,1v2.26H119v.57Zm-1.84-.45a1.52,1.52,0,0,0,.44-.05,1.07,1.07,0,0,0,.34-.16.87.87,0,0,0,.23-.24.61.61,0,0,0,.08-.3v-.68H117a1.64,1.64,0,0,0-.81.16.54.54,0,0,0-.25.47v.16a.58.58,0,0,0,.22.48A1,1,0,0,0,116.78,263.31Z"/><path class="cls-3" d="M119.89,263.76v-4.13h.64v.67h0a2.14,2.14,0,0,1,.17-.3,1,1,0,0,1,.22-.24,1,1,0,0,1,.31-.16,1.27,1.27,0,0,1,.41-.06,1.51,1.51,0,0,1,.76.19,1.19,1.19,0,0,1,.51.64h0a1.37,1.37,0,0,1,.42-.58,1.29,1.29,0,0,1,.84-.25,1.26,1.26,0,0,1,1,.41,1.71,1.71,0,0,1,.35,1.16v2.65h-.64v-2.54a1.35,1.35,0,0,0-.21-.83.81.81,0,0,0-.69-.28,1,1,0,0,0-.36.05,1,1,0,0,0-.31.14.73.73,0,0,0-.22.24.78.78,0,0,0-.08.35v2.87h-.64v-2.54a1.35,1.35,0,0,0-.21-.83.8.8,0,0,0-.68-.28,1.08,1.08,0,0,0-.36.05,1.15,1.15,0,0,0-.32.14.73.73,0,0,0-.22.24.78.78,0,0,0-.08.35v2.87Z"/><path class="cls-3" d="M126.87,263.76v-4.13h.64v.67h0a1.43,1.43,0,0,1,.16-.3,1.26,1.26,0,0,1,.22-.24,1.14,1.14,0,0,1,.31-.16,1.33,1.33,0,0,1,.42-.06,1.49,1.49,0,0,1,.75.19,1.19,1.19,0,0,1,.51.64h0a1.22,1.22,0,0,1,.42-.58,1.44,1.44,0,0,1,1.82.16,1.71,1.71,0,0,1,.36,1.16v2.65h-.64v-2.54a1.29,1.29,0,0,0-.22-.83.8.8,0,0,0-.69-.28,1.12,1.12,0,0,0-.36.05,1.09,1.09,0,0,0-.31.14.61.61,0,0,0-.21.24.67.67,0,0,0-.08.35v2.87h-.64v-2.54a1.35,1.35,0,0,0-.22-.83.78.78,0,0,0-.67-.28,1.14,1.14,0,0,0-.37.05,1,1,0,0,0-.31.14.64.64,0,0,0-.22.24.68.68,0,0,0-.09.35v2.87Z"/><path class="cls-3" d="M135.41,263.86a1.84,1.84,0,0,1-.76-.15,1.61,1.61,0,0,1-.59-.44,1.94,1.94,0,0,1-.37-.68,2.72,2.72,0,0,1-.14-.89,2.77,2.77,0,0,1,.14-.89,1.86,1.86,0,0,1,.37-.68,1.61,1.61,0,0,1,.59-.44,1.84,1.84,0,0,1,.76-.15,1.72,1.72,0,0,1,.74.15,1.56,1.56,0,0,1,.56.42,1.79,1.79,0,0,1,.36.63,2.64,2.64,0,0,1,.12.81v.3h-3V262a1.38,1.38,0,0,0,.08.5,1.28,1.28,0,0,0,.24.39,1,1,0,0,0,.38.26,1.27,1.27,0,0,0,.52.1,1.19,1.19,0,0,0,1.14-.71l.45.33a1.64,1.64,0,0,1-.62.69A1.92,1.92,0,0,1,135.41,263.86Zm0-3.79a1.21,1.21,0,0,0-.48.1,1.05,1.05,0,0,0-.37.25,1.28,1.28,0,0,0-.25.4,1.54,1.54,0,0,0-.08.5v.05h2.28v-.09a1.29,1.29,0,0,0-.3-.88A1,1,0,0,0,135.41,260.07Z"/><path class="cls-3" d="M138.25,263.76v-4.13h.64v.67h0a1.33,1.33,0,0,1,.43-.55,1.18,1.18,0,0,1,.74-.21,1.3,1.3,0,0,1,1,.41,1.67,1.67,0,0,1,.37,1.16v2.65h-.64v-2.54q0-1.11-.93-1.11a1.14,1.14,0,0,0-.37.05,1.22,1.22,0,0,0-.33.14.76.76,0,0,0-.23.24.78.78,0,0,0-.08.35v2.87Z"/><path class="cls-3" d="M143,260.2h-.67v-.57H143v-.83a1,1,0,0,1,.22-.69.84.84,0,0,1,.68-.27h.63v.57h-.89v1.22h.89v.57h-.89v3.56H143Z"/><path class="cls-3" d="M148.39,263.76a.62.62,0,0,1-.52-.19,1,1,0,0,1-.2-.48h0a1.09,1.09,0,0,1-.44.58,1.39,1.39,0,0,1-.75.19,1.43,1.43,0,0,1-1-.34,1.17,1.17,0,0,1-.36-.91,1,1,0,0,1,.43-.9,2.33,2.33,0,0,1,1.33-.31h.81V261a.91.91,0,0,0-.24-.68,1,1,0,0,0-.73-.23,1.14,1.14,0,0,0-.63.17,1.3,1.3,0,0,0-.42.45l-.38-.36a1.46,1.46,0,0,1,.53-.58,1.78,1.78,0,0,1,.93-.23,1.69,1.69,0,0,1,1.17.37,1.26,1.26,0,0,1,.41,1v2.26h.48v.57Zm-1.84-.45a1.56,1.56,0,0,0,.44-.05,1.19,1.19,0,0,0,.34-.16.71.71,0,0,0,.22-.24.52.52,0,0,0,.08-.3v-.68h-.84a1.64,1.64,0,0,0-.81.16.52.52,0,0,0-.25.47v.16a.55.55,0,0,0,.22.48A1,1,0,0,0,146.55,263.31Z"/><path class="cls-3" d="M150.9,263.86a1.91,1.91,0,0,1-1-.22,2.18,2.18,0,0,1-.66-.59l.45-.37a1.7,1.7,0,0,0,.54.47,1.38,1.38,0,0,0,.69.16,1,1,0,0,0,.63-.17.6.6,0,0,0,.23-.5.57.57,0,0,0-.16-.41,1,1,0,0,0-.56-.23l-.33-.05a2.74,2.74,0,0,1-.53-.13,1.4,1.4,0,0,1-.42-.22,1,1,0,0,1-.28-.35,1.22,1.22,0,0,1-.1-.49,1.16,1.16,0,0,1,.12-.54,1,1,0,0,1,.3-.38,1.58,1.58,0,0,1,.47-.23,2.22,2.22,0,0,1,.59-.07,1.93,1.93,0,0,1,.84.17,2,2,0,0,1,.6.49l-.43.39a1.16,1.16,0,0,0-.4-.35,1.22,1.22,0,0,0-.66-.16.91.91,0,0,0-.61.18.58.58,0,0,0-.2.46.49.49,0,0,0,.2.44,1.56,1.56,0,0,0,.59.2l.32.05a1.69,1.69,0,0,1,1,.4,1,1,0,0,1,.29.76,1.16,1.16,0,0,1-.41.94A1.69,1.69,0,0,1,150.9,263.86Z"/><path class="cls-3" d="M154.75,263.86a1.89,1.89,0,0,1-1-.22,2.21,2.21,0,0,1-.67-.59l.46-.37a1.78,1.78,0,0,0,.53.47,1.41,1.41,0,0,0,.69.16,1,1,0,0,0,.64-.17.6.6,0,0,0,.23-.5.62.62,0,0,0-.16-.41A1,1,0,0,0,155,262l-.33-.05a2.74,2.74,0,0,1-.53-.13,1.4,1.4,0,0,1-.42-.22,1,1,0,0,1-.28-.35,1.07,1.07,0,0,1-.1-.49,1.3,1.3,0,0,1,.11-.54,1.15,1.15,0,0,1,.31-.38,1.58,1.58,0,0,1,.47-.23,2.15,2.15,0,0,1,.58-.07,2,2,0,0,1,.85.17,2.11,2.11,0,0,1,.59.49l-.42.39a1.27,1.27,0,0,0-1.07-.51.9.9,0,0,0-.6.18.55.55,0,0,0-.2.46.47.47,0,0,0,.2.44,1.5,1.5,0,0,0,.59.2l.32.05a1.65,1.65,0,0,1,1,.4,1,1,0,0,1,.29.76,1.13,1.13,0,0,1-.41.94A1.67,1.67,0,0,1,154.75,263.86Z"/><path class="cls-3" d="M160,263.1h0a1.91,1.91,0,0,1-.15.28,1.79,1.79,0,0,1-.23.25,1.28,1.28,0,0,1-.33.17,1.53,1.53,0,0,1-.45.06,1.32,1.32,0,0,1-1-.41,1.7,1.7,0,0,1-.38-1.17v-2.65H158v2.55c0,.74.31,1.11.94,1.11a1.58,1.58,0,0,0,.38-.05,1.15,1.15,0,0,0,.32-.14.88.88,0,0,0,.22-.25.63.63,0,0,0,.08-.35v-2.87h.64v4.13H160Z"/><path class="cls-3" d="M162,263.76v-4.13h.64v.67h0a1.31,1.31,0,0,1,.42-.55,1.2,1.2,0,0,1,.74-.21,1.33,1.33,0,0,1,1,.41,1.72,1.72,0,0,1,.37,1.16v2.65h-.64v-2.54c0-.74-.31-1.11-.94-1.11a1.14,1.14,0,0,0-.37.05,1,1,0,0,0-.32.14.59.59,0,0,0-.23.24.68.68,0,0,0-.09.35v2.87Z"/><path class="cls-3" d="M170,264.22a1,1,0,0,1-.5.94,3,3,0,0,1-1.5.3,2.79,2.79,0,0,1-1.39-.26.84.84,0,0,1-.43-.76.73.73,0,0,1,.18-.52,1.13,1.13,0,0,1,.48-.28v-.08a.6.6,0,0,1-.37-.58.59.59,0,0,1,.2-.47,1.21,1.21,0,0,1,.51-.24v0a1.32,1.32,0,0,1-.57-.5,1.37,1.37,0,0,1-.2-.76,1.4,1.4,0,0,1,.11-.58,1.21,1.21,0,0,1,.31-.45,1.44,1.44,0,0,1,.49-.3,1.83,1.83,0,0,1,.64-.1,1.78,1.78,0,0,1,.78.16v-.07a.68.68,0,0,1,.11-.4.42.42,0,0,1,.37-.16h.62v.56H169v.27a1.31,1.31,0,0,1,.35.46,1.48,1.48,0,0,1,.13.61,1.35,1.35,0,0,1-.12.57,1.33,1.33,0,0,1-.31.46,1.59,1.59,0,0,1-.49.29,1.91,1.91,0,0,1-.64.1,1.75,1.75,0,0,1-.4,0,1.46,1.46,0,0,0-.38.17.34.34,0,0,0-.17.3.25.25,0,0,0,.18.25,1.44,1.44,0,0,0,.45.06h.88a1.75,1.75,0,0,1,1.12.29A1,1,0,0,1,170,264.22Zm-.6,0a.5.5,0,0,0-.19-.4,1.12,1.12,0,0,0-.67-.15h-1.37a.59.59,0,0,0-.39.56.62.62,0,0,0,.21.47,1,1,0,0,0,.69.19h.59a1.71,1.71,0,0,0,.83-.17A.54.54,0,0,0,169.38,264.27ZM168,261.88a1,1,0,0,0,.64-.19.76.76,0,0,0,.24-.61v-.23a.73.73,0,0,0-.24-.6,1,1,0,0,0-.64-.2,1,1,0,0,0-.65.2.73.73,0,0,0-.24.6v.23a.76.76,0,0,0,.24.61A1,1,0,0,0,168,261.88Z"/><path class="cls-3" d="M172.61,263.76v-4.13h.64v.67h0a1.33,1.33,0,0,1,.43-.55,1.18,1.18,0,0,1,.74-.21,1.3,1.3,0,0,1,1,.41,1.67,1.67,0,0,1,.37,1.16v2.65h-.64v-2.54q0-1.11-.93-1.11a1.14,1.14,0,0,0-.37.05,1.22,1.22,0,0,0-.33.14.76.76,0,0,0-.23.24.78.78,0,0,0-.08.35v2.87Z"/><path class="cls-3" d="M178.71,263.86a1.91,1.91,0,0,1-.76-.15,1.57,1.57,0,0,1-.58-.44,2,2,0,0,1-.38-.68,2.48,2.48,0,0,1-.14-.89,2.52,2.52,0,0,1,.14-.89,1.88,1.88,0,0,1,.38-.68,1.57,1.57,0,0,1,.58-.44,1.91,1.91,0,0,1,.76-.15,1.87,1.87,0,0,1,.76.15,1.69,1.69,0,0,1,.59.44,2,2,0,0,1,.38.68,2.77,2.77,0,0,1,.14.89,2.72,2.72,0,0,1-.14.89,2.14,2.14,0,0,1-.38.68,1.69,1.69,0,0,1-.59.44A1.87,1.87,0,0,1,178.71,263.86Zm0-.57a1.18,1.18,0,0,0,.85-.32,1.29,1.29,0,0,0,.33-1v-.6a1.29,1.29,0,0,0-.33-1,1.14,1.14,0,0,0-.85-.32,1.12,1.12,0,0,0-.84.32,1.29,1.29,0,0,0-.33,1v.6a1.29,1.29,0,0,0,.33,1A1.15,1.15,0,0,0,178.71,263.29Z"/><path class="cls-3" d="M183.17,263.86a1.94,1.94,0,0,1-.78-.15,1.57,1.57,0,0,1-.58-.44,2.09,2.09,0,0,1-.36-.68,3,3,0,0,1-.12-.89,3.16,3.16,0,0,1,.12-.9,2.31,2.31,0,0,1,.36-.68,1.66,1.66,0,0,1,.58-.43,1.94,1.94,0,0,1,.78-.15,1.66,1.66,0,0,1,1,.27,1.58,1.58,0,0,1,.55.7l-.53.27a1,1,0,0,0-.37-.5,1.15,1.15,0,0,0-.64-.17,1.28,1.28,0,0,0-.5.09,1,1,0,0,0-.37.26,1,1,0,0,0-.21.39,1.59,1.59,0,0,0-.07.5v.7a1.31,1.31,0,0,0,.29.89,1.06,1.06,0,0,0,.86.35,1.16,1.16,0,0,0,1.12-.72l.46.31a1.59,1.59,0,0,1-.59.71A1.74,1.74,0,0,1,183.17,263.86Z"/><path class="cls-3" d="M185.66,257.84h.64v2.46h0a1.25,1.25,0,0,1,.43-.55,1.18,1.18,0,0,1,.74-.21,1.32,1.32,0,0,1,1,.41,1.67,1.67,0,0,1,.37,1.16v2.65h-.64v-2.54c0-.74-.31-1.11-.94-1.11a1.18,1.18,0,0,0-.37.05,1,1,0,0,0-.32.14.66.66,0,0,0-.23.24.67.67,0,0,0-.08.35v2.87h-.64Z"/><path class="cls-3" d="M190.2,263.76v-4.13h.64v.67h0a2.14,2.14,0,0,1,.17-.3,1,1,0,0,1,.22-.24,1,1,0,0,1,.31-.16,1.27,1.27,0,0,1,.41-.06,1.51,1.51,0,0,1,.76.19,1.19,1.19,0,0,1,.51.64h0a1.37,1.37,0,0,1,.42-.58,1.29,1.29,0,0,1,.84-.25,1.26,1.26,0,0,1,1,.41,1.71,1.71,0,0,1,.35,1.16v2.65h-.64v-2.54a1.35,1.35,0,0,0-.21-.83.81.81,0,0,0-.69-.28,1,1,0,0,0-.36.05,1,1,0,0,0-.31.14.73.73,0,0,0-.22.24.78.78,0,0,0-.08.35v2.87h-.64v-2.54a1.35,1.35,0,0,0-.21-.83.8.8,0,0,0-.68-.28,1.08,1.08,0,0,0-.36.05,1.15,1.15,0,0,0-.32.14.61.61,0,0,0-.21.24.68.68,0,0,0-.09.35v2.87Z"/><path class="cls-3" d="M200.18,263.76a.6.6,0,0,1-.51-.19,1,1,0,0,1-.2-.48h0a1.06,1.06,0,0,1-.45.58,1.34,1.34,0,0,1-.74.19,1.41,1.41,0,0,1-1-.34,1.17,1.17,0,0,1-.36-.91,1.06,1.06,0,0,1,.42-.9,2.36,2.36,0,0,1,1.34-.31h.81V261a.91.91,0,0,0-.24-.68,1,1,0,0,0-.73-.23,1.14,1.14,0,0,0-.63.17,1.3,1.3,0,0,0-.42.45l-.39-.36a1.49,1.49,0,0,1,.54-.58,1.73,1.73,0,0,1,.93-.23,1.69,1.69,0,0,1,1.17.37,1.3,1.3,0,0,1,.41,1v2.26h.47v.57Zm-1.84-.45a1.52,1.52,0,0,0,.44-.05,1.13,1.13,0,0,0,.35-.16.83.83,0,0,0,.22-.24.52.52,0,0,0,.08-.3v-.68h-.85a1.63,1.63,0,0,0-.8.16.52.52,0,0,0-.25.47v.16a.55.55,0,0,0,.22.48A.94.94,0,0,0,198.34,263.31Z"/><path class="cls-3" d="M202.14,263.76a.62.62,0,0,1-.68-.66v-5.26h.64v5.35h.6v.57Z"/><path class="cls-3" d="M208.52,263.76a.64.64,0,0,1-.52-.19.94.94,0,0,1-.19-.48h0a1.06,1.06,0,0,1-.45.58,1.38,1.38,0,0,1-.74.19,1.46,1.46,0,0,1-1-.34,1.17,1.17,0,0,1-.36-.91,1,1,0,0,1,.43-.9,2.33,2.33,0,0,1,1.33-.31h.82V261a.91.91,0,0,0-.24-.68,1.06,1.06,0,0,0-.74-.23,1.14,1.14,0,0,0-.63.17,1.4,1.4,0,0,0-.42.45l-.38-.36a1.46,1.46,0,0,1,.53-.58,1.78,1.78,0,0,1,.93-.23,1.69,1.69,0,0,1,1.17.37,1.27,1.27,0,0,1,.42,1v2.26h.47v.57Zm-1.84-.45a1.52,1.52,0,0,0,.44-.05,1.07,1.07,0,0,0,.34-.16.87.87,0,0,0,.23-.24.61.61,0,0,0,.08-.3v-.68h-.85a1.57,1.57,0,0,0-.8.16.52.52,0,0,0-.26.47v.16a.58.58,0,0,0,.22.48A1,1,0,0,0,206.68,263.31Z"/><path class="cls-3" d="M209.79,263.76v-4.13h.64v.67h0a1.33,1.33,0,0,1,.43-.55,1.2,1.2,0,0,1,.74-.21,1.29,1.29,0,0,1,1,.41,1.67,1.67,0,0,1,.38,1.16v2.65h-.64v-2.54c0-.74-.32-1.11-.94-1.11a1.14,1.14,0,0,0-.37.05,1.22,1.22,0,0,0-.33.14.64.64,0,0,0-.22.24.68.68,0,0,0-.09.35v2.87Z"/><path class="cls-3" d="M215.58,263.86a1.91,1.91,0,0,1-1-.22,2.21,2.21,0,0,1-.67-.59l.46-.37a1.7,1.7,0,0,0,.54.47,1.34,1.34,0,0,0,.68.16,1,1,0,0,0,.64-.17.6.6,0,0,0,.23-.5.57.57,0,0,0-.16-.41,1,1,0,0,0-.56-.23l-.33-.05a2.74,2.74,0,0,1-.53-.13,1.4,1.4,0,0,1-.42-.22,1,1,0,0,1-.28-.35,1.07,1.07,0,0,1-.1-.49,1.3,1.3,0,0,1,.11-.54,1.15,1.15,0,0,1,.31-.38,1.58,1.58,0,0,1,.47-.23,2.2,2.2,0,0,1,.58-.07,2,2,0,0,1,.85.17,2.11,2.11,0,0,1,.59.49l-.42.39a1.16,1.16,0,0,0-.4-.35,1.24,1.24,0,0,0-.66-.16.91.91,0,0,0-.61.18.58.58,0,0,0-.2.46.49.49,0,0,0,.2.44,1.5,1.5,0,0,0,.59.2l.32.05a1.72,1.72,0,0,1,1,.4,1,1,0,0,1,.28.76,1.15,1.15,0,0,1-.4.94A1.71,1.71,0,0,1,215.58,263.86Z"/><path class="cls-3" d="M219.78,263.86a1.87,1.87,0,0,1-.76-.15,1.69,1.69,0,0,1-.59-.44,2.12,2.12,0,0,1-.37-.68,2.73,2.73,0,0,1-.13-.89,2.77,2.77,0,0,1,.13-.89,2,2,0,0,1,.37-.68,1.69,1.69,0,0,1,.59-.44,1.87,1.87,0,0,1,.76-.15,1.79,1.79,0,0,1,.75.15,1.65,1.65,0,0,1,.56.42,1.93,1.93,0,0,1,.35.63,2.37,2.37,0,0,1,.13.81v.3h-3V262a1.64,1.64,0,0,0,.08.5,1.28,1.28,0,0,0,.24.39,1.07,1.07,0,0,0,.39.26,1.19,1.19,0,0,0,.51.1,1.17,1.17,0,0,0,1.14-.71l.46.33a1.74,1.74,0,0,1-.63.69A1.92,1.92,0,0,1,219.78,263.86Zm0-3.79a1.29,1.29,0,0,0-.48.1,1.15,1.15,0,0,0-.37.25,1.47,1.47,0,0,0-.24.4,1.31,1.31,0,0,0-.09.5v.05h2.28v-.09a1.29,1.29,0,0,0-.3-.88A1,1,0,0,0,219.78,260.07Z"/><path class="cls-3" d="M222.62,257.84h.64v2.46h0a1.41,1.41,0,0,1,.43-.55,1.2,1.2,0,0,1,.74-.21,1.29,1.29,0,0,1,1,.41,1.67,1.67,0,0,1,.38,1.16v2.65h-.64v-2.54c0-.74-.32-1.11-.94-1.11a1.14,1.14,0,0,0-.37.05,1.22,1.22,0,0,0-.33.14.64.64,0,0,0-.22.24.68.68,0,0,0-.09.35v2.87h-.64Z"/><path class="cls-3" d="M228.72,263.86a1.92,1.92,0,0,1-.77-.15,1.66,1.66,0,0,1-.58-.44,2.14,2.14,0,0,1-.38-.68,3,3,0,0,1-.13-.89,3.08,3.08,0,0,1,.13-.89,2,2,0,0,1,.38-.68,1.66,1.66,0,0,1,.58-.44,1.92,1.92,0,0,1,.77-.15,1.75,1.75,0,0,1,.74.15,1.56,1.56,0,0,1,.56.42,1.79,1.79,0,0,1,.36.63,2.64,2.64,0,0,1,.12.81v.3h-3V262a1.39,1.39,0,0,0,.09.5,1.11,1.11,0,0,0,.24.39,1,1,0,0,0,.38.26,1.24,1.24,0,0,0,.52.1,1.25,1.25,0,0,0,.68-.18,1.17,1.17,0,0,0,.45-.53l.46.33a1.64,1.64,0,0,1-.62.69A2,2,0,0,1,228.72,263.86Zm0-3.79a1.21,1.21,0,0,0-.48.1,1.05,1.05,0,0,0-.37.25,1.28,1.28,0,0,0-.25.4,1.31,1.31,0,0,0-.09.5v.05h2.28v-.09a1.29,1.29,0,0,0-.3-.88A1,1,0,0,0,228.72,260.07Z"/><path class="cls-3" d="M231.56,263.76v-4.13h.64v.67h0a1.25,1.25,0,0,1,.43-.55,1.18,1.18,0,0,1,.74-.21,1.32,1.32,0,0,1,1,.41,1.67,1.67,0,0,1,.37,1.16v2.65h-.64v-2.54q0-1.11-.93-1.11a1.2,1.2,0,0,0-.38.05,1.15,1.15,0,0,0-.32.14.66.66,0,0,0-.23.24.78.78,0,0,0-.08.35v2.87Z"/><path class="cls-3" d="M236.51,263.86a.46.46,0,0,1-.37-.13.47.47,0,0,1-.12-.34v-.1a.45.45,0,0,1,.12-.33.59.59,0,0,1,.74,0,.45.45,0,0,1,.12.33v.1a.47.47,0,0,1-.12.34A.46.46,0,0,1,236.51,263.86Z"/><path class="cls-5" d="M244.3,284.58V141c0-.24-.27-23.68-23.68-23.68H84.56c-.24,0-23.68.27-23.68,23.68V284.45"/></g></svg>