<svg xmlns="http://www.w3.org/2000/svg" xmlns:xlink="http://www.w3.org/1999/xlink" viewBox="0 0 305.62 305.62"><defs><style>.cls-1,.cls-2,.cls-3{fill:none;}.cls-2{stroke:#fff;stroke-width:1.25px;}.cls-2,.cls-3{stroke-miterlimit:10;}.cls-3{stroke:#000;stroke-width:0.25px;}.cls-4{clip-path:url(#clip-path);}.cls-5{fill:#e2001a;}.cls-6{fill:#2699d1;}.cls-7{fill:#1a171b;}.cls-8{fill:#39b197;}.cls-9{fill:#36b095;}</style><clipPath id="clip-path"><rect class="cls-1" x="6.27" y="1.14" width="292.96" height="275.52"/></clipPath></defs><title>feedback_politikplanung_front</title><g id="Ebene_2" data-name="Ebene 2"><path class="cls-2" d="M284.62,290.62v15m0-290.62V0M21,290.62v15M21,15V0M290.62,284.62h15M15,284.62H0M290.62,21h15M15,21H0"/><path class="cls-3" d="M284.62,290.62v15m0-290.62V0M21,290.62v15M21,15V0M290.62,284.62h15M15,284.62H0M290.62,21h15M15,21H0"/></g><g id="Ebene_1" data-name="Ebene 1"><g class="cls-4"><path class="cls-5" d="M152.8,240.57a4.45,4.45,0,0,0-.46,8.87c1.91.2,2.61,1.33,2.36,3.75,0,.25,0,.49,0,.73a7,7,0,1,0,7-7,6,6,0,0,0-.73,0c-2.43.25-3.55-.46-3.75-2.36a4.43,4.43,0,0,0-4.42-4m8.9,20.49a7.14,7.14,0,0,1-7.14-7.14,6.23,6.23,0,0,1,0-.74c.24-2.38-.41-3.44-2.27-3.63a4.55,4.55,0,1,1,5-5c.2,1.85,1.25,2.51,3.64,2.26.25,0,.5,0,.74,0a7.14,7.14,0,1,1,0,14.28"/><path class="cls-5" d="M154,242.73a3.5,3.5,0,0,0-.36,7c1.52.16,2.08,1,1.88,3a5.44,5.44,0,0,0,0,.57,5.55,5.55,0,1,0,5.55-5.55,3.86,3.86,0,0,0-.58,0c-1.92.19-2.82-.37-3-1.88a3.48,3.48,0,0,0-3.48-3.14m7,16.18a5.66,5.66,0,0,1-5.66-5.65c0-.19,0-.39,0-.59.2-1.87-.32-2.7-1.78-2.85a3.61,3.61,0,1,1,4-4c.15,1.46,1,2,2.86,1.78l.59,0a5.65,5.65,0,1,1,0,11.3"/><path class="cls-5" d="M155.21,244.87A2.56,2.56,0,0,0,155,250c1.12.11,1.53.77,1.39,2.2a3,3,0,0,0,0,.42,4.06,4.06,0,1,0,4.06-4.06l-.42,0c-1.42.15-2.08-.27-2.2-1.39a2.55,2.55,0,0,0-2.54-2.3m5.16,11.89a4.16,4.16,0,0,1-4.16-4.16,3.1,3.1,0,0,1,0-.43c.14-1.37-.23-2-1.3-2.09a2.66,2.66,0,1,1,2.93-2.92c.11,1.06.71,1.44,2.08,1.3a3.11,3.11,0,0,1,.43,0,4.17,4.17,0,1,1,0,8.33"/><path class="cls-5" d="M156.36,250.26c.64.1.88.53.79,1.41a2.44,2.44,0,0,0,0,.27,2.57,2.57,0,1,0,2.57-2.58l-.27,0a1.57,1.57,0,0,1-1.06-.17.9.9,0,0,1-.35-.63h0l0-.1a1.61,1.61,0,0,0-3.21.16,1.59,1.59,0,0,0,1.45,1.59l.12,0Zm3.35,4.35a2.68,2.68,0,0,1-2.68-2.67,2.46,2.46,0,0,1,0-.28c.11-1.07-.33-1.26-.82-1.31h-.1a1.72,1.72,0,1,1,2-2h0l0,.1a.89.89,0,0,0,.32.66,1.43,1.43,0,0,0,1,.15h.28a2.68,2.68,0,1,1,0,5.35"/><path class="cls-6" d="M162.28,240.38a8.35,8.35,0,0,0-8.27,9.17c.3,2.86-.53,4.18-2.77,4.41a5.26,5.26,0,1,0,5.76,5.77c.23-2.24,1.56-3.07,4.41-2.78a8.46,8.46,0,0,0,.87.05,8.31,8.31,0,1,0,0-16.62m-10.51,24.18a5.36,5.36,0,0,1-.55-10.7c2.2-.23,3-1.48,2.68-4.3a8.57,8.57,0,0,1,0-.87,8.42,8.42,0,1,1,8.42,8.41,8.64,8.64,0,0,1-.88,0c-2.82-.29-4.06.48-4.3,2.68a5.34,5.34,0,0,1-5.33,4.82"/><path class="cls-6" d="M162,241.42a7.59,7.59,0,0,0-7.59,7.59,7.09,7.09,0,0,0,0,.79c.27,2.61-.49,3.82-2.54,4a4.8,4.8,0,1,0,5.26,5.27c.21-2.05,1.42-2.82,4-2.54.26,0,.53,0,.79,0a7.59,7.59,0,0,0,0-15.18m-9.61,22.1a4.91,4.91,0,0,1-.5-9.79c2-.21,2.72-1.35,2.45-3.92a7.26,7.26,0,0,1,0-.8,7.7,7.7,0,1,1,7.7,7.69,7.26,7.26,0,0,1-.8,0c-2.58-.26-3.72.44-3.93,2.45a4.89,4.89,0,0,1-4.88,4.41"/><path class="cls-6" d="M161.63,242.46a6.87,6.87,0,0,0-6.86,6.87c0,.23,0,.47,0,.71.25,2.37-.44,3.47-2.3,3.67a4.34,4.34,0,1,0,4.76,4.76c.19-1.86,1.29-2.56,3.66-2.31a5.74,5.74,0,0,0,.71,0,6.87,6.87,0,1,0,0-13.74m-8.69,20a4.45,4.45,0,0,1-.46-8.87c1.82-.19,2.46-1.22,2.22-3.55a5.79,5.79,0,0,1,0-.72,7,7,0,1,1,7,7c-.23,0-.48,0-.72,0-2.33-.24-3.36.4-3.55,2.21a4.42,4.42,0,0,1-4.42,4"/><path class="cls-6" d="M161.31,243.5a6.16,6.16,0,0,0-6.15,6.15,4.68,4.68,0,0,0,0,.64c.22,2.13-.4,3.11-2.07,3.29a3.89,3.89,0,1,0,4.26,4.26c.17-1.68,1.15-2.3,3.29-2.07l.63,0a6.15,6.15,0,0,0,0-12.3m-7.79,17.93a4,4,0,0,1-.41-8c1.62-.17,2.2-1.09,2-3.17,0-.22,0-.44,0-.65a6.26,6.26,0,1,1,6.25,6.26c-.21,0-.43,0-.65,0-2.08-.21-3,.36-3.17,2a4,4,0,0,1-4,3.58"/><path class="cls-6" d="M161,244.54a5.44,5.44,0,0,0-5.43,5.43,5.12,5.12,0,0,0,0,.56c.2,1.89-.35,2.76-1.83,2.92a3.43,3.43,0,1,0,3.75,3.76c.16-1.48,1-2,2.92-1.84l.56,0a5.43,5.43,0,0,0,0-10.86m-6.88,15.85a3.53,3.53,0,0,1-.36-7c1.42-.15,1.93-1,1.74-2.8a5.44,5.44,0,0,1,0-.57,5.54,5.54,0,1,1,5,5.51c-1.84-.19-2.65.31-2.8,1.74a3.51,3.51,0,0,1-3.51,3.17"/><path class="cls-6" d="M160.67,245.58a4.72,4.72,0,0,0-4.71,4.71,4,4,0,0,0,0,.49c.17,1.64-.31,2.4-1.6,2.54a3,3,0,1,0,3.25,3.26c.14-1.3.9-1.77,2.54-1.6l.49,0a4.71,4.71,0,1,0,0-9.42m-6,13.77a3.08,3.08,0,0,1-.31-6.14c1.23-.13,1.67-.83,1.5-2.42a4.18,4.18,0,0,1,0-.5,4.82,4.82,0,1,1,4.81,4.82l-.5,0c-1.59-.16-2.29.27-2.42,1.51a3.07,3.07,0,0,1-3.06,2.76"/><path class="cls-6" d="M160.35,246.62a4,4,0,0,0-4,4c0,.14,0,.28,0,.42.15,1.4-.26,2.05-1.36,2.16a2.51,2.51,0,1,0,2.75,2.76c.12-1.11.77-1.51,2.17-1.37l.41,0a4,4,0,1,0,0-8m-5.08,11.69a2.62,2.62,0,0,1-.26-5.22c1-.11,1.41-.71,1.27-2.05a3.1,3.1,0,0,1,0-.43,4.1,4.1,0,1,1,4.09,4.1l-.42,0c-1.35-.14-1.94.23-2.05,1.27a2.62,2.62,0,0,1-2.61,2.35"/><path class="cls-6" d="M155.75,253.05h-.1a2,2,0,1,0,2.24,2.24v-.11h0c.13-.83.67-1.14,1.78-1H160a3.27,3.27,0,1,0-3.27-3.27c0,.12,0,.23,0,.34.11,1.12-.19,1.65-1,1.78m.11,4.22a2.16,2.16,0,0,1-.32-4.29h.09c.86-.09,1.16-.58,1-1.68,0-.11,0-.23,0-.35a3.38,3.38,0,1,1,3,3.36c-1.1-.11-1.58.19-1.67,1v.11h0a2.13,2.13,0,0,1-2.12,1.84"/><path class="cls-6" d="M156.38,252.92h0l-.1,0a1.59,1.59,0,0,0-1.44,1.58,1.6,1.6,0,0,0,1.6,1.6,1.59,1.59,0,0,0,1.58-1.44v-.11h0c.11-.64.54-.88,1.41-.79h.26a2.55,2.55,0,1,0-2.55-2.54c0,.08,0,.17,0,.26.09.87-.14,1.29-.79,1.4m.06,3.31a1.71,1.71,0,0,1-1.7-1.71,1.68,1.68,0,0,1,1.43-1.67h0l.1,0c.49-.05.92-.24.81-1.3a2.45,2.45,0,0,1,0-.27,2.66,2.66,0,1,1,2.66,2.65h-.28c-1.05-.12-1.24.32-1.29.8v.11h0a1.69,1.69,0,0,1-1.67,1.43"/><path class="cls-6" d="M157,252.79h0l-.11,0a1.14,1.14,0,0,0,.11,2.27,1.12,1.12,0,0,0,1.13-1l0-.11a.56.56,0,0,1,.26-.42.92.92,0,0,1,.62-.14h.34a1.83,1.83,0,1,0-1.83-1.82s0,.09,0,.13v.06l0,.16,0,0a1,1,0,0,1-.13.63.63.63,0,0,1-.43.25m0,2.4a1.25,1.25,0,0,1-1.24-1.25,1.23,1.23,0,0,1,1-1.22h0l.11,0a.65.65,0,0,0,.46-.22,1,1,0,0,0,.1-.7v-.16h0a.11.11,0,0,1,0,0,1.94,1.94,0,1,1,1.94,1.93h0l-.15,0a1.07,1.07,0,0,0-.7.1.59.59,0,0,0-.22.47l0,.11h0a1.23,1.23,0,0,1-1.22,1"/><path class="cls-7" d="M174.14,248.46a1.14,1.14,0,0,0,.23.73.79.79,0,0,0,1.21,0,1.18,1.18,0,0,0,.23-.75v-.06a1.31,1.31,0,0,0-.11-.52.94.94,0,0,0-.29-.36.78.78,0,0,0-1,.16,1.18,1.18,0,0,0-.23.75Zm-.27-.08a1.37,1.37,0,0,1,.14-.64,1,1,0,0,1,.39-.44,1,1,0,0,1,.57-.16,1,1,0,0,1,.8.34,1.31,1.31,0,0,1,.31.92v.06a1.51,1.51,0,0,1-.14.65,1,1,0,0,1-.39.44,1.11,1.11,0,0,1-.57.16,1.05,1.05,0,0,1-.81-.35,1.36,1.36,0,0,1-.3-.92Z"/><path class="cls-7" d="M178.36,248.4a1.26,1.26,0,0,0-.19-.75.64.64,0,0,0-.54-.28.72.72,0,0,0-.44.13.69.69,0,0,0-.27.35V249a.63.63,0,0,0,.28.32.75.75,0,0,0,.43.11.63.63,0,0,0,.54-.27,1.39,1.39,0,0,0,.19-.8m.28,0a1.52,1.52,0,0,1-.26.92.83.83,0,0,1-.69.34.91.91,0,0,1-.77-.36v1.26h-.28v-3.43h.26v.35a.9.9,0,0,1,.78-.4.85.85,0,0,1,.7.34,1.61,1.61,0,0,1,.25.94Z"/><path class="cls-7" d="M180.15,247.37a.7.7,0,0,0-.52.23,1,1,0,0,0-.25.61h1.48v0a.93.93,0,0,0-.2-.59.64.64,0,0,0-.51-.22m0,2.34a1.11,1.11,0,0,1-.57-.16,1,1,0,0,1-.39-.43,1.33,1.33,0,0,1-.15-.63v-.1a1.5,1.5,0,0,1,.14-.64,1.07,1.07,0,0,1,.39-.45.92.92,0,0,1,.53-.16.91.91,0,0,1,.72.3,1.25,1.25,0,0,1,.26.85v.15h-1.76v.05a1,1,0,0,0,.24.7.76.76,0,0,0,.61.29.79.79,0,0,0,.38-.09.73.73,0,0,0,.31-.25l.17.13a1,1,0,0,1-.88.44"/><path class="cls-7" d="M181.93,247.18v.43a.93.93,0,0,1,.81-.47.74.74,0,0,1,.59.22,1,1,0,0,1,.2.67v1.63h-.27V248a.79.79,0,0,0-.14-.49.58.58,0,0,0-.45-.17.73.73,0,0,0-.45.16.94.94,0,0,0-.29.43v1.7h-.27v-2.48Z"/><path class="cls-7" d="M174.27,252.81v.4a.89.89,0,0,1,.8-.44.69.69,0,0,1,.74.48.89.89,0,0,1,.36-.36,1,1,0,0,1,.49-.12q.79,0,.81.87v1.65h-.27v-1.63a.78.78,0,0,0-.15-.5.59.59,0,0,0-.46-.16.81.81,0,0,0-.5.19.69.69,0,0,0-.22.46v1.64h-.28v-1.65a.67.67,0,0,0-.15-.48A.61.61,0,0,0,175,253a.72.72,0,0,0-.45.15.92.92,0,0,0-.27.44v1.7H174v-2.48Z"/><path class="cls-7" d="M178.3,254.09a1.14,1.14,0,0,0,.23.73.78.78,0,0,0,1.2,0,1.13,1.13,0,0,0,.24-.75V254a1.27,1.27,0,0,0-.11-.52.82.82,0,0,0-.3-.36.71.71,0,0,0-.43-.13.72.72,0,0,0-.6.29,1.18,1.18,0,0,0-.23.75ZM178,254a1.5,1.5,0,0,1,.14-.64,1.17,1.17,0,0,1,.4-.45,1.08,1.08,0,0,1,.57-.15,1,1,0,0,1,.8.34,1.31,1.31,0,0,1,.31.92v.06a1.55,1.55,0,0,1-.14.65,1,1,0,0,1-.39.44,1.12,1.12,0,0,1-.58.16,1,1,0,0,1-.8-.35,1.36,1.36,0,0,1-.31-.92Z"/><path class="cls-7" d="M182.52,254a1.28,1.28,0,0,0-.19-.76.6.6,0,0,0-.53-.27.8.8,0,0,0-.45.13.92.92,0,0,0-.28.38v1.12a.74.74,0,0,0,.73.47.61.61,0,0,0,.53-.27,1.37,1.37,0,0,0,.19-.8m.28.05a1.52,1.52,0,0,1-.26.92.83.83,0,0,1-.69.34.89.89,0,0,1-.78-.39v.34h-.26v-3.52h.27v1.4a.88.88,0,0,1,.78-.4.83.83,0,0,1,.69.33,1.53,1.53,0,0,1,.26.93Z"/><path class="cls-7" d="M183.71,255.29h-.28v-2.48h.28Zm-.32-3.19a.17.17,0,0,1,.05-.14.19.19,0,0,1,.13-.05.2.2,0,0,1,.14.05.17.17,0,0,1,0,.14.17.17,0,0,1,0,.13.2.2,0,0,1-.14.05.19.19,0,0,1-.13-.05.17.17,0,0,1-.05-.13"/></g><rect class="cls-7" x="184.49" y="251.77" width="0.27" height="3.52"/><g class="cls-4"><path class="cls-7" d="M185.81,255.29h-.27v-2.48h.27Zm-.32-3.19a.22.22,0,0,1,0-.14.2.2,0,0,1,.14-.05.17.17,0,0,1,.19.19.21.21,0,0,1-.05.13.22.22,0,0,1-.14.05.2.2,0,0,1-.14-.05.21.21,0,0,1,0-.13"/><path class="cls-7" d="M187,252.18v.63h.52V253H187v1.65a.52.52,0,0,0,.08.31.31.31,0,0,0,.25.1l.22,0v.23a1.06,1.06,0,0,1-.29,0,.48.48,0,0,1-.41-.17.74.74,0,0,1-.13-.48V253h-.46v-.23h.46v-.63Z"/><path class="cls-7" d="M188.85,254.9l.72-2.09h.3l-1.06,2.9-.05.13a.67.67,0,0,1-.63.45l-.21,0V256l.15,0a.53.53,0,0,0,.32-.1.65.65,0,0,0,.21-.35l.13-.33-.94-2.46h.3Z"/><path class="cls-7" d="M174.22,260.92v-2.25h-.41v-.23h.41v-.3a.8.8,0,0,1,.19-.58.7.7,0,0,1,.54-.21,1.35,1.35,0,0,1,.29,0l0,.23a1,1,0,0,0-.25,0,.45.45,0,0,0-.35.14.57.57,0,0,0-.13.4v.31h.59v.23h-.59v2.25Z"/><path class="cls-7" d="M175.69,259.72a1.14,1.14,0,0,0,.23.73.75.75,0,0,0,.61.28.72.72,0,0,0,.6-.28,1.18,1.18,0,0,0,.23-.75v-.06a1.27,1.27,0,0,0-.11-.52.8.8,0,0,0-.29-.36.74.74,0,0,0-.44-.13.7.7,0,0,0-.59.29,1.13,1.13,0,0,0-.24.75Zm-.27-.08a1.5,1.5,0,0,1,.14-.64,1.07,1.07,0,0,1,.39-.45,1.11,1.11,0,0,1,.57-.16,1.05,1.05,0,0,1,.81.35,1.36,1.36,0,0,1,.3.92v.06a1.41,1.41,0,0,1-.14.65,1,1,0,0,1-.39.44,1.08,1.08,0,0,1-.57.16,1,1,0,0,1-.8-.35,1.31,1.31,0,0,1-.31-.92Z"/><path class="cls-7" d="M179.34,258.67h-.18a.72.72,0,0,0-.44.14.88.88,0,0,0-.25.42v1.7h-.27v-2.48h.27v.39a.74.74,0,0,1,.7-.44.42.42,0,0,1,.18,0Z"/><path class="cls-7" d="M181.37,260.61a.89.89,0,0,1-.79.36.75.75,0,0,1-.6-.24,1,1,0,0,1-.21-.68v-1.61H180V260c0,.47.19.71.57.71a.71.71,0,0,0,.76-.5v-1.79h.27v2.48h-.26Z"/><path class="cls-7" d="M182.6,258.44v.4a.92.92,0,0,1,.35-.33.86.86,0,0,1,.45-.11.7.7,0,0,1,.75.48.93.93,0,0,1,.35-.36,1.06,1.06,0,0,1,.5-.12q.8,0,.81.87v1.65h-.28v-1.63a.78.78,0,0,0-.14-.5.61.61,0,0,0-.46-.16.79.79,0,0,0-.5.19.75.75,0,0,0-.23.46v1.64h-.27v-1.65a.67.67,0,0,0-.15-.48.61.61,0,0,0-.45-.16.68.68,0,0,0-.45.15.92.92,0,0,0-.27.44v1.7h-.28v-2.48Z"/><path class="cls-5" d="M157.59,251.25l0,.15a.15.15,0,0,1,0,.07s0,.09,0,.13a1.83,1.83,0,1,0,1.83-1.82H159c-.53,0-.8-.15-.87-.57h0v-.1a1.14,1.14,0,1,0-1.25,1.24l.1,0c.42.08.6.35.57.88Zm1.79,2.29a1.94,1.94,0,0,1-1.94-1.94s0,0,0,0h0v-.16c.08-.71-.17-.88-.56-.92l-.11,0a1.25,1.25,0,1,1,1.46-1.45h0l0,.1c0,.4.21.64.92.57l.15,0h0a1.94,1.94,0,0,1,0,3.87"/><path class="cls-5" d="M155.71,250.12c.84.13,1.15.68,1,1.8,0,.12,0,.23,0,.35a3.32,3.32,0,1,0,3-3.3c-1.13.12-1.68-.2-1.8-1h0v-.11a2.07,2.07,0,0,0-2.06-1.88,2.08,2.08,0,0,0-.21,4.15h.11Zm4.33,5.57a3.42,3.42,0,0,1-3.42-3.42c0-.12,0-.24,0-.36.11-1.11-.19-1.61-1.06-1.7h-.11a2.18,2.18,0,0,1-1.85-2.16,2.19,2.19,0,0,1,4.35-.33h0v.11c.09.86.58,1.17,1.7,1.05a3.42,3.42,0,1,1,.35,6.83"/><path class="cls-5" d="M154.6,243.8a3,3,0,0,0-.3,6c1.31.14,1.8.92,1.63,2.59a4.32,4.32,0,0,0,0,.5,4.81,4.81,0,1,0,4.31-4.78c-1.68.18-2.45-.31-2.59-1.63a3,3,0,0,0-3-2.72m6.1,14a4.91,4.91,0,0,1-4.9-4.91,4.35,4.35,0,0,1,0-.51c.17-1.62-.28-2.34-1.54-2.47a3.14,3.14,0,1,1,3.44-3.44c.14,1.26.85,1.7,2.48,1.54l.5,0a4.91,4.91,0,1,1,0,9.82"/><path class="cls-5" d="M153.4,241.65a4,4,0,0,0-.41,7.93c1.71.18,2.35,1.18,2.12,3.36,0,.22,0,.44,0,.65a6.29,6.29,0,1,0,6.29-6.29,4.87,4.87,0,0,0-.66,0c-2.17.22-3.18-.41-3.36-2.12a4,4,0,0,0-3.95-3.57m8,18.34a6.41,6.41,0,0,1-6.4-6.4q0-.33,0-.66c.23-2.13-.36-3.07-2-3.25a4.08,4.08,0,1,1,4.48-4.47c.17,1.65,1.11,2.24,3.24,2,.22,0,.45,0,.67,0a6.4,6.4,0,0,1,0,12.79"/><path class="cls-5" d="M159.37,249.83a1.76,1.76,0,1,0,1.76,1.76,1.76,1.76,0,0,0-1.76-1.76m0,3.79a2,2,0,1,1,2-2,2,2,0,0,1-2,2"/></g><path class="cls-7" d="M93.69,251.24l-.25-5.38h.44l.2,4.79h0l2.2-4.79h.55l.29,4.79h0l2.14-4.79h.47l-2.47,5.38h-.52l-.29-4.84h0l-2.24,4.84Z"/><path class="cls-7" d="M101.07,251.33a1.35,1.35,0,0,1-1.06-.4,1.72,1.72,0,0,1-.38-1.21,3.12,3.12,0,0,1,.15-1,2.63,2.63,0,0,1,.41-.8,1.82,1.82,0,0,1,.63-.54,1.61,1.61,0,0,1,.82-.21,1.53,1.53,0,0,1,.49.07,1.06,1.06,0,0,1,.4.19.94.94,0,0,1,.27.32.89.89,0,0,1,.1.44,1,1,0,0,1-.14.5,1.12,1.12,0,0,1-.47.4,3.24,3.24,0,0,1-.86.27,8.12,8.12,0,0,1-1.34.11.88.88,0,0,0,0,.17,1,1,0,0,0,0,.16,1.22,1.22,0,0,0,.26.84,1,1,0,0,0,.78.28,1.44,1.44,0,0,0,.74-.2,2,2,0,0,0,.57-.56l.29.23a2.06,2.06,0,0,1-.76.7A1.89,1.89,0,0,1,101.07,251.33Zm.53-3.75a1.23,1.23,0,0,0-.92.39,2,2,0,0,0-.5,1l0,.19a10.25,10.25,0,0,0,1.18-.1,2.85,2.85,0,0,0,.71-.19.72.72,0,0,0,.34-.29.74.74,0,0,0,.09-.36.54.54,0,0,0-.24-.49A1.12,1.12,0,0,0,101.6,247.58Z"/><path class="cls-7" d="M103.54,251.24l.78-4h.44l-.18.83h0a3.28,3.28,0,0,1,.2-.31,1.66,1.66,0,0,1,.26-.27,1,1,0,0,1,.34-.18,1.52,1.52,0,0,1,.45-.07h.24l-.08.43h-.26a1.35,1.35,0,0,0-.5.09,1.53,1.53,0,0,0-.4.26,1.78,1.78,0,0,0-.28.38,2.51,2.51,0,0,0-.16.46l-.46,2.33Z"/><path class="cls-7" d="M109.22,251.24a.37.37,0,0,1-.29-.1.32.32,0,0,1-.09-.24,1.68,1.68,0,0,1,0-.2l.07-.32h0a2,2,0,0,1-.55.71,1.24,1.24,0,0,1-.77.24,1.13,1.13,0,0,1-.52-.11,1,1,0,0,1-.38-.3,1.19,1.19,0,0,1-.24-.46,2,2,0,0,1-.09-.62,3.93,3.93,0,0,1,.12-1,2.94,2.94,0,0,1,.36-.85,2.05,2.05,0,0,1,.61-.6,1.48,1.48,0,0,1,.84-.24,1.28,1.28,0,0,1,.71.2.93.93,0,0,1,.4.56h0l.49-2.42h.42l-1.06,5.32h.6l-.08.38Zm-1.54-.29a1,1,0,0,0,.44-.09,1.25,1.25,0,0,0,.39-.27,1.62,1.62,0,0,0,.36-.45,1.64,1.64,0,0,0,.22-.61l.19-.92a.92.92,0,0,0,0-.37.7.7,0,0,0-.15-.34.8.8,0,0,0-.32-.23,1.19,1.19,0,0,0-.49-.09,1.22,1.22,0,0,0-.92.37,2,2,0,0,0-.49,1l-.09.47,0,.21c0,.08,0,.16,0,.24a1.86,1.86,0,0,0,0,.42,1.19,1.19,0,0,0,.16.34.8.8,0,0,0,.29.22A.82.82,0,0,0,107.68,251Z"/><path class="cls-7" d="M112.29,251.33a1.39,1.39,0,0,1-1.07-.4,1.77,1.77,0,0,1-.37-1.21,3.12,3.12,0,0,1,.15-1,2.63,2.63,0,0,1,.41-.8,1.82,1.82,0,0,1,.63-.54,1.61,1.61,0,0,1,.82-.21,1.53,1.53,0,0,1,.49.07,1.06,1.06,0,0,1,.4.19.94.94,0,0,1,.27.32.89.89,0,0,1,.1.44,1,1,0,0,1-.14.5,1.12,1.12,0,0,1-.47.4,3.24,3.24,0,0,1-.86.27,8.12,8.12,0,0,1-1.34.11.88.88,0,0,0,0,.17,1,1,0,0,0,0,.16,1.22,1.22,0,0,0,.26.84,1,1,0,0,0,.78.28,1.44,1.44,0,0,0,.74-.2,2,2,0,0,0,.57-.56l.29.23a2.06,2.06,0,0,1-.76.7A1.89,1.89,0,0,1,112.29,251.33Zm.53-3.75a1.23,1.23,0,0,0-.92.39,2,2,0,0,0-.5,1l0,.19a10.25,10.25,0,0,0,1.18-.1,2.85,2.85,0,0,0,.71-.19.72.72,0,0,0,.34-.29.74.74,0,0,0,.09-.36.54.54,0,0,0-.24-.49A1.12,1.12,0,0,0,112.82,247.58Z"/><path class="cls-7" d="M114.77,251.24l.78-4H116l-.16.79h0a1.8,1.8,0,0,1,.52-.66,1.26,1.26,0,0,1,.76-.22,1,1,0,0,1,.76.28,1.14,1.14,0,0,1,.26.79c0,.07,0,.16,0,.25a2.34,2.34,0,0,1,0,.26l-.42,2.08h.6l-.08.38h-.57a.47.47,0,0,1-.28-.08.33.33,0,0,1-.09-.25v-.1l0-.11.38-1.92c0-.09,0-.17,0-.25s0-.14,0-.19c0-.51-.24-.76-.72-.76a1.12,1.12,0,0,0-.44.09,1.19,1.19,0,0,0-.41.29,1.88,1.88,0,0,0-.3.44,2.16,2.16,0,0,0-.21.55l-.45,2.29Z"/><path class="cls-7" d="M122.58,251.33a2.41,2.41,0,0,1-1.09-.23,1.66,1.66,0,0,1-.7-.69l.35-.25a1.41,1.41,0,0,0,.58.58,1.75,1.75,0,0,0,.87.19,1.81,1.81,0,0,0,.65-.1,1.38,1.38,0,0,0,.46-.28,1.13,1.13,0,0,0,.27-.41,1.39,1.39,0,0,0,.09-.5.84.84,0,0,0-.21-.6,1.2,1.2,0,0,0-.65-.32l-.58-.12a1.22,1.22,0,0,1-1.1-1.27,1.54,1.54,0,0,1,.11-.61,1.39,1.39,0,0,1,.34-.49,1.56,1.56,0,0,1,.56-.34,2.26,2.26,0,0,1,.77-.12,2.19,2.19,0,0,1,1,.21,1.73,1.73,0,0,1,.64.59l-.33.26a1.6,1.6,0,0,0-.54-.5,1.81,1.81,0,0,0-.83-.16,1.36,1.36,0,0,0-1,.31,1.05,1.05,0,0,0-.34.82.89.89,0,0,0,.2.6,1.33,1.33,0,0,0,.64.32l.57.12a1.55,1.55,0,0,1,.85.45,1.2,1.2,0,0,1,.29.83,1.86,1.86,0,0,1-.13.67,1.42,1.42,0,0,1-.36.54,1.84,1.84,0,0,1-.6.37A2.39,2.39,0,0,1,122.58,251.33Z"/><path class="cls-7" d="M125.91,251.24a.39.39,0,0,1-.3-.1.36.36,0,0,1-.1-.26v-.06a.37.37,0,0,1,0-.09l.69-3.44h.43l-.72,3.57h.6l-.07.38Zm.76-5a.27.27,0,0,1-.2-.06.24.24,0,0,1-.06-.15V246a.75.75,0,0,0,0-.11.29.29,0,0,1,.33-.25.25.25,0,0,1,.21.07.2.2,0,0,1,0,.15v.05s0,.06,0,.12A.29.29,0,0,1,126.67,246.22Z"/><path class="cls-7" d="M129,251.33a1.37,1.37,0,0,1-1.06-.4,1.72,1.72,0,0,1-.38-1.21,3.12,3.12,0,0,1,.15-1,2.63,2.63,0,0,1,.41-.8,1.82,1.82,0,0,1,.63-.54,1.64,1.64,0,0,1,.82-.21,1.53,1.53,0,0,1,.49.07,1,1,0,0,1,.4.19.94.94,0,0,1,.27.32.89.89,0,0,1,.1.44,1,1,0,0,1-.14.5,1.15,1.15,0,0,1-.46.4,3.45,3.45,0,0,1-.87.27,8.12,8.12,0,0,1-1.34.11.88.88,0,0,0,0,.17v.16a1.22,1.22,0,0,0,.25.84,1,1,0,0,0,.78.28,1.5,1.5,0,0,0,.75-.2,2,2,0,0,0,.56-.56l.29.23a2,2,0,0,1-.76.7A1.86,1.86,0,0,1,129,251.33Zm.53-3.75a1.2,1.2,0,0,0-.91.39,2,2,0,0,0-.51,1l0,.19a10.25,10.25,0,0,0,1.18-.1,2.85,2.85,0,0,0,.71-.19.72.72,0,0,0,.34-.29.74.74,0,0,0,.09-.36.56.56,0,0,0-.23-.49A1.18,1.18,0,0,0,129.5,247.58Z"/><path class="cls-7" d="M134.85,251.33a1.37,1.37,0,0,1-1.06-.4,1.72,1.72,0,0,1-.38-1.21,3.12,3.12,0,0,1,.15-1,2.63,2.63,0,0,1,.41-.8,1.82,1.82,0,0,1,.63-.54,1.64,1.64,0,0,1,.82-.21,1.53,1.53,0,0,1,.49.07,1.06,1.06,0,0,1,.4.19.94.94,0,0,1,.27.32.89.89,0,0,1,.1.44,1,1,0,0,1-.14.5,1.12,1.12,0,0,1-.47.4,3.24,3.24,0,0,1-.86.27,8.12,8.12,0,0,1-1.34.11.88.88,0,0,0,0,.17c0,.07,0,.12,0,.16a1.22,1.22,0,0,0,.26.84,1,1,0,0,0,.78.28,1.44,1.44,0,0,0,.74-.2,1.9,1.9,0,0,0,.57-.56l.29.23a2,2,0,0,1-.76.7A1.86,1.86,0,0,1,134.85,251.33Zm.53-3.75a1.23,1.23,0,0,0-.92.39,2.06,2.06,0,0,0-.5,1l0,.19a10.25,10.25,0,0,0,1.18-.1,2.85,2.85,0,0,0,.71-.19.72.72,0,0,0,.34-.29.74.74,0,0,0,.09-.36.56.56,0,0,0-.23-.49A1.18,1.18,0,0,0,135.38,247.58Z"/><path class="cls-7" d="M137.8,251.24a.37.37,0,0,1-.29-.1.33.33,0,0,1-.1-.26v-.06a.37.37,0,0,1,0-.09l.69-3.44h.42l-.71,3.57h.6l-.08.38Zm.77-5a.29.29,0,0,1-.21-.06.24.24,0,0,1-.06-.15s0,0,0-.06a.89.89,0,0,1,0-.11.29.29,0,0,1,.33-.25c.1,0,.17,0,.2.07a.2.2,0,0,1,.06.15v.05s0,.06,0,.12A.29.29,0,0,1,138.57,246.22Z"/><path class="cls-7" d="M139.35,251.24l.79-4h.43l-.16.79h0a1.7,1.7,0,0,1,.52-.66,1.24,1.24,0,0,1,.76-.22,1,1,0,0,1,.76.28,1.14,1.14,0,0,1,.26.79,2.5,2.5,0,0,1,0,.25,1.17,1.17,0,0,1,0,.26l-.41,2.08h.6l-.08.38h-.57a.47.47,0,0,1-.28-.08.34.34,0,0,1-.1-.25s0-.07,0-.1a.52.52,0,0,1,0-.11l.39-1.92a2.42,2.42,0,0,0,0-.25,1.42,1.42,0,0,0,0-.19c0-.51-.23-.76-.71-.76a1.12,1.12,0,0,0-.85.38,1.9,1.9,0,0,0-.31.44,2.13,2.13,0,0,0-.2.55l-.45,2.29Z"/><path class="cls-7" d="M83.68,255.51l-1,5h-.45l1-5H81.49l.07-.4h4l-.08.4Z"/><path class="cls-7" d="M86.42,260.58a1.38,1.38,0,0,1-1.07-.41A1.71,1.71,0,0,1,85,259a3.12,3.12,0,0,1,.14-1,2.87,2.87,0,0,1,.41-.8,2.19,2.19,0,0,1,.63-.55,1.76,1.76,0,0,1,.83-.2,2,2,0,0,1,.49.06,1.2,1.2,0,0,1,.39.2.76.76,0,0,1,.27.32.89.89,0,0,1,.1.44.9.9,0,0,1-.14.5,1.16,1.16,0,0,1-.46.4,3.45,3.45,0,0,1-.87.27,9.26,9.26,0,0,1-1.34.11.79.79,0,0,0,0,.17v.16a1.18,1.18,0,0,0,.26.84,1,1,0,0,0,.77.28,1.37,1.37,0,0,0,.75-.21,1.83,1.83,0,0,0,.56-.55l.29.23a2.07,2.07,0,0,1-.76.7A1.85,1.85,0,0,1,86.42,260.58Zm.52-3.75a1.24,1.24,0,0,0-.91.38,2.06,2.06,0,0,0-.51,1l0,.19a10,10,0,0,0,1.18-.1,2.35,2.35,0,0,0,.71-.2.74.74,0,0,0,.35-.28.87.87,0,0,0,.08-.37.52.52,0,0,0-.23-.48A1.18,1.18,0,0,0,86.94,256.83Z"/><path class="cls-7" d="M89.36,260.49a.45.45,0,0,1-.3-.1.36.36,0,0,1-.09-.26v-.07a.25.25,0,0,1,0-.08l.7-3.44h.42l-.72,3.57H90l-.07.38Zm.76-5a.24.24,0,0,1-.2-.07.2.2,0,0,1-.06-.15.11.11,0,0,1,0-.05.68.68,0,0,1,0-.12.31.31,0,0,1,.34-.24.28.28,0,0,1,.2.06.24.24,0,0,1,.06.15.13.13,0,0,1,0,.06.28.28,0,0,1,0,.11A.29.29,0,0,1,90.12,255.47Z"/><path class="cls-7" d="M91.39,260.49a.41.41,0,0,1-.3-.1.36.36,0,0,1-.1-.26v-.06a.51.51,0,0,1,0-.09l1-5.2h.42l-1.06,5.33H92l-.07.38Z"/><path class="cls-7" d="M97.79,260.49a.4.4,0,0,1-.29-.1.32.32,0,0,1-.1-.25.81.81,0,0,1,0-.19l.06-.32h0a2.1,2.1,0,0,1-.56.71,1.31,1.31,0,0,1-1.28.13,1.14,1.14,0,0,1-.39-.3,1.48,1.48,0,0,1-.24-.47,1.92,1.92,0,0,1-.08-.61,3.87,3.87,0,0,1,.12-.95,2.6,2.6,0,0,1,.36-.85,2.05,2.05,0,0,1,.6-.61,1.55,1.55,0,0,1,.84-.23,1.23,1.23,0,0,1,.71.19.92.92,0,0,1,.4.56h0l.49-2.42h.42l-1.06,5.33h.6l-.07.38Zm-1.55-.29a1.1,1.1,0,0,0,.45-.09,1.33,1.33,0,0,0,.38-.27,2.34,2.34,0,0,0,.37-.45,1.92,1.92,0,0,0,.22-.61l.18-.92a1,1,0,0,0,0-.38,1,1,0,0,0-.15-.33.87.87,0,0,0-.32-.24,1.46,1.46,0,0,0-.5-.08,1.23,1.23,0,0,0-.91.36,2,2,0,0,0-.49,1l-.09.46,0,.22a1.77,1.77,0,0,0,0,.24,1.42,1.42,0,0,0,.05.42.82.82,0,0,0,.16.34.76.76,0,0,0,.28.22A1,1,0,0,0,96.24,260.2Z"/><path class="cls-7" d="M100.86,260.58a1.37,1.37,0,0,1-1.06-.41,1.71,1.71,0,0,1-.38-1.2,3.12,3.12,0,0,1,.15-1,2.63,2.63,0,0,1,.41-.8,2,2,0,0,1,.63-.55,1.74,1.74,0,0,1,.82-.2,1.88,1.88,0,0,1,.49.06,1.16,1.16,0,0,1,.4.2.94.94,0,0,1,.27.32.89.89,0,0,1,.1.44,1,1,0,0,1-.14.5,1.23,1.23,0,0,1-.46.4,3.45,3.45,0,0,1-.87.27,9.39,9.39,0,0,1-1.34.11.79.79,0,0,0,0,.17c0,.06,0,.12,0,.16a1.22,1.22,0,0,0,.26.84,1,1,0,0,0,.78.28,1.39,1.39,0,0,0,.75-.21,2,2,0,0,0,.56-.55l.29.23a2.07,2.07,0,0,1-.76.7A1.86,1.86,0,0,1,100.86,260.58Zm.53-3.75a1.22,1.22,0,0,0-.91.38,2.06,2.06,0,0,0-.51,1l0,.19a10,10,0,0,0,1.18-.1,2.44,2.44,0,0,0,.71-.2.7.7,0,0,0,.34-.28.75.75,0,0,0,.09-.37A.54.54,0,0,0,102,257,1.18,1.18,0,0,0,101.39,256.83Z"/><path class="cls-7" d="M103.33,260.49l.79-3.95h.43l-.18.83h0a2.2,2.2,0,0,1,.21-.32,1.24,1.24,0,0,1,.25-.26,1,1,0,0,1,.34-.18,1.25,1.25,0,0,1,.45-.07h.25l-.09.42h-.25a1.36,1.36,0,0,0-.51.1,1.16,1.16,0,0,0-.39.26,1.37,1.37,0,0,0-.29.38,1.9,1.9,0,0,0-.15.46l-.47,2.33Z"/><path class="cls-7" d="M111.37,260.49l-.27-1.68h-2.22l-.87,1.68h-.48l2.85-5.38H111l.85,5.38Zm-.76-4.94h0l-1.49,2.86h2Z"/><path class="cls-7" d="M113.88,256.54l-.49,2.46a2,2,0,0,0,0,.24v.2a.86.86,0,0,0,.16.57.67.67,0,0,0,.54.19,1.12,1.12,0,0,0,.44-.09,1.16,1.16,0,0,0,.4-.29,2,2,0,0,0,.31-.46,2.14,2.14,0,0,0,.2-.53l.45-2.29h.43l-.71,3.57h.59l-.07.38h-.56a.4.4,0,0,1-.29-.1.36.36,0,0,1-.09-.26s0-.09,0-.18l0-.25h0a1.63,1.63,0,0,1-.52.66,1.2,1.2,0,0,1-.74.22,1,1,0,0,1-.77-.28,1.14,1.14,0,0,1-.25-.79,2.26,2.26,0,0,1,0-.25c0-.09,0-.17,0-.26l.5-2.46Z"/><path class="cls-7" d="M118.34,260.58a2,2,0,0,1-.85-.19,1.59,1.59,0,0,1-.62-.56l.3-.25a1.34,1.34,0,0,0,1.17.62,1.16,1.16,0,0,0,.74-.22.76.76,0,0,0,.28-.63.56.56,0,0,0-.15-.41,1.15,1.15,0,0,0-.52-.23l-.33-.08a2.09,2.09,0,0,1-.4-.12,1.13,1.13,0,0,1-.32-.19.74.74,0,0,1-.21-.28,1.15,1.15,0,0,1-.07-.4,1.11,1.11,0,0,1,.37-.86,1.47,1.47,0,0,1,1-.33,1.6,1.6,0,0,1,.77.16,1.66,1.66,0,0,1,.51.44l-.3.26a1.38,1.38,0,0,0-.38-.34,1.18,1.18,0,0,0-.63-.14,1.06,1.06,0,0,0-.71.21.72.72,0,0,0-.24.57.56.56,0,0,0,.15.41,1.11,1.11,0,0,0,.5.23l.33.08a2.2,2.2,0,0,1,.41.12,1,1,0,0,1,.32.19.8.8,0,0,1,.2.28,1,1,0,0,1,.08.41,1.24,1.24,0,0,1-.11.52,1.08,1.08,0,0,1-.3.4,1.19,1.19,0,0,1-.46.24A1.69,1.69,0,0,1,118.34,260.58Z"/><path class="cls-7" d="M121.23,260.49a.44.44,0,0,1-.31-.1.35.35,0,0,1-.09-.25,1.38,1.38,0,0,1,0-.22l.6-3h-.64l.07-.38h.4a.29.29,0,0,0,.23-.07.38.38,0,0,0,.1-.24l.16-.79h.4l-.22,1.1h.88l-.08.38h-.87l-.64,3.19h.81l-.07.38Z"/><path class="cls-7" d="M124.58,260.58a1.39,1.39,0,0,1-1.07-.41,1.71,1.71,0,0,1-.37-1.2,3.12,3.12,0,0,1,.15-1,2.63,2.63,0,0,1,.41-.8,2,2,0,0,1,.63-.55,1.72,1.72,0,0,1,.82-.2,1.88,1.88,0,0,1,.49.06,1.25,1.25,0,0,1,.4.2.94.94,0,0,1,.27.32,1,1,0,0,1,.1.44,1,1,0,0,1-.14.5,1.19,1.19,0,0,1-.47.4,3.24,3.24,0,0,1-.86.27,9.39,9.39,0,0,1-1.34.11.79.79,0,0,0,0,.17,1,1,0,0,0,0,.16,1.22,1.22,0,0,0,.26.84,1,1,0,0,0,.77.28,1.37,1.37,0,0,0,.75-.21,2,2,0,0,0,.57-.55l.29.23a2.15,2.15,0,0,1-.76.7A1.89,1.89,0,0,1,124.58,260.58Zm.53-3.75a1.26,1.26,0,0,0-.92.38,2.05,2.05,0,0,0-.5,1l0,.19a10.25,10.25,0,0,0,1.18-.1,2.44,2.44,0,0,0,.71-.2.7.7,0,0,0,.34-.28.75.75,0,0,0,.09-.37.52.52,0,0,0-.24-.48A1.12,1.12,0,0,0,125.11,256.83Z"/><path class="cls-7" d="M127.53,260.49a.41.41,0,0,1-.3-.1.33.33,0,0,1-.1-.26v-.06a.51.51,0,0,1,0-.09l1-5.2h.42l-1.06,5.33h.62l-.07.38Z"/><path class="cls-7" d="M129.52,260.49a.45.45,0,0,1-.3-.1.36.36,0,0,1-.09-.26v-.06a.34.34,0,0,1,0-.09l1-5.2h.43l-1.07,5.33h.63l-.08.38Z"/><path class="cls-7" d="M132.22,256.54l-.49,2.46,0,.24c0,.09,0,.15,0,.2a.86.86,0,0,0,.17.57.66.66,0,0,0,.53.19,1.13,1.13,0,0,0,.45-.09,1,1,0,0,0,.39-.29,2,2,0,0,0,.32-.46,2.1,2.1,0,0,0,.19-.53l.46-2.29h.42l-.71,3.57h.6l-.07.38h-.57a.4.4,0,0,1-.28-.1.36.36,0,0,1-.09-.26.77.77,0,0,1,0-.18l0-.25h0a1.55,1.55,0,0,1-.52.66,1.2,1.2,0,0,1-.74.22,1,1,0,0,1-.76-.28,1.14,1.14,0,0,1-.26-.79,2.5,2.5,0,0,1,0-.25,2.34,2.34,0,0,1,0-.26l.49-2.46Z"/><path class="cls-7" d="M135.44,260.49l.78-3.95h.44l-.17.79h0a1.72,1.72,0,0,1,.52-.66,1.26,1.26,0,0,1,.76-.22,1,1,0,0,1,.77.28,1.14,1.14,0,0,1,.25.79,2.09,2.09,0,0,1,0,.24,2.51,2.51,0,0,1,0,.27l-.42,2.08h.6l-.07.38h-.58a.43.43,0,0,1-.27-.08.3.3,0,0,1-.1-.25v-.1l0-.11.38-1.93a2,2,0,0,0,0-.24,1.56,1.56,0,0,0,0-.2q0-.75-.72-.75a1.32,1.32,0,0,0-.44.08,1.2,1.2,0,0,0-.4.29,1.82,1.82,0,0,0-.31.44,1.92,1.92,0,0,0-.2.55l-.46,2.3Z"/><path class="cls-7" d="M143,260.83a1.12,1.12,0,0,1-.11.51,1,1,0,0,1-.35.41,1.67,1.67,0,0,1-.63.27,3.71,3.71,0,0,1-.94.1,2.37,2.37,0,0,1-1.16-.23.75.75,0,0,1-.38-.66.82.82,0,0,1,.21-.57,1.27,1.27,0,0,1,.6-.36v-.05a.47.47,0,0,1-.32-.47.59.59,0,0,1,.21-.47,1.16,1.16,0,0,1,.58-.27V259a.94.94,0,0,1-.41-.38,1.2,1.2,0,0,1-.14-.57,1.67,1.67,0,0,1,.12-.65,1.45,1.45,0,0,1,.33-.5,1.5,1.5,0,0,1,.51-.33,1.91,1.91,0,0,1,.64-.11,1.44,1.44,0,0,1,.43.06,1.17,1.17,0,0,1,.34.15l0-.22a.52.52,0,0,1,.13-.29.39.39,0,0,1,.29-.1h.63l-.07.38h-.73l-.07.43a1.08,1.08,0,0,1,.22.69,1.66,1.66,0,0,1-.12.64,1.4,1.4,0,0,1-.85.82,1.67,1.67,0,0,1-.65.12,1.66,1.66,0,0,1-.32,0,1.39,1.39,0,0,0-.53.21.39.39,0,0,0-.18.34.25.25,0,0,0,.12.22.65.65,0,0,0,.4.09h1a1.45,1.45,0,0,1,.93.23A.78.78,0,0,1,143,260.83Zm-.43.07a.49.49,0,0,0-.18-.4,1,1,0,0,0-.62-.14h-1.28a1.07,1.07,0,0,0-.46.29.67.67,0,0,0-.17.46.58.58,0,0,0,.24.49,1.3,1.3,0,0,0,.74.17h.32a2,2,0,0,0,1-.23A.72.72,0,0,0,142.54,260.9Zm-1.15-2.11a1.1,1.1,0,0,0,.73-.23,1.15,1.15,0,0,0,.34-.62c0-.14,0-.23,0-.29a.86.86,0,0,0,0-.15.69.69,0,0,0-.2-.51.89.89,0,0,0-.62-.2,1,1,0,0,0-.73.24,1.06,1.06,0,0,0-.34.62c0,.13,0,.23,0,.29a.78.78,0,0,0,0,.14.67.67,0,0,0,.21.52A.85.85,0,0,0,141.39,258.79Z"/><g class="cls-4"><path class="cls-8" d="M145.24,147.06h15l-3.76-2.31-3.75-2.31L149,144.75Zm18.07,1.72H142.2a.87.87,0,0,1-.52-.17.94.94,0,0,1-.31-.46.83.83,0,0,1,0-.54.84.84,0,0,1,.35-.42L147,144l5.28-3.25a.9.9,0,0,1,.45-.13.93.93,0,0,1,.45.13l5.23,3.22,5.24,3.22a1,1,0,0,1,.36.31,1,1,0,0,1,.14.47.85.85,0,0,1-.26.61.86.86,0,0,1-.6.25"/><path class="cls-8" d="M174.38,175.3H131.11v-2h43.27v2Zm-35-6.45V154.5l.73-1.27.74-1.27h2.43l.72,1.25.73,1.25V169.1l-.73,1.26-.73,1.26H141l-.8-1.38Zm-4,1.11h2.62l.41.71.41.71h-4.26l.41-.71Zm2.63-16.58h-2.62l-.41-.71-.41-.71h4.26l-.41.71Zm-.38,14.86h-1.88V155.09h1.88v13.15Zm24.63,3.38-.79-1.38-.8-1.39V154.5l.74-1.27.73-1.27h2.43l.72,1.25.73,1.25v14.41l-.8,1.38-.79,1.37h-2.17Zm-2.93-18.24h-2.62l-.41-.71L156,152h4.26l-.41.71ZM159,168.24h-1.88V155.09H159v13.15Zm1.19,3.14h-4.26l.41-.71.41-.71h2.63l.41.71Zm-14.1-1.18h2.62l.41.71.41.71h-4.26l.41-.71Zm2.64-16.82h-2.63l-.41-.71-.41-.71h4.27l-.41.71Zm-2.27,1.71h1.89v13.15h-1.89V155.09Zm5.06,16.53-.73-1.26-.73-1.27V154.5l.73-1.27.74-1.27H154l.72,1.25.72,1.25v14.39l-.79,1.39-.8,1.38h-2.29Zm15.9-1.66h2.63l.41.71.4.71h-4.25l.4-.71Zm2.24-1.72h-1.88V155.09h1.88v13.15Zm-2.24-14.86-.41-.71-.4-.71h4.25l-.41.71-.41.71h-2.62Zm-34.13-3.14,9.72-6,9.72-6,9.73,6,9.73,6H133.3ZM153.61,131v-.11h7.17l-.58.55-.57.56a.8.8,0,0,0-.2.28.75.75,0,0,0-.07.33.77.77,0,0,0,.07.34.84.84,0,0,0,.2.29l.57.55.58.55h-7.17V131Zm21.63,40.63H173l-.8-1.39-.8-1.39V154.5l.73-1.27.74-1.27h2.38a.83.83,0,0,0,.61-.25.85.85,0,0,0,.26-.61.86.86,0,0,0-.14-.47.93.93,0,0,0-.37-.31l-11-6.75-11-6.75V136h9.32a.9.9,0,0,0,.48-.14.85.85,0,0,0,.31-.39.86.86,0,0,0,.05-.5.85.85,0,0,0-.25-.44l-1-1-1-1,1-1,1-1a.89.89,0,0,0,.25-.44.86.86,0,0,0-.05-.5.82.82,0,0,0-.31-.4.9.9,0,0,0-.48-.14H152.74a.82.82,0,0,0-.6.25.86.86,0,0,0-.25.6v6.8l-11,6.78-11,6.78a.74.74,0,0,0-.35.41.86.86,0,0,0,0,.55,1,1,0,0,0,.31.45.87.87,0,0,0,.52.17h2.38l.73,1.25.73,1.25v14.39l-.8,1.39-.8,1.38h-2.24a.85.85,0,0,0-.61.25.86.86,0,0,0-.25.6v3.69a.86.86,0,0,0,.25.6.85.85,0,0,0,.61.25h45a.82.82,0,0,0,.6-.25.83.83,0,0,0,.26-.6v-3.69a.83.83,0,0,0-.26-.6.82.82,0,0,0-.6-.25"/><path class="cls-8" d="M152.75,110.57A42.56,42.56,0,1,0,182.81,123a42.39,42.39,0,0,0-30.06-12.47m0,87a44.56,44.56,0,1,1,31.47-13.05,44.38,44.38,0,0,1-31.47,13.05"/></g><path class="cls-9" d="M68,61.83V46.94h7a4.83,4.83,0,0,1,1.87.35,4.08,4.08,0,0,1,1.42,1,4.24,4.24,0,0,1,.91,1.51,6,6,0,0,1,0,3.87,4.24,4.24,0,0,1-.91,1.49,4.08,4.08,0,0,1-1.42,1,4.65,4.65,0,0,1-1.87.36h-3.8v5.37Zm3.25-8.19h3.41a1.68,1.68,0,0,0,1.14-.37,1.4,1.4,0,0,0,.42-1.1v-.94a1.39,1.39,0,0,0-.42-1.1,1.63,1.63,0,0,0-1.14-.38H71.26Z"/><path class="cls-9" d="M86,62.09a5.73,5.73,0,0,1-2.21-.41,4.48,4.48,0,0,1-1.64-1.17,5.24,5.24,0,0,1-1-1.86,8.16,8.16,0,0,1,0-4.86,5.19,5.19,0,0,1,1-1.85,4.58,4.58,0,0,1,1.64-1.16,6.16,6.16,0,0,1,4.42,0,4.41,4.41,0,0,1,1.64,1.16,5.21,5.21,0,0,1,1,1.85,8.38,8.38,0,0,1,0,4.86,5.26,5.26,0,0,1-1,1.86,4.32,4.32,0,0,1-1.64,1.17A5.69,5.69,0,0,1,86,62.09Zm0-2.5A1.84,1.84,0,0,0,87.43,59a2.43,2.43,0,0,0,.51-1.65V55.09a2.39,2.39,0,0,0-.51-1.64,2.1,2.1,0,0,0-2.9,0A2.39,2.39,0,0,0,84,55.09v2.28A2.43,2.43,0,0,0,84.53,59,1.85,1.85,0,0,0,86,59.59Z"/><path class="cls-9" d="M96.61,61.83a2.74,2.74,0,0,1-3.14-3.07V46h3.16V59.38H98v2.45Z"/><path class="cls-9" d="M101.52,49.43a1.92,1.92,0,0,1-1.4-.43,1.53,1.53,0,0,1-.44-1.12v-.47a1.51,1.51,0,0,1,.44-1.12,1.93,1.93,0,0,1,1.4-.44,1.9,1.9,0,0,1,1.39.44,1.48,1.48,0,0,1,.44,1.12v.47a1.49,1.49,0,0,1-.44,1.12A1.9,1.9,0,0,1,101.52,49.43Zm-1.58,1.2h3.16v11.2H99.94Z"/><path class="cls-9" d="M110,61.83a3.37,3.37,0,0,1-2.49-.83,3.27,3.27,0,0,1-.84-2.43V53.08h-1.58V50.63h.79a1,1,0,0,0,.87-.31,1.43,1.43,0,0,0,.24-.89V47.6h2.84v3H112v2.45H109.8v6.3h2v2.45Z"/><path class="cls-9" d="M115.79,49.43A1.9,1.9,0,0,1,114.4,49a1.49,1.49,0,0,1-.44-1.12v-.47a1.48,1.48,0,0,1,.44-1.12,1.9,1.9,0,0,1,1.39-.44,1.93,1.93,0,0,1,1.4.44,1.51,1.51,0,0,1,.44,1.12v.47a1.53,1.53,0,0,1-.44,1.12A1.92,1.92,0,0,1,115.79,49.43Zm-1.58,1.2h3.16v11.2h-3.16Z"/><path class="cls-9" d="M120.32,46h3.16v9.33h.12L125,53.3l2.24-2.67h3.5L127,54.92l4.16,6.91H127.4l-2.52-4.73-1.4,1.57v3.16h-3.16Z"/><path class="cls-9" d="M146.59,60.62a7.73,7.73,0,0,1-1.71,1,6.28,6.28,0,0,1-2.56.45,6.87,6.87,0,0,1-2.18-.31,4.47,4.47,0,0,1-1.58-.88,3.71,3.71,0,0,1-1-1.32,4.05,4.05,0,0,1-.33-1.65,4.14,4.14,0,0,1,.22-1.37,4,4,0,0,1,.62-1.09,5.4,5.4,0,0,1,1-.89,13.85,13.85,0,0,1,1.2-.79,7.72,7.72,0,0,1-.62-.75,5.75,5.75,0,0,1-.53-.85,4.51,4.51,0,0,1-.38-.94,3.77,3.77,0,0,1-.14-1,3.24,3.24,0,0,1,.31-1.38,3.3,3.3,0,0,1,.9-1.14A4.16,4.16,0,0,1,141.2,47a5.6,5.6,0,0,1,1.84-.28,6.08,6.08,0,0,1,1.7.23,4.2,4.2,0,0,1,1.36.66,3.06,3.06,0,0,1,1.23,2.53,3.31,3.31,0,0,1-.23,1.28,4.05,4.05,0,0,1-.64,1,5.78,5.78,0,0,1-1,.89c-.36.27-.75.52-1.14.77l2.3,2.49a7.4,7.4,0,0,0,.43-1.45,11.33,11.33,0,0,0,.19-1.51h3.56v2.62h-1.34a9.17,9.17,0,0,1-1,2.37l3,3.22H147.7Zm-3.8-1.16a3.74,3.74,0,0,0,2.15-.59l-3.13-3.4a3.12,3.12,0,0,0-1,.88,1.8,1.8,0,0,0-.3,1v.22a1.75,1.75,0,0,0,.58,1.34A2.44,2.44,0,0,0,142.79,59.46ZM143,49.09a1.49,1.49,0,0,0-1,.32,1.1,1.1,0,0,0-.4.9v.08a1.49,1.49,0,0,0,.28.85,11.38,11.38,0,0,0,.94,1.16,4.42,4.42,0,0,0,1.13-.91,1.62,1.62,0,0,0,.38-1.1v-.08a1.12,1.12,0,0,0-.39-.9A1.51,1.51,0,0,0,143,49.09Z"/><path class="cls-9" d="M158.26,61.83V46.94h7a4.88,4.88,0,0,1,1.88.35,4.17,4.17,0,0,1,1.42,1,4.39,4.39,0,0,1,.91,1.51,6.19,6.19,0,0,1,0,3.87,4.39,4.39,0,0,1-.91,1.49,4.17,4.17,0,0,1-1.42,1,4.7,4.7,0,0,1-1.88.36h-3.8v5.37Zm3.24-8.19h3.42a1.7,1.7,0,0,0,1.14-.37,1.4,1.4,0,0,0,.41-1.1v-.94a1.38,1.38,0,0,0-.41-1.1,1.65,1.65,0,0,0-1.14-.38H161.5Z"/><path class="cls-9" d="M175.22,61.83a2.74,2.74,0,0,1-3.13-3.07V46h3.16V59.38h1.4v2.45Z"/><path class="cls-9" d="M186.83,61.83a2,2,0,0,1-1.42-.53,2.5,2.5,0,0,1-.71-1.43h-.13a2.56,2.56,0,0,1-1.13,1.65,3.86,3.86,0,0,1-2.16.57,3.53,3.53,0,0,1-2.58-.89,3.2,3.2,0,0,1-.89-2.37,2.93,2.93,0,0,1,1.29-2.62,6.2,6.2,0,0,1,3.51-.86h1.77v-.71a1.85,1.85,0,0,0-.43-1.29,1.83,1.83,0,0,0-1.43-.48,2.48,2.48,0,0,0-1.49.41,4,4,0,0,0-.92.91l-1.88-1.67A5,5,0,0,1,180,50.94a5.86,5.86,0,0,1,2.81-.57,5.28,5.28,0,0,1,3.58,1.05,3.83,3.83,0,0,1,1.2,3v4.91h1v2.45Zm-4.37-1.94a2.53,2.53,0,0,0,1.35-.34,1.17,1.17,0,0,0,.57-1.1V57.14h-1.54c-1.24,0-1.85.41-1.85,1.25v.32a1.06,1.06,0,0,0,.38.9A1.81,1.81,0,0,0,182.46,59.89Z"/><path class="cls-9" d="M190.7,61.83V50.63h3.15v1.9H194A3.49,3.49,0,0,1,195,51a3.12,3.12,0,0,1,2.07-.64,3.09,3.09,0,0,1,2.61,1.16,5.27,5.27,0,0,1,.89,3.28v7h-3.16V55.07a3.06,3.06,0,0,0-.34-1.61,1.36,1.36,0,0,0-1.22-.53,3.22,3.22,0,0,0-.75.1,2,2,0,0,0-.65.31,1.76,1.76,0,0,0-.46.52,1.53,1.53,0,0,0-.17.72v7.25Z"/><path class="cls-9" d="M210,60h-.11a4.31,4.31,0,0,1-.39.81A2.83,2.83,0,0,1,208,61.92a4,4,0,0,1-1.2.17A3.11,3.11,0,0,1,204.17,61a5.27,5.27,0,0,1-.88-3.28v-7h3.15v6.76a2.8,2.8,0,0,0,.37,1.58,1.36,1.36,0,0,0,1.24.56,2.57,2.57,0,0,0,.72-.11,1.91,1.91,0,0,0,.64-.31,1.54,1.54,0,0,0,.45-.5,1.42,1.42,0,0,0,.17-.7V50.63h3.16v11.2H210Z"/><path class="cls-9" d="M216.13,61.83V50.63h3.16v1.9h.13A3.49,3.49,0,0,1,220.47,51a3.58,3.58,0,0,1,4.68.52,5.27,5.27,0,0,1,.88,3.28v7h-3.15V55.07a3,3,0,0,0-.35-1.61,1.33,1.33,0,0,0-1.21-.53,3.08,3.08,0,0,0-.75.1,1.86,1.86,0,0,0-.65.31,1.76,1.76,0,0,0-.46.52,1.53,1.53,0,0,0-.17.72v7.25Z"/><path class="cls-9" d="M239.22,62.64a3.71,3.71,0,0,1-.31,1.58,2.74,2.74,0,0,1-1,1.17,5.14,5.14,0,0,1-1.87.72,16.74,16.74,0,0,1-5.33.07,6.06,6.06,0,0,1-1.65-.52,2.27,2.27,0,0,1-.91-.81,2,2,0,0,1-.29-1.1,2,2,0,0,1,.55-1.47,2.73,2.73,0,0,1,1.54-.66v-.24a1.84,1.84,0,0,1-1.22-.69,2.07,2.07,0,0,1-.4-1.27,1.61,1.61,0,0,1,.18-.78,2.18,2.18,0,0,1,.47-.58,2.46,2.46,0,0,1,.67-.39,5.68,5.68,0,0,1,.77-.24v-.08a3.43,3.43,0,0,1-1.52-1.29,3.74,3.74,0,0,1-.49-1.91,3.46,3.46,0,0,1,1.19-2.74,5.38,5.38,0,0,1,3.62-1,7,7,0,0,1,1.89.22v-.43a1.66,1.66,0,0,1,.44-1.29,1.82,1.82,0,0,1,1.25-.4h1.77v2.35h-2.47V51a3.22,3.22,0,0,1,1.45,1.29,3.81,3.81,0,0,1,.47,1.91,3.39,3.39,0,0,1-1.19,2.7,5.42,5.42,0,0,1-3.61,1,7.71,7.71,0,0,1-2-.23,1,1,0,0,0-.49.9.7.7,0,0,0,.31.62,1.8,1.8,0,0,0,1,.23h3.25a4.28,4.28,0,0,1,3,.85A3.12,3.12,0,0,1,239.22,62.64Zm-3,.43a.84.84,0,0,0-.39-.75,2.55,2.55,0,0,0-1.34-.25h-3.84a1.14,1.14,0,0,0-.31.48,1.41,1.41,0,0,0-.1.52,1,1,0,0,0,.53.91,4.18,4.18,0,0,0,1.82.29h1.28a4.1,4.1,0,0,0,1.81-.29A1,1,0,0,0,236.26,63.07Zm-3-7.3a2.1,2.1,0,0,0,1.39-.39,1.39,1.39,0,0,0,.46-1.13V54a1.39,1.39,0,0,0-.46-1.13,2.63,2.63,0,0,0-2.79,0,1.39,1.39,0,0,0-.46,1.13v.26a1.39,1.39,0,0,0,.46,1.13A2.11,2.11,0,0,0,233.21,55.77Z"/></g></svg>