<svg xmlns="http://www.w3.org/2000/svg" viewBox="0 0 305.62 305.62"><defs><style>.cls-1,.cls-2,.cls-5{fill:none;}.cls-1{stroke:#fff;stroke-width:1.25px;}.cls-1,.cls-2{stroke-miterlimit:10;}.cls-2{stroke:#000;stroke-width:0.25px;}.cls-3{fill:#2c3f50;}.cls-4{fill:#7e4993;}.cls-5{stroke:#7e4993;stroke-width:2px;}</style></defs><title>feedback_ahrzeugherstellerundflotten_back</title><g id="Ebene_2" data-name="Ebene 2"><path class="cls-1" d="M284.62,290.62v15m0-290.62V0M21,290.62v15M21,15V0M290.62,284.62h15M15,284.62H0M290.62,21h15M15,21H0"/><path class="cls-2" d="M284.62,290.62v15m0-290.62V0M21,290.62v15M21,15V0M290.62,284.62h15M15,284.62H0M290.62,21h15M15,21H0"/></g><g id="Ebene_1" data-name="Ebene 1"><path class="cls-3" d="M126,65.58V65h1.56v-4.5h-.06L126,61.8l-.39-.42L127.13,60h1.05v5h1.44v.59Z"/><path class="cls-3" d="M131.13,65.67a.42.42,0,0,1-.49-.46v-.1a.44.44,0,0,1,.49-.47.5.5,0,0,1,.37.13.49.49,0,0,1,.12.34v.1a.49.49,0,0,1-.12.34A.5.5,0,0,1,131.13,65.67Z"/><path class="cls-3" d="M135.52,65.58h-.67V60h2.22a1.56,1.56,0,0,1,1.15.4,1.61,1.61,0,0,1,.41,1.18,1.68,1.68,0,0,1-.28,1,1.41,1.41,0,0,1-.84.53l1.28,2.46H138l-1.21-2.4h-1.3Zm1.55-3a.85.85,0,0,0,.62-.21.74.74,0,0,0,.22-.59v-.41a.74.74,0,0,0-.22-.59.85.85,0,0,0-.62-.21h-1.55v2Z"/><path class="cls-3" d="M141.34,65.67a1.91,1.91,0,0,1-.76-.15,1.63,1.63,0,0,1-.58-.43,2,2,0,0,1-.38-.68,2.79,2.79,0,0,1-.14-.9,2.71,2.71,0,0,1,.14-.88,1.92,1.92,0,0,1,.38-.69,1.63,1.63,0,0,1,.58-.43,1.91,1.91,0,0,1,.76-.16,1.88,1.88,0,0,1,.76.16,1.66,1.66,0,0,1,.59.43,2.09,2.09,0,0,1,.38.69,2.71,2.71,0,0,1,.14.88,2.79,2.79,0,0,1-.14.9,2.14,2.14,0,0,1-.38.68,1.66,1.66,0,0,1-.59.43A1.87,1.87,0,0,1,141.34,65.67Zm0-.56a1.18,1.18,0,0,0,.85-.32,1.32,1.32,0,0,0,.33-1v-.59a1.32,1.32,0,0,0-.33-1,1.28,1.28,0,0,0-1.69,0,1.32,1.32,0,0,0-.33,1v.59a1.32,1.32,0,0,0,.33,1A1.17,1.17,0,0,0,141.34,65.11Z"/><path class="cls-3" d="M144.94,65.58a.62.62,0,0,1-.5-.19.64.64,0,0,1-.18-.47V59.66h.64V65h.61v.57Z"/><path class="cls-3" d="M147.09,65.58a.64.64,0,0,1-.51-.19.68.68,0,0,1-.17-.47V59.66h.64V65h.61v.57Z"/><path class="cls-3" d="M150.14,65.67a1.89,1.89,0,0,1-.77-.15,1.63,1.63,0,0,1-.58-.43,2.14,2.14,0,0,1-.38-.68,2.79,2.79,0,0,1-.13-.9,2.71,2.71,0,0,1,.13-.88,2.09,2.09,0,0,1,.38-.69,1.63,1.63,0,0,1,.58-.43,1.89,1.89,0,0,1,.77-.16,1.78,1.78,0,0,1,.74.16,1.66,1.66,0,0,1,.56.41,2.09,2.09,0,0,1,.36.64,2.53,2.53,0,0,1,.12.8v.31h-3v.19a1.3,1.3,0,0,0,.09.49,1.1,1.1,0,0,0,.24.4,1,1,0,0,0,.38.26,1.21,1.21,0,0,0,.52.1,1.2,1.2,0,0,0,1.13-.72l.46.33a1.55,1.55,0,0,1-.63.69A1.8,1.8,0,0,1,150.14,65.67Zm0-3.78a1.21,1.21,0,0,0-.48.09,1.12,1.12,0,0,0-.38.26,1.28,1.28,0,0,0-.24.39,1.39,1.39,0,0,0-.09.5v.06h2.28V63.1a1.25,1.25,0,0,0-.3-.88A1,1,0,0,0,150.14,61.89Z"/><path class="cls-3" d="M154.43,61.45h.63l.44,1.78.44,1.81h0l.51-1.81.52-1.78h.56l.54,1.78.51,1.81h0l.42-1.81.45-1.78h.6L159,65.58h-.79l-.57-2-.36-1.25h0l-.35,1.25-.58,2h-.77Z"/><path class="cls-3" d="M163.94,65.58a.66.66,0,0,1-.52-.19,1,1,0,0,1-.2-.48h0a1.11,1.11,0,0,1-.44.57,1.39,1.39,0,0,1-.75.19,1.46,1.46,0,0,1-1-.33,1.18,1.18,0,0,1-.36-.91,1,1,0,0,1,.43-.9,2.25,2.25,0,0,1,1.33-.31h.81v-.41a.89.89,0,0,0-.24-.67,1,1,0,0,0-.73-.23,1.06,1.06,0,0,0-.63.17,1.36,1.36,0,0,0-.42.44l-.38-.36a1.51,1.51,0,0,1,.53-.57,1.69,1.69,0,0,1,.93-.24,1.74,1.74,0,0,1,1.17.37,1.29,1.29,0,0,1,.41,1V65h.48v.57Zm-2.4-4.95a.41.41,0,0,1-.3-.09.36.36,0,0,1-.1-.27v-.09a.36.36,0,0,1,.1-.27.38.38,0,0,1,.3-.1.34.34,0,0,1,.39.37v.09a.4.4,0,0,1-.09.27A.45.45,0,0,1,161.54,60.63Zm.56,4.5a2,2,0,0,0,.44,0,1.53,1.53,0,0,0,.34-.16.65.65,0,0,0,.22-.25.49.49,0,0,0,.08-.29V63.7h-.84a1.54,1.54,0,0,0-.81.16.51.51,0,0,0-.25.46v.17a.55.55,0,0,0,.22.47A.93.93,0,0,0,162.1,65.13Zm.92-4.5a.43.43,0,0,1-.3-.09.4.4,0,0,1-.09-.27v-.09a.4.4,0,0,1,.09-.27.39.39,0,0,1,.3-.1.38.38,0,0,1,.3.1.36.36,0,0,1,.1.27v.09a.36.36,0,0,1-.1.27A.41.41,0,0,1,163,60.63Z"/><path class="cls-3" d="M165.21,59.66h.64v2.46h0a1.28,1.28,0,0,1,.43-.56,1.18,1.18,0,0,1,.74-.21,1.29,1.29,0,0,1,1,.42,1.65,1.65,0,0,1,.37,1.16v2.65h-.64V63c0-.75-.31-1.12-.93-1.12a1.58,1.58,0,0,0-.38,0,.94.94,0,0,0-.32.15.66.66,0,0,0-.23.24.78.78,0,0,0-.08.35v2.87h-.64Z"/><path class="cls-3" d="M170.43,65.58a.66.66,0,0,1-.51-.19.68.68,0,0,1-.17-.47V59.66h.64V65H171v.57Z"/><path class="cls-3" d="M173.48,65.67a1.84,1.84,0,0,1-.76-.15,1.58,1.58,0,0,1-.59-.43,1.94,1.94,0,0,1-.37-.68,2.79,2.79,0,0,1-.14-.9,2.71,2.71,0,0,1,.14-.88,1.91,1.91,0,0,1,.37-.69,1.58,1.58,0,0,1,.59-.43,1.84,1.84,0,0,1,.76-.16,1.75,1.75,0,0,1,.74.16,1.66,1.66,0,0,1,.56.41,1.75,1.75,0,0,1,.36.64,2.53,2.53,0,0,1,.12.8v.31h-3v.19a1.29,1.29,0,0,0,.08.49,1.47,1.47,0,0,0,.24.4A1,1,0,0,0,173,65a1.27,1.27,0,0,0,.52.1,1.18,1.18,0,0,0,.68-.19,1.2,1.2,0,0,0,.46-.53l.45.33a1.53,1.53,0,0,1-.62.69A1.85,1.85,0,0,1,173.48,65.67Zm0-3.78A1.21,1.21,0,0,0,173,62a1.08,1.08,0,0,0-.37.26,1.14,1.14,0,0,0-.25.39,1.38,1.38,0,0,0-.08.5v.06h2.28V63.1a1.25,1.25,0,0,0-.3-.88A1,1,0,0,0,173.48,61.89Z"/><path class="cls-3" d="M176.32,65.58V61.45H177v.67h0a1.36,1.36,0,0,1,.43-.56,1.18,1.18,0,0,1,.74-.21,1.28,1.28,0,0,1,1,.42,1.65,1.65,0,0,1,.37,1.16v2.65h-.64V63c0-.75-.31-1.12-.93-1.12a1.5,1.5,0,0,0-.37,0,1,1,0,0,0-.33.15.76.76,0,0,0-.23.24.78.78,0,0,0-.08.35v2.87Z"/><path class="cls-3" d="M120.27,78H116.6v-.69l1.82-1.68a3.56,3.56,0,0,0,.66-.76,1.46,1.46,0,0,0,.27-.82V74a1.11,1.11,0,0,0-.26-.76,1,1,0,0,0-.78-.29,1.52,1.52,0,0,0-.45.07,1.38,1.38,0,0,0-.33.2,1.33,1.33,0,0,0-.23.3,2.15,2.15,0,0,0-.15.38l-.6-.24a3.41,3.41,0,0,1,.22-.48,1.78,1.78,0,0,1,.35-.42,1.75,1.75,0,0,1,.52-.29,2.12,2.12,0,0,1,.71-.11,2,2,0,0,1,.72.12,1.42,1.42,0,0,1,.54.34,1.5,1.5,0,0,1,.33.51,1.71,1.71,0,0,1,.12.65,1.74,1.74,0,0,1-.1.61,2.14,2.14,0,0,1-.25.53,2.47,2.47,0,0,1-.39.49c-.15.16-.31.32-.49.48l-1.5,1.36h2.94Z"/><path class="cls-3" d="M121.89,78.11a.44.44,0,0,1-.49-.47v-.1a.44.44,0,0,1,.49-.47.5.5,0,0,1,.37.13.49.49,0,0,1,.12.34v.1a.49.49,0,0,1-.12.34A.5.5,0,0,1,121.89,78.11Z"/><path class="cls-3" d="M128.93,79.32h-.83a.62.62,0,0,1-.5-.19.67.67,0,0,1-.17-.46V78.1a2.26,2.26,0,0,1-.87-.26,2,2,0,0,1-.66-.57,2.4,2.4,0,0,1-.42-.88,4.15,4.15,0,0,1-.15-1.17A3.91,3.91,0,0,1,125.5,74a2.7,2.7,0,0,1,.47-.91,2,2,0,0,1,.75-.55,2.6,2.6,0,0,1,1.95,0,2,2,0,0,1,.75.55,2.72,2.72,0,0,1,.48.91,4.24,4.24,0,0,1,.16,1.24,3.29,3.29,0,0,1-.53,2,2.09,2.09,0,0,1-1.46.85v.68h.86Zm-1.23-1.81a1.76,1.76,0,0,0,.66-.13,1.5,1.5,0,0,0,.52-.37,1.59,1.59,0,0,0,.34-.58,2.19,2.19,0,0,0,.12-.75v-.93a2.19,2.19,0,0,0-.12-.75,1.59,1.59,0,0,0-.34-.58,1.5,1.5,0,0,0-.52-.37,1.59,1.59,0,0,0-.66-.13,1.67,1.67,0,0,0-.67.13,1.56,1.56,0,0,0-.86,1,2.19,2.19,0,0,0-.12.75v.93a2.19,2.19,0,0,0,.12.75,1.56,1.56,0,0,0,.86.95A1.86,1.86,0,0,0,127.7,77.51Z"/><path class="cls-3" d="M131.94,78h-.67V72.43h2.23a1.5,1.5,0,0,1,1.14.41,1.55,1.55,0,0,1,.42,1.17,1.68,1.68,0,0,1-.29,1,1.37,1.37,0,0,1-.83.53L135.22,78h-.76l-1.21-2.4h-1.31Zm1.56-3a.92.92,0,0,0,.62-.2.82.82,0,0,0,.22-.6v-.41a.79.79,0,0,0-.22-.59.88.88,0,0,0-.62-.21h-1.56v2Z"/><path class="cls-3" d="M136.08,75.92v-.69h2.09v.69Z"/><path class="cls-3" d="M141.55,78.11a2,2,0,0,1-1.65-.73,3.26,3.26,0,0,1-.6-2.13,3.39,3.39,0,0,1,.6-2.16,2,2,0,0,1,1.65-.76,2.1,2.1,0,0,1,1.18.32,2,2,0,0,1,.74.9l-.54.32a1.6,1.6,0,0,0-.51-.69,1.43,1.43,0,0,0-.87-.26,1.47,1.47,0,0,0-.64.14,1.29,1.29,0,0,0-.48.39,1.88,1.88,0,0,0-.3.6,2.67,2.67,0,0,0-.11.78v.84a2.09,2.09,0,0,0,.4,1.35,1.38,1.38,0,0,0,1.13.49,1.46,1.46,0,0,0,.9-.27,1.71,1.71,0,0,0,.53-.73l.53.33a2.07,2.07,0,0,1-.76.93A2.12,2.12,0,0,1,141.55,78.11Z"/><path class="cls-3" d="M146.05,78.11a1.73,1.73,0,0,1-.76-.16,1.58,1.58,0,0,1-.59-.43,2.14,2.14,0,0,1-.38-.68,2.9,2.9,0,0,1,0-1.78,2.09,2.09,0,0,1,.38-.69,1.7,1.7,0,0,1,.59-.43,1.87,1.87,0,0,1,.76-.15,1.83,1.83,0,0,1,.75.15,1.7,1.7,0,0,1,.59.43,1.94,1.94,0,0,1,.39.69,3.11,3.11,0,0,1,0,1.78,2,2,0,0,1-.39.68,1.58,1.58,0,0,1-.59.43A1.68,1.68,0,0,1,146.05,78.11Zm0-.57a1.2,1.2,0,0,0,.85-.32,1.34,1.34,0,0,0,.32-1v-.59a1.36,1.36,0,0,0-.32-1,1.2,1.2,0,0,0-.85-.32,1.18,1.18,0,0,0-.85.32,1.32,1.32,0,0,0-.33,1v.59a1.3,1.3,0,0,0,.33,1A1.18,1.18,0,0,0,146.05,77.54Z"/><path class="cls-3" d="M151.61,77.35h0a1.29,1.29,0,0,1-1.21.76,1.55,1.55,0,0,1-1.23-.59,1.89,1.89,0,0,1-.34-.68,3.44,3.44,0,0,1-.11-.89,3.58,3.58,0,0,1,.11-.9,2,2,0,0,1,.34-.68,1.46,1.46,0,0,1,.53-.43,1.6,1.6,0,0,1,.7-.15,1.45,1.45,0,0,1,.74.18,1.25,1.25,0,0,1,.47.58h0V72.09h.64V78h-.64Zm-1.07.19a1.47,1.47,0,0,0,.42-.06,1.19,1.19,0,0,0,.34-.16.73.73,0,0,0,.22-.27.69.69,0,0,0,.09-.36V75.15a.62.62,0,0,0-.09-.32.75.75,0,0,0-.22-.25,1.19,1.19,0,0,0-.34-.16,1.48,1.48,0,0,0-.42-.07,1.09,1.09,0,0,0-.85.35,1.24,1.24,0,0,0-.31.89v.71a1.28,1.28,0,0,0,.31.9A1.12,1.12,0,0,0,150.54,77.54Z"/><path class="cls-3" d="M155.16,78.11a1.7,1.7,0,0,1-.76-.16,1.58,1.58,0,0,1-.59-.43,1.94,1.94,0,0,1-.37-.68,2.9,2.9,0,0,1,0-1.78,1.91,1.91,0,0,1,.37-.69,1.7,1.7,0,0,1,.59-.43,1.84,1.84,0,0,1,.76-.15,1.72,1.72,0,0,1,.74.15,1.56,1.56,0,0,1,.56.42,1.7,1.7,0,0,1,.36.63,2.6,2.6,0,0,1,.12.81v.3h-3v.19a1.29,1.29,0,0,0,.08.49,1.33,1.33,0,0,0,.24.4,1,1,0,0,0,.38.26,1.27,1.27,0,0,0,.52.1,1.24,1.24,0,0,0,1.14-.71l.45.33a1.56,1.56,0,0,1-.62.68A1.86,1.86,0,0,1,155.16,78.11Zm0-3.79a1.21,1.21,0,0,0-.48.09,1.08,1.08,0,0,0-.37.26,1.18,1.18,0,0,0-.25.4,1.29,1.29,0,0,0-.08.49v.06h2.28v-.09a1.27,1.27,0,0,0-.3-.88A1,1,0,0,0,155.16,74.32Z"/><path class="cls-3" d="M161.13,78.11a2,2,0,0,1-1-.22,2.32,2.32,0,0,1-.66-.59l.45-.37a1.83,1.83,0,0,0,.54.47,1.38,1.38,0,0,0,.69.16,1,1,0,0,0,.63-.17.61.61,0,0,0,.23-.5.56.56,0,0,0-.16-.41.94.94,0,0,0-.56-.24l-.33,0a2.16,2.16,0,0,1-.53-.12,1.67,1.67,0,0,1-.42-.22,1.06,1.06,0,0,1-.28-.35,1.27,1.27,0,0,1-.1-.5,1.12,1.12,0,0,1,.12-.53,1,1,0,0,1,.3-.38,1.38,1.38,0,0,1,.47-.23,2.22,2.22,0,0,1,.59-.07A1.93,1.93,0,0,1,162,74a1.88,1.88,0,0,1,.6.49l-.43.39a1.16,1.16,0,0,0-.4-.35,1.22,1.22,0,0,0-.66-.16,1,1,0,0,0-.61.17.6.6,0,0,0-.2.47.5.5,0,0,0,.2.44,1.56,1.56,0,0,0,.59.2l.32,0a1.76,1.76,0,0,1,1,.39,1.06,1.06,0,0,1,.29.77,1.17,1.17,0,0,1-.41.94A1.69,1.69,0,0,1,161.13,78.11Z"/><path class="cls-3" d="M165.32,78.11a1.78,1.78,0,0,1-.78-.16,1.55,1.55,0,0,1-.58-.43,2.09,2.09,0,0,1-.36-.68,3,3,0,0,1-.12-.89,3.16,3.16,0,0,1,.12-.9,2.19,2.19,0,0,1,.36-.68,1.55,1.55,0,0,1,.58-.43,1.94,1.94,0,0,1,.78-.15,1.73,1.73,0,0,1,1,.26,1.61,1.61,0,0,1,.55.71l-.53.27a1,1,0,0,0-.37-.5,1.08,1.08,0,0,0-.64-.18,1.12,1.12,0,0,0-.5.1.86.86,0,0,0-.36.25,1.07,1.07,0,0,0-.22.39,1.63,1.63,0,0,0-.07.5v.71a1.36,1.36,0,0,0,.29.89,1.07,1.07,0,0,0,.86.35,1.16,1.16,0,0,0,1.12-.72l.46.31a1.59,1.59,0,0,1-.59.71A1.74,1.74,0,0,1,165.32,78.11Z"/><path class="cls-3" d="M170.81,78a.64.64,0,0,1-.52-.19.94.94,0,0,1-.19-.48h0a1,1,0,0,1-.45.57,1.4,1.4,0,0,1-.75.2,1.49,1.49,0,0,1-1-.34,1.18,1.18,0,0,1-.36-.91,1,1,0,0,1,.43-.9,2.33,2.33,0,0,1,1.33-.31h.82v-.41a.9.9,0,0,0-.24-.67,1.28,1.28,0,0,0-1.37-.06A1.36,1.36,0,0,0,168,75l-.38-.36a1.51,1.51,0,0,1,.53-.57,1.78,1.78,0,0,1,.93-.23,1.74,1.74,0,0,1,1.17.36,1.31,1.31,0,0,1,.42,1v2.26h.47V78ZM169,77.56a2,2,0,0,0,.44,0,1.07,1.07,0,0,0,.34-.16.87.87,0,0,0,.23-.24.61.61,0,0,0,.08-.3v-.68h-.85a1.54,1.54,0,0,0-.81.16.54.54,0,0,0-.25.47v.16a.56.56,0,0,0,.22.47A.93.93,0,0,0,169,77.56Z"/><path class="cls-3" d="M172.08,78V73.88h.64v.67h0a1.36,1.36,0,0,1,.43-.56,1.25,1.25,0,0,1,.74-.2,1.27,1.27,0,0,1,1,.41,1.65,1.65,0,0,1,.37,1.16V78h-.64V75.47c0-.74-.31-1.12-.93-1.12a1.5,1.5,0,0,0-.37.05,1,1,0,0,0-.33.15.76.76,0,0,0-.23.24.78.78,0,0,0-.08.35V78Z"/><path class="cls-3" d="M176.62,78V73.88h.64v.67h0a1.45,1.45,0,0,1,.43-.56,1.27,1.27,0,0,1,.74-.2,1.29,1.29,0,0,1,1,.41,1.7,1.7,0,0,1,.37,1.16V78h-.64V75.47c0-.74-.31-1.12-.94-1.12a1.5,1.5,0,0,0-.37.05.86.86,0,0,0-.32.15.59.59,0,0,0-.23.24.68.68,0,0,0-.09.35V78Z"/><path class="cls-3" d="M182.72,78.11A1.7,1.7,0,0,1,182,78a1.58,1.58,0,0,1-.59-.43,1.94,1.94,0,0,1-.37-.68,2.9,2.9,0,0,1,0-1.78,1.91,1.91,0,0,1,.37-.69,1.7,1.7,0,0,1,.59-.43,1.84,1.84,0,0,1,.76-.15,1.75,1.75,0,0,1,.74.15,1.56,1.56,0,0,1,.56.42,1.7,1.7,0,0,1,.36.63,2.6,2.6,0,0,1,.12.81v.3h-3v.19a1.29,1.29,0,0,0,.08.49,1.33,1.33,0,0,0,.24.4,1,1,0,0,0,.38.26,1.27,1.27,0,0,0,.52.1,1.24,1.24,0,0,0,1.14-.71l.45.33a1.56,1.56,0,0,1-.62.68A1.84,1.84,0,0,1,182.72,78.11Zm0-3.79a1.21,1.21,0,0,0-.48.09,1.08,1.08,0,0,0-.37.26,1.18,1.18,0,0,0-.25.4,1.53,1.53,0,0,0-.08.49v.06h2.28v-.09a1.27,1.27,0,0,0-.3-.88A1,1,0,0,0,182.72,74.32Z"/><path class="cls-3" d="M185.56,78V73.88h.64v.67h0a1.36,1.36,0,0,1,.43-.56,1.25,1.25,0,0,1,.74-.2,1.27,1.27,0,0,1,1,.41,1.65,1.65,0,0,1,.37,1.16V78h-.64V75.47c0-.74-.31-1.12-.93-1.12a1.5,1.5,0,0,0-.37.05,1,1,0,0,0-.33.15.76.76,0,0,0-.23.24.78.78,0,0,0-.08.35V78Z"/><path class="cls-3" d="M114.16,87.21A1.23,1.23,0,0,0,115,87a.85.85,0,0,0,.29-.66v-.06a.82.82,0,0,0-.28-.66,1.14,1.14,0,0,0-.72-.22,1.27,1.27,0,0,0-.71.19,1.46,1.46,0,0,0-.44.51l-.5-.38a1.59,1.59,0,0,1,.25-.33,1.64,1.64,0,0,1,.35-.29,1.62,1.62,0,0,1,.46-.21,2.23,2.23,0,0,1,.6-.08,2.41,2.41,0,0,1,.67.09,1.84,1.84,0,0,1,.54.28,1.2,1.2,0,0,1,.36.44,1.25,1.25,0,0,1,.13.59,1.48,1.48,0,0,1-.08.49,1.37,1.37,0,0,1-.23.37,1.54,1.54,0,0,1-.34.28,1.92,1.92,0,0,1-.42.16v0a2.23,2.23,0,0,1,.43.16,1.49,1.49,0,0,1,.38.28,1.29,1.29,0,0,1,.26.42,1.4,1.4,0,0,1,.1.56,1.59,1.59,0,0,1-.13.66,1.52,1.52,0,0,1-.39.52,1.73,1.73,0,0,1-.6.33,2.35,2.35,0,0,1-.77.12,2.43,2.43,0,0,1-.64-.08,1.88,1.88,0,0,1-.5-.21,2.28,2.28,0,0,1-.38-.3,2.41,2.41,0,0,1-.29-.36l.5-.38a2.37,2.37,0,0,0,.23.3,1.27,1.27,0,0,0,.28.24,1.16,1.16,0,0,0,.34.14,1.53,1.53,0,0,0,.45.06,1.34,1.34,0,0,0,.9-.27,1,1,0,0,0,.3-.77v-.07a1,1,0,0,0-.3-.77,1.34,1.34,0,0,0-.9-.27h-.66v-.59Z"/><path class="cls-3" d="M118,90.54a.46.46,0,0,1-.37-.13.47.47,0,0,1-.12-.34V90a.49.49,0,0,1,.12-.34.5.5,0,0,1,.37-.12.42.42,0,0,1,.49.46v.1a.47.47,0,0,1-.12.34A.45.45,0,0,1,118,90.54Z"/><path class="cls-3" d="M121.68,90.44V84.86H125v.59h-2.66v1.87h2.43v.6h-2.43v2.52Z"/><path class="cls-3" d="M125.94,90.44V86.31h.64v.76h0a1.15,1.15,0,0,1,.4-.52,1.18,1.18,0,0,1,.79-.24h.25V87h-.38a1.43,1.43,0,0,0-.81.19.57.57,0,0,0-.29.49v2.8Z"/><path class="cls-3" d="M131.85,90.44a.64.64,0,0,1-.52-.19.94.94,0,0,1-.19-.48h0a1.06,1.06,0,0,1-.45.58,1.49,1.49,0,0,1-.75.19,1.45,1.45,0,0,1-1-.34,1.18,1.18,0,0,1-.36-.91,1,1,0,0,1,.43-.9,2.33,2.33,0,0,1,1.33-.31h.82v-.41a.9.9,0,0,0-.24-.67,1.06,1.06,0,0,0-.74-.23,1.14,1.14,0,0,0-.63.17,1.3,1.3,0,0,0-.42.45l-.38-.36a1.38,1.38,0,0,1,.53-.57,2,2,0,0,1,2.1.13,1.27,1.27,0,0,1,.42,1v2.27h.47v.56ZM130,90a1.52,1.52,0,0,0,.44,0,1.07,1.07,0,0,0,.34-.16.87.87,0,0,0,.23-.24.61.61,0,0,0,.08-.3v-.68h-.85a1.64,1.64,0,0,0-.81.16.54.54,0,0,0-.25.47v.16a.59.59,0,0,0,.22.48A1,1,0,0,0,130,90Z"/><path class="cls-3" d="M136.6,90.9a1,1,0,0,1-.5.94,3,3,0,0,1-1.5.3,2.79,2.79,0,0,1-1.39-.26.86.86,0,0,1-.43-.76.73.73,0,0,1,.18-.52,1,1,0,0,1,.48-.27v-.09a.61.61,0,0,1-.37-.58.59.59,0,0,1,.2-.47,1.34,1.34,0,0,1,.51-.24v0a1.41,1.41,0,0,1-.57-.51,1.46,1.46,0,0,1-.2-.76,1.58,1.58,0,0,1,.11-.58,1.23,1.23,0,0,1,.32-.45,1.39,1.39,0,0,1,.48-.3,1.87,1.87,0,0,1,.64-.1,1.78,1.78,0,0,1,.78.16v-.07a.62.62,0,0,1,.12-.4.39.39,0,0,1,.36-.16h.62v.56h-.78v.27A1.28,1.28,0,0,1,136,87a1.33,1.33,0,0,1,.13.61,1.48,1.48,0,0,1-.11.57,1.36,1.36,0,0,1-.32.46,1.59,1.59,0,0,1-.49.29,1.87,1.87,0,0,1-.64.1,1.81,1.81,0,0,1-.4,0,1.46,1.46,0,0,0-.38.17.34.34,0,0,0-.17.3.25.25,0,0,0,.18.25,1.47,1.47,0,0,0,.46.06h.88a1.74,1.74,0,0,1,1.11.29A1,1,0,0,1,136.6,90.9Zm-.6,0a.47.47,0,0,0-.19-.4,1.1,1.1,0,0,0-.67-.15h-1.37a.59.59,0,0,0-.39.56.62.62,0,0,0,.21.47,1,1,0,0,0,.69.19h.59a1.69,1.69,0,0,0,.83-.17A.54.54,0,0,0,136,91Zm-1.43-2.39a1,1,0,0,0,.65-.19.76.76,0,0,0,.24-.61v-.23a.73.73,0,0,0-.24-.6,1.16,1.16,0,0,0-1.3,0,.73.73,0,0,0-.24.6v.23a.76.76,0,0,0,.24.61A1,1,0,0,0,134.57,88.56Z"/><path class="cls-3" d="M138.86,90.54a1.89,1.89,0,0,1-.77-.15,1.66,1.66,0,0,1-.58-.44,2.14,2.14,0,0,1-.38-.68,2.73,2.73,0,0,1-.13-.89,2.77,2.77,0,0,1,.13-.89,2,2,0,0,1,.38-.68,1.66,1.66,0,0,1,.58-.44,1.89,1.89,0,0,1,.77-.15,1.78,1.78,0,0,1,.74.15,1.56,1.56,0,0,1,.56.42,2,2,0,0,1,.36.63,2.64,2.64,0,0,1,.12.81v.3h-3v.19a1.3,1.3,0,0,0,.09.49,1,1,0,0,0,.24.4,1.19,1.19,0,0,0,.38.27,1.38,1.38,0,0,0,.52.09,1.25,1.25,0,0,0,.68-.18,1.17,1.17,0,0,0,.45-.53l.46.33a1.6,1.6,0,0,1-.63.69A1.88,1.88,0,0,1,138.86,90.54Zm0-3.78a1.21,1.21,0,0,0-.48.09,1.09,1.09,0,0,0-.38.25,1.47,1.47,0,0,0-.24.4,1.31,1.31,0,0,0-.09.5v0H140V88a1.23,1.23,0,0,0-.3-.87A1,1,0,0,0,138.86,86.76Z"/><path class="cls-3" d="M141.7,90.44V86.31h.64V87h0a1.34,1.34,0,0,1,.43-.56,1.25,1.25,0,0,1,.74-.2,1.32,1.32,0,0,1,1,.41,1.68,1.68,0,0,1,.37,1.17v2.64h-.64V87.9c0-.74-.31-1.11-.94-1.11a1.18,1.18,0,0,0-.37,0,1,1,0,0,0-.32.14.75.75,0,0,0-.23.24.67.67,0,0,0-.08.35v2.87Z"/><path class="cls-3" d="M148.13,84.52h.64V87h0a1.19,1.19,0,0,1,.47-.58,1.42,1.42,0,0,1,.74-.18,1.55,1.55,0,0,1,.69.15,1.61,1.61,0,0,1,.54.43,2.27,2.27,0,0,1,.33.68,3.16,3.16,0,0,1,.12.9,3,3,0,0,1-.12.89,2.21,2.21,0,0,1-.33.69,1.61,1.61,0,0,1-.54.43,1.55,1.55,0,0,1-.69.15,1.25,1.25,0,0,1-1.21-.76h0v.66h-.64Zm1.7,5.45a1.09,1.09,0,0,0,.86-.34,1.28,1.28,0,0,0,.31-.9V88a1.27,1.27,0,0,0-.31-.89,1.09,1.09,0,0,0-.86-.34,1.4,1.4,0,0,0-.41.06,1.19,1.19,0,0,0-.34.16.9.9,0,0,0-.23.25.72.72,0,0,0-.08.32v1.55a.78.78,0,0,0,.08.35.75.75,0,0,0,.23.27,1,1,0,0,0,.34.16A1.4,1.4,0,0,0,149.83,90Z"/><path class="cls-3" d="M154.32,90.54a1.84,1.84,0,0,1-.76-.15A1.61,1.61,0,0,1,153,90a1.94,1.94,0,0,1-.37-.68,2.72,2.72,0,0,1-.14-.89,2.77,2.77,0,0,1,.14-.89,1.86,1.86,0,0,1,.37-.68,1.61,1.61,0,0,1,.59-.44,1.84,1.84,0,0,1,.76-.15,1.72,1.72,0,0,1,.74.15,1.56,1.56,0,0,1,.56.42,1.79,1.79,0,0,1,.36.63,2.64,2.64,0,0,1,.12.81v.3h-3v.19a1.29,1.29,0,0,0,.08.49,1.22,1.22,0,0,0,.24.4,1.19,1.19,0,0,0,.38.27,1.46,1.46,0,0,0,.52.09,1.19,1.19,0,0,0,1.14-.71l.45.33a1.64,1.64,0,0,1-.62.69A2,2,0,0,1,154.32,90.54Zm0-3.78a1.21,1.21,0,0,0-.48.09,1.05,1.05,0,0,0-.37.25,1.28,1.28,0,0,0-.25.4,1.31,1.31,0,0,0-.08.5v0h2.28V88a1.23,1.23,0,0,0-.3-.87A1,1,0,0,0,154.32,86.76Z"/><path class="cls-3" d="M160.16,90.44a.64.64,0,0,1-.52-.19.94.94,0,0,1-.19-.48h0a1.06,1.06,0,0,1-.45.58,1.48,1.48,0,0,1-.74.19,1.41,1.41,0,0,1-1-.34,1.16,1.16,0,0,1-.37-.91,1,1,0,0,1,.43-.9,2.35,2.35,0,0,1,1.33-.31h.82v-.41a.9.9,0,0,0-.24-.67,1.06,1.06,0,0,0-.74-.23,1.14,1.14,0,0,0-.63.17,1.52,1.52,0,0,0-.42.45L157,87a1.34,1.34,0,0,1,.54-.57,1.63,1.63,0,0,1,.92-.24,1.68,1.68,0,0,1,1.17.37,1.27,1.27,0,0,1,.42,1v2.27h.47v.56ZM158.32,90a1.52,1.52,0,0,0,.44,0,1.07,1.07,0,0,0,.34-.16.87.87,0,0,0,.23-.24.61.61,0,0,0,.08-.3v-.68h-.85a1.57,1.57,0,0,0-.8.16.52.52,0,0,0-.26.47v.16a.59.59,0,0,0,.22.48A1,1,0,0,0,158.32,90Z"/><path class="cls-3" d="M161.43,90.44V86.31h.64V87h0a1.43,1.43,0,0,1,.43-.56,1.27,1.27,0,0,1,.74-.2,1.29,1.29,0,0,1,1,.41,1.68,1.68,0,0,1,.38,1.17v2.64H164V87.9c0-.74-.32-1.11-.94-1.11a1.14,1.14,0,0,0-.37,0,1.22,1.22,0,0,0-.33.14.72.72,0,0,0-.22.24.68.68,0,0,0-.09.35v2.87Z"/><path class="cls-3" d="M166.89,90.44a.66.66,0,0,1-.51-.18.74.74,0,0,1-.17-.5V86.88h-.68v-.57h.38a.37.37,0,0,0,.29-.08.44.44,0,0,0,.07-.29v-.77h.58v1.14h.9v.57h-.9v3h.84v.56Z"/><path class="cls-3" d="M168.35,86.31H169l.44,1.79.44,1.81h0l.51-1.81.52-1.79h.56L172,88.1l.51,1.81h0L173,88.1l.45-1.79h.6l-1.1,4.13h-.79l-.57-2-.36-1.26h0l-.35,1.26-.58,2h-.77Z"/><path class="cls-3" d="M176.45,90.54a1.87,1.87,0,0,1-.76-.15,1.61,1.61,0,0,1-.59-.44,2.14,2.14,0,0,1-.38-.68,2.72,2.72,0,0,1-.14-.89,2.77,2.77,0,0,1,.14-.89,2,2,0,0,1,.38-.68,1.61,1.61,0,0,1,.59-.44,1.87,1.87,0,0,1,.76-.15,1.79,1.79,0,0,1,.75.15,1.61,1.61,0,0,1,.59.44,2.05,2.05,0,0,1,.39.68,2.77,2.77,0,0,1,.13.89,2.73,2.73,0,0,1-.13.89,2.16,2.16,0,0,1-.39.68,1.61,1.61,0,0,1-.59.44A1.79,1.79,0,0,1,176.45,90.54Zm0-.57a1.2,1.2,0,0,0,.85-.32,1.34,1.34,0,0,0,.32-1v-.59a1.33,1.33,0,0,0-.32-1,1.15,1.15,0,0,0-.85-.32,1.14,1.14,0,0,0-.85.32,1.29,1.29,0,0,0-.33,1v.59a1.3,1.3,0,0,0,.33,1A1.18,1.18,0,0,0,176.45,90Z"/><path class="cls-3" d="M179.37,90.44V86.31H180v.76h0a1.22,1.22,0,0,1,.4-.52,1.18,1.18,0,0,1,.79-.24h.25V87h-.38a1.43,1.43,0,0,0-.81.19.57.57,0,0,0-.29.49v2.8Z"/><path class="cls-3" d="M183.25,90.44a.66.66,0,0,1-.51-.18.69.69,0,0,1-.17-.5V86.88h-.68v-.57h.38a.39.39,0,0,0,.29-.08.44.44,0,0,0,.07-.29v-.77h.58v1.14h.9v.57h-.9v3h.84v.56Z"/><path class="cls-3" d="M186.67,90.54a1.84,1.84,0,0,1-.76-.15,1.69,1.69,0,0,1-.59-.44,1.94,1.94,0,0,1-.37-.68,2.72,2.72,0,0,1-.14-.89,2.77,2.77,0,0,1,.14-.89,1.86,1.86,0,0,1,.37-.68,1.69,1.69,0,0,1,.59-.44,1.84,1.84,0,0,1,.76-.15,1.72,1.72,0,0,1,.74.15,1.56,1.56,0,0,1,.56.42,1.79,1.79,0,0,1,.36.63,2.64,2.64,0,0,1,.12.81v.3h-3v.19a1.29,1.29,0,0,0,.08.49,1.22,1.22,0,0,0,.24.4,1.19,1.19,0,0,0,.38.27,1.46,1.46,0,0,0,.52.09,1.19,1.19,0,0,0,1.14-.71l.45.33a1.64,1.64,0,0,1-.62.69A1.92,1.92,0,0,1,186.67,90.54Zm0-3.78a1.21,1.21,0,0,0-.48.09,1.05,1.05,0,0,0-.37.25,1.28,1.28,0,0,0-.25.4,1.54,1.54,0,0,0-.08.5v0h2.28V88a1.23,1.23,0,0,0-.3-.87A1,1,0,0,0,186.67,86.76Z"/><path class="cls-3" d="M189.51,90.44V86.31h.64V87h0a1.43,1.43,0,0,1,.43-.56,1.25,1.25,0,0,1,.74-.2,1.3,1.3,0,0,1,1,.41,1.68,1.68,0,0,1,.37,1.17v2.64h-.64V87.9q0-1.11-.93-1.11a1.14,1.14,0,0,0-.37,0,1.22,1.22,0,0,0-.33.14.88.88,0,0,0-.23.24.78.78,0,0,0-.08.35v2.87Z"/><path class="cls-3" d="M113.5,102.88v-1.1h-2.7v-.59l2.34-3.9h1v3.93H115v.56h-.81v1.1Zm-2.07-1.66h2.07V97.81h0Z"/><path class="cls-3" d="M116.38,103a.46.46,0,0,1-.37-.13.49.49,0,0,1-.11-.33v-.11a.49.49,0,0,1,.11-.33.46.46,0,0,1,.37-.13.47.47,0,0,1,.38.13.49.49,0,0,1,.11.33v.11a.49.49,0,0,1-.11.33A.47.47,0,0,1,116.38,103Z"/><path class="cls-3" d="M123.6,102.88l-.56-1.65h-2.26l-.56,1.65h-.68l2-5.59h.85l2,5.59Zm-1.67-5h0l-1,2.71h1.93Z"/><path class="cls-3" d="M127.71,102.21h0a1.12,1.12,0,0,1-.16.28,1,1,0,0,1-.22.25,1,1,0,0,1-.33.17,1.53,1.53,0,0,1-.45.06,1.33,1.33,0,0,1-1-.41,1.68,1.68,0,0,1-.37-1.17V98.75h.64v2.54c0,.74.31,1.11.94,1.11a1.14,1.14,0,0,0,.37-.05,1,1,0,0,0,.32-.14.75.75,0,0,0,.23-.24.8.8,0,0,0,.08-.36V98.75h.64v4.13h-.64Z"/><path class="cls-3" d="M131,103a1.89,1.89,0,0,1-1-.22,2.21,2.21,0,0,1-.67-.59l.46-.36a1.76,1.76,0,0,0,.53.46,1.41,1.41,0,0,0,.69.17,1,1,0,0,0,.64-.18.59.59,0,0,0,.22-.49.62.62,0,0,0-.15-.42,1,1,0,0,0-.57-.23l-.32,0a2.57,2.57,0,0,1-.53-.13,1.4,1.4,0,0,1-.42-.22,1,1,0,0,1-.28-.35,1.07,1.07,0,0,1-.1-.49,1.22,1.22,0,0,1,.11-.53,1,1,0,0,1,.31-.38,1.22,1.22,0,0,1,.47-.23,2.14,2.14,0,0,1,.58-.08,1.74,1.74,0,0,1,.84.18,1.85,1.85,0,0,1,.6.48l-.42.39a1.4,1.4,0,0,0-.4-.35,1.35,1.35,0,0,0-.67-.16.88.88,0,0,0-.6.18.57.57,0,0,0-.21.47.47.47,0,0,0,.21.43,1.31,1.31,0,0,0,.59.2l.32,0a1.68,1.68,0,0,1,1,.4,1,1,0,0,1,.29.76,1.19,1.19,0,0,1-.41.95A1.67,1.67,0,0,1,131,103Z"/><path class="cls-3" d="M133.11,98.75h.63l.44,1.78.44,1.81h0l.51-1.81.52-1.78h.56l.54,1.78.51,1.81h0l.42-1.81.45-1.78h.6l-1.1,4.13h-.79l-.57-2-.36-1.26h0l-.35,1.26-.58,2h-.77Z"/><path class="cls-3" d="M141.21,103a1.92,1.92,0,0,1-.77-.15,1.66,1.66,0,0,1-.58-.44,2,2,0,0,1-.38-.68,3,3,0,0,1-.13-.89,3.13,3.13,0,0,1,.13-.89,2.14,2.14,0,0,1,.38-.68,1.66,1.66,0,0,1,.58-.44,1.92,1.92,0,0,1,.77-.15,1.75,1.75,0,0,1,.74.15,1.56,1.56,0,0,1,.56.42,2,2,0,0,1,.36.63,2.64,2.64,0,0,1,.12.81v.3h-3v.19a1.35,1.35,0,0,0,.09.5,1,1,0,0,0,.24.39,1.19,1.19,0,0,0,.38.27,1.42,1.42,0,0,0,.52.09,1.25,1.25,0,0,0,.68-.18,1.12,1.12,0,0,0,.45-.53l.46.33a1.53,1.53,0,0,1-.62.69A2,2,0,0,1,141.21,103Zm0-3.78a1.21,1.21,0,0,0-.48.09,1,1,0,0,0-.37.26,1.14,1.14,0,0,0-.25.39,1.35,1.35,0,0,0-.09.5v0h2.28v-.08a1.25,1.25,0,0,0-.3-.88A1,1,0,0,0,141.21,99.19Z"/><path class="cls-3" d="M144.05,102.88V98.75h.64v.76h0a1.18,1.18,0,0,1,1.19-.76h.25v.64h-.38a1.45,1.45,0,0,0-.81.19.59.59,0,0,0-.29.5v2.8Z"/><path class="cls-3" d="M147.92,102.88a.69.69,0,0,1-.51-.19.73.73,0,0,1-.17-.49V99.31h-.68v-.56H147a.36.36,0,0,0,.28-.09.42.42,0,0,0,.07-.29V97.6h.58v1.15h.9v.56h-.9v3h.84v.57Z"/><path class="cls-3" d="M152.36,102.21h0a1.56,1.56,0,0,1-.16.28,1.31,1.31,0,0,1-.22.25,1.29,1.29,0,0,1-.33.17,1.53,1.53,0,0,1-.45.06,1.33,1.33,0,0,1-1-.41,1.68,1.68,0,0,1-.37-1.17V98.75h.64v2.54c0,.74.31,1.11.94,1.11a1.14,1.14,0,0,0,.37-.05,1,1,0,0,0,.32-.14.75.75,0,0,0,.23-.24.8.8,0,0,0,.08-.36V98.75H153v4.13h-.64Z"/><path class="cls-3" d="M154.36,102.88V98.75H155v.66h0a1.33,1.33,0,0,1,.43-.55,1.18,1.18,0,0,1,.74-.21,1.3,1.3,0,0,1,1,.41,1.69,1.69,0,0,1,.37,1.17v2.65H157v-2.55c0-.74-.32-1.11-.94-1.11a1.5,1.5,0,0,0-.37,0,1.22,1.22,0,0,0-.33.14.92.92,0,0,0-.23.25.75.75,0,0,0-.08.35v2.87Z"/><path class="cls-3" d="M162.38,103.34a1,1,0,0,1-.5.93,3,3,0,0,1-1.5.3,2.85,2.85,0,0,1-1.39-.26.85.85,0,0,1-.42-.75.78.78,0,0,1,.17-.53,1.12,1.12,0,0,1,.48-.27v-.09a.6.6,0,0,1-.36-.57.57.57,0,0,1,.2-.48,1.21,1.21,0,0,1,.51-.24v0a1.29,1.29,0,0,1-.57-.51,1.38,1.38,0,0,1-.21-.76,1.4,1.4,0,0,1,.12-.58,1.17,1.17,0,0,1,.31-.45,1.28,1.28,0,0,1,.49-.29,2,2,0,0,1,1.42,0v-.07a.7.7,0,0,1,.11-.4.42.42,0,0,1,.37-.16h.61v.57h-.78V99a1.31,1.31,0,0,1,.35.46,1.48,1.48,0,0,1,.12.61,1.58,1.58,0,0,1-.11.58,1.28,1.28,0,0,1-.32.45,1.33,1.33,0,0,1-.49.29,1.83,1.83,0,0,1-.64.11,2.85,2.85,0,0,1-.4,0,1.12,1.12,0,0,0-.37.16.32.32,0,0,0-.17.3.25.25,0,0,0,.17.25,1.47,1.47,0,0,0,.46.06h.88a1.79,1.79,0,0,1,1.12.29A1,1,0,0,1,162.38,103.34Zm-.6,0a.49.49,0,0,0-.18-.4,1.13,1.13,0,0,0-.67-.14h-1.38a.58.58,0,0,0-.38.55.63.63,0,0,0,.2.47,1,1,0,0,0,.69.19h.6a1.63,1.63,0,0,0,.83-.17A.53.53,0,0,0,161.78,103.38ZM160.35,101a1,1,0,0,0,.65-.2.75.75,0,0,0,.24-.61V100a.74.74,0,0,0-.24-.61,1.16,1.16,0,0,0-1.3,0,.74.74,0,0,0-.24.61v.22a.75.75,0,0,0,.24.61A1,1,0,0,0,160.35,101Z"/><path class="cls-3" d="M168,102.88a.63.63,0,0,1-.52-.2,1,1,0,0,1-.2-.48h0a1.09,1.09,0,0,1-.44.58,1.39,1.39,0,0,1-.75.19,1.43,1.43,0,0,1-1-.34,1.17,1.17,0,0,1-.36-.91,1,1,0,0,1,.43-.89,2.24,2.24,0,0,1,1.33-.32h.81v-.4a.91.91,0,0,0-.24-.68,1,1,0,0,0-.73-.23,1.14,1.14,0,0,0-.63.17,1.3,1.3,0,0,0-.42.45l-.38-.36a1.38,1.38,0,0,1,.53-.57,2,2,0,0,1,2.1.13,1.26,1.26,0,0,1,.41,1v2.27h.48v.57Zm-1.84-.45a1.56,1.56,0,0,0,.44-.06,1.19,1.19,0,0,0,.34-.16.71.71,0,0,0,.22-.24.52.52,0,0,0,.08-.3V101h-.84a1.66,1.66,0,0,0-.81.15.53.53,0,0,0-.25.47v.17a.55.55,0,0,0,.22.47A1,1,0,0,0,166.18,102.43Z"/><path class="cls-3" d="M169.29,102.88V98.75h.64v.66h0a1.25,1.25,0,0,1,.43-.55,1.18,1.18,0,0,1,.74-.21,1.3,1.3,0,0,1,1,.41,1.69,1.69,0,0,1,.37,1.17v2.65h-.64v-2.55q0-1.11-.93-1.11a1.58,1.58,0,0,0-.38,0,1.15,1.15,0,0,0-.32.14.78.78,0,0,0-.23.25.75.75,0,0,0-.08.35v2.87Z"/><path class="cls-3" d="M175.07,103a1.89,1.89,0,0,1-1-.22,2.21,2.21,0,0,1-.67-.59l.46-.36a1.89,1.89,0,0,0,.53.46,1.41,1.41,0,0,0,.69.17,1,1,0,0,0,.64-.18.59.59,0,0,0,.22-.49.62.62,0,0,0-.15-.42,1,1,0,0,0-.57-.23l-.32,0a2.57,2.57,0,0,1-.53-.13,1.4,1.4,0,0,1-.42-.22,1,1,0,0,1-.28-.35,1.07,1.07,0,0,1-.1-.49,1.22,1.22,0,0,1,.11-.53A1,1,0,0,1,174,99a1.22,1.22,0,0,1,.47-.23,2.14,2.14,0,0,1,.58-.08,1.74,1.74,0,0,1,.84.18,1.85,1.85,0,0,1,.6.48l-.42.39a1.4,1.4,0,0,0-.4-.35,1.35,1.35,0,0,0-.67-.16.88.88,0,0,0-.6.18.57.57,0,0,0-.21.47.47.47,0,0,0,.21.43,1.31,1.31,0,0,0,.59.2l.32,0a1.68,1.68,0,0,1,1,.4,1,1,0,0,1,.29.76,1.19,1.19,0,0,1-.41.95A1.67,1.67,0,0,1,175.07,103Z"/><path class="cls-3" d="M179.28,103a1.84,1.84,0,0,1-.76-.15,1.61,1.61,0,0,1-.59-.44,1.86,1.86,0,0,1-.37-.68,2.72,2.72,0,0,1-.14-.89,2.81,2.81,0,0,1,.14-.89,1.94,1.94,0,0,1,.37-.68,1.61,1.61,0,0,1,.59-.44,1.84,1.84,0,0,1,.76-.15,1.75,1.75,0,0,1,.74.15,1.56,1.56,0,0,1,.56.42,1.79,1.79,0,0,1,.36.63,2.64,2.64,0,0,1,.12.81v.3h-3v.19a1.35,1.35,0,0,0,.08.5,1.28,1.28,0,0,0,.24.39,1.19,1.19,0,0,0,.38.27,1.46,1.46,0,0,0,.52.09,1.25,1.25,0,0,0,.68-.18,1.2,1.2,0,0,0,.46-.53l.45.33a1.53,1.53,0,0,1-.62.69A2,2,0,0,1,179.28,103Zm0-3.78a1.21,1.21,0,0,0-.48.09,1.08,1.08,0,0,0-.37.26,1.14,1.14,0,0,0-.25.39,1.35,1.35,0,0,0-.08.5v0h2.28v-.08a1.25,1.25,0,0,0-.3-.88A1,1,0,0,0,179.28,99.19Z"/><path class="cls-3" d="M182.12,97h.64v2.45h0a1.25,1.25,0,0,1,.43-.55,1.18,1.18,0,0,1,.74-.21,1.3,1.3,0,0,1,1,.41,1.69,1.69,0,0,1,.37,1.17v2.65h-.64v-2.55q0-1.11-.93-1.11a1.5,1.5,0,0,0-.37,0,1.22,1.22,0,0,0-.33.14.92.92,0,0,0-.23.25.75.75,0,0,0-.08.35v2.87h-.64Z"/><path class="cls-3" d="M188.22,103a1.89,1.89,0,0,1-.77-.15,1.57,1.57,0,0,1-.58-.44,1.88,1.88,0,0,1-.38-.68,2.73,2.73,0,0,1-.13-.89,2.82,2.82,0,0,1,.13-.89,2,2,0,0,1,.38-.68,1.57,1.57,0,0,1,.58-.44,1.89,1.89,0,0,1,.77-.15,1.78,1.78,0,0,1,.74.15,1.65,1.65,0,0,1,.56.42,1.93,1.93,0,0,1,.35.63,2.37,2.37,0,0,1,.13.81v.3h-3v.19a1.59,1.59,0,0,0,.08.5,1.14,1.14,0,0,0,.25.39,1.19,1.19,0,0,0,.38.27,1.38,1.38,0,0,0,.52.09,1.28,1.28,0,0,0,.68-.18,1.24,1.24,0,0,0,.45-.53l.46.33a1.55,1.55,0,0,1-.63.69A1.91,1.91,0,0,1,188.22,103Zm0-3.78a1.21,1.21,0,0,0-.48.09,1.12,1.12,0,0,0-.38.26,1.28,1.28,0,0,0-.24.39,1.35,1.35,0,0,0-.09.5v0h2.28v-.08a1.25,1.25,0,0,0-.3-.88A1,1,0,0,0,188.22,99.19Z"/><path class="cls-3" d="M191.05,102.88V98.75h.65v.66h0a1.25,1.25,0,0,1,.43-.55,1.17,1.17,0,0,1,.73-.21,1.33,1.33,0,0,1,1,.41,1.69,1.69,0,0,1,.37,1.17v2.65h-.64v-2.55c0-.74-.31-1.11-.94-1.11a1.5,1.5,0,0,0-.37,0,1,1,0,0,0-.32.14.68.68,0,0,0-.23.25.65.65,0,0,0-.08.35v2.87Z"/><path class="cls-3" d="M82.05,253.76l-.56-1.65H79.23l-.56,1.65H78l2-5.59h.85l2,5.59Zm-1.67-5h0l-1,2.71h1.93Z"/><path class="cls-3" d="M86.16,253.09h0a1.56,1.56,0,0,1-.16.28.9.9,0,0,1-.23.25,1.09,1.09,0,0,1-.32.17,1.53,1.53,0,0,1-.45.06,1.33,1.33,0,0,1-1-.41,1.68,1.68,0,0,1-.37-1.17v-2.64h.64v2.54c0,.74.31,1.11.94,1.11a1.14,1.14,0,0,0,.37-.05,1,1,0,0,0,.32-.14.66.66,0,0,0,.23-.24.8.8,0,0,0,.08-.36v-2.86h.64v4.13h-.64Z"/><path class="cls-3" d="M88.38,250.2h-.67v-.57h.67v-.83a1,1,0,0,1,.23-.7.83.83,0,0,1,.68-.26h.62v.56H89v1.23h.88v.57H89v3.56h-.65Z"/><path class="cls-4" d="M92.64,247.84h.64v2.45h0a1.33,1.33,0,0,1,.43-.55,1.18,1.18,0,0,1,.74-.21,1.3,1.3,0,0,1,1,.41,1.69,1.69,0,0,1,.37,1.17v2.65h-.63v-2.55c0-.74-.32-1.11-.94-1.11a1.5,1.5,0,0,0-.37.05,1.22,1.22,0,0,0-.33.14.92.92,0,0,0-.23.25.71.71,0,0,0-.08.34v2.88h-.64Z"/><path class="cls-4" d="M98.1,253.76a.66.66,0,0,1-.51-.19.68.68,0,0,1-.17-.49V250.2h-.68v-.57h.38a.39.39,0,0,0,.29-.09.42.42,0,0,0,.07-.29v-.77h.58v1.15H99v.57h-.9v3h.84v.57Z"/><path class="cls-4" d="M100.84,253.76a.69.69,0,0,1-.51-.19.73.73,0,0,1-.17-.49V250.2h-.68v-.57h.38a.37.37,0,0,0,.29-.09.42.42,0,0,0,.08-.29v-.77h.57v1.15h.9v.57h-.9v3h.84v.57Z"/><path class="cls-4" d="M102.74,249.63h.64v.66h0a1.12,1.12,0,0,1,.47-.57,1.34,1.34,0,0,1,.74-.19,1.55,1.55,0,0,1,.69.15,1.52,1.52,0,0,1,.54.44,2.05,2.05,0,0,1,.33.68,3,3,0,0,1,.12.89,3.16,3.16,0,0,1-.12.9,2.27,2.27,0,0,1-.33.68,1.61,1.61,0,0,1-.54.43,1.55,1.55,0,0,1-.69.15,1.24,1.24,0,0,1-1.21-.76h0v2.26h-.64Zm1.7,3.65a1.11,1.11,0,0,0,.86-.34,1.25,1.25,0,0,0,.31-.89v-.71a1.28,1.28,0,0,0-.31-.9,1.11,1.11,0,0,0-.86-.34,1.4,1.4,0,0,0-.41.06,1.07,1.07,0,0,0-.34.16.82.82,0,0,0-.23.26.68.68,0,0,0-.08.31v1.55a.86.86,0,0,0,.08.36.82.82,0,0,0,.23.26,1.08,1.08,0,0,0,.34.17A1.84,1.84,0,0,0,104.44,253.28Z"/><path class="cls-4" d="M108.62,253.85a1.91,1.91,0,0,1-1-.22A2.07,2.07,0,0,1,107,253l.45-.37a1.7,1.7,0,0,0,.54.47,1.34,1.34,0,0,0,.68.17,1,1,0,0,0,.64-.18.6.6,0,0,0,.23-.5.57.57,0,0,0-.16-.41,1,1,0,0,0-.56-.23l-.33-.05a2.74,2.74,0,0,1-.53-.13,1.4,1.4,0,0,1-.42-.22,1,1,0,0,1-.28-.35,1.22,1.22,0,0,1-.1-.49,1.3,1.3,0,0,1,.11-.54,1.12,1.12,0,0,1,.31-.37,1.22,1.22,0,0,1,.47-.23,2.2,2.2,0,0,1,.58-.08,1.81,1.81,0,0,1,.85.18,1.85,1.85,0,0,1,.6.49l-.43.38a1.27,1.27,0,0,0-.4-.35,1.32,1.32,0,0,0-.66-.15.91.91,0,0,0-.61.17.58.58,0,0,0-.2.46.52.52,0,0,0,.2.45,1.51,1.51,0,0,0,.59.19l.32.05a1.72,1.72,0,0,1,1,.4,1,1,0,0,1,.29.76,1.19,1.19,0,0,1-.41.95A1.7,1.7,0,0,1,108.62,253.85Z"/><path class="cls-4" d="M111.76,250.6a.46.46,0,0,1-.37-.13.45.45,0,0,1-.12-.33V250a.47.47,0,0,1,.12-.34.46.46,0,0,1,.37-.13.45.45,0,0,1,.37.13.47.47,0,0,1,.12.34v.1a.43.43,0,0,1-.49.46Zm0,3.25a.46.46,0,0,1-.37-.13.45.45,0,0,1-.12-.33v-.11a.45.45,0,0,1,.12-.33.46.46,0,0,1,.37-.13.43.43,0,0,1,.49.46v.11a.43.43,0,0,1-.49.46Z"/><path class="cls-4" d="M113,255l2.09-7.12h.57L113.58,255Z"/><path class="cls-4" d="M115.1,255l2.09-7.12h.58L115.68,255Z"/><path class="cls-4" d="M120,253.85a1.91,1.91,0,0,1-1-.22,2.21,2.21,0,0,1-.67-.59l.46-.37a1.7,1.7,0,0,0,.54.47,1.34,1.34,0,0,0,.68.17,1,1,0,0,0,.64-.18.6.6,0,0,0,.23-.5.57.57,0,0,0-.16-.41,1,1,0,0,0-.56-.23l-.33-.05a2.74,2.74,0,0,1-.53-.13,1.4,1.4,0,0,1-.42-.22,1,1,0,0,1-.28-.35,1.22,1.22,0,0,1-.1-.49,1.3,1.3,0,0,1,.11-.54,1.12,1.12,0,0,1,.31-.37,1.22,1.22,0,0,1,.47-.23,2.21,2.21,0,0,1,.59-.08,1.8,1.8,0,0,1,.84.18,1.72,1.72,0,0,1,.59.49l-.42.38a1.27,1.27,0,0,0-.4-.35,1.34,1.34,0,0,0-.66-.15.91.91,0,0,0-.61.17.58.58,0,0,0-.2.46.52.52,0,0,0,.2.45,1.51,1.51,0,0,0,.59.19l.32.05a1.72,1.72,0,0,1,1,.4,1,1,0,0,1,.28.76,1.18,1.18,0,0,1-.4.95A1.7,1.7,0,0,1,120,253.85Z"/><path class="cls-4" d="M125.22,253.09h0a1.51,1.51,0,0,1-.15.28,1.09,1.09,0,0,1-.23.25,1,1,0,0,1-.33.17,1.46,1.46,0,0,1-.44.06,1.33,1.33,0,0,1-1-.41,1.68,1.68,0,0,1-.38-1.17v-2.64h.64v2.54c0,.74.32,1.11,1,1.11a1.18,1.18,0,0,0,.37-.05,1,1,0,0,0,.32-.14.64.64,0,0,0,.22-.24.69.69,0,0,0,.09-.36v-2.86h.64v4.13h-.64Z"/><path class="cls-4" d="M127.22,253.76v-4.13h.64v.76h0a1.12,1.12,0,0,1,.4-.53,1.18,1.18,0,0,1,.79-.23h.25v.64H129a1.43,1.43,0,0,0-.81.19.57.57,0,0,0-.29.5v2.8Z"/><path class="cls-4" d="M131.14,253.76l-1.45-4.13h.64l.72,2,.45,1.41h0l.44-1.41.74-2h.62l-1.46,4.13Z"/><path class="cls-4" d="M135.66,253.85a1.89,1.89,0,0,1-.77-.15,1.66,1.66,0,0,1-.58-.44,2,2,0,0,1-.38-.68,2.73,2.73,0,0,1-.13-.89,2.82,2.82,0,0,1,.13-.89,2.14,2.14,0,0,1,.38-.68,1.66,1.66,0,0,1,.58-.44,1.89,1.89,0,0,1,.77-.15,1.78,1.78,0,0,1,.74.15,1.56,1.56,0,0,1,.56.42,2.16,2.16,0,0,1,.36.63,2.64,2.64,0,0,1,.12.81v.3h-3v.2a1.33,1.33,0,0,0,.09.49,1,1,0,0,0,.24.39,1.05,1.05,0,0,0,.38.27,1.38,1.38,0,0,0,.52.09,1.25,1.25,0,0,0,.68-.18,1.18,1.18,0,0,0,.45-.53l.46.33a1.5,1.5,0,0,1-.63.69A1.88,1.88,0,0,1,135.66,253.85Zm0-3.78a1.21,1.21,0,0,0-.48.09,1.12,1.12,0,0,0-.38.26,1.28,1.28,0,0,0-.24.39,1.35,1.35,0,0,0-.09.5v.05h2.28v-.08a1.25,1.25,0,0,0-.3-.88A1,1,0,0,0,135.66,250.07Z"/><path class="cls-4" d="M141,249.63h.63l-1.85,5.08a1.29,1.29,0,0,1-.14.31.59.59,0,0,1-.18.2.57.57,0,0,1-.26.1,2,2,0,0,1-.38,0h-.32v-.56h.65l.31-.88-1.55-4.28h.64l1,2.8.2.67h0l.22-.67Z"/><path class="cls-4" d="M142.42,253.85a.42.42,0,0,1-.49-.46v-.11a.42.42,0,0,1,.49-.46.46.46,0,0,1,.37.13.45.45,0,0,1,.12.33v.11a.45.45,0,0,1-.12.33A.46.46,0,0,1,142.42,253.85Z"/><path class="cls-4" d="M144.5,248.66a.4.4,0,0,1-.3-.1.37.37,0,0,1-.09-.26v-.1a.4.4,0,0,1,.09-.27.45.45,0,0,1,.3-.09.41.41,0,0,1,.3.09.36.36,0,0,1,.1.27v.1a.34.34,0,0,1-.1.26A.38.38,0,0,1,144.5,248.66Zm-.32,1h.64v4.13h-.64Z"/><path class="cls-4" d="M146.18,253.76v-4.13h.64v.66h0a1.31,1.31,0,0,1,.42-.55,1.2,1.2,0,0,1,.74-.21,1.33,1.33,0,0,1,1,.41,1.74,1.74,0,0,1,.37,1.17v2.65h-.64v-2.55c0-.74-.31-1.11-.94-1.11a1.5,1.5,0,0,0-.37.05,1,1,0,0,0-.32.14.68.68,0,0,0-.23.25.62.62,0,0,0-.09.34v2.88Z"/><path class="cls-4" d="M150.73,253.76v-4.13h.64v.66h0a1.25,1.25,0,0,1,.43-.55,1.18,1.18,0,0,1,.74-.21,1.32,1.32,0,0,1,1,.41,1.69,1.69,0,0,1,.37,1.17v2.65h-.64v-2.55q0-1.11-.93-1.11a1.58,1.58,0,0,0-.38.05,1.15,1.15,0,0,0-.32.14.78.78,0,0,0-.23.25.71.71,0,0,0-.08.34v2.88Z"/><path class="cls-4" d="M156.83,253.85a1.87,1.87,0,0,1-.76-.15,1.69,1.69,0,0,1-.59-.44,2.23,2.23,0,0,1-.38-.68,2.73,2.73,0,0,1-.13-.89,2.82,2.82,0,0,1,.13-.89,2.35,2.35,0,0,1,.38-.68,1.69,1.69,0,0,1,.59-.44,2,2,0,0,1,1.52,0,1.69,1.69,0,0,1,.59.44,2.14,2.14,0,0,1,.38.68,2.81,2.81,0,0,1,.14.89,2.72,2.72,0,0,1-.14.89,2,2,0,0,1-.38.68,1.69,1.69,0,0,1-.59.44A1.87,1.87,0,0,1,156.83,253.85Zm0-.57a1.14,1.14,0,0,0,.85-.32,1.29,1.29,0,0,0,.33-1v-.6a1.29,1.29,0,0,0-.33-1,1.18,1.18,0,0,0-.85-.32,1.2,1.2,0,0,0-.85.32,1.33,1.33,0,0,0-.32,1v.6a1.33,1.33,0,0,0,.32,1A1.15,1.15,0,0,0,156.83,253.28Z"/><path class="cls-4" d="M159.3,253.76v-.55l2.35-3h-2.27v-.57h3v.48L160,253.19h2.46v.57Z"/><path class="cls-4" d="M164,253.85a.46.46,0,0,1-.37-.13.45.45,0,0,1-.12-.33v-.11a.45.45,0,0,1,.12-.33.59.59,0,0,1,.74,0,.45.45,0,0,1,.12.33v.11a.45.45,0,0,1-.12.33A.46.46,0,0,1,164,253.85Z"/><path class="cls-4" d="M167,253.85a1.91,1.91,0,0,1-1-.22,2.07,2.07,0,0,1-.66-.59l.45-.37a1.7,1.7,0,0,0,.54.47,1.38,1.38,0,0,0,.69.17,1,1,0,0,0,.63-.18.6.6,0,0,0,.23-.5.57.57,0,0,0-.16-.41,1,1,0,0,0-.56-.23l-.33-.05a2.74,2.74,0,0,1-.53-.13,1.4,1.4,0,0,1-.42-.22,1,1,0,0,1-.28-.35,1.22,1.22,0,0,1-.1-.49,1.16,1.16,0,0,1,.12-.54,1,1,0,0,1,.3-.37,1.22,1.22,0,0,1,.47-.23,2.21,2.21,0,0,1,.59-.08,1.8,1.8,0,0,1,.84.18,1.85,1.85,0,0,1,.6.49l-.43.38a1.27,1.27,0,0,0-.4-.35,1.32,1.32,0,0,0-.66-.15.91.91,0,0,0-.61.17.58.58,0,0,0-.2.46.52.52,0,0,0,.2.45,1.57,1.57,0,0,0,.59.19l.32.05a1.69,1.69,0,0,1,1,.4,1,1,0,0,1,.29.76,1.19,1.19,0,0,1-.41.95A1.68,1.68,0,0,1,167,253.85Z"/><path class="cls-4" d="M169.62,249.63h.64v.66h0a1.11,1.11,0,0,1,.46-.57,1.38,1.38,0,0,1,.74-.19,1.6,1.6,0,0,1,.7.15,1.49,1.49,0,0,1,.53.44,1.89,1.89,0,0,1,.34.68,3.06,3.06,0,0,1,.11.89,3.17,3.17,0,0,1-.11.9,2.07,2.07,0,0,1-.34.68,1.57,1.57,0,0,1-.53.43,1.6,1.6,0,0,1-.7.15,1.23,1.23,0,0,1-1.2-.76h0v2.26h-.64Zm1.71,3.65a1.07,1.07,0,0,0,.85-.34,1.26,1.26,0,0,0,.32-.89v-.71a1.29,1.29,0,0,0-.32-.9,1.07,1.07,0,0,0-.85-.34,1.35,1.35,0,0,0-.41.06,1,1,0,0,0-.34.16.71.71,0,0,0-.23.26.59.59,0,0,0-.09.31v1.55a.74.74,0,0,0,.09.36.71.71,0,0,0,.23.26,1,1,0,0,0,.34.17A1.77,1.77,0,0,0,171.33,253.28Z"/><path class="cls-4" d="M177.26,253.76a.61.61,0,0,1-.51-.2,1,1,0,0,1-.2-.48h0a1.06,1.06,0,0,1-.45.58,1.34,1.34,0,0,1-.74.19,1.41,1.41,0,0,1-1-.34,1.17,1.17,0,0,1-.36-.91,1,1,0,0,1,.42-.89,2.28,2.28,0,0,1,1.34-.32h.81V251a.91.91,0,0,0-.24-.68,1,1,0,0,0-.73-.23,1.11,1.11,0,0,0-.63.17,1.3,1.3,0,0,0-.42.45l-.39-.36a1.47,1.47,0,0,1,.54-.57,1.65,1.65,0,0,1,.93-.24,1.69,1.69,0,0,1,1.17.37,1.3,1.3,0,0,1,.41,1v2.27h.47v.57Zm-1.84-.45a1.51,1.51,0,0,0,.44-.06,1.13,1.13,0,0,0,.35-.16.83.83,0,0,0,.22-.24.61.61,0,0,0,.08-.3v-.67h-.85a1.52,1.52,0,0,0-.8.16.5.5,0,0,0-.25.46v.17a.55.55,0,0,0,.22.47A.94.94,0,0,0,175.42,253.31Z"/><path class="cls-4" d="M180.07,253.85a1.86,1.86,0,0,1-.77-.15,1.57,1.57,0,0,1-.58-.43,1.93,1.93,0,0,1-.36-.68,2.84,2.84,0,0,1-.13-.9,2.73,2.73,0,0,1,.13-.89,1.77,1.77,0,0,1,.36-.68,1.49,1.49,0,0,1,.58-.44,1.86,1.86,0,0,1,.77-.15,1.66,1.66,0,0,1,1,.27,1.58,1.58,0,0,1,.55.7l-.53.27a1,1,0,0,0-.37-.5,1.15,1.15,0,0,0-.64-.17,1.28,1.28,0,0,0-.5.09.88.88,0,0,0-.36.26,1.07,1.07,0,0,0-.22.39,1.59,1.59,0,0,0-.07.5v.7a1.34,1.34,0,0,0,.29.89,1,1,0,0,0,.86.35,1.16,1.16,0,0,0,1.12-.72l.47.32a1.8,1.8,0,0,1-.6.71A1.78,1.78,0,0,1,180.07,253.85Z"/><path class="cls-4" d="M184.06,253.85a1.87,1.87,0,0,1-.76-.15,1.69,1.69,0,0,1-.59-.44,2,2,0,0,1-.37-.68,2.73,2.73,0,0,1-.13-.89,2.82,2.82,0,0,1,.13-.89,2.12,2.12,0,0,1,.37-.68,1.69,1.69,0,0,1,.59-.44,1.87,1.87,0,0,1,.76-.15,1.79,1.79,0,0,1,.75.15,1.65,1.65,0,0,1,.56.42,1.93,1.93,0,0,1,.35.63,2.37,2.37,0,0,1,.13.81v.3h-3v.2a1.57,1.57,0,0,0,.08.49,1.28,1.28,0,0,0,.24.39,1.09,1.09,0,0,0,.39.27,1.36,1.36,0,0,0,.51.09,1.31,1.31,0,0,0,.69-.18,1.24,1.24,0,0,0,.45-.53l.46.33a1.61,1.61,0,0,1-.63.69A1.92,1.92,0,0,1,184.06,253.85Zm0-3.78a1.28,1.28,0,0,0-.48.09,1.18,1.18,0,0,0-.37.26,1.28,1.28,0,0,0-.24.39,1.35,1.35,0,0,0-.09.5v.05h2.28v-.08a1.25,1.25,0,0,0-.3-.88A1,1,0,0,0,184.06,250.07Z"/><path class="cls-3" d="M188.77,247.84h.64v3.75h0l.63-.71,1.17-1.25H192l-1.53,1.63,1.68,2.5h-.77L190,251.65l-.62.63v1.48h-.64Z"/><path class="cls-3" d="M194.41,253.85a1.83,1.83,0,0,1-.75-.15,1.61,1.61,0,0,1-.59-.44,1.88,1.88,0,0,1-.38-.68,2.72,2.72,0,0,1-.14-.89,2.81,2.81,0,0,1,.14-.89,2,2,0,0,1,.38-.68,1.61,1.61,0,0,1,.59-.44,1.83,1.83,0,0,1,.75-.15,1.87,1.87,0,0,1,.76.15,1.69,1.69,0,0,1,.59.44,2.14,2.14,0,0,1,.38.68,2.81,2.81,0,0,1,.14.89,2.72,2.72,0,0,1-.14.89,2,2,0,0,1-.38.68,1.69,1.69,0,0,1-.59.44A1.87,1.87,0,0,1,194.41,253.85Zm0-.57a1.14,1.14,0,0,0,.85-.32,1.29,1.29,0,0,0,.33-1v-.6a1.29,1.29,0,0,0-.33-1,1.18,1.18,0,0,0-.85-.32,1.15,1.15,0,0,0-.84.32,1.29,1.29,0,0,0-.33,1v.6a1.29,1.29,0,0,0,.33,1A1.12,1.12,0,0,0,194.41,253.28Zm-.73-4.47a.38.38,0,0,1-.3-.1.4.4,0,0,1-.09-.27v-.09a.36.36,0,0,1,.09-.26.5.5,0,0,1,.6,0,.36.36,0,0,1,.09.26v.09a.4.4,0,0,1-.09.27A.38.38,0,0,1,193.68,248.81Zm1.49,0a.38.38,0,0,1-.3-.1.41.41,0,0,1-.1-.27v-.09a.36.36,0,0,1,.1-.26.5.5,0,0,1,.6,0,.36.36,0,0,1,.09.26v.09a.4.4,0,0,1-.09.27A.38.38,0,0,1,195.17,248.81Z"/><path class="cls-3" d="M197.33,253.76v-4.13H198v.66h0a1.25,1.25,0,0,1,.43-.55,1.17,1.17,0,0,1,.73-.21,1.33,1.33,0,0,1,1,.41,1.69,1.69,0,0,1,.37,1.17v2.65h-.64v-2.55c0-.74-.31-1.11-.94-1.11a1.57,1.57,0,0,0-.37.05,1,1,0,0,0-.32.14.68.68,0,0,0-.23.25.61.61,0,0,0-.08.34v2.88Z"/><path class="cls-3" d="M201.88,253.76v-4.13h.64v.66h0a1.25,1.25,0,0,1,.43-.55,1.18,1.18,0,0,1,.74-.21,1.3,1.3,0,0,1,1,.41,1.69,1.69,0,0,1,.37,1.17v2.65h-.64v-2.55q0-1.11-.93-1.11a1.5,1.5,0,0,0-.37.05,1.1,1.1,0,0,0-.33.14.92.92,0,0,0-.23.25.71.71,0,0,0-.08.34v2.88Z"/><path class="cls-3" d="M208,253.85a1.89,1.89,0,0,1-.77-.15,1.57,1.57,0,0,1-.58-.44,1.88,1.88,0,0,1-.38-.68,2.73,2.73,0,0,1-.13-.89,2.82,2.82,0,0,1,.13-.89,2,2,0,0,1,.38-.68,1.57,1.57,0,0,1,.58-.44,1.89,1.89,0,0,1,.77-.15,1.78,1.78,0,0,1,.74.15,1.65,1.65,0,0,1,.56.42,1.93,1.93,0,0,1,.35.63,2.37,2.37,0,0,1,.13.81v.3h-3v.2a1.57,1.57,0,0,0,.08.49,1.28,1.28,0,0,0,.24.39,1.19,1.19,0,0,0,.39.27,1.38,1.38,0,0,0,.52.09,1.28,1.28,0,0,0,.68-.18,1.24,1.24,0,0,0,.45-.53l.46.33a1.55,1.55,0,0,1-.63.69A1.91,1.91,0,0,1,208,253.85Zm0-3.78a1.3,1.3,0,0,0-.49.09,1.18,1.18,0,0,0-.37.26,1.28,1.28,0,0,0-.24.39,1.35,1.35,0,0,0-.09.5v.05h2.28v-.08a1.25,1.25,0,0,0-.3-.88A1,1,0,0,0,208,250.07Z"/><path class="cls-3" d="M210.81,253.76v-4.13h.64v.66h0a1.31,1.31,0,0,1,.42-.55,1.22,1.22,0,0,1,.74-.21,1.33,1.33,0,0,1,1,.41,1.74,1.74,0,0,1,.37,1.17v2.65h-.64v-2.55c0-.74-.31-1.11-.94-1.11a1.5,1.5,0,0,0-.37.05,1,1,0,0,0-.32.14.68.68,0,0,0-.23.25.62.62,0,0,0-.09.34v2.88Z"/><path class="cls-3" d="M218.88,253.85a2.42,2.42,0,0,1-1.16-.26,2.52,2.52,0,0,1-.82-.71l.5-.42a2.1,2.1,0,0,0,.65.59,1.67,1.67,0,0,0,.85.21,1.33,1.33,0,0,0,.92-.29,1,1,0,0,0,.31-.77.78.78,0,0,0-.24-.61,1.77,1.77,0,0,0-.79-.35l-.45-.1a2.76,2.76,0,0,1-1.18-.53,1.27,1.27,0,0,1-.4-1,1.38,1.38,0,0,1,.14-.65,1.2,1.2,0,0,1,.38-.48,1.68,1.68,0,0,1,.58-.3,3,3,0,0,1,.75-.09,2.27,2.27,0,0,1,1.08.23,2.08,2.08,0,0,1,.77.68l-.51.36a1.57,1.57,0,0,0-1.37-.68,1.43,1.43,0,0,0-.85.22.83.83,0,0,0-.31.69.71.71,0,0,0,.26.6,2,2,0,0,0,.79.33l.46.1a2.36,2.36,0,0,1,1.19.56,1.36,1.36,0,0,1,.37,1,1.94,1.94,0,0,1-.13.7,1.43,1.43,0,0,1-.38.52,1.72,1.72,0,0,1-.61.34A2.45,2.45,0,0,1,218.88,253.85Z"/><path class="cls-3" d="M222.21,248.66a.39.39,0,0,1-.3-.1.37.37,0,0,1-.09-.26v-.1a.4.4,0,0,1,.09-.27.43.43,0,0,1,.3-.09.41.41,0,0,1,.3.09.41.41,0,0,1,.1.27v.1a.38.38,0,0,1-.1.26A.38.38,0,0,1,222.21,248.66Zm-.32,1h.64v4.13h-.64Z"/><path class="cls-3" d="M225.45,253.85a1.89,1.89,0,0,1-.77-.15,1.57,1.57,0,0,1-.58-.44,2,2,0,0,1-.38-.68,2.73,2.73,0,0,1-.13-.89,2.82,2.82,0,0,1,.13-.89,2.14,2.14,0,0,1,.38-.68,1.57,1.57,0,0,1,.58-.44,1.89,1.89,0,0,1,.77-.15,1.78,1.78,0,0,1,.74.15,1.65,1.65,0,0,1,.56.42,2.16,2.16,0,0,1,.36.63,2.64,2.64,0,0,1,.12.81v.3h-3v.2a1.33,1.33,0,0,0,.09.49,1,1,0,0,0,.24.39,1.05,1.05,0,0,0,.38.27,1.38,1.38,0,0,0,.52.09,1.17,1.17,0,0,0,1.13-.71l.46.33a1.55,1.55,0,0,1-.63.69A1.91,1.91,0,0,1,225.45,253.85Zm0-3.78a1.21,1.21,0,0,0-.48.09,1.12,1.12,0,0,0-.38.26,1.28,1.28,0,0,0-.24.39,1.35,1.35,0,0,0-.09.5v.05h2.28v-.08a1.25,1.25,0,0,0-.3-.88A1,1,0,0,0,225.45,250.07Z"/><path class="cls-3" d="M70.15,263.45a1.91,1.91,0,0,1-1-.22,2.21,2.21,0,0,1-.67-.59l.46-.37a1.78,1.78,0,0,0,.53.47,1.41,1.41,0,0,0,.69.17,1,1,0,0,0,.64-.18.6.6,0,0,0,.23-.5.62.62,0,0,0-.16-.41,1,1,0,0,0-.56-.23l-.33,0a2.74,2.74,0,0,1-.53-.13,1.4,1.4,0,0,1-.42-.22,1,1,0,0,1-.28-.35,1.07,1.07,0,0,1-.1-.49,1.3,1.3,0,0,1,.11-.54,1.26,1.26,0,0,1,.31-.38,1.36,1.36,0,0,1,.47-.22,2.2,2.2,0,0,1,.58-.08,1.71,1.71,0,0,1,1.44.67l-.42.38a1.16,1.16,0,0,0-.4-.35,1.34,1.34,0,0,0-.66-.16.91.91,0,0,0-.61.18.55.55,0,0,0-.2.46.5.5,0,0,0,.2.45,1.51,1.51,0,0,0,.59.19l.32.05a1.72,1.72,0,0,1,1,.4,1,1,0,0,1,.28.76,1.18,1.18,0,0,1-.4.95A1.7,1.7,0,0,1,70.15,263.45Z"/><path class="cls-3" d="M73.12,258.26a.33.33,0,0,1-.39-.36v-.1a.4.4,0,0,1,.09-.27.5.5,0,0,1,.6,0,.4.4,0,0,1,.09.27v.1a.33.33,0,0,1-.39.36Zm-.32,1h.64v4.12H72.8Z"/><path class="cls-3" d="M76.34,263.45a1.94,1.94,0,0,1-.78-.15,1.66,1.66,0,0,1-.58-.43,1.93,1.93,0,0,1-.36-.68,3.44,3.44,0,0,1,0-1.8,1.93,1.93,0,0,1,.36-.68,1.66,1.66,0,0,1,.58-.43,1.94,1.94,0,0,1,.78-.15,1.55,1.55,0,0,1,1.54,1l-.53.27a1,1,0,0,0-.37-.5,1.17,1.17,0,0,0-.64-.17,1.36,1.36,0,0,0-.51.09,1,1,0,0,0-.36.26,1.22,1.22,0,0,0-.21.39,1.59,1.59,0,0,0-.07.5v.7a1.29,1.29,0,0,0,.29.89,1,1,0,0,0,.86.35,1.17,1.17,0,0,0,1.12-.72l.46.31a1.62,1.62,0,0,1-.6.72A1.76,1.76,0,0,1,76.34,263.45Z"/><path class="cls-3" d="M78.82,257.43h.64v2.46h0a1.31,1.31,0,0,1,.42-.55,1.22,1.22,0,0,1,.74-.21,1.33,1.33,0,0,1,1,.41,1.74,1.74,0,0,1,.37,1.17v2.64h-.64v-2.54c0-.74-.31-1.11-.94-1.11a1.18,1.18,0,0,0-.37.05,1,1,0,0,0-.32.14.78.78,0,0,0-.23.25.62.62,0,0,0-.09.34v2.87h-.64Z"/><path class="cls-3" d="M85.06,263.35v-.55h.78v-4.47h-.78v-.56H87.3v.56h-.79v4.47h.79v.55Z"/><path class="cls-3" d="M88.46,257.43h.64v2.46h0a1.25,1.25,0,0,1,.43-.55,1.18,1.18,0,0,1,.74-.21,1.32,1.32,0,0,1,1,.41,1.69,1.69,0,0,1,.37,1.17v2.64H91v-2.54q0-1.11-.93-1.11a1.2,1.2,0,0,0-.38.05,1.15,1.15,0,0,0-.32.14.78.78,0,0,0-.23.25.71.71,0,0,0-.08.34v2.87h-.64Z"/><path class="cls-3" d="M93,263.35v-4.12h.64V260h0a1.27,1.27,0,0,1,.4-.53,1.2,1.2,0,0,1,.79-.23h.25v.64h-.38a1.47,1.47,0,0,0-.81.19.59.59,0,0,0-.29.49v2.8Z"/><path class="cls-3" d="M97.46,263.45a1.89,1.89,0,0,1-.77-.15,1.66,1.66,0,0,1-.58-.44,2,2,0,0,1-.38-.68,3,3,0,0,1-.13-.89,3.08,3.08,0,0,1,.13-.89,2.14,2.14,0,0,1,.38-.68,1.66,1.66,0,0,1,.58-.44,1.89,1.89,0,0,1,.77-.15,1.78,1.78,0,0,1,.74.15,1.56,1.56,0,0,1,.56.42,2,2,0,0,1,.36.63,2.64,2.64,0,0,1,.12.81v.3h-3v.19a1.39,1.39,0,0,0,.09.5,1,1,0,0,0,.24.39,1.19,1.19,0,0,0,.38.27,1.42,1.42,0,0,0,.52.09,1.25,1.25,0,0,0,.68-.18,1.12,1.12,0,0,0,.45-.53l.46.33a1.58,1.58,0,0,1-.62.69A2,2,0,0,1,97.46,263.45Zm0-3.78a1.21,1.21,0,0,0-.48.09,1,1,0,0,0-.37.26,1.14,1.14,0,0,0-.25.39,1.35,1.35,0,0,0-.09.5v0h2.28v-.08a1.25,1.25,0,0,0-.3-.88A1,1,0,0,0,97.46,259.67Z"/><path class="cls-3" d="M105.86,263.35h-4.07v-.6l3.23-4.39H102v-.59h3.78v.61l-3.23,4.38h3.35Z"/><path class="cls-3" d="M109.33,262.69h0a2.54,2.54,0,0,1-.16.28,1.09,1.09,0,0,1-.23.25,1.28,1.28,0,0,1-.33.17,1.42,1.42,0,0,1-.44.06,1.33,1.33,0,0,1-1-.41,1.68,1.68,0,0,1-.38-1.17v-2.64h.64v2.54c0,.74.32,1.11,1,1.11a1.14,1.14,0,0,0,.37-.05,1,1,0,0,0,.32-.14.64.64,0,0,0,.22-.24.69.69,0,0,0,.09-.36v-2.86H110v4.12h-.64Z"/><path class="cls-3" d="M112.57,263.45a1.87,1.87,0,0,1-1-.22,2.1,2.1,0,0,1-.67-.59l.45-.37a1.7,1.7,0,0,0,.54.47,1.41,1.41,0,0,0,.69.17,1,1,0,0,0,.63-.18.63.63,0,0,0,.07-.91,1,1,0,0,0-.56-.23l-.33,0a2.64,2.64,0,0,1-.52-.13,1.29,1.29,0,0,1-.42-.22.9.9,0,0,1-.29-.35,1.22,1.22,0,0,1-.09-.49,1.16,1.16,0,0,1,.11-.54,1,1,0,0,1,.31-.38,1.31,1.31,0,0,1,.46-.22,2.21,2.21,0,0,1,.59-.08,1.8,1.8,0,0,1,.84.18,1.75,1.75,0,0,1,.6.49l-.43.38a1.16,1.16,0,0,0-.4-.35,1.29,1.29,0,0,0-.66-.16.91.91,0,0,0-.61.18.58.58,0,0,0-.2.46.52.52,0,0,0,.2.45,1.57,1.57,0,0,0,.59.19l.32.05a1.69,1.69,0,0,1,1,.4,1,1,0,0,1,.29.76,1.19,1.19,0,0,1-.41.95A1.68,1.68,0,0,1,112.57,263.45Z"/><path class="cls-3" d="M118.23,263.35a.62.62,0,0,1-.52-.19,1,1,0,0,1-.2-.48h0a1.09,1.09,0,0,1-.44.58,1.39,1.39,0,0,1-.75.19,1.41,1.41,0,0,1-1-.34,1.17,1.17,0,0,1-.36-.91,1,1,0,0,1,.42-.89,2.28,2.28,0,0,1,1.34-.32h.81v-.4a.91.91,0,0,0-.24-.68,1,1,0,0,0-.73-.23,1.14,1.14,0,0,0-.63.17,1.3,1.3,0,0,0-.42.45l-.38-.36a1.38,1.38,0,0,1,.53-.57,2,2,0,0,1,2.1.13,1.3,1.3,0,0,1,.41,1v2.27h.47v.56Zm-1.85-.44a1.51,1.51,0,0,0,.44-.06,1.13,1.13,0,0,0,.35-.16.71.71,0,0,0,.22-.24.52.52,0,0,0,.08-.3v-.68h-.85a1.63,1.63,0,0,0-.8.16.53.53,0,0,0-.25.47v.17a.55.55,0,0,0,.22.47A1,1,0,0,0,116.38,262.91Z"/><path class="cls-3" d="M119.5,263.35v-4.12h.64v.66h0c0-.1.1-.2.16-.3a1,1,0,0,1,.23-.24,1.08,1.08,0,0,1,.3-.16,1.33,1.33,0,0,1,.42-.06,1.5,1.5,0,0,1,.75.2,1.13,1.13,0,0,1,.51.63h0a1.37,1.37,0,0,1,.42-.58,1.28,1.28,0,0,1,.84-.25,1.22,1.22,0,0,1,1,.41,1.74,1.74,0,0,1,.36,1.17v2.64h-.64v-2.54a1.3,1.3,0,0,0-.22-.83.79.79,0,0,0-.68-.28,1.14,1.14,0,0,0-.37.05,1,1,0,0,0-.3.14.65.65,0,0,0-.22.25.71.71,0,0,0-.08.34v2.87H122v-2.54a1.3,1.3,0,0,0-.22-.83.78.78,0,0,0-.67-.28,1.14,1.14,0,0,0-.37.05,1.09,1.09,0,0,0-.31.14.88.88,0,0,0-.22.25.61.61,0,0,0-.08.34v2.87Z"/><path class="cls-3" d="M126.48,263.35v-4.12h.64v.66h0c0-.1.11-.2.17-.3a1,1,0,0,1,.22-.24,1,1,0,0,1,.31-.16,1.31,1.31,0,0,1,.41-.06,1.51,1.51,0,0,1,.76.2,1.13,1.13,0,0,1,.51.63h0a1.37,1.37,0,0,1,.42-.58,1.29,1.29,0,0,1,.84-.25,1.26,1.26,0,0,1,1,.41,1.74,1.74,0,0,1,.36,1.17v2.64h-.65v-2.54a1.37,1.37,0,0,0-.21-.83.8.8,0,0,0-.69-.28,1,1,0,0,0-.36.05,1,1,0,0,0-.31.14.88.88,0,0,0-.22.25.71.71,0,0,0-.08.34v2.87H129v-2.54a1.37,1.37,0,0,0-.21-.83.79.79,0,0,0-.67-.28,1.11,1.11,0,0,0-.37.05,1.15,1.15,0,0,0-.32.14.88.88,0,0,0-.22.25.71.71,0,0,0-.08.34v2.87Z"/><path class="cls-3" d="M135,263.45a1.89,1.89,0,0,1-.77-.15,1.66,1.66,0,0,1-.58-.44,2,2,0,0,1-.38-.68,2.73,2.73,0,0,1-.13-.89,2.77,2.77,0,0,1,.13-.89,2.14,2.14,0,0,1,.38-.68,1.66,1.66,0,0,1,.58-.44,1.89,1.89,0,0,1,.77-.15,1.78,1.78,0,0,1,.74.15,1.56,1.56,0,0,1,.56.42,2,2,0,0,1,.36.63,2.64,2.64,0,0,1,.12.81v.3h-3v.19a1.39,1.39,0,0,0,.09.5,1,1,0,0,0,.24.39,1.19,1.19,0,0,0,.38.27,1.38,1.38,0,0,0,.52.09,1.25,1.25,0,0,0,.68-.18,1.12,1.12,0,0,0,.45-.53l.46.33a1.58,1.58,0,0,1-.62.69A2,2,0,0,1,135,263.45Zm0-3.78a1.21,1.21,0,0,0-.48.09,1.12,1.12,0,0,0-.38.26,1.28,1.28,0,0,0-.24.39,1.35,1.35,0,0,0-.09.5v0h2.28v-.08a1.25,1.25,0,0,0-.3-.88A1,1,0,0,0,135,259.67Z"/><path class="cls-3" d="M137.86,263.35v-4.12h.64v.66h0a1.25,1.25,0,0,1,.43-.55,1.18,1.18,0,0,1,.74-.21,1.32,1.32,0,0,1,1,.41,1.69,1.69,0,0,1,.37,1.17v2.64h-.64v-2.54c0-.74-.31-1.11-.94-1.11a1.18,1.18,0,0,0-.37.05,1.15,1.15,0,0,0-.32.14.78.78,0,0,0-.23.25.71.71,0,0,0-.08.34v2.87Z"/><path class="cls-3" d="M142.62,259.8H142v-.57h.67v-.84a1,1,0,0,1,.23-.69.83.83,0,0,1,.68-.27h.62V258h-.89v1.23h.89v.57h-.89v3.55h-.64Z"/><path class="cls-3" d="M148,263.35a.6.6,0,0,1-.51-.19,1,1,0,0,1-.2-.48h0a1.06,1.06,0,0,1-.45.58,1.36,1.36,0,0,1-.74.19,1.41,1.41,0,0,1-1-.34,1.17,1.17,0,0,1-.37-.91,1,1,0,0,1,.43-.89,2.27,2.27,0,0,1,1.33-.32h.82v-.4a.91.91,0,0,0-.24-.68,1,1,0,0,0-.74-.23,1.08,1.08,0,0,0-.62.17,1.3,1.3,0,0,0-.42.45l-.39-.36a1.34,1.34,0,0,1,.54-.57,2,2,0,0,1,2.09.13,1.27,1.27,0,0,1,.42,1v2.27h.47v.56Zm-1.84-.44a1.51,1.51,0,0,0,.44-.06,1.13,1.13,0,0,0,.35-.16.83.83,0,0,0,.22-.24.61.61,0,0,0,.08-.3v-.68h-.85a1.6,1.6,0,0,0-.8.16.53.53,0,0,0-.25.47v.17a.55.55,0,0,0,.22.47A.94.94,0,0,0,146.15,262.91Z"/><path class="cls-3" d="M150.5,263.45a1.89,1.89,0,0,1-1-.22,2.21,2.21,0,0,1-.67-.59l.46-.37a1.78,1.78,0,0,0,.53.47,1.41,1.41,0,0,0,.69.17,1,1,0,0,0,.64-.18.6.6,0,0,0,.23-.5.62.62,0,0,0-.16-.41,1,1,0,0,0-.56-.23l-.33,0a2.74,2.74,0,0,1-.53-.13,1.4,1.4,0,0,1-.42-.22,1,1,0,0,1-.28-.35,1.07,1.07,0,0,1-.1-.49,1.3,1.3,0,0,1,.11-.54,1.26,1.26,0,0,1,.31-.38,1.36,1.36,0,0,1,.47-.22,2.14,2.14,0,0,1,.58-.08,1.71,1.71,0,0,1,1.44.67l-.42.38a1.26,1.26,0,0,0-.4-.35,1.35,1.35,0,0,0-.67-.16.9.9,0,0,0-.6.18.55.55,0,0,0-.2.46.5.5,0,0,0,.2.45,1.51,1.51,0,0,0,.59.19l.32.05a1.65,1.65,0,0,1,1,.4,1,1,0,0,1,.29.76,1.16,1.16,0,0,1-.41.95A1.67,1.67,0,0,1,150.5,263.45Z"/><path class="cls-3" d="M154.36,263.45a1.89,1.89,0,0,1-1-.22,2.1,2.1,0,0,1-.67-.59l.45-.37a1.7,1.7,0,0,0,.54.47,1.41,1.41,0,0,0,.69.17,1,1,0,0,0,.63-.18.57.57,0,0,0,.23-.5.61.61,0,0,0-.15-.41,1,1,0,0,0-.57-.23l-.33,0a2.64,2.64,0,0,1-.52-.13,1.4,1.4,0,0,1-.42-.22.87.87,0,0,1-.28-.35,1.07,1.07,0,0,1-.1-.49,1.16,1.16,0,0,1,.11-.54,1.13,1.13,0,0,1,.31-.38,1.31,1.31,0,0,1,.46-.22,2.27,2.27,0,0,1,.59-.08,1.74,1.74,0,0,1,1.44.67l-.43.38a1.16,1.16,0,0,0-.4-.35,1.29,1.29,0,0,0-.66-.16.86.86,0,0,0-.6.18.56.56,0,0,0-.21.46.51.51,0,0,0,.21.45,1.46,1.46,0,0,0,.58.19l.32.05a1.69,1.69,0,0,1,1,.4,1,1,0,0,1,.29.76,1.19,1.19,0,0,1-.41.95A1.68,1.68,0,0,1,154.36,263.45Z"/><path class="cls-3" d="M159.56,262.69h0a1.56,1.56,0,0,1-.16.28.9.9,0,0,1-.23.25,1.38,1.38,0,0,1-.32.17,1.53,1.53,0,0,1-.45.06,1.33,1.33,0,0,1-1-.41,1.68,1.68,0,0,1-.37-1.17v-2.64h.64v2.54c0,.74.31,1.11.94,1.11a1.14,1.14,0,0,0,.37-.05,1,1,0,0,0,.32-.14.66.66,0,0,0,.23-.24.8.8,0,0,0,.08-.36v-2.86h.64v4.12h-.64Z"/><path class="cls-3" d="M161.56,263.35v-4.12h.64v.66h0a1.33,1.33,0,0,1,.43-.55,1.18,1.18,0,0,1,.74-.21,1.3,1.3,0,0,1,1,.41,1.69,1.69,0,0,1,.37,1.17v2.64h-.64v-2.54q0-1.11-.93-1.11a1.14,1.14,0,0,0-.37.05,1.22,1.22,0,0,0-.33.14.92.92,0,0,0-.23.25.71.71,0,0,0-.08.34v2.87Z"/><path class="cls-3" d="M169.58,263.81a1,1,0,0,1-.5.94,3,3,0,0,1-1.5.3,2.85,2.85,0,0,1-1.39-.26.85.85,0,0,1-.42-.75.78.78,0,0,1,.17-.53,1.12,1.12,0,0,1,.48-.27v-.09a.6.6,0,0,1-.36-.57.57.57,0,0,1,.2-.48,1.21,1.21,0,0,1,.51-.24v0a1.29,1.29,0,0,1-.57-.51,1.38,1.38,0,0,1-.21-.76,1.58,1.58,0,0,1,.11-.58,1.23,1.23,0,0,1,.32-.45,1.28,1.28,0,0,1,.49-.29,2,2,0,0,1,1.42.05v-.07a.7.7,0,0,1,.11-.4.42.42,0,0,1,.37-.16h.61v.57h-.78v.26a1.31,1.31,0,0,1,.35.46,1.48,1.48,0,0,1,.12.61,1.58,1.58,0,0,1-.11.58,1.28,1.28,0,0,1-.32.45,1.48,1.48,0,0,1-.49.29,1.83,1.83,0,0,1-.64.11,2.85,2.85,0,0,1-.4,0,1.12,1.12,0,0,0-.37.16.32.32,0,0,0-.17.3.25.25,0,0,0,.17.25,1.47,1.47,0,0,0,.46.06h.88a1.79,1.79,0,0,1,1.12.29A1,1,0,0,1,169.58,263.81Zm-.6.05a.49.49,0,0,0-.18-.4,1.12,1.12,0,0,0-.67-.15h-1.38a.6.6,0,0,0-.38.56.63.63,0,0,0,.2.47,1,1,0,0,0,.69.19h.6a1.74,1.74,0,0,0,.83-.17A.53.53,0,0,0,169,263.86Zm-1.43-2.39a1,1,0,0,0,.65-.19.75.75,0,0,0,.24-.61v-.22a.74.74,0,0,0-.24-.61,1.16,1.16,0,0,0-1.3,0,.74.74,0,0,0-.24.61v.22a.75.75,0,0,0,.24.61A1,1,0,0,0,167.55,261.47Z"/><path class="cls-3" d="M172.22,263.35v-4.12h.64v.66h0a1.25,1.25,0,0,1,.43-.55,1.18,1.18,0,0,1,.74-.21,1.32,1.32,0,0,1,1,.41,1.69,1.69,0,0,1,.37,1.17v2.64h-.64v-2.54c0-.74-.31-1.11-.94-1.11a1.18,1.18,0,0,0-.37.05,1,1,0,0,0-.32.14.78.78,0,0,0-.23.25.61.61,0,0,0-.08.34v2.87Z"/><path class="cls-3" d="M178.32,263.45a1.87,1.87,0,0,1-.76-.15,1.61,1.61,0,0,1-.59-.44,2,2,0,0,1-.38-.68,2.73,2.73,0,0,1-.13-.89,2.77,2.77,0,0,1,.13-.89,2.14,2.14,0,0,1,.38-.68,1.61,1.61,0,0,1,.59-.44,2,2,0,0,1,1.52,0,1.66,1.66,0,0,1,.58.44,2,2,0,0,1,.39.68,2.77,2.77,0,0,1,.13.89,2.73,2.73,0,0,1-.13.89,1.89,1.89,0,0,1-.39.68,1.66,1.66,0,0,1-.58.44A1.87,1.87,0,0,1,178.32,263.45Zm0-.57a1.14,1.14,0,0,0,.85-.32,1.29,1.29,0,0,0,.33-1V261a1.29,1.29,0,0,0-.33-1,1.29,1.29,0,0,0-1.7,0,1.29,1.29,0,0,0-.33,1v.6a1.29,1.29,0,0,0,.33,1A1.14,1.14,0,0,0,178.32,262.88Z"/><path class="cls-3" d="M182.78,263.45a1.94,1.94,0,0,1-.78-.15,1.66,1.66,0,0,1-.58-.43,1.93,1.93,0,0,1-.36-.68,3.44,3.44,0,0,1,0-1.8,1.93,1.93,0,0,1,.36-.68,1.66,1.66,0,0,1,.58-.43,1.94,1.94,0,0,1,.78-.15,1.55,1.55,0,0,1,1.54,1l-.54.27a1,1,0,0,0-.36-.5,1.2,1.2,0,0,0-.64-.17,1.33,1.33,0,0,0-.51.09,1,1,0,0,0-.57.65,1.59,1.59,0,0,0-.08.5v.7a1.3,1.3,0,0,0,.3.89,1,1,0,0,0,.86.35,1.17,1.17,0,0,0,1.12-.72l.46.31a1.62,1.62,0,0,1-.6.72A1.76,1.76,0,0,1,182.78,263.45Z"/><path class="cls-3" d="M185.26,257.43h.64v2.46h0a1.41,1.41,0,0,1,.43-.55,1.2,1.2,0,0,1,.74-.21,1.29,1.29,0,0,1,1,.41,1.7,1.7,0,0,1,.38,1.17v2.64h-.64v-2.54c0-.74-.32-1.11-.94-1.11a1.14,1.14,0,0,0-.37.05,1.22,1.22,0,0,0-.33.14.75.75,0,0,0-.22.25.62.62,0,0,0-.09.34v2.87h-.64Z"/><path class="cls-3" d="M189.81,263.35v-4.12h.64v.66h0c.05-.1.1-.2.16-.3a1,1,0,0,1,.23-.24,1,1,0,0,1,.3-.16,1.33,1.33,0,0,1,.42-.06,1.5,1.5,0,0,1,.75.2,1.13,1.13,0,0,1,.51.63h0a1.37,1.37,0,0,1,.42-.58,1.29,1.29,0,0,1,.84-.25,1.22,1.22,0,0,1,1,.41,1.74,1.74,0,0,1,.36,1.17v2.64h-.64v-2.54a1.3,1.3,0,0,0-.22-.83.79.79,0,0,0-.68-.28,1.14,1.14,0,0,0-.37.05,1.23,1.23,0,0,0-.31.14.72.72,0,0,0-.21.25.71.71,0,0,0-.08.34v2.87h-.64v-2.54a1.3,1.3,0,0,0-.22-.83.77.77,0,0,0-.67-.28,1.14,1.14,0,0,0-.37.05,1.09,1.09,0,0,0-.31.14.88.88,0,0,0-.22.25.61.61,0,0,0-.08.34v2.87Z"/><path class="cls-3" d="M199.79,263.35a.64.64,0,0,1-.52-.19.94.94,0,0,1-.19-.48h0a1.06,1.06,0,0,1-.45.58,1.38,1.38,0,0,1-.74.19,1.41,1.41,0,0,1-1-.34,1.14,1.14,0,0,1-.37-.91,1,1,0,0,1,.43-.89,2.27,2.27,0,0,1,1.33-.32H199v-.4a.91.91,0,0,0-.24-.68,1.06,1.06,0,0,0-.74-.23,1.14,1.14,0,0,0-.63.17,1.52,1.52,0,0,0-.42.45l-.38-.36a1.34,1.34,0,0,1,.54-.57,1.63,1.63,0,0,1,.92-.24,1.66,1.66,0,0,1,1.17.37,1.27,1.27,0,0,1,.42,1v2.27h.47v.56Zm-1.84-.44a1.51,1.51,0,0,0,.44-.06,1.07,1.07,0,0,0,.34-.16.75.75,0,0,0,.23-.24.61.61,0,0,0,.08-.3v-.68h-.85a1.57,1.57,0,0,0-.8.16.54.54,0,0,0-.26.47v.17a.57.57,0,0,0,.22.47A1,1,0,0,0,198,262.91Z"/><path class="cls-3" d="M201.74,263.35a.69.69,0,0,1-.51-.18.72.72,0,0,1-.17-.48v-5.26h.64v5.36h.61v.56Z"/><path class="cls-3" d="M208.12,263.35a.62.62,0,0,1-.51-.19,1,1,0,0,1-.2-.48h0a1.09,1.09,0,0,1-.44.58,1.39,1.39,0,0,1-.75.19,1.41,1.41,0,0,1-1-.34,1.17,1.17,0,0,1-.36-.91,1,1,0,0,1,.43-.89,2.22,2.22,0,0,1,1.33-.32h.81v-.4a.91.91,0,0,0-.24-.68,1,1,0,0,0-.73-.23,1.14,1.14,0,0,0-.63.17,1.3,1.3,0,0,0-.42.45l-.39-.36a1.47,1.47,0,0,1,.54-.57,2,2,0,0,1,2.1.13,1.3,1.3,0,0,1,.41,1v2.27h.48v.56Zm-1.84-.44a1.58,1.58,0,0,0,.45-.06,1.19,1.19,0,0,0,.34-.16.83.83,0,0,0,.22-.24.52.52,0,0,0,.08-.3v-.68h-.84a1.64,1.64,0,0,0-.81.16.53.53,0,0,0-.25.47v.17a.55.55,0,0,0,.22.47A1,1,0,0,0,206.28,262.91Z"/><path class="cls-3" d="M209.4,263.35v-4.12H210v.66h0a1.25,1.25,0,0,1,.43-.55,1.18,1.18,0,0,1,.74-.21,1.32,1.32,0,0,1,1,.41,1.69,1.69,0,0,1,.37,1.17v2.64H212v-2.54q0-1.11-.93-1.11a1.2,1.2,0,0,0-.38.05,1.15,1.15,0,0,0-.32.14.78.78,0,0,0-.23.25.71.71,0,0,0-.08.34v2.87Z"/><path class="cls-3" d="M215.18,263.45a1.89,1.89,0,0,1-1-.22,2.21,2.21,0,0,1-.67-.59l.46-.37a1.67,1.67,0,0,0,.53.47,1.41,1.41,0,0,0,.69.17,1,1,0,0,0,.63-.18.57.57,0,0,0,.23-.5.61.61,0,0,0-.15-.41,1,1,0,0,0-.57-.23l-.32,0a2.57,2.57,0,0,1-.53-.13,1.4,1.4,0,0,1-.42-.22.87.87,0,0,1-.28-.35,1.07,1.07,0,0,1-.1-.49,1.16,1.16,0,0,1,.11-.54,1.13,1.13,0,0,1,.31-.38,1.28,1.28,0,0,1,.47-.22,2.14,2.14,0,0,1,.58-.08,1.74,1.74,0,0,1,1.44.67l-.42.38a1.38,1.38,0,0,0-.4-.35,1.35,1.35,0,0,0-.67-.16.86.86,0,0,0-.6.18.56.56,0,0,0-.21.46.51.51,0,0,0,.21.45,1.46,1.46,0,0,0,.59.19l.32.05a1.68,1.68,0,0,1,1,.4,1,1,0,0,1,.29.76,1.19,1.19,0,0,1-.41.95A1.67,1.67,0,0,1,215.18,263.45Z"/><path class="cls-3" d="M219.39,263.45a1.92,1.92,0,0,1-.77-.15,1.66,1.66,0,0,1-.58-.44,2,2,0,0,1-.38-.68,3,3,0,0,1-.13-.89,3.08,3.08,0,0,1,.13-.89,2.14,2.14,0,0,1,.38-.68,1.66,1.66,0,0,1,.58-.44,1.92,1.92,0,0,1,.77-.15,1.75,1.75,0,0,1,.74.15,1.56,1.56,0,0,1,.56.42,1.79,1.79,0,0,1,.36.63,2.64,2.64,0,0,1,.12.81v.3h-3v.19a1.39,1.39,0,0,0,.09.5,1.11,1.11,0,0,0,.24.39,1.19,1.19,0,0,0,.38.27,1.46,1.46,0,0,0,.52.09,1.25,1.25,0,0,0,.68-.18,1.2,1.2,0,0,0,.46-.53l.45.33a1.58,1.58,0,0,1-.62.69A2,2,0,0,1,219.39,263.45Zm0-3.78a1.21,1.21,0,0,0-.48.09,1.08,1.08,0,0,0-.37.26,1.14,1.14,0,0,0-.25.39,1.35,1.35,0,0,0-.09.5v0h2.29v-.08a1.3,1.3,0,0,0-.3-.88A1,1,0,0,0,219.39,259.67Z"/><path class="cls-3" d="M222.23,257.43h.64v2.46h0a1.25,1.25,0,0,1,.43-.55,1.18,1.18,0,0,1,.74-.21,1.32,1.32,0,0,1,1,.41,1.69,1.69,0,0,1,.37,1.17v2.64h-.64v-2.54q0-1.11-.93-1.11a1.2,1.2,0,0,0-.38.05,1.15,1.15,0,0,0-.32.14.78.78,0,0,0-.23.25.71.71,0,0,0-.08.34v2.87h-.64Z"/><path class="cls-3" d="M228.32,263.45a1.87,1.87,0,0,1-.76-.15,1.57,1.57,0,0,1-.58-.44,1.88,1.88,0,0,1-.38-.68,2.73,2.73,0,0,1-.13-.89,2.77,2.77,0,0,1,.13-.89,2,2,0,0,1,.38-.68,1.57,1.57,0,0,1,.58-.44,1.87,1.87,0,0,1,.76-.15,1.79,1.79,0,0,1,.75.15,1.65,1.65,0,0,1,.56.42,1.93,1.93,0,0,1,.35.63,2.37,2.37,0,0,1,.13.81v.3h-3v.19a1.64,1.64,0,0,0,.08.5,1.28,1.28,0,0,0,.24.39,1.16,1.16,0,0,0,.9.36,1.29,1.29,0,0,0,.69-.18,1.24,1.24,0,0,0,.45-.53l.46.33a1.67,1.67,0,0,1-.63.69A1.92,1.92,0,0,1,228.32,263.45Zm0-3.78a1.28,1.28,0,0,0-.48.09,1.18,1.18,0,0,0-.37.26,1.28,1.28,0,0,0-.24.39,1.35,1.35,0,0,0-.09.5v0h2.28v-.08a1.25,1.25,0,0,0-.3-.88A1,1,0,0,0,228.32,259.67Z"/><path class="cls-3" d="M231.16,263.35v-4.12h.64v.66h0a1.31,1.31,0,0,1,.42-.55,1.22,1.22,0,0,1,.74-.21,1.33,1.33,0,0,1,1,.41,1.74,1.74,0,0,1,.37,1.17v2.64h-.64v-2.54c0-.74-.31-1.11-.94-1.11a1.14,1.14,0,0,0-.37.05,1,1,0,0,0-.32.14.68.68,0,0,0-.23.25.62.62,0,0,0-.09.34v2.87Z"/><path class="cls-3" d="M236.12,263.45a.42.42,0,0,1-.49-.46v-.11a.42.42,0,0,1,.49-.46.46.46,0,0,1,.37.13.44.44,0,0,1,.11.33V263a.44.44,0,0,1-.11.33A.46.46,0,0,1,236.12,263.45Z"/><path class="cls-5" d="M244.3,284.58V141c0-.24-.27-23.68-23.68-23.68H84.56c-.24,0-23.68.27-23.68,23.68V284.45"/></g></svg>