<svg xmlns="http://www.w3.org/2000/svg" xmlns:xlink="http://www.w3.org/1999/xlink" viewBox="0 0 305.62 305.62"><defs><style>.cls-1,.cls-2,.cls-3{fill:none;}.cls-2{stroke:#fff;stroke-width:1.25px;}.cls-2,.cls-3{stroke-miterlimit:10;}.cls-3{stroke:#000;stroke-width:0.25px;}.cls-4{clip-path:url(#clip-path);}.cls-5{fill:#e2001a;}.cls-6{fill:#2699d1;}.cls-7{fill:#1a171b;}.cls-8{fill:#7e4993;}</style><clipPath id="clip-path"><rect class="cls-1" x="6.8" y="-1.64" width="292.96" height="277.64"/></clipPath></defs><title>feedback_fahrzeugherstellerundflotten_front</title><g id="Ebene_2" data-name="Ebene 2"><path class="cls-2" d="M284.62,290.62v15m0-290.62V0M21,290.62v15M21,15V0M290.62,284.62h15M15,284.62H0M290.62,21h15M15,21H0"/><path class="cls-3" d="M284.62,290.62v15m0-290.62V0M21,290.62v15M21,15V0M290.62,284.62h15M15,284.62H0M290.62,21h15M15,21H0"/></g><g id="Ebene_1" data-name="Ebene 1"><g class="cls-4"><path class="cls-5" d="M153.33,240.19a4.45,4.45,0,0,0-.46,8.87c1.91.2,2.61,1.32,2.36,3.75,0,.24,0,.49,0,.73a7,7,0,1,0,7-7c-.24,0-.49,0-.73,0-2.43.26-3.55-.45-3.75-2.36a4.43,4.43,0,0,0-4.42-4m8.9,20.49a7.15,7.15,0,0,1-7.14-7.14,6,6,0,0,1,0-.74c.24-2.39-.41-3.44-2.27-3.64a4.55,4.55,0,1,1,5-5c.2,1.86,1.25,2.51,3.64,2.27a6.23,6.23,0,0,1,.74,0,7.14,7.14,0,1,1,0,14.28"/><path class="cls-5" d="M154.53,242.34a3.5,3.5,0,0,0-.36,7c1.52.16,2.08,1.05,1.88,3a5.63,5.63,0,0,0,0,.58,5.55,5.55,0,1,0,5.55-5.55l-.58,0c-1.92.2-2.82-.36-3-1.87a3.48,3.48,0,0,0-3.48-3.15m7,16.19a5.67,5.67,0,0,1-5.66-5.65,5.83,5.83,0,0,1,0-.59c.2-1.88-.32-2.71-1.78-2.86a3.61,3.61,0,1,1,4-4c.15,1.46,1,2,2.86,1.78l.59,0a5.66,5.66,0,0,1,0,11.31"/><path class="cls-5" d="M155.74,244.49a2.56,2.56,0,0,0-.26,5.1c1.12.12,1.53.78,1.39,2.2a3,3,0,0,0,0,.42,4.06,4.06,0,1,0,4.06-4.06,3,3,0,0,0-.42,0c-1.42.15-2.08-.27-2.2-1.39a2.55,2.55,0,0,0-2.54-2.3m5.16,11.89a4.17,4.17,0,0,1-4.16-4.17,3.17,3.17,0,0,1,0-.43c.14-1.37-.23-2-1.3-2.08a2.67,2.67,0,1,1,2.93-2.92c.11,1.06.71,1.43,2.08,1.29a3.1,3.1,0,0,1,.43,0,4.17,4.17,0,1,1,0,8.33"/><path class="cls-5" d="M156.89,249.87c.64.11.88.54.79,1.41a2.44,2.44,0,0,0,0,.27,2.57,2.57,0,1,0,2.57-2.57H160a1.51,1.51,0,0,1-1.06-.17.88.88,0,0,1-.35-.63h0l0-.11a1.61,1.61,0,1,0-1.76,1.76h.11Zm3.35,4.36a2.68,2.68,0,0,1-2.68-2.68,2.64,2.64,0,0,1,0-.28c.11-1.06-.33-1.26-.82-1.31h-.1a1.72,1.72,0,1,1,2-2h0l0,.1a.89.89,0,0,0,.32.67,1.49,1.49,0,0,0,1,.15l.28,0a2.68,2.68,0,0,1,0,5.36"/><path class="cls-6" d="M162.81,240a8.32,8.32,0,0,0-8.31,8.31,8.12,8.12,0,0,0,0,.86c.3,2.86-.53,4.18-2.77,4.42a5.26,5.26,0,1,0,5.76,5.76c.23-2.24,1.56-3.07,4.41-2.77a8.44,8.44,0,0,0,.87,0,8.31,8.31,0,0,0,0-16.62M152.3,264.17a5.36,5.36,0,0,1-.55-10.7c2.2-.23,3-1.47,2.68-4.3a8.42,8.42,0,1,1,8.38,7.55,8.65,8.65,0,0,1-.88-.05c-2.82-.29-4.06.49-4.3,2.68a5.34,5.34,0,0,1-5.33,4.82"/><path class="cls-6" d="M162.49,241a7.6,7.6,0,0,0-7.59,7.59,7,7,0,0,0,0,.79c.27,2.62-.49,3.82-2.54,4a4.8,4.8,0,1,0,5.26,5.26c.21-2,1.42-2.81,4-2.54a7,7,0,0,0,.79,0,7.59,7.59,0,0,0,0-15.18m-9.61,22.1a4.91,4.91,0,0,1-.5-9.79c2-.21,2.72-1.34,2.45-3.92a7.14,7.14,0,0,1,0-.8,7.7,7.7,0,1,1,7.7,7.7,7.26,7.26,0,0,1-.8,0c-2.58-.27-3.72.44-3.93,2.44a4.88,4.88,0,0,1-4.88,4.41"/><path class="cls-6" d="M162.16,242.08a6.87,6.87,0,0,0-6.86,6.86q0,.36,0,.72c.25,2.37-.44,3.47-2.3,3.66a4.34,4.34,0,1,0,4.76,4.76c.19-1.86,1.29-2.55,3.66-2.3l.71,0a6.87,6.87,0,1,0,0-13.73m-8.69,20a4.45,4.45,0,0,1-.46-8.87c1.82-.19,2.46-1.22,2.22-3.55a6.06,6.06,0,0,1,0-.73,7,7,0,1,1,7,7,5.9,5.9,0,0,1-.72,0c-2.33-.24-3.36.4-3.55,2.21a4.43,4.43,0,0,1-4.42,4"/><path class="cls-6" d="M161.84,243.12a6.15,6.15,0,0,0-6.15,6.14c0,.21,0,.43,0,.64.22,2.13-.4,3.12-2.07,3.29a3.89,3.89,0,1,0,4.26,4.26c.17-1.67,1.15-2.29,3.29-2.07q.31,0,.63,0a6.15,6.15,0,1,0,0-12.29m-7.79,17.93a4,4,0,0,1-.4-8c1.62-.17,2.19-1.09,2-3.18,0-.21,0-.43,0-.65a6.26,6.26,0,1,1,6.25,6.26c-.21,0-.43,0-.64,0-2.09-.22-3,.35-3.18,2a4,4,0,0,1-4,3.59"/><path class="cls-6" d="M161.52,244.16a5.42,5.42,0,0,0-5.4,6c.2,1.89-.35,2.76-1.83,2.91a3.43,3.43,0,1,0,3.75,3.76c.16-1.48,1-2,2.92-1.83l.56,0a5.43,5.43,0,0,0,0-10.86M154.64,260a3.53,3.53,0,0,1-.36-7c1.42-.15,1.93-1,1.74-2.8a5.44,5.44,0,0,1,0-.57,5.54,5.54,0,1,1,5,5.5c-1.84-.19-2.65.32-2.8,1.74a3.52,3.52,0,0,1-3.51,3.18"/><path class="cls-6" d="M161.2,245.2a4.71,4.71,0,0,0-4.71,4.71,4.15,4.15,0,0,0,0,.49c.17,1.64-.31,2.4-1.6,2.54a3,3,0,1,0,3.25,3.25c.14-1.29.9-1.77,2.54-1.6l.49,0a4.71,4.71,0,1,0,0-9.42m-6,13.77a3.08,3.08,0,0,1-.31-6.14c1.23-.13,1.67-.83,1.5-2.42a4.26,4.26,0,0,1,0-.5,4.82,4.82,0,1,1,4.81,4.81l-.5,0c-1.59-.17-2.29.27-2.42,1.5a3.07,3.07,0,0,1-3.06,2.77"/><path class="cls-6" d="M160.88,246.24a4,4,0,0,0-4,4c0,.13,0,.27,0,.41.15,1.4-.26,2.05-1.36,2.17a2.51,2.51,0,1,0,2.75,2.75c.12-1.1.77-1.51,2.17-1.36l.41,0a4,4,0,1,0,0-8m-5.08,11.69a2.62,2.62,0,0,1-.26-5.23c1-.11,1.41-.7,1.27-2a3,3,0,0,1,0-.42,4.1,4.1,0,1,1,4.09,4.09,3,3,0,0,1-.42,0c-1.35-.14-1.94.23-2.05,1.27a2.62,2.62,0,0,1-2.61,2.36"/><path class="cls-6" d="M156.28,252.66v0h-.11a2,2,0,1,0,2.24,2.24v-.11h0c.13-.84.67-1.15,1.78-1l.34,0a3.27,3.27,0,1,0-3.27-3.27c0,.11,0,.22,0,.34.11,1.11-.19,1.65-1,1.77m.11,4.22a2.16,2.16,0,0,1-.32-4.29h.09c.86-.09,1.16-.57,1-1.67,0-.12,0-.24,0-.35a3.38,3.38,0,1,1,3,3.36c-1.1-.12-1.58.18-1.67,1v.11l0,0a2.13,2.13,0,0,1-2.12,1.84"/><path class="cls-6" d="M156.91,252.53h0l-.1,0a1.59,1.59,0,0,0-1.44,1.58,1.6,1.6,0,0,0,1.6,1.6,1.59,1.59,0,0,0,1.58-1.44v-.11h0c.11-.65.54-.89,1.41-.8l.26,0a2.55,2.55,0,1,0-2.55-2.55c0,.09,0,.18,0,.26.09.87-.14,1.3-.79,1.4m.06,3.31a1.7,1.7,0,0,1-.27-3.38h0l.1,0c.49-.05.92-.24.81-1.3a2.45,2.45,0,0,1,0-.27,2.66,2.66,0,1,1,2.66,2.66l-.28,0c-1.05-.11-1.24.32-1.29.8v.11h0a1.68,1.68,0,0,1-1.67,1.43"/><path class="cls-6" d="M157.55,252.41h0l-.11,0a1.13,1.13,0,0,0-1,1.12,1.15,1.15,0,0,0,1.14,1.15,1.13,1.13,0,0,0,1.13-1l0-.12a.56.56,0,0,1,.26-.42,1,1,0,0,1,.62-.13v0l.15,0h.2a1.83,1.83,0,1,0-1.83-1.83c0,.05,0,.09,0,.14v.06l0,.15h0a1,1,0,0,1-.13.62.64.64,0,0,1-.43.26m0,2.39a1.25,1.25,0,0,1-.22-2.47h0l.11,0a.58.58,0,0,0,.46-.22,1,1,0,0,0,.1-.7v-.15h0a.13.13,0,0,1,0-.06,1.94,1.94,0,1,1,1.94,1.94h-.2a1,1,0,0,0-.7.1.58.58,0,0,0-.22.46l0,.12h0a1.24,1.24,0,0,1-1.22,1"/><path class="cls-7" d="M174.67,248.07a1.14,1.14,0,0,0,.23.73.78.78,0,0,0,1.21,0,1.18,1.18,0,0,0,.23-.75V248a1.27,1.27,0,0,0-.11-.52.91.91,0,0,0-.29-.37.84.84,0,0,0-.44-.13.76.76,0,0,0-.6.29,1.18,1.18,0,0,0-.23.75Zm-.27-.07a1.34,1.34,0,0,1,.14-.64,1.07,1.07,0,0,1,.39-.45,1.09,1.09,0,0,1,1.37.19,1.31,1.31,0,0,1,.31.92v0a1.51,1.51,0,0,1-.14.65,1.07,1.07,0,0,1-.39.45,1.1,1.1,0,0,1-.57.15,1,1,0,0,1-.81-.35,1.34,1.34,0,0,1-.3-.92Z"/><path class="cls-7" d="M178.89,248a1.3,1.3,0,0,0-.19-.75.63.63,0,0,0-.54-.27.78.78,0,0,0-.44.12.74.74,0,0,0-.27.35v1.19a.75.75,0,0,0,.28.33.83.83,0,0,0,.43.11.61.61,0,0,0,.54-.28,1.37,1.37,0,0,0,.19-.8m.28.05a1.5,1.5,0,0,1-.26.92.8.8,0,0,1-.68.34.92.92,0,0,1-.78-.36v1.27h-.28V246.8h.26v.35a.88.88,0,0,1,.78-.4.83.83,0,0,1,.7.34,1.56,1.56,0,0,1,.25.93Z"/><path class="cls-7" d="M180.69,247a.71.71,0,0,0-.53.22,1.06,1.06,0,0,0-.25.61h1.48v0a.85.85,0,0,0-.2-.58.63.63,0,0,0-.5-.22m.05,2.33a1.11,1.11,0,0,1-.58-.15,1,1,0,0,1-.39-.44,1.26,1.26,0,0,1-.15-.62V248a1.47,1.47,0,0,1,.14-.64,1.11,1.11,0,0,1,.39-.46,1,1,0,0,1,.54-.16.86.86,0,0,1,.71.31,1.23,1.23,0,0,1,.27.84v.15H179.9v.06a1,1,0,0,0,.24.7.75.75,0,0,0,.61.28,1,1,0,0,0,.39-.08.81.81,0,0,0,.3-.26l.17.13a1,1,0,0,1-.87.44"/><path class="cls-7" d="M182.46,246.8v.42a1,1,0,0,1,.35-.35.9.9,0,0,1,.46-.12.75.75,0,0,1,.59.23,1,1,0,0,1,.2.67v1.63h-.27v-1.63a.83.83,0,0,0-.14-.5.58.58,0,0,0-.45-.16.67.67,0,0,0-.45.16.89.89,0,0,0-.29.43v1.7h-.27V246.8Z"/><path class="cls-7" d="M174.8,252.43v.4a.92.92,0,0,1,.34-.34,1,1,0,0,1,.46-.11.69.69,0,0,1,.74.48,1,1,0,0,1,.85-.48q.8,0,.81.87v1.66h-.27v-1.64a.7.7,0,0,0-.15-.49.55.55,0,0,0-.45-.16.72.72,0,0,0-.5.19.64.64,0,0,0-.23.46v1.64h-.28v-1.66a.65.65,0,0,0-.15-.47.56.56,0,0,0-.45-.16.72.72,0,0,0-.45.15.83.83,0,0,0-.27.44v1.7h-.28v-2.48Z"/><path class="cls-7" d="M178.83,253.7a1.14,1.14,0,0,0,.23.73.77.77,0,0,0,1.2,0,1.13,1.13,0,0,0,.24-.75v-.05a1.27,1.27,0,0,0-.11-.52.85.85,0,0,0-.3-.37.78.78,0,0,0-.43-.13.74.74,0,0,0-.6.29,1.18,1.18,0,0,0-.23.75Zm-.28-.07a1.55,1.55,0,0,1,.14-.65,1.14,1.14,0,0,1,.4-.44,1,1,0,0,1,.57-.16,1,1,0,0,1,.8.35,1.31,1.31,0,0,1,.31.92v0a1.51,1.51,0,0,1-.14.65,1.07,1.07,0,0,1-.39.45,1.11,1.11,0,0,1-.58.15,1,1,0,0,1-.8-.35,1.35,1.35,0,0,1-.31-.92Z"/><path class="cls-7" d="M183.05,253.64a1.24,1.24,0,0,0-.19-.75.6.6,0,0,0-.53-.27.73.73,0,0,0-.45.13.81.81,0,0,0-.28.38v1.12a.73.73,0,0,0,.73.46.61.61,0,0,0,.53-.27,1.33,1.33,0,0,0,.19-.8m.28.05a1.5,1.5,0,0,1-.26.92.81.81,0,0,1-.69.34.91.91,0,0,1-.78-.38v.34h-.26v-3.52h.27v1.4a.88.88,0,0,1,.78-.41.81.81,0,0,1,.69.34,1.49,1.49,0,0,1,.26.93Z"/><path class="cls-7" d="M184.24,254.9H184v-2.47h.27Zm-.32-3.19a.17.17,0,0,1,.05-.13.16.16,0,0,1,.14-.05.15.15,0,0,1,.13.05.18.18,0,0,1,.06.13.16.16,0,0,1-.06.13.15.15,0,0,1-.13,0,.16.16,0,0,1-.14,0,.15.15,0,0,1-.05-.13"/></g><rect class="cls-7" x="185.02" y="251.39" width="0.27" height="3.52"/><g class="cls-4"><path class="cls-7" d="M186.34,254.9h-.27v-2.47h.27Zm-.32-3.19a.21.21,0,0,1,0-.13.16.16,0,0,1,.14-.05.17.17,0,0,1,.14.05.21.21,0,0,1,.05.13.19.19,0,0,1-.05.13.17.17,0,0,1-.14,0,.16.16,0,0,1-.14,0,.19.19,0,0,1,0-.13"/><path class="cls-7" d="M187.51,251.79v.64H188v.22h-.52v1.65a.52.52,0,0,0,.08.31.28.28,0,0,0,.25.1l.22,0v.22a.78.78,0,0,1-.29,0,.48.48,0,0,1-.41-.16.75.75,0,0,1-.13-.49v-1.65h-.46v-.22h.46v-.64Z"/><path class="cls-7" d="M189.38,254.51l.72-2.08h.3l-1.06,2.9-.05.13a.67.67,0,0,1-.63.45.52.52,0,0,1-.21,0v-.22h.15a.47.47,0,0,0,.32-.1.62.62,0,0,0,.21-.34l.13-.34-.94-2.45h.3Z"/><path class="cls-7" d="M174.75,260.53v-2.25h-.41v-.22h.41v-.3a.82.82,0,0,1,.19-.59.73.73,0,0,1,.54-.2.92.92,0,0,1,.29,0l0,.22-.25,0a.42.42,0,0,0-.35.14.55.55,0,0,0-.13.4v.31h.59v.22H175v2.25Z"/><path class="cls-7" d="M176.22,259.33a1.14,1.14,0,0,0,.23.73.76.76,0,0,0,.61.29.73.73,0,0,0,.6-.29,1.18,1.18,0,0,0,.23-.75v-.05a1.27,1.27,0,0,0-.11-.52.83.83,0,0,0-.29-.37.81.81,0,0,0-.44-.13.72.72,0,0,0-.59.29,1.13,1.13,0,0,0-.24.75Zm-.27-.07a1.55,1.55,0,0,1,.14-.65,1,1,0,0,1,.39-.44,1,1,0,0,1,.57-.16,1.05,1.05,0,0,1,.81.35,1.36,1.36,0,0,1,.3.92v.05a1.38,1.38,0,0,1-.14.65,1,1,0,0,1-.39.44,1,1,0,0,1-.57.16,1,1,0,0,1-.8-.35,1.3,1.3,0,0,1-.31-.92Z"/><path class="cls-7" d="M179.87,258.29l-.18,0a.67.67,0,0,0-.44.15.8.8,0,0,0-.25.41v1.7h-.27v-2.47H179v.39a.74.74,0,0,1,.7-.44.42.42,0,0,1,.18,0Z"/><path class="cls-7" d="M181.9,260.22a.89.89,0,0,1-.79.36.78.78,0,0,1-.6-.23,1,1,0,0,1-.21-.68v-1.61h.27v1.57c0,.48.19.71.57.71a.71.71,0,0,0,.76-.49v-1.79h.27v2.47h-.26Z"/><path class="cls-7" d="M183.13,258.06v.4a1,1,0,0,1,.35-.34,1,1,0,0,1,.45-.11.7.7,0,0,1,.75.48,1,1,0,0,1,.35-.35,1,1,0,0,1,.5-.13q.79,0,.81.87v1.66h-.28V258.9a.75.75,0,0,0-.14-.49.57.57,0,0,0-.46-.16.74.74,0,0,0-.5.19.73.73,0,0,0-.23.45v1.65h-.27v-1.66a.65.65,0,0,0-.15-.47.58.58,0,0,0-.45-.16.68.68,0,0,0-.45.15.84.84,0,0,0-.27.43v1.71h-.28v-2.48Z"/><path class="cls-5" d="M158.12,250.87l0,.15a.13.13,0,0,1,0,.06s0,.09,0,.14a1.83,1.83,0,1,0,1.83-1.83h-.2l-.15,0v0c-.53,0-.8-.15-.87-.57h0v-.11a1.14,1.14,0,0,0-2.28.11,1.13,1.13,0,0,0,1,1.13l.1,0c.42.07.6.34.57.87Zm1.79,2.28a1.93,1.93,0,0,1-1.94-1.93s0,0,0-.06h0V251c.08-.71-.17-.88-.56-.92l-.11,0a1.25,1.25,0,1,1,1.46-1.45h0l0,.11c0,.39.21.63.92.56h.2a1.94,1.94,0,0,1,0,3.87"/><path class="cls-5" d="M156.24,249.74c.84.13,1.15.67,1,1.8,0,.11,0,.23,0,.34a3.32,3.32,0,1,0,3-3.3c-1.13.12-1.68-.19-1.8-1l0,0v-.12a2.07,2.07,0,0,0-2.06-1.88,2.1,2.1,0,0,0-2.09,2.09,2.07,2.07,0,0,0,1.88,2.06l.12,0Zm4.33,5.56a3.42,3.42,0,0,1-3.42-3.42c0-.12,0-.23,0-.35.11-1.12-.19-1.61-1.06-1.7H156a2.19,2.19,0,1,1,2.5-2.5h0v.11c.09.87.58,1.17,1.7,1.06a3.42,3.42,0,1,1,.35,6.82"/><path class="cls-5" d="M155.13,243.41a3,3,0,0,0-.3,6.05c1.31.14,1.8.91,1.63,2.59a4,4,0,0,0,0,.49,4.81,4.81,0,1,0,4.31-4.77c-1.68.17-2.45-.32-2.59-1.63a3,3,0,0,0-3-2.73m6.1,14a4.91,4.91,0,0,1-4.9-4.91,4.26,4.26,0,0,1,0-.5c.17-1.63-.28-2.34-1.54-2.48a3.13,3.13,0,1,1,3.44-3.44c.14,1.26.85,1.71,2.48,1.54l.5,0a4.91,4.91,0,0,1,0,9.82"/><path class="cls-5" d="M153.93,241.26a4,4,0,0,0-.41,7.93c1.71.18,2.35,1.19,2.12,3.36q0,.33,0,.66a6.29,6.29,0,1,0,6.29-6.29l-.66,0c-2.17.23-3.18-.41-3.36-2.12a4,4,0,0,0-3.95-3.57m8,18.34a6.4,6.4,0,0,1-6.4-6.39c0-.22,0-.44,0-.67.23-2.13-.36-3.07-2-3.24a4.08,4.08,0,1,1,4.48-4.48c.17,1.66,1.11,2.25,3.24,2,.22,0,.45,0,.67,0a6.4,6.4,0,0,1,0,12.79"/><path class="cls-5" d="M159.9,249.45a1.76,1.76,0,1,0,1.76,1.76,1.76,1.76,0,0,0-1.76-1.76m0,3.79a2,2,0,1,1,2-2,2,2,0,0,1-2,2"/></g><path class="cls-7" d="M94.22,250.85,94,245.48h.44l.2,4.79h0l2.2-4.79h.55l.29,4.79h0l2.14-4.79h.47l-2.47,5.37h-.52L97,246h0l-2.23,4.83Z"/><path class="cls-7" d="M101.6,251a1.36,1.36,0,0,1-1.06-.41,1.71,1.71,0,0,1-.38-1.2,3.08,3.08,0,0,1,.15-1,2.52,2.52,0,0,1,.41-.8,2,2,0,0,1,.63-.55,1.63,1.63,0,0,1,.82-.2,1.88,1.88,0,0,1,.49.06,1.25,1.25,0,0,1,.4.2,1,1,0,0,1,.27.31.92.92,0,0,1,.1.44,1,1,0,0,1-.14.5,1.14,1.14,0,0,1-.47.41,2.93,2.93,0,0,1-.86.26,7.16,7.16,0,0,1-1.34.11.9.9,0,0,0,0,.18.86.86,0,0,0,0,.15,1.22,1.22,0,0,0,.26.84,1,1,0,0,0,.78.29,1.36,1.36,0,0,0,.74-.21,2,2,0,0,0,.57-.55l.29.23a2.15,2.15,0,0,1-.76.7A1.86,1.86,0,0,1,101.6,251Zm.53-3.76a1.23,1.23,0,0,0-.92.39,2.05,2.05,0,0,0-.5,1l0,.18a8.62,8.62,0,0,0,1.18-.09,2.8,2.8,0,0,0,.71-.2.76.76,0,0,0,.34-.28.81.81,0,0,0,.09-.37.52.52,0,0,0-.24-.48A1.11,1.11,0,0,0,102.13,247.19Z"/><path class="cls-7" d="M104.07,250.85l.78-3.94h.44l-.18.82h0l.2-.31a1.28,1.28,0,0,1,.26-.26,1.25,1.25,0,0,1,.34-.19,1.53,1.53,0,0,1,.45-.06h.24l-.08.42h-.25a1.36,1.36,0,0,0-.51.1,1.31,1.31,0,0,0-.4.26,1.39,1.39,0,0,0-.28.38,2.27,2.27,0,0,0-.16.46l-.46,2.32Z"/><path class="cls-7" d="M109.76,250.85a.41.41,0,0,1-.3-.09.35.35,0,0,1-.09-.25,1.76,1.76,0,0,1,0-.19l.06-.32h0a2.19,2.19,0,0,1-.55.71,1.24,1.24,0,0,1-.77.24,1.27,1.27,0,0,1-.52-.11,1,1,0,0,1-.38-.3,1.23,1.23,0,0,1-.24-.47,1.91,1.91,0,0,1-.09-.61,3.81,3.81,0,0,1,.12-1,2.83,2.83,0,0,1,.36-.85,2.21,2.21,0,0,1,.61-.61,1.55,1.55,0,0,1,.84-.23,1.28,1.28,0,0,1,.71.19,1,1,0,0,1,.4.56h0l.49-2.42h.42l-1.06,5.33h.6l-.08.37Zm-1.55-.28a1,1,0,0,0,.44-.09,1.7,1.7,0,0,0,.39-.27,2.34,2.34,0,0,0,.37-.45,1.91,1.91,0,0,0,.21-.61l.19-.93a.92.92,0,0,0,0-.37.71.71,0,0,0-.15-.33.73.73,0,0,0-.32-.24,1.19,1.19,0,0,0-.49-.09,1.26,1.26,0,0,0-.92.37,2,2,0,0,0-.49,1l-.09.46,0,.22c0,.07,0,.15,0,.24a1.86,1.86,0,0,0,0,.42.86.86,0,0,0,.17.33.71.71,0,0,0,.28.23A1,1,0,0,0,108.21,250.57Z"/><path class="cls-7" d="M112.82,251a1.36,1.36,0,0,1-1.06-.41,1.71,1.71,0,0,1-.38-1.2,3.08,3.08,0,0,1,.15-1,2.52,2.52,0,0,1,.41-.8,2,2,0,0,1,.63-.55,1.63,1.63,0,0,1,.82-.2,1.88,1.88,0,0,1,.49.06,1.25,1.25,0,0,1,.4.2,1,1,0,0,1,.27.31,1.05,1.05,0,0,1,.1.44,1,1,0,0,1-.14.5,1.14,1.14,0,0,1-.47.41,2.93,2.93,0,0,1-.86.26,7.16,7.16,0,0,1-1.34.11.9.9,0,0,0,0,.18.86.86,0,0,0,0,.15,1.22,1.22,0,0,0,.26.84,1,1,0,0,0,.78.29,1.36,1.36,0,0,0,.74-.21,2,2,0,0,0,.57-.55l.29.23a2.15,2.15,0,0,1-.76.7A1.89,1.89,0,0,1,112.82,251Zm.53-3.76a1.23,1.23,0,0,0-.92.39,2.05,2.05,0,0,0-.5,1l0,.18a8.62,8.62,0,0,0,1.18-.09,2.8,2.8,0,0,0,.71-.2.76.76,0,0,0,.34-.28.81.81,0,0,0,.09-.37.52.52,0,0,0-.24-.48A1.11,1.11,0,0,0,113.35,247.19Z"/><path class="cls-7" d="M115.3,250.85l.78-3.94h.43l-.16.79h0a1.72,1.72,0,0,1,.52-.66,1.26,1.26,0,0,1,.76-.22,1,1,0,0,1,.76.28,1.14,1.14,0,0,1,.26.79,2.09,2.09,0,0,1,0,.24,1.28,1.28,0,0,1,0,.27l-.41,2.08h.6l-.08.37h-.57a.36.36,0,0,1-.27-.08.28.28,0,0,1-.11-.24s0-.07,0-.1,0-.07,0-.12l.38-1.92a2,2,0,0,0,0-.24c0-.08,0-.15,0-.2,0-.5-.24-.76-.72-.76a1.12,1.12,0,0,0-.44.09,1.34,1.34,0,0,0-.41.29,2.61,2.61,0,0,0-.31.44,2.79,2.79,0,0,0-.2.55l-.45,2.29Z"/><path class="cls-7" d="M123.11,251a2.41,2.41,0,0,1-1.09-.23,1.69,1.69,0,0,1-.7-.7l.35-.24a1.54,1.54,0,0,0,.58.58,1.87,1.87,0,0,0,.87.19,1.8,1.8,0,0,0,.65-.11,1.23,1.23,0,0,0,.46-.28,1.09,1.09,0,0,0,.27-.4,1.44,1.44,0,0,0,.09-.51.82.82,0,0,0-.21-.59,1.21,1.21,0,0,0-.65-.33l-.58-.12a1.21,1.21,0,0,1-1.1-1.27,1.52,1.52,0,0,1,.11-.6,1.43,1.43,0,0,1,.34-.5,1.63,1.63,0,0,1,.56-.33,2,2,0,0,1,.77-.13,2.19,2.19,0,0,1,1,.22,1.71,1.71,0,0,1,.64.58l-.33.27a1.51,1.51,0,0,0-.54-.5,1.8,1.8,0,0,0-.83-.17,1.37,1.37,0,0,0-1,.32,1,1,0,0,0-.34.82.84.84,0,0,0,.2.59,1.17,1.17,0,0,0,.64.32l.57.13a1.61,1.61,0,0,1,.85.44,1.21,1.21,0,0,1,.29.84,1.85,1.85,0,0,1-.13.66,1.54,1.54,0,0,1-.36.55,2,2,0,0,1-.6.36A2.38,2.38,0,0,1,123.11,251Z"/><path class="cls-7" d="M126.44,250.85a.43.43,0,0,1-.3-.09.38.38,0,0,1-.1-.26v-.07a.31.31,0,0,1,0-.08l.69-3.44h.43l-.72,3.57h.6l-.07.37Zm.76-5c-.1,0-.17,0-.2-.07a.2.2,0,0,1-.06-.15v-.05a.71.71,0,0,0,0-.12.29.29,0,0,1,.33-.24.29.29,0,0,1,.21.06.24.24,0,0,1,.06.15s0,0,0,.06a.89.89,0,0,1,0,.11A.29.29,0,0,1,127.2,245.84Z"/><path class="cls-7" d="M129.5,251a1.37,1.37,0,0,1-1.06-.41,1.71,1.71,0,0,1-.38-1.2,3.08,3.08,0,0,1,.15-1,2.52,2.52,0,0,1,.41-.8,2,2,0,0,1,.63-.55,1.63,1.63,0,0,1,.82-.2,1.88,1.88,0,0,1,.49.06,1.16,1.16,0,0,1,.4.2,1,1,0,0,1,.27.31.92.92,0,0,1,.1.44,1,1,0,0,1-.14.5,1.17,1.17,0,0,1-.46.41,3.11,3.11,0,0,1-.87.26,7.16,7.16,0,0,1-1.34.11.9.9,0,0,0,0,.18c0,.06,0,.11,0,.15a1.22,1.22,0,0,0,.26.84,1,1,0,0,0,.78.29,1.39,1.39,0,0,0,.75-.21,2,2,0,0,0,.56-.55l.29.23a2.07,2.07,0,0,1-.76.7A1.86,1.86,0,0,1,129.5,251Zm.53-3.76a1.2,1.2,0,0,0-.91.39,2.06,2.06,0,0,0-.51,1l0,.18a8.48,8.48,0,0,0,1.18-.09,2.8,2.8,0,0,0,.71-.2.76.76,0,0,0,.34-.28.81.81,0,0,0,.09-.37.54.54,0,0,0-.23-.48A1.17,1.17,0,0,0,130,247.19Z"/><path class="cls-7" d="M135.38,251a1.37,1.37,0,0,1-1.06-.41,1.71,1.71,0,0,1-.38-1.2,3.08,3.08,0,0,1,.15-1,2.52,2.52,0,0,1,.41-.8,2,2,0,0,1,.63-.55,1.63,1.63,0,0,1,.82-.2,1.88,1.88,0,0,1,.49.06,1.16,1.16,0,0,1,.4.2,1,1,0,0,1,.27.31.92.92,0,0,1,.1.44,1,1,0,0,1-.14.5,1.17,1.17,0,0,1-.46.41,3.11,3.11,0,0,1-.87.26,7.16,7.16,0,0,1-1.34.11.9.9,0,0,0,0,.18c0,.06,0,.11,0,.15a1.22,1.22,0,0,0,.26.84,1,1,0,0,0,.78.29,1.42,1.42,0,0,0,.75-.21,2,2,0,0,0,.56-.55l.29.23a2.07,2.07,0,0,1-.76.7A1.86,1.86,0,0,1,135.38,251Zm.53-3.76a1.23,1.23,0,0,0-.92.39,2.14,2.14,0,0,0-.5,1l0,.18a8.62,8.62,0,0,0,1.18-.09,2.8,2.8,0,0,0,.71-.2.76.76,0,0,0,.34-.28.81.81,0,0,0,.09-.37.54.54,0,0,0-.23-.48A1.17,1.17,0,0,0,135.91,247.19Z"/><path class="cls-7" d="M138.34,250.85a.41.41,0,0,1-.3-.09.34.34,0,0,1-.1-.26v-.07a.31.31,0,0,1,0-.08l.69-3.44h.42l-.71,3.57h.6l-.08.37Zm.76-5a.25.25,0,0,1-.21-.07.25.25,0,0,1,0-.15v-.05s0-.06,0-.12a.29.29,0,0,1,.33-.24.25.25,0,0,1,.2.06.24.24,0,0,1,.06.15v.06a.89.89,0,0,1,0,.11A.29.29,0,0,1,139.1,245.84Z"/><path class="cls-7" d="M139.88,250.85l.79-3.94h.43l-.16.79h0a1.63,1.63,0,0,1,.52-.66,1.24,1.24,0,0,1,.76-.22,1,1,0,0,1,.76.28,1.14,1.14,0,0,1,.26.79,2.32,2.32,0,0,1,0,.24,1.26,1.26,0,0,1,0,.27l-.41,2.08h.6l-.08.37h-.57a.41.41,0,0,1-.28-.08.3.3,0,0,1-.1-.24s0-.07,0-.1,0-.07,0-.12l.39-1.92a2,2,0,0,0,0-.24,1.56,1.56,0,0,0,0-.2c0-.5-.23-.76-.71-.76a1.08,1.08,0,0,0-.44.09,1.24,1.24,0,0,0-.41.29,2.61,2.61,0,0,0-.31.44,2.27,2.27,0,0,0-.2.55l-.45,2.29Z"/><path class="cls-7" d="M84.21,255.12l-1,5h-.45l1-5H82l.07-.4h4l-.09.4Z"/><path class="cls-7" d="M87,260.19a1.39,1.39,0,0,1-1.07-.4,1.72,1.72,0,0,1-.37-1.21,3,3,0,0,1,.14-1,2.62,2.62,0,0,1,.41-.8,2.05,2.05,0,0,1,.63-.55,1.65,1.65,0,0,1,.83-.21,1.93,1.93,0,0,1,.49.07,1.18,1.18,0,0,1,.39.19.83.83,0,0,1,.27.32.92.92,0,0,1,.1.44.88.88,0,0,1-.14.5,1,1,0,0,1-.46.4,2.79,2.79,0,0,1-.87.27,7.16,7.16,0,0,1-1.34.11.88.88,0,0,0,0,.17v.16a1.18,1.18,0,0,0,.26.84,1,1,0,0,0,.77.29,1.37,1.37,0,0,0,.75-.21,1.76,1.76,0,0,0,.56-.56l.29.24a2.16,2.16,0,0,1-.76.7A2,2,0,0,1,87,260.19Zm.52-3.75a1.21,1.21,0,0,0-.91.39,2,2,0,0,0-.51,1l0,.18a8.26,8.26,0,0,0,1.18-.1,2.38,2.38,0,0,0,.71-.19.75.75,0,0,0,.35-.29.86.86,0,0,0,.08-.36.54.54,0,0,0-.23-.49A1.18,1.18,0,0,0,87.47,256.44Z"/><path class="cls-7" d="M89.89,260.1a.4.4,0,0,1-.3-.1.35.35,0,0,1-.09-.25v-.07a.34.34,0,0,1,0-.09l.7-3.43h.42l-.72,3.56h.6l-.07.38Zm.76-5a.28.28,0,0,1-.2-.06.2.2,0,0,1-.06-.15.09.09,0,0,1,0-.05.62.62,0,0,1,0-.12.31.31,0,0,1,.34-.25.28.28,0,0,1,.2.07.2.2,0,0,1,.06.15.11.11,0,0,1,0,.05s0,.06,0,.12A.31.31,0,0,1,90.65,255.08Z"/><path class="cls-7" d="M91.92,260.1a.38.38,0,0,1-.3-.1.36.36,0,0,1-.1-.25v-.07a.51.51,0,0,1,0-.09l1-5.19H93l-1.06,5.32h.62l-.07.38Z"/><path class="cls-7" d="M98.32,260.1A.4.4,0,0,1,98,260a.37.37,0,0,1-.1-.25.74.74,0,0,1,0-.19l.06-.32h0a2.2,2.2,0,0,1-.56.71,1.38,1.38,0,0,1-1.28.13,1.45,1.45,0,0,1-.39-.3,1.6,1.6,0,0,1-.24-.47,2,2,0,0,1-.08-.61,4,4,0,0,1,.12-1,2.88,2.88,0,0,1,.36-.84,2.05,2.05,0,0,1,.6-.61,1.48,1.48,0,0,1,.84-.24,1.24,1.24,0,0,1,.71.2,1,1,0,0,1,.4.56h0L99,254.4h.42l-1.06,5.32H99l-.08.38Zm-1.55-.28a1,1,0,0,0,.45-.1,1.33,1.33,0,0,0,.38-.27A1.86,1.86,0,0,0,98,259a1.84,1.84,0,0,0,.22-.61l.18-.92a.92.92,0,0,0,0-.37.91.91,0,0,0-.15-.33.87.87,0,0,0-.32-.24,1.24,1.24,0,0,0-.5-.09,1.2,1.2,0,0,0-.91.37,2,2,0,0,0-.49,1l-.09.47,0,.22a1.77,1.77,0,0,0,0,.24,1.36,1.36,0,0,0,.05.41.82.82,0,0,0,.16.34.79.79,0,0,0,.28.23A1,1,0,0,0,96.77,259.82Z"/><path class="cls-7" d="M101.4,260.19a1.37,1.37,0,0,1-1.07-.4,1.72,1.72,0,0,1-.38-1.21,3,3,0,0,1,.15-1,2.42,2.42,0,0,1,.41-.8,1.85,1.85,0,0,1,.63-.55,1.64,1.64,0,0,1,.82-.21,1.87,1.87,0,0,1,.49.07,1.14,1.14,0,0,1,.4.19,1,1,0,0,1,.27.32.92.92,0,0,1,.1.44,1,1,0,0,1-.14.5,1.08,1.08,0,0,1-.46.4,2.79,2.79,0,0,1-.87.27,7.16,7.16,0,0,1-1.34.11.88.88,0,0,0,0,.17v.16a1.22,1.22,0,0,0,.25.84,1,1,0,0,0,.78.29,1.39,1.39,0,0,0,.75-.21,1.87,1.87,0,0,0,.56-.56l.29.24a2.16,2.16,0,0,1-.76.7A2,2,0,0,1,101.4,260.19Zm.52-3.75a1.2,1.2,0,0,0-.91.39,2,2,0,0,0-.51,1l0,.18a8.26,8.26,0,0,0,1.18-.1,2.47,2.47,0,0,0,.71-.19.72.72,0,0,0,.34-.29.74.74,0,0,0,.09-.36.57.57,0,0,0-.23-.49A1.18,1.18,0,0,0,101.92,256.44Z"/><path class="cls-7" d="M103.86,260.1l.79-3.94h.43l-.18.82h0a2.11,2.11,0,0,1,.21-.31,1.6,1.6,0,0,1,.25-.27,1.56,1.56,0,0,1,.34-.18,1.53,1.53,0,0,1,.45-.06h.25l-.09.42h-.25a1.19,1.19,0,0,0-.51.1,1.3,1.3,0,0,0-.39.25,1.21,1.21,0,0,0-.28.39,1.52,1.52,0,0,0-.16.45l-.47,2.33Z"/><path class="cls-7" d="M111.9,260.1l-.27-1.67h-2.22l-.87,1.67h-.48l2.85-5.38h.59l.85,5.38Zm-.76-4.94h0L109.62,258h2Z"/><path class="cls-7" d="M114.41,256.16l-.49,2.46a1,1,0,0,0,0,.24,1.56,1.56,0,0,0,0,.2.81.81,0,0,0,.16.56.67.67,0,0,0,.54.2,1.12,1.12,0,0,0,.44-.09,1.2,1.2,0,0,0,.4-.29,2.47,2.47,0,0,0,.31-.46,2.14,2.14,0,0,0,.2-.53l.45-2.29h.43l-.71,3.56h.59l-.07.38h-.56a.4.4,0,0,1-.29-.09.37.37,0,0,1-.09-.26s0-.1,0-.18l0-.26h0a1.84,1.84,0,0,1-.52.67,1.28,1.28,0,0,1-.75.21,1,1,0,0,1-.76-.28,1.12,1.12,0,0,1-.25-.79,2.09,2.09,0,0,1,0-.24c0-.09,0-.18,0-.27l.5-2.45Z"/><path class="cls-7" d="M118.87,260.19A1.83,1.83,0,0,1,118,260a1.64,1.64,0,0,1-.62-.55l.3-.26a1.33,1.33,0,0,0,1.17.63,1.23,1.23,0,0,0,.74-.22.78.78,0,0,0,.28-.63.54.54,0,0,0-.15-.41,1.05,1.05,0,0,0-.52-.23l-.33-.08a2.09,2.09,0,0,1-.4-.12,1.13,1.13,0,0,1-.32-.19.69.69,0,0,1-.2-.28,1,1,0,0,1-.08-.41,1.09,1.09,0,0,1,.37-.85,1.47,1.47,0,0,1,1-.34,1.6,1.6,0,0,1,.77.17,1.63,1.63,0,0,1,.51.43l-.3.27a1.42,1.42,0,0,0-.38-.35,1.28,1.28,0,0,0-.63-.14,1.06,1.06,0,0,0-.71.21.72.72,0,0,0-.24.57.53.53,0,0,0,.15.41,1,1,0,0,0,.5.23l.33.08a2.2,2.2,0,0,1,.41.12,1.25,1.25,0,0,1,.32.2.72.72,0,0,1,.2.28,1,1,0,0,1,.08.4,1.29,1.29,0,0,1-.11.53,1.14,1.14,0,0,1-.3.39,1.36,1.36,0,0,1-.46.25A1.69,1.69,0,0,1,118.87,260.19Z"/><path class="cls-7" d="M121.76,260.1a.4.4,0,0,1-.31-.1.33.33,0,0,1-.09-.25,1.25,1.25,0,0,1,0-.21l.6-3h-.64l.07-.37h.4a.38.38,0,0,0,.24-.07.55.55,0,0,0,.09-.24l.16-.8h.4l-.22,1.11h.88l-.08.37h-.87l-.64,3.19h.81l-.07.38Z"/><path class="cls-7" d="M125.11,260.19a1.39,1.39,0,0,1-1.07-.4,1.77,1.77,0,0,1-.37-1.21,3,3,0,0,1,.15-1,2.24,2.24,0,0,1,.41-.8,1.85,1.85,0,0,1,.63-.55,1.61,1.61,0,0,1,.82-.21,1.87,1.87,0,0,1,.49.07,1.24,1.24,0,0,1,.4.19,1,1,0,0,1,.27.32.92.92,0,0,1,.1.44,1,1,0,0,1-.14.5,1.05,1.05,0,0,1-.47.4,2.72,2.72,0,0,1-.86.27,7.16,7.16,0,0,1-1.34.11.47.47,0,0,0,0,.17,1,1,0,0,0,0,.16,1.22,1.22,0,0,0,.26.84,1,1,0,0,0,.78.29,1.36,1.36,0,0,0,.74-.21,1.9,1.9,0,0,0,.57-.56l.29.24a2.25,2.25,0,0,1-.76.7A2,2,0,0,1,125.11,260.19Zm.53-3.75a1.23,1.23,0,0,0-.92.39,2,2,0,0,0-.5,1l0,.18a8.4,8.4,0,0,0,1.18-.1,2.47,2.47,0,0,0,.71-.19.72.72,0,0,0,.34-.29.74.74,0,0,0,.09-.36.55.55,0,0,0-.24-.49A1.12,1.12,0,0,0,125.64,256.44Z"/><path class="cls-7" d="M128.06,260.1a.38.38,0,0,1-.3-.1.36.36,0,0,1-.1-.25v-.07a.51.51,0,0,1,0-.09l1-5.19h.42l-1.06,5.32h.62l-.07.38Z"/><path class="cls-7" d="M130.05,260.1a.4.4,0,0,1-.3-.1.35.35,0,0,1-.09-.25v-.07a.34.34,0,0,1,0-.09l1-5.19h.43l-1.07,5.32h.63l-.08.38Z"/><path class="cls-7" d="M132.76,256.16l-.5,2.46,0,.24c0,.08,0,.15,0,.2a.81.81,0,0,0,.17.56.66.66,0,0,0,.53.2,1.13,1.13,0,0,0,.45-.09,1.31,1.31,0,0,0,.4-.29,3.08,3.08,0,0,0,.31-.46,2.1,2.1,0,0,0,.19-.53l.46-2.29h.42l-.71,3.56h.6l-.07.38h-.57a.39.39,0,0,1-.28-.09.37.37,0,0,1-.09-.26.69.69,0,0,1,0-.18l0-.26h0a1.84,1.84,0,0,1-.52.67,1.32,1.32,0,0,1-.75.21,1,1,0,0,1-.76-.28,1.12,1.12,0,0,1-.26-.79,2.32,2.32,0,0,1,0-.24,2.51,2.51,0,0,1,0-.27l.49-2.45Z"/><path class="cls-7" d="M136,260.1l.78-3.94h.44l-.17.78h0a1.76,1.76,0,0,1,.51-.66,1.34,1.34,0,0,1,.76-.22,1,1,0,0,1,.77.28,1.15,1.15,0,0,1,.25.79,2.18,2.18,0,0,1,0,.25,2,2,0,0,1,0,.26l-.42,2.08h.6l-.07.38h-.57a.44.44,0,0,1-.28-.08.27.27,0,0,1-.1-.24.41.41,0,0,1,0-.11.52.52,0,0,1,0-.11l.38-1.92a2.4,2.4,0,0,0,0-.24,1.56,1.56,0,0,0,0-.2c0-.51-.24-.76-.72-.76a1.12,1.12,0,0,0-.44.09,1.2,1.2,0,0,0-.4.29,1.64,1.64,0,0,0-.31.44,1.82,1.82,0,0,0-.2.55l-.46,2.29Z"/><path class="cls-7" d="M143.5,260.44a1.13,1.13,0,0,1-.11.52,1,1,0,0,1-.35.41,2.06,2.06,0,0,1-.63.27,4.16,4.16,0,0,1-.94.1,2.19,2.19,0,0,1-1.15-.24.72.72,0,0,1-.39-.66.79.79,0,0,1,.21-.56,1.27,1.27,0,0,1,.6-.36v-.05a.49.49,0,0,1-.32-.48.61.61,0,0,1,.21-.47,1.36,1.36,0,0,1,.58-.27v0a1,1,0,0,1-.41-.38,1.21,1.21,0,0,1-.14-.58,1.71,1.71,0,0,1,.12-.65,1.56,1.56,0,0,1,.33-.5,1.48,1.48,0,0,1,.51-.32,1.69,1.69,0,0,1,.64-.12,1.44,1.44,0,0,1,.43.06,1.07,1.07,0,0,1,.34.16l0-.22a.56.56,0,0,1,.13-.29.4.4,0,0,1,.29-.11h.63l-.07.38h-.72l-.08.43a1.12,1.12,0,0,1,.22.7,1.69,1.69,0,0,1-.12.64,1.56,1.56,0,0,1-.33.5,1.69,1.69,0,0,1-.51.32,1.76,1.76,0,0,1-.66.12,1.12,1.12,0,0,1-.32,0,1.57,1.57,0,0,0-.53.21.41.41,0,0,0-.18.34.27.27,0,0,0,.12.23.75.75,0,0,0,.4.08h1a1.51,1.51,0,0,1,.93.23A.81.81,0,0,1,143.5,260.44Zm-.43.08a.48.48,0,0,0-.18-.4,1,1,0,0,0-.62-.15H141a1.17,1.17,0,0,0-.46.29.7.7,0,0,0-.17.47.55.55,0,0,0,.24.48,1.33,1.33,0,0,0,.74.17h.32a2,2,0,0,0,1-.22A.71.71,0,0,0,143.07,260.52Zm-1.15-2.11a1.05,1.05,0,0,0,.73-.24,1.11,1.11,0,0,0,.34-.62c0-.13,0-.23,0-.28a.86.86,0,0,0,0-.15.69.69,0,0,0-.2-.51.89.89,0,0,0-.62-.2,1,1,0,0,0-1.07.86c0,.13,0,.22,0,.28a1,1,0,0,0,0,.15.66.66,0,0,0,.21.51A.85.85,0,0,0,141.92,258.41Z"/><path class="cls-8" d="M49.83,61.62V46.72h9.88V49.6H53.07v3h5.66v2.88H53.07v6.11Z"/><path class="cls-8" d="M69.59,61.62a2,2,0,0,1-1.42-.54,2.41,2.41,0,0,1-.71-1.43h-.13a2.61,2.61,0,0,1-1.13,1.66,4,4,0,0,1-2.16.56A3.53,3.53,0,0,1,61.46,61a3.18,3.18,0,0,1-.9-2.36A2.94,2.94,0,0,1,61.85,56a6.28,6.28,0,0,1,3.51-.86h1.78v-.71a1.89,1.89,0,0,0-.43-1.29,1.84,1.84,0,0,0-1.43-.48,2.52,2.52,0,0,0-1.5.41,3.78,3.78,0,0,0-.91.92L61,52.3a5,5,0,0,1,1.72-1.58,5.94,5.94,0,0,1,2.8-.56,5.31,5.31,0,0,1,3.59,1,3.83,3.83,0,0,1,1.19,3v4.91h1v2.46Zm-4.38-1.95a2.57,2.57,0,0,0,1.36-.34,1.17,1.17,0,0,0,.57-1.1V56.92H65.6c-1.24,0-1.86.42-1.86,1.25v.32a1,1,0,0,0,.39.9A1.78,1.78,0,0,0,65.21,59.67Z"/><path class="cls-8" d="M73.45,45.82h3.16v6.49h.13a3.46,3.46,0,0,1,1-1.51,3.6,3.6,0,0,1,4.69.51,5.29,5.29,0,0,1,.88,3.28v7H80.2V54.85a3,3,0,0,0-.35-1.61,1.32,1.32,0,0,0-1.21-.52,3.08,3.08,0,0,0-.75.09,2.06,2.06,0,0,0-.65.31,1.63,1.63,0,0,0-.46.52,1.53,1.53,0,0,0-.17.72v7.26H73.45Z"/><path class="cls-8" d="M86.17,61.62V50.41h3.16v2.43h.11a3.26,3.26,0,0,1,.29-.9,3.13,3.13,0,0,1,.57-.78,2.72,2.72,0,0,1,.84-.55,3.11,3.11,0,0,1,1.15-.2h.56v3h-.79a4.55,4.55,0,0,0-2.06.36,1.38,1.38,0,0,0-.67,1.34v6.56Z"/><path class="cls-8" d="M94.15,61.62v-2.5l5.57-6.25H94.34V50.41h9v2.48L97.8,59.16h5.74v2.46Z"/><path class="cls-8" d="M110.28,61.87a6.06,6.06,0,0,1-2.28-.41,4.77,4.77,0,0,1-1.7-1.18,4.88,4.88,0,0,1-1-1.84,7.78,7.78,0,0,1-.35-2.44,7.86,7.86,0,0,1,.34-2.4,4.91,4.91,0,0,1,1-1.84,4.48,4.48,0,0,1,1.65-1.19,5.71,5.71,0,0,1,2.25-.41,5.54,5.54,0,0,1,2.37.46,4.6,4.6,0,0,1,1.63,1.26,5.07,5.07,0,0,1,.91,1.83,7.72,7.72,0,0,1,.29,2.16v.94h-7.19V57a2.18,2.18,0,0,0,2.48,2.39,3,3,0,0,0,1.6-.39A6.32,6.32,0,0,0,113.4,58L115,60a5.09,5.09,0,0,1-2,1.37A7.21,7.21,0,0,1,110.28,61.87Zm-.06-9.39a1.87,1.87,0,0,0-1.5.63,2.45,2.45,0,0,0-.55,1.68V55h3.93v-.19a2.79,2.79,0,0,0-.46-1.66A1.65,1.65,0,0,0,110.22,52.48Z"/><path class="cls-8" d="M124.22,59.74h-.11a4.31,4.31,0,0,1-.39.81,3.11,3.11,0,0,1-.63.68,2.9,2.9,0,0,1-.91.47,4,4,0,0,1-1.2.17,3.11,3.11,0,0,1-2.62-1.14,5.25,5.25,0,0,1-.88-3.28v-7h3.15v6.77a2.82,2.82,0,0,0,.37,1.58,1.35,1.35,0,0,0,1.23.55,2.27,2.27,0,0,0,.73-.11,2,2,0,0,0,.64-.31,1.67,1.67,0,0,0,.45-.5,1.42,1.42,0,0,0,.17-.7V50.41h3.16V61.62h-3.16Z"/><path class="cls-8" d="M140.69,62.43a3.78,3.78,0,0,1-.31,1.58,2.78,2.78,0,0,1-1,1.16,5.14,5.14,0,0,1-1.87.72,13.65,13.65,0,0,1-2.87.25,14.24,14.24,0,0,1-2.46-.18,5.75,5.75,0,0,1-1.65-.51,2.16,2.16,0,0,1-.91-.82,2,2,0,0,1-.29-1.09,2,2,0,0,1,.55-1.48,2.73,2.73,0,0,1,1.54-.66v-.23a1.85,1.85,0,0,1-1.22-.7,2,2,0,0,1-.4-1.27,1.61,1.61,0,0,1,.18-.78,2.18,2.18,0,0,1,.47-.58,2.46,2.46,0,0,1,.67-.39,5.68,5.68,0,0,1,.77-.24v-.08a3.31,3.31,0,0,1-1.52-1.29,3.72,3.72,0,0,1-.49-1.91,3.46,3.46,0,0,1,1.19-2.74,5.38,5.38,0,0,1,3.62-1,7.41,7.41,0,0,1,1.89.21v-.43a1.66,1.66,0,0,1,.44-1.29,1.82,1.82,0,0,1,1.25-.39H140V50.6h-2.47v.13A3.28,3.28,0,0,1,139,52a3.83,3.83,0,0,1,.47,1.91,3.36,3.36,0,0,1-1.19,2.7,5.42,5.42,0,0,1-3.61,1,7.7,7.7,0,0,1-2-.24,1,1,0,0,0-.49.9.73.73,0,0,0,.31.63,1.81,1.81,0,0,0,1,.22h3.25a4.34,4.34,0,0,1,3,.85A3.13,3.13,0,0,1,140.69,62.43Zm-3,.42a.83.83,0,0,0-.39-.74,2.53,2.53,0,0,0-1.34-.26h-3.84a1.14,1.14,0,0,0-.31.48,1.41,1.41,0,0,0-.1.52,1,1,0,0,0,.53.91,4.18,4.18,0,0,0,1.82.29h1.28a4.1,4.1,0,0,0,1.81-.29A1,1,0,0,0,137.73,62.85Zm-3-7.3a2.1,2.1,0,0,0,1.39-.39,1.39,1.39,0,0,0,.46-1.13v-.26a1.39,1.39,0,0,0-.46-1.13,2.69,2.69,0,0,0-2.79,0,1.39,1.39,0,0,0-.46,1.13V54a1.39,1.39,0,0,0,.46,1.13A2.11,2.11,0,0,0,134.68,55.55Z"/><path class="cls-8" d="M142.1,45.82h3.16v6.49h.13a3.46,3.46,0,0,1,1-1.51,3.6,3.6,0,0,1,4.69.51,5.29,5.29,0,0,1,.88,3.28v7h-3.16V54.85a3,3,0,0,0-.34-1.61,1.32,1.32,0,0,0-1.21-.52,3.08,3.08,0,0,0-.75.09,2.06,2.06,0,0,0-.65.31,1.63,1.63,0,0,0-.46.52,1.53,1.53,0,0,0-.17.72v7.26H142.1Z"/><path class="cls-8" d="M159.49,61.87a6.06,6.06,0,0,1-2.28-.41,4.77,4.77,0,0,1-1.7-1.18,4.88,4.88,0,0,1-1-1.84,7.78,7.78,0,0,1-.35-2.44,7.86,7.86,0,0,1,.34-2.4,4.91,4.91,0,0,1,1-1.84,4.48,4.48,0,0,1,1.65-1.19,5.7,5.7,0,0,1,2.24-.41,5.55,5.55,0,0,1,2.38.46,4.6,4.6,0,0,1,1.63,1.26,5.07,5.07,0,0,1,.91,1.83,7.72,7.72,0,0,1,.29,2.16v.94h-7.19V57a2.18,2.18,0,0,0,2.48,2.39,3,3,0,0,0,1.6-.39,6.32,6.32,0,0,0,1.15-.94l1.58,2a5.09,5.09,0,0,1-1.95,1.37A7.21,7.21,0,0,1,159.49,61.87Zm-.06-9.39a1.9,1.9,0,0,0-1.51.63,2.49,2.49,0,0,0-.54,1.68V55h3.93v-.19a2.79,2.79,0,0,0-.46-1.66A1.65,1.65,0,0,0,159.43,52.48Z"/><path class="cls-8" d="M166.81,61.62V50.41H170v2.43h.11a3,3,0,0,1,.3-.9,2.68,2.68,0,0,1,1.4-1.33,3.16,3.16,0,0,1,1.16-.2h.55v3h-.79a4.55,4.55,0,0,0-2.06.36,1.4,1.4,0,0,0-.67,1.34v6.56Z"/><path class="cls-8" d="M179.23,61.87a6.36,6.36,0,0,1-2.73-.52,6.27,6.27,0,0,1-2-1.48L176.37,58a4.67,4.67,0,0,0,1.33,1,3.4,3.4,0,0,0,1.64.39,2.16,2.16,0,0,0,1.3-.29.94.94,0,0,0,.36-.78c0-.53-.37-.84-1.13-.94l-1.21-.15q-3.78-.46-3.78-3.46a3.44,3.44,0,0,1,.31-1.48,3.4,3.4,0,0,1,.87-1.15,4.21,4.21,0,0,1,1.37-.75,5.59,5.59,0,0,1,1.8-.26,9,9,0,0,1,1.55.11,5.24,5.24,0,0,1,1.19.34,4.9,4.9,0,0,1,1,.56,11.32,11.32,0,0,1,.86.74L182,53.76a4.38,4.38,0,0,0-1.21-.84,3.22,3.22,0,0,0-1.38-.31,2,2,0,0,0-1.15.26.79.79,0,0,0-.34.68.9.9,0,0,0,.25.69,1.63,1.63,0,0,0,.92.35l1.26.18c2.46.32,3.69,1.45,3.69,3.37a3.23,3.23,0,0,1-.34,1.49,3.43,3.43,0,0,1-1,1.18,4.41,4.41,0,0,1-1.51.78A6.44,6.44,0,0,1,179.23,61.87Z"/><path class="cls-8" d="M190,61.62a3.38,3.38,0,0,1-2.49-.84,3.26,3.26,0,0,1-.84-2.43V52.87h-1.58V50.41h.79a1,1,0,0,0,.87-.31,1.4,1.4,0,0,0,.24-.88V47.38h2.84v3H192v2.46H189.8v6.29h2v2.46Z"/><path class="cls-8" d="M198.8,61.87a6.06,6.06,0,0,1-2.28-.41,4.68,4.68,0,0,1-1.7-1.18,4.88,4.88,0,0,1-1-1.84,7.77,7.77,0,0,1-.36-2.44,8.18,8.18,0,0,1,.34-2.4,5.07,5.07,0,0,1,1-1.84,4.48,4.48,0,0,1,1.65-1.19,5.66,5.66,0,0,1,2.24-.41,5.55,5.55,0,0,1,2.38.46,4.65,4.65,0,0,1,1.62,1.26,5.09,5.09,0,0,1,.92,1.83,8.1,8.1,0,0,1,.29,2.16v.94h-7.19V57a2.46,2.46,0,0,0,.6,1.75,2.42,2.42,0,0,0,1.87.64,2.94,2.94,0,0,0,1.6-.39,6.05,6.05,0,0,0,1.16-.94l1.58,2a5,5,0,0,1-2,1.37A7.16,7.16,0,0,1,198.8,61.87Zm-.06-9.39a1.9,1.9,0,0,0-1.51.63,2.49,2.49,0,0,0-.54,1.68V55h3.92v-.19a2.79,2.79,0,0,0-.45-1.66A1.65,1.65,0,0,0,198.74,52.48Z"/><path class="cls-8" d="M209.26,61.62a2.74,2.74,0,0,1-3.14-3.08V45.82h3.16V59.16h1.41v2.46Z"/><path class="cls-8" d="M215.55,61.62a2.73,2.73,0,0,1-3.13-3.08V45.82h3.15V59.16H217v2.46Z"/><path class="cls-8" d="M223.55,61.87a6.06,6.06,0,0,1-2.28-.41,4.77,4.77,0,0,1-1.7-1.18,4.88,4.88,0,0,1-1-1.84,7.78,7.78,0,0,1-.35-2.44,7.86,7.86,0,0,1,.34-2.4,5,5,0,0,1,1-1.84,4.44,4.44,0,0,1,1.66-1.19,6.36,6.36,0,0,1,4.62,0,4.65,4.65,0,0,1,1.62,1.26,5.26,5.26,0,0,1,.92,1.83,8.1,8.1,0,0,1,.28,2.16v.94h-7.19V57a2.18,2.18,0,0,0,2.48,2.39,3,3,0,0,0,1.6-.39,6,6,0,0,0,1.15-.94l1.58,2a5.09,5.09,0,0,1-1.95,1.37A7.21,7.21,0,0,1,223.55,61.87Zm-.06-9.39a1.87,1.87,0,0,0-1.5.63,2.45,2.45,0,0,0-.55,1.68V55h3.93v-.19a2.72,2.72,0,0,0-.46-1.66A1.65,1.65,0,0,0,223.49,52.48Z"/><path class="cls-8" d="M230.87,61.62V50.41H234v2.43h.11a3.66,3.66,0,0,1,.3-.9,2.86,2.86,0,0,1,.56-.78,2.77,2.77,0,0,1,.85-.55,3.07,3.07,0,0,1,1.15-.2h.55v3h-.79a4.55,4.55,0,0,0-2.06.36,1.4,1.4,0,0,0-.67,1.34v6.56Z"/><path class="cls-8" d="M253.45,60.4a7.73,7.73,0,0,1-1.71,1,6.25,6.25,0,0,1-2.56.45,6.8,6.8,0,0,1-2.17-.31,4.46,4.46,0,0,1-1.58-.87,3.71,3.71,0,0,1-1-1.33,4.05,4.05,0,0,1-.33-1.65,3.9,3.9,0,0,1,.22-1.37,4,4,0,0,1,.62-1.08,4.81,4.81,0,0,1,.95-.9c.37-.27.77-.53,1.19-.79a9.51,9.51,0,0,1-.62-.75A8.1,8.1,0,0,1,246,52a4.48,4.48,0,0,1-.37-.94,3.77,3.77,0,0,1-.14-1,3.13,3.13,0,0,1,.31-1.38,3.25,3.25,0,0,1,.9-1.14,4.4,4.4,0,0,1,1.4-.77,5.94,5.94,0,0,1,1.85-.28,6.13,6.13,0,0,1,1.7.23,4.15,4.15,0,0,1,1.35.66,3.06,3.06,0,0,1,.91,1.08,3.1,3.1,0,0,1,.33,1.45,3.32,3.32,0,0,1-.24,1.28,3.79,3.79,0,0,1-.64,1.05,5.06,5.06,0,0,1-.95.89,13.36,13.36,0,0,1-1.14.77l2.31,2.5a8.25,8.25,0,0,0,.42-1.46,11.37,11.37,0,0,0,.2-1.51h3.56V56h-1.34a9.54,9.54,0,0,1-1,2.37l3,3.23h-3.82Zm-3.8-1.15a3.8,3.8,0,0,0,2.16-.6l-3.14-3.39a3,3,0,0,0-1,.87,1.81,1.81,0,0,0-.3,1v.21a1.75,1.75,0,0,0,.57,1.34A2.47,2.47,0,0,0,249.65,59.25Zm.17-10.37a1.47,1.47,0,0,0-1,.32,1.08,1.08,0,0,0-.39.89v.09a1.48,1.48,0,0,0,.28.84,11,11,0,0,0,.93,1.16,4.71,4.71,0,0,0,1.14-.9,1.71,1.71,0,0,0,.38-1.1v-.09a1.06,1.06,0,0,0-.4-.89A1.44,1.44,0,0,0,249.82,48.88Z"/><path class="cls-8" d="M72.38,87.22V72.33h9.89v2.88H75.63v3h5.65v2.88H75.63v6.1Z"/><path class="cls-8" d="M87.83,87.22a2.74,2.74,0,0,1-3.13-3.07V71.43h3.16V84.77h1.4v2.45Z"/><path class="cls-8" d="M95.71,87.48a5.69,5.69,0,0,1-2.21-.41,4.4,4.4,0,0,1-1.64-1.17,5.26,5.26,0,0,1-1-1.86,8.38,8.38,0,0,1,0-4.86,5.21,5.21,0,0,1,1-1.85,4.49,4.49,0,0,1,1.64-1.16,6.16,6.16,0,0,1,4.42,0,4.49,4.49,0,0,1,1.64,1.16,5.37,5.37,0,0,1,1,1.85,8.38,8.38,0,0,1,0,4.86,5.42,5.42,0,0,1-1,1.86,4.4,4.4,0,0,1-1.64,1.17A5.73,5.73,0,0,1,95.71,87.48Zm0-2.5a1.85,1.85,0,0,0,1.45-.57,2.41,2.41,0,0,0,.51-1.65V80.48a2.39,2.39,0,0,0-.51-1.64,2.1,2.1,0,0,0-2.9,0,2.39,2.39,0,0,0-.51,1.64v2.28a2.41,2.41,0,0,0,.51,1.65A1.84,1.84,0,0,0,95.71,85Z"/><path class="cls-8" d="M107,87.22a3.37,3.37,0,0,1-2.49-.83,3.26,3.26,0,0,1-.84-2.43V78.47h-1.58V76h.79a1,1,0,0,0,.88-.31,1.49,1.49,0,0,0,.23-.88V73h2.84v3h2.22v2.45h-2.22v6.3h2.05v2.45Z"/><path class="cls-8" d="M115.09,87.22a3.37,3.37,0,0,1-2.49-.83,3.26,3.26,0,0,1-.84-2.43V78.47h-1.58V76H111a1,1,0,0,0,.87-.31,1.42,1.42,0,0,0,.24-.88V73h2.84v3h2.21v2.45h-2.21v6.3h2v2.45Z"/><path class="cls-8" d="M123.94,87.48a5.87,5.87,0,0,1-2.28-.42,4.66,4.66,0,0,1-1.7-1.17,4.85,4.85,0,0,1-1-1.85,7.66,7.66,0,0,1-.36-2.43,7.86,7.86,0,0,1,.35-2.4,5,5,0,0,1,1-1.85,4.58,4.58,0,0,1,1.65-1.18,5.66,5.66,0,0,1,2.24-.42,5.55,5.55,0,0,1,2.38.47,4.6,4.6,0,0,1,1.63,1.26,5.07,5.07,0,0,1,.91,1.83,7.72,7.72,0,0,1,.29,2.16v.94h-7.19v.17a2.46,2.46,0,0,0,.6,1.75,2.43,2.43,0,0,0,1.88.64,3,3,0,0,0,1.6-.39,6.32,6.32,0,0,0,1.15-.94l1.58,2a5,5,0,0,1-2,1.37A7.12,7.12,0,0,1,123.94,87.48Zm-.06-9.39a1.9,1.9,0,0,0-1.51.63,2.48,2.48,0,0,0-.54,1.67v.18h3.93v-.2a2.78,2.78,0,0,0-.46-1.65A1.65,1.65,0,0,0,123.88,78.09Z"/><path class="cls-8" d="M131.26,87.22V76h3.16v1.9h.13a3.55,3.55,0,0,1,1-1.52,3.59,3.59,0,0,1,4.69.52,5.27,5.27,0,0,1,.88,3.28v7H138V80.46a3,3,0,0,0-.35-1.61,1.33,1.33,0,0,0-1.21-.53,3.08,3.08,0,0,0-.75.1,1.86,1.86,0,0,0-.65.31,1.63,1.63,0,0,0-.46.52,1.53,1.53,0,0,0-.17.72v7.25Z"/><path class="cls-8" d="M144,71.43h3.16V77.9h.11a2.59,2.59,0,0,1,1.07-1.54,3.27,3.27,0,0,1,1.93-.6,3.74,3.74,0,0,1,3.23,1.5,7.36,7.36,0,0,1,1.09,4.35A7.45,7.45,0,0,1,153.48,86a3.74,3.74,0,0,1-3.23,1.5,3.24,3.24,0,0,1-1-.16,3.38,3.38,0,0,1-.89-.45,3.09,3.09,0,0,1-.67-.68,2.82,2.82,0,0,1-.4-.84h-.11v1.87H144Zm5.23,13.49a1.93,1.93,0,0,0,1.48-.63,2.41,2.41,0,0,0,.59-1.7V80.65a2.41,2.41,0,0,0-.59-1.7,2,2,0,0,0-1.48-.63,2.41,2.41,0,0,0-1.48.44,1.41,1.41,0,0,0-.59,1.21v3.31a1.39,1.39,0,0,0,.59,1.2A2.41,2.41,0,0,0,149.21,84.92Z"/><path class="cls-8" d="M161.63,87.48a5.83,5.83,0,0,1-2.28-.42,4.66,4.66,0,0,1-1.7-1.17A5,5,0,0,1,156.6,84a8,8,0,0,1-.35-2.43,7.86,7.86,0,0,1,.34-2.4,5.19,5.19,0,0,1,1-1.85,4.49,4.49,0,0,1,1.65-1.18,5.63,5.63,0,0,1,2.24-.42,5.55,5.55,0,0,1,2.38.47,4.65,4.65,0,0,1,1.62,1.26,5.09,5.09,0,0,1,.92,1.83,8.1,8.1,0,0,1,.29,2.16v.94h-7.19v.17a2.5,2.5,0,0,0,.59,1.75A2.46,2.46,0,0,0,162,85a2.94,2.94,0,0,0,1.6-.39,6,6,0,0,0,1.15-.94l1.58,2A5,5,0,0,1,164.37,87,7.16,7.16,0,0,1,161.63,87.48Zm-.06-9.39a1.88,1.88,0,0,0-1.51.63,2.48,2.48,0,0,0-.54,1.67v.18h3.92v-.2a2.71,2.71,0,0,0-.46-1.65A1.63,1.63,0,0,0,161.57,78.09Z"/><path class="cls-8" d="M172.88,87.22a3.37,3.37,0,0,1-2.49-.83,3.26,3.26,0,0,1-.84-2.43V78.47H168V76h.79a1,1,0,0,0,.87-.31,1.42,1.42,0,0,0,.24-.88V73h2.83v3h2.22v2.45H172.7v6.3h2.05v2.45Z"/><path class="cls-8" d="M177.12,87.22V76h3.16v2.43h.11a3,3,0,0,1,.3-.9,2.59,2.59,0,0,1,.56-.78,2.84,2.84,0,0,1,.84-.55,3.16,3.16,0,0,1,1.16-.2h.55V79H183a4.53,4.53,0,0,0-2.06.37,1.38,1.38,0,0,0-.67,1.34v6.55Z"/><path class="cls-8" d="M190.33,87.48a5.87,5.87,0,0,1-2.28-.42,4.66,4.66,0,0,1-1.7-1.17,4.85,4.85,0,0,1-1-1.85,7.66,7.66,0,0,1-.36-2.43,8.18,8.18,0,0,1,.34-2.4,5.19,5.19,0,0,1,1-1.85A4.58,4.58,0,0,1,188,76.18a5.66,5.66,0,0,1,2.24-.42,5.55,5.55,0,0,1,2.38.47,4.65,4.65,0,0,1,1.62,1.26,5.09,5.09,0,0,1,.92,1.83,8.1,8.1,0,0,1,.29,2.16v.94h-7.19v.17a2.46,2.46,0,0,0,.6,1.75,2.42,2.42,0,0,0,1.87.64,2.94,2.94,0,0,0,1.6-.39,6.05,6.05,0,0,0,1.16-.94l1.58,2a5,5,0,0,1-2,1.37A7.12,7.12,0,0,1,190.33,87.48Zm-.06-9.39a1.9,1.9,0,0,0-1.51.63,2.48,2.48,0,0,0-.54,1.67v.18h3.93v-.2a2.78,2.78,0,0,0-.46-1.65A1.65,1.65,0,0,0,190.27,78.09Z"/><path class="cls-8" d="M199.23,74.83a1.93,1.93,0,0,1-1.4-.44,1.52,1.52,0,0,1-.43-1.12V72.8a1.51,1.51,0,0,1,.43-1.12,2.45,2.45,0,0,1,2.8,0,1.51,1.51,0,0,1,.44,1.12v.47a1.53,1.53,0,0,1-.44,1.12A1.93,1.93,0,0,1,199.23,74.83ZM197.65,76h3.16v11.2h-3.16Z"/><path class="cls-8" d="M203.75,71.43h3.16V77.9H207a2.61,2.61,0,0,1,1.08-1.54,3.23,3.23,0,0,1,1.93-.6,3.72,3.72,0,0,1,3.22,1.5,7.29,7.29,0,0,1,1.09,4.35A7.38,7.38,0,0,1,213.25,86a3.72,3.72,0,0,1-3.22,1.5,3.2,3.2,0,0,1-1.93-.61,2.93,2.93,0,0,1-.68-.68,3.08,3.08,0,0,1-.4-.84h-.11v1.87h-3.16ZM209,84.92a2,2,0,0,0,1.49-.63,2.4,2.4,0,0,0,.58-1.7V80.65a2.4,2.4,0,0,0-.58-1.7,2,2,0,0,0-1.49-.63,2.43,2.43,0,0,0-1.48.44,1.44,1.44,0,0,0-.59,1.21v3.31a1.42,1.42,0,0,0,.59,1.2A2.43,2.43,0,0,0,209,84.92Z"/><path class="cls-8" d="M221.4,87.48a5.87,5.87,0,0,1-2.28-.42,4.66,4.66,0,0,1-1.7-1.17,4.85,4.85,0,0,1-1-1.85,7.67,7.67,0,0,1-.35-2.43,7.86,7.86,0,0,1,.34-2.4,5,5,0,0,1,1-1.85A4.58,4.58,0,0,1,219,76.18a5.7,5.7,0,0,1,2.24-.42,5.55,5.55,0,0,1,2.38.47,4.6,4.6,0,0,1,1.63,1.26,5.07,5.07,0,0,1,.91,1.83,7.72,7.72,0,0,1,.29,2.16v.94h-7.19v.17A2.18,2.18,0,0,0,221.77,85a3,3,0,0,0,1.6-.39,6.32,6.32,0,0,0,1.15-.94l1.58,2a5,5,0,0,1-2,1.37A7.12,7.12,0,0,1,221.4,87.48Zm-.06-9.39a1.9,1.9,0,0,0-1.51.63,2.48,2.48,0,0,0-.54,1.67v.18h3.93v-.2a2.78,2.78,0,0,0-.46-1.65A1.65,1.65,0,0,0,221.34,78.09Z"/><path class="cls-8" d="M228.72,87.22V76h3.16v2.43H232a3,3,0,0,1,.3-.9,2.59,2.59,0,0,1,.56-.78,2.84,2.84,0,0,1,.84-.55,3.16,3.16,0,0,1,1.16-.2h.55V79h-.79a4.53,4.53,0,0,0-2.06.37,1.38,1.38,0,0,0-.67,1.34v6.55Z"/><g class="cls-4"><path class="cls-8" d="M172.26,164.43l-3.56-.25-5.57-.39.1-2.06.1-2.07.57.12a4.61,4.61,0,0,1,.53.15,31.16,31.16,0,0,1,4.75,2c1.45.75,2.69,1.5,3.48,2l-.21.25-.19.22M153.81,161c0-.14,0-.34.08-.58s.07-.48.1-.71c1.2-.14,2.51-.27,3.81-.33a30.08,30.08,0,0,1,3.81,0l-.1,2.12-.09,2.12-4.74-.33-2-.14a.9.9,0,0,1-.72-.43,3.22,3.22,0,0,1-.12-1.75m21.46,12.42a1.89,1.89,0,1,1,1.35-.55,1.92,1.92,0,0,1-1.35.55m4.55-7.65h0a8.65,8.65,0,0,0-2.18-1.68,12,12,0,0,0-3.38-1.17c-.55-.36-1.86-1.2-3.54-2.11a35.15,35.15,0,0,0-5.75-2.54,9,9,0,0,0-1.11-.28c-.39-.08-.8-.14-1.21-.2h-.14a36,36,0,0,0-7.35.09c-2.26.22-4,.54-4.45.61a1.27,1.27,0,0,0-.32.13,1.09,1.09,0,0,0-.26.21,13.64,13.64,0,0,0-1.05,1.25,7.46,7.46,0,0,0-.73,1.35.86.86,0,0,0,.45,1.13.82.82,0,0,0,.65,0,.9.9,0,0,0,.48-.46,5.8,5.8,0,0,1,.53-1,9.32,9.32,0,0,1,.81-1l.46-.08.5-.08c0,.17-.05.33-.07.48s0,.27-.05.37a5.53,5.53,0,0,0,.11,2.2,2.57,2.57,0,0,0,2.23,1.88l4.23.29,3.52.24h0l9,.62,1.32.09a1.47,1.47,0,0,0,.87-.49,7.32,7.32,0,0,0,.82-1,12.05,12.05,0,0,1,1.27.37,8.36,8.36,0,0,1,1.08.45h-.06a.84.84,0,0,0-.61.26.86.86,0,0,0,0,1.21.84.84,0,0,0,.61.26h2.23a5.75,5.75,0,0,1,1.16,2.51,5.63,5.63,0,0,1,.1,1.33.31.31,0,0,1-.3.3h-.85a3.63,3.63,0,0,0-6.15-2.47,3.59,3.59,0,0,0-1.1,2.47h-5.49a.85.85,0,0,0-.61.25.86.86,0,0,0,0,1.21.85.85,0,0,0,.61.26H172a3.74,3.74,0,0,0,1.32,1.47,3.62,3.62,0,0,0,3.9,0,3.67,3.67,0,0,0,1.32-1.47h1.21a2.08,2.08,0,0,0,1.43-.58,1.88,1.88,0,0,0,.58-1.36,6.54,6.54,0,0,0-.15-1.87,7.55,7.55,0,0,0-1.79-3.52"/><path class="cls-8" d="M170.57,169.15a.86.86,0,1,0,0-1.72h-7.46a.89.89,0,0,0-.61.25.87.87,0,0,0,0,1.22.89.89,0,0,0,.61.25h7.46Z"/><path class="cls-8" d="M164.08,175.89a.27.27,0,0,1-.09.21.31.31,0,0,1-.21.09h-.85a3.64,3.64,0,0,0-3.63-3.49,3.64,3.64,0,0,0-3.62,3.49H138.92a3.63,3.63,0,0,0-7.26,0,.34.34,0,0,1-.16-.1.31.31,0,0,1-.06-.19v-3.17a.28.28,0,0,1,.08-.2.29.29,0,0,1,.2-.09.91.91,0,0,0,.55-.23.89.89,0,0,0,.26-.54c0-.11,0-.23.05-.37s0-.29.07-.45h2a.85.85,0,0,0,.86-.86v-4.91a.28.28,0,0,0,0-.09.28.28,0,0,0,0-.09l.33,0,.4-.06c0,.16-.05.32-.07.47s0,.27-.05.37a5.53,5.53,0,0,0,.11,2.2,2.58,2.58,0,0,0,2.24,1.88l4.23.29,3.51.24h0l9,.62,1.32.09a1.5,1.5,0,0,0,.87-.49,7.32,7.32,0,0,0,.82-1,12.79,12.79,0,0,1,1.27.37,9,9,0,0,1,1.08.46h-.07a.85.85,0,0,0-.61.25.86.86,0,0,0,0,1.21.85.85,0,0,0,.61.26h2.24a5.61,5.61,0,0,1,1.15,2.51,5.07,5.07,0,0,1,.1,1.33m-4.78,2.35a1.91,1.91,0,1,1,1.35-3.26,1.91,1.91,0,0,1,0,2.7,1.93,1.93,0,0,1-1.35.56m-24,0a1.91,1.91,0,0,1-1.35-.56,1.91,1.91,0,0,1,0-2.7,1.91,1.91,0,0,1,1.35-.56,1.91,1.91,0,0,1,0,3.82m-1.47-12v2.9h-1.07c.1-.31.28-.87.48-1.43a13.43,13.43,0,0,1,.59-1.47m11.83-2-.1,2.12-.1,2.13-4.74-.33-2-.14a.87.87,0,0,1-.71-.43,3.19,3.19,0,0,1-.13-1.75c0-.13,0-.34.08-.57s.07-.49.11-.71c1.07-.14,2.35-.27,3.66-.34a30.73,30.73,0,0,1,4,0m11,4.53-.21.25-.18.22-3.57-.25-5.56-.38.09-2.07.1-2.07.57.12a4.61,4.61,0,0,1,.53.15,31.38,31.38,0,0,1,4.8,2.06c1.45.76,2.68,1.5,3.43,2m1.6-1c-.47-.31-1.75-1.14-3.44-2.05a35.47,35.47,0,0,0-5.86-2.6,11.63,11.63,0,0,0-1.13-.29c-.39-.08-.81-.14-1.23-.19h-.07a35,35,0,0,0-7.09,0c-2.21.22-4,.52-4.67.64a1.12,1.12,0,0,0-.35.12,1.33,1.33,0,0,0-.3.23,12.69,12.69,0,0,0-2.38,3.94,15.54,15.54,0,0,0-.87,3.33,1.89,1.89,0,0,0-.85.73,2,2,0,0,0-.33,1.1v3.17a2,2,0,0,0,2,2H132a3.63,3.63,0,0,0,5.22,1.48,3.7,3.7,0,0,0,1.32-1.48H156a3.67,3.67,0,0,0,1.31,1.48,3.62,3.62,0,0,0,3.9,0,3.7,3.7,0,0,0,1.32-1.48h1.21a2.08,2.08,0,0,0,1.43-.58,1.93,1.93,0,0,0,.59-1.36,7.51,7.51,0,0,0-.74-3.63c-.88-1.82-2.76-3.82-6.77-4.62"/><path class="cls-8" d="M154.6,172.21H140.37a.89.89,0,0,0-.61.25.87.87,0,0,0,0,1.22.89.89,0,0,0,.61.25H154.6a.87.87,0,0,0,.61-.25.87.87,0,0,0,0-1.22.87.87,0,0,0-.61-.25"/><path class="cls-8" d="M131.06,138.27a.71.71,0,0,1,.19-.47.62.62,0,0,1,.45-.21.84.84,0,0,0,.59-.23.88.88,0,0,0,.27-.57c0-.13,0-.31.06-.53s.07-.51.13-.84h3a.89.89,0,0,0,.61-.25.86.86,0,0,0,.25-.61v-7.17l.68-.12,1-.15c0,.28-.09.58-.13.85s-.08.51-.09.68a5.89,5.89,0,0,0,.52,3.72,3.19,3.19,0,0,0,1.88,1.46l.4,1.47.41,1.48a.85.85,0,0,0,.29.43,1,1,0,0,0,.49.2,2.62,2.62,0,0,1,1.58.84c.77.78,1.57,2.25,1.74,5.05h-4.14v-.12a4.6,4.6,0,0,0-1.36-3.26,4.66,4.66,0,0,0-3.28-1.35,4.61,4.61,0,0,0-4.61,4.61v.12h-.19a.73.73,0,0,1-.51-.22.69.69,0,0,1-.21-.5v-4.31Zm20-11.84.07,8.43.08,8.44h-4.1a9.89,9.89,0,0,0-1.79-5.76,4.82,4.82,0,0,0-2.51-1.74l-.41-1.46-.4-1.45a.83.83,0,0,0-.25-.41.87.87,0,0,0-.43-.21,1.65,1.65,0,0,1-1.11-.59,3.84,3.84,0,0,1-.42-2.84c0-.2.07-.54.12-.9s.12-.76.18-1.07c1.51-.2,3.34-.39,5.25-.49a38.89,38.89,0,0,1,5.72.05m15.75,6.79.06,0,.06,0h0l.13.06.14,0h0a15.83,15.83,0,0,1,2.86.8,11.87,11.87,0,0,1,2.17,1.11H171a.86.86,0,0,0-.6.25.85.85,0,0,0,0,1.22.82.82,0,0,0,.6.25h3.21a8,8,0,0,1,1.69,3.47,7.49,7.49,0,0,1,.17,2.06.69.69,0,0,1-.21.5.73.73,0,0,1-.51.22h-1.46v-.12a4.6,4.6,0,0,0-1.36-3.26,4.68,4.68,0,0,0-3.29-1.35,4.61,4.61,0,0,0-4.61,4.61v.12h-4.47a10.7,10.7,0,0,1,1.79-5.81,6.31,6.31,0,0,1,2.47-2.11.86.86,0,0,0-.71-1.57,8,8,0,0,0-3.09,2.57,12.43,12.43,0,0,0-2.18,6.92h-5.5l-.07-8.32-.08-8.32.95.19c.3.07.6.15.88.24a42,42,0,0,1,5.82,2.44,64.86,64.86,0,0,1,6.38,3.69m-35,11.8H133a.91.91,0,0,0,.4-.1.89.89,0,0,0,.31-.27.8.8,0,0,0,.14-.39.84.84,0,0,0-.05-.41,1.77,1.77,0,0,1-.07-.29c0-.11,0-.24,0-.38a2.87,2.87,0,0,1,.84-2,2.92,2.92,0,0,1,2.05-.85,3,3,0,0,1,2.07.85,2.84,2.84,0,0,1,.85,2,2.24,2.24,0,0,1,0,.38,1.77,1.77,0,0,1-.07.29.84.84,0,0,0,0,.41.93.93,0,0,0,.15.39.86.86,0,0,0,.3.27,1,1,0,0,0,.4.1H165.6a.91.91,0,0,0,.4-.1.89.89,0,0,0,.31-.27.93.93,0,0,0,.15-.39.92.92,0,0,0-.05-.4,1.32,1.32,0,0,1-.07-.3,2.17,2.17,0,0,1,0-.38,2.9,2.9,0,0,1,2.89-2.89,3,3,0,0,1,2.07.85,2.85,2.85,0,0,1,.86,2c0,.14,0,.27,0,.38a1.32,1.32,0,0,1-.08.3.92.92,0,0,0-.05.4.93.93,0,0,0,.15.39.89.89,0,0,0,.31.27.91.91,0,0,0,.4.1h2.47a2.49,2.49,0,0,0,1.73-.71,2.34,2.34,0,0,0,.71-1.67,8.94,8.94,0,0,0-.22-2.42,10,10,0,0,0-2.31-4.57l0-.05-.05,0a10.57,10.57,0,0,0-2.55-2,15.06,15.06,0,0,0-3.82-1.52,12.32,12.32,0,0,1,3.29-3.37,8.21,8.21,0,0,1,3.87-1.37.85.85,0,0,0,.59-.3.85.85,0,0,0-.73-1.41,9.81,9.81,0,0,0-4.15,1.33,13.72,13.72,0,0,0-4.53,4.5c-1.35-.87-3.2-2-5.28-3.06a44.24,44.24,0,0,0-6.72-2.87,26.22,26.22,0,0,0-8.09-.86,69.3,69.3,0,0,0-7.85.66h-.06l-2.07.32-1.05.18a1,1,0,0,0-.43.15,1.21,1.21,0,0,0-.22.17l-.17.18a1.07,1.07,0,0,0-.16.25.64.64,0,0,0-.08.19.76.76,0,0,0,0,.21h0v6.79H132a.78.78,0,0,0-.31.06.76.76,0,0,0-.26.16h0l-.07.07-.06.08h0a.83.83,0,0,0-.09.16.84.84,0,0,0-.05.17c-.06.3-.11.58-.16.85s-.09.53-.12.76a2.47,2.47,0,0,0-1.13.86,2.5,2.5,0,0,0-.44,1.4v4.31a2.46,2.46,0,0,0,2.44,2.44"/><path class="cls-8" d="M179.78,150.5a.85.85,0,0,0-.86-.86H128.16a.89.89,0,0,0-.61.25.91.91,0,0,0-.25.61.87.87,0,0,0,.25.61.85.85,0,0,0,.61.25h50.76a.85.85,0,0,0,.86-.86"/><path class="cls-8" d="M153.54,110.35a42.58,42.58,0,1,0,30.05,12.47,42.39,42.39,0,0,0-30.05-12.47m0,87A44.57,44.57,0,1,1,185,184.33a44.34,44.34,0,0,1-31.47,13.06"/></g></g></svg>