<svg xmlns="http://www.w3.org/2000/svg" viewBox="0 0 305.62 305.62"><defs><style>.cls-1,.cls-2,.cls-5{fill:none;}.cls-1{stroke:#fff;stroke-width:1.25px;}.cls-1,.cls-2{stroke-miterlimit:10;}.cls-2{stroke:#000;stroke-width:0.25px;}.cls-3{fill:#2c3f50;}.cls-4{fill:#e77d2e;}.cls-5{stroke:#e87e1f;stroke-width:2px;}</style></defs><title>de_innoSurvey_nutzer_back</title><g id="Ebene_2" data-name="Ebene 2"><path class="cls-1" d="M284.62,290.62v15m0-290.62V0M21,290.62v15M21,15V0M290.62,284.62h15M15,284.62H0M290.62,21h15M15,21H0"/><path class="cls-2" d="M284.62,290.62v15m0-290.62V0M21,290.62v15M21,15V0M290.62,284.62h15M15,284.62H0M290.62,21h15M15,21H0"/></g><g id="Ebene_1" data-name="Ebene 1"><path class="cls-3" d="M125.48,65.78v-.59H127V60.7H127L125.57,62l-.39-.43,1.48-1.38h1v5h1.44v.59Z"/><path class="cls-3" d="M130.66,65.88a.45.45,0,0,1-.37-.13.46.46,0,0,1-.12-.33v-.11a.42.42,0,0,1,.49-.46A.5.5,0,0,1,131,65a.49.49,0,0,1,.12.34v.11a.43.43,0,0,1-.49.46Z"/><path class="cls-3" d="M135.05,65.78h-.67V60.2h2.22a1.57,1.57,0,0,1,1.15.41,1.55,1.55,0,0,1,.41,1.17,1.73,1.73,0,0,1-.28,1,1.4,1.4,0,0,1-.84.52l1.28,2.46h-.76l-1.21-2.4h-1.3Zm1.55-3a.85.85,0,0,0,.62-.21.77.77,0,0,0,.22-.59v-.42a.77.77,0,0,0-.22-.59.85.85,0,0,0-.62-.21h-1.55v2Z"/><path class="cls-3" d="M140.87,65.88a1.91,1.91,0,0,1-.76-.15,1.66,1.66,0,0,1-.58-.44,1.88,1.88,0,0,1-.38-.68,2.72,2.72,0,0,1-.14-.89,2.77,2.77,0,0,1,.14-.89,1.88,1.88,0,0,1,.38-.68,1.66,1.66,0,0,1,.58-.44,1.91,1.91,0,0,1,.76-.15,1.87,1.87,0,0,1,.76.15,1.69,1.69,0,0,1,.59.44,2,2,0,0,1,.38.68,2.77,2.77,0,0,1,.14.89,2.72,2.72,0,0,1-.14.89,2,2,0,0,1-.38.68,1.69,1.69,0,0,1-.59.44A1.87,1.87,0,0,1,140.87,65.88Zm0-.57a1.18,1.18,0,0,0,.85-.32,1.3,1.3,0,0,0,.33-1v-.59a1.29,1.29,0,0,0-.33-1,1.28,1.28,0,0,0-1.69,0,1.29,1.29,0,0,0-.33,1V64a1.3,1.3,0,0,0,.33,1A1.17,1.17,0,0,0,140.87,65.31Z"/><path class="cls-3" d="M144.47,65.78a.62.62,0,0,1-.5-.19.64.64,0,0,1-.18-.47V59.86h.64v5.35H145v.57Z"/><path class="cls-3" d="M146.62,65.78a.64.64,0,0,1-.51-.19.68.68,0,0,1-.17-.47V59.86h.64v5.35h.61v.57Z"/><path class="cls-3" d="M149.67,65.88a1.89,1.89,0,0,1-.77-.15,1.66,1.66,0,0,1-.58-.44,2,2,0,0,1-.38-.68,2.73,2.73,0,0,1-.13-.89,2.77,2.77,0,0,1,.13-.89,2,2,0,0,1,.38-.68,1.66,1.66,0,0,1,.58-.44,1.89,1.89,0,0,1,.77-.15,1.78,1.78,0,0,1,.74.15,1.56,1.56,0,0,1,.56.42,2.16,2.16,0,0,1,.36.63,2.64,2.64,0,0,1,.12.81v.3h-3v.19a1.3,1.3,0,0,0,.09.49,1,1,0,0,0,.24.4,1,1,0,0,0,.38.26,1.21,1.21,0,0,0,.52.1,1.25,1.25,0,0,0,.68-.18,1.23,1.23,0,0,0,.45-.53l.46.33a1.6,1.6,0,0,1-.63.69A1.88,1.88,0,0,1,149.67,65.88Zm0-3.79a1.21,1.21,0,0,0-.48.1,1,1,0,0,0-.38.26,1.28,1.28,0,0,0-.24.39,1.35,1.35,0,0,0-.09.5v0h2.28V63.3a1.27,1.27,0,0,0-.3-.88A1,1,0,0,0,149.67,62.09Z"/><path class="cls-3" d="M154,61.66h.63l.44,1.78.44,1.81h0l.51-1.81.52-1.78h.56l.54,1.78.51,1.81h0l.42-1.81.45-1.78h.6l-1.1,4.12h-.79l-.57-2-.36-1.26h0l-.35,1.26-.58,2h-.77Z"/><path class="cls-3" d="M163.47,65.78a.62.62,0,0,1-.52-.19,1,1,0,0,1-.2-.48h0a1.09,1.09,0,0,1-.44.58,1.39,1.39,0,0,1-.75.19,1.41,1.41,0,0,1-1-.34,1.18,1.18,0,0,1-.36-.91,1,1,0,0,1,.43-.89,2.24,2.24,0,0,1,1.33-.32h.81V63a.9.9,0,0,0-.24-.67,1,1,0,0,0-.73-.23,1.14,1.14,0,0,0-.63.17,1.3,1.3,0,0,0-.42.45l-.38-.36a1.38,1.38,0,0,1,.53-.57,2,2,0,0,1,2.1.13,1.26,1.26,0,0,1,.41,1v2.26h.48v.57Zm-2.4-4.94a.38.38,0,0,1-.3-.1.36.36,0,0,1-.1-.27v-.09a.33.33,0,0,1,.1-.26.38.38,0,0,1,.3-.11.41.41,0,0,1,.3.11.36.36,0,0,1,.09.26v.09a.34.34,0,0,1-.39.37Zm.56,4.5a1.56,1.56,0,0,0,.44-.06,1.19,1.19,0,0,0,.34-.16.71.71,0,0,0,.22-.24.52.52,0,0,0,.08-.3V63.9h-.84a1.64,1.64,0,0,0-.81.16.52.52,0,0,0-.25.47v.17a.56.56,0,0,0,.22.47A1,1,0,0,0,161.63,65.34Zm.92-4.5a.34.34,0,0,1-.39-.37v-.09a.36.36,0,0,1,.09-.26.41.41,0,0,1,.3-.11.38.38,0,0,1,.3.11.33.33,0,0,1,.1.26v.09a.36.36,0,0,1-.1.27A.38.38,0,0,1,162.55,60.84Z"/><path class="cls-3" d="M164.74,59.86h.64v2.46h0a1.34,1.34,0,0,1,.43-.56,1.25,1.25,0,0,1,.74-.2,1.32,1.32,0,0,1,1,.41,1.67,1.67,0,0,1,.37,1.16v2.65h-.64V63.24q0-1.11-.93-1.11a1.11,1.11,0,0,0-.7.19.66.66,0,0,0-.23.24.78.78,0,0,0-.08.35v2.87h-.64Z"/><path class="cls-3" d="M170,65.78a.66.66,0,0,1-.51-.19.68.68,0,0,1-.17-.47V59.86h.64v5.35h.61v.57Z"/><path class="cls-3" d="M173,65.88a1.84,1.84,0,0,1-.76-.15,1.61,1.61,0,0,1-.59-.44,1.86,1.86,0,0,1-.37-.68,2.72,2.72,0,0,1-.14-.89,2.77,2.77,0,0,1,.14-.89,1.86,1.86,0,0,1,.37-.68,1.61,1.61,0,0,1,.59-.44,1.84,1.84,0,0,1,.76-.15,1.72,1.72,0,0,1,.74.15,1.56,1.56,0,0,1,.56.42,1.79,1.79,0,0,1,.36.63,2.64,2.64,0,0,1,.12.81v.3h-3v.19a1.29,1.29,0,0,0,.08.49,1.22,1.22,0,0,0,.24.4,1,1,0,0,0,.38.26,1.27,1.27,0,0,0,.52.1,1.19,1.19,0,0,0,1.14-.71l.45.33a1.64,1.64,0,0,1-.62.69A2,2,0,0,1,173,65.88Zm0-3.79a1.21,1.21,0,0,0-.48.1,1,1,0,0,0-.37.26,1.14,1.14,0,0,0-.25.39,1.35,1.35,0,0,0-.08.5v0h2.28V63.3a1.27,1.27,0,0,0-.3-.88A1.07,1.07,0,0,0,173,62.09Z"/><path class="cls-3" d="M175.85,65.78V61.66h.64v.66h0a1.43,1.43,0,0,1,.43-.56,1.25,1.25,0,0,1,.74-.2,1.3,1.3,0,0,1,1,.41,1.67,1.67,0,0,1,.37,1.16v2.65h-.64V63.24q0-1.11-.93-1.11a1.5,1.5,0,0,0-.37,0,1.66,1.66,0,0,0-.33.15.76.76,0,0,0-.23.24.78.78,0,0,0-.08.35v2.87Z"/><path class="cls-3" d="M119.8,78.21h-3.67v-.68L118,75.85a3.85,3.85,0,0,0,.65-.77,1.45,1.45,0,0,0,.27-.81v-.1a1.09,1.09,0,0,0-.26-.75,1,1,0,0,0-.78-.29,1.25,1.25,0,0,0-.45.07,1.12,1.12,0,0,0-.33.2,1,1,0,0,0-.23.3,2,2,0,0,0-.15.37l-.6-.23a3.06,3.06,0,0,1,.22-.49,1.74,1.74,0,0,1,.36-.41,1.58,1.58,0,0,1,.51-.29,1.88,1.88,0,0,1,.71-.12,2,2,0,0,1,.72.12,1.47,1.47,0,0,1,.54.34,1.5,1.5,0,0,1,.33.51,1.76,1.76,0,0,1,.12.66,1.89,1.89,0,0,1-.09.6,2.69,2.69,0,0,1-.26.54,3.25,3.25,0,0,1-.38.49c-.16.16-.32.32-.5.48l-1.5,1.35h2.94Z"/><path class="cls-3" d="M121.42,78.31a.43.43,0,0,1-.49-.46v-.11a.43.43,0,0,1,.49-.46.46.46,0,0,1,.37.13.45.45,0,0,1,.12.33v.11a.45.45,0,0,1-.12.33A.46.46,0,0,1,121.42,78.31Z"/><path class="cls-3" d="M128.46,79.53h-.83a.65.65,0,0,1-.5-.19.7.7,0,0,1-.17-.47V78.3a2.26,2.26,0,0,1-.87-.25,1.93,1.93,0,0,1-.66-.58,2.48,2.48,0,0,1-.42-.88,4.15,4.15,0,0,1-.15-1.17,3.91,3.91,0,0,1,.17-1.24,2.65,2.65,0,0,1,.47-.9,2.05,2.05,0,0,1,.75-.56,2.6,2.6,0,0,1,1.95,0,1.9,1.9,0,0,1,.75.56,2.66,2.66,0,0,1,.48.9,4.24,4.24,0,0,1,.16,1.24,3.29,3.29,0,0,1-.53,2,2.1,2.1,0,0,1-1.46.86V79h.86Zm-1.23-1.82a1.59,1.59,0,0,0,.66-.13,1.38,1.38,0,0,0,.52-.37,1.63,1.63,0,0,0,.34-.57,2.29,2.29,0,0,0,.12-.76V75a2.23,2.23,0,0,0-.12-.75,1.68,1.68,0,0,0-.34-.58,1.35,1.35,0,0,0-.52-.36,1.59,1.59,0,0,0-.66-.13,1.67,1.67,0,0,0-.67.13,1.43,1.43,0,0,0-.52.36,1.68,1.68,0,0,0-.34.58,2.23,2.23,0,0,0-.12.75v.93a2.29,2.29,0,0,0,.12.76,1.63,1.63,0,0,0,.34.57,1.46,1.46,0,0,0,.52.37A1.67,1.67,0,0,0,127.23,77.71Z"/><path class="cls-3" d="M131.47,78.21h-.67V72.63H133a1.44,1.44,0,0,1,1.56,1.58,1.71,1.71,0,0,1-.29,1,1.36,1.36,0,0,1-.83.52l1.28,2.46H134l-1.21-2.4h-1.31Zm1.56-3a.88.88,0,0,0,.62-.21.81.81,0,0,0,.22-.59V74a.81.81,0,0,0-.22-.59.88.88,0,0,0-.62-.21h-1.56v2Z"/><path class="cls-3" d="M135.61,76.13v-.69h2.09v.69Z"/><path class="cls-3" d="M141.08,78.31a2,2,0,0,1-1.65-.72,3.3,3.3,0,0,1-.6-2.13,3.44,3.44,0,0,1,.6-2.17,2,2,0,0,1,1.65-.76,2.08,2.08,0,0,1,1.18.32,2,2,0,0,1,.74.9l-.54.33a1.49,1.49,0,0,0-.51-.69,1.36,1.36,0,0,0-.87-.26,1.47,1.47,0,0,0-.64.13,1.29,1.29,0,0,0-.48.39,1.83,1.83,0,0,0-.3.61,2.67,2.67,0,0,0-.11.78v.83a2.14,2.14,0,0,0,.4,1.36,1.38,1.38,0,0,0,1.13.49,1.4,1.4,0,0,0,.9-.28,1.65,1.65,0,0,0,.53-.73l.53.34a2.09,2.09,0,0,1-.76.92A2,2,0,0,1,141.08,78.31Z"/><path class="cls-3" d="M145.58,78.31a1.87,1.87,0,0,1-.76-.15,1.61,1.61,0,0,1-.59-.44,2,2,0,0,1-.38-.68,2.72,2.72,0,0,1-.14-.89,2.81,2.81,0,0,1,.14-.89,2.14,2.14,0,0,1,.38-.68,1.61,1.61,0,0,1,.59-.44,1.87,1.87,0,0,1,.76-.15,1.79,1.79,0,0,1,.75.15,1.61,1.61,0,0,1,.59.44,2,2,0,0,1,.39.68,2.82,2.82,0,0,1,.13.89,2.73,2.73,0,0,1-.13.89,1.89,1.89,0,0,1-.39.68,1.61,1.61,0,0,1-.59.44A1.79,1.79,0,0,1,145.58,78.31Zm0-.57a1.15,1.15,0,0,0,.85-.32,1.33,1.33,0,0,0,.32-1v-.6a1.33,1.33,0,0,0-.32-1,1.2,1.2,0,0,0-.85-.32,1.18,1.18,0,0,0-.85.32,1.29,1.29,0,0,0-.33,1v.6a1.29,1.29,0,0,0,.33,1A1.14,1.14,0,0,0,145.58,77.74Z"/><path class="cls-3" d="M151.14,77.55h0a1.26,1.26,0,0,1-1.21.76,1.6,1.6,0,0,1-.7-.15,1.57,1.57,0,0,1-.53-.43,2.07,2.07,0,0,1-.34-.68,3.58,3.58,0,0,1-.11-.9,3.44,3.44,0,0,1,.11-.89,2,2,0,0,1,.34-.69,1.57,1.57,0,0,1,.53-.43,1.6,1.6,0,0,1,.7-.15,1.36,1.36,0,0,1,.74.19,1.17,1.17,0,0,1,.47.57h0V72.3h.64v5.91h-.64Zm-1.07.19a1.86,1.86,0,0,0,.42,0,1.2,1.2,0,0,0,.34-.17.78.78,0,0,0,.22-.26.74.74,0,0,0,.09-.36V75.35a.59.59,0,0,0-.09-.31.78.78,0,0,0-.22-.26,1.19,1.19,0,0,0-.34-.16,1.42,1.42,0,0,0-.42-.06,1.09,1.09,0,0,0-.85.34,1.28,1.28,0,0,0-.31.9v.7a1.28,1.28,0,0,0,.31.9A1.09,1.09,0,0,0,150.07,77.74Z"/><path class="cls-3" d="M154.69,78.31a1.84,1.84,0,0,1-.76-.15,1.61,1.61,0,0,1-.59-.44A1.86,1.86,0,0,1,153,77a2.72,2.72,0,0,1-.14-.89,2.81,2.81,0,0,1,.14-.89,1.94,1.94,0,0,1,.37-.68,1.61,1.61,0,0,1,.59-.44,1.84,1.84,0,0,1,.76-.15,1.72,1.72,0,0,1,.74.15,1.56,1.56,0,0,1,.56.42,1.79,1.79,0,0,1,.36.63,2.64,2.64,0,0,1,.12.81v.3h-3v.19a1.35,1.35,0,0,0,.08.5,1.28,1.28,0,0,0,.24.39,1.19,1.19,0,0,0,.38.27,1.46,1.46,0,0,0,.52.09,1.25,1.25,0,0,0,.68-.18,1.2,1.2,0,0,0,.46-.53l.45.33a1.53,1.53,0,0,1-.62.69A1.92,1.92,0,0,1,154.69,78.31Zm0-3.78a1.21,1.21,0,0,0-.48.09,1.08,1.08,0,0,0-.37.26,1.14,1.14,0,0,0-.25.39,1.59,1.59,0,0,0-.08.5v0h2.28v-.08a1.25,1.25,0,0,0-.3-.88A1,1,0,0,0,154.69,74.53Z"/><path class="cls-3" d="M160.66,78.31a1.91,1.91,0,0,1-1-.22,2.18,2.18,0,0,1-.66-.59l.45-.37a1.7,1.7,0,0,0,.54.47,1.38,1.38,0,0,0,.69.17,1,1,0,0,0,.63-.18.6.6,0,0,0,.23-.5.57.57,0,0,0-.16-.41,1,1,0,0,0-.56-.23l-.33,0a2.74,2.74,0,0,1-.53-.13,1.4,1.4,0,0,1-.42-.22,1,1,0,0,1-.28-.35,1.22,1.22,0,0,1-.1-.49,1.16,1.16,0,0,1,.12-.54,1,1,0,0,1,.3-.37,1.29,1.29,0,0,1,.47-.23,2.21,2.21,0,0,1,.59-.08,1.8,1.8,0,0,1,.84.18,1.85,1.85,0,0,1,.6.48l-.43.39a1.27,1.27,0,0,0-.4-.35,1.31,1.31,0,0,0-.66-.16.91.91,0,0,0-.61.18.58.58,0,0,0-.2.46.49.49,0,0,0,.2.44,1.41,1.41,0,0,0,.59.2l.32,0a1.69,1.69,0,0,1,1,.4,1,1,0,0,1,.29.76,1.19,1.19,0,0,1-.41,1A1.68,1.68,0,0,1,160.66,78.31Z"/><path class="cls-3" d="M164.85,78.31a1.94,1.94,0,0,1-.78-.15,1.66,1.66,0,0,1-.58-.43,2.31,2.31,0,0,1-.36-.68,3.16,3.16,0,0,1-.12-.9,3,3,0,0,1,.12-.89,2.25,2.25,0,0,1,.36-.69,1.66,1.66,0,0,1,.58-.43,1.94,1.94,0,0,1,.78-.15,1.66,1.66,0,0,1,1,.27,1.58,1.58,0,0,1,.55.7l-.53.27a1,1,0,0,0-.37-.5,1.15,1.15,0,0,0-.64-.17,1.28,1.28,0,0,0-.5.09.88.88,0,0,0-.36.26,1.07,1.07,0,0,0-.22.39,1.59,1.59,0,0,0-.07.5v.7a1.34,1.34,0,0,0,.29.89,1,1,0,0,0,.86.35A1.16,1.16,0,0,0,166,77l.46.32a1.7,1.7,0,0,1-.59.71A1.8,1.8,0,0,1,164.85,78.31Z"/><path class="cls-3" d="M170.34,78.21a.64.64,0,0,1-.52-.19.94.94,0,0,1-.19-.48h0a1.06,1.06,0,0,1-.45.58,1.39,1.39,0,0,1-.75.19,1.45,1.45,0,0,1-1-.34,1.17,1.17,0,0,1-.36-.91,1,1,0,0,1,.43-.89,2.24,2.24,0,0,1,1.33-.32h.82v-.4a.91.91,0,0,0-.24-.68,1.06,1.06,0,0,0-.74-.23,1.14,1.14,0,0,0-.63.17,1.3,1.3,0,0,0-.42.45l-.38-.36a1.38,1.38,0,0,1,.53-.57,2,2,0,0,1,2.1.13,1.27,1.27,0,0,1,.42,1v2.27h.47v.56Zm-1.84-.44a1.56,1.56,0,0,0,.44-.06,1.07,1.07,0,0,0,.34-.16.87.87,0,0,0,.23-.24.61.61,0,0,0,.08-.3v-.67h-.85a1.66,1.66,0,0,0-.81.15.55.55,0,0,0-.25.47v.17a.57.57,0,0,0,.22.47A1,1,0,0,0,168.5,77.77Z"/><path class="cls-3" d="M171.61,78.21V74.09h.64v.66h0a1.33,1.33,0,0,1,.43-.55,1.18,1.18,0,0,1,.74-.21,1.3,1.3,0,0,1,1,.41,1.69,1.69,0,0,1,.37,1.17v2.64h-.64V75.67q0-1.11-.93-1.11a1.5,1.5,0,0,0-.37,0,1.22,1.22,0,0,0-.33.14.92.92,0,0,0-.23.25.71.71,0,0,0-.08.34v2.87Z"/><path class="cls-3" d="M176.15,78.21V74.09h.64v.66h0a1.31,1.31,0,0,1,.42-.55A1.2,1.2,0,0,1,178,74a1.33,1.33,0,0,1,1,.41,1.74,1.74,0,0,1,.37,1.17v2.64h-.64V75.67c0-.74-.31-1.11-.94-1.11a1.5,1.5,0,0,0-.37,0,1,1,0,0,0-.32.14.68.68,0,0,0-.23.25.62.62,0,0,0-.09.34v2.87Z"/><path class="cls-3" d="M182.25,78.31a1.84,1.84,0,0,1-.76-.15,1.69,1.69,0,0,1-.59-.44,1.86,1.86,0,0,1-.37-.68,2.72,2.72,0,0,1-.14-.89,2.81,2.81,0,0,1,.14-.89,1.94,1.94,0,0,1,.37-.68,1.69,1.69,0,0,1,.59-.44,1.84,1.84,0,0,1,.76-.15,1.72,1.72,0,0,1,.74.15,1.56,1.56,0,0,1,.56.42,1.79,1.79,0,0,1,.36.63A2.64,2.64,0,0,1,184,76v.3h-3v.19a1.35,1.35,0,0,0,.08.5,1.28,1.28,0,0,0,.24.39,1.19,1.19,0,0,0,.38.27,1.46,1.46,0,0,0,.52.09,1.25,1.25,0,0,0,.68-.18,1.2,1.2,0,0,0,.46-.53l.45.33a1.53,1.53,0,0,1-.62.69A1.92,1.92,0,0,1,182.25,78.31Zm0-3.78a1.24,1.24,0,0,0-.48.09,1.08,1.08,0,0,0-.37.26,1.14,1.14,0,0,0-.25.39,1.59,1.59,0,0,0-.08.5v0h2.28v-.08a1.25,1.25,0,0,0-.3-.88A1,1,0,0,0,182.25,74.53Z"/><path class="cls-3" d="M185.09,78.21V74.09h.64v.66h0a1.33,1.33,0,0,1,.43-.55,1.18,1.18,0,0,1,.74-.21,1.3,1.3,0,0,1,1,.41,1.69,1.69,0,0,1,.37,1.17v2.64h-.64V75.67q0-1.11-.93-1.11a1.5,1.5,0,0,0-.37,0,1.22,1.22,0,0,0-.33.14.92.92,0,0,0-.23.25.71.71,0,0,0-.08.34v2.87Z"/><path class="cls-3" d="M113.69,87.42a1.23,1.23,0,0,0,.85-.26.88.88,0,0,0,.29-.67v-.06a.76.76,0,0,0-.28-.65,1.09,1.09,0,0,0-.72-.22,1.19,1.19,0,0,0-.71.19,1.3,1.3,0,0,0-.44.51l-.5-.39a2.39,2.39,0,0,1,.25-.33,2,2,0,0,1,.35-.29,1.94,1.94,0,0,1,.46-.2,1.9,1.9,0,0,1,.6-.08,2.41,2.41,0,0,1,.67.09,1.52,1.52,0,0,1,.54.27,1.39,1.39,0,0,1,.36.44,1.32,1.32,0,0,1,.13.6,1.23,1.23,0,0,1-.31.86,1.84,1.84,0,0,1-.34.27,1.94,1.94,0,0,1-.42.17v0a1.69,1.69,0,0,1,.43.15,1.53,1.53,0,0,1,.38.29,1.15,1.15,0,0,1,.26.41,1.43,1.43,0,0,1,.1.56,1.59,1.59,0,0,1-.13.66,1.35,1.35,0,0,1-.39.52,1.73,1.73,0,0,1-.6.33,2.35,2.35,0,0,1-.77.12,2.08,2.08,0,0,1-.64-.08,1.88,1.88,0,0,1-.5-.21,2.28,2.28,0,0,1-.38-.3,2.34,2.34,0,0,1-.29-.35l.5-.38a2.37,2.37,0,0,0,.23.3A1.23,1.23,0,0,0,113,90a1.52,1.52,0,0,0,.34.15,2,2,0,0,0,.45.05,1.34,1.34,0,0,0,.9-.27,1,1,0,0,0,.3-.77v-.06a1,1,0,0,0-.3-.77,1.34,1.34,0,0,0-.9-.27h-.66v-.59Z"/><path class="cls-3" d="M117.49,90.74a.46.46,0,0,1-.37-.13.45.45,0,0,1-.12-.33v-.11a.43.43,0,0,1,.49-.46.45.45,0,0,1,.37.13.46.46,0,0,1,.12.33v.11a.43.43,0,0,1-.49.46Z"/><path class="cls-3" d="M121.21,90.65V85.06h3.33v.59h-2.66v1.88h2.43v.59h-2.43v2.53Z"/><path class="cls-3" d="M125.47,90.65V86.52h.64v.76h0a1.17,1.17,0,0,1,.4-.53,1.24,1.24,0,0,1,.79-.23h.25v.64h-.38a1.43,1.43,0,0,0-.81.19.58.58,0,0,0-.29.5v2.8Z"/><path class="cls-3" d="M131.38,90.65a.67.67,0,0,1-.52-.19.94.94,0,0,1-.19-.49h0a1.06,1.06,0,0,1-.45.58,1.39,1.39,0,0,1-.75.19,1.49,1.49,0,0,1-1-.33,1.2,1.2,0,0,1-.36-.91,1,1,0,0,1,.43-.9,2.25,2.25,0,0,1,1.33-.31h.82v-.41a.89.89,0,0,0-.24-.67,1,1,0,0,0-.74-.24,1.14,1.14,0,0,0-.63.17,1.4,1.4,0,0,0-.42.45l-.38-.36a1.51,1.51,0,0,1,.53-.57,1.69,1.69,0,0,1,.93-.24,1.74,1.74,0,0,1,1.17.37,1.3,1.3,0,0,1,.42,1v2.27h.47v.57Zm-1.84-.45a1.51,1.51,0,0,0,.44-.06.89.89,0,0,0,.34-.16.87.87,0,0,0,.23-.24.6.6,0,0,0,.08-.29v-.68h-.85a1.54,1.54,0,0,0-.81.16.52.52,0,0,0-.25.46v.17a.57.57,0,0,0,.22.47A1,1,0,0,0,129.54,90.2Z"/><path class="cls-3" d="M136.13,91.11a1,1,0,0,1-.5.93,3,3,0,0,1-1.5.3,2.71,2.71,0,0,1-1.39-.26.86.86,0,0,1-.43-.75.74.74,0,0,1,.18-.53,1.12,1.12,0,0,1,.48-.27v-.09a.61.61,0,0,1-.37-.57.6.6,0,0,1,.2-.48,1.51,1.51,0,0,1,.51-.24v0a1.41,1.41,0,0,1-.57-.51,1.46,1.46,0,0,1-.2-.76,1.58,1.58,0,0,1,.11-.58,1.42,1.42,0,0,1,.32-.45,1.37,1.37,0,0,1,.48-.29,1.87,1.87,0,0,1,.64-.11,1.9,1.9,0,0,1,.78.16v-.07a.63.63,0,0,1,.12-.4.39.39,0,0,1,.36-.16H136v.57h-.78v.26a1.32,1.32,0,0,1,.34.47,1.29,1.29,0,0,1,.13.6,1.58,1.58,0,0,1-.11.58,1.32,1.32,0,0,1-.32.45,1.42,1.42,0,0,1-.49.29,1.87,1.87,0,0,1-.64.11,1.81,1.81,0,0,1-.4,0,1.45,1.45,0,0,0-.38.16.35.35,0,0,0-.17.3.24.24,0,0,0,.18.25,1.47,1.47,0,0,0,.46.06h.88a1.67,1.67,0,0,1,1.11.3A1,1,0,0,1,136.13,91.11Zm-.6,0a.45.45,0,0,0-.19-.39,1.1,1.1,0,0,0-.67-.15H133.3a.57.57,0,0,0-.39.56.6.6,0,0,0,.21.46,1,1,0,0,0,.69.19h.59a1.58,1.58,0,0,0,.83-.17A.53.53,0,0,0,135.53,91.15Zm-1.43-2.38a1,1,0,0,0,.65-.2A.74.74,0,0,0,135,88v-.22a.74.74,0,0,0-.24-.61,1.16,1.16,0,0,0-1.3,0,.74.74,0,0,0-.24.61V88a.74.74,0,0,0,.24.61A1,1,0,0,0,134.1,88.77Z"/><path class="cls-3" d="M138.39,90.74a1.89,1.89,0,0,1-.77-.15,1.66,1.66,0,0,1-.58-.44,1.94,1.94,0,0,1-.38-.68,2.73,2.73,0,0,1-.13-.89,2.82,2.82,0,0,1,.13-.89A2.14,2.14,0,0,1,137,87a1.63,1.63,0,0,1,.58-.43,1.74,1.74,0,0,1,.77-.16,1.78,1.78,0,0,1,.74.15,1.56,1.56,0,0,1,.56.42,1.9,1.9,0,0,1,.36.64,2.53,2.53,0,0,1,.12.8v.3h-3v.2a1.33,1.33,0,0,0,.09.49,1,1,0,0,0,.24.39,1.05,1.05,0,0,0,.38.27,1.38,1.38,0,0,0,.52.09,1.25,1.25,0,0,0,.68-.18,1.12,1.12,0,0,0,.45-.53l.46.33a1.5,1.5,0,0,1-.63.69A1.8,1.8,0,0,1,138.39,90.74Zm0-3.78a1.21,1.21,0,0,0-.48.09,1.12,1.12,0,0,0-.38.26,1.28,1.28,0,0,0-.24.39,1.35,1.35,0,0,0-.09.5v.06h2.28v-.09a1.25,1.25,0,0,0-.3-.88A1,1,0,0,0,138.39,87Z"/><path class="cls-3" d="M141.23,90.65V86.52h.64v.66h0a1.31,1.31,0,0,1,.43-.55,1.18,1.18,0,0,1,.74-.21,1.29,1.29,0,0,1,1,.42,1.65,1.65,0,0,1,.37,1.16v2.65h-.64V88.11c0-.75-.31-1.12-.94-1.12a1.57,1.57,0,0,0-.37.05,1,1,0,0,0-.32.14.78.78,0,0,0-.23.25.65.65,0,0,0-.08.35v2.87Z"/><path class="cls-3" d="M147.66,84.73h.64v2.45h0a1.12,1.12,0,0,1,.47-.57,1.34,1.34,0,0,1,.74-.19,1.43,1.43,0,0,1,.69.16,1.49,1.49,0,0,1,.54.43,2.05,2.05,0,0,1,.33.68,3,3,0,0,1,.12.89,3.16,3.16,0,0,1-.12.9,2.15,2.15,0,0,1-.33.68,1.49,1.49,0,0,1-.54.43,1.55,1.55,0,0,1-.69.15,1.25,1.25,0,0,1-1.21-.76h0v.67h-.64Zm1.7,5.44a1.09,1.09,0,0,0,.86-.34,1.24,1.24,0,0,0,.31-.89v-.71a1.28,1.28,0,0,0-.31-.9,1.09,1.09,0,0,0-.86-.34,1.4,1.4,0,0,0-.41.06,1.2,1.2,0,0,0-.34.17.78.78,0,0,0-.23.25.69.69,0,0,0-.08.32v1.54a.86.86,0,0,0,.08.36.82.82,0,0,0,.23.26,1,1,0,0,0,.34.17A1.4,1.4,0,0,0,149.36,90.17Z"/><path class="cls-3" d="M153.85,90.74a1.84,1.84,0,0,1-.76-.15,1.61,1.61,0,0,1-.59-.44,1.78,1.78,0,0,1-.37-.68,2.72,2.72,0,0,1-.14-.89,2.81,2.81,0,0,1,.14-.89,1.94,1.94,0,0,1,.37-.68,1.58,1.58,0,0,1,.59-.43,1.7,1.7,0,0,1,.76-.16,1.72,1.72,0,0,1,.74.15,1.56,1.56,0,0,1,.56.42,1.75,1.75,0,0,1,.36.64,2.53,2.53,0,0,1,.12.8v.3h-3v.2a1.33,1.33,0,0,0,.08.49,1.28,1.28,0,0,0,.24.39,1.05,1.05,0,0,0,.38.27,1.46,1.46,0,0,0,.52.09,1.25,1.25,0,0,0,.68-.18,1.2,1.2,0,0,0,.46-.53l.45.33a1.53,1.53,0,0,1-.62.69A1.83,1.83,0,0,1,153.85,90.74Zm0-3.78a1.21,1.21,0,0,0-.48.09,1.08,1.08,0,0,0-.37.26,1.14,1.14,0,0,0-.25.39,1.59,1.59,0,0,0-.08.5v.06H155v-.09a1.25,1.25,0,0,0-.3-.88A1,1,0,0,0,153.85,87Z"/><path class="cls-3" d="M159.69,90.65a.67.67,0,0,1-.52-.19A.94.94,0,0,1,159,90h0a1.06,1.06,0,0,1-.45.58,1.38,1.38,0,0,1-.74.19,1.46,1.46,0,0,1-1-.33,1.17,1.17,0,0,1-.37-.91,1,1,0,0,1,.43-.9,2.27,2.27,0,0,1,1.33-.31h.82v-.41a.89.89,0,0,0-.24-.67A1,1,0,0,0,158,87a1.14,1.14,0,0,0-.63.17,1.65,1.65,0,0,0-.42.45l-.38-.36a1.46,1.46,0,0,1,.54-.57,1.63,1.63,0,0,1,.92-.24,1.73,1.73,0,0,1,1.17.37,1.3,1.3,0,0,1,.42,1v2.27h.47v.57Zm-1.84-.45a1.51,1.51,0,0,0,.44-.06.89.89,0,0,0,.34-.16.87.87,0,0,0,.23-.24.6.6,0,0,0,.08-.29v-.68h-.85a1.48,1.48,0,0,0-.8.16.51.51,0,0,0-.26.46v.17a.57.57,0,0,0,.22.47A1,1,0,0,0,157.85,90.2Z"/><path class="cls-3" d="M161,90.65V86.52h.64v.66h0a1.49,1.49,0,0,1,.43-.55,1.2,1.2,0,0,1,.74-.21,1.26,1.26,0,0,1,1,.42,1.65,1.65,0,0,1,.38,1.16v2.65h-.64V88.11c0-.75-.32-1.12-.94-1.12a1.5,1.5,0,0,0-.37.05,1.22,1.22,0,0,0-.33.14.75.75,0,0,0-.22.25.65.65,0,0,0-.09.35v2.87Z"/><path class="cls-3" d="M166.42,90.65a.66.66,0,0,1-.51-.19.73.73,0,0,1-.17-.49V87.09h-.68v-.57h.38a.37.37,0,0,0,.29-.09.42.42,0,0,0,.07-.29v-.76h.58v1.14h.9v.57h-.9v3h.84v.57Z"/><path class="cls-3" d="M167.88,86.52h.63L169,88.3l.44,1.81h0l.51-1.81.52-1.78H171l.54,1.78.51,1.81h0l.42-1.81.45-1.78h.6l-1.1,4.13h-.79l-.57-2-.36-1.25h0l-.35,1.25-.58,2H169Z"/><path class="cls-3" d="M176,90.74a1.87,1.87,0,0,1-.76-.15,1.61,1.61,0,0,1-.59-.44,1.94,1.94,0,0,1-.38-.68,2.72,2.72,0,0,1-.14-.89,2.81,2.81,0,0,1,.14-.89,2.14,2.14,0,0,1,.38-.68,1.58,1.58,0,0,1,.59-.43,1.73,1.73,0,0,1,.76-.16,1.65,1.65,0,0,1,.75.16,1.58,1.58,0,0,1,.59.43,2,2,0,0,1,.39.68,2.82,2.82,0,0,1,.13.89,2.73,2.73,0,0,1-.13.89,1.81,1.81,0,0,1-.39.68,1.61,1.61,0,0,1-.59.44A1.79,1.79,0,0,1,176,90.74Zm0-.57a1.14,1.14,0,0,0,.85-.32,1.32,1.32,0,0,0,.32-1v-.59a1.34,1.34,0,0,0-.32-1,1.29,1.29,0,0,0-1.7,0,1.3,1.3,0,0,0-.33,1v.59a1.28,1.28,0,0,0,.33,1A1.14,1.14,0,0,0,176,90.17Z"/><path class="cls-3" d="M178.9,90.65V86.52h.64v.76h0a1.18,1.18,0,0,1,1.19-.76H181v.64h-.38a1.43,1.43,0,0,0-.81.19.58.58,0,0,0-.29.5v2.8Z"/><path class="cls-3" d="M182.78,90.65a.66.66,0,0,1-.51-.19.73.73,0,0,1-.17-.49V87.09h-.68v-.57h.38a.37.37,0,0,0,.29-.09.42.42,0,0,0,.07-.29v-.76h.58v1.14h.9v.57h-.9v3h.84v.57Z"/><path class="cls-3" d="M186.2,90.74a1.84,1.84,0,0,1-.76-.15,1.69,1.69,0,0,1-.59-.44,1.78,1.78,0,0,1-.37-.68,2.72,2.72,0,0,1-.14-.89,2.81,2.81,0,0,1,.14-.89,1.94,1.94,0,0,1,.37-.68,1.66,1.66,0,0,1,.59-.43,1.7,1.7,0,0,1,.76-.16,1.72,1.72,0,0,1,.74.15,1.56,1.56,0,0,1,.56.42,1.75,1.75,0,0,1,.36.64,2.53,2.53,0,0,1,.12.8v.3h-3v.2a1.33,1.33,0,0,0,.08.49,1.28,1.28,0,0,0,.24.39,1.05,1.05,0,0,0,.38.27,1.46,1.46,0,0,0,.52.09,1.25,1.25,0,0,0,.68-.18,1.2,1.2,0,0,0,.46-.53l.45.33a1.53,1.53,0,0,1-.62.69A1.83,1.83,0,0,1,186.2,90.74Zm0-3.78a1.24,1.24,0,0,0-.48.09,1.08,1.08,0,0,0-.37.26,1.3,1.3,0,0,0-.25.39,1.59,1.59,0,0,0-.08.5v.06h2.28v-.09a1.25,1.25,0,0,0-.3-.88A1,1,0,0,0,186.2,87Z"/><path class="cls-3" d="M189,90.65V86.52h.64v.66h0a1.39,1.39,0,0,1,.43-.55,1.18,1.18,0,0,1,.74-.21,1.28,1.28,0,0,1,1,.42,1.65,1.65,0,0,1,.37,1.16v2.65h-.64V88.11c0-.75-.31-1.12-.93-1.12a1.5,1.5,0,0,0-.37.05,1.22,1.22,0,0,0-.33.14.92.92,0,0,0-.23.25.75.75,0,0,0-.08.35v2.87Z"/><path class="cls-3" d="M113,103.08V102h-2.7v-.59l2.34-3.89h1v3.92h.81V102h-.81v1.1ZM111,101.42H113V98h0Z"/><path class="cls-3" d="M115.92,103.17a.51.51,0,0,1-.38-.12.53.53,0,0,1-.11-.34v-.1a.53.53,0,0,1,.11-.34.51.51,0,0,1,.38-.13.5.5,0,0,1,.37.13.53.53,0,0,1,.11.34v.1a.53.53,0,0,1-.11.34A.5.5,0,0,1,115.92,103.17Z"/><path class="cls-3" d="M123.13,103.08l-.56-1.65h-2.26l-.56,1.65h-.68l2-5.58h.85l2,5.58Zm-1.67-5h0l-1,2.72h1.93Z"/><path class="cls-3" d="M127.24,102.41h0a1.4,1.4,0,0,1-.16.29,1,1,0,0,1-.22.24,1,1,0,0,1-.33.17,1.53,1.53,0,0,1-.45.06,1.31,1.31,0,0,1-1-.41,1.65,1.65,0,0,1-.37-1.16V99h.64v2.54c0,.75.31,1.12.94,1.12a1.5,1.5,0,0,0,.37,0,.86.86,0,0,0,.32-.15.66.66,0,0,0,.23-.24.8.8,0,0,0,.08-.36V99h.64v4.13h-.64Z"/><path class="cls-3" d="M130.48,103.17a2,2,0,0,1-1-.21,2.36,2.36,0,0,1-.67-.59l.46-.37a1.8,1.8,0,0,0,.53.47,1.41,1.41,0,0,0,.69.16,1.1,1.1,0,0,0,.64-.17.61.61,0,0,0,.22-.5.59.59,0,0,0-.15-.41.92.92,0,0,0-.57-.24l-.32,0a2.06,2.06,0,0,1-.53-.12,1.67,1.67,0,0,1-.42-.22,1.06,1.06,0,0,1-.28-.35,1.12,1.12,0,0,1-.1-.5,1.25,1.25,0,0,1,.11-.53,1.15,1.15,0,0,1,.31-.38,1.38,1.38,0,0,1,.47-.23,2.14,2.14,0,0,1,.58-.08,1.74,1.74,0,0,1,.84.18,1.88,1.88,0,0,1,.6.49l-.42.38a1.4,1.4,0,0,0-.4-.35,1.36,1.36,0,0,0-.67-.15.93.93,0,0,0-.6.17.58.58,0,0,0-.21.47.49.49,0,0,0,.21.44,1.45,1.45,0,0,0,.59.2l.32,0a1.72,1.72,0,0,1,1,.39,1.06,1.06,0,0,1,.29.77,1.17,1.17,0,0,1-.41.94A1.67,1.67,0,0,1,130.48,103.17Z"/><path class="cls-3" d="M132.64,99h.63l.44,1.78.44,1.81h0l.51-1.81.52-1.78h.56l.54,1.78.51,1.81h0l.42-1.81.45-1.78h.6l-1.1,4.13h-.79l-.57-2-.36-1.25h0l-.35,1.25-.58,2h-.77Z"/><path class="cls-3" d="M140.74,103.17A1.92,1.92,0,0,1,140,103a1.63,1.63,0,0,1-.58-.43,2.14,2.14,0,0,1-.38-.68,3.1,3.1,0,0,1-.13-.9,3,3,0,0,1,.13-.88,2.09,2.09,0,0,1,.38-.69A1.63,1.63,0,0,1,140,99a1.93,1.93,0,0,1,.77-.16,1.75,1.75,0,0,1,.74.16,1.66,1.66,0,0,1,.56.41,1.75,1.75,0,0,1,.36.64,2.53,2.53,0,0,1,.12.8v.31h-3v.19a1.3,1.3,0,0,0,.09.49,1.1,1.1,0,0,0,.24.4,1,1,0,0,0,.38.26,1.24,1.24,0,0,0,.52.1,1.18,1.18,0,0,0,.68-.19,1.12,1.12,0,0,0,.45-.53l.46.33a1.53,1.53,0,0,1-.62.69A1.85,1.85,0,0,1,140.74,103.17Zm0-3.78a1.21,1.21,0,0,0-.48.09,1,1,0,0,0-.37.26,1.14,1.14,0,0,0-.25.39,1.39,1.39,0,0,0-.09.5v.06h2.28v-.09a1.25,1.25,0,0,0-.3-.88A1,1,0,0,0,140.74,99.39Z"/><path class="cls-3" d="M143.58,103.08V99h.64v.76h0a1.18,1.18,0,0,1,1.19-.76h.25v.64h-.38a1.47,1.47,0,0,0-.81.2.58.58,0,0,0-.29.49v2.8Z"/><path class="cls-3" d="M147.45,103.08a.66.66,0,0,1-.51-.19.71.71,0,0,1-.17-.49V99.52h-.68V99h.39a.41.41,0,0,0,.28-.08.46.46,0,0,0,.07-.29v-.77h.58V99h.9v.57h-.9v3h.84v.57Z"/><path class="cls-3" d="M151.89,102.41h0a2.09,2.09,0,0,1-.16.29,1,1,0,0,1-.22.24,1.29,1.29,0,0,1-.33.17,1.53,1.53,0,0,1-.45.06,1.29,1.29,0,0,1-1-.41,1.65,1.65,0,0,1-.37-1.16V99H150v2.54c0,.75.31,1.12.94,1.12a1.5,1.5,0,0,0,.37,0,.86.86,0,0,0,.32-.15.66.66,0,0,0,.23-.24.8.8,0,0,0,.08-.36V99h.64v4.13h-.64Z"/><path class="cls-3" d="M153.89,103.08V99h.64v.67h0a1.36,1.36,0,0,1,.43-.56,1.18,1.18,0,0,1,.74-.21,1.26,1.26,0,0,1,1,.42,1.65,1.65,0,0,1,.37,1.16v2.65h-.63v-2.54c0-.75-.32-1.12-.94-1.12a1.5,1.5,0,0,0-.37,0,1,1,0,0,0-.33.15.76.76,0,0,0-.23.24.78.78,0,0,0-.08.35v2.87Z"/><path class="cls-3" d="M161.92,103.54a1,1,0,0,1-.5.94,3.14,3.14,0,0,1-1.5.29,2.75,2.75,0,0,1-1.4-.26.82.82,0,0,1-.42-.75.76.76,0,0,1,.17-.52,1,1,0,0,1,.48-.28v-.09a.58.58,0,0,1-.36-.57.54.54,0,0,1,.2-.47,1.35,1.35,0,0,1,.51-.25v0a1.33,1.33,0,0,1-.57-.5,1.41,1.41,0,0,1-.21-.77,1.32,1.32,0,0,1,.12-.57,1.21,1.21,0,0,1,.31-.46,1.59,1.59,0,0,1,.49-.29,1.81,1.81,0,0,1,.63-.11,2,2,0,0,1,.79.16v-.07a.72.72,0,0,1,.11-.4.45.45,0,0,1,.37-.16h.61V99H161v.27a1.23,1.23,0,0,1,.35.46,1.46,1.46,0,0,1,.12.6,1.4,1.4,0,0,1-.11.58,1.12,1.12,0,0,1-.32.45,1.35,1.35,0,0,1-.49.3,1.83,1.83,0,0,1-.64.1,1.87,1.87,0,0,1-.4,0,1.14,1.14,0,0,0-.37.17.34.34,0,0,0-.17.29.24.24,0,0,0,.17.25,1.2,1.2,0,0,0,.46.07h.88a1.73,1.73,0,0,1,1.12.29A1,1,0,0,1,161.92,103.54Zm-.61,0a.48.48,0,0,0-.18-.39,1.12,1.12,0,0,0-.67-.15h-1.38a.59.59,0,0,0-.38.56.63.63,0,0,0,.2.46,1,1,0,0,0,.69.2h.6a1.74,1.74,0,0,0,.83-.17A.55.55,0,0,0,161.31,103.58Zm-1.43-2.38a1,1,0,0,0,.65-.2.73.73,0,0,0,.24-.6v-.23a.76.76,0,0,0-.24-.61,1.21,1.21,0,0,0-1.3,0,.76.76,0,0,0-.23.61v.23a.72.72,0,0,0,.23.6A1,1,0,0,0,159.88,101.2Z"/><path class="cls-3" d="M167.55,103.08a.66.66,0,0,1-.52-.19,1,1,0,0,1-.2-.48h0a1.11,1.11,0,0,1-.44.57,1.39,1.39,0,0,1-.75.19,1.49,1.49,0,0,1-1-.33,1.18,1.18,0,0,1-.36-.91,1,1,0,0,1,.43-.9,2.25,2.25,0,0,1,1.33-.31h.81v-.41a.89.89,0,0,0-.24-.67,1,1,0,0,0-.73-.23,1.06,1.06,0,0,0-.63.17,1.36,1.36,0,0,0-.42.44l-.38-.36a1.51,1.51,0,0,1,.53-.57,1.69,1.69,0,0,1,.93-.24,1.74,1.74,0,0,1,1.17.37,1.29,1.29,0,0,1,.41,1v2.27h.48v.57Zm-1.84-.45a2,2,0,0,0,.44,0,1.53,1.53,0,0,0,.34-.16.65.65,0,0,0,.22-.25.49.49,0,0,0,.08-.29v-.68H166a1.54,1.54,0,0,0-.81.16.51.51,0,0,0-.25.46V102a.55.55,0,0,0,.22.47A.93.93,0,0,0,165.71,102.63Z"/><path class="cls-3" d="M168.82,103.08V99h.64v.67h0a1.28,1.28,0,0,1,.43-.56,1.18,1.18,0,0,1,.74-.21,1.28,1.28,0,0,1,1,.42,1.65,1.65,0,0,1,.37,1.16v2.65h-.64v-2.54c0-.75-.31-1.12-.93-1.12a1.58,1.58,0,0,0-.38,0,.94.94,0,0,0-.32.15.66.66,0,0,0-.23.24.78.78,0,0,0-.08.35v2.87Z"/><path class="cls-3" d="M174.6,103.17a2,2,0,0,1-1-.21,2.36,2.36,0,0,1-.67-.59l.46-.37a1.93,1.93,0,0,0,.53.47,1.41,1.41,0,0,0,.69.16,1.1,1.1,0,0,0,.64-.17.61.61,0,0,0,.22-.5.59.59,0,0,0-.15-.41.92.92,0,0,0-.57-.24l-.32,0a2.06,2.06,0,0,1-.53-.12,1.67,1.67,0,0,1-.42-.22,1.06,1.06,0,0,1-.28-.35,1.12,1.12,0,0,1-.1-.5,1.25,1.25,0,0,1,.11-.53,1.15,1.15,0,0,1,.31-.38,1.38,1.38,0,0,1,.47-.23,2.14,2.14,0,0,1,.58-.08,1.74,1.74,0,0,1,.84.18,1.88,1.88,0,0,1,.6.49l-.42.38a1.4,1.4,0,0,0-.4-.35,1.36,1.36,0,0,0-.67-.15.93.93,0,0,0-.6.17.58.58,0,0,0-.21.47.49.49,0,0,0,.21.44,1.45,1.45,0,0,0,.59.2l.32,0a1.72,1.72,0,0,1,1,.39,1.06,1.06,0,0,1,.29.77,1.17,1.17,0,0,1-.41.94A1.67,1.67,0,0,1,174.6,103.17Z"/><path class="cls-3" d="M178.81,103.17a1.84,1.84,0,0,1-.76-.15,1.58,1.58,0,0,1-.59-.43,1.94,1.94,0,0,1-.37-.68,2.79,2.79,0,0,1-.14-.9,2.71,2.71,0,0,1,.14-.88,1.91,1.91,0,0,1,.37-.69,1.58,1.58,0,0,1,.59-.43,1.84,1.84,0,0,1,.76-.16,1.75,1.75,0,0,1,.74.16,1.66,1.66,0,0,1,.56.41,1.75,1.75,0,0,1,.36.64,2.53,2.53,0,0,1,.12.8v.31h-3v.19a1.29,1.29,0,0,0,.08.49,1.47,1.47,0,0,0,.24.4,1,1,0,0,0,.38.26,1.27,1.27,0,0,0,.52.1,1.18,1.18,0,0,0,.68-.19,1.2,1.2,0,0,0,.46-.53l.45.33a1.53,1.53,0,0,1-.62.69A1.83,1.83,0,0,1,178.81,103.17Zm0-3.78a1.21,1.21,0,0,0-.48.09,1.08,1.08,0,0,0-.37.26,1.14,1.14,0,0,0-.25.39,1.64,1.64,0,0,0-.08.5v.06h2.28v-.09a1.25,1.25,0,0,0-.3-.88A1,1,0,0,0,178.81,99.39Z"/><path class="cls-3" d="M181.65,97.16h.64v2.46h0a1.36,1.36,0,0,1,.43-.56,1.18,1.18,0,0,1,.74-.21,1.28,1.28,0,0,1,1,.42,1.65,1.65,0,0,1,.37,1.16v2.65h-.64v-2.54c0-.75-.31-1.12-.93-1.12a1.5,1.5,0,0,0-.37,0,1,1,0,0,0-.33.15.76.76,0,0,0-.23.24.78.78,0,0,0-.08.35v2.87h-.64Z"/><path class="cls-3" d="M187.75,103.17A1.89,1.89,0,0,1,187,103a1.55,1.55,0,0,1-.58-.43,2.14,2.14,0,0,1-.38-.68,2.79,2.79,0,0,1-.13-.9,2.71,2.71,0,0,1,.13-.88,2.09,2.09,0,0,1,.38-.69A1.55,1.55,0,0,1,187,99a1.89,1.89,0,0,1,.77-.16,1.78,1.78,0,0,1,.74.16,1.76,1.76,0,0,1,.56.41,2.09,2.09,0,0,1,.36.64,2.53,2.53,0,0,1,.12.8v.31h-3v.19a1.3,1.3,0,0,0,.09.49,1.1,1.1,0,0,0,.24.4,1,1,0,0,0,.38.26,1.21,1.21,0,0,0,.52.1,1.18,1.18,0,0,0,.68-.19,1.24,1.24,0,0,0,.45-.53l.46.33a1.55,1.55,0,0,1-.63.69A1.82,1.82,0,0,1,187.75,103.17Zm0-3.78a1.21,1.21,0,0,0-.48.09,1.12,1.12,0,0,0-.38.26,1.28,1.28,0,0,0-.24.39,1.39,1.39,0,0,0-.09.5v.06h2.28v-.09a1.25,1.25,0,0,0-.3-.88A1,1,0,0,0,187.75,99.39Z"/><path class="cls-3" d="M190.58,103.08V99h.65v.67h0a1.28,1.28,0,0,1,.43-.56,1.17,1.17,0,0,1,.73-.21,1.3,1.3,0,0,1,1,.42,1.65,1.65,0,0,1,.37,1.16v2.65h-.64v-2.54c0-.75-.31-1.12-.94-1.12a1.57,1.57,0,0,0-.37,0,.86.86,0,0,0-.32.15.66.66,0,0,0-.23.24.67.67,0,0,0-.08.35v2.87Z"/><path class="cls-3" d="M81.58,254,81,252.31H78.76L78.2,254h-.68l2-5.58h.85l2,5.58Zm-1.67-5h0l-1,2.72h1.93Z"/><path class="cls-3" d="M85.69,253.3h0a2.79,2.79,0,0,1-.16.28,1,1,0,0,1-.22.24A1.14,1.14,0,0,1,85,254a1.53,1.53,0,0,1-.45.06,1.29,1.29,0,0,1-1-.41,1.65,1.65,0,0,1-.37-1.16v-2.65h.64v2.54c0,.75.31,1.12.94,1.12a1.5,1.5,0,0,0,.37-.05,1,1,0,0,0,.32-.14.78.78,0,0,0,.23-.25.8.8,0,0,0,.08-.36v-2.86h.64V254h-.64Z"/><path class="cls-3" d="M87.92,250.4h-.68v-.57h.68V249a1,1,0,0,1,.22-.7.87.87,0,0,1,.68-.26h.62v.57h-.88v1.22h.88v.57h-.88V254h-.64Z"/><path class="cls-4" d="M92.17,248h.64v2.46h0a1.36,1.36,0,0,1,.43-.56,1.2,1.2,0,0,1,.74-.2,1.26,1.26,0,0,1,1,.41,1.65,1.65,0,0,1,.37,1.16V254h-.63v-2.54c0-.75-.32-1.12-.94-1.12a1.5,1.5,0,0,0-.37,0,1,1,0,0,0-.33.15.76.76,0,0,0-.23.24.78.78,0,0,0-.08.35V254h-.64Z"/><path class="cls-4" d="M97.63,254a.63.63,0,0,1-.51-.19.67.67,0,0,1-.17-.49V250.4h-.68v-.57h.38a.44.44,0,0,0,.29-.08.46.46,0,0,0,.07-.29v-.77h.58v1.14h.9v.57h-.9v3h.84V254Z"/><path class="cls-4" d="M100.37,254a.66.66,0,0,1-.51-.19.71.71,0,0,1-.17-.49V250.4H99v-.57h.39a.41.41,0,0,0,.28-.08.46.46,0,0,0,.08-.29v-.77h.57v1.14h.91v.57h-.91v3h.84V254Z"/><path class="cls-4" d="M102.27,249.83h.64v.67h0a1.19,1.19,0,0,1,.47-.58,1.42,1.42,0,0,1,.74-.18,1.55,1.55,0,0,1,.69.15,1.49,1.49,0,0,1,.54.43,2.15,2.15,0,0,1,.33.68,3.4,3.4,0,0,1,0,1.79,2.15,2.15,0,0,1-.33.68,1.49,1.49,0,0,1-.54.43,1.55,1.55,0,0,1-.69.15,1.25,1.25,0,0,1-1.21-.75h0v2.26h-.64Zm1.7,3.66a1.14,1.14,0,0,0,.86-.34,1.28,1.28,0,0,0,.31-.9v-.71a1.28,1.28,0,0,0-.31-.9,1.14,1.14,0,0,0-.86-.34,1.4,1.4,0,0,0-.41.06,1.2,1.2,0,0,0-.34.17.78.78,0,0,0-.23.25.72.72,0,0,0-.08.32v1.54a.8.8,0,0,0,.08.36.85.85,0,0,0,.23.27,1.19,1.19,0,0,0,.34.16A1.4,1.4,0,0,0,104,253.49Z"/><path class="cls-4" d="M108.15,254.05a2,2,0,0,1-1-.21,2.19,2.19,0,0,1-.66-.59l.45-.37a1.83,1.83,0,0,0,.54.47,1.34,1.34,0,0,0,.68.16,1.06,1.06,0,0,0,.64-.17.61.61,0,0,0,.23-.5.56.56,0,0,0-.16-.41.89.89,0,0,0-.56-.24l-.33-.05a2.16,2.16,0,0,1-.53-.12,1.67,1.67,0,0,1-.42-.22,1.06,1.06,0,0,1-.28-.35,1.27,1.27,0,0,1-.1-.5,1.25,1.25,0,0,1,.11-.53,1.15,1.15,0,0,1,.31-.38,1.38,1.38,0,0,1,.47-.23,2.22,2.22,0,0,1,.59-.07,1.8,1.8,0,0,1,.84.17,2,2,0,0,1,.6.49l-.43.38a1.41,1.41,0,0,0-.4-.35,1.32,1.32,0,0,0-.66-.15,1,1,0,0,0-.61.17.6.6,0,0,0-.2.47.5.5,0,0,0,.2.44,1.5,1.5,0,0,0,.59.2l.32.05a1.79,1.79,0,0,1,1,.39,1.06,1.06,0,0,1,.29.77,1.17,1.17,0,0,1-.41.94A1.68,1.68,0,0,1,108.15,254.05Z"/><path class="cls-4" d="M111.29,250.81a.5.5,0,0,1-.37-.13.49.49,0,0,1-.12-.34v-.1a.49.49,0,0,1,.12-.34.5.5,0,0,1,.37-.12.42.42,0,0,1,.49.46v.1a.44.44,0,0,1-.49.47Zm0,3.24a.5.5,0,0,1-.37-.12.49.49,0,0,1-.12-.34v-.1a.49.49,0,0,1,.12-.34.5.5,0,0,1,.37-.13.44.44,0,0,1,.49.47v.1a.42.42,0,0,1-.49.46Z"/><path class="cls-4" d="M112.53,255.17l2.09-7.13h.57l-2.08,7.13Z"/><path class="cls-4" d="M114.63,255.17l2.09-7.13h.58l-2.09,7.13Z"/><path class="cls-4" d="M119.55,254.05a2,2,0,0,1-1-.21,2.19,2.19,0,0,1-.66-.59l.45-.37a1.83,1.83,0,0,0,.54.47,1.34,1.34,0,0,0,.68.16,1.06,1.06,0,0,0,.64-.17.61.61,0,0,0,.23-.5.56.56,0,0,0-.16-.41.89.89,0,0,0-.56-.24l-.33-.05a2.16,2.16,0,0,1-.53-.12,1.67,1.67,0,0,1-.42-.22,1.06,1.06,0,0,1-.28-.35,1.27,1.27,0,0,1-.1-.5,1.25,1.25,0,0,1,.11-.53,1.15,1.15,0,0,1,.31-.38,1.38,1.38,0,0,1,.47-.23,2.22,2.22,0,0,1,.59-.07,1.8,1.8,0,0,1,.84.17,2,2,0,0,1,.6.49l-.43.38a1.41,1.41,0,0,0-.4-.35,1.32,1.32,0,0,0-.66-.15,1,1,0,0,0-.61.17.6.6,0,0,0-.2.47.5.5,0,0,0,.2.44,1.5,1.5,0,0,0,.59.2l.32.05a1.79,1.79,0,0,1,1,.39,1.06,1.06,0,0,1,.29.77,1.17,1.17,0,0,1-.41.94A1.7,1.7,0,0,1,119.55,254.05Z"/><path class="cls-4" d="M124.75,253.3h0a2.6,2.6,0,0,1-.15.28,1,1,0,0,1-.23.24,1,1,0,0,1-.33.17,1.46,1.46,0,0,1-.44.06,1.29,1.29,0,0,1-1-.41,1.65,1.65,0,0,1-.38-1.16v-2.65h.64v2.54c0,.75.32,1.12,1,1.12a1.57,1.57,0,0,0,.37-.05,1,1,0,0,0,.32-.14.75.75,0,0,0,.22-.25.69.69,0,0,0,.09-.36v-2.86h.64V254h-.64Z"/><path class="cls-4" d="M126.75,254v-4.13h.64v.76h0a1.17,1.17,0,0,1,.4-.53,1.24,1.24,0,0,1,.79-.23h.25v.64h-.38a1.42,1.42,0,0,0-.81.2.56.56,0,0,0-.29.49V254Z"/><path class="cls-4" d="M130.67,254l-1.45-4.13h.64l.72,2,.45,1.41h0l.44-1.41.74-2h.62L131.41,254Z"/><path class="cls-4" d="M135.19,254.05a1.89,1.89,0,0,1-.77-.15,1.63,1.63,0,0,1-.58-.43,2.14,2.14,0,0,1-.38-.68,2.79,2.79,0,0,1-.13-.9,2.71,2.71,0,0,1,.13-.88,2.09,2.09,0,0,1,.38-.69,1.63,1.63,0,0,1,.58-.43,1.89,1.89,0,0,1,.77-.15,1.78,1.78,0,0,1,.74.15,1.66,1.66,0,0,1,.56.41,1.9,1.9,0,0,1,.36.64,2.53,2.53,0,0,1,.12.8v.31h-3v.19a1.3,1.3,0,0,0,.09.49,1.1,1.1,0,0,0,.24.4,1,1,0,0,0,.38.26,1.24,1.24,0,0,0,.52.1,1.18,1.18,0,0,0,.68-.19,1.14,1.14,0,0,0,.45-.52l.46.33a1.56,1.56,0,0,1-.62.68A1.85,1.85,0,0,1,135.19,254.05Zm0-3.78a1.21,1.21,0,0,0-.48.09,1.12,1.12,0,0,0-.38.26,1.28,1.28,0,0,0-.24.39,1.39,1.39,0,0,0-.09.5v.06h2.28v-.09a1.25,1.25,0,0,0-.3-.88A1,1,0,0,0,135.19,250.27Z"/><path class="cls-4" d="M140.53,249.83h.63l-1.85,5.09a1.8,1.8,0,0,1-.14.31.64.64,0,0,1-.17.19.68.68,0,0,1-.26.11,2.21,2.21,0,0,1-.39,0H138V255h.65l.31-.88-1.55-4.28h.64l1,2.8.19.67h0l.22-.67Z"/><path class="cls-4" d="M142,254.05a.52.52,0,0,1-.38-.12.53.53,0,0,1-.11-.34v-.1a.53.53,0,0,1,.11-.34A.53.53,0,0,1,142,253a.5.5,0,0,1,.37.13.49.49,0,0,1,.12.34v.1a.49.49,0,0,1-.12.34A.5.5,0,0,1,142,254.05Z"/><path class="cls-4" d="M144,248.86a.4.4,0,0,1-.3-.1.36.36,0,0,1-.09-.26v-.1a.37.37,0,0,1,.09-.26.4.4,0,0,1,.3-.1.38.38,0,0,1,.3.1.34.34,0,0,1,.1.26v.1a.33.33,0,0,1-.1.26A.38.38,0,0,1,144,248.86Zm-.32,1h.64V254h-.64Z"/><path class="cls-4" d="M145.71,254v-4.13h.64v.67h0a1.34,1.34,0,0,1,.42-.56,1.22,1.22,0,0,1,.74-.2,1.29,1.29,0,0,1,1,.41,1.7,1.7,0,0,1,.37,1.16V254h-.64v-2.54c0-.75-.31-1.12-.94-1.12a1.5,1.5,0,0,0-.37,0,.86.86,0,0,0-.32.15.59.59,0,0,0-.23.24.68.68,0,0,0-.09.35V254Z"/><path class="cls-4" d="M150.26,254v-4.13h.64v.67h0a1.28,1.28,0,0,1,.43-.56,1.18,1.18,0,0,1,.74-.2,1.27,1.27,0,0,1,1,.41,1.65,1.65,0,0,1,.37,1.16V254h-.64v-2.54c0-.75-.31-1.12-.93-1.12a1.58,1.58,0,0,0-.38,0,.94.94,0,0,0-.32.15.66.66,0,0,0-.23.24.78.78,0,0,0-.08.35V254Z"/><path class="cls-4" d="M156.36,254.05a1.87,1.87,0,0,1-.76-.15,1.66,1.66,0,0,1-.59-.43,2.35,2.35,0,0,1-.38-.68,2.79,2.79,0,0,1-.13-.9,2.71,2.71,0,0,1,.13-.88,2.28,2.28,0,0,1,.38-.69,1.66,1.66,0,0,1,.59-.43,2,2,0,0,1,1.52,0,1.66,1.66,0,0,1,.59.43,2.09,2.09,0,0,1,.38.69,2.71,2.71,0,0,1,.14.88,2.79,2.79,0,0,1-.14.9,2.14,2.14,0,0,1-.38.68,1.66,1.66,0,0,1-.59.43A1.87,1.87,0,0,1,156.36,254.05Zm0-.56a1.18,1.18,0,0,0,.85-.32,1.32,1.32,0,0,0,.33-1v-.59a1.32,1.32,0,0,0-.33-1,1.18,1.18,0,0,0-.85-.32,1.2,1.2,0,0,0-.85.32,1.36,1.36,0,0,0-.32,1v.59a1.36,1.36,0,0,0,.32,1A1.2,1.2,0,0,0,156.36,253.49Z"/><path class="cls-4" d="M158.83,254v-.54l2.34-3H158.9v-.57h3v.49l-2.4,3.07H162V254Z"/><path class="cls-4" d="M163.48,254.05a.5.5,0,0,1-.37-.12.49.49,0,0,1-.12-.34v-.1a.49.49,0,0,1,.12-.34.5.5,0,0,1,.37-.13.44.44,0,0,1,.49.47v.1a.42.42,0,0,1-.49.46Z"/><path class="cls-4" d="M166.49,254.05a2,2,0,0,1-1-.21,2.23,2.23,0,0,1-.67-.59l.45-.37a1.83,1.83,0,0,0,.54.47,1.41,1.41,0,0,0,.69.16,1,1,0,0,0,.63-.17.59.59,0,0,0,.23-.5.59.59,0,0,0-.15-.41,1,1,0,0,0-.57-.24l-.33-.05a2.08,2.08,0,0,1-.52-.12,1.67,1.67,0,0,1-.42-.22,1,1,0,0,1-.28-.35,1.32,1.32,0,0,1,0-1,1,1,0,0,1,.31-.38,1.33,1.33,0,0,1,.46-.23,2.27,2.27,0,0,1,.59-.07,1.77,1.77,0,0,1,.84.17,1.88,1.88,0,0,1,.6.49l-.43.38a1.41,1.41,0,0,0-.4-.35,1.29,1.29,0,0,0-.66-.15.91.91,0,0,0-.6.17.58.58,0,0,0-.21.47.49.49,0,0,0,.21.44,1.45,1.45,0,0,0,.58.2l.32.05a1.76,1.76,0,0,1,1,.39,1.06,1.06,0,0,1,.29.77,1.17,1.17,0,0,1-.41.94A1.68,1.68,0,0,1,166.49,254.05Z"/><path class="cls-4" d="M169.15,249.83h.64v.67h0a1.14,1.14,0,0,1,.47-.58,1.42,1.42,0,0,1,.74-.18,1.58,1.58,0,0,1,.69.15,1.38,1.38,0,0,1,.53.43,2,2,0,0,1,.34.68,3.4,3.4,0,0,1,0,1.79,2,2,0,0,1-.34.68,1.38,1.38,0,0,1-.53.43,1.58,1.58,0,0,1-.69.15,1.25,1.25,0,0,1-1.21-.75h0v2.26h-.64Zm1.7,3.66a1.14,1.14,0,0,0,.86-.34,1.33,1.33,0,0,0,.31-.9v-.71a1.33,1.33,0,0,0-.31-.9,1.14,1.14,0,0,0-.86-.34,1.4,1.4,0,0,0-.41.06,1.08,1.08,0,0,0-.34.17.78.78,0,0,0-.23.25.61.61,0,0,0-.08.32v1.54a.68.68,0,0,0,.08.36.85.85,0,0,0,.23.27,1.07,1.07,0,0,0,.34.16A1.4,1.4,0,0,0,170.85,253.49Z"/><path class="cls-4" d="M176.79,254a.66.66,0,0,1-.52-.19,1,1,0,0,1-.2-.48h0a1,1,0,0,1-.45.57,1.34,1.34,0,0,1-.74.19,1.46,1.46,0,0,1-1-.33,1.18,1.18,0,0,1-.36-.91,1,1,0,0,1,.43-.9,2.23,2.23,0,0,1,1.33-.31H176v-.41a.89.89,0,0,0-.24-.67,1,1,0,0,0-.73-.23,1.06,1.06,0,0,0-.63.17,1.36,1.36,0,0,0-.42.44l-.38-.36a1.51,1.51,0,0,1,.53-.57,1.69,1.69,0,0,1,.93-.23,1.74,1.74,0,0,1,1.17.36,1.29,1.29,0,0,1,.41,1v2.27h.48V254Zm-1.84-.45a2,2,0,0,0,.44,0,1.53,1.53,0,0,0,.34-.16.65.65,0,0,0,.22-.25.49.49,0,0,0,.08-.29v-.68h-.84a1.54,1.54,0,0,0-.81.16.51.51,0,0,0-.25.46v.17a.55.55,0,0,0,.22.47A.91.91,0,0,0,175,253.51Z"/><path class="cls-4" d="M179.59,254.05a1.92,1.92,0,0,1-.77-.15,1.55,1.55,0,0,1-.58-.43,1.84,1.84,0,0,1-.36-.68,3.15,3.15,0,0,1,0-1.79,1.84,1.84,0,0,1,.36-.68,1.55,1.55,0,0,1,.58-.43,1.92,1.92,0,0,1,.77-.15,1.53,1.53,0,0,1,1.55,1l-.54.27a1,1,0,0,0-.37-.49,1.08,1.08,0,0,0-.64-.18,1.28,1.28,0,0,0-.5.09,1.19,1.19,0,0,0-.36.26,1.07,1.07,0,0,0-.22.39,2,2,0,0,0-.07.5v.71a1.36,1.36,0,0,0,.29.89,1.07,1.07,0,0,0,.86.35,1.16,1.16,0,0,0,1.12-.72l.47.31a1.61,1.61,0,0,1-.6.71A1.7,1.7,0,0,1,179.59,254.05Z"/><path class="cls-4" d="M183.59,254.05a1.89,1.89,0,0,1-.77-.15,1.55,1.55,0,0,1-.58-.43,2.14,2.14,0,0,1-.38-.68,2.79,2.79,0,0,1-.13-.9,2.71,2.71,0,0,1,.13-.88,2.09,2.09,0,0,1,.38-.69,1.55,1.55,0,0,1,.58-.43,1.89,1.89,0,0,1,.77-.15,1.69,1.69,0,0,1,1.3.56,2.09,2.09,0,0,1,.36.64,2.53,2.53,0,0,1,.12.8v.31h-3v.19a1.3,1.3,0,0,0,.09.49,1.1,1.1,0,0,0,.24.4,1,1,0,0,0,.38.26,1.21,1.21,0,0,0,.52.1,1.18,1.18,0,0,0,.68-.19,1.27,1.27,0,0,0,.45-.52l.46.33a1.58,1.58,0,0,1-.63.68A1.82,1.82,0,0,1,183.59,254.05Zm0-3.78a1.21,1.21,0,0,0-.48.09,1.12,1.12,0,0,0-.38.26,1.28,1.28,0,0,0-.24.39,1.39,1.39,0,0,0-.09.5v.06h2.28v-.09a1.25,1.25,0,0,0-.3-.88A1,1,0,0,0,183.59,250.27Z"/><path class="cls-3" d="M188.3,248H189v3.75h0l.63-.7,1.17-1.26h.77L190,251.46l1.68,2.5h-.78l-1.37-2.1-.61.63V254h-.65Z"/><path class="cls-3" d="M194,254.05a1.84,1.84,0,0,1-.76-.15,1.58,1.58,0,0,1-.59-.43,2,2,0,0,1-.38-.68,2.79,2.79,0,0,1-.14-.9,2.71,2.71,0,0,1,.14-.88,1.92,1.92,0,0,1,.38-.69,1.58,1.58,0,0,1,.59-.43,1.84,1.84,0,0,1,.76-.15,1.86,1.86,0,0,1,.75.15,1.66,1.66,0,0,1,.59.43,2.09,2.09,0,0,1,.38.69,2.71,2.71,0,0,1,.14.88,2.79,2.79,0,0,1-.14.9,2.14,2.14,0,0,1-.38.68,1.66,1.66,0,0,1-.59.43A1.86,1.86,0,0,1,194,254.05Zm0-.56a1.17,1.17,0,0,0,.84-.32,1.32,1.32,0,0,0,.33-1v-.59a1.32,1.32,0,0,0-.33-1,1.28,1.28,0,0,0-1.69,0,1.32,1.32,0,0,0-.33,1v.59a1.32,1.32,0,0,0,.33,1A1.18,1.18,0,0,0,194,253.49Zm-.74-4.48a.41.41,0,0,1-.3-.09.4.4,0,0,1-.09-.27v-.09a.4.4,0,0,1,.09-.27.5.5,0,0,1,.6,0,.4.4,0,0,1,.09.27v.09a.4.4,0,0,1-.09.27A.41.41,0,0,1,193.21,249Zm1.49,0a.41.41,0,0,1-.3-.09.41.41,0,0,1-.1-.27v-.09a.41.41,0,0,1,.1-.27.5.5,0,0,1,.6,0,.4.4,0,0,1,.09.27v.09a.4.4,0,0,1-.09.27A.41.41,0,0,1,194.7,249Z"/><path class="cls-3" d="M196.87,254v-4.13h.64v.67h0a1.28,1.28,0,0,1,.43-.56,1.18,1.18,0,0,1,.74-.2,1.28,1.28,0,0,1,1,.41,1.65,1.65,0,0,1,.37,1.16V254h-.64v-2.54c0-.75-.31-1.12-.94-1.12a1.57,1.57,0,0,0-.37,0,.86.86,0,0,0-.32.15.66.66,0,0,0-.23.24.67.67,0,0,0-.08.35V254Z"/><path class="cls-3" d="M201.41,254v-4.13h.64v.67h0a1.36,1.36,0,0,1,.43-.56,1.18,1.18,0,0,1,.74-.2,1.27,1.27,0,0,1,1,.41,1.65,1.65,0,0,1,.37,1.16V254H204v-2.54c0-.75-.31-1.12-.93-1.12a1.5,1.5,0,0,0-.37,0,1,1,0,0,0-.33.15.76.76,0,0,0-.23.24.78.78,0,0,0-.08.35V254Z"/><path class="cls-3" d="M207.51,254.05a1.89,1.89,0,0,1-.77-.15,1.55,1.55,0,0,1-.58-.43,2.14,2.14,0,0,1-.38-.68,2.79,2.79,0,0,1-.13-.9,2.71,2.71,0,0,1,.13-.88,2.09,2.09,0,0,1,.38-.69,1.55,1.55,0,0,1,.58-.43,1.89,1.89,0,0,1,.77-.15,1.69,1.69,0,0,1,1.3.56,2.09,2.09,0,0,1,.36.64,2.53,2.53,0,0,1,.12.8v.31h-3v.19a1.3,1.3,0,0,0,.09.49,1.1,1.1,0,0,0,.24.4,1,1,0,0,0,.38.26,1.21,1.21,0,0,0,.52.1,1.18,1.18,0,0,0,.68-.19,1.27,1.27,0,0,0,.45-.52l.46.33a1.58,1.58,0,0,1-.63.68A1.82,1.82,0,0,1,207.51,254.05Zm0-3.78a1.21,1.21,0,0,0-.48.09,1.12,1.12,0,0,0-.38.26,1.28,1.28,0,0,0-.24.39,1.39,1.39,0,0,0-.09.5v.06h2.28v-.09a1.25,1.25,0,0,0-.3-.88A1,1,0,0,0,207.51,250.27Z"/><path class="cls-3" d="M210.34,254v-4.13H211v.67h0a1.28,1.28,0,0,1,.43-.56,1.17,1.17,0,0,1,.73-.2,1.29,1.29,0,0,1,1,.41,1.65,1.65,0,0,1,.37,1.16V254h-.64v-2.54c0-.75-.31-1.12-.94-1.12a1.57,1.57,0,0,0-.37,0,.86.86,0,0,0-.32.15.59.59,0,0,0-.23.24.67.67,0,0,0-.08.35V254Z"/><path class="cls-3" d="M218.41,254.05a2.45,2.45,0,0,1-1.16-.25,2.68,2.68,0,0,1-.82-.72l.5-.42a2.28,2.28,0,0,0,.65.6,1.78,1.78,0,0,0,.85.2,1.29,1.29,0,0,0,.92-.29,1,1,0,0,0,.32-.76.79.79,0,0,0-.25-.62,1.77,1.77,0,0,0-.79-.34l-.45-.11a2.59,2.59,0,0,1-1.18-.53,1.29,1.29,0,0,1-.4-1,1.53,1.53,0,0,1,.14-.66,1.27,1.27,0,0,1,.38-.48,1.66,1.66,0,0,1,.58-.29,2.57,2.57,0,0,1,.75-.1,2.39,2.39,0,0,1,1.08.23,2.17,2.17,0,0,1,.77.68l-.51.37a1.82,1.82,0,0,0-.56-.51,1.67,1.67,0,0,0-.81-.18,1.43,1.43,0,0,0-.85.23.81.81,0,0,0-.31.68.74.74,0,0,0,.26.61,2.19,2.19,0,0,0,.79.32l.46.11a2.28,2.28,0,0,1,1.19.56,1.34,1.34,0,0,1,.37,1,1.73,1.73,0,0,1-.13.69,1.47,1.47,0,0,1-.38.53,1.71,1.71,0,0,1-.61.33A2.45,2.45,0,0,1,218.41,254.05Z"/><path class="cls-3" d="M221.74,248.86a.4.4,0,0,1-.3-.1.36.36,0,0,1-.09-.26v-.1a.37.37,0,0,1,.09-.26.4.4,0,0,1,.3-.1.38.38,0,0,1,.3.1.34.34,0,0,1,.1.26v.1a.33.33,0,0,1-.1.26A.38.38,0,0,1,221.74,248.86Zm-.32,1h.64V254h-.64Z"/><path class="cls-3" d="M225,254.05a1.89,1.89,0,0,1-.77-.15,1.63,1.63,0,0,1-.58-.43,2.14,2.14,0,0,1-.38-.68,2.79,2.79,0,0,1-.13-.9,2.71,2.71,0,0,1,.13-.88,2.09,2.09,0,0,1,.38-.69,1.63,1.63,0,0,1,.58-.43,1.89,1.89,0,0,1,.77-.15,1.69,1.69,0,0,1,1.3.56,2.09,2.09,0,0,1,.36.64,2.53,2.53,0,0,1,.12.8v.31h-3v.19a1.3,1.3,0,0,0,.09.49,1.1,1.1,0,0,0,.24.4,1,1,0,0,0,.38.26,1.21,1.21,0,0,0,.52.1,1.18,1.18,0,0,0,.68-.19,1.27,1.27,0,0,0,.45-.52l.46.33a1.58,1.58,0,0,1-.63.68A1.8,1.8,0,0,1,225,254.05Zm0-3.78a1.21,1.21,0,0,0-.48.09,1.12,1.12,0,0,0-.38.26,1.28,1.28,0,0,0-.24.39,1.39,1.39,0,0,0-.09.5v.06h2.28v-.09a1.25,1.25,0,0,0-.3-.88A1,1,0,0,0,225,250.27Z"/><path class="cls-3" d="M69.68,263.65a1.91,1.91,0,0,1-1-.22,2.18,2.18,0,0,1-.67-.58l.46-.37A1.83,1.83,0,0,0,69,263a1.34,1.34,0,0,0,.68.16,1,1,0,0,0,.64-.18.58.58,0,0,0,.23-.49.56.56,0,0,0-.16-.41.89.89,0,0,0-.56-.24l-.33-.05a2.75,2.75,0,0,1-.53-.12,1.42,1.42,0,0,1-.42-.23.93.93,0,0,1-.28-.34,1.12,1.12,0,0,1-.1-.5,1.25,1.25,0,0,1,.11-.53,1.15,1.15,0,0,1,.31-.38,1.38,1.38,0,0,1,.47-.23,2.2,2.2,0,0,1,.58-.07,1.82,1.82,0,0,1,.85.17,2,2,0,0,1,.59.49l-.42.38a1.41,1.41,0,0,0-.4-.35,1.34,1.34,0,0,0-.66-.15,1,1,0,0,0-.61.17.6.6,0,0,0-.2.47.5.5,0,0,0,.2.44,1.5,1.5,0,0,0,.59.2l.32,0a1.79,1.79,0,0,1,1,.39,1.06,1.06,0,0,1,.28.77,1.16,1.16,0,0,1-.4.94A1.7,1.7,0,0,1,69.68,263.65Z"/><path class="cls-3" d="M72.65,258.46a.38.38,0,0,1-.3-.1.36.36,0,0,1-.09-.26V258a.39.39,0,1,1,.78,0v.1a.36.36,0,0,1-.09.26A.38.38,0,0,1,72.65,258.46Zm-.32,1H73v4.13h-.64Z"/><path class="cls-3" d="M75.87,263.65a1.94,1.94,0,0,1-.78-.15,1.55,1.55,0,0,1-.58-.43,1.84,1.84,0,0,1-.36-.68,3.4,3.4,0,0,1,0-1.79,1.84,1.84,0,0,1,.36-.68,1.55,1.55,0,0,1,.58-.43,1.94,1.94,0,0,1,.78-.15,1.5,1.5,0,0,1,1.54,1l-.53.27a1,1,0,0,0-.37-.49,1.1,1.1,0,0,0-.64-.18,1.36,1.36,0,0,0-.51.09,1.19,1.19,0,0,0-.36.26,1.22,1.22,0,0,0-.21.39,1.63,1.63,0,0,0-.07.5v.71a1.31,1.31,0,0,0,.29.89,1.06,1.06,0,0,0,.86.35,1.17,1.17,0,0,0,1.12-.72l.46.31a1.64,1.64,0,0,1-.59.71A1.74,1.74,0,0,1,75.87,263.65Z"/><path class="cls-3" d="M78.36,257.64H79v2.45h0a1.31,1.31,0,0,1,.43-.55,1.18,1.18,0,0,1,.74-.2,1.28,1.28,0,0,1,1,.41,1.65,1.65,0,0,1,.37,1.16v2.65h-.64V261c0-.75-.31-1.12-.94-1.12a1.57,1.57,0,0,0-.37.05,1,1,0,0,0-.32.14.78.78,0,0,0-.23.25.65.65,0,0,0-.08.35v2.87h-.64Z"/><path class="cls-3" d="M84.59,263.56V263h.78v-4.47h-.78V258h2.24v.56H86V263h.79v.56Z"/><path class="cls-3" d="M88,257.64h.64v2.45h0a1.31,1.31,0,0,1,.43-.55,1.18,1.18,0,0,1,.74-.2,1.28,1.28,0,0,1,1,.41,1.65,1.65,0,0,1,.37,1.16v2.65h-.64V261c0-.75-.31-1.12-.93-1.12a1.58,1.58,0,0,0-.38.05,1.15,1.15,0,0,0-.32.14.78.78,0,0,0-.23.25.75.75,0,0,0-.08.35v2.87H88Z"/><path class="cls-3" d="M92.53,263.56v-4.13h.64v.76h0a1.33,1.33,0,0,1,.4-.53,1.26,1.26,0,0,1,.79-.23h.25v.64h-.37a1.48,1.48,0,0,0-.82.2.58.58,0,0,0-.29.49v2.8Z"/><path class="cls-3" d="M97,263.65a1.89,1.89,0,0,1-.77-.15,1.63,1.63,0,0,1-.58-.43,2.14,2.14,0,0,1-.38-.68,3.1,3.1,0,0,1-.13-.9,3,3,0,0,1,.13-.88,2.09,2.09,0,0,1,.38-.69,1.63,1.63,0,0,1,.58-.43,1.89,1.89,0,0,1,.77-.15,1.63,1.63,0,0,1,.74.15,1.66,1.66,0,0,1,.56.41,1.9,1.9,0,0,1,.36.64,2.53,2.53,0,0,1,.12.8v.31h-3v.19a1.33,1.33,0,0,0,.09.49,1.1,1.1,0,0,0,.24.4,1,1,0,0,0,.38.26,1.42,1.42,0,0,0,.52.1,1.18,1.18,0,0,0,.68-.19,1.14,1.14,0,0,0,.45-.52l.46.33a1.56,1.56,0,0,1-.62.68A1.85,1.85,0,0,1,97,263.65Zm0-3.78a1.21,1.21,0,0,0-.48.09,1,1,0,0,0-.37.26,1.14,1.14,0,0,0-.25.39,1.35,1.35,0,0,0-.09.5v.06h2.28v-.09a1.25,1.25,0,0,0-.3-.88A1,1,0,0,0,97,259.87Z"/><path class="cls-3" d="M105.39,263.56h-4.07V263l3.23-4.38h-3.06V258h3.79v.61L102,263h3.35Z"/><path class="cls-3" d="M108.86,262.89h0l-.16.29a1,1,0,0,1-.23.24,1.09,1.09,0,0,1-.32.17,1.53,1.53,0,0,1-.45.06,1.29,1.29,0,0,1-1-.41,1.65,1.65,0,0,1-.37-1.16v-2.65h.64V262c0,.74.31,1.12.94,1.12a1.5,1.5,0,0,0,.37,0,.86.86,0,0,0,.32-.15.76.76,0,0,0,.23-.24.8.8,0,0,0,.08-.36v-2.86h.64v4.13h-.64Z"/><path class="cls-3" d="M112.1,263.65a1.87,1.87,0,0,1-1-.22,2.07,2.07,0,0,1-.67-.58l.45-.37a1.83,1.83,0,0,0,.54.47,1.41,1.41,0,0,0,.69.16,1,1,0,0,0,.63-.18.62.62,0,0,0,.07-.9.89.89,0,0,0-.56-.24l-.33-.05a2.64,2.64,0,0,1-.52-.12,1.42,1.42,0,0,1-.42-.23.77.77,0,0,1-.28-.34,1.32,1.32,0,0,1,0-1,1,1,0,0,1,.31-.38,1.33,1.33,0,0,1,.46-.23,2.22,2.22,0,0,1,.59-.07,1.8,1.8,0,0,1,.84.17,1.88,1.88,0,0,1,.6.49l-.43.38a1.41,1.41,0,0,0-.4-.35,1.29,1.29,0,0,0-.66-.15.91.91,0,0,0-.6.17.58.58,0,0,0-.21.47.49.49,0,0,0,.21.44,1.45,1.45,0,0,0,.58.2l.32,0a1.76,1.76,0,0,1,1,.39,1.06,1.06,0,0,1,.29.77,1.17,1.17,0,0,1-.41.94A1.68,1.68,0,0,1,112.1,263.65Z"/><path class="cls-3" d="M117.76,263.56a.66.66,0,0,1-.52-.19,1,1,0,0,1-.2-.48h0a1.07,1.07,0,0,1-.44.57,1.39,1.39,0,0,1-.75.19,1.46,1.46,0,0,1-1-.33,1.2,1.2,0,0,1-.36-.91,1.06,1.06,0,0,1,.42-.9,2.29,2.29,0,0,1,1.34-.31H117v-.41a.89.89,0,0,0-.24-.67,1,1,0,0,0-.73-.23,1.14,1.14,0,0,0-.63.16,1.51,1.51,0,0,0-.42.45l-.38-.36a1.51,1.51,0,0,1,.53-.57,1.69,1.69,0,0,1,.93-.23,1.74,1.74,0,0,1,1.17.36,1.33,1.33,0,0,1,.41,1V263h.48v.57Zm-1.84-.45a1.44,1.44,0,0,0,.43-.06.94.94,0,0,0,.35-.16.56.56,0,0,0,.22-.24.49.49,0,0,0,.08-.29v-.68h-.84a1.54,1.54,0,0,0-.81.16.51.51,0,0,0-.25.46v.17a.55.55,0,0,0,.22.47A1,1,0,0,0,115.92,263.11Z"/><path class="cls-3" d="M119,263.56v-4.13h.64v.66h0a2.69,2.69,0,0,1,.16-.29,1,1,0,0,1,.23-.24,1.11,1.11,0,0,1,.3-.17,1.34,1.34,0,0,1,.42-.05,1.49,1.49,0,0,1,.75.19,1.21,1.21,0,0,1,.52.64h0a1.4,1.4,0,0,1,.42-.59,1.35,1.35,0,0,1,.84-.24,1.19,1.19,0,0,1,1,.41,1.7,1.7,0,0,1,.36,1.16v2.65h-.64V261a1.34,1.34,0,0,0-.22-.84.82.82,0,0,0-.68-.28,1.5,1.5,0,0,0-.37.05,1,1,0,0,0-.3.14.65.65,0,0,0-.22.25.75.75,0,0,0-.08.35v2.87h-.64V261a1.34,1.34,0,0,0-.22-.84.8.8,0,0,0-.67-.28,1.5,1.5,0,0,0-.37.05,1.09,1.09,0,0,0-.31.14.88.88,0,0,0-.22.25.75.75,0,0,0-.08.35v2.87Z"/><path class="cls-3" d="M126,263.56v-4.13h.64v.66h0a2.75,2.75,0,0,1,.17-.29,1,1,0,0,1,.22-.24,1,1,0,0,1,.31-.17,1.32,1.32,0,0,1,.41-.05,1.51,1.51,0,0,1,.76.19,1.15,1.15,0,0,1,.51.64h0a1.25,1.25,0,0,1,.42-.59,1.3,1.3,0,0,1,.83-.24,1.23,1.23,0,0,1,1,.41,1.7,1.7,0,0,1,.36,1.16v2.65H131V261a1.4,1.4,0,0,0-.22-.84.83.83,0,0,0-.69-.28,1.36,1.36,0,0,0-.36.05,1,1,0,0,0-.31.14.88.88,0,0,0-.22.25.75.75,0,0,0-.08.35v2.87h-.64V261a1.41,1.41,0,0,0-.21-.84.82.82,0,0,0-.67-.28,1.44,1.44,0,0,0-.37.05,1,1,0,0,0-.31.14.78.78,0,0,0-.23.25.75.75,0,0,0-.08.35v2.87Z"/><path class="cls-3" d="M134.55,263.65a1.89,1.89,0,0,1-.77-.15,1.63,1.63,0,0,1-.58-.43,2.14,2.14,0,0,1-.38-.68,2.79,2.79,0,0,1-.13-.9,2.71,2.71,0,0,1,.13-.88,2.09,2.09,0,0,1,.38-.69,1.63,1.63,0,0,1,.58-.43,1.89,1.89,0,0,1,.77-.15,1.63,1.63,0,0,1,.74.15,1.66,1.66,0,0,1,.56.41,1.9,1.9,0,0,1,.36.64,2.53,2.53,0,0,1,.12.8v.31h-3v.19a1.33,1.33,0,0,0,.09.49,1.1,1.1,0,0,0,.24.4,1,1,0,0,0,.38.26,1.38,1.38,0,0,0,.52.1,1.18,1.18,0,0,0,.68-.19,1.14,1.14,0,0,0,.45-.52l.46.33a1.56,1.56,0,0,1-.62.68A1.85,1.85,0,0,1,134.55,263.65Zm0-3.78a1.21,1.21,0,0,0-.48.09,1.12,1.12,0,0,0-.38.26,1.28,1.28,0,0,0-.24.39,1.35,1.35,0,0,0-.09.5v.06h2.28v-.09a1.25,1.25,0,0,0-.3-.88A1,1,0,0,0,134.55,259.87Z"/><path class="cls-3" d="M137.39,263.56v-4.13H138v.66h0a1.31,1.31,0,0,1,.43-.55,1.18,1.18,0,0,1,.74-.2,1.28,1.28,0,0,1,1,.41,1.65,1.65,0,0,1,.37,1.16v2.65H140V261c0-.75-.31-1.12-.93-1.12a1.58,1.58,0,0,0-.38.05,1.15,1.15,0,0,0-.32.14.78.78,0,0,0-.23.25.75.75,0,0,0-.08.35v2.87Z"/><path class="cls-3" d="M142.15,260h-.67v-.57h.67v-.83a1.05,1.05,0,0,1,.23-.7.85.85,0,0,1,.68-.26h.62v.57h-.89v1.22h.89V260h-.89v3.56h-.64Z"/><path class="cls-3" d="M147.52,263.56a.63.63,0,0,1-.51-.19,1,1,0,0,1-.2-.48h0a1,1,0,0,1-.45.57,1.36,1.36,0,0,1-.74.19,1.46,1.46,0,0,1-1-.33,1.2,1.2,0,0,1-.37-.91,1.07,1.07,0,0,1,.43-.9,2.27,2.27,0,0,1,1.33-.31h.82v-.41a.89.89,0,0,0-.24-.67,1,1,0,0,0-.74-.23,1.08,1.08,0,0,0-.62.16,1.51,1.51,0,0,0-.42.45l-.39-.36a1.46,1.46,0,0,1,.54-.57,1.65,1.65,0,0,1,.93-.23,1.7,1.7,0,0,1,1.16.36,1.3,1.3,0,0,1,.42,1V263h.47v.57Zm-1.84-.45a1.51,1.51,0,0,0,.44-.06.94.94,0,0,0,.35-.16.64.64,0,0,0,.22-.24.57.57,0,0,0,.08-.29v-.68h-.85a1.5,1.5,0,0,0-.8.16.51.51,0,0,0-.25.46v.17a.55.55,0,0,0,.22.47A.94.94,0,0,0,145.68,263.11Z"/><path class="cls-3" d="M150,263.65a1.89,1.89,0,0,1-1-.22,2.18,2.18,0,0,1-.67-.58l.46-.37a1.93,1.93,0,0,0,.53.47,1.41,1.41,0,0,0,.69.16,1,1,0,0,0,.64-.18.58.58,0,0,0,.23-.49.6.6,0,0,0-.16-.41.89.89,0,0,0-.56-.24l-.33-.05a2.75,2.75,0,0,1-.53-.12,1.42,1.42,0,0,1-.42-.23.93.93,0,0,1-.28-.34,1.12,1.12,0,0,1-.1-.5,1.25,1.25,0,0,1,.11-.53,1.15,1.15,0,0,1,.31-.38,1.38,1.38,0,0,1,.47-.23,2.15,2.15,0,0,1,.58-.07,1.82,1.82,0,0,1,.85.17,2,2,0,0,1,.59.49l-.42.38a1.57,1.57,0,0,0-.4-.35,1.36,1.36,0,0,0-.67-.15,1,1,0,0,0-.6.17.57.57,0,0,0-.2.47.48.48,0,0,0,.2.44,1.5,1.5,0,0,0,.59.2l.32,0a1.72,1.72,0,0,1,1,.39,1,1,0,0,1,.29.77,1.14,1.14,0,0,1-.41.94A1.67,1.67,0,0,1,150,263.65Z"/><path class="cls-3" d="M153.89,263.65a1.89,1.89,0,0,1-1-.22,2.18,2.18,0,0,1-.67-.58l.45-.37a1.83,1.83,0,0,0,.54.47,1.41,1.41,0,0,0,.69.16,1,1,0,0,0,.63-.18.56.56,0,0,0,.23-.49.59.59,0,0,0-.15-.41,1,1,0,0,0-.57-.24l-.33-.05a2.64,2.64,0,0,1-.52-.12,1.42,1.42,0,0,1-.42-.23.84.84,0,0,1-.28-.34,1.32,1.32,0,0,1,0-1,1,1,0,0,1,.31-.38,1.33,1.33,0,0,1,.46-.23,2.27,2.27,0,0,1,.59-.07,1.77,1.77,0,0,1,.84.17,1.88,1.88,0,0,1,.6.49l-.43.38a1.41,1.41,0,0,0-.4-.35,1.29,1.29,0,0,0-.66-.15.91.91,0,0,0-.6.17.58.58,0,0,0-.21.47.49.49,0,0,0,.21.44,1.45,1.45,0,0,0,.58.2l.32,0a1.76,1.76,0,0,1,1,.39,1.06,1.06,0,0,1,.29.77,1.17,1.17,0,0,1-.41.94A1.67,1.67,0,0,1,153.89,263.65Z"/><path class="cls-3" d="M159.09,262.89h0a2.09,2.09,0,0,1-.16.29.87.87,0,0,1-.23.24,1.09,1.09,0,0,1-.32.17,1.53,1.53,0,0,1-.45.06,1.29,1.29,0,0,1-1-.41,1.65,1.65,0,0,1-.37-1.16v-2.65h.64V262c0,.74.31,1.12.94,1.12a1.5,1.5,0,0,0,.37,0,.86.86,0,0,0,.32-.15.66.66,0,0,0,.23-.24.8.8,0,0,0,.08-.36v-2.86h.64v4.13h-.64Z"/><path class="cls-3" d="M161.09,263.56v-4.13h.64v.66h0a1.39,1.39,0,0,1,.43-.55,1.18,1.18,0,0,1,.74-.2,1.27,1.27,0,0,1,1,.41,1.65,1.65,0,0,1,.37,1.16v2.65h-.64V261c0-.75-.31-1.12-.93-1.12a1.5,1.5,0,0,0-.37.05,1.22,1.22,0,0,0-.33.14.92.92,0,0,0-.23.25.75.75,0,0,0-.08.35v2.87Z"/><path class="cls-3" d="M169.11,264a1,1,0,0,1-.5.94,3,3,0,0,1-1.5.3,2.72,2.72,0,0,1-1.39-.27.84.84,0,0,1-.42-.75.76.76,0,0,1,.17-.52,1,1,0,0,1,.48-.28v-.09a.58.58,0,0,1-.36-.57.54.54,0,0,1,.2-.47,1.35,1.35,0,0,1,.51-.25v0a1.33,1.33,0,0,1-.57-.5,1.41,1.41,0,0,1-.21-.77,1.48,1.48,0,0,1,.11-.57,1.36,1.36,0,0,1,.32-.46,1.59,1.59,0,0,1,.49-.29,1.81,1.81,0,0,1,.63-.1,2,2,0,0,1,.79.15v-.07a.72.72,0,0,1,.11-.4.45.45,0,0,1,.37-.16H169v.57h-.78v.27a1.23,1.23,0,0,1,.35.46,1.46,1.46,0,0,1,.12.6,1.58,1.58,0,0,1-.11.58,1.12,1.12,0,0,1-.32.45,1.35,1.35,0,0,1-.49.3,1.83,1.83,0,0,1-.64.1,1.87,1.87,0,0,1-.4,0,1.38,1.38,0,0,0-.37.16.34.34,0,0,0-.17.3.24.24,0,0,0,.17.25,1.2,1.2,0,0,0,.46.07h.88a1.73,1.73,0,0,1,1.12.29A1,1,0,0,1,169.11,264Zm-.6,0a.48.48,0,0,0-.18-.39,1.12,1.12,0,0,0-.67-.15h-1.38a.59.59,0,0,0-.38.56.61.61,0,0,0,.2.46,1,1,0,0,0,.69.19h.6a1.75,1.75,0,0,0,.83-.16A.54.54,0,0,0,168.51,264.06Zm-1.43-2.38a1,1,0,0,0,.65-.2.73.73,0,0,0,.24-.6v-.23a.75.75,0,0,0-.24-.61,1.21,1.21,0,0,0-1.3,0,.75.75,0,0,0-.24.61v.23a.73.73,0,0,0,.24.6A1,1,0,0,0,167.08,261.68Z"/><path class="cls-3" d="M171.75,263.56v-4.13h.64v.66h0a1.31,1.31,0,0,1,.43-.55,1.18,1.18,0,0,1,.74-.2,1.28,1.28,0,0,1,1,.41,1.65,1.65,0,0,1,.37,1.16v2.65h-.64V261c0-.75-.31-1.12-.94-1.12a1.57,1.57,0,0,0-.37.05,1,1,0,0,0-.32.14.78.78,0,0,0-.23.25.75.75,0,0,0-.08.35v2.87Z"/><path class="cls-3" d="M177.85,263.65a1.87,1.87,0,0,1-.76-.15,1.66,1.66,0,0,1-.59-.43,2.14,2.14,0,0,1-.38-.68,2.79,2.79,0,0,1-.13-.9,2.71,2.71,0,0,1,.13-.88,2.09,2.09,0,0,1,.38-.69,1.66,1.66,0,0,1,.59-.43,2,2,0,0,1,1.52,0,1.63,1.63,0,0,1,.58.43,1.94,1.94,0,0,1,.39.69,2.71,2.71,0,0,1,.13.88,2.79,2.79,0,0,1-.13.9,2,2,0,0,1-.39.68,1.63,1.63,0,0,1-.58.43A1.87,1.87,0,0,1,177.85,263.65Zm0-.56a1.18,1.18,0,0,0,.85-.32,1.32,1.32,0,0,0,.33-1v-.59a1.32,1.32,0,0,0-.33-1,1.29,1.29,0,0,0-1.7,0,1.32,1.32,0,0,0-.33,1v.59a1.32,1.32,0,0,0,.33,1A1.18,1.18,0,0,0,177.85,263.09Z"/><path class="cls-3" d="M182.31,263.65a1.94,1.94,0,0,1-.78-.15,1.55,1.55,0,0,1-.58-.43,1.84,1.84,0,0,1-.36-.68,3.4,3.4,0,0,1,0-1.79,1.84,1.84,0,0,1,.36-.68,1.55,1.55,0,0,1,.58-.43,1.94,1.94,0,0,1,.78-.15,1.53,1.53,0,0,1,1.54,1l-.54.27a1,1,0,0,0-.36-.49,1.1,1.1,0,0,0-.64-.18,1.33,1.33,0,0,0-.51.09,1.19,1.19,0,0,0-.36.26,1,1,0,0,0-.21.39,1.64,1.64,0,0,0-.08.5v.71a1.31,1.31,0,0,0,.3.89,1.06,1.06,0,0,0,.86.35,1.17,1.17,0,0,0,1.12-.72l.46.31a1.6,1.6,0,0,1-.6.71A1.69,1.69,0,0,1,182.31,263.65Z"/><path class="cls-3" d="M184.79,257.64h.64v2.45h0a1.49,1.49,0,0,1,.43-.55,1.2,1.2,0,0,1,.74-.2,1.29,1.29,0,0,1,1,.41,1.7,1.7,0,0,1,.37,1.16v2.65h-.64V261c0-.75-.31-1.12-.94-1.12a1.5,1.5,0,0,0-.37.05,1,1,0,0,0-.32.14.68.68,0,0,0-.23.25.65.65,0,0,0-.09.35v2.87h-.64Z"/><path class="cls-3" d="M189.34,263.56v-4.13H190v.66h0a2.69,2.69,0,0,1,.16-.29,1,1,0,0,1,.23-.24,1,1,0,0,1,.31-.17,1.24,1.24,0,0,1,.41-.05,1.49,1.49,0,0,1,.75.19,1.15,1.15,0,0,1,.51.64h0a1.4,1.4,0,0,1,.42-.59,1.35,1.35,0,0,1,.84-.24,1.23,1.23,0,0,1,1,.41,1.75,1.75,0,0,1,.35,1.16v2.65h-.64V261a1.41,1.41,0,0,0-.21-.84.85.85,0,0,0-.69-.28,1.5,1.5,0,0,0-.37.05,1,1,0,0,0-.3.14.65.65,0,0,0-.22.25.75.75,0,0,0-.08.35v2.87h-.64V261a1.34,1.34,0,0,0-.22-.84.8.8,0,0,0-.67-.28,1.5,1.5,0,0,0-.37.05,1.09,1.09,0,0,0-.31.14.88.88,0,0,0-.22.25.65.65,0,0,0-.08.35v2.87Z"/><path class="cls-3" d="M199.32,263.56a.67.67,0,0,1-.52-.19.94.94,0,0,1-.19-.48h0a1,1,0,0,1-.45.57,1.36,1.36,0,0,1-.74.19,1.46,1.46,0,0,1-1-.33,1.17,1.17,0,0,1-.37-.91,1,1,0,0,1,.43-.9,2.27,2.27,0,0,1,1.33-.31h.82v-.41a.89.89,0,0,0-.24-.67,1,1,0,0,0-.74-.23,1.14,1.14,0,0,0-.63.16,1.81,1.81,0,0,0-.42.45l-.38-.36a1.46,1.46,0,0,1,.54-.57,1.63,1.63,0,0,1,.92-.23,1.71,1.71,0,0,1,1.17.36,1.3,1.3,0,0,1,.42,1V263h.47v.57Zm-1.84-.45a1.51,1.51,0,0,0,.44-.06.89.89,0,0,0,.34-.16.59.59,0,0,0,.23-.24.57.57,0,0,0,.08-.29v-.68h-.85a1.48,1.48,0,0,0-.8.16.51.51,0,0,0-.25.46v.17a.57.57,0,0,0,.21.47A1,1,0,0,0,197.48,263.11Z"/><path class="cls-3" d="M201.27,263.56a.66.66,0,0,1-.51-.19.69.69,0,0,1-.17-.48v-5.25h.64V263h.61v.57Z"/><path class="cls-3" d="M207.66,263.56a.66.66,0,0,1-.52-.19,1,1,0,0,1-.2-.48h0a1.07,1.07,0,0,1-.44.57,1.39,1.39,0,0,1-.75.19,1.46,1.46,0,0,1-1-.33,1.2,1.2,0,0,1-.36-.91,1,1,0,0,1,.43-.9,2.23,2.23,0,0,1,1.33-.31h.81v-.41a.89.89,0,0,0-.24-.67,1,1,0,0,0-.73-.23,1.14,1.14,0,0,0-.63.16,1.51,1.51,0,0,0-.42.45l-.38-.36a1.51,1.51,0,0,1,.53-.57,1.69,1.69,0,0,1,.93-.23,1.74,1.74,0,0,1,1.17.36,1.29,1.29,0,0,1,.41,1V263H208v.57Zm-1.84-.45a1.56,1.56,0,0,0,.44-.06,1,1,0,0,0,.34-.16.56.56,0,0,0,.22-.24.49.49,0,0,0,.08-.29v-.68h-.84a1.54,1.54,0,0,0-.81.16.51.51,0,0,0-.25.46v.17a.55.55,0,0,0,.22.47A1,1,0,0,0,205.82,263.11Z"/><path class="cls-3" d="M208.93,263.56v-4.13h.64v.66h0a1.31,1.31,0,0,1,.43-.55,1.18,1.18,0,0,1,.74-.2,1.28,1.28,0,0,1,1,.41,1.65,1.65,0,0,1,.37,1.16v2.65h-.64V261c0-.75-.31-1.12-.93-1.12a1.58,1.58,0,0,0-.38.05,1.15,1.15,0,0,0-.32.14.78.78,0,0,0-.23.25.75.75,0,0,0-.08.35v2.87Z"/><path class="cls-3" d="M214.71,263.65a1.89,1.89,0,0,1-1-.22,2.18,2.18,0,0,1-.67-.58l.46-.37a1.8,1.8,0,0,0,.53.47,1.41,1.41,0,0,0,.69.16,1,1,0,0,0,.64-.18.57.57,0,0,0,.22-.49.59.59,0,0,0-.15-.41.92.92,0,0,0-.57-.24l-.32-.05a2.59,2.59,0,0,1-.53-.12,1.42,1.42,0,0,1-.42-.23.93.93,0,0,1-.28-.34,1.12,1.12,0,0,1-.1-.5,1.25,1.25,0,0,1,.11-.53,1,1,0,0,1,.31-.38,1.38,1.38,0,0,1,.47-.23,2.15,2.15,0,0,1,.58-.07,1.75,1.75,0,0,1,.84.17,1.88,1.88,0,0,1,.6.49l-.42.38a1.57,1.57,0,0,0-.4-.35,1.36,1.36,0,0,0-.67-.15.93.93,0,0,0-.6.17.58.58,0,0,0-.21.47.49.49,0,0,0,.21.44,1.45,1.45,0,0,0,.59.2l.32,0a1.75,1.75,0,0,1,1,.39,1.06,1.06,0,0,1,.29.77,1.17,1.17,0,0,1-.41.94A1.67,1.67,0,0,1,214.71,263.65Z"/><path class="cls-3" d="M218.92,263.65a1.84,1.84,0,0,1-.76-.15,1.58,1.58,0,0,1-.59-.43,1.94,1.94,0,0,1-.37-.68,2.79,2.79,0,0,1-.14-.9,2.71,2.71,0,0,1,.14-.88,1.91,1.91,0,0,1,.37-.69,1.58,1.58,0,0,1,.59-.43,1.84,1.84,0,0,1,.76-.15,1.61,1.61,0,0,1,.74.15,1.66,1.66,0,0,1,.56.41,1.75,1.75,0,0,1,.36.64,2.53,2.53,0,0,1,.12.8v.31h-3v.19a1.33,1.33,0,0,0,.08.49,1.47,1.47,0,0,0,.24.4,1,1,0,0,0,.38.26,1.46,1.46,0,0,0,.52.1,1.18,1.18,0,0,0,.68-.19,1.23,1.23,0,0,0,.46-.52l.45.33a1.56,1.56,0,0,1-.62.68A1.85,1.85,0,0,1,218.92,263.65Zm0-3.78a1.21,1.21,0,0,0-.48.09,1.08,1.08,0,0,0-.37.26,1.14,1.14,0,0,0-.25.39,1.35,1.35,0,0,0-.08.5v.06H220v-.09a1.25,1.25,0,0,0-.3-.88A1,1,0,0,0,218.92,259.87Z"/><path class="cls-3" d="M221.76,257.64h.64v2.45h0a1.31,1.31,0,0,1,.43-.55,1.18,1.18,0,0,1,.74-.2,1.27,1.27,0,0,1,1,.41,1.65,1.65,0,0,1,.37,1.16v2.65h-.64V261c0-.75-.31-1.12-.93-1.12a1.5,1.5,0,0,0-.37.05,1.22,1.22,0,0,0-.33.14.92.92,0,0,0-.23.25.75.75,0,0,0-.08.35v2.87h-.64Z"/><path class="cls-3" d="M227.86,263.65a1.89,1.89,0,0,1-.77-.15,1.55,1.55,0,0,1-.58-.43,2,2,0,0,1-.38-.68,2.79,2.79,0,0,1-.13-.9,2.71,2.71,0,0,1,.13-.88,1.92,1.92,0,0,1,.38-.69,1.55,1.55,0,0,1,.58-.43,1.89,1.89,0,0,1,.77-.15,1.63,1.63,0,0,1,.74.15,1.76,1.76,0,0,1,.56.41,1.88,1.88,0,0,1,.35.64,2.28,2.28,0,0,1,.13.8v.31h-3v.19a1.57,1.57,0,0,0,.08.49,1.28,1.28,0,0,0,.25.4,1,1,0,0,0,.38.26,1.38,1.38,0,0,0,.52.1,1.2,1.2,0,0,0,.68-.19,1.27,1.27,0,0,0,.45-.52l.46.33a1.58,1.58,0,0,1-.63.68A1.82,1.82,0,0,1,227.86,263.65Zm0-3.78a1.3,1.3,0,0,0-.49.09,1.18,1.18,0,0,0-.37.26,1.28,1.28,0,0,0-.24.39,1.35,1.35,0,0,0-.09.5v.06H229v-.09a1.25,1.25,0,0,0-.3-.88A1,1,0,0,0,227.86,259.87Z"/><path class="cls-3" d="M230.69,263.56v-4.13h.64v.66h0a1.37,1.37,0,0,1,.42-.55,1.22,1.22,0,0,1,.74-.2,1.29,1.29,0,0,1,1,.41,1.7,1.7,0,0,1,.37,1.16v2.65h-.64V261c0-.75-.31-1.12-.94-1.12a1.5,1.5,0,0,0-.37.05,1,1,0,0,0-.32.14.68.68,0,0,0-.23.25.65.65,0,0,0-.09.35v2.87Z"/><path class="cls-3" d="M235.65,263.65a.52.52,0,0,1-.38-.12.53.53,0,0,1-.11-.34v-.1a.53.53,0,0,1,.11-.34.53.53,0,0,1,.38-.13.5.5,0,0,1,.37.13.48.48,0,0,1,.11.34v.1a.48.48,0,0,1-.11.34A.5.5,0,0,1,235.65,263.65Z"/><path class="cls-5" d="M244.3,284.58V141c0-.24-.27-23.68-23.68-23.68H84.56c-.24,0-23.68.27-23.68,23.68V284.45"/></g></svg>