<svg xmlns="http://www.w3.org/2000/svg" xmlns:xlink="http://www.w3.org/1999/xlink" viewBox="0 0 305.62 305.62"><defs><style>.cls-1,.cls-2,.cls-3{fill:none;}.cls-2{stroke:#fff;stroke-width:1.25px;}.cls-2,.cls-3{stroke-miterlimit:10;}.cls-3{stroke:#000;stroke-width:0.25px;}.cls-4{fill:#2780bb;}.cls-5{clip-path:url(#clip-path);}.cls-6{fill:#e2001a;}.cls-7{fill:#2699d1;}.cls-8{fill:#1a171b;}</style><clipPath id="clip-path"><rect class="cls-1" x="5.8" y="1.47" width="292.96" height="275.52"/></clipPath></defs><title>feedback_energieverkehr_front</title><g id="Ebene_2" data-name="Ebene 2"><path class="cls-2" d="M284.62,290.62v15m0-290.62V0M21,290.62v15M21,15V0M290.62,284.62h15M15,284.62H0M290.62,21h15M15,21H0"/><path class="cls-3" d="M284.62,290.62v15m0-290.62V0M21,290.62v15M21,15V0M290.62,284.62h15M15,284.62H0M290.62,21h15M15,21H0"/></g><g id="Ebene_1" data-name="Ebene 1"><path class="cls-4" d="M105.78,62.17V47.27h10.14v2.88H109v3h5.91v2.88H109v3.23h6.89v2.88Z"/><path class="cls-4" d="M118.57,62.17V51h3.16v1.9h.12a3.4,3.4,0,0,1,1.05-1.51,3.59,3.59,0,0,1,4.68.51,5.3,5.3,0,0,1,.89,3.29v7h-3.16V55.4a3,3,0,0,0-.34-1.61,1.34,1.34,0,0,0-1.22-.52,3.06,3.06,0,0,0-.74.09,2.11,2.11,0,0,0-.66.31,1.63,1.63,0,0,0-.45.53,1.36,1.36,0,0,0-.17.71v7.26Z"/><path class="cls-4" d="M136,62.42a6.07,6.07,0,0,1-2.29-.41A4.73,4.73,0,0,1,132,60.83a5,5,0,0,1-1-1.84,8.08,8.08,0,0,1-.35-2.44,7.86,7.86,0,0,1,.34-2.4,5.07,5.07,0,0,1,1-1.84,4.52,4.52,0,0,1,1.65-1.19,5.85,5.85,0,0,1,2.24-.41,5.43,5.43,0,0,1,2.38.47,4.43,4.43,0,0,1,1.62,1.26,5,5,0,0,1,.92,1.82,8.12,8.12,0,0,1,.29,2.17v.94h-7.19v.16a2.5,2.5,0,0,0,.59,1.75,2.46,2.46,0,0,0,1.88.65,2.85,2.85,0,0,0,1.6-.4,6.37,6.37,0,0,0,1.16-.94l1.57,2a4.91,4.91,0,0,1-2,1.37A7.16,7.16,0,0,1,136,62.42ZM135.9,53a1.88,1.88,0,0,0-1.51.63,2.49,2.49,0,0,0-.54,1.68v.17h3.92v-.19a2.72,2.72,0,0,0-.46-1.66A1.63,1.63,0,0,0,135.9,53Z"/><path class="cls-4" d="M143.28,62.17V51h3.16V53.4h.1a3.6,3.6,0,0,1,.3-.91,2.7,2.7,0,0,1,.57-.78,2.43,2.43,0,0,1,.84-.54A2.91,2.91,0,0,1,149.4,51H150v2.95h-.79a4.52,4.52,0,0,0-2.06.36,1.39,1.39,0,0,0-.67,1.35v6.55Z"/><path class="cls-4" d="M162,63a3.78,3.78,0,0,1-.31,1.58,2.78,2.78,0,0,1-1,1.16,5.33,5.33,0,0,1-1.87.73,14.44,14.44,0,0,1-2.87.24,14.24,14.24,0,0,1-2.46-.18,5.75,5.75,0,0,1-1.65-.51,2.27,2.27,0,0,1-.91-.81,2,2,0,0,1-.29-1.1,2,2,0,0,1,.55-1.48,2.73,2.73,0,0,1,1.54-.66v-.23a1.85,1.85,0,0,1-1.22-.7,2,2,0,0,1-.4-1.27,1.61,1.61,0,0,1,.18-.78,2,2,0,0,1,.47-.57,2.25,2.25,0,0,1,.67-.4,4.5,4.5,0,0,1,.77-.23v-.09a3.31,3.31,0,0,1-1.52-1.29,3.72,3.72,0,0,1-.49-1.91,3.46,3.46,0,0,1,1.19-2.74,5.38,5.38,0,0,1,3.62-1,7.41,7.41,0,0,1,1.89.21v-.43a1.69,1.69,0,0,1,.44-1.29,1.82,1.82,0,0,1,1.25-.39h1.77v2.35h-2.47v.12a3.34,3.34,0,0,1,1.45,1.29,3.83,3.83,0,0,1,.47,1.91,3.36,3.36,0,0,1-1.19,2.7,5.42,5.42,0,0,1-3.61,1,7.7,7.7,0,0,1-2-.24,1,1,0,0,0-.49.9.73.73,0,0,0,.31.63,1.81,1.81,0,0,0,1,.22h3.25a4.28,4.28,0,0,1,3,.86A3.1,3.1,0,0,1,162,63Zm-3,.42a.83.83,0,0,0-.39-.74,2.53,2.53,0,0,0-1.34-.26h-3.84a1.14,1.14,0,0,0-.31.48,1.41,1.41,0,0,0-.1.52,1,1,0,0,0,.53.91,4.18,4.18,0,0,0,1.82.29h1.28a4.1,4.1,0,0,0,1.81-.29A1,1,0,0,0,159,63.4ZM156,56.11a2,2,0,0,0,1.39-.4,1.39,1.39,0,0,0,.46-1.13v-.26a1.39,1.39,0,0,0-.46-1.13,2.69,2.69,0,0,0-2.79,0,1.39,1.39,0,0,0-.46,1.13v.26a1.39,1.39,0,0,0,.46,1.13A2.05,2.05,0,0,0,156,56.11Z"/><path class="cls-4" d="M165,49.77a1.93,1.93,0,0,1-1.4-.44,1.51,1.51,0,0,1-.43-1.12v-.47a1.52,1.52,0,0,1,.43-1.12,2.45,2.45,0,0,1,2.8,0,1.53,1.53,0,0,1,.44,1.12v.47a1.51,1.51,0,0,1-.44,1.12A1.93,1.93,0,0,1,165,49.77ZM163.4,51h3.16V62.17H163.4Z"/><path class="cls-4" d="M174.18,62.42a6.07,6.07,0,0,1-2.29-.41,4.73,4.73,0,0,1-1.69-1.18,5,5,0,0,1-1-1.84,8.08,8.08,0,0,1-.35-2.44,7.86,7.86,0,0,1,.34-2.4,5.07,5.07,0,0,1,1-1.84,4.52,4.52,0,0,1,1.65-1.19,5.81,5.81,0,0,1,2.24-.41,5.43,5.43,0,0,1,2.38.47,4.43,4.43,0,0,1,1.62,1.26,5,5,0,0,1,.92,1.82,8.12,8.12,0,0,1,.29,2.17v.94h-7.19v.16a2.18,2.18,0,0,0,2.47,2.4,2.85,2.85,0,0,0,1.6-.4,6,6,0,0,0,1.15-.94l1.58,2a5,5,0,0,1-2,1.37A7.16,7.16,0,0,1,174.18,62.42ZM174.11,53a1.87,1.87,0,0,0-1.5.63,2.49,2.49,0,0,0-.54,1.68v.17H176v-.19a2.72,2.72,0,0,0-.46-1.66A1.63,1.63,0,0,0,174.11,53Z"/><path class="cls-4" d="M195.45,61a7.51,7.51,0,0,1-1.7,1,6.31,6.31,0,0,1-2.56.45,6.87,6.87,0,0,1-2.18-.31,4.31,4.31,0,0,1-1.58-.87,3.71,3.71,0,0,1-1-1.33,4.05,4.05,0,0,1-.33-1.65,3.8,3.8,0,0,1,.22-1.36,3.9,3.9,0,0,1,.62-1.09,4.81,4.81,0,0,1,.95-.9c.37-.27.77-.53,1.2-.79a7.72,7.72,0,0,1-.62-.75,6.79,6.79,0,0,1-.54-.85,5.1,5.1,0,0,1-.37-.94,3.77,3.77,0,0,1-.14-1,3.16,3.16,0,0,1,.31-1.38,3.5,3.5,0,0,1,.9-1.14,4.34,4.34,0,0,1,1.41-.77,5.84,5.84,0,0,1,1.84-.27,6.13,6.13,0,0,1,1.7.22,4.05,4.05,0,0,1,1.35.66,3.06,3.06,0,0,1,.91,1.08,3.13,3.13,0,0,1,.33,1.45,3.47,3.47,0,0,1-.23,1.28,4.11,4.11,0,0,1-.64,1.06,5.73,5.73,0,0,1-1,.88c-.37.27-.75.53-1.15.77l2.31,2.5a8.4,8.4,0,0,0,.43-1.45,11.69,11.69,0,0,0,.19-1.52h3.56v2.63h-1.34a9,9,0,0,1-1,2.36l3,3.23h-3.82Zm-3.79-1.15a3.77,3.77,0,0,0,2.15-.6l-3.14-3.39a3,3,0,0,0-1,.87,1.81,1.81,0,0,0-.3,1v.21a1.72,1.72,0,0,0,.58,1.34A2.44,2.44,0,0,0,191.66,59.8Zm.17-10.37a1.44,1.44,0,0,0-1,.32,1.06,1.06,0,0,0-.4.89v.09a1.48,1.48,0,0,0,.28.84,10.37,10.37,0,0,0,.94,1.16,4.59,4.59,0,0,0,1.13-.9,1.69,1.69,0,0,0,.38-1.1v-.09a1.08,1.08,0,0,0-.39-.89A1.47,1.47,0,0,0,191.83,49.43Z"/><path class="cls-4" d="M46.76,87.77,42,72.88h3.28L47.46,80l1.18,4.67h.06L49.83,80l2.22-7.15h3.18L50.39,87.77Z"/><path class="cls-4" d="M61,88a5.83,5.83,0,0,1-2.28-.42A4.54,4.54,0,0,1,57,86.44a5,5,0,0,1-1-1.85,8,8,0,0,1-.35-2.43,8.18,8.18,0,0,1,.34-2.4,5.07,5.07,0,0,1,1-1.84,4.4,4.4,0,0,1,1.65-1.19,5.63,5.63,0,0,1,2.24-.42,5.55,5.55,0,0,1,2.38.47A4.65,4.65,0,0,1,64.82,78a5.09,5.09,0,0,1,.92,1.83A8.1,8.1,0,0,1,66,82V83H58.84v.17a2.5,2.5,0,0,0,.59,1.75,2.46,2.46,0,0,0,1.88.64,2.94,2.94,0,0,0,1.6-.39,6.05,6.05,0,0,0,1.16-.94l1.57,2a4.94,4.94,0,0,1-2,1.37A7.16,7.16,0,0,1,61,88Zm-.06-9.39a1.89,1.89,0,0,0-1.51.63A2.49,2.49,0,0,0,58.84,81v.17h3.92v-.2a2.71,2.71,0,0,0-.46-1.65A1.61,1.61,0,0,0,60.89,78.64Z"/><path class="cls-4" d="M68.27,87.77V76.57h3.16V79h.1a3.66,3.66,0,0,1,.3-.9,2.7,2.7,0,0,1,.57-.78,2.61,2.61,0,0,1,.84-.55,3.11,3.11,0,0,1,1.15-.2H75v3h-.79a4.52,4.52,0,0,0-2.06.36,1.38,1.38,0,0,0-.67,1.34v6.55Z"/><path class="cls-4" d="M76.89,72h3.16v9.33h.13l1.38-2.07,2.24-2.67h3.5l-3.73,4.29,4.16,6.91H84L81.46,83l-1.41,1.58v3.15H76.89Z"/><path class="cls-4" d="M93.32,88A5.87,5.87,0,0,1,91,87.61a4.54,4.54,0,0,1-1.7-1.17,4.85,4.85,0,0,1-1-1.85,7.66,7.66,0,0,1-.36-2.43,7.86,7.86,0,0,1,.35-2.4,4.91,4.91,0,0,1,1-1.84A4.48,4.48,0,0,1,91,76.73a5.66,5.66,0,0,1,2.24-.42,5.55,5.55,0,0,1,2.38.47A4.69,4.69,0,0,1,97.2,78a5.24,5.24,0,0,1,.91,1.83A8.1,8.1,0,0,1,98.4,82V83H91.21v.17a2.46,2.46,0,0,0,.6,1.75,2.42,2.42,0,0,0,1.87.64,3,3,0,0,0,1.61-.39,6.32,6.32,0,0,0,1.15-.94l1.58,2a5,5,0,0,1-2,1.37A7.12,7.12,0,0,1,93.32,88Zm-.06-9.39a1.9,1.9,0,0,0-1.51.63A2.49,2.49,0,0,0,91.21,81v.17h3.93v-.2a2.78,2.78,0,0,0-.46-1.65A1.65,1.65,0,0,0,93.26,78.64Z"/><path class="cls-4" d="M100.64,72h3.16v6.49h.13A3.46,3.46,0,0,1,105,77a3.57,3.57,0,0,1,4.69.51,5.29,5.29,0,0,1,.88,3.28v7h-3.16V81A3,3,0,0,0,107,79.4a1.32,1.32,0,0,0-1.21-.52,3.08,3.08,0,0,0-.75.09,2.06,2.06,0,0,0-.65.31,1.63,1.63,0,0,0-.46.52,1.53,1.53,0,0,0-.17.72v7.25h-3.16Z"/><path class="cls-4" d="M113.36,87.77V76.57h3.16V79h.1a3.66,3.66,0,0,1,.3-.9,2.9,2.9,0,0,1,.57-.78,2.61,2.61,0,0,1,.84-.55,3.11,3.11,0,0,1,1.15-.2H120v3h-.79a4.55,4.55,0,0,0-2.06.36,1.38,1.38,0,0,0-.67,1.34v6.55Z"/><path class="cls-4" d="M125.78,88a6.36,6.36,0,0,1-2.73-.52,6.46,6.46,0,0,1-2-1.49l1.86-1.87a4.77,4.77,0,0,0,1.32,1,3.44,3.44,0,0,0,1.65.39,2.18,2.18,0,0,0,1.3-.29.94.94,0,0,0,.36-.78c0-.53-.38-.84-1.13-.94l-1.22-.15Q121.44,83,121.43,80a3.44,3.44,0,0,1,.31-1.48,3.16,3.16,0,0,1,.87-1.15,4.11,4.11,0,0,1,1.37-.75,5.58,5.58,0,0,1,1.8-.27,9,9,0,0,1,1.55.12,5.56,5.56,0,0,1,1.19.34,4.56,4.56,0,0,1,1,.56,11.23,11.23,0,0,1,.87.73l-1.82,1.86a4.13,4.13,0,0,0-1.2-.84,3.22,3.22,0,0,0-1.38-.31,2,2,0,0,0-1.15.25.82.82,0,0,0-.34.69.93.93,0,0,0,.24.69,1.75,1.75,0,0,0,.93.35l1.26.17q3.69.49,3.69,3.38a3.26,3.26,0,0,1-.34,1.49,3.43,3.43,0,0,1-1,1.18,4.46,4.46,0,0,1-1.52.78A6.42,6.42,0,0,1,125.78,88Z"/><path class="cls-4" d="M132.74,87.77V76.57h3.15v1.9H136a3.39,3.39,0,0,1,1-1.53,2.9,2.9,0,0,1,2-.63,3.37,3.37,0,0,1,2,.58,3.2,3.2,0,0,1,1.17,1.69h.06a2.9,2.9,0,0,1,.46-.89,3,3,0,0,1,.76-.71,4,4,0,0,1,1-.48,3.87,3.87,0,0,1,1.2-.19,2.9,2.9,0,0,1,2.48,1.16,5.36,5.36,0,0,1,.87,3.28v7h-3.16V81c0-1.42-.51-2.13-1.54-2.13a2.18,2.18,0,0,0-1.28.4,1.41,1.41,0,0,0-.57,1.24v7.25h-3.16V81c0-1.42-.51-2.13-1.54-2.13a2.52,2.52,0,0,0-.67.09,1.9,1.9,0,0,0-.6.31,1.51,1.51,0,0,0-.59,1.24v7.25Z"/><path class="cls-4" d="M160.09,87.77a2,2,0,0,1-1.42-.53,2.47,2.47,0,0,1-.71-1.43h-.13a2.56,2.56,0,0,1-1.13,1.65,3.85,3.85,0,0,1-2.15.57,3.54,3.54,0,0,1-2.59-.89,3.23,3.23,0,0,1-.89-2.36,2.94,2.94,0,0,1,1.29-2.63,6.2,6.2,0,0,1,3.51-.86h1.77v-.71a1.85,1.85,0,0,0-.43-1.29,1.83,1.83,0,0,0-1.43-.48,2.48,2.48,0,0,0-1.49.41,4,4,0,0,0-.92.91l-1.88-1.67a5,5,0,0,1,1.72-1.58,5.86,5.86,0,0,1,2.81-.57,5.28,5.28,0,0,1,3.58,1,3.84,3.84,0,0,1,1.2,3v4.91h1v2.45Zm-4.37-1.94a2.51,2.51,0,0,0,1.35-.34,1.17,1.17,0,0,0,.57-1.1V83.08H156.1c-1.23,0-1.85.42-1.85,1.25v.32a1,1,0,0,0,.38.9A1.81,1.81,0,0,0,155.72,85.83Z"/><path class="cls-4" d="M164,87.77V76.57h3.16v1.9h.12a3.4,3.4,0,0,1,1-1.51,3.56,3.56,0,0,1,4.68.51,5.29,5.29,0,0,1,.89,3.28v7H170.7V81a3,3,0,0,0-.34-1.61,1.34,1.34,0,0,0-1.22-.52,3.06,3.06,0,0,0-.74.09,2,2,0,0,0-.65.31,1.52,1.52,0,0,0-.46.52,1.42,1.42,0,0,0-.17.72v7.25Z"/><path class="cls-4" d="M185,87.77a2,2,0,0,1-1.41-.53,2.42,2.42,0,0,1-.72-1.43h-.13a2.53,2.53,0,0,1-1.13,1.65,3.85,3.85,0,0,1-2.15.57,3.5,3.5,0,0,1-2.58-.89,3.2,3.2,0,0,1-.9-2.36,2.94,2.94,0,0,1,1.29-2.63,6.2,6.2,0,0,1,3.51-.86h1.77v-.71a1.85,1.85,0,0,0-.43-1.29,1.83,1.83,0,0,0-1.43-.48,2.48,2.48,0,0,0-1.49.41,4.18,4.18,0,0,0-.92.91l-1.87-1.67a4.88,4.88,0,0,1,1.71-1.58,5.86,5.86,0,0,1,2.81-.57,5.28,5.28,0,0,1,3.58,1,3.84,3.84,0,0,1,1.2,3v4.91h1v2.45Zm-4.37-1.94a2.57,2.57,0,0,0,1.36-.34,1.18,1.18,0,0,0,.56-1.1V83.08H181c-1.23,0-1.85.42-1.85,1.25v.32a1.06,1.06,0,0,0,.38.9A1.81,1.81,0,0,0,180.58,85.83Z"/><path class="cls-4" d="M199.19,88.59a3.7,3.7,0,0,1-.31,1.57,2.81,2.81,0,0,1-1,1.17,5.22,5.22,0,0,1-1.87.72,13.72,13.72,0,0,1-2.87.25,14.45,14.45,0,0,1-2.47-.18A5.46,5.46,0,0,1,189,91.6a2.24,2.24,0,0,1-.92-.81,2.09,2.09,0,0,1-.28-1.1,2,2,0,0,1,.55-1.47,2.7,2.7,0,0,1,1.54-.66v-.23a1.85,1.85,0,0,1-1.22-.7,2.08,2.08,0,0,1-.41-1.27,1.5,1.5,0,0,1,.19-.78,2,2,0,0,1,.47-.58,2.32,2.32,0,0,1,.67-.39,5.28,5.28,0,0,1,.77-.24v-.08A3.31,3.31,0,0,1,188.86,82a3.65,3.65,0,0,1-.49-1.91,3.45,3.45,0,0,1,1.18-2.74,5.39,5.39,0,0,1,3.62-1,7.46,7.46,0,0,1,1.9.22V76.1a1.66,1.66,0,0,1,.44-1.29,1.82,1.82,0,0,1,1.25-.39h1.77v2.34h-2.48v.13a3.12,3.12,0,0,1,1.45,1.29,3.73,3.73,0,0,1,.47,1.91,3.36,3.36,0,0,1-1.18,2.7,5.45,5.45,0,0,1-3.62,1,7.62,7.62,0,0,1-2-.24,1,1,0,0,0-.49.9.73.73,0,0,0,.31.63,1.79,1.79,0,0,0,1,.22h3.24a4.31,4.31,0,0,1,3,.85A3.13,3.13,0,0,1,199.19,88.59Zm-3,.42a.84.84,0,0,0-.38-.74,2.5,2.5,0,0,0-1.35-.26h-3.84a1.37,1.37,0,0,0-.31.48,1.63,1.63,0,0,0-.09.52,1,1,0,0,0,.53.91,4.15,4.15,0,0,0,1.82.29h1.28a4.13,4.13,0,0,0,1.81-.29A1,1,0,0,0,196.22,89Zm-3.05-7.3a2.13,2.13,0,0,0,1.4-.39,1.42,1.42,0,0,0,.46-1.13v-.26a1.42,1.42,0,0,0-.46-1.13,2.71,2.71,0,0,0-2.8,0,1.42,1.42,0,0,0-.45,1.13v.26a1.42,1.42,0,0,0,.45,1.13A2.13,2.13,0,0,0,193.17,81.71Z"/><path class="cls-4" d="M205.16,88a5.87,5.87,0,0,1-2.28-.42,4.62,4.62,0,0,1-1.7-1.17,4.85,4.85,0,0,1-1-1.85,7.67,7.67,0,0,1-.35-2.43,7.86,7.86,0,0,1,.34-2.4,5,5,0,0,1,1-1.84,4.44,4.44,0,0,1,1.66-1.19,6.22,6.22,0,0,1,4.62,0A4.65,4.65,0,0,1,209,78a5.07,5.07,0,0,1,.91,1.83,7.72,7.72,0,0,1,.29,2.16V83h-7.19v.17a2.18,2.18,0,0,0,2.48,2.39,3,3,0,0,0,1.6-.39,6.32,6.32,0,0,0,1.15-.94l1.58,2a5.09,5.09,0,0,1-2,1.37A7.21,7.21,0,0,1,205.16,88Zm-.06-9.39a1.87,1.87,0,0,0-1.5.63,2.45,2.45,0,0,0-.55,1.68v.17H207v-.2a2.71,2.71,0,0,0-.46-1.65A1.65,1.65,0,0,0,205.1,78.64Z"/><path class="cls-4" d="M212.48,87.77V76.57h3.16v1.9h.13a3.45,3.45,0,0,1,1-1.53,3,3,0,0,1,2-.63,3.32,3.32,0,0,1,2,.58,3.27,3.27,0,0,1,1.18,1.69H222a2.9,2.9,0,0,1,.46-.89,3,3,0,0,1,.76-.71,4,4,0,0,1,1-.48,3.85,3.85,0,0,1,1.19-.19,2.92,2.92,0,0,1,2.49,1.16,5.36,5.36,0,0,1,.87,3.28v7h-3.16V81c0-1.42-.51-2.13-1.54-2.13a2.16,2.16,0,0,0-1.28.4,1.42,1.42,0,0,0-.58,1.24v7.25H219V81c0-1.42-.52-2.13-1.54-2.13a2.52,2.52,0,0,0-.67.09,1.9,1.9,0,0,0-.6.31,1.51,1.51,0,0,0-.59,1.24v7.25Z"/><path class="cls-4" d="M236.24,88a5.88,5.88,0,0,1-2.29-.42,4.5,4.5,0,0,1-1.69-1.17,4.86,4.86,0,0,1-1-1.85,8,8,0,0,1-.35-2.43,7.86,7.86,0,0,1,.34-2.4,5,5,0,0,1,1-1.84,4.44,4.44,0,0,1,1.66-1.19,6.22,6.22,0,0,1,4.62,0A4.65,4.65,0,0,1,240.11,78a5.26,5.26,0,0,1,.92,1.83,8.1,8.1,0,0,1,.28,2.16V83h-7.19v.17a2.18,2.18,0,0,0,2.48,2.39,3,3,0,0,0,1.6-.39,6,6,0,0,0,1.15-.94l1.58,2a5.09,5.09,0,0,1-2,1.37A7.19,7.19,0,0,1,236.24,88Zm-.07-9.39a1.87,1.87,0,0,0-1.5.63,2.45,2.45,0,0,0-.55,1.68v.17h3.93v-.2a2.71,2.71,0,0,0-.46-1.65A1.63,1.63,0,0,0,236.17,78.64Z"/><path class="cls-4" d="M243.56,87.77V76.57h3.15v1.9h.13a3.4,3.4,0,0,1,1-1.51,3.56,3.56,0,0,1,4.68.51,5.29,5.29,0,0,1,.89,3.28v7H250.3V81A3.06,3.06,0,0,0,250,79.4a1.35,1.35,0,0,0-1.22-.52A3.2,3.2,0,0,0,248,79a2.17,2.17,0,0,0-.65.31,1.76,1.76,0,0,0-.46.52,1.53,1.53,0,0,0-.17.72v7.25Z"/><path class="cls-4" d="M260.2,87.77a3.41,3.41,0,0,1-2.49-.83,3.26,3.26,0,0,1-.84-2.43V79h-1.58V76.57h.79a1,1,0,0,0,.88-.31,1.46,1.46,0,0,0,.23-.88V73.54H260v3h2.22V79H260v6.3h2.05v2.45Z"/><g class="cls-5"><path class="cls-6" d="M152.33,240.91a4.45,4.45,0,0,0-.46,8.87c1.91.2,2.61,1.32,2.36,3.75,0,.24,0,.48,0,.73a7,7,0,1,0,7-7c-.24,0-.49,0-.73,0-2.43.26-3.55-.45-3.75-2.36a4.42,4.42,0,0,0-4.42-4m8.9,20.49a7.15,7.15,0,0,1-7.14-7.14,6,6,0,0,1,0-.74c.24-2.39-.41-3.44-2.27-3.64a4.55,4.55,0,1,1,5-5c.2,1.86,1.25,2.51,3.64,2.26l.74,0a7.14,7.14,0,1,1,0,14.28"/><path class="cls-6" d="M153.53,243.06a3.5,3.5,0,0,0-.36,7c1.52.16,2.08,1.05,1.88,3a5.54,5.54,0,1,0,5.52-5l-.58,0c-1.92.2-2.82-.36-3-1.88a3.48,3.48,0,0,0-3.48-3.14m7,16.19a5.66,5.66,0,0,1-5.63-6.24c.2-1.88-.32-2.71-1.78-2.86a3.61,3.61,0,1,1,4-4c.15,1.46,1,2,2.86,1.78l.59,0a5.66,5.66,0,0,1,0,11.31"/><path class="cls-6" d="M154.74,245.21a2.56,2.56,0,0,0-.26,5.1c1.12.12,1.53.78,1.39,2.2a3,3,0,0,0,0,.42,4.06,4.06,0,1,0,4.06-4.06l-.42,0c-1.42.15-2.08-.26-2.2-1.38a2.54,2.54,0,0,0-2.54-2.3m5.16,11.89a4.17,4.17,0,0,1-4.16-4.17,3.1,3.1,0,0,1,0-.43c.14-1.37-.23-2-1.3-2.08a2.67,2.67,0,1,1,2.93-2.93c.11,1.07.71,1.44,2.08,1.3a3.1,3.1,0,0,1,.43,0,4.17,4.17,0,1,1,0,8.33"/><path class="cls-6" d="M155.89,250.59c.64.11.88.54.79,1.41a2.44,2.44,0,0,0,0,.27,2.57,2.57,0,1,0,2.57-2.57H159a1.51,1.51,0,0,1-1.06-.17.88.88,0,0,1-.35-.63h0l0-.1a1.61,1.61,0,1,0-1.76,1.76h.11Zm3.35,4.36a2.68,2.68,0,0,1-2.68-2.68,2.64,2.64,0,0,1,0-.28c.11-1.06-.33-1.26-.82-1.31h-.1a1.72,1.72,0,1,1,2-2h0l0,.1a.89.89,0,0,0,.32.67,1.5,1.5,0,0,0,1,.14h.28a2.68,2.68,0,0,1,0,5.36"/><path class="cls-7" d="M161.81,240.71a8.35,8.35,0,0,0-8.27,9.17c.3,2.86-.53,4.18-2.77,4.42a5.25,5.25,0,1,0,5.76,5.76c.23-2.24,1.56-3.07,4.41-2.77a8.44,8.44,0,0,0,.87,0,8.31,8.31,0,1,0,0-16.62M151.3,264.89a5.36,5.36,0,0,1-.55-10.7c2.2-.23,3-1.47,2.68-4.3a8.42,8.42,0,1,1,8.38,7.55,8.65,8.65,0,0,1-.88-.05c-2.82-.29-4.06.49-4.3,2.68a5.34,5.34,0,0,1-5.33,4.82"/><path class="cls-7" d="M161.49,241.75a7.6,7.6,0,0,0-7.59,7.59,7,7,0,0,0,0,.79c.27,2.62-.49,3.82-2.54,4a4.8,4.8,0,1,0,5.26,5.26c.21-2.05,1.42-2.81,4-2.54a7,7,0,0,0,.79,0,7.59,7.59,0,0,0,0-15.18m-9.61,22.1a4.91,4.91,0,0,1-.5-9.79c2-.21,2.72-1.34,2.45-3.92a7.26,7.26,0,0,1,0-.8,7.7,7.7,0,1,1,7.7,7.7c-.26,0-.53,0-.8,0-2.58-.27-3.72.44-3.93,2.44a4.89,4.89,0,0,1-4.88,4.41"/><path class="cls-7" d="M161.16,242.79a6.87,6.87,0,0,0-6.86,6.87c0,.24,0,.48,0,.71.25,2.38-.44,3.47-2.3,3.67a4.34,4.34,0,1,0,4.76,4.76c.19-1.86,1.29-2.55,3.66-2.3l.71,0a6.87,6.87,0,1,0,0-13.74m-8.69,20a4.45,4.45,0,0,1-.46-8.88c1.82-.19,2.46-1.21,2.22-3.54a6.06,6.06,0,0,1,0-.73,7,7,0,1,1,7,7,5.9,5.9,0,0,1-.72,0c-2.33-.24-3.36.4-3.55,2.21a4.43,4.43,0,0,1-4.42,4"/><path class="cls-7" d="M160.84,243.83a6.16,6.16,0,0,0-6.15,6.15c0,.21,0,.43,0,.64.22,2.13-.4,3.12-2.07,3.29a3.89,3.89,0,1,0,4.26,4.26c.17-1.67,1.15-2.29,3.29-2.07l.63,0a6.15,6.15,0,1,0,0-12.3m-7.79,17.94a4,4,0,0,1-.4-8c1.62-.18,2.19-1.09,2-3.18,0-.22,0-.43,0-.65a6.26,6.26,0,1,1,6.25,6.26c-.21,0-.43,0-.64,0-2.09-.22-3,.35-3.18,2a4,4,0,0,1-4,3.59"/><path class="cls-7" d="M160.52,244.88a5.42,5.42,0,0,0-5.4,6c.2,1.88-.35,2.76-1.83,2.91a3.43,3.43,0,1,0,3.75,3.76c.16-1.48,1-2,2.92-1.84l.56,0a5.43,5.43,0,1,0,0-10.85m-6.88,15.85a3.53,3.53,0,0,1-.36-7.05c1.42-.15,1.93-1,1.74-2.8a5.63,5.63,0,0,1,0-.58,5.54,5.54,0,1,1,5,5.51c-1.84-.19-2.65.31-2.8,1.74a3.52,3.52,0,0,1-3.51,3.18"/><path class="cls-7" d="M160.2,245.92a4.71,4.71,0,0,0-4.71,4.71,3.87,3.87,0,0,0,0,.48c.17,1.65-.31,2.41-1.6,2.54a3,3,0,1,0,3.25,3.26c.14-1.29.9-1.77,2.54-1.6a4.1,4.1,0,0,0,.49,0,4.71,4.71,0,1,0,0-9.41m-6,13.76a3.07,3.07,0,0,1-.31-6.13c1.23-.13,1.67-.84,1.5-2.43a4,4,0,0,1,0-.49,4.82,4.82,0,1,1,4.81,4.81l-.5,0c-1.59-.16-2.29.28-2.42,1.51a3.06,3.06,0,0,1-3.06,2.76"/><path class="cls-7" d="M159.88,247a4,4,0,0,0-4,4c0,.13,0,.27,0,.41.15,1.4-.26,2-1.36,2.16a2.52,2.52,0,1,0,2.75,2.76c.12-1.1.77-1.51,2.17-1.37a2.82,2.82,0,0,0,.41,0,4,4,0,1,0,0-8m-5.08,11.68a2.62,2.62,0,0,1-.26-5.22c1-.11,1.41-.7,1.27-2a3,3,0,0,1,0-.42,4.1,4.1,0,1,1,4.09,4.09l-.42,0c-1.35-.14-1.94.23-2.05,1.27a2.62,2.62,0,0,1-2.61,2.35"/><path class="cls-7" d="M155.28,253.38h0l-.11,0a2,2,0,0,0-1.85,2,2.06,2.06,0,0,0,2.06,2.06,2,2,0,0,0,2-1.86v-.11h0c.13-.83.67-1.14,1.78-1l.34,0a3.27,3.27,0,1,0-3.27-3.27c0,.11,0,.22,0,.34.11,1.11-.19,1.65-1,1.77m.11,4.22a2.16,2.16,0,0,1-.32-4.29h.09c.86-.09,1.16-.57,1-1.67,0-.12,0-.24,0-.35a3.38,3.38,0,1,1,3,3.35c-1.1-.11-1.58.19-1.67,1v.11h0a2.13,2.13,0,0,1-2.12,1.84"/><path class="cls-7" d="M155.91,253.25h-.1a1.6,1.6,0,1,0,1.74,1.74v-.09c.11-.65.54-.89,1.41-.8l.26,0a2.55,2.55,0,1,0-2.55-2.55c0,.08,0,.17,0,.26.09.87-.14,1.3-.79,1.4m.06,3.31a1.7,1.7,0,0,1-.27-3.38h0l.1,0c.49,0,.92-.24.81-1.3a2.45,2.45,0,0,1,0-.27,2.66,2.66,0,1,1,2.66,2.65H159c-1.05-.11-1.24.32-1.29.8v.11h0a1.69,1.69,0,0,1-1.67,1.43"/><path class="cls-7" d="M156.55,253.13h-.11a1.14,1.14,0,0,0,.11,2.27,1.12,1.12,0,0,0,1.13-1l0-.11a.56.56,0,0,1,.26-.42.93.93,0,0,1,.62-.13v0l.15,0h.06l.14,0a1.83,1.83,0,1,0-1.83-1.83s0,.09,0,.14v.06l0,.15,0,0a1,1,0,0,1-.13.63.68.68,0,0,1-.43.26m0,2.39a1.25,1.25,0,0,1-.22-2.47h0l.11,0a.58.58,0,0,0,.46-.22,1,1,0,0,0,.1-.7V252h0a.07.07,0,0,1,0-.05,1.94,1.94,0,1,1,1.94,1.93h0l-.15,0a1,1,0,0,0-.7.11.57.57,0,0,0-.22.46l0,.12h0a1.24,1.24,0,0,1-1.22,1"/><path class="cls-8" d="M173.67,248.79a1.14,1.14,0,0,0,.23.73.78.78,0,0,0,1.21,0,1.18,1.18,0,0,0,.23-.75v-.05a1.27,1.27,0,0,0-.11-.52.91.91,0,0,0-.29-.37.84.84,0,0,0-.44-.13.76.76,0,0,0-.6.29,1.18,1.18,0,0,0-.23.75Zm-.27-.07a1.38,1.38,0,0,1,.14-.65,1,1,0,0,1,.39-.44,1,1,0,0,1,.57-.16,1,1,0,0,1,.8.35,1.3,1.3,0,0,1,.31.92v0a1.51,1.51,0,0,1-.14.65,1,1,0,0,1-.39.44,1,1,0,0,1-.57.16,1.05,1.05,0,0,1-.81-.35,1.36,1.36,0,0,1-.3-.92Z"/><path class="cls-8" d="M177.89,248.73a1.3,1.3,0,0,0-.19-.75.63.63,0,0,0-.54-.27.78.78,0,0,0-.44.12.74.74,0,0,0-.27.35v1.19a.75.75,0,0,0,.28.33.83.83,0,0,0,.43.11.61.61,0,0,0,.54-.28,1.37,1.37,0,0,0,.19-.8m.28.05a1.5,1.5,0,0,1-.26.92.8.8,0,0,1-.68.34.92.92,0,0,1-.78-.36V251h-.28v-3.44h.26v.36a.88.88,0,0,1,.78-.4.83.83,0,0,1,.7.34,1.56,1.56,0,0,1,.25.93Z"/><path class="cls-8" d="M179.69,247.7a.72.72,0,0,0-.53.23,1,1,0,0,0-.25.61h1.48v0a.85.85,0,0,0-.2-.58.64.64,0,0,0-.5-.23m.05,2.34a1,1,0,0,1-.58-.16,1,1,0,0,1-.39-.43,1.29,1.29,0,0,1-.15-.62v-.1a1.51,1.51,0,0,1,.14-.65,1.14,1.14,0,0,1,.39-.45.93.93,0,0,1,.54-.16.86.86,0,0,1,.71.31,1.21,1.21,0,0,1,.27.84v.15H178.9v.06a1,1,0,0,0,.24.7.78.78,0,0,0,.61.28,1,1,0,0,0,.39-.08.91.91,0,0,0,.3-.26l.17.13a1,1,0,0,1-.87.44"/><path class="cls-8" d="M181.46,247.52v.42a1,1,0,0,1,.35-.35.9.9,0,0,1,.46-.12.74.74,0,0,1,.59.22,1,1,0,0,1,.2.68V250h-.27v-1.62a.83.83,0,0,0-.14-.5.58.58,0,0,0-.45-.16.67.67,0,0,0-.45.16.89.89,0,0,0-.29.43V250h-.27v-2.47Z"/><path class="cls-8" d="M173.8,253.14v.41a.92.92,0,0,1,.34-.34,1,1,0,0,1,.46-.11.69.69,0,0,1,.74.48,1,1,0,0,1,.36-.36,1,1,0,0,1,.49-.12q.8,0,.81.87v1.65h-.27V254a.68.68,0,0,0-.15-.49.55.55,0,0,0-.45-.16.68.68,0,0,0-.5.19.62.62,0,0,0-.23.45v1.64h-.28V254a.69.69,0,0,0-.15-.48.6.6,0,0,0-.45-.15.77.77,0,0,0-.45.14.92.92,0,0,0-.27.44v1.7h-.28v-2.48Z"/><path class="cls-8" d="M177.83,254.42a1.14,1.14,0,0,0,.23.73.77.77,0,0,0,1.2,0,1.13,1.13,0,0,0,.24-.75v-.05a1.27,1.27,0,0,0-.11-.52.85.85,0,0,0-.3-.37.78.78,0,0,0-.43-.13.74.74,0,0,0-.6.29,1.18,1.18,0,0,0-.23.75Zm-.28-.07a1.55,1.55,0,0,1,.14-.65,1.07,1.07,0,0,1,.4-.44,1,1,0,0,1,.57-.16,1,1,0,0,1,.8.35,1.3,1.3,0,0,1,.31.92v0a1.51,1.51,0,0,1-.14.65,1,1,0,0,1-.39.44,1,1,0,0,1-.58.16,1,1,0,0,1-.8-.35,1.36,1.36,0,0,1-.31-.92Z"/><path class="cls-8" d="M182.05,254.36a1.28,1.28,0,0,0-.19-.76.61.61,0,0,0-.53-.26.73.73,0,0,0-.45.13.81.81,0,0,0-.28.38V255a.73.73,0,0,0,.73.47.61.61,0,0,0,.53-.27,1.35,1.35,0,0,0,.19-.8m.28,0a1.5,1.5,0,0,1-.26.92.81.81,0,0,1-.69.34.89.89,0,0,1-.78-.39v.34h-.26V252.1h.27v1.4a.88.88,0,0,1,.78-.4.83.83,0,0,1,.69.33,1.54,1.54,0,0,1,.26.94Z"/><path class="cls-8" d="M183.24,255.62H183v-2.48h.27Zm-.32-3.19a.15.15,0,0,1,.05-.13.17.17,0,0,1,.14-.06.21.21,0,0,1,.19.19.18.18,0,0,1-.06.13.19.19,0,0,1-.13.05.2.2,0,0,1-.14-.05.17.17,0,0,1-.05-.13"/></g><rect class="cls-8" x="184.02" y="252.1" width="0.27" height="3.52"/><g class="cls-5"><path class="cls-8" d="M185.34,255.62h-.27v-2.48h.27Zm-.32-3.19a.19.19,0,0,1,0-.13.17.17,0,0,1,.14-.06.18.18,0,0,1,.14.06.19.19,0,0,1,.05.13.21.21,0,0,1-.05.13.22.22,0,0,1-.14.05.2.2,0,0,1-.14-.05.21.21,0,0,1,0-.13"/><path class="cls-8" d="M186.51,252.51v.63H187v.23h-.52V255a.52.52,0,0,0,.08.31.28.28,0,0,0,.25.1l.22,0v.22a.78.78,0,0,1-.29,0,.5.5,0,0,1-.41-.16.75.75,0,0,1-.13-.49v-1.65h-.46v-.23h.46v-.63Z"/><path class="cls-8" d="M188.38,255.23l.72-2.09h.3l-1.06,2.9-.05.13a.67.67,0,0,1-.63.45.76.76,0,0,1-.21,0v-.22h.15a.47.47,0,0,0,.32-.1.66.66,0,0,0,.21-.34l.13-.34-.94-2.46h.3Z"/><path class="cls-8" d="M173.75,261.25V259h-.41v-.23h.41v-.3a.81.81,0,0,1,.19-.58.69.69,0,0,1,.54-.2,1.36,1.36,0,0,1,.29,0l0,.23a1,1,0,0,0-.25,0,.45.45,0,0,0-.35.14.58.58,0,0,0-.13.41v.3h.59V259H174v2.25Z"/><path class="cls-8" d="M175.22,260.05a1.14,1.14,0,0,0,.23.73.76.76,0,0,0,.61.29.73.73,0,0,0,.6-.29,1.18,1.18,0,0,0,.23-.75v0a1.24,1.24,0,0,0-.11-.52.83.83,0,0,0-.29-.37.81.81,0,0,0-.44-.13.72.72,0,0,0-.59.29,1.13,1.13,0,0,0-.24.75ZM175,260a1.51,1.51,0,0,1,.14-.65,1,1,0,0,1,.39-.44,1.11,1.11,0,0,1,1.38.19,1.34,1.34,0,0,1,.3.92v.05a1.38,1.38,0,0,1-.14.65,1,1,0,0,1-.39.44,1,1,0,0,1-.57.16,1,1,0,0,1-.8-.35A1.31,1.31,0,0,1,175,260Z"/><path class="cls-8" d="M178.87,259l-.18,0a.67.67,0,0,0-.44.15.8.8,0,0,0-.25.41v1.7h-.27v-2.48H178v.4a.74.74,0,0,1,.7-.44.42.42,0,0,1,.18,0Z"/><path class="cls-8" d="M180.9,260.94a.89.89,0,0,1-.79.36.78.78,0,0,1-.6-.23,1,1,0,0,1-.21-.68v-1.62h.27v1.58c0,.47.19.71.57.71a.71.71,0,0,0,.76-.49v-1.8h.27v2.48h-.26Z"/><path class="cls-8" d="M182.13,258.77v.41a1,1,0,0,1,.35-.34,1,1,0,0,1,.45-.11.7.7,0,0,1,.75.48,1.1,1.1,0,0,1,.35-.36,1.06,1.06,0,0,1,.5-.12q.79,0,.81.87v1.65h-.28v-1.63a.73.73,0,0,0-.14-.49.57.57,0,0,0-.46-.16.69.69,0,0,0-.5.19.7.7,0,0,0-.23.45v1.64h-.27V259.6a.69.69,0,0,0-.15-.48.61.61,0,0,0-.45-.15.73.73,0,0,0-.45.14.92.92,0,0,0-.27.44v1.7h-.28v-2.48Z"/><path class="cls-6" d="M157.12,251.59l0,.15a.13.13,0,0,1,0,.06s0,.09,0,.14a1.83,1.83,0,1,0,1.83-1.83h-.2l-.15,0v0c-.53,0-.8-.15-.87-.57h0v-.1a1.14,1.14,0,1,0-1.25,1.24l.1,0c.42.08.6.35.57.88Zm1.79,2.28a1.94,1.94,0,0,1-1.94-1.93s0,0,0-.06h0v-.15c.08-.71-.17-.88-.56-.93l-.11,0a1.24,1.24,0,0,1-1-1.22,1.25,1.25,0,0,1,2.47-.22h0l0,.1c0,.4.21.64.92.57h.2a1.94,1.94,0,0,1,0,3.87"/><path class="cls-6" d="M155.24,250.46c.84.12,1.15.67,1,1.8,0,.11,0,.23,0,.34a3.32,3.32,0,1,0,3-3.3c-1.13.12-1.68-.19-1.8-1h0v-.11a2.07,2.07,0,0,0-2.06-1.88,2.1,2.1,0,0,0-2.09,2.09,2.07,2.07,0,0,0,1.88,2.06h.12Zm4.33,5.56a3.42,3.42,0,0,1-3.42-3.42c0-.12,0-.24,0-.35.11-1.12-.19-1.61-1.06-1.7H155a2.19,2.19,0,1,1,2.5-2.5h0v.11c.09.87.58,1.17,1.7,1.06a3.42,3.42,0,1,1,.35,6.82"/><path class="cls-6" d="M154.13,244.13a3,3,0,0,0-.3,6.05c1.31.13,1.8.91,1.63,2.58a4.32,4.32,0,0,0,0,.5,4.81,4.81,0,1,0,4.31-4.77c-1.68.17-2.45-.32-2.59-1.64a3,3,0,0,0-3-2.72m6.1,14a4.91,4.91,0,0,1-4.9-4.91,4.43,4.43,0,0,1,0-.51c.17-1.62-.28-2.34-1.54-2.47a3.13,3.13,0,1,1,3.44-3.44c.14,1.26.85,1.71,2.48,1.54l.5,0a4.91,4.91,0,0,1,0,9.82"/><path class="cls-6" d="M152.93,242a4,4,0,0,0-.41,7.93c1.71.18,2.35,1.19,2.12,3.36q0,.33,0,.66a6.29,6.29,0,1,0,6.29-6.29l-.66,0c-2.17.23-3.18-.41-3.36-2.12a4,4,0,0,0-3.95-3.57m8,18.34a6.4,6.4,0,0,1-6.4-6.39c0-.22,0-.45,0-.67.23-2.13-.36-3.07-2-3.24a4.08,4.08,0,1,1,4.48-4.48c.17,1.66,1.11,2.24,3.24,2,.22,0,.45,0,.67,0a6.4,6.4,0,0,1,0,12.79"/><path class="cls-6" d="M158.9,250.17a1.76,1.76,0,1,0,1.76,1.75,1.76,1.76,0,0,0-1.76-1.75m0,3.79a2,2,0,1,1,2-2,2,2,0,0,1-2,2"/></g><path class="cls-8" d="M93.22,251.57,93,246.19h.44l.2,4.8h0l2.2-4.8h.55l.29,4.8h0l2.14-4.8h.47l-2.47,5.38h-.52L96,246.73h0l-2.24,4.84Z"/><path class="cls-8" d="M100.6,251.66a1.37,1.37,0,0,1-1.06-.4,1.72,1.72,0,0,1-.38-1.21,3,3,0,0,1,.15-1,2.42,2.42,0,0,1,.41-.8,1.85,1.85,0,0,1,.63-.55,1.64,1.64,0,0,1,.82-.21,1.87,1.87,0,0,1,.49.07,1.24,1.24,0,0,1,.4.19,1,1,0,0,1,.27.32.92.92,0,0,1,.1.44,1,1,0,0,1-.14.5,1.05,1.05,0,0,1-.47.4,2.64,2.64,0,0,1-.86.27,7.16,7.16,0,0,1-1.34.11.88.88,0,0,0,0,.17,1,1,0,0,0,0,.16,1.22,1.22,0,0,0,.26.84,1,1,0,0,0,.78.29,1.36,1.36,0,0,0,.74-.21,1.9,1.9,0,0,0,.57-.56l.29.24a2.16,2.16,0,0,1-.76.7A1.85,1.85,0,0,1,100.6,251.66Zm.53-3.75a1.23,1.23,0,0,0-.92.39,2,2,0,0,0-.5,1l0,.18a10.58,10.58,0,0,0,1.18-.09,2.8,2.8,0,0,0,.71-.2.72.72,0,0,0,.34-.29.74.74,0,0,0,.09-.36.52.52,0,0,0-.24-.48A1,1,0,0,0,101.13,247.91Z"/><path class="cls-8" d="M103.07,251.57l.78-3.94h.44l-.18.82h0a3.28,3.28,0,0,1,.2-.31,1.66,1.66,0,0,1,.26-.27,1.56,1.56,0,0,1,.34-.18,1.53,1.53,0,0,1,.45-.06h.24l-.08.42h-.25a1.19,1.19,0,0,0-.51.1,1.31,1.31,0,0,0-.4.26,1.39,1.39,0,0,0-.28.38,2.27,2.27,0,0,0-.16.46l-.46,2.32Z"/><path class="cls-8" d="M108.76,251.57a.41.41,0,0,1-.3-.09.37.37,0,0,1-.09-.25,1.54,1.54,0,0,1,0-.19l.06-.32h0a2.19,2.19,0,0,1-.55.71,1.23,1.23,0,0,1-.77.23,1.27,1.27,0,0,1-.52-.1,1.13,1.13,0,0,1-.38-.3,1.23,1.23,0,0,1-.24-.47,2,2,0,0,1-.09-.61,3.81,3.81,0,0,1,.12-1,2.83,2.83,0,0,1,.36-.85,2.21,2.21,0,0,1,.61-.61,1.48,1.48,0,0,1,.84-.24,1.28,1.28,0,0,1,.71.2,1,1,0,0,1,.4.56h0l.49-2.42h.42l-1.06,5.32h.6l-.08.38Zm-1.55-.28a.92.92,0,0,0,.44-.1,1.25,1.25,0,0,0,.39-.27,1.86,1.86,0,0,0,.37-.45,1.83,1.83,0,0,0,.21-.61l.19-.92a.92.92,0,0,0,0-.37.67.67,0,0,0-.15-.33.73.73,0,0,0-.32-.24,1.19,1.19,0,0,0-.49-.09,1.22,1.22,0,0,0-.92.37,2,2,0,0,0-.49,1l-.09.46,0,.22c0,.07,0,.15,0,.24a1.7,1.7,0,0,0,0,.41.91.91,0,0,0,.17.34.71.71,0,0,0,.28.23A1,1,0,0,0,107.21,251.29Z"/><path class="cls-8" d="M111.82,251.66a1.35,1.35,0,0,1-1.06-.4,1.72,1.72,0,0,1-.38-1.21,3,3,0,0,1,.15-1,2.42,2.42,0,0,1,.41-.8,1.85,1.85,0,0,1,.63-.55,1.64,1.64,0,0,1,.82-.21,1.87,1.87,0,0,1,.49.07,1.24,1.24,0,0,1,.4.19,1,1,0,0,1,.27.32.92.92,0,0,1,.1.44,1,1,0,0,1-.14.5,1.05,1.05,0,0,1-.47.4,2.64,2.64,0,0,1-.86.27,7.16,7.16,0,0,1-1.34.11.88.88,0,0,0,0,.17,1,1,0,0,0,0,.16,1.22,1.22,0,0,0,.26.84,1,1,0,0,0,.78.29,1.36,1.36,0,0,0,.74-.21,1.9,1.9,0,0,0,.57-.56l.29.24a2.25,2.25,0,0,1-.76.7A1.88,1.88,0,0,1,111.82,251.66Zm.53-3.75a1.23,1.23,0,0,0-.92.39,2,2,0,0,0-.5,1l0,.18a10.58,10.58,0,0,0,1.18-.09,2.8,2.8,0,0,0,.71-.2.72.72,0,0,0,.34-.29.74.74,0,0,0,.09-.36.52.52,0,0,0-.24-.48A1,1,0,0,0,112.35,247.91Z"/><path class="cls-8" d="M114.3,251.57l.78-3.94h.43l-.16.78h0a1.88,1.88,0,0,1,.52-.66,1.34,1.34,0,0,1,.76-.22,1,1,0,0,1,.76.29,1.12,1.12,0,0,1,.26.79,2.09,2.09,0,0,1,0,.24,1.09,1.09,0,0,1,0,.26l-.41,2.08h.6l-.08.38h-.57a.41.41,0,0,1-.27-.08.27.27,0,0,1-.1-.24v-.11l0-.11.38-1.92a2,2,0,0,0,0-.24c0-.08,0-.15,0-.2,0-.51-.24-.76-.72-.76a1.12,1.12,0,0,0-.44.09,1.34,1.34,0,0,0-.41.29,2.61,2.61,0,0,0-.31.44,2.79,2.79,0,0,0-.2.55l-.45,2.29Z"/><path class="cls-8" d="M122.11,251.66a2.28,2.28,0,0,1-1.09-.23,1.61,1.61,0,0,1-.7-.69l.35-.25a1.5,1.5,0,0,0,.58.59,1.87,1.87,0,0,0,.87.18,1.81,1.81,0,0,0,.65-.1,1.23,1.23,0,0,0,.46-.28,1,1,0,0,0,.27-.41,1.35,1.35,0,0,0,.09-.5.82.82,0,0,0-.21-.59,1.21,1.21,0,0,0-.65-.33l-.58-.12a1.22,1.22,0,0,1-1.1-1.27,1.52,1.52,0,0,1,.11-.6,1.43,1.43,0,0,1,.34-.5,1.82,1.82,0,0,1,.56-.34,2.26,2.26,0,0,1,.77-.12,2.07,2.07,0,0,1,1,.22,1.71,1.71,0,0,1,.64.58l-.33.26a1.48,1.48,0,0,0-.54-.49,1.8,1.8,0,0,0-.83-.17,1.41,1.41,0,0,0-1,.31,1.06,1.06,0,0,0-.34.82.87.87,0,0,0,.2.6,1.17,1.17,0,0,0,.64.32l.57.12a1.69,1.69,0,0,1,.85.45,1.2,1.2,0,0,1,.29.83,1.67,1.67,0,0,1-.13.67,1.42,1.42,0,0,1-.36.54,1.84,1.84,0,0,1-.6.37A2.39,2.39,0,0,1,122.11,251.66Z"/><path class="cls-8" d="M125.44,251.57a.43.43,0,0,1-.3-.09.38.38,0,0,1-.1-.26v-.07a.51.51,0,0,1,0-.09l.69-3.43h.43l-.72,3.56h.6l-.07.38Zm.76-5a.27.27,0,0,1-.2-.07.2.2,0,0,1-.06-.15v-.05a.71.71,0,0,0,0-.12.3.3,0,0,1,.33-.25.29.29,0,0,1,.21.07.2.2,0,0,1,.06.15s0,0,0,.05,0,.06,0,.12A.3.3,0,0,1,126.2,246.56Z"/><path class="cls-8" d="M128.5,251.66a1.37,1.37,0,0,1-1.06-.4,1.72,1.72,0,0,1-.38-1.21,3,3,0,0,1,.15-1,2.42,2.42,0,0,1,.41-.8,1.85,1.85,0,0,1,.63-.55,1.65,1.65,0,0,1,.83-.21,1.85,1.85,0,0,1,.48.07,1.14,1.14,0,0,1,.4.19,1,1,0,0,1,.27.32.92.92,0,0,1,.1.44.88.88,0,0,1-.14.5,1.08,1.08,0,0,1-.46.4,2.79,2.79,0,0,1-.87.27,7.16,7.16,0,0,1-1.34.11.88.88,0,0,0,0,.17v.16a1.22,1.22,0,0,0,.25.84,1,1,0,0,0,.78.29,1.39,1.39,0,0,0,.75-.21,1.87,1.87,0,0,0,.56-.56l.29.24a2.16,2.16,0,0,1-.76.7A1.85,1.85,0,0,1,128.5,251.66Zm.53-3.75a1.21,1.21,0,0,0-.91.39,2,2,0,0,0-.51,1l0,.18a10.38,10.38,0,0,0,1.18-.09,2.8,2.8,0,0,0,.71-.2.72.72,0,0,0,.34-.29.74.74,0,0,0,.09-.36.54.54,0,0,0-.23-.48A1.09,1.09,0,0,0,129,247.91Z"/><path class="cls-8" d="M134.38,251.66a1.37,1.37,0,0,1-1.06-.4,1.72,1.72,0,0,1-.38-1.21,3,3,0,0,1,.15-1,2.42,2.42,0,0,1,.41-.8,1.85,1.85,0,0,1,.63-.55,1.64,1.64,0,0,1,.82-.21,1.87,1.87,0,0,1,.49.07,1.14,1.14,0,0,1,.4.19,1,1,0,0,1,.27.32.92.92,0,0,1,.1.44,1,1,0,0,1-.14.5,1.08,1.08,0,0,1-.46.4,2.79,2.79,0,0,1-.87.27,7.16,7.16,0,0,1-1.34.11.88.88,0,0,0,0,.17c0,.07,0,.12,0,.16a1.22,1.22,0,0,0,.26.84,1,1,0,0,0,.78.29,1.42,1.42,0,0,0,.75-.21,1.87,1.87,0,0,0,.56-.56l.29.24a2.16,2.16,0,0,1-.76.7A1.85,1.85,0,0,1,134.38,251.66Zm.53-3.75a1.2,1.2,0,0,0-.91.39,2,2,0,0,0-.51,1l0,.18a10.58,10.58,0,0,0,1.18-.09,2.8,2.8,0,0,0,.71-.2.72.72,0,0,0,.34-.29.74.74,0,0,0,.09-.36.54.54,0,0,0-.23-.48A1.09,1.09,0,0,0,134.91,247.91Z"/><path class="cls-8" d="M137.34,251.57a.41.41,0,0,1-.3-.09.34.34,0,0,1-.1-.26v-.07a.51.51,0,0,1,0-.09l.69-3.43h.43l-.72,3.56h.6l-.08.38Zm.76-5a.29.29,0,0,1-.21-.07.25.25,0,0,1,0-.15v-.05s0-.06,0-.12a.3.3,0,0,1,.33-.25.25.25,0,0,1,.2.07.2.2,0,0,1,.06.15v.05s0,.06,0,.12A.3.3,0,0,1,138.1,246.56Z"/><path class="cls-8" d="M138.88,251.57l.79-3.94h.43l-.16.78h0a1.78,1.78,0,0,1,.52-.66,1.31,1.31,0,0,1,.76-.22,1,1,0,0,1,.76.29,1.12,1.12,0,0,1,.26.79,2.32,2.32,0,0,1,0,.24,1.09,1.09,0,0,1,0,.26l-.41,2.08h.6l-.08.38h-.57a.47.47,0,0,1-.28-.08.3.3,0,0,1-.1-.24s0-.07,0-.11,0-.07,0-.11l.39-1.92a2,2,0,0,0,0-.24,1.56,1.56,0,0,0,0-.2c0-.51-.23-.76-.71-.76a1.08,1.08,0,0,0-.44.09,1.24,1.24,0,0,0-.41.29,2.61,2.61,0,0,0-.31.44,2.27,2.27,0,0,0-.2.55l-.45,2.29Z"/><path class="cls-8" d="M83.21,255.84l-1,5h-.45l1-5H81l.07-.4h4l-.09.4Z"/><path class="cls-8" d="M86,260.91a1.39,1.39,0,0,1-1.07-.4,1.72,1.72,0,0,1-.37-1.21,3.12,3.12,0,0,1,.14-1,2.87,2.87,0,0,1,.41-.8,2,2,0,0,1,.63-.54,1.65,1.65,0,0,1,.83-.21,1.57,1.57,0,0,1,.49.07,1.18,1.18,0,0,1,.39.19.76.76,0,0,1,.27.32.89.89,0,0,1,.1.44.88.88,0,0,1-.14.5,1.09,1.09,0,0,1-.46.4,3.45,3.45,0,0,1-.87.27,8,8,0,0,1-1.34.11.88.88,0,0,0,0,.17v.16a1.18,1.18,0,0,0,.26.84,1,1,0,0,0,.77.28,1.45,1.45,0,0,0,.75-.2,1.87,1.87,0,0,0,.56-.56l.29.23a2,2,0,0,1-.76.7A1.85,1.85,0,0,1,86,260.91Zm.52-3.75a1.21,1.21,0,0,0-.91.39,2,2,0,0,0-.51,1l0,.19a10,10,0,0,0,1.18-.1,2.73,2.73,0,0,0,.71-.19.75.75,0,0,0,.35-.29.86.86,0,0,0,.08-.36.53.53,0,0,0-.23-.49A1.18,1.18,0,0,0,86.47,257.16Z"/><path class="cls-8" d="M88.89,260.82a.4.4,0,0,1-.3-.1.36.36,0,0,1-.09-.26v-.06a.31.31,0,0,1,0-.09l.7-3.44h.42l-.72,3.57h.6l-.07.38Zm.76-5a.28.28,0,0,1-.2-.06.24.24,0,0,1-.06-.15.13.13,0,0,1,0-.06.54.54,0,0,1,0-.11.3.3,0,0,1,.34-.25.24.24,0,0,1,.2.07.2.2,0,0,1,.06.15.11.11,0,0,1,0,.05.68.68,0,0,1,0,.12A.31.31,0,0,1,89.65,255.8Z"/><path class="cls-8" d="M90.92,260.82a.38.38,0,0,1-.3-.1.36.36,0,0,1-.1-.26v-.06a.51.51,0,0,1,0-.09l1-5.19H92l-1.06,5.32h.62l-.07.38Z"/><path class="cls-8" d="M97.32,260.82a.37.37,0,0,1-.29-.1.33.33,0,0,1-.1-.24.81.81,0,0,1,0-.2L97,260h0a2,2,0,0,1-.56.71,1.2,1.2,0,0,1-.77.24,1.06,1.06,0,0,1-.51-.11,1.14,1.14,0,0,1-.39-.3,1.54,1.54,0,0,1-.24-.46,2,2,0,0,1-.08-.62,3.93,3.93,0,0,1,.12-.95,2.94,2.94,0,0,1,.36-.85,2,2,0,0,1,.6-.6,1.48,1.48,0,0,1,.84-.24,1.24,1.24,0,0,1,.71.2.93.93,0,0,1,.4.56h0l.49-2.42h.42l-1.06,5.32H98l-.08.38Zm-1.55-.29a1.1,1.1,0,0,0,.45-.09,1.33,1.33,0,0,0,.38-.27,1.86,1.86,0,0,0,.37-.45,1.64,1.64,0,0,0,.22-.61l.18-.92a.93.93,0,0,0,0-.37,1,1,0,0,0-.15-.34,1,1,0,0,0-.32-.23,1.24,1.24,0,0,0-.5-.09,1.2,1.2,0,0,0-.91.37,2,2,0,0,0-.49,1l-.09.47,0,.21a1.93,1.93,0,0,0,0,.24,1.42,1.42,0,0,0,.05.42.82.82,0,0,0,.16.34.76.76,0,0,0,.28.22A.84.84,0,0,0,95.77,260.53Z"/><path class="cls-8" d="M100.4,260.91a1.37,1.37,0,0,1-1.07-.4A1.72,1.72,0,0,1,99,259.3a3.12,3.12,0,0,1,.15-1,2.63,2.63,0,0,1,.41-.8,1.82,1.82,0,0,1,.63-.54,1.64,1.64,0,0,1,.82-.21,1.53,1.53,0,0,1,.49.07,1.14,1.14,0,0,1,.4.19.94.94,0,0,1,.27.32.89.89,0,0,1,.1.44,1,1,0,0,1-.14.5,1.15,1.15,0,0,1-.46.4,3.45,3.45,0,0,1-.87.27,8.12,8.12,0,0,1-1.34.11.88.88,0,0,0,0,.17v.16a1.22,1.22,0,0,0,.25.84,1,1,0,0,0,.78.28,1.48,1.48,0,0,0,.75-.2,2,2,0,0,0,.56-.56l.29.23a2,2,0,0,1-.76.7A1.85,1.85,0,0,1,100.4,260.91Zm.52-3.75a1.2,1.2,0,0,0-.91.39,2,2,0,0,0-.51,1l0,.19a10,10,0,0,0,1.18-.1,2.85,2.85,0,0,0,.71-.19.72.72,0,0,0,.34-.29.74.74,0,0,0,.09-.36.56.56,0,0,0-.23-.49A1.18,1.18,0,0,0,100.92,257.16Z"/><path class="cls-8" d="M102.86,260.82l.79-3.95h.43l-.18.83h0a2.11,2.11,0,0,1,.21-.31,1.6,1.6,0,0,1,.25-.27,1,1,0,0,1,.34-.18,1.52,1.52,0,0,1,.45-.07h.25l-.09.43h-.25a1.36,1.36,0,0,0-.51.09,1.33,1.33,0,0,0-.39.26,1.29,1.29,0,0,0-.28.38,1.57,1.57,0,0,0-.16.46l-.46,2.33Z"/><path class="cls-8" d="M110.9,260.82l-.27-1.67h-2.22l-.87,1.67h-.48l2.85-5.38h.59l.85,5.38Zm-.76-4.94h0l-1.49,2.87h2Z"/><path class="cls-8" d="M113.41,256.87l-.49,2.47a.88.88,0,0,0,0,.24,1.56,1.56,0,0,0,0,.2.85.85,0,0,0,.16.56.67.67,0,0,0,.54.19,1.32,1.32,0,0,0,.44-.08,1.2,1.2,0,0,0,.4-.29,2.47,2.47,0,0,0,.31-.46,2.29,2.29,0,0,0,.2-.53l.45-2.3h.43l-.71,3.57h.59l-.07.38h-.56a.37.37,0,0,1-.29-.1.33.33,0,0,1-.09-.25s0-.1,0-.19l0-.25h0a1.63,1.63,0,0,1-.52.66,1.21,1.21,0,0,1-.75.22,1,1,0,0,1-.76-.28,1.14,1.14,0,0,1-.25-.79,2.09,2.09,0,0,1,0-.24c0-.09,0-.18,0-.27l.5-2.46Z"/><path class="cls-8" d="M117.87,260.91a1.83,1.83,0,0,1-.85-.19,1.59,1.59,0,0,1-.62-.56l.3-.25a1.32,1.32,0,0,0,1.17.62,1.22,1.22,0,0,0,.74-.21.78.78,0,0,0,.28-.63.53.53,0,0,0-.15-.41,1.15,1.15,0,0,0-.52-.24l-.33-.07a2.09,2.09,0,0,1-.4-.12,1.42,1.42,0,0,1-.32-.19.69.69,0,0,1-.2-.28,1,1,0,0,1-.08-.41,1.09,1.09,0,0,1,.37-.85,1.42,1.42,0,0,1,1-.34,1.6,1.6,0,0,1,.77.17,1.63,1.63,0,0,1,.51.43l-.3.26a1.57,1.57,0,0,0-.38-.34,1.28,1.28,0,0,0-.63-.14,1.06,1.06,0,0,0-.71.21.72.72,0,0,0-.24.57.54.54,0,0,0,.15.41,1,1,0,0,0,.5.23l.33.08a2.2,2.2,0,0,1,.41.12,1.23,1.23,0,0,1,.32.19.84.84,0,0,1,.2.29,1,1,0,0,1,.08.4,1.29,1.29,0,0,1-.11.53,1.14,1.14,0,0,1-.3.39,1.36,1.36,0,0,1-.46.25A2,2,0,0,1,117.87,260.91Z"/><path class="cls-8" d="M120.76,260.82a.4.4,0,0,1-.31-.1.33.33,0,0,1-.09-.25,1.25,1.25,0,0,1,0-.21l.6-3h-.64l.07-.38h.4a.33.33,0,0,0,.24-.07.46.46,0,0,0,.09-.23l.16-.8h.4l-.22,1.1h.88l-.08.38h-.87l-.64,3.19h.81l-.07.38Z"/><path class="cls-8" d="M124.11,260.91a1.39,1.39,0,0,1-1.07-.4,1.77,1.77,0,0,1-.37-1.21,3.12,3.12,0,0,1,.15-1,2.42,2.42,0,0,1,.41-.8,1.82,1.82,0,0,1,.63-.54,1.61,1.61,0,0,1,.82-.21,1.53,1.53,0,0,1,.49.07,1.24,1.24,0,0,1,.4.19.94.94,0,0,1,.27.32.89.89,0,0,1,.1.44,1,1,0,0,1-.14.5,1.12,1.12,0,0,1-.47.4,3.24,3.24,0,0,1-.86.27,8.12,8.12,0,0,1-1.34.11.88.88,0,0,0,0,.17,1,1,0,0,0,0,.16,1.22,1.22,0,0,0,.26.84,1,1,0,0,0,.78.28,1.44,1.44,0,0,0,.74-.2,2,2,0,0,0,.57-.56l.29.23a2.06,2.06,0,0,1-.76.7A1.92,1.92,0,0,1,124.11,260.91Zm.53-3.75a1.23,1.23,0,0,0-.92.39,2,2,0,0,0-.5,1l0,.19a10.25,10.25,0,0,0,1.18-.1,2.85,2.85,0,0,0,.71-.19.72.72,0,0,0,.34-.29.74.74,0,0,0,.09-.36.54.54,0,0,0-.24-.49A1.12,1.12,0,0,0,124.64,257.16Z"/><path class="cls-8" d="M127.06,260.82a.38.38,0,0,1-.3-.1.36.36,0,0,1-.1-.26v-.06a.51.51,0,0,1,0-.09l1-5.19h.42l-1.06,5.32h.62l-.07.38Z"/><path class="cls-8" d="M129.05,260.82a.4.4,0,0,1-.3-.1.36.36,0,0,1-.09-.26v-.06a.34.34,0,0,1,0-.09l1-5.19h.43l-1.07,5.32h.63l-.08.38Z"/><path class="cls-8" d="M131.76,256.87l-.5,2.47,0,.24c0,.08,0,.15,0,.2a.85.85,0,0,0,.17.56.66.66,0,0,0,.53.19,1.33,1.33,0,0,0,.45-.08,1.31,1.31,0,0,0,.4-.29,3.08,3.08,0,0,0,.31-.46,2.25,2.25,0,0,0,.19-.53l.46-2.3h.42l-.71,3.57h.6l-.07.38h-.57a.36.36,0,0,1-.28-.1.33.33,0,0,1-.09-.25s0-.1,0-.19l0-.25h0a1.72,1.72,0,0,1-.52.66,1.25,1.25,0,0,1-.75.22,1,1,0,0,1-.76-.28,1.14,1.14,0,0,1-.26-.79,2.32,2.32,0,0,1,0-.24,2.51,2.51,0,0,1,0-.27l.49-2.46Z"/><path class="cls-8" d="M135,260.82l.78-3.95h.44l-.17.79h0a1.61,1.61,0,0,1,.52-.66,1.21,1.21,0,0,1,.75-.22,1,1,0,0,1,.77.28,1.14,1.14,0,0,1,.25.79,2.26,2.26,0,0,1,0,.25,2.34,2.34,0,0,1,0,.26l-.42,2.08h.6l-.07.38h-.57a.44.44,0,0,1-.28-.08.3.3,0,0,1-.1-.24.37.37,0,0,1,0-.11.52.52,0,0,1,0-.11l.38-1.92c0-.09,0-.17,0-.25a1.42,1.42,0,0,0,0-.19c0-.51-.24-.76-.72-.76a1.12,1.12,0,0,0-.44.09,1.08,1.08,0,0,0-.4.29,1.64,1.64,0,0,0-.31.44,1.82,1.82,0,0,0-.2.55l-.46,2.29Z"/><path class="cls-8" d="M142.5,261.16a1.09,1.09,0,0,1-.11.51,1.07,1.07,0,0,1-.35.42,2.06,2.06,0,0,1-.63.27,4.22,4.22,0,0,1-.94.09,2.2,2.2,0,0,1-1.15-.23.72.72,0,0,1-.39-.66.84.84,0,0,1,.21-.57,1.45,1.45,0,0,1,.6-.36v0a.49.49,0,0,1-.32-.48.59.59,0,0,1,.21-.47,1.36,1.36,0,0,1,.58-.27v-.05a.89.89,0,0,1-.41-.38,1.17,1.17,0,0,1-.14-.57,1.71,1.71,0,0,1,.12-.65,1.56,1.56,0,0,1,.33-.5,1.34,1.34,0,0,1,.51-.32,1.69,1.69,0,0,1,.64-.12,1.44,1.44,0,0,1,.43.06,1.07,1.07,0,0,1,.34.16l0-.23a.52.52,0,0,1,.13-.28.4.4,0,0,1,.29-.11h.63l-.07.38h-.72l-.08.43a1.1,1.1,0,0,1,.22.69,1.66,1.66,0,0,1-.12.64,1.45,1.45,0,0,1-.33.5,1.72,1.72,0,0,1-.51.33,2,2,0,0,1-.66.11,1.66,1.66,0,0,1-.32,0,1.39,1.39,0,0,0-.53.21.41.41,0,0,0-.18.34.27.27,0,0,0,.12.23.75.75,0,0,0,.4.08h1a1.45,1.45,0,0,1,.93.23A.8.8,0,0,1,142.5,261.16Zm-.43.08a.51.51,0,0,0-.18-.41,1,1,0,0,0-.62-.14H140a1.17,1.17,0,0,0-.46.29.67.67,0,0,0-.17.46.56.56,0,0,0,.24.49,1.33,1.33,0,0,0,.74.17h.32a2,2,0,0,0,1-.23A.68.68,0,0,0,142.07,261.24Zm-1.15-2.12a1,1,0,0,0,.73-.23,1.11,1.11,0,0,0,.34-.62c0-.14,0-.23,0-.29a.71.71,0,0,0,0-.14.69.69,0,0,0-.2-.51.84.84,0,0,0-.62-.2,1,1,0,0,0-1.07.85c0,.14,0,.23,0,.29a.93.93,0,0,0,0,.14.67.67,0,0,0,.21.52A.85.85,0,0,0,140.92,259.12Z"/><g class="cls-5"><path class="cls-4" d="M147.38,186.91l2.89-3.93,2.89-3.93a1,1,0,0,0,.14-.43.91.91,0,0,0-.11-.45.8.8,0,0,0-.31-.32.86.86,0,0,0-.44-.12h-4.86l3.91-4.38L155.4,169l-2.27,3.15-2.28,3.15a.82.82,0,0,0-.12.43.87.87,0,0,0,.42.76.83.83,0,0,0,.44.12H157l-4.81,5.16Zm11.69-12h-5.95l2.1-3.45,2.11-3.46a.86.86,0,0,0-.2-1.12.81.81,0,0,0-.59-.18.8.8,0,0,0-.55.25l-5.55,5.53L144.89,178a.82.82,0,0,0-.23.44.83.83,0,0,0,.05.49.81.81,0,0,0,.31.39.91.91,0,0,0,.48.15h5.35l-3,4.67-3,4.68a.86.86,0,0,0,.18,1.14.94.94,0,0,0,.26.14.92.92,0,0,0,.28,0,1,1,0,0,0,.33-.06,1.07,1.07,0,0,0,.28-.19l6.78-6.77,6.78-6.77a.84.84,0,0,0,.24-.44.86.86,0,0,0,0-.5.87.87,0,0,0-.32-.39.84.84,0,0,0-.47-.14"/><path class="cls-4" d="M152.24,130.29l2.2,1.27,2.2,1.26-5.22,3-5.21,3-2.2-1.27-2.19-1.26,5.21-3Zm.95,25V143.86l1.09-.63,1.1-.63,4.11-2.38,4.12-2.37v11.38l-5.21,3Zm9.56-18.9-5.21,3-5.22,3-2.19-1.27-2.2-1.26,5.21-3,5.22-3,2.19,1.27ZM141,137.8l2.19,1.27,2.2,1.26v6.25a.83.83,0,0,0,.25.61.87.87,0,0,0,1.22,0,.87.87,0,0,0,.25-.61v-5.25l2.2,1.27,2.2,1.27v11.38l-5.26-3-5.25-3V137.8Zm-1.72,11.88a.85.85,0,0,0,.43.75l6.11,3.53,6.12,3.53a.67.67,0,0,0,.21.09l.22,0,.22,0,.21-.09h0l6.07-3.51,6.07-3.5a.89.89,0,0,0,.32-.32.92.92,0,0,0,.11-.43V136.35a.92.92,0,0,0-.11-.43,1,1,0,0,0-.32-.31h0l-3-1.73-3-1.72a.41.41,0,0,0-.11-.07l-.11-.06-3-1.74-3-1.74a.83.83,0,0,0-.86,0l-6.07,3.5-6.07,3.51a.82.82,0,0,0-.32.32.86.86,0,0,0-.11.43h0v13.37Z"/><path class="cls-4" d="M149,118.25a.67.67,0,0,0,.24,0,.86.86,0,0,0,.24-.11l1-.66,1-.65v8.65a.85.85,0,0,0,.26.61.86.86,0,0,0,1.21,0,.85.85,0,0,0,.25-.61v-8.65l1,.65,1,.66a.86.86,0,0,0,1.33-.88.87.87,0,0,0-.37-.55l-1.65-1.1-1.66-1.11a.88.88,0,0,0-.45-.2,1.17,1.17,0,0,0-.5.2l-1.66,1.11-1.65,1.1a.87.87,0,0,0-.37.55.89.89,0,0,0,.13.65.94.94,0,0,0,.32.28.91.91,0,0,0,.4.1"/><path class="cls-4" d="M126.37,139.36a.86.86,0,0,0,.6-.25.9.9,0,0,0,.26-.61v-1.81l4,2.33,4,2.33a.9.9,0,0,0,.21.08.83.83,0,0,0,.22,0,.92.92,0,0,0,.43-.11.82.82,0,0,0,.32-.32.86.86,0,0,0-.32-1.17l-3.29-1.9-3.29-1.9h2.51a.83.83,0,0,0,.61-.25.85.85,0,0,0,.25-.61.81.81,0,0,0-.26-.6.94.94,0,0,0-.6-.26h-5.71a.9.9,0,0,0-.61.21.85.85,0,0,0-.25.65v3.29a.86.86,0,0,0,.24.61.81.81,0,0,0,.6.26h0Z"/><path class="cls-4" d="M178.2,139.36a.86.86,0,0,1-.6-.25.85.85,0,0,1-.26-.61v-1.81l-4,2.33-4,2.33a.9.9,0,0,1-.21.08l-.22,0a.92.92,0,0,1-.43-.11.82.82,0,0,1-.32-.32.86.86,0,0,1,.32-1.17l3.29-1.9,3.29-1.9h-2.52a.82.82,0,0,1-.6-.25.85.85,0,0,1-.25-.61.81.81,0,0,1,.26-.6.94.94,0,0,1,.6-.26h5.7a.91.91,0,0,1,.62.21.84.84,0,0,1,.24.65v3.29a.86.86,0,0,1-.24.61.79.79,0,0,1-.59.26Z"/><path class="cls-4" d="M177.67,160.57H126.9a.86.86,0,0,0-.61,1.47.85.85,0,0,0,.61.25h50.77a.82.82,0,0,0,.6-.25.85.85,0,0,0,0-1.22.86.86,0,0,0-.6-.25"/><path class="cls-4" d="M152.28,110.72a42.56,42.56,0,1,0,30.06,12.47,42.39,42.39,0,0,0-30.06-12.47m0,87a44.57,44.57,0,1,1,31.47-13.06,44.38,44.38,0,0,1-31.47,13.06"/></g></g></svg>