<svg xmlns="http://www.w3.org/2000/svg" viewBox="0 0 305.62 305.62"><defs><style>.cls-1,.cls-2,.cls-8{fill:none;stroke-miterlimit:10;}.cls-1{stroke:#fff;stroke-width:1.25px;}.cls-2{stroke:#000;stroke-width:0.25px;}.cls-3{fill:#e2001a;}.cls-4{fill:#2699d1;}.cls-5{fill:#1a171b;}.cls-6{fill:#e87e1d;}.cls-7{fill:#ea7c1b;}.cls-8{stroke:#ea7c1b;stroke-width:1.8px;}</style></defs><title>de_innoSurvey_nutzer_front</title><g id="Ebene_2" data-name="Ebene 2"><path class="cls-1" d="M284.62,290.62v15m0-290.62V0M21,290.62v15M21,15V0M290.62,284.62h15M15,284.62H0M290.62,21h15M15,21H0"/><path class="cls-2" d="M284.62,290.62v15m0-290.62V0M21,290.62v15M21,15V0M290.62,284.62h15M15,284.62H0M290.62,21h15M15,21H0"/></g><g id="Ebene_1" data-name="Ebene 1"><path class="cls-3" d="M152.52,240.91a4.45,4.45,0,0,0-.45,8.87c1.91.2,2.61,1.32,2.36,3.75,0,.24,0,.48,0,.73a7,7,0,1,0,7-7c-.24,0-.49,0-.73,0-2.43.26-3.55-.45-3.75-2.36a4.43,4.43,0,0,0-4.43-4m8.91,20.49a7.15,7.15,0,0,1-7.14-7.14c0-.25,0-.5,0-.74.25-2.39-.4-3.44-2.26-3.64a4.55,4.55,0,1,1,5-5c.2,1.86,1.25,2.51,3.64,2.26.24,0,.49,0,.74,0a7.14,7.14,0,0,1,0,14.28"/><path class="cls-3" d="M153.73,243.06a3.5,3.5,0,0,0-.36,7c1.52.16,2.08,1.05,1.88,3a5.55,5.55,0,1,0,4.94-4.94c-1.93.2-2.82-.36-3-1.88a3.49,3.49,0,0,0-3.48-3.14m7,16.19a5.66,5.66,0,0,1-5.62-6.24c.2-1.88-.32-2.71-1.78-2.86a3.61,3.61,0,1,1,4-4c.15,1.46,1,2,2.86,1.78l.58,0a5.66,5.66,0,1,1,0,11.31"/><path class="cls-3" d="M154.93,245.21a2.56,2.56,0,0,0-.26,5.1c1.12.12,1.54.78,1.39,2.2,0,.14,0,.28,0,.42a4.06,4.06,0,1,0,4.06-4.06l-.42,0c-1.42.15-2.08-.26-2.2-1.38a2.55,2.55,0,0,0-2.55-2.3m5.17,11.89a4.17,4.17,0,0,1-4.17-4.17,3.11,3.11,0,0,1,0-.43c.14-1.37-.24-2-1.3-2.08a2.67,2.67,0,1,1,2.92-2.93c.12,1.07.72,1.44,2.09,1.3a3.1,3.1,0,0,1,.43,0,4.17,4.17,0,1,1,0,8.33"/><path class="cls-3" d="M156.08,250.59c.65.11.89.54.8,1.41a2.44,2.44,0,0,0,0,.27,2.57,2.57,0,1,0,2.57-2.57h-.27a1.5,1.5,0,0,1-1.06-.17.88.88,0,0,1-.35-.63h0l0-.1a1.61,1.61,0,1,0-1.76,1.76h.1Zm3.36,4.36a2.68,2.68,0,0,1-2.68-2.68,2.62,2.62,0,0,1,0-.28c.11-1.06-.32-1.26-.81-1.31h-.1a1.72,1.72,0,1,1,2-2h0l0,.1a.83.83,0,0,0,.32.67,1.5,1.5,0,0,0,1,.14h.28a2.68,2.68,0,0,1,0,5.36"/><path class="cls-4" d="M162,240.71a8.32,8.32,0,0,0-8.31,8.31,8.43,8.43,0,0,0,.05.86c.29,2.86-.54,4.18-2.78,4.42a5.25,5.25,0,1,0,5.77,5.76c.23-2.24,1.55-3.07,4.41-2.77a8.31,8.31,0,1,0,.86-16.58m-10.5,24.18a5.36,5.36,0,0,1-.55-10.7c2.2-.23,3-1.47,2.68-4.3a8.47,8.47,0,1,1,7.5,7.5c-2.82-.29-4.07.49-4.3,2.68a5.34,5.34,0,0,1-5.33,4.82"/><path class="cls-4" d="M161.68,241.75a7.61,7.61,0,0,0-7.59,7.59c0,.26,0,.53,0,.79.27,2.62-.49,3.82-2.54,4a4.8,4.8,0,1,0,5.27,5.26c.21-2.05,1.42-2.81,4-2.54a6.91,6.91,0,0,0,.78,0,7.59,7.59,0,1,0,0-15.18m-9.6,22.1a4.91,4.91,0,0,1-.5-9.79c2-.21,2.71-1.34,2.45-3.92a7.26,7.26,0,0,1,0-.8,7.7,7.7,0,1,1,7.69,7.7c-.26,0-.53,0-.8,0-2.57-.27-3.71.44-3.92,2.44a4.89,4.89,0,0,1-4.88,4.41"/><path class="cls-4" d="M161.36,242.79a6.88,6.88,0,0,0-6.87,6.87,5.53,5.53,0,0,0,0,.71c.24,2.38-.44,3.47-2.31,3.67A4.34,4.34,0,1,0,157,258.8c.2-1.86,1.3-2.55,3.67-2.3l.71,0a6.87,6.87,0,0,0,0-13.74m-8.7,20a4.45,4.45,0,0,1-.45-8.88c1.81-.19,2.45-1.21,2.21-3.54,0-.25,0-.49,0-.73a7,7,0,1,1,7,7,5.79,5.79,0,0,1-.72,0c-2.33-.24-3.36.4-3.55,2.21a4.43,4.43,0,0,1-4.43,4"/><path class="cls-4" d="M161,243.83a6.16,6.16,0,0,0-6.15,6.15c0,.21,0,.43,0,.64.22,2.13-.39,3.12-2.07,3.29a3.89,3.89,0,1,0,4.26,4.26c.18-1.67,1.16-2.29,3.29-2.07l.64,0a6.15,6.15,0,1,0,0-12.3m-7.79,17.94a4,4,0,0,1-.41-8c1.62-.18,2.19-1.09,2-3.18,0-.22,0-.43,0-.65a6.26,6.26,0,1,1,6.26,6.26l-.65,0c-2.08-.22-3,.35-3.17,2a4,4,0,0,1-4,3.59"/><path class="cls-4" d="M160.72,244.88a5.42,5.42,0,0,0-5.4,6c.2,1.88-.35,2.76-1.84,2.91a3.43,3.43,0,1,0,3.76,3.76c.16-1.48,1-2,2.92-1.84l.56,0a5.43,5.43,0,1,0,0-10.85m-6.89,15.85a3.53,3.53,0,0,1-.36-7.05c1.43-.15,1.93-1,1.74-2.8a5.63,5.63,0,0,1,0-.58,5.54,5.54,0,1,1,5.54,5.54,5.44,5.44,0,0,1-.57,0c-1.84-.19-2.65.31-2.8,1.74a3.53,3.53,0,0,1-3.52,3.18"/><path class="cls-4" d="M160.4,245.92a4.71,4.71,0,0,0-4.71,4.71c0,.16,0,.32,0,.48.17,1.65-.3,2.41-1.6,2.54a3,3,0,1,0,3.26,3.26c.14-1.29.9-1.77,2.54-1.6a4,4,0,0,0,.49,0,4.71,4.71,0,1,0,0-9.41m-6,13.76a3.07,3.07,0,0,1-.32-6.13c1.24-.13,1.67-.84,1.51-2.43a4,4,0,0,1,0-.49,4.82,4.82,0,1,1,4.82,4.81,4.19,4.19,0,0,1-.5,0c-1.59-.16-2.29.28-2.42,1.51a3.06,3.06,0,0,1-3.06,2.76"/><path class="cls-4" d="M160.08,247a4,4,0,0,0-4,4c0,.13,0,.27,0,.41.15,1.4-.26,2-1.37,2.16a2.52,2.52,0,1,0,2.76,2.76c.12-1.1.76-1.51,2.16-1.37a3,3,0,0,0,.42,0,4,4,0,1,0,0-8M155,258.64a2.62,2.62,0,0,1-.27-5.22c1.05-.11,1.41-.7,1.27-2,0-.14,0-.28,0-.42a4.1,4.1,0,1,1,4.1,4.09l-.43,0c-1.34-.14-1.94.23-2,1.27a2.62,2.62,0,0,1-2.61,2.35"/><path class="cls-4" d="M155.48,253.38h0l-.11,0a2,2,0,0,0-1.85,2,2,2,0,0,0,4.09.2v-.11h0c.13-.83.67-1.14,1.78-1l.34,0a3.27,3.27,0,1,0-3.27-3.27,2,2,0,0,0,0,.34c.11,1.11-.2,1.65-1,1.77m.1,4.22a2.16,2.16,0,0,1-.32-4.29h.1c.85-.09,1.15-.57,1-1.67,0-.12,0-.24,0-.35a3.38,3.38,0,1,1,3,3.35c-1.1-.11-1.59.19-1.68,1v.11h0a2.14,2.14,0,0,1-2.13,1.84"/><path class="cls-4" d="M156.11,253.25H156a1.6,1.6,0,1,0,1.74,1.74v-.09c.11-.65.53-.89,1.4-.8l.27,0a2.55,2.55,0,1,0-2.55-2.55,2.35,2.35,0,0,0,0,.26c.09.87-.15,1.3-.79,1.4m.06,3.31a1.7,1.7,0,0,1-.28-3.38h0l.1,0c.48,0,.91-.24.8-1.3,0-.09,0-.18,0-.27a2.66,2.66,0,1,1,2.66,2.65h-.28c-1-.11-1.25.32-1.3.8v.11h0a1.69,1.69,0,0,1-1.67,1.43"/><path class="cls-4" d="M156.74,253.13h-.1a1.14,1.14,0,1,0,1.24,1.24v-.11a.63.63,0,0,1,.26-.42,1,1,0,0,1,.63-.13l0,0,.16,0H159l.14,0a1.83,1.83,0,1,0-1.83-1.83.71.71,0,0,0,0,.14v.19a1,1,0,0,1-.14.63.65.65,0,0,1-.43.26m0,2.39a1.25,1.25,0,0,1-.23-2.47h0l.1,0a.59.59,0,0,0,.47-.22,1.09,1.09,0,0,0,.1-.7V252h0v-.05a1.94,1.94,0,1,1,1.94,1.93h-.05l-.15,0a1,1,0,0,0-.71.11.63.63,0,0,0-.22.46v.12h0a1.24,1.24,0,0,1-1.22,1"/><path class="cls-5" d="M173.87,248.79a1.14,1.14,0,0,0,.23.73.77.77,0,0,0,1.2,0,1.12,1.12,0,0,0,.23-.75v-.05a1.27,1.27,0,0,0-.1-.52.85.85,0,0,0-.3-.37.78.78,0,0,0-.43-.13.73.73,0,0,0-.6.29,1.18,1.18,0,0,0-.23.75Zm-.28-.07a1.51,1.51,0,0,1,.14-.65,1,1,0,0,1,.39-.44,1,1,0,0,1,.58-.16,1,1,0,0,1,.8.35,1.35,1.35,0,0,1,.31.92v0a1.51,1.51,0,0,1-.14.65,1,1,0,0,1-.39.44,1.11,1.11,0,0,1-1.38-.19,1.36,1.36,0,0,1-.31-.92Z"/><path class="cls-5" d="M178.09,248.73a1.3,1.3,0,0,0-.19-.75.65.65,0,0,0-.55-.27.75.75,0,0,0-.43.12.82.82,0,0,0-.28.35v1.19a.83.83,0,0,0,.28.33.9.9,0,0,0,.44.11.61.61,0,0,0,.54-.28,1.37,1.37,0,0,0,.19-.8m.28.05a1.5,1.5,0,0,1-.26.92.81.81,0,0,1-.69.34.92.92,0,0,1-.78-.36V251h-.27v-3.44h.25l0,.36a.87.87,0,0,1,.77-.4.81.81,0,0,1,.7.34,1.49,1.49,0,0,1,.26.93Z"/><path class="cls-5" d="M179.88,247.7a.7.7,0,0,0-.52.23,1,1,0,0,0-.26.61h1.49v0a1,1,0,0,0-.2-.58.65.65,0,0,0-.51-.23m.05,2.34a1,1,0,0,1-.57-.16,1.11,1.11,0,0,1-.4-.43,1.41,1.41,0,0,1-.14-.62v-.1a1.51,1.51,0,0,1,.14-.65,1.07,1.07,0,0,1,.39-.45.92.92,0,0,1,.53-.16.9.9,0,0,1,.72.31,1.26,1.26,0,0,1,.26.84v.15h-1.77v.06a1,1,0,0,0,.25.7.78.78,0,0,0,.6.28.82.82,0,0,0,.7-.34l.17.13a1,1,0,0,1-.88.44"/><path class="cls-5" d="M181.66,247.52v.42a1,1,0,0,1,.34-.35.94.94,0,0,1,.47-.12.74.74,0,0,1,.59.22,1.08,1.08,0,0,1,.2.68V250H183v-1.62a.76.76,0,0,0-.14-.5.54.54,0,0,0-.44-.16.67.67,0,0,0-.45.16.89.89,0,0,0-.29.43V250h-.27v-2.47Z"/><path class="cls-5" d="M174,253.14v.41a1,1,0,0,1,.35-.34,1,1,0,0,1,.45-.11.7.7,0,0,1,.75.48,1.1,1.1,0,0,1,.35-.36,1.06,1.06,0,0,1,.5-.12q.79,0,.81.87v1.65h-.28V254a.73.73,0,0,0-.14-.49.57.57,0,0,0-.46-.16.69.69,0,0,0-.5.19.7.7,0,0,0-.23.45v1.64h-.27V254a.69.69,0,0,0-.15-.48.61.61,0,0,0-.45-.15.73.73,0,0,0-.45.14.92.92,0,0,0-.27.44v1.7h-.28v-2.48Z"/><path class="cls-5" d="M178,254.42a1.08,1.08,0,0,0,.23.73.77.77,0,0,0,1.2,0,1.12,1.12,0,0,0,.23-.75v-.05a1.27,1.27,0,0,0-.1-.52.85.85,0,0,0-.3-.37.8.8,0,0,0-.43-.13.73.73,0,0,0-.6.29,1.12,1.12,0,0,0-.23.75Zm-.28-.07a1.55,1.55,0,0,1,.14-.65,1,1,0,0,1,.39-.44,1.11,1.11,0,0,1,1.38.19,1.34,1.34,0,0,1,.3.92v0a1.51,1.51,0,0,1-.13.65,1.12,1.12,0,0,1-.39.44,1.11,1.11,0,0,1-1.38-.19,1.31,1.31,0,0,1-.31-.92Z"/><path class="cls-5" d="M182.25,254.36a1.28,1.28,0,0,0-.19-.76.63.63,0,0,0-.54-.26.72.72,0,0,0-.44.13.75.75,0,0,0-.28.38V255a.73.73,0,0,0,.73.47.61.61,0,0,0,.53-.27,1.35,1.35,0,0,0,.19-.8m.28,0a1.5,1.5,0,0,1-.26.92.81.81,0,0,1-.69.34.87.87,0,0,1-.78-.39l0,.34h-.25V252.1h.27v1.4a.85.85,0,0,1,.77-.4.83.83,0,0,1,.7.33,1.54,1.54,0,0,1,.26.94Z"/><path class="cls-5" d="M183.44,255.62h-.28v-2.48h.28Zm-.33-3.19a.19.19,0,0,1,0-.13.18.18,0,0,1,.14-.06.17.17,0,0,1,.14.06.19.19,0,0,1,.05.13.21.21,0,0,1-.05.13.2.2,0,0,1-.14.05.22.22,0,0,1-.14-.05.21.21,0,0,1,0-.13"/><rect class="cls-5" x="184.21" y="252.1" width="0.27" height="3.52"/><path class="cls-5" d="M93.42,251.57l-.26-5.38h.45l.19,4.8h0l2.2-4.8h.55l.29,4.8h0l2.15-4.8h.47L97,251.57h-.52l-.3-4.84h0L94,251.57Z"/><path class="cls-5" d="M100.8,251.66a1.39,1.39,0,0,1-1.07-.4,1.72,1.72,0,0,1-.37-1.21,3.32,3.32,0,0,1,.14-1,2.62,2.62,0,0,1,.41-.8,2,2,0,0,1,.64-.55,1.61,1.61,0,0,1,.82-.21,1.93,1.93,0,0,1,.49.07,1.34,1.34,0,0,1,.4.19.92.92,0,0,1,.37.76,1,1,0,0,1-.14.5,1.11,1.11,0,0,1-.47.4,2.79,2.79,0,0,1-.87.27,7.08,7.08,0,0,1-1.34.11s0,.11,0,.17v.16a1.22,1.22,0,0,0,.26.84,1,1,0,0,0,.77.29,1.37,1.37,0,0,0,.75-.21,1.76,1.76,0,0,0,.56-.56l.3.24a2.35,2.35,0,0,1-.76.7A1.91,1.91,0,0,1,100.8,251.66Zm.52-3.75a1.21,1.21,0,0,0-.91.39,1.93,1.93,0,0,0-.5,1l0,.18a10.78,10.78,0,0,0,1.18-.09,2.59,2.59,0,0,0,.7-.2.75.75,0,0,0,.35-.29.74.74,0,0,0,.09-.36.52.52,0,0,0-.24-.48A1.07,1.07,0,0,0,101.32,247.91Z"/><path class="cls-5" d="M103.27,251.57l.78-3.94h.43l-.17.82h0a3.28,3.28,0,0,1,.2-.31,1.66,1.66,0,0,1,.26-.27,1.56,1.56,0,0,1,.34-.18,1.51,1.51,0,0,1,.44-.06h.25l-.08.42h-.26a1.18,1.18,0,0,0-.5.1,1.33,1.33,0,0,0-.68.64,1.48,1.48,0,0,0-.16.46l-.46,2.32Z"/><path class="cls-5" d="M109,251.57a.4.4,0,0,1-.29-.09.37.37,0,0,1-.09-.25.68.68,0,0,1,0-.19l.06-.32h0a2.2,2.2,0,0,1-.56.71,1.38,1.38,0,0,1-1.28.13,1.13,1.13,0,0,1-.38-.3,1.41,1.41,0,0,1-.25-.47,2.31,2.31,0,0,1-.08-.61,3.81,3.81,0,0,1,.12-1,2.83,2.83,0,0,1,.36-.85,2.05,2.05,0,0,1,.6-.61,1.53,1.53,0,0,1,.84-.24,1.29,1.29,0,0,1,.72.2.91.91,0,0,1,.39.56h0l.48-2.42h.43L109,251.19h.6l-.07.38Zm-1.55-.28a.93.93,0,0,0,.45-.1,1.53,1.53,0,0,0,.39-.27,1.83,1.83,0,0,0,.36-.45,1.64,1.64,0,0,0,.22-.61l.19-.92a1.15,1.15,0,0,0,0-.37.67.67,0,0,0-.15-.33.8.8,0,0,0-.32-.24,1.24,1.24,0,0,0-.5-.09,1.2,1.2,0,0,0-.91.37,2,2,0,0,0-.49,1l-.09.46,0,.22a1.77,1.77,0,0,0,0,.24,1.7,1.7,0,0,0,0,.41.84.84,0,0,0,.44.57A1,1,0,0,0,107.4,251.29Z"/><path class="cls-5" d="M112,251.66a1.39,1.39,0,0,1-1.07-.4,1.72,1.72,0,0,1-.37-1.21,3.32,3.32,0,0,1,.14-1,2.62,2.62,0,0,1,.41-.8,2,2,0,0,1,.64-.55,1.61,1.61,0,0,1,.82-.21,1.93,1.93,0,0,1,.49.07,1.34,1.34,0,0,1,.4.19.92.92,0,0,1,.37.76,1,1,0,0,1-.14.5,1.11,1.11,0,0,1-.47.4,2.79,2.79,0,0,1-.87.27,7.08,7.08,0,0,1-1.34.11s0,.11,0,.17v.16a1.22,1.22,0,0,0,.26.84,1,1,0,0,0,.77.29,1.37,1.37,0,0,0,.75-.21,1.76,1.76,0,0,0,.56-.56l.29.24a2.23,2.23,0,0,1-.75.7A1.91,1.91,0,0,1,112,251.66Zm.52-3.75a1.21,1.21,0,0,0-.91.39,1.93,1.93,0,0,0-.5,1l0,.18a10.78,10.78,0,0,0,1.18-.09,2.59,2.59,0,0,0,.7-.2.75.75,0,0,0,.35-.29.74.74,0,0,0,.09-.36.52.52,0,0,0-.24-.48A1.07,1.07,0,0,0,112.54,247.91Z"/><path class="cls-5" d="M114.49,251.57l.79-3.94h.43l-.16.78h0a1.78,1.78,0,0,1,.52-.66,1.31,1.31,0,0,1,.76-.22,1,1,0,0,1,.76.29,1.12,1.12,0,0,1,.26.79,2.32,2.32,0,0,1,0,.24,1.09,1.09,0,0,1,0,.26l-.41,2.08h.6l-.08.38h-.57a.47.47,0,0,1-.28-.08.3.3,0,0,1-.1-.24.41.41,0,0,1,0-.11.52.52,0,0,1,0-.11l.39-1.92,0-.24a1.56,1.56,0,0,0,0-.2c0-.51-.23-.76-.71-.76a1.17,1.17,0,0,0-.45.09,1.31,1.31,0,0,0-.4.29,2.14,2.14,0,0,0-.31.44,2.27,2.27,0,0,0-.2.55l-.45,2.29Z"/><path class="cls-5" d="M122.31,251.66a2.28,2.28,0,0,1-1.09-.23,1.56,1.56,0,0,1-.7-.69l.35-.25a1.48,1.48,0,0,0,.57.59,2.21,2.21,0,0,0,1.53.08,1.32,1.32,0,0,0,.46-.28,1,1,0,0,0,.27-.41,1.35,1.35,0,0,0,.09-.5.82.82,0,0,0-.21-.59,1.2,1.2,0,0,0-.66-.33l-.58-.12a1.23,1.23,0,0,1-1.1-1.27,1.53,1.53,0,0,1,.12-.6,1.43,1.43,0,0,1,.34-.5,1.71,1.71,0,0,1,.56-.34,2.2,2.2,0,0,1,.76-.12,2.11,2.11,0,0,1,1,.22,1.68,1.68,0,0,1,.63.58l-.33.26a1.38,1.38,0,0,0-.53-.49,1.83,1.83,0,0,0-.83-.17,1.44,1.44,0,0,0-1,.31,1.09,1.09,0,0,0-.33.82.87.87,0,0,0,.2.6,1.14,1.14,0,0,0,.64.32l.57.12a1.61,1.61,0,0,1,.84.45,1.15,1.15,0,0,1,.29.83,1.85,1.85,0,0,1-.12.67,1.45,1.45,0,0,1-.37.54,1.65,1.65,0,0,1-.6.37A2.37,2.37,0,0,1,122.31,251.66Z"/><path class="cls-5" d="M125.63,251.57a.4.4,0,0,1-.29-.09.34.34,0,0,1-.1-.26v-.07a.51.51,0,0,1,0-.09l.69-3.43h.42l-.71,3.56h.6l-.08.38Zm.77-5a.29.29,0,0,1-.21-.07.2.2,0,0,1,0-.15v-.05s0-.06,0-.12a.3.3,0,0,1,.33-.25.25.25,0,0,1,.2.07.2.2,0,0,1,.06.15v.05s0,.06,0,.12A.3.3,0,0,1,126.4,246.56Z"/><path class="cls-5" d="M128.7,251.66a1.39,1.39,0,0,1-1.07-.4,1.72,1.72,0,0,1-.37-1.21,3,3,0,0,1,.15-1,2.24,2.24,0,0,1,.41-.8,1.85,1.85,0,0,1,.63-.55,1.61,1.61,0,0,1,.82-.21,1.87,1.87,0,0,1,.49.07,1.34,1.34,0,0,1,.4.19.92.92,0,0,1,.37.76,1,1,0,0,1-.14.5,1.05,1.05,0,0,1-.47.4,2.72,2.72,0,0,1-.86.27,7.16,7.16,0,0,1-1.34.11.47.47,0,0,0,0,.17,1,1,0,0,0,0,.16,1.22,1.22,0,0,0,.26.84,1,1,0,0,0,.77.29,1.37,1.37,0,0,0,.75-.21,1.76,1.76,0,0,0,.56-.56l.3.24a2.25,2.25,0,0,1-.76.7A1.91,1.91,0,0,1,128.7,251.66Zm.53-3.75a1.23,1.23,0,0,0-.92.39,1.93,1.93,0,0,0-.5,1l0,.18a10.78,10.78,0,0,0,1.18-.09,2.8,2.8,0,0,0,.71-.2.72.72,0,0,0,.34-.29.74.74,0,0,0,.09-.36.52.52,0,0,0-.24-.48A1,1,0,0,0,129.23,247.91Z"/><path class="cls-5" d="M134.58,251.66a1.39,1.39,0,0,1-1.07-.4,1.72,1.72,0,0,1-.37-1.21,3,3,0,0,1,.15-1,2.4,2.4,0,0,1,.4-.8,2,2,0,0,1,.64-.55,1.61,1.61,0,0,1,.82-.21,1.87,1.87,0,0,1,.49.07,1.34,1.34,0,0,1,.4.19.92.92,0,0,1,.37.76,1,1,0,0,1-.14.5,1.05,1.05,0,0,1-.47.4,2.81,2.81,0,0,1-.86.27,7.2,7.2,0,0,1-1.35.11.91.91,0,0,0,0,.17,1,1,0,0,0,0,.16,1.22,1.22,0,0,0,.26.84,1,1,0,0,0,.77.29,1.37,1.37,0,0,0,.75-.21,1.76,1.76,0,0,0,.56-.56l.3.24a2.25,2.25,0,0,1-.76.7A1.91,1.91,0,0,1,134.58,251.66Zm.52-3.75a1.23,1.23,0,0,0-.91.39,1.93,1.93,0,0,0-.5,1l0,.18a10.78,10.78,0,0,0,1.18-.09,2.8,2.8,0,0,0,.71-.2.72.72,0,0,0,.34-.29.74.74,0,0,0,.09-.36.52.52,0,0,0-.24-.48A1,1,0,0,0,135.1,247.91Z"/><path class="cls-5" d="M137.53,251.57a.4.4,0,0,1-.29-.09.34.34,0,0,1-.1-.26v-.07a.34.34,0,0,1,0-.09l.7-3.43h.42l-.72,3.56h.61l-.08.38Zm.76-5a.28.28,0,0,1-.2-.07.2.2,0,0,1-.06-.15.09.09,0,0,1,0-.05.35.35,0,0,1,0-.12.3.3,0,0,1,.33-.25.28.28,0,0,1,.2.07.2.2,0,0,1,.06.15v.05a.71.71,0,0,0,0,.12A.31.31,0,0,1,138.29,246.56Z"/><path class="cls-5" d="M139.08,251.57l.79-3.94h.43l-.16.78h0a1.68,1.68,0,0,1,.52-.66,1.29,1.29,0,0,1,.76-.22,1,1,0,0,1,.76.29,1.12,1.12,0,0,1,.25.79,2.09,2.09,0,0,1,0,.24,2,2,0,0,1,0,.26l-.42,2.08h.6l-.07.38H142a.47.47,0,0,1-.28-.08.27.27,0,0,1-.1-.24.41.41,0,0,1,0-.11.52.52,0,0,1,0-.11l.39-1.92,0-.24a1.56,1.56,0,0,0,0-.2c0-.51-.24-.76-.71-.76a1.13,1.13,0,0,0-.45.09,1.31,1.31,0,0,0-.4.29,1.82,1.82,0,0,0-.31.44,2.27,2.27,0,0,0-.2.55l-.46,2.29Z"/><path class="cls-5" d="M83.41,255.84l-1,5H82l1-5H81.21l.08-.4h3.95l-.08.4Z"/><path class="cls-5" d="M86.14,260.91a1.37,1.37,0,0,1-1.06-.4,1.72,1.72,0,0,1-.38-1.21,3.12,3.12,0,0,1,.15-1,2.63,2.63,0,0,1,.41-.8,1.82,1.82,0,0,1,.63-.54,1.64,1.64,0,0,1,.82-.21,1.53,1.53,0,0,1,.49.07,1.24,1.24,0,0,1,.4.19.94.94,0,0,1,.27.32.89.89,0,0,1,.1.44,1,1,0,0,1-.14.5,1.15,1.15,0,0,1-.46.4,3.45,3.45,0,0,1-.87.27,8.12,8.12,0,0,1-1.34.11.88.88,0,0,0,0,.17c0,.07,0,.12,0,.16a1.22,1.22,0,0,0,.26.84,1,1,0,0,0,.78.28,1.44,1.44,0,0,0,.74-.2,1.9,1.9,0,0,0,.57-.56l.29.23a2,2,0,0,1-.76.7A1.86,1.86,0,0,1,86.14,260.91Zm.53-3.75a1.23,1.23,0,0,0-.92.39,2.06,2.06,0,0,0-.5,1l0,.19a10.25,10.25,0,0,0,1.18-.1,2.85,2.85,0,0,0,.71-.19.72.72,0,0,0,.34-.29.74.74,0,0,0,.09-.36.56.56,0,0,0-.23-.49A1.18,1.18,0,0,0,86.67,257.16Z"/><path class="cls-5" d="M89.09,260.82a.38.38,0,0,1-.3-.1.36.36,0,0,1-.1-.26v-.06a.37.37,0,0,1,0-.09l.69-3.44h.43l-.72,3.57h.6l-.08.38Zm.76-5a.25.25,0,0,1-.2-.06.24.24,0,0,1-.06-.15v-.06a.89.89,0,0,1,0-.11.29.29,0,0,1,.33-.25.25.25,0,0,1,.21.07.2.2,0,0,1,0,.15v.05s0,.06,0,.12A.29.29,0,0,1,89.85,255.8Z"/><path class="cls-5" d="M91.11,260.82a.37.37,0,0,1-.29-.1.33.33,0,0,1-.1-.26v-.06a.51.51,0,0,1,0-.09l1-5.19h.42l-1.06,5.32h.62l-.08.38Z"/><path class="cls-5" d="M97.52,260.82a.39.39,0,0,1-.3-.1.32.32,0,0,1-.09-.24,1.68,1.68,0,0,1,0-.2l.07-.32h0a2,2,0,0,1-.55.71,1.22,1.22,0,0,1-.77.24,1.06,1.06,0,0,1-.51-.11,1,1,0,0,1-.39-.3,1.19,1.19,0,0,1-.24-.46,2,2,0,0,1-.09-.62,3.93,3.93,0,0,1,.12-.95,2.94,2.94,0,0,1,.36-.85,2.18,2.18,0,0,1,.61-.6,1.48,1.48,0,0,1,.84-.24,1.26,1.26,0,0,1,.71.2.93.93,0,0,1,.4.56h0l.49-2.42h.42l-1.06,5.32h.6l-.08.38ZM96,260.53a1.13,1.13,0,0,0,.45-.09,1.33,1.33,0,0,0,.38-.27,1.86,1.86,0,0,0,.37-.45,2.09,2.09,0,0,0,.22-.61l.18-.92a.77.77,0,0,0,0-.37.7.7,0,0,0-.15-.34.8.8,0,0,0-.32-.23,1.19,1.19,0,0,0-.49-.09,1.22,1.22,0,0,0-.92.37,2,2,0,0,0-.48,1l-.1.47a1.49,1.49,0,0,0,0,.21,1.94,1.94,0,0,0,0,.24,1.86,1.86,0,0,0,.05.42,1,1,0,0,0,.17.34.69.69,0,0,0,.28.22A.82.82,0,0,0,96,260.53Z"/><path class="cls-5" d="M100.59,260.91a1.39,1.39,0,0,1-1.07-.4,1.72,1.72,0,0,1-.37-1.21,3.12,3.12,0,0,1,.15-1,2.42,2.42,0,0,1,.41-.8,1.82,1.82,0,0,1,.63-.54,1.61,1.61,0,0,1,.82-.21,1.53,1.53,0,0,1,.49.07,1.24,1.24,0,0,1,.4.19.94.94,0,0,1,.27.32,1,1,0,0,1,.1.44,1,1,0,0,1-.14.5,1.12,1.12,0,0,1-.47.4,3.36,3.36,0,0,1-.86.27,8.12,8.12,0,0,1-1.34.11.47.47,0,0,0,0,.17,1,1,0,0,0,0,.16,1.22,1.22,0,0,0,.26.84,1,1,0,0,0,.77.28,1.45,1.45,0,0,0,.75-.2,1.87,1.87,0,0,0,.56-.56l.3.23a2.06,2.06,0,0,1-.76.7A1.92,1.92,0,0,1,100.59,260.91Zm.53-3.75a1.23,1.23,0,0,0-.92.39,2,2,0,0,0-.5,1l0,.19a10.25,10.25,0,0,0,1.18-.1,2.85,2.85,0,0,0,.71-.19.72.72,0,0,0,.34-.29.74.74,0,0,0,.09-.36.54.54,0,0,0-.24-.49A1.12,1.12,0,0,0,101.12,257.16Z"/><path class="cls-5" d="M103.06,260.82l.78-3.95h.43l-.17.83h0a3.28,3.28,0,0,1,.2-.31,1.66,1.66,0,0,1,.26-.27,1,1,0,0,1,.34-.18,1.52,1.52,0,0,1,.45-.07h.24l-.08.43h-.26a1.35,1.35,0,0,0-.5.09,1.53,1.53,0,0,0-.4.26,1.78,1.78,0,0,0-.28.38,1.93,1.93,0,0,0-.16.46l-.46,2.33Z"/><path class="cls-5" d="M111.09,260.82l-.26-1.67H108.6l-.87,1.67h-.47l2.85-5.38h.59l.85,5.38Zm-.75-4.94h0l-1.5,2.87h2Z"/><path class="cls-5" d="M113.61,256.87l-.5,2.47,0,.24c0,.08,0,.15,0,.2a.85.85,0,0,0,.17.56.67.67,0,0,0,.54.19,1.06,1.06,0,0,0,.84-.37,3.08,3.08,0,0,0,.31-.46,2.25,2.25,0,0,0,.19-.53l.46-2.3H116l-.71,3.57h.6l-.07.38h-.57a.36.36,0,0,1-.28-.1.33.33,0,0,1-.09-.25.8.8,0,0,1,0-.19l0-.25h0a1.72,1.72,0,0,1-.52.66,1.25,1.25,0,0,1-.75.22,1,1,0,0,1-.76-.28,1.14,1.14,0,0,1-.26-.79,2.32,2.32,0,0,1,0-.24,2.51,2.51,0,0,1,0-.27l.49-2.46Z"/><path class="cls-5" d="M118.07,260.91a1.8,1.8,0,0,1-.85-.19,1.46,1.46,0,0,1-.62-.56l.3-.25a1.32,1.32,0,0,0,1.17.62,1.17,1.17,0,0,0,.73-.21.75.75,0,0,0,.28-.63.53.53,0,0,0-.15-.41,1.09,1.09,0,0,0-.52-.24l-.33-.07a2.22,2.22,0,0,1-.39-.12,1.42,1.42,0,0,1-.32-.19.83.83,0,0,1-.21-.28,1,1,0,0,1-.07-.41,1.09,1.09,0,0,1,.37-.85,1.41,1.41,0,0,1,1-.34,1.57,1.57,0,0,1,.77.17,1.63,1.63,0,0,1,.51.43l-.3.26a1.4,1.4,0,0,0-.38-.34,1.23,1.23,0,0,0-.63-.14,1,1,0,0,0-.7.21.73.73,0,0,0-.25.57.55.55,0,0,0,.16.41,1,1,0,0,0,.5.23l.33.08a2.2,2.2,0,0,1,.41.12,1.42,1.42,0,0,1,.32.19,1,1,0,0,1,.2.29,1,1,0,0,1,.07.4,1.29,1.29,0,0,1-.1.53,1.3,1.3,0,0,1-.76.64A2,2,0,0,1,118.07,260.91Z"/><path class="cls-5" d="M121,260.82a.39.39,0,0,1-.31-.1.33.33,0,0,1-.09-.25.68.68,0,0,1,0-.21l.6-3h-.65l.08-.38H121a.3.3,0,0,0,.24-.07.46.46,0,0,0,.09-.23l.17-.8h.4l-.23,1.1h.88l-.07.38h-.88l-.64,3.19h.82l-.08.38Z"/><path class="cls-5" d="M124.31,260.91a1.39,1.39,0,0,1-1.07-.4,1.72,1.72,0,0,1-.37-1.21,3.45,3.45,0,0,1,.14-1,2.87,2.87,0,0,1,.41-.8,2,2,0,0,1,.63-.54,1.68,1.68,0,0,1,.83-.21,1.57,1.57,0,0,1,.49.07,1.34,1.34,0,0,1,.4.19.94.94,0,0,1,.27.32,1,1,0,0,1,.1.44,1,1,0,0,1-.14.5,1.19,1.19,0,0,1-.47.4,3.45,3.45,0,0,1-.87.27,8,8,0,0,1-1.34.11c0,.05,0,.11,0,.17v.16a1.22,1.22,0,0,0,.26.84,1,1,0,0,0,.77.28,1.45,1.45,0,0,0,.75-.2,1.87,1.87,0,0,0,.56-.56l.29.23a2,2,0,0,1-.75.7A1.92,1.92,0,0,1,124.31,260.91Zm.52-3.75a1.21,1.21,0,0,0-.91.39,1.9,1.9,0,0,0-.5,1l0,.19a10.46,10.46,0,0,0,1.18-.1,2.75,2.75,0,0,0,.7-.19.75.75,0,0,0,.35-.29.74.74,0,0,0,.09-.36.54.54,0,0,0-.24-.49A1.18,1.18,0,0,0,124.83,257.16Z"/><path class="cls-5" d="M127.25,260.82a.37.37,0,0,1-.29-.1.33.33,0,0,1-.1-.26v-.06a.34.34,0,0,1,0-.09l1-5.19h.42l-1.06,5.32h.62l-.08.38Z"/><path class="cls-5" d="M129.25,260.82a.39.39,0,0,1-.3-.1.36.36,0,0,1-.1-.26v-.06a.51.51,0,0,1,0-.09l1-5.19h.42l-1.06,5.32h.62l-.07.38Z"/><path class="cls-5" d="M132,256.87l-.49,2.47a.88.88,0,0,0,0,.24,1.56,1.56,0,0,0,0,.2.85.85,0,0,0,.17.56.65.65,0,0,0,.53.19,1.27,1.27,0,0,0,.44-.08,1.11,1.11,0,0,0,.4-.29,2.47,2.47,0,0,0,.31-.46,2.29,2.29,0,0,0,.2-.53l.45-2.3h.43l-.71,3.57h.59l-.07.38h-.56a.34.34,0,0,1-.28-.1.3.3,0,0,1-.1-.25,1,1,0,0,1,0-.19l0-.25h0a1.63,1.63,0,0,1-.52.66,1.2,1.2,0,0,1-.74.22,1,1,0,0,1-.76-.28,1.14,1.14,0,0,1-.26-.79,2.32,2.32,0,0,1,0-.24,2.51,2.51,0,0,1,0-.27l.49-2.46Z"/><path class="cls-5" d="M135.17,260.82l.78-3.95h.43l-.16.79h0a1.8,1.8,0,0,1,.52-.66,1.24,1.24,0,0,1,.76-.22,1,1,0,0,1,.76.28,1.14,1.14,0,0,1,.26.79c0,.07,0,.16,0,.25a2.38,2.38,0,0,1,0,.26l-.41,2.08h.6l-.08.38H138a.47.47,0,0,1-.28-.08.33.33,0,0,1-.1-.24s0-.08,0-.11a.61.61,0,0,1,0-.11l.38-1.92c0-.09,0-.17,0-.25s0-.14,0-.19c0-.51-.24-.76-.72-.76a1.12,1.12,0,0,0-.44.09,1.19,1.19,0,0,0-.41.29,2.26,2.26,0,0,0-.31.44,2.13,2.13,0,0,0-.2.55l-.45,2.29Z"/><path class="cls-5" d="M142.7,261.16a1.23,1.23,0,0,1-.11.51,1.07,1.07,0,0,1-.35.42,2.24,2.24,0,0,1-.64.27,4.19,4.19,0,0,1-.93.09,2.24,2.24,0,0,1-1.16-.23.71.71,0,0,1-.38-.66.88.88,0,0,1,.2-.57,1.43,1.43,0,0,1,.61-.36v0a.48.48,0,0,1-.31-.48.62.62,0,0,1,.2-.47,1.42,1.42,0,0,1,.58-.27v-.05a.84.84,0,0,1-.41-.38,1.07,1.07,0,0,1-.14-.57,1.71,1.71,0,0,1,.12-.65,1.56,1.56,0,0,1,.33-.5,1.34,1.34,0,0,1,.51-.32,1.66,1.66,0,0,1,.64-.12,1.49,1.49,0,0,1,.43.06,1.19,1.19,0,0,1,.34.16l0-.23a.46.46,0,0,1,.13-.28.38.38,0,0,1,.29-.11h.63l-.07.38h-.73l-.07.43a1.16,1.16,0,0,1,.22.69,1.66,1.66,0,0,1-.12.64,1.35,1.35,0,0,1-.34.5,1.5,1.5,0,0,1-.51.33,1.93,1.93,0,0,1-.65.11,1.51,1.51,0,0,1-.32,0,1.39,1.39,0,0,0-.53.21.41.41,0,0,0-.18.34.28.28,0,0,0,.11.23.77.77,0,0,0,.4.08h1a1.4,1.4,0,0,1,.92.23A.77.77,0,0,1,142.7,261.16Zm-.44.08a.5.5,0,0,0-.17-.41,1,1,0,0,0-.62-.14h-1.28a1.1,1.1,0,0,0-.46.29.63.63,0,0,0-.17.46.56.56,0,0,0,.24.49,1.3,1.3,0,0,0,.74.17h.31a2,2,0,0,0,1.05-.23A.69.69,0,0,0,142.26,261.24Zm-1.15-2.12a1,1,0,0,0,.73-.23,1.13,1.13,0,0,0,.35-.62c0-.14,0-.23.05-.29s0-.1,0-.14a.66.66,0,0,0-.21-.51.81.81,0,0,0-.62-.2,1.1,1.1,0,0,0-.73.23,1.14,1.14,0,0,0-.33.62c0,.14,0,.23-.06.29a.76.76,0,0,0,0,.14.7.7,0,0,0,.2.52A.89.89,0,0,0,141.11,259.12Z"/><path class="cls-6" d="M124.79,55.12l-1.43-3h-.06v10h-3V47.27h3.54l4.08,7,1.42,3h.07v-10h3v14.9h-3.54Z"/><path class="cls-6" d="M142.14,60.29H142a4.35,4.35,0,0,1-.4.81,2.53,2.53,0,0,1-.63.68,2.9,2.9,0,0,1-.91.47,3.7,3.7,0,0,1-1.2.17,3.12,3.12,0,0,1-2.62-1.14A5.24,5.24,0,0,1,135.4,58V51h3.16v6.77a2.91,2.91,0,0,0,.36,1.58,1.36,1.36,0,0,0,1.24.55,2.25,2.25,0,0,0,.72-.11,2.1,2.1,0,0,0,.64-.3,1.57,1.57,0,0,0,.45-.51,1.39,1.39,0,0,0,.17-.7V51h3.16V62.17h-3.16Z"/><path class="cls-6" d="M152.17,62.17a3.37,3.37,0,0,1-2.48-.84,3.22,3.22,0,0,1-.85-2.43V53.42h-1.58V51h.79a1,1,0,0,0,.88-.31,1.46,1.46,0,0,0,.23-.88V47.93H152v3h2.22v2.46H152v6.29h2.05v2.46Z"/><path class="cls-6" d="M155.78,62.17v-2.5l5.57-6.25H156V51H165v2.48l-5.59,6.27h5.74v2.46Z"/><path class="cls-6" d="M171.91,62.42a6.06,6.06,0,0,1-2.28-.41,4.68,4.68,0,0,1-1.7-1.18A5,5,0,0,1,166.88,59a8.08,8.08,0,0,1-.35-2.44,8.18,8.18,0,0,1,.34-2.4,5.07,5.07,0,0,1,1-1.84,4.6,4.6,0,0,1,1.65-1.19,5.85,5.85,0,0,1,2.24-.41,5.4,5.4,0,0,1,2.38.47,4.43,4.43,0,0,1,1.62,1.26,5,5,0,0,1,.92,1.82,8.12,8.12,0,0,1,.29,2.17v.94H169.8v.16a2.46,2.46,0,0,0,.6,1.75,2.42,2.42,0,0,0,1.87.65,2.85,2.85,0,0,0,1.6-.4,6.05,6.05,0,0,0,1.16-.94l1.58,2a5,5,0,0,1-2,1.37A7.16,7.16,0,0,1,171.91,62.42ZM171.85,53a1.9,1.9,0,0,0-1.51.63,2.49,2.49,0,0,0-.54,1.68v.17h3.92v-.19a2.79,2.79,0,0,0-.45-1.66A1.65,1.65,0,0,0,171.85,53Z"/><path class="cls-6" d="M179.23,62.17V51h3.16V53.4h.11a3.22,3.22,0,0,1,.29-.91,2.9,2.9,0,0,1,.57-.78,2.43,2.43,0,0,1,.84-.54,2.91,2.91,0,0,1,1.15-.21h.56v2.95h-.79a4.55,4.55,0,0,0-2.06.36,1.39,1.39,0,0,0-.67,1.35v6.55Z"/><path class="cls-7" d="M151.28,110.72a42.56,42.56,0,1,0,30.06,12.47,42.39,42.39,0,0,0-30.06-12.47m0,87a44.57,44.57,0,1,1,31.47-13.06,44.38,44.38,0,0,1-31.47,13.06"/><ellipse class="cls-8" cx="151.03" cy="146.18" rx="6.8" ry="7.81"/><path class="cls-8" d="M161.39,165.88c-.06,5.4-4.68,7.77-10.45,7.77s-10.53-2.37-10.46-7.77c.08-6.51,4.68-11.76,10.46-11.76S161.48,159.37,161.39,165.88Z"/><ellipse class="cls-8" cx="132.86" cy="140.68" rx="6.8" ry="7.81"/><path class="cls-8" d="M140.18,166.26a13.29,13.29,0,0,1-7.41,1.89c-5.78,0-10.53-2.37-10.46-7.77.08-6.51,4.68-11.76,10.46-11.76,5,0,9.21,3.9,10.22,9.15"/><ellipse class="cls-8" cx="169.86" cy="140.68" rx="6.8" ry="7.81"/><path class="cls-8" d="M159.47,158.44c.87-5.58,5.11-9.82,10.3-9.82,5.78,0,10.54,5.25,10.46,11.76-.07,5.4-4.68,7.77-10.46,7.77-3.41,0-6.46-.83-8.37-2.61"/></g></svg>