<svg xmlns="http://www.w3.org/2000/svg" xmlns:xlink="http://www.w3.org/1999/xlink" viewBox="0 0 305.62 305.62"><defs><style>.cls-1,.cls-2,.cls-3{fill:none;}.cls-2{stroke:#fff;stroke-width:1.25px;}.cls-2,.cls-3{stroke-miterlimit:10;}.cls-3{stroke:#000;stroke-width:0.25px;}.cls-4{clip-path:url(#clip-path);}.cls-5{fill:#e2001a;}.cls-6{fill:#2699d1;}.cls-7{fill:#1a171b;}.cls-8{fill:#bf3b28;}.cls-9{fill:#c03c28;}</style><clipPath id="clip-path"><rect class="cls-1" x="6.17" y="1.21" width="292.96" height="274.96"/></clipPath></defs><title>feedback_mobilitätsanbieter_front</title><g id="Ebene_2" data-name="Ebene 2"><path class="cls-2" d="M284.62,290.62v15m0-290.62V0M21,290.62v15M21,15V0M290.62,284.62h15M15,284.62H0M290.62,21h15M15,21H0"/><path class="cls-3" d="M284.62,290.62v15m0-290.62V0M21,290.62v15M21,15V0M290.62,284.62h15M15,284.62H0M290.62,21h15M15,21H0"/></g><g id="Ebene_1" data-name="Ebene 1"><g class="cls-4"><path class="cls-5" d="M152.69,240.36a4.45,4.45,0,0,0-.45,8.87c1.9.2,2.61,1.32,2.36,3.75a5.85,5.85,0,0,0,0,.73,7,7,0,1,0,7-7,6.06,6.06,0,0,0-.73,0c-2.42.25-3.55-.45-3.75-2.36a4.42,4.42,0,0,0-4.42-4m8.9,20.48a7.15,7.15,0,0,1-7.14-7.13c0-.25,0-.5,0-.75.25-2.38-.41-3.43-2.26-3.63a4.55,4.55,0,1,1,5-5c.19,1.86,1.25,2.51,3.63,2.26l.74,0a7.14,7.14,0,1,1,0,14.27"/><path class="cls-5" d="M153.89,242.51a3.5,3.5,0,0,0-.35,7c1.51.16,2.07,1,1.87,3a5.44,5.44,0,0,0,0,.57,5.55,5.55,0,1,0,5.55-5.54l-.58,0c-1.92.19-2.81-.36-3-1.88a3.49,3.49,0,0,0-3.49-3.14m7,16.18a5.65,5.65,0,0,1-5.62-6.23c.19-1.88-.32-2.71-1.78-2.86a3.61,3.61,0,1,1,3.95-4c.16,1.46,1,2,2.86,1.78l.59,0a5.65,5.65,0,0,1,0,11.3"/><path class="cls-5" d="M155.1,244.66a2.56,2.56,0,0,0-.26,5.1c1.12.12,1.54.77,1.39,2.2a3,3,0,0,0,0,.42,4.06,4.06,0,1,0,4.06-4.06l-.42,0c-1.43.15-2.09-.26-2.21-1.39a2.53,2.53,0,0,0-2.54-2.29m5.17,11.89a4.17,4.17,0,0,1-4.17-4.17c0-.14,0-.29,0-.43.15-1.37-.23-2-1.29-2.09a2.66,2.66,0,1,1,2.92-2.92c.11,1.06.72,1.44,2.09,1.3a3,3,0,0,1,.43,0,4.17,4.17,0,0,1,0,8.34"/><path class="cls-5" d="M156.25,250c.65.11.89.53.8,1.41a2.45,2.45,0,0,0,0,.27,2.58,2.58,0,1,0,2.57-2.57h-.26a1.59,1.59,0,0,1-1.07-.17.88.88,0,0,1-.35-.63h0l0-.1a1.6,1.6,0,0,0-1.59-1.45,1.61,1.61,0,0,0-.16,3.21h.1Zm3.35,4.36a2.68,2.68,0,0,1-2.67-2.68,2.53,2.53,0,0,1,0-.28c.11-1.07-.33-1.26-.81-1.31H156a1.72,1.72,0,1,1,2-2h0l0,.1a.83.83,0,0,0,.31.66,1.46,1.46,0,0,0,1,.15h.27a2.68,2.68,0,0,1,0,5.36"/><path class="cls-6" d="M162.17,240.16a8.32,8.32,0,0,0-8.31,8.31,8.43,8.43,0,0,0,0,.86c.29,2.86-.54,4.18-2.78,4.42a5.25,5.25,0,1,0,5.76,5.76c.24-2.24,1.56-3.07,4.42-2.78a8.11,8.11,0,0,0,.86,0,8.31,8.31,0,1,0,0-16.62m-10.51,24.18a5.36,5.36,0,0,1-.54-10.7c2.19-.23,3-1.48,2.68-4.3a8.47,8.47,0,1,1,7.5,7.5c-2.82-.29-4.07.49-4.3,2.68a5.35,5.35,0,0,1-5.34,4.82"/><path class="cls-6" d="M161.85,241.2a7.6,7.6,0,0,0-7.59,7.59,7.09,7.09,0,0,0,0,.79c.27,2.61-.49,3.82-2.54,4a4.8,4.8,0,1,0,5.26,5.26c.22-2.05,1.43-2.81,4-2.54a7.09,7.09,0,0,0,.79,0,7.59,7.59,0,0,0,0-15.18m-9.6,22.1a4.91,4.91,0,0,1-.5-9.79c2-.21,2.71-1.35,2.44-3.92,0-.27,0-.54,0-.8a7.7,7.7,0,1,1,7.7,7.7,7.31,7.31,0,0,1-.8-.05c-2.58-.26-3.71.45-3.92,2.45a4.9,4.9,0,0,1-4.88,4.41"/><path class="cls-6" d="M161.53,242.24a6.88,6.88,0,0,0-6.87,6.87c0,.24,0,.48,0,.71.25,2.38-.44,3.47-2.3,3.67a4.34,4.34,0,1,0,4.76,4.76c.2-1.86,1.29-2.55,3.67-2.31a5.53,5.53,0,0,0,.71,0,6.87,6.87,0,1,0,0-13.74m-8.7,20a4.45,4.45,0,0,1-.45-8.88c1.81-.19,2.45-1.22,2.21-3.55a5.79,5.79,0,0,1,0-.72,7,7,0,1,1,7,7,6.06,6.06,0,0,1-.73,0c-2.33-.24-3.35.4-3.54,2.21a4.44,4.44,0,0,1-4.43,4"/><path class="cls-6" d="M161.21,243.28a6.16,6.16,0,0,0-6.15,6.15c0,.21,0,.43,0,.64.22,2.13-.4,3.11-2.07,3.29a3.89,3.89,0,1,0,4.26,4.26c.18-1.67,1.16-2.29,3.29-2.07.21,0,.43,0,.64,0a6.15,6.15,0,1,0,0-12.3m-7.8,17.94a4,4,0,0,1-.4-8c1.62-.17,2.19-1.09,2-3.17,0-.22,0-.44,0-.65a6.26,6.26,0,1,1,6.26,6.26,4.73,4.73,0,0,1-.65,0c-2.08-.21-3,.36-3.17,2a4,4,0,0,1-4,3.59"/><path class="cls-6" d="M160.89,244.32a5.43,5.43,0,0,0-5.4,6c.19,1.88-.36,2.75-1.84,2.91a3.43,3.43,0,1,0,3.76,3.76c.15-1.48,1-2,2.91-1.84l.57,0a5.43,5.43,0,0,0,0-10.86M154,260.17a3.53,3.53,0,0,1-.36-7.05c1.43-.15,1.93-1,1.74-2.79a5.78,5.78,0,0,1,0-.58,5.54,5.54,0,1,1,5.54,5.54,5.63,5.63,0,0,1-.58,0c-1.83-.19-2.65.31-2.8,1.74a3.51,3.51,0,0,1-3.51,3.17"/><path class="cls-6" d="M160.57,245.36a4.72,4.72,0,0,0-4.71,4.71c0,.17,0,.33,0,.49.17,1.65-.31,2.4-1.6,2.54a3,3,0,1,0,3.26,3.26c.13-1.29.89-1.77,2.54-1.6l.49,0a4.71,4.71,0,0,0,0-9.42m-6,13.77a3.07,3.07,0,0,1-.31-6.13c1.23-.14,1.67-.84,1.51-2.43a4.07,4.07,0,0,1,0-.5,4.82,4.82,0,1,1,4.82,4.82,4.07,4.07,0,0,1-.5,0c-1.6-.16-2.3.27-2.43,1.51a3.06,3.06,0,0,1-3.06,2.76"/><path class="cls-6" d="M160.24,246.4a4,4,0,0,0-4,4,3,3,0,0,0,0,.42c.14,1.4-.27,2.05-1.37,2.16a2.52,2.52,0,1,0,2.76,2.76c.11-1.1.76-1.51,2.16-1.37a2.88,2.88,0,0,0,.41,0,4,4,0,0,0,0-8m-5.07,11.69a2.62,2.62,0,0,1-.27-5.22c1-.11,1.41-.71,1.27-2.05,0-.14,0-.29,0-.43a4.1,4.1,0,1,1,4.09,4.1l-.42,0c-1.34-.14-1.94.23-2,1.27a2.6,2.6,0,0,1-2.6,2.35"/><path class="cls-6" d="M155.64,252.83h-.09a2,2,0,1,0,2.24,2.24V255h0c.12-.83.66-1.14,1.78-1h.33a3.27,3.27,0,1,0-3.26-3.26c0,.11,0,.22,0,.33.12,1.12-.19,1.65-1,1.78m.11,4.22a2.16,2.16,0,0,1-.32-4.29h.1c.85-.09,1.15-.58,1-1.68a1.94,1.94,0,0,1,0-.34,3.38,3.38,0,1,1,3,3.35c-1.1-.11-1.58.19-1.67,1v.11h0a2.15,2.15,0,0,1-2.13,1.84"/><path class="cls-6" d="M156.27,252.7h0l-.1,0a1.59,1.59,0,0,0,.15,3.18,1.6,1.6,0,0,0,1.59-1.44v-.11h0c.1-.64.53-.88,1.4-.79h.26a2.55,2.55,0,1,0-2.55-2.54,2.46,2.46,0,0,0,0,.26c.09.87-.15,1.3-.8,1.4m.06,3.31a1.71,1.71,0,0,1-1.7-1.71,1.69,1.69,0,0,1,1.43-1.67h0l.1,0c.48-.05.91-.24.8-1.3a2.44,2.44,0,0,1,0-.27,2.66,2.66,0,1,1,2.65,2.65h-.27c-1.06-.11-1.25.32-1.3.8v.11h0a1.71,1.71,0,0,1-1.68,1.43"/><path class="cls-6" d="M156.91,252.57h0l-.11,0a1.14,1.14,0,1,0,1.25,1.24v-.11a.63.63,0,0,1,.26-.42,1,1,0,0,1,.63-.14h0l.15,0h.06l.14,0a1.83,1.83,0,1,0-1.83-1.83.59.59,0,0,0,0,.13v.07l0,.15,0,0a1,1,0,0,1-.13.63.61.61,0,0,1-.43.25m0,2.4a1.25,1.25,0,0,1-.23-2.47h0l.1,0a.57.57,0,0,0,.46-.22,1,1,0,0,0,.11-.7l0-.15h0v0a1.94,1.94,0,1,1,1.93,1.93h-.05l-.15,0a1.09,1.09,0,0,0-.7.1.59.59,0,0,0-.22.47V254h0a1.24,1.24,0,0,1-1.22,1"/><path class="cls-7" d="M174,248.24a1.08,1.08,0,0,0,.23.73.77.77,0,0,0,1.2,0,1.18,1.18,0,0,0,.23-.75v-.05a1.24,1.24,0,0,0-.1-.52.85.85,0,0,0-.3-.37.74.74,0,0,0-.44-.13.72.72,0,0,0-.59.29,1.12,1.12,0,0,0-.23.75Zm-.28-.07a1.51,1.51,0,0,1,.14-.65,1,1,0,0,1,.39-.44,1,1,0,0,1,.57-.16,1,1,0,0,1,.81.34,1.38,1.38,0,0,1,.3.92v.06a1.38,1.38,0,0,1-.14.65,1,1,0,0,1-.39.44,1,1,0,0,1-.57.16,1,1,0,0,1-.8-.35,1.31,1.31,0,0,1-.31-.92Z"/><path class="cls-7" d="M178.26,248.18a1.26,1.26,0,0,0-.2-.75.63.63,0,0,0-.54-.27.73.73,0,0,0-.71.47v1.19a.73.73,0,0,0,.28.32.77.77,0,0,0,.43.12.64.64,0,0,0,.54-.28,1.37,1.37,0,0,0,.2-.8m.27,0a1.52,1.52,0,0,1-.25.92.85.85,0,0,1-.69.34.92.92,0,0,1-.78-.36v1.26h-.27V247h.25l0,.35a.86.86,0,0,1,.77-.39.83.83,0,0,1,.7.33,1.54,1.54,0,0,1,.25.94Z"/><path class="cls-7" d="M180.05,247.15a.68.68,0,0,0-.52.23,1,1,0,0,0-.26.61h1.49v0a.91.91,0,0,0-.21-.58.63.63,0,0,0-.5-.23m0,2.34a1,1,0,0,1-.57-.16,1,1,0,0,1-.4-.43,1.46,1.46,0,0,1-.14-.63v-.09a1.38,1.38,0,0,1,.14-.65,1.12,1.12,0,0,1,.38-.45,1,1,0,0,1,.54-.16.86.86,0,0,1,.71.31,1.21,1.21,0,0,1,.27.84v.15h-1.77v.05a1.07,1.07,0,0,0,.24.71.8.8,0,0,0,.61.28.93.93,0,0,0,.39-.08.91.91,0,0,0,.3-.26l.18.13a1,1,0,0,1-.88.44"/><path class="cls-7" d="M181.82,247v.43a1,1,0,0,1,.35-.35.9.9,0,0,1,.46-.12.73.73,0,0,1,.59.22,1,1,0,0,1,.2.68v1.62h-.27v-1.63a.75.75,0,0,0-.14-.49.55.55,0,0,0-.45-.16.76.76,0,0,0-.45.15,1,1,0,0,0-.29.43v1.7h-.27V247Z"/><path class="cls-7" d="M174.16,252.59V253a.92.92,0,0,1,.34-.34.9.9,0,0,1,.46-.11.71.71,0,0,1,.75.48.93.93,0,0,1,.35-.36,1,1,0,0,1,.49-.12c.53,0,.8.29.82.87v1.65h-.28v-1.63A.73.73,0,0,0,177,253a.59.59,0,0,0-.46-.17.73.73,0,0,0-.5.2.66.66,0,0,0-.23.45v1.64h-.27v-1.65a.69.69,0,0,0-.15-.48.62.62,0,0,0-.46-.16.67.67,0,0,0-.44.15.86.86,0,0,0-.28.44v1.7h-.27v-2.48Z"/><path class="cls-7" d="M178.19,253.87a1.14,1.14,0,0,0,.23.73.76.76,0,0,0,.61.29.74.74,0,0,0,.6-.29,1.18,1.18,0,0,0,.23-.75v0a1.24,1.24,0,0,0-.11-.52.91.91,0,0,0-.29-.37.74.74,0,0,0-.44-.13.76.76,0,0,0-.6.29,1.18,1.18,0,0,0-.23.75Zm-.27-.07a1.51,1.51,0,0,1,.14-.65,1,1,0,0,1,.39-.44,1,1,0,0,1,.57-.16,1,1,0,0,1,.8.34,1.33,1.33,0,0,1,.31.92v.06a1.38,1.38,0,0,1-.14.65,1,1,0,0,1-.39.44,1.09,1.09,0,0,1-1.37-.19,1.31,1.31,0,0,1-.31-.92Z"/><path class="cls-7" d="M182.42,253.81a1.35,1.35,0,0,0-.19-.76.65.65,0,0,0-.54-.26.72.72,0,0,0-.72.5v1.12a.73.73,0,0,0,.73.47.62.62,0,0,0,.53-.27,1.43,1.43,0,0,0,.19-.8m.27.05a1.46,1.46,0,0,1-.26.92.83.83,0,0,1-.68.34.9.9,0,0,1-.79-.39v.34h-.26v-3.52H181V253a.93.93,0,0,1,1.47-.07,1.54,1.54,0,0,1,.25.94Z"/><path class="cls-7" d="M183.6,255.07h-.27v-2.48h.27Zm-.32-3.19a.19.19,0,0,1,.05-.13.17.17,0,0,1,.14-.06.18.18,0,0,1,.14.06.19.19,0,0,1,0,.13.21.21,0,0,1,0,.13.22.22,0,0,1-.14.05.2.2,0,0,1-.14-.05.21.21,0,0,1-.05-.13"/></g><rect class="cls-7" x="184.38" y="251.55" width="0.27" height="3.52"/><g class="cls-4"><path class="cls-7" d="M185.71,255.07h-.28v-2.48h.28Zm-.33-3.19a.19.19,0,0,1,.05-.13.18.18,0,0,1,.14-.06.17.17,0,0,1,.14.06.19.19,0,0,1,0,.13.21.21,0,0,1,0,.13.2.2,0,0,1-.14.05.22.22,0,0,1-.14-.05.21.21,0,0,1-.05-.13"/><path class="cls-7" d="M186.88,252v.63h.51v.23h-.51v1.65a.53.53,0,0,0,.07.31.28.28,0,0,0,.25.1l.22,0v.22a1.06,1.06,0,0,1-.29,0,.49.49,0,0,1-.41-.17.81.81,0,0,1-.13-.48v-1.65h-.45v-.23h.45V252Z"/><path class="cls-7" d="M188.74,254.68l.73-2.09h.29l-1.06,2.9,0,.13a.67.67,0,0,1-.63.45l-.21,0v-.23l.14,0a.59.59,0,0,0,.33-.1.83.83,0,0,0,.21-.34l.12-.34-.94-2.46h.3Z"/><path class="cls-7" d="M174.11,260.7v-2.25h-.41v-.23h.41v-.3a.8.8,0,0,1,.19-.58.7.7,0,0,1,.54-.21,1.27,1.27,0,0,1,.29,0l0,.23a1,1,0,0,0-.25,0,.45.45,0,0,0-.35.14.63.63,0,0,0-.13.41v.3H175v.23h-.59v2.25Z"/><path class="cls-7" d="M175.59,259.5a1.14,1.14,0,0,0,.23.73.77.77,0,0,0,1.2,0,1.12,1.12,0,0,0,.23-.75v-.05a1.24,1.24,0,0,0-.1-.52.85.85,0,0,0-.3-.37.71.71,0,0,0-.43-.13.73.73,0,0,0-.6.29,1.18,1.18,0,0,0-.23.75Zm-.28-.07a1.51,1.51,0,0,1,.14-.65,1,1,0,0,1,.39-.44,1,1,0,0,1,.58-.16,1,1,0,0,1,.8.34,1.38,1.38,0,0,1,.31.92v.06a1.51,1.51,0,0,1-.14.65,1,1,0,0,1-.39.44,1.11,1.11,0,0,1-1.38-.19,1.36,1.36,0,0,1-.31-.92Z"/><path class="cls-7" d="M179.24,258.46l-.19,0a.69.69,0,0,0-.43.14.89.89,0,0,0-.26.42v1.7h-.27v-2.48h.27v.4a.73.73,0,0,1,.7-.44.42.42,0,0,1,.18,0Z"/><path class="cls-7" d="M181.26,260.39a.88.88,0,0,1-.79.36.78.78,0,0,1-.6-.23,1,1,0,0,1-.21-.68v-1.62h.27v1.58c0,.47.19.71.58.71a.71.71,0,0,0,.75-.49v-1.8h.27v2.48h-.26Z"/><path class="cls-7" d="M182.5,258.22v.41a.85.85,0,0,1,.34-.34.9.9,0,0,1,.46-.11.69.69,0,0,1,.74.48.89.89,0,0,1,.36-.36,1,1,0,0,1,.49-.12q.79,0,.81.87v1.65h-.27v-1.63a.73.73,0,0,0-.15-.49.56.56,0,0,0-.46-.17.77.77,0,0,0-.5.2.65.65,0,0,0-.22.45v1.64h-.28v-1.65a.69.69,0,0,0-.15-.48.61.61,0,0,0-.45-.16.72.72,0,0,0-.45.15.92.92,0,0,0-.27.44v1.7h-.28v-2.48Z"/><path class="cls-5" d="M157.48,251l0,.16v.06a.68.68,0,0,0,0,.14,1.83,1.83,0,1,0,1.83-1.83h-.33c-.53,0-.8-.15-.88-.57h0v-.1a1.14,1.14,0,1,0-1.24,1.24l.1,0c.41.08.59.35.57.88Zm1.79,2.29a1.94,1.94,0,0,1-1.93-1.93v-.06h0l0-.15c.07-.71-.18-.89-.57-.93l-.1,0a1.23,1.23,0,0,1-1-1.22,1.25,1.25,0,0,1,2.47-.23h0l0,.1c0,.4.21.64.92.57h.2a1.94,1.94,0,1,1,0,3.87"/><path class="cls-5" d="M155.6,249.9c.84.13,1.15.68,1,1.8,0,.12,0,.23,0,.35a3.32,3.32,0,1,0,3-3.3c-1.13.12-1.67-.2-1.8-1h0v-.11a2.08,2.08,0,1,0-2.27,2.27h.1Zm4.34,5.57a3.43,3.43,0,0,1-3.43-3.42c0-.12,0-.24,0-.36.12-1.11-.19-1.6-1.05-1.69l-.12,0a2.18,2.18,0,0,1-1.85-2.16,2.19,2.19,0,0,1,4.35-.33h0v.11c.09.86.59,1.17,1.7,1a3.42,3.42,0,1,1,.36,6.83"/><path class="cls-5" d="M154.5,243.58a3,3,0,0,0-.31,6c1.32.13,1.81.91,1.63,2.58a4.26,4.26,0,0,0,0,.5,4.8,4.8,0,1,0,4.3-4.78c-1.68.18-2.45-.31-2.59-1.63a3,3,0,0,0-3-2.72m6.1,14a4.91,4.91,0,0,1-4.91-4.91,4.36,4.36,0,0,1,0-.51c.16-1.62-.28-2.34-1.54-2.47a3.14,3.14,0,1,1,3.44-3.44c.13,1.26.85,1.71,2.47,1.54a4.36,4.36,0,0,1,.51,0,4.91,4.91,0,0,1,0,9.82"/><path class="cls-5" d="M153.29,241.43a4,4,0,0,0-.4,7.93c1.71.18,2.34,1.18,2.11,3.36,0,.22,0,.44,0,.65a6.29,6.29,0,1,0,6.29-6.29c-.22,0-.43,0-.65,0-2.18.22-3.18-.41-3.36-2.12a4,4,0,0,0-4-3.57m8,18.34a6.41,6.41,0,0,1-6.4-6.4c0-.22,0-.44,0-.66.22-2.13-.37-3.07-2-3.25a4.08,4.08,0,1,1,4.47-4.47c.18,1.66,1.12,2.24,3.25,2l.66,0a6.4,6.4,0,1,1,0,12.79"/><path class="cls-5" d="M159.27,249.62a1.76,1.76,0,1,0,1.76,1.75,1.75,1.75,0,0,0-1.76-1.75m0,3.79a2,2,0,1,1,2-2,2,2,0,0,1-2,2"/></g><path class="cls-7" d="M93.58,251l-.25-5.38h.45l.19,4.8h0l2.21-4.8h.54l.3,4.8h0l2.14-4.8h.47L97.21,251h-.53l-.29-4.84h0L94.12,251Z"/><path class="cls-7" d="M101,251.11a1.37,1.37,0,0,1-1.07-.4,1.72,1.72,0,0,1-.37-1.21,3,3,0,0,1,.14-1,2.62,2.62,0,0,1,.41-.8,1.94,1.94,0,0,1,.63-.55,1.65,1.65,0,0,1,.83-.21,2,2,0,0,1,.49.07,1.18,1.18,0,0,1,.39.19.83.83,0,0,1,.27.32.92.92,0,0,1,.1.44.88.88,0,0,1-.14.5,1,1,0,0,1-.46.4,2.79,2.79,0,0,1-.87.27,7.16,7.16,0,0,1-1.34.11.88.88,0,0,0,0,.17v.16a1.18,1.18,0,0,0,.26.84,1,1,0,0,0,.77.29,1.37,1.37,0,0,0,.75-.21,1.87,1.87,0,0,0,.56-.56l.29.24a2.16,2.16,0,0,1-.76.7A2,2,0,0,1,101,251.11Zm.52-3.75a1.21,1.21,0,0,0-.91.39,2,2,0,0,0-.51,1l0,.18a8.26,8.26,0,0,0,1.18-.1,2.38,2.38,0,0,0,.71-.19.67.67,0,0,0,.34-.29.74.74,0,0,0,.09-.36.54.54,0,0,0-.23-.49A1.18,1.18,0,0,0,101.49,247.36Z"/><path class="cls-7" d="M103.43,251l.79-3.94h.43l-.18.82h0a2.11,2.11,0,0,1,.21-.31,1.33,1.33,0,0,1,.26-.27,1.48,1.48,0,0,1,.33-.18,1.53,1.53,0,0,1,.45-.06H106l-.09.42h-.25a1.22,1.22,0,0,0-.51.1,1.3,1.3,0,0,0-.39.25,1.21,1.21,0,0,0-.28.39,1.52,1.52,0,0,0-.16.45l-.46,2.33Z"/><path class="cls-7" d="M109.12,251a.4.4,0,0,1-.29-.09.33.33,0,0,1-.1-.25.74.74,0,0,1,0-.19l.06-.33h0a2.15,2.15,0,0,1-.56.72A1.38,1.38,0,0,1,107,251a1.45,1.45,0,0,1-.39-.3,1.6,1.6,0,0,1-.24-.47,2,2,0,0,1-.09-.61,4,4,0,0,1,.12-1,2.66,2.66,0,0,1,.37-.84,1.94,1.94,0,0,1,.6-.61,1.48,1.48,0,0,1,.84-.24,1.24,1.24,0,0,1,.71.2,1,1,0,0,1,.4.56h0l.49-2.42h.42l-1.06,5.32h.6l-.08.38Zm-1.55-.28a1,1,0,0,0,.45-.1,1.33,1.33,0,0,0,.38-.27,1.86,1.86,0,0,0,.37-.45,1.84,1.84,0,0,0,.22-.61l.18-.92a.92.92,0,0,0,0-.37.91.91,0,0,0-.15-.33.87.87,0,0,0-.32-.24,1.28,1.28,0,0,0-.5-.09,1.2,1.2,0,0,0-.91.37,1.92,1.92,0,0,0-.49,1l-.09.47a1.46,1.46,0,0,0,0,.22,1.77,1.77,0,0,0,0,.24,1.36,1.36,0,0,0,0,.41.82.82,0,0,0,.16.34.79.79,0,0,0,.28.23A1,1,0,0,0,107.57,250.74Z"/><path class="cls-7" d="M112.19,251.11a1.37,1.37,0,0,1-1.07-.4,1.72,1.72,0,0,1-.38-1.21,3,3,0,0,1,.15-1,2.62,2.62,0,0,1,.41-.8,1.94,1.94,0,0,1,.63-.55,1.65,1.65,0,0,1,.83-.21,2,2,0,0,1,.49.07,1.18,1.18,0,0,1,.39.19.83.83,0,0,1,.27.32.92.92,0,0,1,.1.44.88.88,0,0,1-.14.5,1,1,0,0,1-.46.4,2.79,2.79,0,0,1-.87.27,7.16,7.16,0,0,1-1.34.11.88.88,0,0,0,0,.17v.16a1.22,1.22,0,0,0,.25.84,1,1,0,0,0,.78.29,1.37,1.37,0,0,0,.75-.21,1.76,1.76,0,0,0,.56-.56l.29.24a2.16,2.16,0,0,1-.76.7A2,2,0,0,1,112.19,251.11Zm.52-3.75a1.21,1.21,0,0,0-.91.39,2,2,0,0,0-.51,1l0,.18a8.26,8.26,0,0,0,1.18-.1,2.38,2.38,0,0,0,.71-.19.67.67,0,0,0,.34-.29.74.74,0,0,0,.09-.36.57.57,0,0,0-.23-.49A1.18,1.18,0,0,0,112.71,247.36Z"/><path class="cls-7" d="M114.66,251l.79-3.94h.43l-.16.78h0a1.68,1.68,0,0,1,.52-.66A1.29,1.29,0,0,1,117,247a1,1,0,0,1,.76.28,1.15,1.15,0,0,1,.25.79,2.18,2.18,0,0,1,0,.25,2,2,0,0,1,0,.26l-.42,2.08h.6l-.07.38h-.57a.47.47,0,0,1-.28-.08.27.27,0,0,1-.1-.24.41.41,0,0,1,0-.11.52.52,0,0,1,0-.11l.38-1.92a2.4,2.4,0,0,0,0-.24,1.56,1.56,0,0,0,0-.2c0-.51-.24-.76-.72-.76a1.12,1.12,0,0,0-.44.09,1.2,1.2,0,0,0-.4.29,1.64,1.64,0,0,0-.31.44,2.13,2.13,0,0,0-.2.55l-.46,2.29Z"/><path class="cls-7" d="M122.47,251.11a2.31,2.31,0,0,1-1.09-.23,1.61,1.61,0,0,1-.7-.69l.35-.25a1.47,1.47,0,0,0,.58.58,1.75,1.75,0,0,0,.87.19,1.81,1.81,0,0,0,.65-.1,1.23,1.23,0,0,0,.46-.28,1,1,0,0,0,.27-.41,1.35,1.35,0,0,0,.09-.5.84.84,0,0,0-.2-.59,1.28,1.28,0,0,0-.66-.33l-.58-.12a1.23,1.23,0,0,1-1.1-1.27,1.53,1.53,0,0,1,.12-.6,1.41,1.41,0,0,1,.33-.5,1.82,1.82,0,0,1,.56-.34,2.3,2.3,0,0,1,.77-.12,2.11,2.11,0,0,1,1,.22,1.76,1.76,0,0,1,.63.58l-.33.26a1.34,1.34,0,0,0-.54-.49,1.75,1.75,0,0,0-.82-.17,1.37,1.37,0,0,0-1,.31,1.09,1.09,0,0,0-.33.82.82.82,0,0,0,.2.6,1.17,1.17,0,0,0,.64.32l.57.12a1.55,1.55,0,0,1,.84.45,1.2,1.2,0,0,1,.29.83,1.85,1.85,0,0,1-.12.67,1.58,1.58,0,0,1-.37.54,1.65,1.65,0,0,1-.6.37A2.39,2.39,0,0,1,122.47,251.11Z"/><path class="cls-7" d="M125.8,251a.4.4,0,0,1-.3-.1.35.35,0,0,1-.09-.25v-.07a.34.34,0,0,1,0-.09l.7-3.43h.42l-.72,3.56h.61l-.08.38Zm.76-5a.28.28,0,0,1-.2-.06.2.2,0,0,1-.06-.15.09.09,0,0,1,0,0,.32.32,0,0,1,0-.12.3.3,0,0,1,.33-.25.28.28,0,0,1,.2.07.2.2,0,0,1,.06.15.11.11,0,0,1,0,0,.68.68,0,0,1,0,.12C126.87,245.92,126.75,246,126.56,246Z"/><path class="cls-7" d="M128.87,251.11a1.39,1.39,0,0,1-1.07-.4,1.72,1.72,0,0,1-.37-1.21,3.32,3.32,0,0,1,.14-1,2.62,2.62,0,0,1,.41-.8,2.05,2.05,0,0,1,.63-.55,1.65,1.65,0,0,1,.83-.21,1.93,1.93,0,0,1,.49.07,1.18,1.18,0,0,1,.39.19.83.83,0,0,1,.27.32.92.92,0,0,1,.1.44,1,1,0,0,1-.13.5,1.11,1.11,0,0,1-.47.4,2.79,2.79,0,0,1-.87.27,7.08,7.08,0,0,1-1.34.11c0,.05,0,.11,0,.17v.16a1.18,1.18,0,0,0,.26.84,1,1,0,0,0,.77.29,1.37,1.37,0,0,0,.75-.21,1.76,1.76,0,0,0,.56-.56l.29.24a2.16,2.16,0,0,1-.76.7A2,2,0,0,1,128.87,251.11Zm.52-3.75a1.21,1.21,0,0,0-.91.39,2,2,0,0,0-.51,1l0,.18a8.54,8.54,0,0,0,1.18-.1,2.39,2.39,0,0,0,.7-.19.75.75,0,0,0,.35-.29.87.87,0,0,0,.09-.36.55.55,0,0,0-.24-.49A1.18,1.18,0,0,0,129.39,247.36Z"/><path class="cls-7" d="M134.75,251.11a1.39,1.39,0,0,1-1.07-.4,1.72,1.72,0,0,1-.37-1.21,3.32,3.32,0,0,1,.14-1,2.62,2.62,0,0,1,.41-.8,2.05,2.05,0,0,1,.63-.55,1.65,1.65,0,0,1,.83-.21,2,2,0,0,1,.49.07,1.18,1.18,0,0,1,.39.19.83.83,0,0,1,.27.32.92.92,0,0,1,.1.44,1,1,0,0,1-.13.5,1.11,1.11,0,0,1-.47.4,2.79,2.79,0,0,1-.87.27,7.08,7.08,0,0,1-1.34.11.88.88,0,0,0,0,.17v.16a1.18,1.18,0,0,0,.26.84,1,1,0,0,0,.77.29,1.37,1.37,0,0,0,.75-.21,1.76,1.76,0,0,0,.56-.56l.29.24a2.16,2.16,0,0,1-.76.7A2,2,0,0,1,134.75,251.11Zm.52-3.75a1.21,1.21,0,0,0-.91.39,2,2,0,0,0-.51,1l0,.18a8.26,8.26,0,0,0,1.18-.1,2.38,2.38,0,0,0,.71-.19.75.75,0,0,0,.35-.29.73.73,0,0,0,.08-.36.54.54,0,0,0-.23-.49A1.18,1.18,0,0,0,135.27,247.36Z"/><path class="cls-7" d="M137.7,251a.39.39,0,0,1-.3-.1.36.36,0,0,1-.1-.25v-.07a.51.51,0,0,1,0-.09l.69-3.43h.43l-.72,3.56h.6l-.07.38Zm.76-5a.27.27,0,0,1-.2-.06.2.2,0,0,1-.06-.15v0a1,1,0,0,0,0-.12.3.3,0,0,1,.33-.25.29.29,0,0,1,.21.07.2.2,0,0,1,.06.15.43.43,0,0,0,0,0s0,.06,0,.12A.29.29,0,0,1,138.46,246Z"/><path class="cls-7" d="M139.25,251l.78-3.94h.44l-.17.78h0a1.88,1.88,0,0,1,.52-.66,1.34,1.34,0,0,1,.76-.22,1,1,0,0,1,.77.28,1.15,1.15,0,0,1,.25.79,2.18,2.18,0,0,1,0,.25,2,2,0,0,1,0,.26l-.42,2.08h.6l-.08.38h-.57a.43.43,0,0,1-.27-.08.27.27,0,0,1-.1-.24v-.11l0-.11.38-1.92a2.4,2.4,0,0,0,0-.24c0-.08,0-.15,0-.2,0-.51-.24-.76-.72-.76a1.12,1.12,0,0,0-.44.09,1.34,1.34,0,0,0-.41.29,1.88,1.88,0,0,0-.3.44,1.82,1.82,0,0,0-.2.55l-.46,2.29Z"/><path class="cls-7" d="M83.57,255.29l-1,5h-.45l1-5H81.38l.08-.4h4l-.09.4Z"/><path class="cls-7" d="M86.31,260.36a1.39,1.39,0,0,1-1.07-.4,1.72,1.72,0,0,1-.37-1.21,3.12,3.12,0,0,1,.15-1,2.61,2.61,0,0,1,.4-.8,2.11,2.11,0,0,1,.64-.55,1.72,1.72,0,0,1,.82-.2,1.57,1.57,0,0,1,.49.07,1.14,1.14,0,0,1,.4.19.94.94,0,0,1,.27.32,1,1,0,0,1,.1.44,1,1,0,0,1-.14.5,1.12,1.12,0,0,1-.47.4,3.45,3.45,0,0,1-.87.27,8,8,0,0,1-1.34.11c0,.05,0,.11,0,.17v.16a1.22,1.22,0,0,0,.26.84,1,1,0,0,0,.77.28,1.45,1.45,0,0,0,.75-.2,1.87,1.87,0,0,0,.56-.56l.3.23a2.15,2.15,0,0,1-.76.7A1.92,1.92,0,0,1,86.31,260.36Zm.52-3.75a1.21,1.21,0,0,0-.91.39,1.9,1.9,0,0,0-.5,1l0,.19a10.46,10.46,0,0,0,1.18-.1,2.85,2.85,0,0,0,.71-.19.77.77,0,0,0,.34-.29.74.74,0,0,0,.09-.36.54.54,0,0,0-.24-.49A1.13,1.13,0,0,0,86.83,256.61Z"/><path class="cls-7" d="M89.25,260.27a.37.37,0,0,1-.29-.1.33.33,0,0,1-.1-.26v-.07a.45.45,0,0,1,0-.08l.69-3.44H90l-.71,3.57h.6l-.08.38Zm.77-5a.29.29,0,0,1-.21-.06.23.23,0,0,1,0-.15V255a.89.89,0,0,1,0-.11.29.29,0,0,1,.33-.25c.1,0,.17,0,.2.07a.2.2,0,0,1,.06.15v0s0,.06,0,.12A.29.29,0,0,1,90,255.25Z"/><path class="cls-7" d="M91.28,260.27a.4.4,0,0,1-.3-.1.36.36,0,0,1-.09-.26v-.06a.34.34,0,0,1,0-.09l1-5.19h.43l-1.07,5.32h.63l-.08.38Z"/><path class="cls-7" d="M97.68,260.27a.37.37,0,0,1-.29-.1.33.33,0,0,1-.09-.25,1.76,1.76,0,0,1,0-.19l.06-.32h0a1.9,1.9,0,0,1-.56.71,1.2,1.2,0,0,1-.77.24,1.06,1.06,0,0,1-.51-.11,1,1,0,0,1-.38-.3,1.36,1.36,0,0,1-.25-.46,2.39,2.39,0,0,1-.08-.62,3.93,3.93,0,0,1,.12-.95,2.94,2.94,0,0,1,.36-.85,1.94,1.94,0,0,1,.61-.6,1.48,1.48,0,0,1,.84-.24,1.28,1.28,0,0,1,.71.2.93.93,0,0,1,.4.56h0l.48-2.42h.43l-1.06,5.32h.59l-.07.38ZM96.13,260a1.06,1.06,0,0,0,.45-.09,1.37,1.37,0,0,0,.39-.27,1.62,1.62,0,0,0,.36-.45,1.64,1.64,0,0,0,.22-.61l.19-.92a1.15,1.15,0,0,0,0-.37.7.7,0,0,0-.15-.34.88.88,0,0,0-.32-.23,1.24,1.24,0,0,0-.5-.09,1.2,1.2,0,0,0-.91.37,2,2,0,0,0-.49,1l-.09.47,0,.21a1.77,1.77,0,0,0,0,.24,1.86,1.86,0,0,0,.05.42,1,1,0,0,0,.16.34.85.85,0,0,0,.28.22A.87.87,0,0,0,96.13,260Z"/><path class="cls-7" d="M100.76,260.36a1.39,1.39,0,0,1-1.07-.4,1.72,1.72,0,0,1-.37-1.21,3.45,3.45,0,0,1,.14-1,2.87,2.87,0,0,1,.41-.8,2.19,2.19,0,0,1,.63-.55,1.78,1.78,0,0,1,.83-.2,1.57,1.57,0,0,1,.49.07,1.14,1.14,0,0,1,.4.19.82.82,0,0,1,.26.32.89.89,0,0,1,.1.44,1,1,0,0,1-.13.5,1.19,1.19,0,0,1-.47.4,3.45,3.45,0,0,1-.87.27,8,8,0,0,1-1.34.11c0,.05,0,.11,0,.17v.16a1.18,1.18,0,0,0,.26.84,1,1,0,0,0,.77.28,1.45,1.45,0,0,0,.75-.2,1.87,1.87,0,0,0,.56-.56l.29.23a2.13,2.13,0,0,1-.75.7A1.92,1.92,0,0,1,100.76,260.36Zm.52-3.75a1.21,1.21,0,0,0-.91.39,2,2,0,0,0-.51,1l0,.19a10.46,10.46,0,0,0,1.18-.1,2.75,2.75,0,0,0,.7-.19.81.81,0,0,0,.35-.29.73.73,0,0,0,.08-.36.53.53,0,0,0-.23-.49A1.18,1.18,0,0,0,101.28,256.61Z"/><path class="cls-7" d="M103.22,260.27l.79-3.95h.43l-.18.83h0a2,2,0,0,1,.2-.31,1.33,1.33,0,0,1,.26-.27,1,1,0,0,1,.34-.18,1.16,1.16,0,0,1,.44-.07h.25l-.08.43h-.26a1.35,1.35,0,0,0-.5.09,1.38,1.38,0,0,0-.4.26,1.49,1.49,0,0,0-.28.38,1.57,1.57,0,0,0-.16.46l-.46,2.33Z"/><path class="cls-7" d="M111.26,260.27,111,258.6h-2.23l-.87,1.67h-.48l2.85-5.38h.6l.85,5.38Zm-.75-4.94h0L109,258.2h2Z"/><path class="cls-7" d="M113.77,256.32l-.49,2.47a.88.88,0,0,0,0,.24,1.48,1.48,0,0,0,0,.2.85.85,0,0,0,.17.56.66.66,0,0,0,.53.19,1.08,1.08,0,0,0,.44-.09,1,1,0,0,0,.4-.28,2.47,2.47,0,0,0,.31-.46,2.29,2.29,0,0,0,.2-.53l.46-2.3h.42l-.71,3.57h.59l-.07.38h-.56a.34.34,0,0,1-.28-.1.32.32,0,0,1-.1-.25,1,1,0,0,1,0-.19l0-.25h0a1.55,1.55,0,0,1-.52.66,1.2,1.2,0,0,1-.74.22,1,1,0,0,1-.76-.28,1.14,1.14,0,0,1-.26-.79,2.32,2.32,0,0,1,0-.24,2.51,2.51,0,0,1,0-.27l.49-2.46Z"/><path class="cls-7" d="M118.23,260.36a1.86,1.86,0,0,1-.85-.19,1.59,1.59,0,0,1-.62-.56l.3-.25a1.34,1.34,0,0,0,1.17.62,1.2,1.2,0,0,0,.74-.21.76.76,0,0,0,.28-.64.52.52,0,0,0-.15-.4,1.09,1.09,0,0,0-.52-.24l-.33-.08-.4-.11a1.35,1.35,0,0,1-.31-.19.83.83,0,0,1-.21-.28,1,1,0,0,1-.07-.41,1.11,1.11,0,0,1,.36-.85,1.46,1.46,0,0,1,1-.34,1.6,1.6,0,0,1,.77.17,1.63,1.63,0,0,1,.51.43l-.3.26a1.4,1.4,0,0,0-.38-.34,1.23,1.23,0,0,0-.63-.14,1.07,1.07,0,0,0-.71.21.72.72,0,0,0-.24.57.54.54,0,0,0,.15.41,1.1,1.1,0,0,0,.51.23l.33.08a2.45,2.45,0,0,1,.41.12,1.17,1.17,0,0,1,.31.19.78.78,0,0,1,.21.29,1.15,1.15,0,0,1,.07.4,1.29,1.29,0,0,1-.11.53,1.14,1.14,0,0,1-.3.39,1.41,1.41,0,0,1-.45.25A2.12,2.12,0,0,1,118.23,260.36Z"/><path class="cls-7" d="M121.12,260.27a.38.38,0,0,1-.3-.1.32.32,0,0,1-.1-.25.66.66,0,0,1,0-.21l.6-3h-.65l.08-.38h.39a.3.3,0,0,0,.24-.07.46.46,0,0,0,.09-.24l.16-.79h.4l-.22,1.1h.88l-.08.38h-.87l-.64,3.19H122l-.08.38Z"/><path class="cls-7" d="M124.48,260.36a1.37,1.37,0,0,1-1.07-.4,1.72,1.72,0,0,1-.38-1.21,3.12,3.12,0,0,1,.15-1,2.63,2.63,0,0,1,.41-.8,2,2,0,0,1,.63-.55,1.76,1.76,0,0,1,.83-.2,1.61,1.61,0,0,1,.49.07,1,1,0,0,1,.39.19.84.84,0,0,1,.27.32.89.89,0,0,1,.1.44.9.9,0,0,1-.14.5,1.09,1.09,0,0,1-.46.4,3.45,3.45,0,0,1-.87.27,8.12,8.12,0,0,1-1.34.11.88.88,0,0,0,0,.17v.16a1.22,1.22,0,0,0,.25.84,1,1,0,0,0,.78.28,1.45,1.45,0,0,0,.75-.2,2,2,0,0,0,.56-.56l.29.23a2.07,2.07,0,0,1-.76.7A1.85,1.85,0,0,1,124.48,260.36Zm.52-3.75a1.21,1.21,0,0,0-.91.39,2,2,0,0,0-.51,1l0,.19a10,10,0,0,0,1.18-.1,2.73,2.73,0,0,0,.71-.19.72.72,0,0,0,.34-.29.74.74,0,0,0,.09-.36.56.56,0,0,0-.23-.49A1.18,1.18,0,0,0,125,256.61Z"/><path class="cls-7" d="M127.42,260.27a.4.4,0,0,1-.3-.1.36.36,0,0,1-.09-.26v-.06a.34.34,0,0,1,0-.09l1-5.19h.43l-1.07,5.32h.63l-.08.38Z"/><path class="cls-7" d="M129.41,260.27a.37.37,0,0,1-.29-.1.33.33,0,0,1-.1-.26v-.06a.51.51,0,0,1,0-.09l1-5.19h.42l-1.06,5.32h.62l-.08.38Z"/><path class="cls-7" d="M132.12,256.32l-.49,2.47a1.5,1.5,0,0,0,0,.24v.2a.85.85,0,0,0,.16.56.67.67,0,0,0,.54.19,1.15,1.15,0,0,0,.84-.37,2.47,2.47,0,0,0,.31-.46,2.29,2.29,0,0,0,.2-.53l.45-2.3h.43l-.71,3.57h.59l-.07.38h-.56a.38.38,0,0,1-.29-.1.35.35,0,0,1-.09-.25s0-.1,0-.19l.05-.25h0a1.63,1.63,0,0,1-.52.66,1.21,1.21,0,0,1-.75.22,1,1,0,0,1-.76-.28,1.14,1.14,0,0,1-.25-.79,2.09,2.09,0,0,1,0-.24c0-.09,0-.18,0-.27l.5-2.46Z"/><path class="cls-7" d="M135.33,260.27l.79-3.95h.43l-.16.79h0a1.63,1.63,0,0,1,.52-.66,1.22,1.22,0,0,1,.76-.22,1,1,0,0,1,.76.28,1.14,1.14,0,0,1,.26.79,2.12,2.12,0,0,1,0,.24,1.26,1.26,0,0,1,0,.27l-.42,2.08h.61l-.08.38h-.57a.47.47,0,0,1-.28-.08.3.3,0,0,1-.1-.25.34.34,0,0,1,0-.1.52.52,0,0,1,0-.11l.39-1.92,0-.25a1.42,1.42,0,0,0,0-.19c0-.51-.23-.76-.71-.76a1.13,1.13,0,0,0-.45.09,1.16,1.16,0,0,0-.4.29,1.9,1.9,0,0,0-.31.44,2.13,2.13,0,0,0-.2.55l-.45,2.29Z"/><path class="cls-7" d="M142.87,260.61a1.26,1.26,0,0,1-.11.51,1.19,1.19,0,0,1-.36.42,2.06,2.06,0,0,1-.63.27,4.22,4.22,0,0,1-.94.09,2.22,2.22,0,0,1-1.15-.23.72.72,0,0,1-.39-.66.84.84,0,0,1,.21-.57,1.45,1.45,0,0,1,.6-.36v0a.49.49,0,0,1-.32-.48.59.59,0,0,1,.21-.47,1.36,1.36,0,0,1,.58-.27v-.05a.84.84,0,0,1-.41-.38,1.08,1.08,0,0,1-.15-.57,1.71,1.71,0,0,1,.12-.65,1.56,1.56,0,0,1,.33-.5,1.52,1.52,0,0,1,.51-.32,1.69,1.69,0,0,1,.64-.12,1.44,1.44,0,0,1,.43.06,1.25,1.25,0,0,1,.35.16l0-.23a.61.61,0,0,1,.14-.29.4.4,0,0,1,.29-.1h.62l-.07.38h-.72l-.08.43a1.1,1.1,0,0,1,.23.69,1.66,1.66,0,0,1-.13.64,1.32,1.32,0,0,1-.33.5,1.5,1.5,0,0,1-.51.33,2,2,0,0,1-.65.11,1.69,1.69,0,0,1-.33,0,1.34,1.34,0,0,0-.52.21.39.39,0,0,0-.19.34.27.27,0,0,0,.12.23.77.77,0,0,0,.4.08h1a1.4,1.4,0,0,1,.92.23A.76.76,0,0,1,142.87,260.61Zm-.44.07a.53.53,0,0,0-.17-.4,1.08,1.08,0,0,0-.63-.14h-1.27a1.21,1.21,0,0,0-.47.29.67.67,0,0,0-.17.46.58.58,0,0,0,.24.49,1.33,1.33,0,0,0,.74.17H141a2,2,0,0,0,1-.23A.71.71,0,0,0,142.43,260.68Zm-1.15-2.11a1,1,0,0,0,.73-.23,1.09,1.09,0,0,0,.34-.62c0-.14,0-.23.05-.29a.71.71,0,0,0,0-.14.69.69,0,0,0-.2-.52.87.87,0,0,0-.62-.19,1.1,1.1,0,0,0-.73.23,1,1,0,0,0-.33.62c0,.14-.05.23-.06.29a.71.71,0,0,0,0,.14.66.66,0,0,0,.2.52A.87.87,0,0,0,141.28,258.57Z"/><g class="cls-4"><path class="cls-8" d="M152.65,110.17a42.56,42.56,0,1,0,30,12.46,42.39,42.39,0,0,0-30-12.46m0,87a44.59,44.59,0,1,1,31.46-13.06,44.39,44.39,0,0,1-31.46,13.06"/><path class="cls-8" d="M153.11,167.09a.61.61,0,0,0-.62.62.65.65,0,0,0,.18.45.63.63,0,0,0,.88,0,.62.62,0,0,0,.19-.45.6.6,0,0,0-.19-.44.63.63,0,0,0-.44-.18m0,1.72a1.12,1.12,0,0,1-.77-.32,1.1,1.1,0,0,1,.77-1.87,1.1,1.1,0,0,1,.78.32,1.1,1.1,0,0,1,0,1.55,1.15,1.15,0,0,1-.78.32"/><path class="cls-8" d="M135.15,161.16h-1.88a.86.86,0,0,1-.61-1.47.85.85,0,0,1,.61-.25h1.88a.82.82,0,0,1,.6.25.85.85,0,0,1,0,1.22.86.86,0,0,1-.6.25"/><path class="cls-8" d="M171.89,144.47H170a.85.85,0,0,1-.86-.86.87.87,0,0,1,.25-.61.85.85,0,0,1,.61-.25h1.88a.85.85,0,0,1,.61.25.87.87,0,0,1,.25.61.85.85,0,0,1-.86.86"/><path class="cls-8" d="M126,161.9l.54-1.76.54-1.76.55,1.76.54,1.76H126Zm1.91-6.7a.86.86,0,0,0-.83-.6.91.91,0,0,0-.51.16.93.93,0,0,0-.31.44l-1.69,5.49-1.68,5.48a.81.81,0,0,0,.06.65.83.83,0,0,0,.51.42.78.78,0,0,0,.65-.06.83.83,0,0,0,.42-.51l.47-1.52.47-1.53h3.23l.47,1.53.47,1.52a.85.85,0,0,0,.31.45.91.91,0,0,0,.51.16h.12a.28.28,0,0,0,.13,0,.83.83,0,0,0,.51-.42.85.85,0,0,0,.06-.65l-1.69-5.48Z"/><path class="cls-8" d="M177,148.13v-4.29a5.29,5.29,0,0,1,3.11.83,1.91,1.91,0,0,1,.64,1.6,1.37,1.37,0,0,1-.68,1.39,7.2,7.2,0,0,1-3.07.47m0-9.2a6.79,6.79,0,0,1,2.06.39c.59.24,1,.61,1,1.18s-.42.95-1,1.19a6.79,6.79,0,0,1-2.06.39v-3.15Zm3.5,3.93a2.85,2.85,0,0,0,1-1.19,2.78,2.78,0,0,0,.25-1.17,2.71,2.71,0,0,0-1-2.12c-.8-.68-2.21-1.2-4.67-1.2a.85.85,0,0,0-.86.86v11a.87.87,0,0,0,.25.61.85.85,0,0,0,.61.25,13,13,0,0,0,4.23-.45,3,3,0,0,0,2.11-3.14,4,4,0,0,0-.57-2.17,3.65,3.65,0,0,0-1.41-1.24"/><path class="cls-8" d="M160,163.54H146.18a.86.86,0,0,0-.6.25.85.85,0,0,0,0,1.22.86.86,0,0,0,.6.25H160a.86.86,0,1,0,0-1.72"/><path class="cls-8" d="M142.18,159.44h-3.52a.85.85,0,0,0-.61.25.86.86,0,0,0,.61,1.47h3.52a.86.86,0,0,0,.61-1.47.85.85,0,0,0-.61-.25"/><path class="cls-8" d="M156.06,145.36l.21,0a.7.7,0,0,0,.2-.08,6.62,6.62,0,0,1,1.44-.56,6.16,6.16,0,0,1,1.54-.22.86.86,0,0,0,.6-.27.8.8,0,0,0,.24-.61.85.85,0,0,0-.26-.6.84.84,0,0,0-.6-.24h0a8.56,8.56,0,0,0-1.95.27,8.34,8.34,0,0,0-1.81.72.83.83,0,0,0-.41.51.85.85,0,0,0,.07.66.87.87,0,0,0,.75.45"/><path class="cls-8" d="M150.89,156.6a.89.89,0,0,0-.11.65.87.87,0,0,0,.38.54,1.15,1.15,0,0,0,.23.1.85.85,0,0,0,.23,0,1,1,0,0,0,.41-.1.84.84,0,0,0,.32-.3,6.83,6.83,0,0,0,.81-1.81,7.3,7.3,0,0,0,.28-2,.84.84,0,0,0-.25-.59.9.9,0,0,0-.61-.24.84.84,0,0,0-.61.26.89.89,0,0,0-.25.62,5.61,5.61,0,0,1-.21,1.47,5.38,5.38,0,0,1-.62,1.36"/><path class="cls-8" d="M161.34,167.22a3,3,0,0,1-2.94,2.94H147.82a3,3,0,0,1-2.94-2.94v-6.7a.91.91,0,0,0,.3.46.84.84,0,0,0,.52.18h0a9,9,0,0,0,1.95-.27,7.73,7.73,0,0,0,1.82-.71.83.83,0,0,0,.41-.51.84.84,0,0,0-.57-1.07.89.89,0,0,0-.66.06,6.1,6.1,0,0,1-1.43.57,7.24,7.24,0,0,1-1.55.21.83.83,0,0,0-.51.18,1,1,0,0,0-.29.44v-21.9a3,3,0,0,1,2.94-2.95H158.4a3,3,0,0,1,2.94,2.95v29.06Zm5.13-24.47h-3.41v-4.59a4.68,4.68,0,0,0-4.66-4.67H147.82a4.68,4.68,0,0,0-4.66,4.67v29.06a4.68,4.68,0,0,0,4.66,4.66H158.4a4.68,4.68,0,0,0,4.66-4.66V144.47h3.41a.89.89,0,0,0,.61-.25.91.91,0,0,0,.25-.61.87.87,0,0,0-.25-.61.85.85,0,0,0-.61-.25"/><path class="cls-8" d="M153.44,150.13a5.46,5.46,0,0,1,.2-1.45,5.35,5.35,0,0,1,.61-1.36.88.88,0,0,0,.11-.65.83.83,0,0,0-.39-.53.83.83,0,0,0-.65-.11.85.85,0,0,0-.53.38,7.16,7.16,0,0,0-.8,1.79,7,7,0,0,0-.27,1.93v.08a.8.8,0,0,0,.25.59.9.9,0,0,0,.61.23.88.88,0,0,0,.61-.27,1,1,0,0,0,.25-.63"/><path class="cls-8" d="M146.18,138.65a.82.82,0,0,0-.6.25.85.85,0,0,0,0,1.22.86.86,0,0,0,.6.25H160a.91.91,0,0,0,.61-.25.87.87,0,0,0,0-1.22.86.86,0,0,0-.61-.25H146.18Z"/></g><path class="cls-9" d="M79.83,51.91h-.07l-1.09,2.18-2.9,5.27-2.84-5.25L71.8,51.76h-.06v9.93h-3V46.79h3.43l3.65,7h0l3.61-7h3.46v14.9h-3Z"/><path class="cls-9" d="M90.54,61.94a5.69,5.69,0,0,1-2.21-.4,4.35,4.35,0,0,1-1.64-1.18,5.3,5.3,0,0,1-1-1.85,8.42,8.42,0,0,1,0-4.87,5.21,5.21,0,0,1,1-1.85,4.41,4.41,0,0,1,1.64-1.16,6.31,6.31,0,0,1,4.42,0,4.58,4.58,0,0,1,1.64,1.16,5.19,5.19,0,0,1,1,1.85,8.2,8.2,0,0,1,0,4.87,5.28,5.28,0,0,1-1,1.85,4.51,4.51,0,0,1-1.64,1.18A5.73,5.73,0,0,1,90.54,61.94Zm0-2.5A1.85,1.85,0,0,0,92,58.87a2.4,2.4,0,0,0,.51-1.64V54.94A2.39,2.39,0,0,0,92,53.3a2.1,2.1,0,0,0-2.9,0,2.34,2.34,0,0,0-.52,1.64v2.29a2.36,2.36,0,0,0,.52,1.64A1.84,1.84,0,0,0,90.54,59.44Z"/><path class="cls-9" d="M98,45.89h3.16v6.47h.1a2.65,2.65,0,0,1,1.08-1.54,3.31,3.31,0,0,1,1.93-.59,3.71,3.71,0,0,1,3.22,1.49,7.31,7.31,0,0,1,1.09,4.35,7.38,7.38,0,0,1-1.09,4.37,3.72,3.72,0,0,1-3.22,1.5,3.19,3.19,0,0,1-1-.16,3,3,0,0,1-.89-.45,2.88,2.88,0,0,1-.67-.68,2.73,2.73,0,0,1-.41-.84h-.1v1.88H98Zm5.23,13.49a1.94,1.94,0,0,0,1.48-.63,2.39,2.39,0,0,0,.59-1.7V55.11a2.38,2.38,0,0,0-.59-1.69,1.94,1.94,0,0,0-1.48-.63,2.44,2.44,0,0,0-1.49.43,1.44,1.44,0,0,0-.58,1.21v3.31a1.41,1.41,0,0,0,.58,1.2A2.38,2.38,0,0,0,103.26,59.38Z"/><path class="cls-9" d="M112.58,49.29a1.93,1.93,0,0,1-1.4-.44,1.52,1.52,0,0,1-.43-1.12v-.47a1.51,1.51,0,0,1,.43-1.12,2.45,2.45,0,0,1,2.8,0,1.51,1.51,0,0,1,.44,1.12v.47a1.53,1.53,0,0,1-.44,1.12A1.93,1.93,0,0,1,112.58,49.29ZM111,50.48h3.16V61.69H111Z"/><path class="cls-9" d="M120.24,61.69a2.73,2.73,0,0,1-3.13-3.08V45.89h3.15V59.23h1.41v2.46Z"/><path class="cls-9" d="M125.15,49.29a1.93,1.93,0,0,1-1.4-.44,1.53,1.53,0,0,1-.44-1.12v-.47a1.51,1.51,0,0,1,.44-1.12,2.45,2.45,0,0,1,2.8,0,1.51,1.51,0,0,1,.44,1.12v.47a1.53,1.53,0,0,1-.44,1.12A1.93,1.93,0,0,1,125.15,49.29Zm-1.58,1.19h3.16V61.69h-3.16Z"/><path class="cls-9" d="M133.6,61.69a3.37,3.37,0,0,1-2.48-.84,3.22,3.22,0,0,1-.85-2.43V52.94h-1.58V50.48h.79a1,1,0,0,0,.88-.31,1.46,1.46,0,0,0,.23-.88V47.45h2.84v3h2.22v2.46h-2.22v6.29h2v2.46Z"/><path class="cls-9" d="M146.13,61.69a2,2,0,0,1-1.42-.54,2.42,2.42,0,0,1-.72-1.43h-.12a2.62,2.62,0,0,1-1.14,1.66,3.93,3.93,0,0,1-2.15.56,3.51,3.51,0,0,1-2.58-.89,3.18,3.18,0,0,1-.9-2.36,2.94,2.94,0,0,1,1.29-2.63,6.28,6.28,0,0,1,3.51-.86h1.77v-.71a1.89,1.89,0,0,0-.42-1.29,1.85,1.85,0,0,0-1.43-.48,2.49,2.49,0,0,0-1.5.41,4,4,0,0,0-.92.92l-1.87-1.68a4.88,4.88,0,0,1,1.71-1.58,6,6,0,0,1,2.81-.56,5.32,5.32,0,0,1,3.59,1,3.87,3.87,0,0,1,1.19,3v4.91h1v2.46Zm-6.36-12.81a1.83,1.83,0,0,1-1.34-.39,1.38,1.38,0,0,1-.37-1V47a1.38,1.38,0,0,1,.37-1,1.83,1.83,0,0,1,1.34-.39,1.81,1.81,0,0,1,1.33.39,1.34,1.34,0,0,1,.37,1v.54a1.34,1.34,0,0,1-.37,1A1.81,1.81,0,0,1,139.77,48.88Zm2,10.86a2.57,2.57,0,0,0,1.36-.34,1.18,1.18,0,0,0,.56-1.1V57h-1.53c-1.24,0-1.86.42-1.86,1.25v.32a1.06,1.06,0,0,0,.38.9A1.81,1.81,0,0,0,141.75,59.74Zm2.71-10.86a1.81,1.81,0,0,1-1.33-.39,1.34,1.34,0,0,1-.37-1V47a1.34,1.34,0,0,1,.37-1,1.81,1.81,0,0,1,1.33-.39,1.83,1.83,0,0,1,1.34.39,1.34,1.34,0,0,1,.37,1v.54a1.34,1.34,0,0,1-.37,1A1.83,1.83,0,0,1,144.46,48.88Z"/><path class="cls-9" d="M153.81,61.69a3.39,3.39,0,0,1-2.49-.84,3.26,3.26,0,0,1-.84-2.43V52.94H148.9V50.48h.79a1,1,0,0,0,.88-.31,1.46,1.46,0,0,0,.23-.88V47.45h2.84v3h2.22v2.46h-2.22v6.29h2.05v2.46Z"/><path class="cls-9" d="M161.85,61.94a6.36,6.36,0,0,1-2.73-.52,6.27,6.27,0,0,1-2-1.48L159,58.06a4.67,4.67,0,0,0,1.33,1,3.4,3.4,0,0,0,1.64.39,2.16,2.16,0,0,0,1.3-.29,1,1,0,0,0,.37-.78c0-.53-.38-.84-1.14-.94l-1.21-.15q-3.78-.46-3.78-3.46a3.44,3.44,0,0,1,.31-1.48,3.31,3.31,0,0,1,.88-1.15,4.06,4.06,0,0,1,1.36-.75,5.63,5.63,0,0,1,1.8-.26,10.07,10.07,0,0,1,1.55.11,6.1,6.1,0,0,1,1.2.34,4.56,4.56,0,0,1,1,.56,9.66,9.66,0,0,1,.86.74l-1.81,1.85A4.38,4.38,0,0,0,163.4,53a3.21,3.21,0,0,0-1.37-.31,2,2,0,0,0-1.16.26.79.79,0,0,0-.34.68.9.9,0,0,0,.25.69,1.64,1.64,0,0,0,.93.35l1.26.18c2.46.32,3.69,1.45,3.69,3.37a3.24,3.24,0,0,1-.35,1.49,3.45,3.45,0,0,1-1,1.19,4.58,4.58,0,0,1-1.51.77A6.44,6.44,0,0,1,161.85,61.94Z"/><path class="cls-9" d="M175.68,59.81h-.1a2.73,2.73,0,0,1-.41.84,3.09,3.09,0,0,1-.67.68,3,3,0,0,1-.9.45,3.26,3.26,0,0,1-1,.16,3.74,3.74,0,0,1-3.23-1.5,7.46,7.46,0,0,1-1.08-4.37,7.39,7.39,0,0,1,1.08-4.35,3.73,3.73,0,0,1,3.23-1.49,3.31,3.31,0,0,1,1.93.59,2.65,2.65,0,0,1,1.08,1.54h.1V45.89h3.16v15.8h-3.16Zm-2.07-.43a2.4,2.4,0,0,0,1.49-.44,1.41,1.41,0,0,0,.58-1.2V54.43a1.44,1.44,0,0,0-.58-1.21,2.46,2.46,0,0,0-1.49-.43,1.94,1.94,0,0,0-1.48.63,2.38,2.38,0,0,0-.59,1.69v1.94a2.39,2.39,0,0,0,.59,1.7A1.94,1.94,0,0,0,173.61,59.38Z"/><path class="cls-9" d="M183.37,49.29a1.91,1.91,0,0,1-1.4-.44,1.53,1.53,0,0,1-.44-1.12v-.47a1.51,1.51,0,0,1,.44-1.12,2.43,2.43,0,0,1,2.79,0,1.51,1.51,0,0,1,.44,1.12v.47a1.53,1.53,0,0,1-.44,1.12A1.91,1.91,0,0,1,183.37,49.29Zm-1.58,1.19h3.15V61.69h-3.15Z"/><path class="cls-9" d="M192.56,61.94a6.06,6.06,0,0,1-2.28-.41,4.77,4.77,0,0,1-1.7-1.18,4.88,4.88,0,0,1-1-1.84,7.78,7.78,0,0,1-.35-2.44,7.86,7.86,0,0,1,.34-2.4,4.91,4.91,0,0,1,1-1.84,4.48,4.48,0,0,1,1.65-1.19,5.7,5.7,0,0,1,2.24-.41,5.4,5.4,0,0,1,2.38.47A4.55,4.55,0,0,1,196.44,52a5.07,5.07,0,0,1,.91,1.83,7.74,7.74,0,0,1,.29,2.17v.93h-7.19v.17a2.18,2.18,0,0,0,2.48,2.39,3,3,0,0,0,1.6-.39,6.32,6.32,0,0,0,1.15-.94l1.58,2a5,5,0,0,1-2,1.37A7.12,7.12,0,0,1,192.56,61.94Zm-.06-9.39a1.9,1.9,0,0,0-1.51.63,2.49,2.49,0,0,0-.54,1.68V55h3.93v-.19a2.79,2.79,0,0,0-.46-1.66A1.65,1.65,0,0,0,192.5,52.55Z"/><path class="cls-9" d="M199.88,61.69V50.48H203v1.9h.13a3.4,3.4,0,0,1,1.05-1.51,3,3,0,0,1,2.06-.64,3.09,3.09,0,0,1,2.62,1.15,5.29,5.29,0,0,1,.88,3.28v7h-3.15V54.92a3,3,0,0,0-.35-1.61,1.32,1.32,0,0,0-1.21-.52,3.08,3.08,0,0,0-.75.09,2.06,2.06,0,0,0-.65.31,1.63,1.63,0,0,0-.46.52,1.53,1.53,0,0,0-.17.72v7.26Z"/><path class="cls-9" d="M216.4,61.94a5.88,5.88,0,0,1-4.72-2l1.86-1.88a4.77,4.77,0,0,0,1.32,1,3.44,3.44,0,0,0,1.65.39,2.18,2.18,0,0,0,1.3-.29.94.94,0,0,0,.36-.78c0-.53-.38-.84-1.13-.94l-1.22-.15c-2.52-.31-3.77-1.46-3.77-3.46a3.44,3.44,0,0,1,.31-1.48,3.16,3.16,0,0,1,.87-1.15,4.11,4.11,0,0,1,1.37-.75,5.59,5.59,0,0,1,1.8-.26,10.16,10.16,0,0,1,1.55.11,6.2,6.2,0,0,1,1.19.34,4.56,4.56,0,0,1,1,.56A11.42,11.42,0,0,1,221,52l-1.82,1.85A4.33,4.33,0,0,0,218,53a3.22,3.22,0,0,0-1.38-.31,2,2,0,0,0-1.15.26.79.79,0,0,0-.34.68.93.93,0,0,0,.24.69,1.67,1.67,0,0,0,.93.35l1.26.18c2.46.32,3.69,1.45,3.69,3.37a3.23,3.23,0,0,1-.34,1.49,3.56,3.56,0,0,1-1,1.19,4.63,4.63,0,0,1-1.52.77A6.38,6.38,0,0,1,216.4,61.94Z"/><path class="cls-9" d="M227.13,61.69a3.37,3.37,0,0,1-2.48-.84,3.22,3.22,0,0,1-.85-2.43V52.94h-1.58V50.48H223a1,1,0,0,0,.88-.31,1.4,1.4,0,0,0,.23-.88V47.45H227v3h2.22v2.46H227v6.29h2v2.46Z"/><path class="cls-9" d="M230.82,56.71V53.64h6.34v3.07Z"/><path class="cls-9" d="M120.08,87.29a2,2,0,0,1-1.42-.53,2.5,2.5,0,0,1-.71-1.43h-.13A2.56,2.56,0,0,1,116.69,87a3.86,3.86,0,0,1-2.16.57,3.53,3.53,0,0,1-2.58-.89,3.2,3.2,0,0,1-.89-2.37,2.93,2.93,0,0,1,1.29-2.62,6.2,6.2,0,0,1,3.51-.86h1.77V80.1a1.85,1.85,0,0,0-.43-1.29,1.83,1.83,0,0,0-1.43-.48,2.48,2.48,0,0,0-1.49.41,4,4,0,0,0-.92.91L111.48,78a5,5,0,0,1,1.72-1.58,5.86,5.86,0,0,1,2.81-.57,5.28,5.28,0,0,1,3.58,1,3.83,3.83,0,0,1,1.2,3.05v4.91h1v2.45Zm-4.37-1.94a2.53,2.53,0,0,0,1.35-.34,1.17,1.17,0,0,0,.57-1.1V82.6h-1.54c-1.24,0-1.85.42-1.85,1.25v.32a1,1,0,0,0,.38.9A1.81,1.81,0,0,0,115.71,85.35Z"/><path class="cls-9" d="M124,87.29V76.09h3.15V78h.13a3.49,3.49,0,0,1,1-1.52A3.58,3.58,0,0,1,133,77a5.27,5.27,0,0,1,.89,3.28v7h-3.16V80.53a3.06,3.06,0,0,0-.34-1.61,1.36,1.36,0,0,0-1.22-.53,3.15,3.15,0,0,0-.75.1,1.86,1.86,0,0,0-.65.31,1.76,1.76,0,0,0-.46.52,1.53,1.53,0,0,0-.17.72v7.25Z"/><path class="cls-9" d="M136.66,71.5h3.16V78h.11A2.57,2.57,0,0,1,141,76.43a3.23,3.23,0,0,1,1.93-.6,3.73,3.73,0,0,1,3.22,1.5,7.34,7.34,0,0,1,1.09,4.35A7.4,7.4,0,0,1,146.16,86a3.71,3.71,0,0,1-3.22,1.51,3.3,3.3,0,0,1-1.05-.16,3.18,3.18,0,0,1-.88-.45,2.93,2.93,0,0,1-.68-.68,2.82,2.82,0,0,1-.4-.84h-.11v1.87h-3.16ZM141.89,85a2,2,0,0,0,1.49-.63,2.4,2.4,0,0,0,.58-1.7V80.72a2.4,2.4,0,0,0-.58-1.7,2,2,0,0,0-1.49-.63,2.43,2.43,0,0,0-1.48.44,1.44,1.44,0,0,0-.59,1.21v3.31a1.42,1.42,0,0,0,.59,1.2A2.43,2.43,0,0,0,141.89,85Z"/><path class="cls-9" d="M151.22,74.89a1.92,1.92,0,0,1-1.4-.43,1.53,1.53,0,0,1-.44-1.12v-.47a1.51,1.51,0,0,1,.44-1.12,2.45,2.45,0,0,1,2.8,0,1.51,1.51,0,0,1,.43,1.12v.47a1.52,1.52,0,0,1-.43,1.12A1.94,1.94,0,0,1,151.22,74.89Zm-1.58,1.2h3.16v11.2h-3.16Z"/><path class="cls-9" d="M160.41,87.55a5.87,5.87,0,0,1-2.28-.42A4.62,4.62,0,0,1,156.44,86a4.86,4.86,0,0,1-1.05-1.85,7.67,7.67,0,0,1-.35-2.43,7.86,7.86,0,0,1,.34-2.4,5.18,5.18,0,0,1,1-1.85,4.53,4.53,0,0,1,1.66-1.18,6.22,6.22,0,0,1,4.62,0,4.65,4.65,0,0,1,1.62,1.26,5.26,5.26,0,0,1,.92,1.83,8.1,8.1,0,0,1,.28,2.16v.94H158.3v.17a2.48,2.48,0,0,0,.6,1.75,2.44,2.44,0,0,0,1.88.64,3,3,0,0,0,1.6-.39,6,6,0,0,0,1.15-.94l1.58,2a5.09,5.09,0,0,1-2,1.37A7.21,7.21,0,0,1,160.41,87.55Zm-.06-9.39a1.87,1.87,0,0,0-1.5.63,2.44,2.44,0,0,0-.55,1.67v.18h3.93v-.2a2.71,2.71,0,0,0-.46-1.65A1.63,1.63,0,0,0,160.35,78.16Z"/><path class="cls-9" d="M171.66,87.29a3.37,3.37,0,0,1-2.48-.83,3.22,3.22,0,0,1-.85-2.43V78.54h-1.58V76.09h.79a1,1,0,0,0,.88-.31,1.5,1.5,0,0,0,.23-.89V73.06h2.84v3h2.22v2.45h-2.22v6.3h2v2.45Z"/><path class="cls-9" d="M180.52,87.55a5.88,5.88,0,0,1-2.29-.42A4.62,4.62,0,0,1,176.54,86a4.86,4.86,0,0,1-1-1.85,8,8,0,0,1-.35-2.43,7.86,7.86,0,0,1,.34-2.4,5.33,5.33,0,0,1,1-1.85,4.53,4.53,0,0,1,1.66-1.18,6.22,6.22,0,0,1,4.62,0,4.65,4.65,0,0,1,1.62,1.26,5.09,5.09,0,0,1,.92,1.83,8.1,8.1,0,0,1,.29,2.16v.94h-7.2v.17a2.18,2.18,0,0,0,2.48,2.39,3,3,0,0,0,1.6-.39,6,6,0,0,0,1.15-.94l1.58,2a5.09,5.09,0,0,1-2,1.37A7.16,7.16,0,0,1,180.52,87.55Zm-.07-9.39a1.87,1.87,0,0,0-1.5.63,2.49,2.49,0,0,0-.55,1.67v.18h3.93v-.2a2.71,2.71,0,0,0-.46-1.65A1.63,1.63,0,0,0,180.45,78.16Z"/><path class="cls-9" d="M187.84,87.29V76.09H191v2.43h.11a3.66,3.66,0,0,1,.3-.9,2.46,2.46,0,0,1,.57-.78,2.61,2.61,0,0,1,.84-.55,3.07,3.07,0,0,1,1.15-.2h.56V79h-.79a4.5,4.5,0,0,0-2.06.37,1.39,1.39,0,0,0-.68,1.34v6.55Z"/></g></svg>