<svg xmlns="http://www.w3.org/2000/svg" xmlns:xlink="http://www.w3.org/1999/xlink" viewBox="0 0 305.62 305.62"><defs><style>.cls-1,.cls-2,.cls-3{fill:none;}.cls-2{stroke:#fff;stroke-width:1.25px;}.cls-2,.cls-3{stroke-miterlimit:10;}.cls-3{stroke:#000;stroke-width:0.25px;}.cls-4{clip-path:url(#clip-path);}.cls-5{fill:#e2001a;}.cls-6{fill:#2699d1;}.cls-7{fill:#1a171b;}.cls-8{fill:#7e4993;}</style><clipPath id="clip-path"><rect class="cls-1" x="6.8" y="-1.64" width="292.96" height="277.64"/></clipPath></defs><title>feedback_vehiclemanufacturers_front</title><g id="Ebene_2" data-name="Ebene 2"><path class="cls-2" d="M284.62,290.62v15m0-290.62V0M21,290.62v15M21,15V0M290.62,284.62h15M15,284.62H0M290.62,21h15M15,21H0"/><path class="cls-3" d="M284.62,290.62v15m0-290.62V0M21,290.62v15M21,15V0M290.62,284.62h15M15,284.62H0M290.62,21h15M15,21H0"/></g><g id="Ebene_1" data-name="Ebene 1"><g class="cls-4"><path class="cls-5" d="M153.33,240.19a4.45,4.45,0,0,0-.46,8.87c1.91.2,2.61,1.32,2.36,3.75,0,.24,0,.49,0,.73a7,7,0,1,0,7-7c-.24,0-.49,0-.73,0-2.43.26-3.55-.45-3.75-2.36a4.43,4.43,0,0,0-4.42-4m8.9,20.49a7.15,7.15,0,0,1-7.14-7.14,6,6,0,0,1,0-.74c.24-2.39-.41-3.44-2.27-3.64a4.55,4.55,0,1,1,5-5c.2,1.86,1.25,2.51,3.64,2.27a6.23,6.23,0,0,1,.74,0,7.14,7.14,0,1,1,0,14.28"/><path class="cls-5" d="M154.53,242.34a3.5,3.5,0,0,0-.36,7c1.52.16,2.08,1.05,1.88,3a5.63,5.63,0,0,0,0,.58,5.55,5.55,0,1,0,5.55-5.55l-.58,0c-1.92.2-2.82-.36-3-1.87a3.48,3.48,0,0,0-3.48-3.15m7,16.19a5.67,5.67,0,0,1-5.66-5.65,5.83,5.83,0,0,1,0-.59c.2-1.88-.32-2.71-1.78-2.86a3.61,3.61,0,1,1,4-4c.15,1.46,1,2,2.86,1.78l.59,0a5.66,5.66,0,0,1,0,11.31"/><path class="cls-5" d="M155.74,244.49a2.56,2.56,0,0,0-.26,5.1c1.12.12,1.53.78,1.39,2.2a3,3,0,0,0,0,.42,4.06,4.06,0,1,0,4.06-4.06,3,3,0,0,0-.42,0c-1.42.15-2.08-.27-2.2-1.39a2.55,2.55,0,0,0-2.54-2.3m5.16,11.89a4.17,4.17,0,0,1-4.16-4.17,3.17,3.17,0,0,1,0-.43c.14-1.37-.23-2-1.3-2.08a2.67,2.67,0,1,1,2.93-2.92c.11,1.06.71,1.43,2.08,1.29a3.1,3.1,0,0,1,.43,0,4.17,4.17,0,1,1,0,8.33"/><path class="cls-5" d="M156.89,249.87c.64.11.88.54.79,1.41a2.44,2.44,0,0,0,0,.27,2.57,2.57,0,1,0,2.57-2.57H160a1.51,1.51,0,0,1-1.06-.17.88.88,0,0,1-.35-.63h0l0-.11a1.61,1.61,0,1,0-1.76,1.76h.11Zm3.35,4.36a2.68,2.68,0,0,1-2.68-2.68,2.64,2.64,0,0,1,0-.28c.11-1.06-.33-1.26-.82-1.31h-.1a1.72,1.72,0,1,1,2-2h0l0,.1a.89.89,0,0,0,.32.67,1.49,1.49,0,0,0,1,.15l.28,0a2.68,2.68,0,0,1,0,5.36"/><path class="cls-6" d="M162.81,240a8.32,8.32,0,0,0-8.31,8.31,8.12,8.12,0,0,0,0,.86c.3,2.86-.53,4.18-2.77,4.42a5.26,5.26,0,1,0,5.76,5.76c.23-2.24,1.56-3.07,4.41-2.77a8.44,8.44,0,0,0,.87,0,8.31,8.31,0,0,0,0-16.62M152.3,264.17a5.36,5.36,0,0,1-.55-10.7c2.2-.23,3-1.47,2.68-4.3a8.42,8.42,0,1,1,8.38,7.55,8.65,8.65,0,0,1-.88-.05c-2.82-.29-4.06.49-4.3,2.68a5.34,5.34,0,0,1-5.33,4.82"/><path class="cls-6" d="M162.49,241a7.6,7.6,0,0,0-7.59,7.59,7,7,0,0,0,0,.79c.27,2.62-.49,3.82-2.54,4a4.8,4.8,0,1,0,5.26,5.26c.21-2,1.42-2.81,4-2.54a7,7,0,0,0,.79,0,7.59,7.59,0,0,0,0-15.18m-9.61,22.1a4.91,4.91,0,0,1-.5-9.79c2-.21,2.72-1.34,2.45-3.92a7.14,7.14,0,0,1,0-.8,7.7,7.7,0,1,1,7.7,7.7,7.26,7.26,0,0,1-.8,0c-2.58-.27-3.72.44-3.93,2.44a4.88,4.88,0,0,1-4.88,4.41"/><path class="cls-6" d="M162.16,242.08a6.87,6.87,0,0,0-6.86,6.86q0,.36,0,.72c.25,2.37-.44,3.47-2.3,3.66a4.34,4.34,0,1,0,4.76,4.76c.19-1.86,1.29-2.55,3.66-2.3l.71,0a6.87,6.87,0,1,0,0-13.73m-8.69,20a4.45,4.45,0,0,1-.46-8.87c1.82-.19,2.46-1.22,2.22-3.55a6.06,6.06,0,0,1,0-.73,7,7,0,1,1,7,7,5.9,5.9,0,0,1-.72,0c-2.33-.24-3.36.4-3.55,2.21a4.43,4.43,0,0,1-4.42,4"/><path class="cls-6" d="M161.84,243.12a6.15,6.15,0,0,0-6.15,6.14c0,.21,0,.43,0,.64.22,2.13-.4,3.12-2.07,3.29a3.89,3.89,0,1,0,4.26,4.26c.17-1.67,1.15-2.29,3.29-2.07q.31,0,.63,0a6.15,6.15,0,1,0,0-12.29m-7.79,17.93a4,4,0,0,1-.4-8c1.62-.17,2.19-1.09,2-3.18,0-.21,0-.43,0-.65a6.26,6.26,0,1,1,6.25,6.26c-.21,0-.43,0-.64,0-2.09-.22-3,.35-3.18,2a4,4,0,0,1-4,3.59"/><path class="cls-6" d="M161.52,244.16a5.42,5.42,0,0,0-5.4,6c.2,1.89-.35,2.76-1.83,2.91a3.43,3.43,0,1,0,3.75,3.76c.16-1.48,1-2,2.92-1.83l.56,0a5.43,5.43,0,0,0,0-10.86M154.64,260a3.53,3.53,0,0,1-.36-7c1.42-.15,1.93-1,1.74-2.8a5.44,5.44,0,0,1,0-.57,5.54,5.54,0,1,1,5,5.5c-1.84-.19-2.65.32-2.8,1.74a3.52,3.52,0,0,1-3.51,3.18"/><path class="cls-6" d="M161.2,245.2a4.71,4.71,0,0,0-4.71,4.71,4.15,4.15,0,0,0,0,.49c.17,1.64-.31,2.4-1.6,2.54a3,3,0,1,0,3.25,3.25c.14-1.29.9-1.77,2.54-1.6l.49,0a4.71,4.71,0,1,0,0-9.42m-6,13.77a3.08,3.08,0,0,1-.31-6.14c1.23-.13,1.67-.83,1.5-2.42a4.26,4.26,0,0,1,0-.5,4.82,4.82,0,1,1,4.81,4.81l-.5,0c-1.59-.17-2.29.27-2.42,1.5a3.07,3.07,0,0,1-3.06,2.77"/><path class="cls-6" d="M160.88,246.24a4,4,0,0,0-4,4c0,.13,0,.27,0,.41.15,1.4-.26,2.05-1.36,2.17a2.51,2.51,0,1,0,2.75,2.75c.12-1.1.77-1.51,2.17-1.36l.41,0a4,4,0,1,0,0-8m-5.08,11.69a2.62,2.62,0,0,1-.26-5.23c1-.11,1.41-.7,1.27-2a3,3,0,0,1,0-.42,4.1,4.1,0,1,1,4.09,4.09,3,3,0,0,1-.42,0c-1.35-.14-1.94.23-2.05,1.27a2.62,2.62,0,0,1-2.61,2.36"/><path class="cls-6" d="M156.28,252.66v0h-.11a2,2,0,1,0,2.24,2.24v-.11h0c.13-.84.67-1.15,1.78-1l.34,0a3.27,3.27,0,1,0-3.27-3.27c0,.11,0,.22,0,.34.11,1.11-.19,1.65-1,1.77m.11,4.22a2.16,2.16,0,0,1-.32-4.29h.09c.86-.09,1.16-.57,1-1.67,0-.12,0-.24,0-.35a3.38,3.38,0,1,1,3,3.36c-1.1-.12-1.58.18-1.67,1v.11l0,0a2.13,2.13,0,0,1-2.12,1.84"/><path class="cls-6" d="M156.91,252.53h0l-.1,0a1.59,1.59,0,0,0-1.44,1.58,1.6,1.6,0,0,0,1.6,1.6,1.59,1.59,0,0,0,1.58-1.44v-.11h0c.11-.65.54-.89,1.41-.8l.26,0a2.55,2.55,0,1,0-2.55-2.55c0,.09,0,.18,0,.26.09.87-.14,1.3-.79,1.4m.06,3.31a1.7,1.7,0,0,1-.27-3.38h0l.1,0c.49-.05.92-.24.81-1.3a2.45,2.45,0,0,1,0-.27,2.66,2.66,0,1,1,2.66,2.66l-.28,0c-1.05-.11-1.24.32-1.29.8v.11h0a1.68,1.68,0,0,1-1.67,1.43"/><path class="cls-6" d="M157.55,252.41h0l-.11,0a1.13,1.13,0,0,0-1,1.12,1.15,1.15,0,0,0,1.14,1.15,1.13,1.13,0,0,0,1.13-1l0-.12a.56.56,0,0,1,.26-.42,1,1,0,0,1,.62-.13v0l.15,0h.2a1.83,1.83,0,1,0-1.83-1.83c0,.05,0,.09,0,.14v.06l0,.15h0a1,1,0,0,1-.13.62.64.64,0,0,1-.43.26m0,2.39a1.25,1.25,0,0,1-.22-2.47h0l.11,0a.58.58,0,0,0,.46-.22,1,1,0,0,0,.1-.7v-.15h0a.13.13,0,0,1,0-.06,1.94,1.94,0,1,1,1.94,1.94h-.2a1,1,0,0,0-.7.1.58.58,0,0,0-.22.46l0,.12h0a1.24,1.24,0,0,1-1.22,1"/><path class="cls-7" d="M174.67,248.07a1.14,1.14,0,0,0,.23.73.78.78,0,0,0,1.21,0,1.18,1.18,0,0,0,.23-.75V248a1.27,1.27,0,0,0-.11-.52.91.91,0,0,0-.29-.37.84.84,0,0,0-.44-.13.76.76,0,0,0-.6.29,1.18,1.18,0,0,0-.23.75Zm-.27-.07a1.34,1.34,0,0,1,.14-.64,1.07,1.07,0,0,1,.39-.45,1.09,1.09,0,0,1,1.37.19,1.31,1.31,0,0,1,.31.92v0a1.51,1.51,0,0,1-.14.65,1.07,1.07,0,0,1-.39.45,1.1,1.1,0,0,1-.57.15,1,1,0,0,1-.81-.35,1.34,1.34,0,0,1-.3-.92Z"/><path class="cls-7" d="M178.89,248a1.3,1.3,0,0,0-.19-.75.63.63,0,0,0-.54-.27.78.78,0,0,0-.44.12.74.74,0,0,0-.27.35v1.19a.75.75,0,0,0,.28.33.83.83,0,0,0,.43.11.61.61,0,0,0,.54-.28,1.37,1.37,0,0,0,.19-.8m.28.05a1.5,1.5,0,0,1-.26.92.8.8,0,0,1-.68.34.92.92,0,0,1-.78-.36v1.27h-.28V246.8h.26v.35a.88.88,0,0,1,.78-.4.83.83,0,0,1,.7.34,1.56,1.56,0,0,1,.25.93Z"/><path class="cls-7" d="M180.69,247a.71.71,0,0,0-.53.22,1.06,1.06,0,0,0-.25.61h1.48v0a.85.85,0,0,0-.2-.58.63.63,0,0,0-.5-.22m.05,2.33a1.11,1.11,0,0,1-.58-.15,1,1,0,0,1-.39-.44,1.26,1.26,0,0,1-.15-.62V248a1.47,1.47,0,0,1,.14-.64,1.11,1.11,0,0,1,.39-.46,1,1,0,0,1,.54-.16.86.86,0,0,1,.71.31,1.23,1.23,0,0,1,.27.84v.15H179.9v.06a1,1,0,0,0,.24.7.75.75,0,0,0,.61.28,1,1,0,0,0,.39-.08.81.81,0,0,0,.3-.26l.17.13a1,1,0,0,1-.87.44"/><path class="cls-7" d="M182.46,246.8v.42a1,1,0,0,1,.35-.35.9.9,0,0,1,.46-.12.75.75,0,0,1,.59.23,1,1,0,0,1,.2.67v1.63h-.27v-1.63a.83.83,0,0,0-.14-.5.58.58,0,0,0-.45-.16.67.67,0,0,0-.45.16.89.89,0,0,0-.29.43v1.7h-.27V246.8Z"/><path class="cls-7" d="M174.8,252.43v.4a.92.92,0,0,1,.34-.34,1,1,0,0,1,.46-.11.69.69,0,0,1,.74.48,1,1,0,0,1,.85-.48q.8,0,.81.87v1.66h-.27v-1.64a.7.7,0,0,0-.15-.49.55.55,0,0,0-.45-.16.72.72,0,0,0-.5.19.64.64,0,0,0-.23.46v1.64h-.28v-1.66a.65.65,0,0,0-.15-.47.56.56,0,0,0-.45-.16.72.72,0,0,0-.45.15.83.83,0,0,0-.27.44v1.7h-.28v-2.48Z"/><path class="cls-7" d="M178.83,253.7a1.14,1.14,0,0,0,.23.73.77.77,0,0,0,1.2,0,1.13,1.13,0,0,0,.24-.75v-.05a1.27,1.27,0,0,0-.11-.52.85.85,0,0,0-.3-.37.78.78,0,0,0-.43-.13.74.74,0,0,0-.6.29,1.18,1.18,0,0,0-.23.75Zm-.28-.07a1.55,1.55,0,0,1,.14-.65,1.14,1.14,0,0,1,.4-.44,1,1,0,0,1,.57-.16,1,1,0,0,1,.8.35,1.31,1.31,0,0,1,.31.92v0a1.51,1.51,0,0,1-.14.65,1.07,1.07,0,0,1-.39.45,1.11,1.11,0,0,1-.58.15,1,1,0,0,1-.8-.35,1.35,1.35,0,0,1-.31-.92Z"/><path class="cls-7" d="M183.05,253.64a1.24,1.24,0,0,0-.19-.75.6.6,0,0,0-.53-.27.73.73,0,0,0-.45.13.81.81,0,0,0-.28.38v1.12a.73.73,0,0,0,.73.46.61.61,0,0,0,.53-.27,1.33,1.33,0,0,0,.19-.8m.28.05a1.5,1.5,0,0,1-.26.92.81.81,0,0,1-.69.34.91.91,0,0,1-.78-.38v.34h-.26v-3.52h.27v1.4a.88.88,0,0,1,.78-.41.81.81,0,0,1,.69.34,1.49,1.49,0,0,1,.26.93Z"/><path class="cls-7" d="M184.24,254.9H184v-2.47h.27Zm-.32-3.19a.17.17,0,0,1,.05-.13.16.16,0,0,1,.14-.05.15.15,0,0,1,.13.05.18.18,0,0,1,.06.13.16.16,0,0,1-.06.13.15.15,0,0,1-.13,0,.16.16,0,0,1-.14,0,.15.15,0,0,1-.05-.13"/></g><rect class="cls-7" x="185.02" y="251.39" width="0.27" height="3.52"/><g class="cls-4"><path class="cls-7" d="M186.34,254.9h-.27v-2.47h.27Zm-.32-3.19a.21.21,0,0,1,0-.13.16.16,0,0,1,.14-.05.17.17,0,0,1,.14.05.21.21,0,0,1,.05.13.19.19,0,0,1-.05.13.17.17,0,0,1-.14,0,.16.16,0,0,1-.14,0,.19.19,0,0,1,0-.13"/><path class="cls-7" d="M187.51,251.79v.64H188v.22h-.52v1.65a.52.52,0,0,0,.08.31.28.28,0,0,0,.25.1l.22,0v.22a.78.78,0,0,1-.29,0,.48.48,0,0,1-.41-.16.75.75,0,0,1-.13-.49v-1.65h-.46v-.22h.46v-.64Z"/><path class="cls-7" d="M189.38,254.51l.72-2.08h.3l-1.06,2.9-.05.13a.67.67,0,0,1-.63.45.52.52,0,0,1-.21,0v-.22h.15a.47.47,0,0,0,.32-.1.62.62,0,0,0,.21-.34l.13-.34-.94-2.45h.3Z"/><path class="cls-7" d="M174.75,260.53v-2.25h-.41v-.22h.41v-.3a.82.82,0,0,1,.19-.59.73.73,0,0,1,.54-.2.92.92,0,0,1,.29,0l0,.22-.25,0a.42.42,0,0,0-.35.14.55.55,0,0,0-.13.4v.31h.59v.22H175v2.25Z"/><path class="cls-7" d="M176.22,259.33a1.14,1.14,0,0,0,.23.73.76.76,0,0,0,.61.29.73.73,0,0,0,.6-.29,1.18,1.18,0,0,0,.23-.75v-.05a1.27,1.27,0,0,0-.11-.52.83.83,0,0,0-.29-.37.81.81,0,0,0-.44-.13.72.72,0,0,0-.59.29,1.13,1.13,0,0,0-.24.75Zm-.27-.07a1.55,1.55,0,0,1,.14-.65,1,1,0,0,1,.39-.44,1,1,0,0,1,.57-.16,1.05,1.05,0,0,1,.81.35,1.36,1.36,0,0,1,.3.92v.05a1.38,1.38,0,0,1-.14.65,1,1,0,0,1-.39.44,1,1,0,0,1-.57.16,1,1,0,0,1-.8-.35,1.3,1.3,0,0,1-.31-.92Z"/><path class="cls-7" d="M179.87,258.29l-.18,0a.67.67,0,0,0-.44.15.8.8,0,0,0-.25.41v1.7h-.27v-2.47H179v.39a.74.74,0,0,1,.7-.44.42.42,0,0,1,.18,0Z"/><path class="cls-7" d="M181.9,260.22a.89.89,0,0,1-.79.36.78.78,0,0,1-.6-.23,1,1,0,0,1-.21-.68v-1.61h.27v1.57c0,.48.19.71.57.71a.71.71,0,0,0,.76-.49v-1.79h.27v2.47h-.26Z"/><path class="cls-7" d="M183.13,258.06v.4a1,1,0,0,1,.35-.34,1,1,0,0,1,.45-.11.7.7,0,0,1,.75.48,1,1,0,0,1,.35-.35,1,1,0,0,1,.5-.13q.79,0,.81.87v1.66h-.28V258.9a.75.75,0,0,0-.14-.49.57.57,0,0,0-.46-.16.74.74,0,0,0-.5.19.73.73,0,0,0-.23.45v1.65h-.27v-1.66a.65.65,0,0,0-.15-.47.58.58,0,0,0-.45-.16.68.68,0,0,0-.45.15.84.84,0,0,0-.27.43v1.71h-.28v-2.48Z"/><path class="cls-5" d="M158.12,250.87l0,.15a.13.13,0,0,1,0,.06s0,.09,0,.14a1.83,1.83,0,1,0,1.83-1.83h-.2l-.15,0v0c-.53,0-.8-.15-.87-.57h0v-.11a1.14,1.14,0,0,0-2.28.11,1.13,1.13,0,0,0,1,1.13l.1,0c.42.07.6.34.57.87Zm1.79,2.28a1.93,1.93,0,0,1-1.94-1.93s0,0,0-.06h0V251c.08-.71-.17-.88-.56-.92l-.11,0a1.25,1.25,0,1,1,1.46-1.45h0l0,.11c0,.39.21.63.92.56h.2a1.94,1.94,0,0,1,0,3.87"/><path class="cls-5" d="M156.24,249.74c.84.13,1.15.67,1,1.8,0,.11,0,.23,0,.34a3.32,3.32,0,1,0,3-3.3c-1.13.12-1.68-.19-1.8-1l0,0v-.12a2.07,2.07,0,0,0-2.06-1.88,2.1,2.1,0,0,0-2.09,2.09,2.07,2.07,0,0,0,1.88,2.06l.12,0Zm4.33,5.56a3.42,3.42,0,0,1-3.42-3.42c0-.12,0-.23,0-.35.11-1.12-.19-1.61-1.06-1.7H156a2.19,2.19,0,1,1,2.5-2.5h0v.11c.09.87.58,1.17,1.7,1.06a3.42,3.42,0,1,1,.35,6.82"/><path class="cls-5" d="M155.13,243.41a3,3,0,0,0-.3,6.05c1.31.14,1.8.91,1.63,2.59a4,4,0,0,0,0,.49,4.81,4.81,0,1,0,4.31-4.77c-1.68.17-2.45-.32-2.59-1.63a3,3,0,0,0-3-2.73m6.1,14a4.91,4.91,0,0,1-4.9-4.91,4.26,4.26,0,0,1,0-.5c.17-1.63-.28-2.34-1.54-2.48a3.13,3.13,0,1,1,3.44-3.44c.14,1.26.85,1.71,2.48,1.54l.5,0a4.91,4.91,0,0,1,0,9.82"/><path class="cls-5" d="M153.93,241.26a4,4,0,0,0-.41,7.93c1.71.18,2.35,1.19,2.12,3.36q0,.33,0,.66a6.29,6.29,0,1,0,6.29-6.29l-.66,0c-2.17.23-3.18-.41-3.36-2.12a4,4,0,0,0-3.95-3.57m8,18.34a6.4,6.4,0,0,1-6.4-6.39c0-.22,0-.44,0-.67.23-2.13-.36-3.07-2-3.24a4.08,4.08,0,1,1,4.48-4.48c.17,1.66,1.11,2.25,3.24,2,.22,0,.45,0,.67,0a6.4,6.4,0,0,1,0,12.79"/><path class="cls-5" d="M159.9,249.45a1.76,1.76,0,1,0,1.76,1.76,1.76,1.76,0,0,0-1.76-1.76m0,3.79a2,2,0,1,1,2-2,2,2,0,0,1-2,2"/></g><g class="cls-4"><path class="cls-8" d="M172.26,164.43l-3.56-.25-5.57-.39.1-2.06.1-2.07.57.12a4.61,4.61,0,0,1,.53.15,31.16,31.16,0,0,1,4.75,2c1.45.75,2.69,1.5,3.48,2l-.21.25-.19.22M153.81,161c0-.14,0-.34.08-.58s.07-.48.1-.71c1.2-.14,2.51-.27,3.81-.33a30.08,30.08,0,0,1,3.81,0l-.1,2.12-.09,2.12-4.74-.33-2-.14a.9.9,0,0,1-.72-.43,3.22,3.22,0,0,1-.12-1.75m21.46,12.42a1.89,1.89,0,1,1,1.35-.55,1.92,1.92,0,0,1-1.35.55m4.55-7.65h0a8.65,8.65,0,0,0-2.18-1.68,12,12,0,0,0-3.38-1.17c-.55-.36-1.86-1.2-3.54-2.11a35.15,35.15,0,0,0-5.75-2.54,9,9,0,0,0-1.11-.28c-.39-.08-.8-.14-1.21-.2h-.14a36,36,0,0,0-7.35.09c-2.26.22-4,.54-4.45.61a1.27,1.27,0,0,0-.32.13,1.09,1.09,0,0,0-.26.21,13.64,13.64,0,0,0-1.05,1.25,7.46,7.46,0,0,0-.73,1.35.86.86,0,0,0,.45,1.13.82.82,0,0,0,.65,0,.9.9,0,0,0,.48-.46,5.8,5.8,0,0,1,.53-1,9.32,9.32,0,0,1,.81-1l.46-.08.5-.08c0,.17-.05.33-.07.48s0,.27-.05.37a5.53,5.53,0,0,0,.11,2.2,2.57,2.57,0,0,0,2.23,1.88l4.23.29,3.52.24h0l9,.62,1.32.09a1.47,1.47,0,0,0,.87-.49,7.32,7.32,0,0,0,.82-1,12.05,12.05,0,0,1,1.27.37,8.36,8.36,0,0,1,1.08.45h-.06a.84.84,0,0,0-.61.26.86.86,0,0,0,0,1.21.84.84,0,0,0,.61.26h2.23a5.75,5.75,0,0,1,1.16,2.51,5.63,5.63,0,0,1,.1,1.33.31.31,0,0,1-.3.3h-.85a3.63,3.63,0,0,0-6.15-2.47,3.59,3.59,0,0,0-1.1,2.47h-5.49a.85.85,0,0,0-.61.25.86.86,0,0,0,0,1.21.85.85,0,0,0,.61.26H172a3.74,3.74,0,0,0,1.32,1.47,3.62,3.62,0,0,0,3.9,0,3.67,3.67,0,0,0,1.32-1.47h1.21a2.08,2.08,0,0,0,1.43-.58,1.88,1.88,0,0,0,.58-1.36,6.54,6.54,0,0,0-.15-1.87,7.55,7.55,0,0,0-1.79-3.52"/><path class="cls-8" d="M170.57,169.15a.86.86,0,1,0,0-1.72h-7.46a.89.89,0,0,0-.61.25.87.87,0,0,0,0,1.22.89.89,0,0,0,.61.25h7.46Z"/><path class="cls-8" d="M164.08,175.89a.27.27,0,0,1-.09.21.31.31,0,0,1-.21.09h-.85a3.64,3.64,0,0,0-3.63-3.49,3.64,3.64,0,0,0-3.62,3.49H138.92a3.63,3.63,0,0,0-7.26,0,.34.34,0,0,1-.16-.1.31.31,0,0,1-.06-.19v-3.17a.28.28,0,0,1,.08-.2.29.29,0,0,1,.2-.09.91.91,0,0,0,.55-.23.89.89,0,0,0,.26-.54c0-.11,0-.23.05-.37s0-.29.07-.45h2a.85.85,0,0,0,.86-.86v-4.91a.28.28,0,0,0,0-.09.28.28,0,0,0,0-.09l.33,0,.4-.06c0,.16-.05.32-.07.47s0,.27-.05.37a5.53,5.53,0,0,0,.11,2.2,2.58,2.58,0,0,0,2.24,1.88l4.23.29,3.51.24h0l9,.62,1.32.09a1.5,1.5,0,0,0,.87-.49,7.32,7.32,0,0,0,.82-1,12.79,12.79,0,0,1,1.27.37,9,9,0,0,1,1.08.46h-.07a.85.85,0,0,0-.61.25.86.86,0,0,0,0,1.21.85.85,0,0,0,.61.26h2.24a5.61,5.61,0,0,1,1.15,2.51,5.07,5.07,0,0,1,.1,1.33m-4.78,2.35a1.91,1.91,0,1,1,1.35-3.26,1.91,1.91,0,0,1,0,2.7,1.93,1.93,0,0,1-1.35.56m-24,0a1.91,1.91,0,0,1-1.35-.56,1.91,1.91,0,0,1,0-2.7,1.91,1.91,0,0,1,1.35-.56,1.91,1.91,0,0,1,0,3.82m-1.47-12v2.9h-1.07c.1-.31.28-.87.48-1.43a13.43,13.43,0,0,1,.59-1.47m11.83-2-.1,2.12-.1,2.13-4.74-.33-2-.14a.87.87,0,0,1-.71-.43,3.19,3.19,0,0,1-.13-1.75c0-.13,0-.34.08-.57s.07-.49.11-.71c1.07-.14,2.35-.27,3.66-.34a30.73,30.73,0,0,1,4,0m11,4.53-.21.25-.18.22-3.57-.25-5.56-.38.09-2.07.1-2.07.57.12a4.61,4.61,0,0,1,.53.15,31.38,31.38,0,0,1,4.8,2.06c1.45.76,2.68,1.5,3.43,2m1.6-1c-.47-.31-1.75-1.14-3.44-2.05a35.47,35.47,0,0,0-5.86-2.6,11.63,11.63,0,0,0-1.13-.29c-.39-.08-.81-.14-1.23-.19h-.07a35,35,0,0,0-7.09,0c-2.21.22-4,.52-4.67.64a1.12,1.12,0,0,0-.35.12,1.33,1.33,0,0,0-.3.23,12.69,12.69,0,0,0-2.38,3.94,15.54,15.54,0,0,0-.87,3.33,1.89,1.89,0,0,0-.85.73,2,2,0,0,0-.33,1.1v3.17a2,2,0,0,0,2,2H132a3.63,3.63,0,0,0,5.22,1.48,3.7,3.7,0,0,0,1.32-1.48H156a3.67,3.67,0,0,0,1.31,1.48,3.62,3.62,0,0,0,3.9,0,3.7,3.7,0,0,0,1.32-1.48h1.21a2.08,2.08,0,0,0,1.43-.58,1.93,1.93,0,0,0,.59-1.36,7.51,7.51,0,0,0-.74-3.63c-.88-1.82-2.76-3.82-6.77-4.62"/><path class="cls-8" d="M154.6,172.21H140.37a.89.89,0,0,0-.61.25.87.87,0,0,0,0,1.22.89.89,0,0,0,.61.25H154.6a.87.87,0,0,0,.61-.25.87.87,0,0,0,0-1.22.87.87,0,0,0-.61-.25"/><path class="cls-8" d="M131.06,138.27a.71.71,0,0,1,.19-.47.62.62,0,0,1,.45-.21.84.84,0,0,0,.59-.23.88.88,0,0,0,.27-.57c0-.13,0-.31.06-.53s.07-.51.13-.84h3a.89.89,0,0,0,.61-.25.86.86,0,0,0,.25-.61v-7.17l.68-.12,1-.15c0,.28-.09.58-.13.85s-.08.51-.09.68a5.89,5.89,0,0,0,.52,3.72,3.19,3.19,0,0,0,1.88,1.46l.4,1.47.41,1.48a.85.85,0,0,0,.29.43,1,1,0,0,0,.49.2,2.62,2.62,0,0,1,1.58.84c.77.78,1.57,2.25,1.74,5.05h-4.14v-.12a4.6,4.6,0,0,0-1.36-3.26,4.66,4.66,0,0,0-3.28-1.35,4.61,4.61,0,0,0-4.61,4.61v.12h-.19a.73.73,0,0,1-.51-.22.69.69,0,0,1-.21-.5v-4.31Zm20-11.84.07,8.43.08,8.44h-4.1a9.89,9.89,0,0,0-1.79-5.76,4.82,4.82,0,0,0-2.51-1.74l-.41-1.46-.4-1.45a.83.83,0,0,0-.25-.41.87.87,0,0,0-.43-.21,1.65,1.65,0,0,1-1.11-.59,3.84,3.84,0,0,1-.42-2.84c0-.2.07-.54.12-.9s.12-.76.18-1.07c1.51-.2,3.34-.39,5.25-.49a38.89,38.89,0,0,1,5.72.05m15.75,6.79.06,0,.06,0h0l.13.06.14,0h0a15.83,15.83,0,0,1,2.86.8,11.87,11.87,0,0,1,2.17,1.11H171a.86.86,0,0,0-.6.25.85.85,0,0,0,0,1.22.82.82,0,0,0,.6.25h3.21a8,8,0,0,1,1.69,3.47,7.49,7.49,0,0,1,.17,2.06.69.69,0,0,1-.21.5.73.73,0,0,1-.51.22h-1.46v-.12a4.6,4.6,0,0,0-1.36-3.26,4.68,4.68,0,0,0-3.29-1.35,4.61,4.61,0,0,0-4.61,4.61v.12h-4.47a10.7,10.7,0,0,1,1.79-5.81,6.31,6.31,0,0,1,2.47-2.11.86.86,0,0,0-.71-1.57,8,8,0,0,0-3.09,2.57,12.43,12.43,0,0,0-2.18,6.92h-5.5l-.07-8.32-.08-8.32.95.19c.3.07.6.15.88.24a42,42,0,0,1,5.82,2.44,64.86,64.86,0,0,1,6.38,3.69m-35,11.8H133a.91.91,0,0,0,.4-.1.89.89,0,0,0,.31-.27.8.8,0,0,0,.14-.39.84.84,0,0,0-.05-.41,1.77,1.77,0,0,1-.07-.29c0-.11,0-.24,0-.38a2.87,2.87,0,0,1,.84-2,2.92,2.92,0,0,1,2.05-.85,3,3,0,0,1,2.07.85,2.84,2.84,0,0,1,.85,2,2.24,2.24,0,0,1,0,.38,1.77,1.77,0,0,1-.07.29.84.84,0,0,0,0,.41.93.93,0,0,0,.15.39.86.86,0,0,0,.3.27,1,1,0,0,0,.4.1H165.6a.91.91,0,0,0,.4-.1.89.89,0,0,0,.31-.27.93.93,0,0,0,.15-.39.92.92,0,0,0-.05-.4,1.32,1.32,0,0,1-.07-.3,2.17,2.17,0,0,1,0-.38,2.9,2.9,0,0,1,2.89-2.89,3,3,0,0,1,2.07.85,2.85,2.85,0,0,1,.86,2c0,.14,0,.27,0,.38a1.32,1.32,0,0,1-.08.3.92.92,0,0,0-.05.4.93.93,0,0,0,.15.39.89.89,0,0,0,.31.27.91.91,0,0,0,.4.1h2.47a2.49,2.49,0,0,0,1.73-.71,2.34,2.34,0,0,0,.71-1.67,8.94,8.94,0,0,0-.22-2.42,10,10,0,0,0-2.31-4.57l0-.05-.05,0a10.57,10.57,0,0,0-2.55-2,15.06,15.06,0,0,0-3.82-1.52,12.32,12.32,0,0,1,3.29-3.37,8.21,8.21,0,0,1,3.87-1.37.85.85,0,0,0,.59-.3.85.85,0,0,0-.73-1.41,9.81,9.81,0,0,0-4.15,1.33,13.72,13.72,0,0,0-4.53,4.5c-1.35-.87-3.2-2-5.28-3.06a44.24,44.24,0,0,0-6.72-2.87,26.22,26.22,0,0,0-8.09-.86,69.3,69.3,0,0,0-7.85.66h-.06l-2.07.32-1.05.18a1,1,0,0,0-.43.15,1.21,1.21,0,0,0-.22.17l-.17.18a1.07,1.07,0,0,0-.16.25.64.64,0,0,0-.08.19.76.76,0,0,0,0,.21h0v6.79H132a.78.78,0,0,0-.31.06.76.76,0,0,0-.26.16h0l-.07.07-.06.08h0a.83.83,0,0,0-.09.16.84.84,0,0,0-.05.17c-.06.3-.11.58-.16.85s-.09.53-.12.76a2.47,2.47,0,0,0-1.13.86,2.5,2.5,0,0,0-.44,1.4v4.31a2.46,2.46,0,0,0,2.44,2.44"/><path class="cls-8" d="M179.78,150.5a.85.85,0,0,0-.86-.86H128.16a.89.89,0,0,0-.61.25.91.91,0,0,0-.25.61.87.87,0,0,0,.25.61.85.85,0,0,0,.61.25h50.76a.85.85,0,0,0,.86-.86"/><path class="cls-8" d="M153.54,110.35a42.58,42.58,0,1,0,30.05,12.47,42.39,42.39,0,0,0-30.05-12.47m0,87A44.57,44.57,0,1,1,185,184.33a44.34,44.34,0,0,1-31.47,13.06"/></g><path class="cls-7" d="M104.09,246.19H106a1.26,1.26,0,0,1,.91.3,1,1,0,0,1,.31.81,1.91,1.91,0,0,1-.06.48,1.33,1.33,0,0,1-.19.42,1.12,1.12,0,0,1-.32.33,1.48,1.48,0,0,1-.48.2v0a1,1,0,0,1,.58.34,1.07,1.07,0,0,1,.2.67,1.88,1.88,0,0,1-.13.72,1.67,1.67,0,0,1-.88.95,1.73,1.73,0,0,1-.69.13H103Zm1.11,5a1.16,1.16,0,0,0,.78-.25,1.13,1.13,0,0,0,.39-.69c0-.14,0-.25,0-.32a1.37,1.37,0,0,0,0-.16.75.75,0,0,0-.22-.56.93.93,0,0,0-.66-.21H104l-.44,2.19Zm.3-2.59a1.35,1.35,0,0,0,.78-.21.9.9,0,0,0,.38-.61c0-.13,0-.23,0-.3a1,1,0,0,0,0-.16.66.66,0,0,0-.2-.52.89.89,0,0,0-.61-.19h-1.46l-.39,2Z"/><path class="cls-7" d="M109.27,251.66a1.39,1.39,0,0,1-1.07-.4,1.77,1.77,0,0,1-.37-1.21,3,3,0,0,1,.15-1,2.24,2.24,0,0,1,.41-.8,1.85,1.85,0,0,1,.63-.55,1.61,1.61,0,0,1,.82-.21,1.87,1.87,0,0,1,.49.07,1.24,1.24,0,0,1,.4.19,1,1,0,0,1,.27.32.92.92,0,0,1,.1.44,1,1,0,0,1-.14.5,1.05,1.05,0,0,1-.47.4,2.64,2.64,0,0,1-.86.27,7.16,7.16,0,0,1-1.34.11.88.88,0,0,0,0,.17,1,1,0,0,0,0,.16,1.22,1.22,0,0,0,.26.84,1,1,0,0,0,.78.29,1.36,1.36,0,0,0,.74-.21,1.9,1.9,0,0,0,.57-.56l.29.24a2.25,2.25,0,0,1-.76.7A1.91,1.91,0,0,1,109.27,251.66Zm.53-3.75a1.23,1.23,0,0,0-.92.39,2,2,0,0,0-.5,1l0,.18a10.58,10.58,0,0,0,1.18-.09,2.8,2.8,0,0,0,.71-.2.72.72,0,0,0,.34-.29.74.74,0,0,0,.09-.36.52.52,0,0,0-.24-.48A1,1,0,0,0,109.8,247.91Z"/><path class="cls-7" d="M116.42,251.57a.4.4,0,0,1-.29-.09.37.37,0,0,1-.09-.25,1.37,1.37,0,0,1,0-.19l.06-.32h0a2.08,2.08,0,0,1-.56.71,1.38,1.38,0,0,1-1.28.13,1.13,1.13,0,0,1-.38-.3,1.41,1.41,0,0,1-.25-.47,2.31,2.31,0,0,1-.08-.61,3.81,3.81,0,0,1,.12-1,2.83,2.83,0,0,1,.36-.85,2,2,0,0,1,.61-.61,1.48,1.48,0,0,1,.84-.24,1.28,1.28,0,0,1,.71.2.91.91,0,0,1,.39.56h0l.13-.66h.42l-.71,3.56h.6l-.07.38Zm-1.55-.28a.93.93,0,0,0,.45-.1,1.53,1.53,0,0,0,.39-.27,1.62,1.62,0,0,0,.36-.45,1.64,1.64,0,0,0,.22-.61l.19-.92a1.15,1.15,0,0,0,0-.37.67.67,0,0,0-.15-.33A.8.8,0,0,0,116,248a1.24,1.24,0,0,0-.5-.09,1.2,1.2,0,0,0-.91.37,2,2,0,0,0-.49,1l-.09.46,0,.22a1.77,1.77,0,0,0,0,.24,1.7,1.7,0,0,0,0,.41.84.84,0,0,0,.44.57A1,1,0,0,0,114.87,251.29Z"/><path class="cls-7" d="M120.48,247.63h.42l-.18.85h0a2.19,2.19,0,0,1,.55-.71,1.22,1.22,0,0,1,.77-.24,1.19,1.19,0,0,1,.51.11,1,1,0,0,1,.39.3,1.39,1.39,0,0,1,.24.47,2,2,0,0,1,.09.61,3.81,3.81,0,0,1-.12.95,2.83,2.83,0,0,1-.36.85,2.21,2.21,0,0,1-.61.61,1.47,1.47,0,0,1-.84.23,1.26,1.26,0,0,1-.71-.19,1,1,0,0,1-.4-.56h0l-.44,2.2h-.43Zm.85,3.66a1.22,1.22,0,0,0,.91-.37,2,2,0,0,0,.49-1l.1-.46a1.5,1.5,0,0,0,0-.22,1.77,1.77,0,0,0,0-.24,1.87,1.87,0,0,0,0-.42.94.94,0,0,0-.17-.33.71.71,0,0,0-.28-.23,1,1,0,0,0-.4-.08,1.13,1.13,0,0,0-.45.09,1.61,1.61,0,0,0-.38.28,2,2,0,0,0-.37.44,1.89,1.89,0,0,0-.22.62l-.18.92a.92.92,0,0,0,0,.37,1,1,0,0,0,.15.33.87.87,0,0,0,.32.24A1.28,1.28,0,0,0,121.33,251.29Z"/><path class="cls-7" d="M127,251.57a.4.4,0,0,1-.29-.09.37.37,0,0,1-.09-.25,1.37,1.37,0,0,1,0-.19l.06-.32h0a2.08,2.08,0,0,1-.56.71,1.38,1.38,0,0,1-1.28.13,1.13,1.13,0,0,1-.38-.3,1.41,1.41,0,0,1-.25-.47,2.31,2.31,0,0,1-.08-.61,3.81,3.81,0,0,1,.12-1,2.83,2.83,0,0,1,.36-.85,2,2,0,0,1,.61-.61,1.48,1.48,0,0,1,.84-.24,1.28,1.28,0,0,1,.71.2.91.91,0,0,1,.39.56h0l.13-.66h.42l-.71,3.56h.6l-.07.38Zm-1.55-.28a.93.93,0,0,0,.45-.1,1.53,1.53,0,0,0,.39-.27,1.62,1.62,0,0,0,.36-.45,1.64,1.64,0,0,0,.22-.61l.19-.92a1.15,1.15,0,0,0,0-.37.67.67,0,0,0-.15-.33.8.8,0,0,0-.32-.24,1.24,1.24,0,0,0-.5-.09,1.2,1.2,0,0,0-.91.37,2,2,0,0,0-.49,1l-.09.46,0,.22a1.77,1.77,0,0,0,0,.24,1.7,1.7,0,0,0,0,.41.84.84,0,0,0,.44.57A1,1,0,0,0,125.45,251.29Z"/><path class="cls-7" d="M128.47,251.57l.78-3.94h.43l-.17.82h0a3.28,3.28,0,0,1,.2-.31,1.66,1.66,0,0,1,.26-.27,1.56,1.56,0,0,1,.34-.18,1.53,1.53,0,0,1,.45-.06H131l-.08.42h-.26a1.18,1.18,0,0,0-.5.1,1.31,1.31,0,0,0-.4.26,1.39,1.39,0,0,0-.28.38,1.79,1.79,0,0,0-.16.46l-.46,2.32Z"/><path class="cls-7" d="M131.8,251.57a.41.41,0,0,1-.3-.09.34.34,0,0,1-.1-.26.66.66,0,0,1,0-.21l.6-3h-.65l.08-.37h.39a.34.34,0,0,0,.24-.07.55.55,0,0,0,.09-.24l.16-.79h.4l-.22,1.1h.88l-.08.37h-.87l-.64,3.19h.82l-.08.38Z"/><path class="cls-7" d="M136.83,251.66a1.29,1.29,0,0,1-1-.4,1.63,1.63,0,0,1-.38-1.14,3.52,3.52,0,0,1,.14-1,3,3,0,0,1,.4-.82,1.91,1.91,0,0,1,.63-.57,1.7,1.7,0,0,1,.84-.22,1.31,1.31,0,0,1,1,.41,1.61,1.61,0,0,1,.37,1.14,3.52,3.52,0,0,1-.14,1,2.51,2.51,0,0,1-.4.82,1.91,1.91,0,0,1-.63.57A1.65,1.65,0,0,1,136.83,251.66Zm0-.37a1.24,1.24,0,0,0,.89-.37,2.07,2.07,0,0,0,.5-1l.09-.47a.76.76,0,0,0,0-.21,1.62,1.62,0,0,0,0-.22,1.42,1.42,0,0,0-.06-.42.89.89,0,0,0-.19-.33.81.81,0,0,0-.31-.23,1.14,1.14,0,0,0-.43-.08,1.24,1.24,0,0,0-.89.37,2,2,0,0,0-.5,1.05l-.09.47a1.55,1.55,0,0,0,0,.21v.22a1.19,1.19,0,0,0,.24.76A.93.93,0,0,0,136.88,251.29Z"/><path class="cls-7" d="M140,252.48a1,1,0,0,1-.21.47.65.65,0,0,1-.5.16h-.57l.08-.37h.72l1-4.74h-.7l.07-.37h.7l.23-1.13a.94.94,0,0,1,.21-.46.64.64,0,0,1,.5-.17h.65l-.08.38h-.81l-.27,1.38h.79l-.08.37h-.78Z"/><path class="cls-7" d="M98.94,260.82a.4.4,0,0,1-.31-.1.33.33,0,0,1-.09-.25,1.25,1.25,0,0,1,0-.21l.6-3h-.64l.07-.38H99a.29.29,0,0,0,.23-.07.38.38,0,0,0,.1-.23l.16-.8h.4l-.22,1.1h.87l-.07.38h-.87L99,260.44h.81l-.07.38Z"/><path class="cls-7" d="M101.85,255.12h.43l-.51,2.54h0a1.61,1.61,0,0,1,.52-.66,1.22,1.22,0,0,1,.76-.22,1,1,0,0,1,.76.28,1.14,1.14,0,0,1,.25.79,2.26,2.26,0,0,1,0,.25,2.34,2.34,0,0,1,0,.26l-.42,2.08h.61l-.07.38h-.58a.41.41,0,0,1-.27-.08.28.28,0,0,1-.1-.25v-.07a.28.28,0,0,1,0-.08l.4-2,0-.25a1.42,1.42,0,0,0,0-.19c0-.51-.24-.76-.71-.76a1.13,1.13,0,0,0-.45.09,1.16,1.16,0,0,0-.4.29,1.9,1.9,0,0,0-.31.44,2.13,2.13,0,0,0-.2.55l-.45,2.29h-.43Z"/><path class="cls-7" d="M106.51,260.91a1.37,1.37,0,0,1-1.06-.4,1.72,1.72,0,0,1-.38-1.21,3.12,3.12,0,0,1,.15-1,2.63,2.63,0,0,1,.41-.8,1.82,1.82,0,0,1,.63-.54,1.64,1.64,0,0,1,.82-.21,1.53,1.53,0,0,1,.49.07,1.14,1.14,0,0,1,.4.19.94.94,0,0,1,.27.32.89.89,0,0,1,.1.44,1,1,0,0,1-.14.5,1.15,1.15,0,0,1-.46.4,3.45,3.45,0,0,1-.87.27,8.12,8.12,0,0,1-1.34.11.88.88,0,0,0,0,.17c0,.07,0,.12,0,.16a1.22,1.22,0,0,0,.26.84,1,1,0,0,0,.78.28,1.44,1.44,0,0,0,.74-.2,1.9,1.9,0,0,0,.57-.56l.29.23a2,2,0,0,1-.76.7A1.86,1.86,0,0,1,106.51,260.91Zm.53-3.75a1.23,1.23,0,0,0-.92.39,2.06,2.06,0,0,0-.5,1l0,.19a10.25,10.25,0,0,0,1.18-.1,2.85,2.85,0,0,0,.71-.19.72.72,0,0,0,.34-.29.74.74,0,0,0,.09-.36.56.56,0,0,0-.23-.49A1.18,1.18,0,0,0,107,257.16Z"/><path class="cls-7" d="M112.22,260.91a1.37,1.37,0,0,1-1.07-.4,1.72,1.72,0,0,1-.37-1.21,3.12,3.12,0,0,1,.14-1,2.87,2.87,0,0,1,.41-.8A1.91,1.91,0,0,1,112,257a1.65,1.65,0,0,1,.83-.21,1.61,1.61,0,0,1,.49.07,1.18,1.18,0,0,1,.39.19.84.84,0,0,1,.27.32.89.89,0,0,1,.1.44.88.88,0,0,1-.14.5,1.09,1.09,0,0,1-.46.4,3.45,3.45,0,0,1-.87.27,8.12,8.12,0,0,1-1.34.11.88.88,0,0,0,0,.17v.16a1.22,1.22,0,0,0,.25.84,1,1,0,0,0,.78.28,1.45,1.45,0,0,0,.75-.2,1.87,1.87,0,0,0,.56-.56l.29.23a2,2,0,0,1-.76.7A1.85,1.85,0,0,1,112.22,260.91Zm.52-3.75a1.21,1.21,0,0,0-.91.39,2,2,0,0,0-.51,1l0,.19a10,10,0,0,0,1.18-.1,2.73,2.73,0,0,0,.71-.19.67.67,0,0,0,.34-.29.74.74,0,0,0,.09-.36.53.53,0,0,0-.23-.49A1.18,1.18,0,0,0,112.74,257.16Z"/><path class="cls-7" d="M114.11,260.82l1.78-2-1-1.92h.45l.82,1.64h0l1.41-1.64h.5l-1.73,2,1,2H117l-.87-1.7h0l-1.46,1.7Z"/><path class="cls-7" d="M119.47,255.12h.42l-.51,2.54h0a1.8,1.8,0,0,1,.52-.66,1.26,1.26,0,0,1,.76-.22,1,1,0,0,1,.77.28,1.19,1.19,0,0,1,.25.79,2.26,2.26,0,0,1,0,.25,2.34,2.34,0,0,1,0,.26l-.42,2.08h.6l-.07.38h-.58a.46.46,0,0,1-.27-.08.31.31,0,0,1-.1-.25v-.07a.45.45,0,0,1,0-.08l.39-2c0-.09,0-.17,0-.25s0-.14,0-.19c0-.51-.24-.76-.72-.76a1.12,1.12,0,0,0-.44.09,1.19,1.19,0,0,0-.41.29,1.88,1.88,0,0,0-.3.44,1.82,1.82,0,0,0-.2.55l-.46,2.29h-.42Z"/><path class="cls-7" d="M123.09,260.82a.39.39,0,0,1-.3-.1.36.36,0,0,1-.09-.26v-.06a.31.31,0,0,1,0-.09l.7-3.44h.42l-.72,3.57h.6l-.07.38Zm.76-5a.27.27,0,0,1-.2-.06.24.24,0,0,1-.06-.15v-.06a.75.75,0,0,0,0-.11.29.29,0,0,1,.33-.25.25.25,0,0,1,.21.07.2.2,0,0,1,.06.15.43.43,0,0,0,0,.05s0,.06,0,.12A.29.29,0,0,1,123.85,255.8Z"/><path class="cls-7" d="M125.69,255.12h.43l-.53,2.61h0a2.08,2.08,0,0,1,.55-.71,1.22,1.22,0,0,1,.77-.24,1.19,1.19,0,0,1,.51.11,1,1,0,0,1,.39.3,1.16,1.16,0,0,1,.24.47,2,2,0,0,1,.09.61,3.87,3.87,0,0,1-.12,1,2.83,2.83,0,0,1-.36.85,2.21,2.21,0,0,1-.61.61,1.55,1.55,0,0,1-.84.23,1.26,1.26,0,0,1-.71-.19,1,1,0,0,1-.4-.56h0l-.13.66h-.43Zm.51,5.41a1.21,1.21,0,0,0,.91-.36,2,2,0,0,0,.49-1l.1-.46a1.8,1.8,0,0,0,0-.22,1.66,1.66,0,0,0,0-.24,1.86,1.86,0,0,0,0-.42,1,1,0,0,0-.17-.34.69.69,0,0,0-.28-.22,1,1,0,0,0-.4-.08,1.13,1.13,0,0,0-.45.09,1.33,1.33,0,0,0-.38.27,2.34,2.34,0,0,0-.37.45,1.92,1.92,0,0,0-.22.61l-.18.92a.81.81,0,0,0,0,.38.71.71,0,0,0,.15.33.76.76,0,0,0,.31.24A1.5,1.5,0,0,0,126.2,260.53Z"/><path class="cls-7" d="M129.37,260.82a.4.4,0,0,1-.3-.1.36.36,0,0,1-.09-.26v-.06a.31.31,0,0,1,0-.09l.69-3.44h.43l-.72,3.57h.6l-.07.38Zm.76-5a.27.27,0,0,1-.2-.06.24.24,0,0,1-.06-.15v-.06a.75.75,0,0,0,0-.11.29.29,0,0,1,.33-.25.25.25,0,0,1,.21.07.2.2,0,0,1,.06.15.11.11,0,0,1,0,.05s0,.06,0,.12A.29.29,0,0,1,130.13,255.8Z"/><path class="cls-7" d="M131.46,260.82a.39.39,0,0,1-.31-.1.33.33,0,0,1-.09-.25.68.68,0,0,1,0-.21l.6-3H131l.08-.38h.39a.3.3,0,0,0,.24-.07.46.46,0,0,0,.09-.23l.17-.8h.4l-.23,1.1h.88l-.08.38h-.87l-.64,3.19h.82l-.08.38Z"/><path class="cls-7" d="M133.71,260.82a.38.38,0,0,1-.3-.1.36.36,0,0,1-.1-.26v-.06a.37.37,0,0,1,0-.09l.69-3.44h.43l-.72,3.57h.6l-.08.38Zm.76-5a.25.25,0,0,1-.2-.06.24.24,0,0,1-.06-.15v-.06a.89.89,0,0,1,0-.11.29.29,0,0,1,.33-.25.25.25,0,0,1,.21.07.25.25,0,0,1,0,.15v.05s0,.06,0,.12A.29.29,0,0,1,134.47,255.8Z"/><path class="cls-7" d="M136.62,260.91a1.26,1.26,0,0,1-1-.41,1.6,1.6,0,0,1-.37-1.13,3.18,3.18,0,0,1,.14-1,2.76,2.76,0,0,1,.39-.83,2.14,2.14,0,0,1,.63-.57,1.69,1.69,0,0,1,.84-.21,1.3,1.3,0,0,1,1,.41,1.6,1.6,0,0,1,.37,1.13,3.14,3.14,0,0,1-.14,1,2.65,2.65,0,0,1-.39.83,2,2,0,0,1-.64.57A1.63,1.63,0,0,1,136.62,260.91Zm0-.38a1.2,1.2,0,0,0,.89-.37,1.92,1.92,0,0,0,.5-1l.09-.47a.89.89,0,0,0,0-.22,1.48,1.48,0,0,0,0-.22,1.4,1.4,0,0,0-.06-.41.88.88,0,0,0-.19-.34.84.84,0,0,0-.3-.22,1.25,1.25,0,0,0-1.33.29,2,2,0,0,0-.5,1.05l-.09.47a.76.76,0,0,0,0,.21,1.55,1.55,0,0,0,0,.22,1.11,1.11,0,0,0,.25.75A.89.89,0,0,0,136.67,260.53Z"/><path class="cls-7" d="M139.35,260.82l.78-3.95h.43l-.16.79h0A1.8,1.8,0,0,1,141,257a1.26,1.26,0,0,1,.76-.22,1,1,0,0,1,.77.28,1.14,1.14,0,0,1,.25.79,2.26,2.26,0,0,1,0,.25,2.34,2.34,0,0,1,0,.26l-.42,2.08h.6l-.08.38h-.57a.43.43,0,0,1-.27-.08.3.3,0,0,1-.1-.24v-.11l0-.11.38-1.92c0-.09,0-.17,0-.25s0-.14,0-.19c0-.51-.24-.76-.72-.76a1.12,1.12,0,0,0-.44.09,1.19,1.19,0,0,0-.41.29,1.88,1.88,0,0,0-.3.44,1.82,1.82,0,0,0-.2.55l-.46,2.29Z"/><path class="cls-8" d="M123.48,39.62l-4.8-14.9H122l2.22,7.15,1.18,4.67h.06l1.13-4.67,2.22-7.15H132l-4.84,14.9Z"/><path class="cls-8" d="M137.56,39.87a6.06,6.06,0,0,1-2.28-.41,4.77,4.77,0,0,1-1.7-1.18,4.88,4.88,0,0,1-1-1.84,7.78,7.78,0,0,1-.35-2.44,7.86,7.86,0,0,1,.34-2.4,4.91,4.91,0,0,1,1-1.84,4.44,4.44,0,0,1,1.66-1.19,6.36,6.36,0,0,1,4.62.05,4.65,4.65,0,0,1,1.62,1.26,5.07,5.07,0,0,1,.91,1.83,7.72,7.72,0,0,1,.29,2.16v.94h-7.19V35a2.18,2.18,0,0,0,2.48,2.39,3,3,0,0,0,1.6-.39,6.32,6.32,0,0,0,1.15-.94l1.58,2a5.09,5.09,0,0,1-1.95,1.37A7.21,7.21,0,0,1,137.56,39.87Zm-.06-9.39a1.87,1.87,0,0,0-1.5.63,2.45,2.45,0,0,0-.55,1.68V33h3.93v-.19a2.79,2.79,0,0,0-.46-1.66A1.65,1.65,0,0,0,137.5,30.48Z"/><path class="cls-8" d="M144.05,23.82h3.16v6.49h.13a3.38,3.38,0,0,1,1-1.51,3.6,3.6,0,0,1,4.69.51,5.29,5.29,0,0,1,.88,3.28v7h-3.16V32.85a3,3,0,0,0-.34-1.61,1.32,1.32,0,0,0-1.21-.52,3.08,3.08,0,0,0-.75.09,2.06,2.06,0,0,0-.65.31,1.63,1.63,0,0,0-.46.52,1.53,1.53,0,0,0-.17.72v7.26h-3.16Z"/><path class="cls-8" d="M157.52,27.22a1.93,1.93,0,0,1-1.4-.44,1.53,1.53,0,0,1-.44-1.12v-.47a1.51,1.51,0,0,1,.44-1.12,1.93,1.93,0,0,1,1.4-.44,1.9,1.9,0,0,1,1.39.44,1.48,1.48,0,0,1,.44,1.12v.47a1.49,1.49,0,0,1-.44,1.12A1.9,1.9,0,0,1,157.52,27.22Zm-1.58,1.19h3.16V39.62h-3.16Z"/><path class="cls-8" d="M165.73,39.87a5.85,5.85,0,0,1-2.24-.41,4.46,4.46,0,0,1-1.64-1.18,5,5,0,0,1-1-1.84A8.08,8.08,0,0,1,160.5,34a7.94,7.94,0,0,1,.35-2.42,5.16,5.16,0,0,1,1-1.85,4.32,4.32,0,0,1,1.64-1.17,5.85,5.85,0,0,1,2.24-.4,5,5,0,0,1,2.85.76,4.19,4.19,0,0,1,1.63,2.16l-2.56,1.11A2.1,2.1,0,0,0,167,31.1a1.79,1.79,0,0,0-1.3-.45,1.73,1.73,0,0,0-1.45.63,2.65,2.65,0,0,0-.49,1.69v2.09a2.65,2.65,0,0,0,.49,1.69,1.72,1.72,0,0,0,1.45.62,1.79,1.79,0,0,0,1.4-.5,3.17,3.17,0,0,0,.69-1.18l2.46,1.07a4.42,4.42,0,0,1-1.72,2.36A5.13,5.13,0,0,1,165.73,39.87Z"/><path class="cls-8" d="M174.55,39.62a2.74,2.74,0,0,1-3.14-3.08V23.82h3.16V37.16H176v2.46Z"/><path class="cls-8" d="M181.72,39.87a6.07,6.07,0,0,1-2.29-.41,4.64,4.64,0,0,1-1.69-1.18,4.77,4.77,0,0,1-1.05-1.84,7.78,7.78,0,0,1-.35-2.44,7.86,7.86,0,0,1,.34-2.4,5,5,0,0,1,1-1.84,4.44,4.44,0,0,1,1.66-1.19,6.36,6.36,0,0,1,4.62.05,4.65,4.65,0,0,1,1.62,1.26,5.26,5.26,0,0,1,.92,1.83,8.1,8.1,0,0,1,.28,2.16v.94H179.6V35a2.18,2.18,0,0,0,2.48,2.39,3,3,0,0,0,1.6-.39,6,6,0,0,0,1.15-.94l1.58,2a5.09,5.09,0,0,1-1.95,1.37A7.19,7.19,0,0,1,181.72,39.87Zm-.07-9.39a1.87,1.87,0,0,0-1.5.63,2.45,2.45,0,0,0-.55,1.68V33h3.93v-.19a2.72,2.72,0,0,0-.46-1.66A1.65,1.65,0,0,0,181.65,30.48Z"/><path class="cls-8" d="M75.85,61.22V50H79v1.9h.13a3.37,3.37,0,0,1,1-1.53,2.9,2.9,0,0,1,2-.63,3.35,3.35,0,0,1,2,.58A3.2,3.2,0,0,1,85.28,52h.07a3.11,3.11,0,0,1,.45-.89,2.86,2.86,0,0,1,.76-.71,4.43,4.43,0,0,1,1-.49,3.87,3.87,0,0,1,1.2-.18,2.93,2.93,0,0,1,2.49,1.16,5.41,5.41,0,0,1,.86,3.28v7H89V54.46c0-1.42-.51-2.14-1.54-2.14a2.21,2.21,0,0,0-1.28.41A1.41,1.41,0,0,0,85.56,54v7.25H82.4V54.46c0-1.42-.51-2.14-1.54-2.14a2.59,2.59,0,0,0-.67.1,1.72,1.72,0,0,0-.6.31,1.63,1.63,0,0,0-.42.52A1.53,1.53,0,0,0,79,54v7.25Z"/><path class="cls-8" d="M102.37,61.22a2,2,0,0,1-1.41-.53,2.45,2.45,0,0,1-.72-1.43h-.13A2.53,2.53,0,0,1,99,60.91a3.85,3.85,0,0,1-2.15.57,3.54,3.54,0,0,1-2.59-.89,3.24,3.24,0,0,1-.89-2.37,2.93,2.93,0,0,1,1.29-2.62,6.2,6.2,0,0,1,3.51-.86h1.77V54a1.85,1.85,0,0,0-.43-1.29,1.83,1.83,0,0,0-1.43-.48,2.48,2.48,0,0,0-1.49.41,4,4,0,0,0-.92.91l-1.87-1.67a4.88,4.88,0,0,1,1.71-1.58,5.86,5.86,0,0,1,2.81-.57,5.28,5.28,0,0,1,3.58,1.05,3.83,3.83,0,0,1,1.2,3v4.91h1v2.45ZM98,59.28a2.57,2.57,0,0,0,1.36-.34,1.18,1.18,0,0,0,.56-1.1V56.53H98.38c-1.23,0-1.85.41-1.85,1.25v.32a1.09,1.09,0,0,0,.38.9A1.81,1.81,0,0,0,98,59.28Z"/><path class="cls-8" d="M105.41,61.22V50h3.15v1.9h.13a3.49,3.49,0,0,1,1-1.52,3.58,3.58,0,0,1,4.68.52,5.27,5.27,0,0,1,.89,3.28v7h-3.16V54.46a3.06,3.06,0,0,0-.34-1.61,1.36,1.36,0,0,0-1.22-.53,3.08,3.08,0,0,0-.75.1,1.86,1.86,0,0,0-.65.31,1.76,1.76,0,0,0-.46.52,1.53,1.53,0,0,0-.17.72v7.25Z"/><path class="cls-8" d="M123.91,59.35h-.11a4.31,4.31,0,0,1-.39.81,2.83,2.83,0,0,1-1.54,1.15,4,4,0,0,1-1.21.17,3.1,3.1,0,0,1-2.61-1.14,5.27,5.27,0,0,1-.89-3.28V50h3.16v6.76a2.89,2.89,0,0,0,.36,1.58,1.39,1.39,0,0,0,1.24.56,2.64,2.64,0,0,0,.73-.11,2,2,0,0,0,.64-.31,1.67,1.67,0,0,0,.45-.5,1.42,1.42,0,0,0,.17-.7V50h3.15v11.2h-3.15Z"/><path class="cls-8" d="M129.73,52.47h-1.58V50h1.58V48.7a3.3,3.3,0,0,1,.85-2.45,3.52,3.52,0,0,1,2.5-.82h2v2.46h-2.24V50h2.24v2.45h-2.24v8.75h-3.16Z"/><path class="cls-8" d="M144.33,61.22a2,2,0,0,1-1.42-.53,2.45,2.45,0,0,1-.72-1.43h-.12a2.56,2.56,0,0,1-1.13,1.65,3.91,3.91,0,0,1-2.16.57,3.51,3.51,0,0,1-2.58-.89,3.2,3.2,0,0,1-.9-2.37,2.93,2.93,0,0,1,1.29-2.62,6.2,6.2,0,0,1,3.51-.86h1.77V54a1.89,1.89,0,0,0-.42-1.29,1.84,1.84,0,0,0-1.43-.48,2.49,2.49,0,0,0-1.5.41,3.93,3.93,0,0,0-.91.91l-1.88-1.67a4.91,4.91,0,0,1,1.72-1.58,5.81,5.81,0,0,1,2.8-.57,5.31,5.31,0,0,1,3.59,1.05,3.85,3.85,0,0,1,1.19,3v4.91h1.05v2.45ZM140,59.28a2.57,2.57,0,0,0,1.36-.34,1.17,1.17,0,0,0,.56-1.1V56.53h-1.53c-1.24,0-1.86.41-1.86,1.25v.32a1.09,1.09,0,0,0,.38.9A1.81,1.81,0,0,0,140,59.28Z"/><path class="cls-8" d="M151.88,61.48a5.66,5.66,0,0,1-2.24-.42A4.43,4.43,0,0,1,148,59.89,5.16,5.16,0,0,1,147,58a8.82,8.82,0,0,1,0-4.85,5.25,5.25,0,0,1,1-1.85,4.32,4.32,0,0,1,1.64-1.17,5.85,5.85,0,0,1,2.24-.41,5,5,0,0,1,2.85.77,4.15,4.15,0,0,1,1.63,2.16L153.8,53.8a2.1,2.1,0,0,0-.62-1.09,1.79,1.79,0,0,0-1.3-.45,1.73,1.73,0,0,0-1.45.63,2.65,2.65,0,0,0-.49,1.69v2.08a2.64,2.64,0,0,0,.49,1.69,1.73,1.73,0,0,0,1.45.63,1.79,1.79,0,0,0,1.4-.5A3.17,3.17,0,0,0,154,57.3l2.46,1.06a4.45,4.45,0,0,1-1.72,2.37A5.13,5.13,0,0,1,151.88,61.48Z"/><path class="cls-8" d="M161.49,61.22a3.37,3.37,0,0,1-2.49-.83,3.27,3.27,0,0,1-.84-2.43V52.47h-1.58V50h.79a1,1,0,0,0,.87-.31,1.43,1.43,0,0,0,.24-.89V47h2.83v3h2.22v2.45h-2.22v6.3h2.05v2.45Z"/><path class="cls-8" d="M171.51,59.35h-.1a3.81,3.81,0,0,1-.4.81,2.69,2.69,0,0,1-.63.68,3.07,3.07,0,0,1-.9.47,4,4,0,0,1-1.21.17,3.1,3.1,0,0,1-2.61-1.14,5.27,5.27,0,0,1-.89-3.28V50h3.16v6.76a2.89,2.89,0,0,0,.36,1.58,1.37,1.37,0,0,0,1.24.56,2.69,2.69,0,0,0,.73-.11,2,2,0,0,0,.64-.31,1.52,1.52,0,0,0,.44-.5,1.32,1.32,0,0,0,.17-.7V50h3.16v11.2h-3.16Z"/><path class="cls-8" d="M176.79,61.22V50h3.15v2.43h.11a3.66,3.66,0,0,1,.3-.9,2.59,2.59,0,0,1,.56-.78,2.77,2.77,0,0,1,.85-.55,3.07,3.07,0,0,1,1.15-.2h.55V53h-.78a4.47,4.47,0,0,0-2.06.37,1.39,1.39,0,0,0-.68,1.34v6.55Z"/><path class="cls-8" d="M189.25,61.48a5.88,5.88,0,0,1-2.29-.42,4.7,4.7,0,0,1-1.69-1.17A5.08,5.08,0,0,1,184.22,58a8,8,0,0,1-.35-2.43,7.86,7.86,0,0,1,.34-2.4,5.19,5.19,0,0,1,1-1.85,4.41,4.41,0,0,1,1.65-1.18,6.22,6.22,0,0,1,4.62,0,4.65,4.65,0,0,1,1.62,1.26,5.09,5.09,0,0,1,.92,1.83,8.1,8.1,0,0,1,.29,2.16v.94h-7.2v.17A2.18,2.18,0,0,0,189.61,59a3,3,0,0,0,1.6-.39,6,6,0,0,0,1.15-.94l1.58,2A5.09,5.09,0,0,1,192,61,7.35,7.35,0,0,1,189.25,61.48Zm-.07-9.39a1.87,1.87,0,0,0-1.5.63,2.49,2.49,0,0,0-.55,1.67v.17h3.93v-.19a2.71,2.71,0,0,0-.46-1.65A1.63,1.63,0,0,0,189.18,52.09Z"/><path class="cls-8" d="M195.74,61.22V50h3.15v2.43H199a3.66,3.66,0,0,1,.3-.9,2.59,2.59,0,0,1,.56-.78,2.77,2.77,0,0,1,.85-.55,3.07,3.07,0,0,1,1.15-.2h.55V53h-.79a4.46,4.46,0,0,0-2.05.37,1.39,1.39,0,0,0-.68,1.34v6.55Z"/><path class="cls-8" d="M207.32,61.48a6.52,6.52,0,0,1-2.73-.52,6.3,6.3,0,0,1-2-1.49l1.85-1.87a4.85,4.85,0,0,0,1.33,1,3.39,3.39,0,0,0,1.64.38,2.19,2.19,0,0,0,1.3-.28,1,1,0,0,0,.36-.78c0-.53-.37-.84-1.13-.94l-1.21-.15c-2.52-.31-3.78-1.47-3.78-3.46a3.44,3.44,0,0,1,.31-1.48,3.28,3.28,0,0,1,.87-1.15,4.21,4.21,0,0,1,1.37-.75,5.58,5.58,0,0,1,1.8-.27,8.88,8.88,0,0,1,1.55.12,5.24,5.24,0,0,1,1.19.34,4.9,4.9,0,0,1,1,.56,11.13,11.13,0,0,1,.86.73l-1.82,1.86a3.83,3.83,0,0,0-1.2-.84,3.22,3.22,0,0,0-1.38-.31,2,2,0,0,0-1.15.25.81.81,0,0,0-.34.69.93.93,0,0,0,.24.69,1.78,1.78,0,0,0,.93.35l1.26.17q3.69.5,3.69,3.37a3.27,3.27,0,0,1-.34,1.5,3.53,3.53,0,0,1-1,1.18,4.41,4.41,0,0,1-1.51.78A6.44,6.44,0,0,1,207.32,61.48Z"/><path class="cls-8" d="M226.57,60a7.73,7.73,0,0,1-1.71,1,6.25,6.25,0,0,1-2.56.45,6.8,6.8,0,0,1-2.17-.31,4.39,4.39,0,0,1-1.58-.88,3.59,3.59,0,0,1-1-1.32,4.05,4.05,0,0,1-.33-1.65,3.9,3.9,0,0,1,.22-1.37,3.8,3.8,0,0,1,.62-1.09A5.07,5.07,0,0,1,219,54c.37-.27.77-.54,1.19-.79a9.51,9.51,0,0,1-.62-.75,6.72,6.72,0,0,1-.53-.85,4.48,4.48,0,0,1-.37-.94,3.4,3.4,0,0,1-.14-1,3.1,3.1,0,0,1,.31-1.38,3.25,3.25,0,0,1,.89-1.14,4.26,4.26,0,0,1,1.41-.77,5.66,5.66,0,0,1,1.85-.28,6.13,6.13,0,0,1,1.7.23,4.15,4.15,0,0,1,1.35.66A3.17,3.17,0,0,1,227,48a3.1,3.1,0,0,1,.33,1.45,3.32,3.32,0,0,1-.24,1.28,3.79,3.79,0,0,1-.64,1,5.4,5.4,0,0,1-.95.89c-.36.27-.74.52-1.14.77L226.66,56a8.14,8.14,0,0,0,.42-1.45,11.37,11.37,0,0,0,.2-1.51h3.56v2.62h-1.35a9.17,9.17,0,0,1-1,2.37l3,3.22h-3.82Zm-3.8-1.16a3.8,3.8,0,0,0,2.16-.59l-3.14-3.4a3.17,3.17,0,0,0-1,.88,1.8,1.8,0,0,0-.3,1V57a1.75,1.75,0,0,0,.57,1.34A2.46,2.46,0,0,0,222.77,58.85Zm.17-10.37a1.53,1.53,0,0,0-1,.32,1.12,1.12,0,0,0-.39.9v.08a1.49,1.49,0,0,0,.28.85,11,11,0,0,0,.93,1.16,4.25,4.25,0,0,0,1.13-.91,1.63,1.63,0,0,0,.39-1.1V49.7a1.1,1.1,0,0,0-.4-.9A1.49,1.49,0,0,0,222.94,48.48Z"/><path class="cls-8" d="M86.47,74.08H84.89V71.63h1.58V70.3a3.23,3.23,0,0,1,.85-2.44,3.46,3.46,0,0,1,2.5-.82h2v2.45H89.62v2.14h2.24v2.45H89.62v8.75H86.47Z"/><path class="cls-8" d="M95.92,82.83a2.74,2.74,0,0,1-3.14-3.07V67h3.16V80.38h1.41v2.45Z"/><path class="cls-8" d="M103.09,83.09a5.83,5.83,0,0,1-2.28-.42,4.78,4.78,0,0,1-1.7-1.17,5.08,5.08,0,0,1-1-1.85,8,8,0,0,1-.35-2.43,7.86,7.86,0,0,1,.34-2.4,5.11,5.11,0,0,1,1-1.85,4.38,4.38,0,0,1,1.65-1.18,5.63,5.63,0,0,1,2.24-.42,5.55,5.55,0,0,1,2.38.47A4.43,4.43,0,0,1,107,73.1a5,5,0,0,1,.92,1.82,8.18,8.18,0,0,1,.29,2.17V78H101v.17a2.49,2.49,0,0,0,.59,1.74,2.42,2.42,0,0,0,1.88.65,2.94,2.94,0,0,0,1.6-.39,6.39,6.39,0,0,0,1.15-.94l1.58,2a5,5,0,0,1-2,1.37A7.35,7.35,0,0,1,103.09,83.09ZM103,73.7a1.88,1.88,0,0,0-1.51.63A2.48,2.48,0,0,0,101,76v.17h3.92V76a2.71,2.71,0,0,0-.46-1.65A1.63,1.63,0,0,0,103,73.7Z"/><path class="cls-8" d="M114.25,83.09a5.87,5.87,0,0,1-2.28-.42,4.78,4.78,0,0,1-1.7-1.17,5.08,5.08,0,0,1-1-1.85,8,8,0,0,1-.35-2.43,8.18,8.18,0,0,1,.34-2.4,5.11,5.11,0,0,1,1-1.85,4.46,4.46,0,0,1,1.65-1.18,5.63,5.63,0,0,1,2.24-.42,5.55,5.55,0,0,1,2.38.47,4.43,4.43,0,0,1,1.62,1.26,5,5,0,0,1,.92,1.82,8.18,8.18,0,0,1,.29,2.17V78h-7.19v.17a2.45,2.45,0,0,0,.6,1.74,2.39,2.39,0,0,0,1.87.65,2.94,2.94,0,0,0,1.6-.39,6.46,6.46,0,0,0,1.16-.94l1.58,2a5,5,0,0,1-2,1.37A7.35,7.35,0,0,1,114.25,83.09Zm-.06-9.39a1.89,1.89,0,0,0-1.51.63,2.48,2.48,0,0,0-.54,1.67v.17h3.92V76a2.78,2.78,0,0,0-.45-1.65A1.65,1.65,0,0,0,114.19,73.7Z"/><path class="cls-8" d="M124.66,82.83a3.41,3.41,0,0,1-2.48-.83,3.25,3.25,0,0,1-.85-2.43V74.08h-1.57V71.63h.78a1.07,1.07,0,0,0,.88-.31,1.43,1.43,0,0,0,.24-.89V68.6h2.83v3h2.22v2.45h-2.22v6.3h2.05v2.45Z"/><path class="cls-8" d="M136.83,83.09a5.69,5.69,0,0,1-2.21-.41A4.32,4.32,0,0,1,133,81.51a5.26,5.26,0,0,1-1-1.86,8.38,8.38,0,0,1,0-4.86,5.21,5.21,0,0,1,1-1.85,4.3,4.3,0,0,1,1.64-1.16,6.16,6.16,0,0,1,4.42,0,4.46,4.46,0,0,1,1.64,1.16,5.19,5.19,0,0,1,1,1.85,8.16,8.16,0,0,1,0,4.86,5.24,5.24,0,0,1-1,1.86A4.48,4.48,0,0,1,139,82.68,5.73,5.73,0,0,1,136.83,83.09Zm0-2.5a1.83,1.83,0,0,0,1.45-.58,2.39,2.39,0,0,0,.51-1.64V76.09a2.43,2.43,0,0,0-.51-1.65,2.13,2.13,0,0,0-2.9,0,2.38,2.38,0,0,0-.52,1.65v2.28a2.34,2.34,0,0,0,.52,1.64A1.81,1.81,0,0,0,136.83,80.59Z"/><path class="cls-8" d="M143.49,71.63h3.15v1.88h.11A2.65,2.65,0,0,1,147.83,72a3.23,3.23,0,0,1,1.93-.6,3.72,3.72,0,0,1,3.22,1.5,7.27,7.27,0,0,1,1.09,4.35A7.35,7.35,0,0,1,153,81.58a3.7,3.7,0,0,1-3.22,1.51,3.6,3.6,0,0,1-1-.16,3.32,3.32,0,0,1-.88-.45A2.9,2.9,0,0,1,146.75,81h-.11V87.1h-3.15Zm5.22,8.9a2,2,0,0,0,1.49-.63,2.4,2.4,0,0,0,.58-1.7V76.26a2.4,2.4,0,0,0-.58-1.7,2,2,0,0,0-1.49-.63,2.43,2.43,0,0,0-1.48.44,1.42,1.42,0,0,0-.59,1.21v3.3a1.42,1.42,0,0,0,.59,1.21A2.43,2.43,0,0,0,148.71,80.53Z"/><path class="cls-8" d="M160.3,83.09a5.87,5.87,0,0,1-2.28-.42,4.78,4.78,0,0,1-1.7-1.17,4.92,4.92,0,0,1-1-1.85,7.7,7.7,0,0,1-.36-2.43,7.86,7.86,0,0,1,.35-2.4,5,5,0,0,1,1-1.85,4.46,4.46,0,0,1,1.65-1.18,5.66,5.66,0,0,1,2.24-.42,5.55,5.55,0,0,1,2.38.47,4.43,4.43,0,0,1,1.62,1.26,5,5,0,0,1,.92,1.82,8.18,8.18,0,0,1,.29,2.17V78h-7.19v.17a2.45,2.45,0,0,0,.6,1.74,2.39,2.39,0,0,0,1.87.65,2.94,2.94,0,0,0,1.6-.39,6.46,6.46,0,0,0,1.16-.94l1.58,2a5,5,0,0,1-2,1.37A7.32,7.32,0,0,1,160.3,83.09Zm-.06-9.39a1.9,1.9,0,0,0-1.51.63,2.48,2.48,0,0,0-.54,1.67v.17h3.92V76a2.78,2.78,0,0,0-.45-1.65A1.65,1.65,0,0,0,160.24,73.7Z"/><path class="cls-8" d="M166.79,82.83V71.63H170v2.43h.1a3.88,3.88,0,0,1,.3-.91,2.7,2.7,0,0,1,.57-.78,2.76,2.76,0,0,1,.84-.54,3.11,3.11,0,0,1,1.15-.2h.56v2.94h-.79a4.52,4.52,0,0,0-2.06.36,1.41,1.41,0,0,0-.67,1.35v6.55Z"/><path class="cls-8" d="M182.86,82.83a2,2,0,0,1-1.42-.53,2.45,2.45,0,0,1-.72-1.43h-.12a2.63,2.63,0,0,1-1.14,1.65,3.85,3.85,0,0,1-2.15.57,3.48,3.48,0,0,1-2.58-.9,3.17,3.17,0,0,1-.9-2.36,2.93,2.93,0,0,1,1.29-2.62,6.2,6.2,0,0,1,3.51-.87h1.77v-.7a1.89,1.89,0,0,0-.42-1.29,1.84,1.84,0,0,0-1.43-.48,2.49,2.49,0,0,0-1.5.4,4,4,0,0,0-.91.92l-1.88-1.67A4.82,4.82,0,0,1,176,71.94a5.79,5.79,0,0,1,2.8-.57,5.32,5.32,0,0,1,3.59,1,3.84,3.84,0,0,1,1.19,3v4.91h1.05v2.45Zm-4.38-1.94a2.57,2.57,0,0,0,1.36-.34,1.2,1.2,0,0,0,.56-1.1V78.14h-1.53c-1.24,0-1.86.41-1.86,1.25v.31a1.06,1.06,0,0,0,.38.9A1.81,1.81,0,0,0,178.48,80.89Z"/><path class="cls-8" d="M189.81,82.83a3.41,3.41,0,0,1-2.48-.83,3.29,3.29,0,0,1-.84-2.43V74.08h-1.58V71.63h.79a1.06,1.06,0,0,0,.87-.31,1.43,1.43,0,0,0,.24-.89V68.6h2.83v3h2.22v2.45h-2.22v6.3h2.05v2.45Z"/><path class="cls-8" d="M197.77,83.09a5.64,5.64,0,0,1-2.2-.41,4.44,4.44,0,0,1-1.65-1.17,5.24,5.24,0,0,1-1-1.86,8.16,8.16,0,0,1,0-4.86,5.19,5.19,0,0,1,1-1.85,4.41,4.41,0,0,1,1.65-1.16,6.13,6.13,0,0,1,4.41,0,4.41,4.41,0,0,1,1.65,1.16,5.35,5.35,0,0,1,1,1.85,8.38,8.38,0,0,1,0,4.86,5.4,5.4,0,0,1-1,1.86A4.44,4.44,0,0,1,200,82.68,5.69,5.69,0,0,1,197.77,83.09Zm0-2.5a1.85,1.85,0,0,0,1.46-.58,2.39,2.39,0,0,0,.51-1.64V76.09a2.43,2.43,0,0,0-.51-1.65,1.88,1.88,0,0,0-1.46-.57,1.85,1.85,0,0,0-1.45.57,2.43,2.43,0,0,0-.51,1.65v2.28a2.39,2.39,0,0,0,.51,1.64A1.83,1.83,0,0,0,197.77,80.59Z"/><path class="cls-8" d="M204.43,82.83V71.63h3.16v2.43h.11a3.14,3.14,0,0,1,.3-.91,2.86,2.86,0,0,1,.56-.78,3,3,0,0,1,.84-.54,3.13,3.13,0,0,1,1.16-.2h.55v2.94h-.79a4.55,4.55,0,0,0-2.06.36,1.41,1.41,0,0,0-.67,1.35v6.55Z"/><path class="cls-8" d="M216,83.09a6.36,6.36,0,0,1-2.73-.53,6.27,6.27,0,0,1-2-1.48l1.86-1.88a5,5,0,0,0,1.32,1,3.55,3.55,0,0,0,1.65.38,2.11,2.11,0,0,0,1.3-.29.93.93,0,0,0,.36-.77c0-.53-.38-.84-1.13-.94l-1.22-.15c-2.52-.32-3.77-1.47-3.77-3.46a3.44,3.44,0,0,1,.31-1.48,3.16,3.16,0,0,1,.87-1.15,3.94,3.94,0,0,1,1.37-.75,5.58,5.58,0,0,1,1.8-.27,9,9,0,0,1,1.55.12,5.56,5.56,0,0,1,1.19.34,4.16,4.16,0,0,1,1,.56,11.23,11.23,0,0,1,.87.73L218.77,75a4.17,4.17,0,0,0-1.2-.85,3.37,3.37,0,0,0-1.38-.3,2,2,0,0,0-1.15.25.8.8,0,0,0-.34.68,1,1,0,0,0,.24.7,1.71,1.71,0,0,0,.93.35l1.26.17q3.69.49,3.69,3.37a3.3,3.3,0,0,1-.34,1.5,3.53,3.53,0,0,1-1,1.18,4.64,4.64,0,0,1-1.52.78A6.74,6.74,0,0,1,216,83.09Z"/></g></svg>