<svg xmlns="http://www.w3.org/2000/svg" xmlns:xlink="http://www.w3.org/1999/xlink" viewBox="0 0 305.62 305.62"><defs><style>.cls-1,.cls-2,.cls-3{fill:none;}.cls-2{stroke:#fff;stroke-width:1.25px;}.cls-2,.cls-3{stroke-miterlimit:10;}.cls-3{stroke:#000;stroke-width:0.25px;}.cls-4{clip-path:url(#clip-path);}.cls-5{fill:#e2001a;}.cls-6{fill:#2699d1;}.cls-7{fill:#1a171b;}.cls-8{fill:#bf3b28;}.cls-9{fill:#c03c28;}</style><clipPath id="clip-path"><rect class="cls-1" x="6.17" y="1.21" width="292.96" height="274.96"/></clipPath></defs><title>feedback_mobilityproviders</title><g id="Ebene_2" data-name="Ebene 2"><path class="cls-2" d="M284.62,290.62v15m0-290.62V0M21,290.62v15M21,15V0M290.62,284.62h15M15,284.62H0M290.62,21h15M15,21H0"/><path class="cls-3" d="M284.62,290.62v15m0-290.62V0M21,290.62v15M21,15V0M290.62,284.62h15M15,284.62H0M290.62,21h15M15,21H0"/></g><g id="Ebene_1" data-name="Ebene 1"><g class="cls-4"><path class="cls-5" d="M152.69,240.36a4.45,4.45,0,0,0-.45,8.87c1.9.2,2.61,1.32,2.36,3.75a5.85,5.85,0,0,0,0,.73,7,7,0,1,0,7-7,6.06,6.06,0,0,0-.73,0c-2.42.25-3.55-.45-3.75-2.36a4.42,4.42,0,0,0-4.42-4m8.9,20.48a7.15,7.15,0,0,1-7.14-7.13c0-.25,0-.5,0-.75.25-2.38-.41-3.43-2.26-3.63a4.55,4.55,0,1,1,5-5c.19,1.86,1.25,2.51,3.63,2.26l.74,0a7.14,7.14,0,1,1,0,14.27"/><path class="cls-5" d="M153.89,242.51a3.5,3.5,0,0,0-.35,7c1.51.16,2.07,1,1.87,3a5.44,5.44,0,0,0,0,.57,5.55,5.55,0,1,0,5.55-5.54l-.58,0c-1.92.19-2.81-.36-3-1.88a3.49,3.49,0,0,0-3.49-3.14m7,16.18a5.65,5.65,0,0,1-5.62-6.23c.19-1.88-.32-2.71-1.78-2.86a3.61,3.61,0,1,1,3.95-4c.16,1.46,1,2,2.86,1.78l.59,0a5.65,5.65,0,0,1,0,11.3"/><path class="cls-5" d="M155.1,244.66a2.56,2.56,0,0,0-.26,5.1c1.12.12,1.54.77,1.39,2.2a3,3,0,0,0,0,.42,4.06,4.06,0,1,0,4.06-4.06l-.42,0c-1.43.15-2.09-.26-2.21-1.39a2.53,2.53,0,0,0-2.54-2.29m5.17,11.89a4.17,4.17,0,0,1-4.17-4.17c0-.14,0-.29,0-.43.15-1.37-.23-2-1.29-2.09a2.66,2.66,0,1,1,2.92-2.92c.11,1.06.72,1.44,2.09,1.3a3,3,0,0,1,.43,0,4.17,4.17,0,0,1,0,8.34"/><path class="cls-5" d="M156.25,250c.65.11.89.53.8,1.41a2.45,2.45,0,0,0,0,.27,2.58,2.58,0,1,0,2.57-2.57h-.26a1.59,1.59,0,0,1-1.07-.17.88.88,0,0,1-.35-.63h0l0-.1a1.6,1.6,0,0,0-1.59-1.45,1.61,1.61,0,0,0-.16,3.21h.1Zm3.35,4.36a2.68,2.68,0,0,1-2.67-2.68,2.53,2.53,0,0,1,0-.28c.11-1.07-.33-1.26-.81-1.31H156a1.72,1.72,0,1,1,2-2h0l0,.1a.83.83,0,0,0,.31.66,1.46,1.46,0,0,0,1,.15h.27a2.68,2.68,0,0,1,0,5.36"/><path class="cls-6" d="M162.17,240.16a8.32,8.32,0,0,0-8.31,8.31,8.43,8.43,0,0,0,0,.86c.29,2.86-.54,4.18-2.78,4.42a5.25,5.25,0,1,0,5.76,5.76c.24-2.24,1.56-3.07,4.42-2.78a8.11,8.11,0,0,0,.86,0,8.31,8.31,0,1,0,0-16.62m-10.51,24.18a5.36,5.36,0,0,1-.54-10.7c2.19-.23,3-1.48,2.68-4.3a8.47,8.47,0,1,1,7.5,7.5c-2.82-.29-4.07.49-4.3,2.68a5.35,5.35,0,0,1-5.34,4.82"/><path class="cls-6" d="M161.85,241.2a7.6,7.6,0,0,0-7.59,7.59,7.09,7.09,0,0,0,0,.79c.27,2.61-.49,3.82-2.54,4a4.8,4.8,0,1,0,5.26,5.26c.22-2.05,1.43-2.81,4-2.54a7.09,7.09,0,0,0,.79,0,7.59,7.59,0,0,0,0-15.18m-9.6,22.1a4.91,4.91,0,0,1-.5-9.79c2-.21,2.71-1.35,2.44-3.92,0-.27,0-.54,0-.8a7.7,7.7,0,1,1,7.7,7.7,7.31,7.31,0,0,1-.8-.05c-2.58-.26-3.71.45-3.92,2.45a4.9,4.9,0,0,1-4.88,4.41"/><path class="cls-6" d="M161.53,242.24a6.88,6.88,0,0,0-6.87,6.87c0,.24,0,.48,0,.71.25,2.38-.44,3.47-2.3,3.67a4.34,4.34,0,1,0,4.76,4.76c.2-1.86,1.29-2.55,3.67-2.31a5.53,5.53,0,0,0,.71,0,6.87,6.87,0,1,0,0-13.74m-8.7,20a4.45,4.45,0,0,1-.45-8.88c1.81-.19,2.45-1.22,2.21-3.55a5.79,5.79,0,0,1,0-.72,7,7,0,1,1,7,7,6.06,6.06,0,0,1-.73,0c-2.33-.24-3.35.4-3.54,2.21a4.44,4.44,0,0,1-4.43,4"/><path class="cls-6" d="M161.21,243.28a6.16,6.16,0,0,0-6.15,6.15c0,.21,0,.43,0,.64.22,2.13-.4,3.11-2.07,3.29a3.89,3.89,0,1,0,4.26,4.26c.18-1.67,1.16-2.29,3.29-2.07.21,0,.43,0,.64,0a6.15,6.15,0,1,0,0-12.3m-7.8,17.94a4,4,0,0,1-.4-8c1.62-.17,2.19-1.09,2-3.17,0-.22,0-.44,0-.65a6.26,6.26,0,1,1,6.26,6.26,4.73,4.73,0,0,1-.65,0c-2.08-.21-3,.36-3.17,2a4,4,0,0,1-4,3.59"/><path class="cls-6" d="M160.89,244.32a5.43,5.43,0,0,0-5.4,6c.19,1.88-.36,2.75-1.84,2.91a3.43,3.43,0,1,0,3.76,3.76c.15-1.48,1-2,2.91-1.84l.57,0a5.43,5.43,0,0,0,0-10.86M154,260.17a3.53,3.53,0,0,1-.36-7.05c1.43-.15,1.93-1,1.74-2.79a5.78,5.78,0,0,1,0-.58,5.54,5.54,0,1,1,5.54,5.54,5.63,5.63,0,0,1-.58,0c-1.83-.19-2.65.31-2.8,1.74a3.51,3.51,0,0,1-3.51,3.17"/><path class="cls-6" d="M160.57,245.36a4.72,4.72,0,0,0-4.71,4.71c0,.17,0,.33,0,.49.17,1.65-.31,2.4-1.6,2.54a3,3,0,1,0,3.26,3.26c.13-1.29.89-1.77,2.54-1.6l.49,0a4.71,4.71,0,0,0,0-9.42m-6,13.77a3.07,3.07,0,0,1-.31-6.13c1.23-.14,1.67-.84,1.51-2.43a4.07,4.07,0,0,1,0-.5,4.82,4.82,0,1,1,4.82,4.82,4.07,4.07,0,0,1-.5,0c-1.6-.16-2.3.27-2.43,1.51a3.06,3.06,0,0,1-3.06,2.76"/><path class="cls-6" d="M160.24,246.4a4,4,0,0,0-4,4,3,3,0,0,0,0,.42c.14,1.4-.27,2.05-1.37,2.16a2.52,2.52,0,1,0,2.76,2.76c.11-1.1.76-1.51,2.16-1.37a2.88,2.88,0,0,0,.41,0,4,4,0,0,0,0-8m-5.07,11.69a2.62,2.62,0,0,1-.27-5.22c1-.11,1.41-.71,1.27-2.05,0-.14,0-.29,0-.43a4.1,4.1,0,1,1,4.09,4.1l-.42,0c-1.34-.14-1.94.23-2,1.27a2.6,2.6,0,0,1-2.6,2.35"/><path class="cls-6" d="M155.64,252.83h-.09a2,2,0,1,0,2.24,2.24V255h0c.12-.83.66-1.14,1.78-1h.33a3.27,3.27,0,1,0-3.26-3.26c0,.11,0,.22,0,.33.12,1.12-.19,1.65-1,1.78m.11,4.22a2.16,2.16,0,0,1-.32-4.29h.1c.85-.09,1.15-.58,1-1.68a1.94,1.94,0,0,1,0-.34,3.38,3.38,0,1,1,3,3.35c-1.1-.11-1.58.19-1.67,1v.11h0a2.15,2.15,0,0,1-2.13,1.84"/><path class="cls-6" d="M156.27,252.7h0l-.1,0a1.59,1.59,0,0,0,.15,3.18,1.6,1.6,0,0,0,1.59-1.44v-.11h0c.1-.64.53-.88,1.4-.79h.26a2.55,2.55,0,1,0-2.55-2.54,2.46,2.46,0,0,0,0,.26c.09.87-.15,1.3-.8,1.4m.06,3.31a1.71,1.71,0,0,1-1.7-1.71,1.69,1.69,0,0,1,1.43-1.67h0l.1,0c.48-.05.91-.24.8-1.3a2.44,2.44,0,0,1,0-.27,2.66,2.66,0,1,1,2.65,2.65h-.27c-1.06-.11-1.25.32-1.3.8v.11h0a1.71,1.71,0,0,1-1.68,1.43"/><path class="cls-6" d="M156.91,252.57h0l-.11,0a1.14,1.14,0,1,0,1.25,1.24v-.11a.63.63,0,0,1,.26-.42,1,1,0,0,1,.63-.14h0l.15,0h.06l.14,0a1.83,1.83,0,1,0-1.83-1.83.59.59,0,0,0,0,.13v.07l0,.15,0,0a1,1,0,0,1-.13.63.61.61,0,0,1-.43.25m0,2.4a1.25,1.25,0,0,1-.23-2.47h0l.1,0a.57.57,0,0,0,.46-.22,1,1,0,0,0,.11-.7l0-.15h0v0a1.94,1.94,0,1,1,1.93,1.93h-.05l-.15,0a1.09,1.09,0,0,0-.7.1.59.59,0,0,0-.22.47V254h0a1.24,1.24,0,0,1-1.22,1"/><path class="cls-7" d="M174,248.24a1.08,1.08,0,0,0,.23.73.77.77,0,0,0,1.2,0,1.18,1.18,0,0,0,.23-.75v-.05a1.24,1.24,0,0,0-.1-.52.85.85,0,0,0-.3-.37.74.74,0,0,0-.44-.13.72.72,0,0,0-.59.29,1.12,1.12,0,0,0-.23.75Zm-.28-.07a1.51,1.51,0,0,1,.14-.65,1,1,0,0,1,.39-.44,1,1,0,0,1,.57-.16,1,1,0,0,1,.81.34,1.38,1.38,0,0,1,.3.92v.06a1.38,1.38,0,0,1-.14.65,1,1,0,0,1-.39.44,1,1,0,0,1-.57.16,1,1,0,0,1-.8-.35,1.31,1.31,0,0,1-.31-.92Z"/><path class="cls-7" d="M178.26,248.18a1.26,1.26,0,0,0-.2-.75.63.63,0,0,0-.54-.27.73.73,0,0,0-.71.47v1.19a.73.73,0,0,0,.28.32.77.77,0,0,0,.43.12.64.64,0,0,0,.54-.28,1.37,1.37,0,0,0,.2-.8m.27,0a1.52,1.52,0,0,1-.25.92.85.85,0,0,1-.69.34.92.92,0,0,1-.78-.36v1.26h-.27V247h.25l0,.35a.86.86,0,0,1,.77-.39.83.83,0,0,1,.7.33,1.54,1.54,0,0,1,.25.94Z"/><path class="cls-7" d="M180.05,247.15a.68.68,0,0,0-.52.23,1,1,0,0,0-.26.61h1.49v0a.91.91,0,0,0-.21-.58.63.63,0,0,0-.5-.23m0,2.34a1,1,0,0,1-.57-.16,1,1,0,0,1-.4-.43,1.46,1.46,0,0,1-.14-.63v-.09a1.38,1.38,0,0,1,.14-.65,1.12,1.12,0,0,1,.38-.45,1,1,0,0,1,.54-.16.86.86,0,0,1,.71.31,1.21,1.21,0,0,1,.27.84v.15h-1.77v.05a1.07,1.07,0,0,0,.24.71.8.8,0,0,0,.61.28.93.93,0,0,0,.39-.08.91.91,0,0,0,.3-.26l.18.13a1,1,0,0,1-.88.44"/><path class="cls-7" d="M181.82,247v.43a1,1,0,0,1,.35-.35.9.9,0,0,1,.46-.12.73.73,0,0,1,.59.22,1,1,0,0,1,.2.68v1.62h-.27v-1.63a.75.75,0,0,0-.14-.49.55.55,0,0,0-.45-.16.76.76,0,0,0-.45.15,1,1,0,0,0-.29.43v1.7h-.27V247Z"/><path class="cls-7" d="M174.16,252.59V253a.92.92,0,0,1,.34-.34.9.9,0,0,1,.46-.11.71.71,0,0,1,.75.48.93.93,0,0,1,.35-.36,1,1,0,0,1,.49-.12c.53,0,.8.29.82.87v1.65h-.28v-1.63A.73.73,0,0,0,177,253a.59.59,0,0,0-.46-.17.73.73,0,0,0-.5.2.66.66,0,0,0-.23.45v1.64h-.27v-1.65a.69.69,0,0,0-.15-.48.62.62,0,0,0-.46-.16.67.67,0,0,0-.44.15.86.86,0,0,0-.28.44v1.7h-.27v-2.48Z"/><path class="cls-7" d="M178.19,253.87a1.14,1.14,0,0,0,.23.73.76.76,0,0,0,.61.29.74.74,0,0,0,.6-.29,1.18,1.18,0,0,0,.23-.75v0a1.24,1.24,0,0,0-.11-.52.91.91,0,0,0-.29-.37.74.74,0,0,0-.44-.13.76.76,0,0,0-.6.29,1.18,1.18,0,0,0-.23.75Zm-.27-.07a1.51,1.51,0,0,1,.14-.65,1,1,0,0,1,.39-.44,1,1,0,0,1,.57-.16,1,1,0,0,1,.8.34,1.33,1.33,0,0,1,.31.92v.06a1.38,1.38,0,0,1-.14.65,1,1,0,0,1-.39.44,1.09,1.09,0,0,1-1.37-.19,1.31,1.31,0,0,1-.31-.92Z"/><path class="cls-7" d="M182.42,253.81a1.35,1.35,0,0,0-.19-.76.65.65,0,0,0-.54-.26.72.72,0,0,0-.72.5v1.12a.73.73,0,0,0,.73.47.62.62,0,0,0,.53-.27,1.43,1.43,0,0,0,.19-.8m.27.05a1.46,1.46,0,0,1-.26.92.83.83,0,0,1-.68.34.9.9,0,0,1-.79-.39v.34h-.26v-3.52H181V253a.93.93,0,0,1,1.47-.07,1.54,1.54,0,0,1,.25.94Z"/><path class="cls-7" d="M183.6,255.07h-.27v-2.48h.27Zm-.32-3.19a.19.19,0,0,1,.05-.13.17.17,0,0,1,.14-.06.18.18,0,0,1,.14.06.19.19,0,0,1,0,.13.21.21,0,0,1,0,.13.22.22,0,0,1-.14.05.2.2,0,0,1-.14-.05.21.21,0,0,1-.05-.13"/></g><rect class="cls-7" x="184.38" y="251.55" width="0.27" height="3.52"/><g class="cls-4"><path class="cls-7" d="M185.71,255.07h-.28v-2.48h.28Zm-.33-3.19a.19.19,0,0,1,.05-.13.18.18,0,0,1,.14-.06.17.17,0,0,1,.14.06.19.19,0,0,1,0,.13.21.21,0,0,1,0,.13.2.2,0,0,1-.14.05.22.22,0,0,1-.14-.05.21.21,0,0,1-.05-.13"/><path class="cls-7" d="M186.88,252v.63h.51v.23h-.51v1.65a.53.53,0,0,0,.07.31.28.28,0,0,0,.25.1l.22,0v.22a1.06,1.06,0,0,1-.29,0,.49.49,0,0,1-.41-.17.81.81,0,0,1-.13-.48v-1.65h-.45v-.23h.45V252Z"/><path class="cls-7" d="M188.74,254.68l.73-2.09h.29l-1.06,2.9,0,.13a.67.67,0,0,1-.63.45l-.21,0v-.23l.14,0a.59.59,0,0,0,.33-.1.83.83,0,0,0,.21-.34l.12-.34-.94-2.46h.3Z"/><path class="cls-7" d="M174.11,260.7v-2.25h-.41v-.23h.41v-.3a.8.8,0,0,1,.19-.58.7.7,0,0,1,.54-.21,1.27,1.27,0,0,1,.29,0l0,.23a1,1,0,0,0-.25,0,.45.45,0,0,0-.35.14.63.63,0,0,0-.13.41v.3H175v.23h-.59v2.25Z"/><path class="cls-7" d="M175.59,259.5a1.14,1.14,0,0,0,.23.73.77.77,0,0,0,1.2,0,1.12,1.12,0,0,0,.23-.75v-.05a1.24,1.24,0,0,0-.1-.52.85.85,0,0,0-.3-.37.71.71,0,0,0-.43-.13.73.73,0,0,0-.6.29,1.18,1.18,0,0,0-.23.75Zm-.28-.07a1.51,1.51,0,0,1,.14-.65,1,1,0,0,1,.39-.44,1,1,0,0,1,.58-.16,1,1,0,0,1,.8.34,1.38,1.38,0,0,1,.31.92v.06a1.51,1.51,0,0,1-.14.65,1,1,0,0,1-.39.44,1.11,1.11,0,0,1-1.38-.19,1.36,1.36,0,0,1-.31-.92Z"/><path class="cls-7" d="M179.24,258.46l-.19,0a.69.69,0,0,0-.43.14.89.89,0,0,0-.26.42v1.7h-.27v-2.48h.27v.4a.73.73,0,0,1,.7-.44.42.42,0,0,1,.18,0Z"/><path class="cls-7" d="M181.26,260.39a.88.88,0,0,1-.79.36.78.78,0,0,1-.6-.23,1,1,0,0,1-.21-.68v-1.62h.27v1.58c0,.47.19.71.58.71a.71.71,0,0,0,.75-.49v-1.8h.27v2.48h-.26Z"/><path class="cls-7" d="M182.5,258.22v.41a.85.85,0,0,1,.34-.34.9.9,0,0,1,.46-.11.69.69,0,0,1,.74.48.89.89,0,0,1,.36-.36,1,1,0,0,1,.49-.12q.79,0,.81.87v1.65h-.27v-1.63a.73.73,0,0,0-.15-.49.56.56,0,0,0-.46-.17.77.77,0,0,0-.5.2.65.65,0,0,0-.22.45v1.64h-.28v-1.65a.69.69,0,0,0-.15-.48.61.61,0,0,0-.45-.16.72.72,0,0,0-.45.15.92.92,0,0,0-.27.44v1.7h-.28v-2.48Z"/><path class="cls-5" d="M157.48,251l0,.16v.06a.68.68,0,0,0,0,.14,1.83,1.83,0,1,0,1.83-1.83h-.33c-.53,0-.8-.15-.88-.57h0v-.1a1.14,1.14,0,1,0-1.24,1.24l.1,0c.41.08.59.35.57.88Zm1.79,2.29a1.94,1.94,0,0,1-1.93-1.93v-.06h0l0-.15c.07-.71-.18-.89-.57-.93l-.1,0a1.23,1.23,0,0,1-1-1.22,1.25,1.25,0,0,1,2.47-.23h0l0,.1c0,.4.21.64.92.57h.2a1.94,1.94,0,1,1,0,3.87"/><path class="cls-5" d="M155.6,249.9c.84.13,1.15.68,1,1.8,0,.12,0,.23,0,.35a3.32,3.32,0,1,0,3-3.3c-1.13.12-1.67-.2-1.8-1h0v-.11a2.08,2.08,0,1,0-2.27,2.27h.1Zm4.34,5.57a3.43,3.43,0,0,1-3.43-3.42c0-.12,0-.24,0-.36.12-1.11-.19-1.6-1.05-1.69l-.12,0a2.18,2.18,0,0,1-1.85-2.16,2.19,2.19,0,0,1,4.35-.33h0v.11c.09.86.59,1.17,1.7,1a3.42,3.42,0,1,1,.36,6.83"/><path class="cls-5" d="M154.5,243.58a3,3,0,0,0-.31,6c1.32.13,1.81.91,1.63,2.58a4.26,4.26,0,0,0,0,.5,4.8,4.8,0,1,0,4.3-4.78c-1.68.18-2.45-.31-2.59-1.63a3,3,0,0,0-3-2.72m6.1,14a4.91,4.91,0,0,1-4.91-4.91,4.36,4.36,0,0,1,0-.51c.16-1.62-.28-2.34-1.54-2.47a3.14,3.14,0,1,1,3.44-3.44c.13,1.26.85,1.71,2.47,1.54a4.36,4.36,0,0,1,.51,0,4.91,4.91,0,0,1,0,9.82"/><path class="cls-5" d="M153.29,241.43a4,4,0,0,0-.4,7.93c1.71.18,2.34,1.18,2.11,3.36,0,.22,0,.44,0,.65a6.29,6.29,0,1,0,6.29-6.29c-.22,0-.43,0-.65,0-2.18.22-3.18-.41-3.36-2.12a4,4,0,0,0-4-3.57m8,18.34a6.41,6.41,0,0,1-6.4-6.4c0-.22,0-.44,0-.66.22-2.13-.37-3.07-2-3.25a4.08,4.08,0,1,1,4.47-4.47c.18,1.66,1.12,2.24,3.25,2l.66,0a6.4,6.4,0,1,1,0,12.79"/><path class="cls-5" d="M159.27,249.62a1.76,1.76,0,1,0,1.76,1.75,1.75,1.75,0,0,0-1.76-1.75m0,3.79a2,2,0,1,1,2-2,2,2,0,0,1-2,2"/></g><path class="cls-8" d="M152.65,110.17a42.56,42.56,0,1,0,30,12.46,42.39,42.39,0,0,0-30-12.46m0,87a44.59,44.59,0,1,1,31.46-13.06,44.39,44.39,0,0,1-31.46,13.06"/><path class="cls-8" d="M153.11,167.09a.61.61,0,0,0-.62.62.65.65,0,0,0,.18.45.63.63,0,0,0,.88,0,.62.62,0,0,0,.19-.45.6.6,0,0,0-.19-.44.63.63,0,0,0-.44-.18m0,1.72a1.12,1.12,0,0,1-.77-.32,1.1,1.1,0,0,1,.77-1.87,1.1,1.1,0,0,1,.78.32,1.1,1.1,0,0,1,0,1.55,1.15,1.15,0,0,1-.78.32"/><path class="cls-8" d="M135.15,161.16h-1.88a.86.86,0,0,1-.61-1.47.85.85,0,0,1,.61-.25h1.88a.82.82,0,0,1,.6.25.85.85,0,0,1,0,1.22.86.86,0,0,1-.6.25"/><path class="cls-8" d="M171.89,144.47H170a.85.85,0,0,1-.86-.86.87.87,0,0,1,.25-.61.85.85,0,0,1,.61-.25h1.88a.85.85,0,0,1,.61.25.87.87,0,0,1,.25.61.85.85,0,0,1-.86.86"/><path class="cls-8" d="M126,161.9l.54-1.76.54-1.76.55,1.76.54,1.76H126Zm1.91-6.7a.86.86,0,0,0-.83-.6.91.91,0,0,0-.51.16.93.93,0,0,0-.31.44l-1.69,5.49-1.68,5.48a.81.81,0,0,0,.06.65.83.83,0,0,0,.51.42.78.78,0,0,0,.65-.06.83.83,0,0,0,.42-.51l.47-1.52.47-1.53h3.23l.47,1.53.47,1.52a.85.85,0,0,0,.31.45.91.91,0,0,0,.51.16h.12a.28.28,0,0,0,.13,0,.83.83,0,0,0,.51-.42.85.85,0,0,0,.06-.65l-1.69-5.48Z"/><path class="cls-8" d="M177,148.13v-4.29a5.29,5.29,0,0,1,3.11.83,1.91,1.91,0,0,1,.64,1.6,1.37,1.37,0,0,1-.68,1.39,7.2,7.2,0,0,1-3.07.47m0-9.2a6.79,6.79,0,0,1,2.06.39c.59.24,1,.61,1,1.18s-.42.95-1,1.19a6.79,6.79,0,0,1-2.06.39v-3.15Zm3.5,3.93a2.85,2.85,0,0,0,1-1.19,2.78,2.78,0,0,0,.25-1.17,2.71,2.71,0,0,0-1-2.12c-.8-.68-2.21-1.2-4.67-1.2a.85.85,0,0,0-.86.86v11a.87.87,0,0,0,.25.61.85.85,0,0,0,.61.25,13,13,0,0,0,4.23-.45,3,3,0,0,0,2.11-3.14,4,4,0,0,0-.57-2.17,3.65,3.65,0,0,0-1.41-1.24"/><path class="cls-8" d="M160,163.54H146.18a.86.86,0,0,0-.6.25.85.85,0,0,0,0,1.22.86.86,0,0,0,.6.25H160a.86.86,0,1,0,0-1.72"/><path class="cls-8" d="M142.18,159.44h-3.52a.85.85,0,0,0-.61.25.86.86,0,0,0,.61,1.47h3.52a.86.86,0,0,0,.61-1.47.85.85,0,0,0-.61-.25"/><path class="cls-8" d="M156.06,145.36l.21,0a.7.7,0,0,0,.2-.08,6.62,6.62,0,0,1,1.44-.56,6.16,6.16,0,0,1,1.54-.22.86.86,0,0,0,.6-.27.8.8,0,0,0,.24-.61.85.85,0,0,0-.26-.6.84.84,0,0,0-.6-.24h0a8.56,8.56,0,0,0-1.95.27,8.34,8.34,0,0,0-1.81.72.83.83,0,0,0-.41.51.85.85,0,0,0,.07.66.87.87,0,0,0,.75.45"/><path class="cls-8" d="M150.89,156.6a.89.89,0,0,0-.11.65.87.87,0,0,0,.38.54,1.15,1.15,0,0,0,.23.1.85.85,0,0,0,.23,0,1,1,0,0,0,.41-.1.84.84,0,0,0,.32-.3,6.83,6.83,0,0,0,.81-1.81,7.3,7.3,0,0,0,.28-2,.84.84,0,0,0-.25-.59.9.9,0,0,0-.61-.24.84.84,0,0,0-.61.26.89.89,0,0,0-.25.62,5.61,5.61,0,0,1-.21,1.47,5.38,5.38,0,0,1-.62,1.36"/><path class="cls-8" d="M161.34,167.22a3,3,0,0,1-2.94,2.94H147.82a3,3,0,0,1-2.94-2.94v-6.7a.91.91,0,0,0,.3.46.84.84,0,0,0,.52.18h0a9,9,0,0,0,1.95-.27,7.73,7.73,0,0,0,1.82-.71.83.83,0,0,0,.41-.51.84.84,0,0,0-.57-1.07.89.89,0,0,0-.66.06,6.1,6.1,0,0,1-1.43.57,7.24,7.24,0,0,1-1.55.21.83.83,0,0,0-.51.18,1,1,0,0,0-.29.44v-21.9a3,3,0,0,1,2.94-2.95H158.4a3,3,0,0,1,2.94,2.95v29.06Zm5.13-24.47h-3.41v-4.59a4.68,4.68,0,0,0-4.66-4.67H147.82a4.68,4.68,0,0,0-4.66,4.67v29.06a4.68,4.68,0,0,0,4.66,4.66H158.4a4.68,4.68,0,0,0,4.66-4.66V144.47h3.41a.89.89,0,0,0,.61-.25.91.91,0,0,0,.25-.61.87.87,0,0,0-.25-.61.85.85,0,0,0-.61-.25"/><path class="cls-8" d="M153.44,150.13a5.46,5.46,0,0,1,.2-1.45,5.35,5.35,0,0,1,.61-1.36.88.88,0,0,0,.11-.65.83.83,0,0,0-.39-.53.83.83,0,0,0-.65-.11.85.85,0,0,0-.53.38,7.16,7.16,0,0,0-.8,1.79,7,7,0,0,0-.27,1.93v.08a.8.8,0,0,0,.25.59.9.9,0,0,0,.61.23.88.88,0,0,0,.61-.27,1,1,0,0,0,.25-.63"/><path class="cls-8" d="M146.18,138.65a.82.82,0,0,0-.6.25.85.85,0,0,0,0,1.22.86.86,0,0,0,.6.25H160a.91.91,0,0,0,.61-.25.87.87,0,0,0,0-1.22.86.86,0,0,0-.61-.25H146.18Z"/><path class="cls-7" d="M104.09,246.19H106a1.26,1.26,0,0,1,.91.3,1,1,0,0,1,.31.81,1.91,1.91,0,0,1-.06.48,1.33,1.33,0,0,1-.19.42,1.12,1.12,0,0,1-.32.33,1.48,1.48,0,0,1-.48.2v0a1,1,0,0,1,.58.34,1.07,1.07,0,0,1,.2.67,1.88,1.88,0,0,1-.13.72,1.67,1.67,0,0,1-.88.95,1.73,1.73,0,0,1-.69.13H103Zm1.11,5a1.16,1.16,0,0,0,.78-.25,1.13,1.13,0,0,0,.39-.69c0-.14,0-.25,0-.32a1.37,1.37,0,0,0,0-.16.75.75,0,0,0-.22-.56.93.93,0,0,0-.66-.21H104l-.44,2.19Zm.3-2.59a1.35,1.35,0,0,0,.78-.21.9.9,0,0,0,.38-.61c0-.13,0-.23,0-.3a1,1,0,0,0,0-.16.66.66,0,0,0-.2-.52.89.89,0,0,0-.61-.19h-1.46l-.39,2Z"/><path class="cls-7" d="M109.27,251.66a1.35,1.35,0,0,1-1.06-.4,1.72,1.72,0,0,1-.38-1.21,3,3,0,0,1,.15-1,2.42,2.42,0,0,1,.41-.8,1.85,1.85,0,0,1,.63-.55,1.61,1.61,0,0,1,.82-.21,1.87,1.87,0,0,1,.49.07,1.24,1.24,0,0,1,.4.19.92.92,0,0,1,.37.76,1,1,0,0,1-.14.5,1.05,1.05,0,0,1-.47.4,2.64,2.64,0,0,1-.86.27,7.16,7.16,0,0,1-1.34.11.88.88,0,0,0,0,.17,1,1,0,0,0,0,.16,1.22,1.22,0,0,0,.26.84,1,1,0,0,0,.78.29,1.36,1.36,0,0,0,.74-.21,1.9,1.9,0,0,0,.57-.56l.29.24a2.25,2.25,0,0,1-.76.7A1.88,1.88,0,0,1,109.27,251.66Zm.53-3.75a1.23,1.23,0,0,0-.92.39,2,2,0,0,0-.5,1l0,.18a10.58,10.58,0,0,0,1.18-.09,2.8,2.8,0,0,0,.71-.2.72.72,0,0,0,.34-.29.74.74,0,0,0,.09-.36.52.52,0,0,0-.24-.48A1,1,0,0,0,109.8,247.91Z"/><path class="cls-7" d="M116.42,251.57a.4.4,0,0,1-.29-.09.37.37,0,0,1-.09-.25,1.37,1.37,0,0,1,0-.19l.06-.32h0a2.2,2.2,0,0,1-.56.71,1.38,1.38,0,0,1-1.28.13,1.13,1.13,0,0,1-.38-.3,1.41,1.41,0,0,1-.25-.47,2.31,2.31,0,0,1-.08-.61,3.81,3.81,0,0,1,.12-1,2.83,2.83,0,0,1,.36-.85,2.05,2.05,0,0,1,.6-.61,1.53,1.53,0,0,1,.84-.24,1.29,1.29,0,0,1,.72.2,1,1,0,0,1,.4.56h0l.13-.66h.42l-.71,3.56h.6l-.07.38Zm-1.55-.28a.93.93,0,0,0,.45-.1,1.53,1.53,0,0,0,.39-.27,1.83,1.83,0,0,0,.36-.45,1.64,1.64,0,0,0,.22-.61l.19-.92a1.15,1.15,0,0,0,0-.37.67.67,0,0,0-.15-.33A.8.8,0,0,0,116,248a1.24,1.24,0,0,0-.5-.09,1.2,1.2,0,0,0-.91.37,2,2,0,0,0-.49,1l-.09.46,0,.22a1.77,1.77,0,0,0,0,.24,1.7,1.7,0,0,0,0,.41.84.84,0,0,0,.44.57A1,1,0,0,0,114.87,251.29Z"/><path class="cls-7" d="M120.48,247.63h.42l-.18.85h0a2.06,2.06,0,0,1,.55-.71,1.22,1.22,0,0,1,.77-.24,1.19,1.19,0,0,1,.51.11,1,1,0,0,1,.39.3,1.39,1.39,0,0,1,.24.47,2,2,0,0,1,.09.61,3.81,3.81,0,0,1-.12.95,2.61,2.61,0,0,1-.37.85,2.05,2.05,0,0,1-.6.61,1.47,1.47,0,0,1-.84.23,1.23,1.23,0,0,1-.71-.19,1,1,0,0,1-.4-.56h0l-.44,2.2h-.43Zm.85,3.66a1.22,1.22,0,0,0,.91-.37,2,2,0,0,0,.49-1l.1-.46a1.5,1.5,0,0,0,0-.22,1.77,1.77,0,0,0,0-.24,1.42,1.42,0,0,0,0-.42.85.85,0,0,0-.44-.56,1,1,0,0,0-.4-.08,1.13,1.13,0,0,0-.45.09,1.61,1.61,0,0,0-.38.28,2,2,0,0,0-.37.44,1.89,1.89,0,0,0-.22.62l-.18.92a.92.92,0,0,0,0,.37,1,1,0,0,0,.15.33.87.87,0,0,0,.32.24A1.28,1.28,0,0,0,121.33,251.29Z"/><path class="cls-7" d="M127,251.57a.4.4,0,0,1-.29-.09.37.37,0,0,1-.09-.25,1.37,1.37,0,0,1,0-.19l.06-.32h0a2.2,2.2,0,0,1-.56.71,1.38,1.38,0,0,1-1.28.13,1.13,1.13,0,0,1-.38-.3,1.41,1.41,0,0,1-.25-.47,2.31,2.31,0,0,1-.08-.61,3.81,3.81,0,0,1,.12-1,2.83,2.83,0,0,1,.36-.85,2,2,0,0,1,.61-.61,1.47,1.47,0,0,1,.83-.24,1.29,1.29,0,0,1,.72.2,1,1,0,0,1,.4.56h0l.13-.66h.42l-.71,3.56h.6l-.07.38Zm-1.55-.28a.93.93,0,0,0,.45-.1,1.53,1.53,0,0,0,.39-.27,1.83,1.83,0,0,0,.36-.45,1.64,1.64,0,0,0,.22-.61l.19-.92a1.15,1.15,0,0,0,0-.37.67.67,0,0,0-.15-.33.8.8,0,0,0-.32-.24,1.24,1.24,0,0,0-.5-.09,1.2,1.2,0,0,0-.91.37,2,2,0,0,0-.49,1l-.09.46,0,.22a1.77,1.77,0,0,0,0,.24,1.7,1.7,0,0,0,0,.41.84.84,0,0,0,.44.57A1,1,0,0,0,125.45,251.29Z"/><path class="cls-7" d="M128.47,251.57l.78-3.94h.43l-.17.82h0a3.28,3.28,0,0,1,.2-.31,1.66,1.66,0,0,1,.26-.27,1.56,1.56,0,0,1,.34-.18,1.53,1.53,0,0,1,.45-.06H131l-.08.42h-.26a1.18,1.18,0,0,0-.5.1,1.31,1.31,0,0,0-.4.26,1.39,1.39,0,0,0-.28.38,1.79,1.79,0,0,0-.16.46l-.46,2.32Z"/><path class="cls-7" d="M131.8,251.57a.41.41,0,0,1-.3-.09.34.34,0,0,1-.1-.26.66.66,0,0,1,0-.21l.6-3h-.65l.08-.37h.39a.34.34,0,0,0,.24-.07.55.55,0,0,0,.09-.24l.16-.79h.4l-.22,1.1h.88l-.08.37h-.87l-.64,3.19h.82l-.08.38Z"/><path class="cls-7" d="M136.83,251.66a1.29,1.29,0,0,1-1-.4,1.63,1.63,0,0,1-.37-1.14,3.51,3.51,0,0,1,.13-1,3,3,0,0,1,.4-.82,1.91,1.91,0,0,1,.63-.57,1.7,1.7,0,0,1,.84-.22,1.3,1.3,0,0,1,1,.41,1.61,1.61,0,0,1,.37,1.14,3.52,3.52,0,0,1-.14,1,2.7,2.7,0,0,1-.39.82,2,2,0,0,1-.64.57A1.68,1.68,0,0,1,136.83,251.66Zm0-.37a1.26,1.26,0,0,0,.89-.37,2.07,2.07,0,0,0,.5-1l.09-.47a.76.76,0,0,0,0-.21,1.62,1.62,0,0,0,0-.22,1.42,1.42,0,0,0-.06-.42.89.89,0,0,0-.19-.33.81.81,0,0,0-.31-.23,1.15,1.15,0,0,0-.44-.08,1.22,1.22,0,0,0-.88.37,1.92,1.92,0,0,0-.5,1.05l-.1.47,0,.21v.22a1.19,1.19,0,0,0,.24.76A.93.93,0,0,0,136.88,251.29Z"/><path class="cls-7" d="M140,252.48a1,1,0,0,1-.21.47.67.67,0,0,1-.5.16h-.57l.08-.37h.72l1-4.74h-.7l.07-.37h.7l.23-1.13a.94.94,0,0,1,.21-.46.63.63,0,0,1,.49-.17h.66l-.08.38h-.81l-.27,1.38h.79l-.08.37h-.78Z"/><path class="cls-7" d="M98.94,260.82a.4.4,0,0,1-.31-.1.33.33,0,0,1-.09-.25,1.25,1.25,0,0,1,0-.21l.6-3h-.64l.07-.38H99a.29.29,0,0,0,.23-.07.38.38,0,0,0,.1-.23l.16-.8h.4l-.22,1.1h.87l-.07.38h-.87L99,260.44h.81l-.07.38Z"/><path class="cls-7" d="M101.85,255.12h.43l-.51,2.54h0a1.61,1.61,0,0,1,.52-.66,1.22,1.22,0,0,1,.76-.22,1,1,0,0,1,.76.28,1.14,1.14,0,0,1,.25.79,2.26,2.26,0,0,1,0,.25,2.34,2.34,0,0,1,0,.26l-.42,2.08h.6l-.06.38h-.58a.43.43,0,0,1-.27-.08.28.28,0,0,1-.1-.25v-.07a.28.28,0,0,1,0-.08l.4-2,0-.25a1.42,1.42,0,0,0,0-.19c0-.51-.24-.76-.71-.76a1.13,1.13,0,0,0-.45.09,1.16,1.16,0,0,0-.4.29,1.9,1.9,0,0,0-.31.44,2.13,2.13,0,0,0-.2.55l-.46,2.29h-.42Z"/><path class="cls-7" d="M106.51,260.91a1.37,1.37,0,0,1-1.06-.4,1.72,1.72,0,0,1-.38-1.21,3.12,3.12,0,0,1,.15-1,2.63,2.63,0,0,1,.41-.8,1.82,1.82,0,0,1,.63-.54,1.64,1.64,0,0,1,.82-.21,1.53,1.53,0,0,1,.49.07,1.24,1.24,0,0,1,.4.19.94.94,0,0,1,.27.32.89.89,0,0,1,.1.44,1,1,0,0,1-.14.5,1.15,1.15,0,0,1-.46.4,3.45,3.45,0,0,1-.87.27,8.12,8.12,0,0,1-1.34.11.88.88,0,0,0,0,.17c0,.07,0,.12,0,.16a1.22,1.22,0,0,0,.26.84,1,1,0,0,0,.78.28,1.44,1.44,0,0,0,.74-.2,1.9,1.9,0,0,0,.57-.56l.29.23a2,2,0,0,1-.76.7A1.86,1.86,0,0,1,106.51,260.91Zm.53-3.75a1.2,1.2,0,0,0-.91.39,2,2,0,0,0-.51,1l0,.19a10.25,10.25,0,0,0,1.18-.1,2.85,2.85,0,0,0,.71-.19.72.72,0,0,0,.34-.29.74.74,0,0,0,.09-.36.56.56,0,0,0-.23-.49A1.18,1.18,0,0,0,107,257.16Z"/><path class="cls-7" d="M112.22,260.91a1.37,1.37,0,0,1-1.07-.4,1.72,1.72,0,0,1-.38-1.21,3.12,3.12,0,0,1,.15-1,2.87,2.87,0,0,1,.41-.8A1.91,1.91,0,0,1,112,257a1.65,1.65,0,0,1,.83-.21,1.61,1.61,0,0,1,.49.07,1.18,1.18,0,0,1,.39.19.76.76,0,0,1,.27.32.89.89,0,0,1,.1.44.88.88,0,0,1-.14.5,1.09,1.09,0,0,1-.46.4,3.45,3.45,0,0,1-.87.27,8.12,8.12,0,0,1-1.34.11.88.88,0,0,0,0,.17v.16a1.18,1.18,0,0,0,.26.84,1,1,0,0,0,.77.28,1.45,1.45,0,0,0,.75-.2,2,2,0,0,0,.56-.56l.29.23a2,2,0,0,1-.76.7A1.85,1.85,0,0,1,112.22,260.91Zm.52-3.75a1.21,1.21,0,0,0-.91.39,2,2,0,0,0-.51,1l0,.19a10,10,0,0,0,1.18-.1,2.73,2.73,0,0,0,.71-.19.67.67,0,0,0,.34-.29.74.74,0,0,0,.09-.36.56.56,0,0,0-.23-.49A1.18,1.18,0,0,0,112.74,257.16Z"/><path class="cls-7" d="M114.11,260.82l1.78-2-1-1.92h.45l.82,1.64h0l1.41-1.64h.5l-1.73,2,1,2H117l-.87-1.7h0l-1.46,1.7Z"/><path class="cls-7" d="M119.47,255.12h.42l-.51,2.54h0a1.8,1.8,0,0,1,.52-.66,1.26,1.26,0,0,1,.76-.22,1,1,0,0,1,.77.28,1.14,1.14,0,0,1,.25.79,2.26,2.26,0,0,1,0,.25,2.34,2.34,0,0,1,0,.26l-.42,2.08h.6l-.07.38h-.58a.46.46,0,0,1-.27-.08.31.31,0,0,1-.1-.25v-.07a.45.45,0,0,1,0-.08l.39-2c0-.09,0-.17,0-.25s0-.14,0-.19c0-.51-.24-.76-.72-.76a1.12,1.12,0,0,0-.44.09,1.19,1.19,0,0,0-.41.29,1.88,1.88,0,0,0-.3.44,1.82,1.82,0,0,0-.2.55l-.46,2.29h-.42Z"/><path class="cls-7" d="M123.09,260.82a.4.4,0,0,1-.3-.1.36.36,0,0,1-.09-.26v-.06a.31.31,0,0,1,0-.09l.69-3.44h.43l-.72,3.57h.6l-.07.38Zm.76-5a.27.27,0,0,1-.2-.06.24.24,0,0,1-.06-.15v-.06a.75.75,0,0,0,0-.11.29.29,0,0,1,.33-.25.25.25,0,0,1,.21.07.2.2,0,0,1,.06.15.11.11,0,0,1,0,.05s0,.06,0,.12A.29.29,0,0,1,123.85,255.8Z"/><path class="cls-7" d="M125.69,255.12h.43l-.53,2.61h0a2.08,2.08,0,0,1,.55-.71,1.22,1.22,0,0,1,.77-.24,1.19,1.19,0,0,1,.51.11,1,1,0,0,1,.39.3,1.3,1.3,0,0,1,.24.47,2,2,0,0,1,.09.61,3.87,3.87,0,0,1-.12,1,2.83,2.83,0,0,1-.36.85,2.21,2.21,0,0,1-.61.61,1.55,1.55,0,0,1-.84.23,1.26,1.26,0,0,1-.71-.19,1,1,0,0,1-.4-.56h0l-.13.66h-.43Zm.51,5.41a1.25,1.25,0,0,0,.92-.36,2,2,0,0,0,.48-1l.1-.46a1.8,1.8,0,0,0,0-.22,1.66,1.66,0,0,0,0-.24,1.86,1.86,0,0,0,0-.42,1,1,0,0,0-.17-.34.69.69,0,0,0-.28-.22,1,1,0,0,0-.4-.08,1.13,1.13,0,0,0-.45.09,1.33,1.33,0,0,0-.38.27,2.34,2.34,0,0,0-.37.45,2.2,2.2,0,0,0-.22.61l-.18.92a1,1,0,0,0,0,.38,1,1,0,0,0,.15.33.83.83,0,0,0,.33.24A1.4,1.4,0,0,0,126.2,260.53Z"/><path class="cls-7" d="M129.37,260.82a.39.39,0,0,1-.3-.1.36.36,0,0,1-.09-.26v-.06a.31.31,0,0,1,0-.09l.69-3.44h.43l-.72,3.57h.6l-.07.38Zm.76-5a.27.27,0,0,1-.2-.06.24.24,0,0,1-.06-.15v-.06a.75.75,0,0,0,0-.11.29.29,0,0,1,.33-.25.25.25,0,0,1,.21.07.2.2,0,0,1,.06.15.43.43,0,0,0,0,.05s0,.06,0,.12A.29.29,0,0,1,130.13,255.8Z"/><path class="cls-7" d="M131.46,260.82a.39.39,0,0,1-.31-.1.33.33,0,0,1-.09-.25.68.68,0,0,1,0-.21l.6-3H131l.08-.38h.39a.3.3,0,0,0,.24-.07.46.46,0,0,0,.09-.23l.17-.8h.4l-.23,1.1h.88l-.08.38h-.87l-.64,3.19h.82l-.08.38Z"/><path class="cls-7" d="M133.71,260.82a.38.38,0,0,1-.3-.1.36.36,0,0,1-.1-.26v-.06a.37.37,0,0,1,0-.09l.69-3.44h.43l-.72,3.57h.6l-.08.38Zm.76-5a.29.29,0,0,1-.21-.06.3.3,0,0,1,0-.15v-.06a.89.89,0,0,1,0-.11.29.29,0,0,1,.33-.25.25.25,0,0,1,.21.07.25.25,0,0,1,0,.15v.05s0,.06,0,.12A.29.29,0,0,1,134.47,255.8Z"/><path class="cls-7" d="M136.62,260.91a1.26,1.26,0,0,1-1-.41,1.6,1.6,0,0,1-.37-1.13,3.18,3.18,0,0,1,.14-1,2.76,2.76,0,0,1,.39-.83,2.27,2.27,0,0,1,.63-.57,1.69,1.69,0,0,1,.84-.21,1.3,1.3,0,0,1,1,.41,1.6,1.6,0,0,1,.37,1.13,3.14,3.14,0,0,1-.14,1,2.65,2.65,0,0,1-.39.83,2.12,2.12,0,0,1-.63.57A1.69,1.69,0,0,1,136.62,260.91Zm0-.38a1.2,1.2,0,0,0,.89-.37,1.92,1.92,0,0,0,.5-1l.09-.47a.89.89,0,0,0,0-.22,1.48,1.48,0,0,0,0-.22,1.4,1.4,0,0,0-.06-.41.88.88,0,0,0-.19-.34.84.84,0,0,0-.3-.22,1.25,1.25,0,0,0-1.33.29,2,2,0,0,0-.5,1.05l-.09.47a.76.76,0,0,0,0,.21,1.55,1.55,0,0,0,0,.22,1.16,1.16,0,0,0,.24.75A.93.93,0,0,0,136.67,260.53Z"/><path class="cls-7" d="M139.35,260.82l.78-3.95h.43l-.16.79h0A1.8,1.8,0,0,1,141,257a1.26,1.26,0,0,1,.76-.22,1,1,0,0,1,.77.28,1.19,1.19,0,0,1,.25.79,2.26,2.26,0,0,1,0,.25,2.34,2.34,0,0,1,0,.26l-.42,2.08h.6l-.08.38h-.57a.41.41,0,0,1-.27-.08.3.3,0,0,1-.1-.24v-.11l0-.11.38-1.92c0-.09,0-.17,0-.25s0-.14,0-.19c0-.51-.24-.76-.72-.76a1.12,1.12,0,0,0-.44.09,1.19,1.19,0,0,0-.41.29,1.88,1.88,0,0,0-.3.44,1.82,1.82,0,0,0-.2.55l-.46,2.29Z"/><path class="cls-9" d="M124.94,51.91h-.06l-1.09,2.18-2.9,5.27-2.84-5.25-1.13-2.35h-.07v9.93h-3V46.79h3.44l3.65,7h0l3.61-7H128v14.9h-3Z"/><path class="cls-9" d="M135.65,61.94a5.64,5.64,0,0,1-2.2-.4,4.46,4.46,0,0,1-1.65-1.18,5.28,5.28,0,0,1-1-1.85,8.2,8.2,0,0,1,0-4.87,5.19,5.19,0,0,1,1-1.85,4.53,4.53,0,0,1,1.65-1.16,6.28,6.28,0,0,1,4.41,0,4.53,4.53,0,0,1,1.65,1.16,5.19,5.19,0,0,1,1,1.85,8.42,8.42,0,0,1,0,4.87,5.28,5.28,0,0,1-1,1.85,4.46,4.46,0,0,1-1.65,1.18A5.66,5.66,0,0,1,135.65,61.94Zm0-2.5a1.88,1.88,0,0,0,1.46-.57,2.4,2.4,0,0,0,.51-1.64V54.94a2.39,2.39,0,0,0-.51-1.64,2.12,2.12,0,0,0-2.91,0,2.39,2.39,0,0,0-.51,1.64v2.29a2.4,2.4,0,0,0,.51,1.64A1.87,1.87,0,0,0,135.65,59.44Z"/><path class="cls-9" d="M143.14,45.89h3.16v6.47h.11a2.65,2.65,0,0,1,1.08-1.54,3.29,3.29,0,0,1,1.93-.59,3.71,3.71,0,0,1,3.22,1.49,7.31,7.31,0,0,1,1.09,4.35,7.38,7.38,0,0,1-1.09,4.37,3.72,3.72,0,0,1-3.22,1.5,3.3,3.3,0,0,1-1-.16,3.05,3.05,0,0,1-.88-.45,2.79,2.79,0,0,1-1.08-1.52h-.11v1.88h-3.16Zm5.23,13.49a2,2,0,0,0,1.49-.63,2.39,2.39,0,0,0,.58-1.7V55.11a2.38,2.38,0,0,0-.58-1.69,2,2,0,0,0-1.49-.63,2.42,2.42,0,0,0-1.48.43,1.45,1.45,0,0,0-.59,1.21v3.31a1.42,1.42,0,0,0,.59,1.2A2.37,2.37,0,0,0,148.37,59.38Z"/><path class="cls-9" d="M157.7,49.29a1.93,1.93,0,0,1-1.4-.44,1.53,1.53,0,0,1-.44-1.12v-.47a1.51,1.51,0,0,1,.44-1.12,2.45,2.45,0,0,1,2.8,0,1.51,1.51,0,0,1,.43,1.12v.47a1.52,1.52,0,0,1-.43,1.12A1.94,1.94,0,0,1,157.7,49.29Zm-1.58,1.19h3.16V61.69h-3.16Z"/><path class="cls-9" d="M165.36,61.69a2.74,2.74,0,0,1-3.14-3.08V45.89h3.16V59.23h1.41v2.46Z"/><path class="cls-9" d="M170.27,49.29a1.93,1.93,0,0,1-1.4-.44,1.53,1.53,0,0,1-.44-1.12v-.47a1.51,1.51,0,0,1,.44-1.12,2.45,2.45,0,0,1,2.8,0,1.51,1.51,0,0,1,.43,1.12v.47a1.52,1.52,0,0,1-.43,1.12A1.94,1.94,0,0,1,170.27,49.29Zm-1.58,1.19h3.16V61.69h-3.16Z"/><path class="cls-9" d="M178.72,61.69a3.39,3.39,0,0,1-2.49-.84,3.26,3.26,0,0,1-.84-2.43V52.94h-1.58V50.48h.79a1,1,0,0,0,.87-.31,1.4,1.4,0,0,0,.24-.88V47.45h2.84v3h2.22v2.46h-2.22v6.29h2v2.46Z"/><path class="cls-9" d="M189.81,50.48h2.95l-4.31,12.93a4,4,0,0,1-1.21,1.92A3.46,3.46,0,0,1,185,66h-2V63.5h2.11l.39-1.24-3.93-11.78h3.14l1.64,5.23.81,3.24h.13l.83-3.24Z"/><path class="cls-9" d="M71.51,87.55a5.84,5.84,0,0,1-4.72-2l1.86-1.87a4.77,4.77,0,0,0,1.32,1,3.4,3.4,0,0,0,1.64.39,2.22,2.22,0,0,0,1.31-.29.94.94,0,0,0,.36-.78c0-.53-.38-.84-1.13-.94l-1.22-.15q-3.78-.47-3.78-3.46A3.6,3.6,0,0,1,67.46,78a3.31,3.31,0,0,1,.88-1.15,4.16,4.16,0,0,1,1.36-.75,5.69,5.69,0,0,1,1.81-.27,8.76,8.76,0,0,1,1.54.12,5.49,5.49,0,0,1,1.2.34,4.56,4.56,0,0,1,1,.56,9.52,9.52,0,0,1,.86.73l-1.81,1.86a4,4,0,0,0-1.21-.84,3.15,3.15,0,0,0-1.37-.31,2,2,0,0,0-1.15.25.82.82,0,0,0-.35.69.94.94,0,0,0,.25.69,1.71,1.71,0,0,0,.93.35l1.26.17q3.69.5,3.69,3.37a3.27,3.27,0,0,1-.34,1.5,3.53,3.53,0,0,1-1,1.18,4.46,4.46,0,0,1-1.52.78A6.42,6.42,0,0,1,71.51,87.55Z"/><path class="cls-9" d="M83.14,87.55a5.88,5.88,0,0,1-2.29-.42A4.7,4.7,0,0,1,79.16,86a5,5,0,0,1-1-1.85,8,8,0,0,1-.35-2.43,7.86,7.86,0,0,1,.34-2.4,5.19,5.19,0,0,1,1-1.85,4.41,4.41,0,0,1,1.65-1.18,6.22,6.22,0,0,1,4.62,0A4.65,4.65,0,0,1,87,77.56a5.09,5.09,0,0,1,.92,1.83,8.1,8.1,0,0,1,.29,2.16v.94H81v.17a2.16,2.16,0,0,0,2.47,2.39,3,3,0,0,0,1.6-.39,6,6,0,0,0,1.15-.94l1.58,2a5.09,5.09,0,0,1-2,1.37A7.16,7.16,0,0,1,83.14,87.55Zm-.07-9.39a1.87,1.87,0,0,0-1.5.63A2.48,2.48,0,0,0,81,80.46v.18H85v-.2a2.71,2.71,0,0,0-.46-1.65A1.63,1.63,0,0,0,83.07,78.16Z"/><path class="cls-9" d="M90.46,87.29V76.09h3.16v2.43h.1a3.66,3.66,0,0,1,.3-.9,2.46,2.46,0,0,1,.57-.78,2.61,2.61,0,0,1,.84-.55,3.11,3.11,0,0,1,1.15-.2h.56V79h-.79a4.5,4.5,0,0,0-2.06.37,1.38,1.38,0,0,0-.67,1.34v6.55Z"/><path class="cls-9" d="M101.47,87.29,97.8,76.09h3.11l1.39,4.52,1,4.06h.17l1-4.06,1.35-4.52h3l-3.67,11.2Z"/><path class="cls-9" d="M112.14,74.89a1.92,1.92,0,0,1-1.4-.43,1.53,1.53,0,0,1-.44-1.12v-.47a1.51,1.51,0,0,1,.44-1.12,2.45,2.45,0,0,1,2.8,0,1.51,1.51,0,0,1,.43,1.12v.47a1.52,1.52,0,0,1-.43,1.12A1.94,1.94,0,0,1,112.14,74.89Zm-1.58,1.2h3.16v11.2h-3.16Z"/><path class="cls-9" d="M121.19,87.55a5.63,5.63,0,0,1-2.24-.42A4.39,4.39,0,0,1,117.3,86a5.06,5.06,0,0,1-1-1.85,8.82,8.82,0,0,1,0-4.85,5.32,5.32,0,0,1,1-1.85A4.28,4.28,0,0,1,119,76.24a5.81,5.81,0,0,1,2.24-.41,5.05,5.05,0,0,1,2.85.77,4.2,4.2,0,0,1,1.63,2.16l-2.56,1.11a2.17,2.17,0,0,0-.62-1.09,1.8,1.8,0,0,0-1.3-.45,1.72,1.72,0,0,0-1.45.63,2.66,2.66,0,0,0-.5,1.69v2.08a2.69,2.69,0,0,0,.5,1.7,1.74,1.74,0,0,0,1.45.62,1.77,1.77,0,0,0,1.39-.5,3.33,3.33,0,0,0,.7-1.18l2.45,1.06A4.4,4.4,0,0,1,124,86.8,5.07,5.07,0,0,1,121.19,87.55Z"/><path class="cls-9" d="M132.37,87.55a5.8,5.8,0,0,1-2.28-.42,4.66,4.66,0,0,1-1.7-1.17,5,5,0,0,1-1-1.85,8,8,0,0,1-.35-2.43,7.86,7.86,0,0,1,.34-2.4,5.19,5.19,0,0,1,1-1.85A4.49,4.49,0,0,1,130,76.25a6.22,6.22,0,0,1,4.62,0,4.65,4.65,0,0,1,1.62,1.26,5.09,5.09,0,0,1,.92,1.83,8.1,8.1,0,0,1,.29,2.16v.94h-7.19v.17a2.52,2.52,0,0,0,.59,1.75,2.46,2.46,0,0,0,1.88.64,3,3,0,0,0,1.6-.39,6,6,0,0,0,1.15-.94l1.58,2a5.09,5.09,0,0,1-1.95,1.37A7.16,7.16,0,0,1,132.37,87.55Zm-.07-9.39a1.87,1.87,0,0,0-1.5.63,2.48,2.48,0,0,0-.54,1.67v.18h3.92v-.2a2.71,2.71,0,0,0-.46-1.65A1.63,1.63,0,0,0,132.3,78.16Z"/><path class="cls-9" d="M144.72,76.09h3.16V78H148a2.57,2.57,0,0,1,1.08-1.54,3.23,3.23,0,0,1,1.93-.6,3.73,3.73,0,0,1,3.22,1.5,7.27,7.27,0,0,1,1.09,4.35A7.33,7.33,0,0,1,154.22,86,3.71,3.71,0,0,1,151,87.55a3.2,3.2,0,0,1-1.93-.61,2.93,2.93,0,0,1-.68-.68,2.82,2.82,0,0,1-.4-.84h-.11v6.14h-3.16ZM150,85a2,2,0,0,0,1.49-.63,2.4,2.4,0,0,0,.58-1.7V80.72a2.4,2.4,0,0,0-.58-1.7,2,2,0,0,0-1.49-.63,2.43,2.43,0,0,0-1.48.44,1.44,1.44,0,0,0-.59,1.21v3.31a1.42,1.42,0,0,0,.59,1.2A2.43,2.43,0,0,0,150,85Z"/><path class="cls-9" d="M157.7,87.29V76.09h3.16v2.43h.1a3.66,3.66,0,0,1,.3-.9,2.46,2.46,0,0,1,.57-.78,2.61,2.61,0,0,1,.84-.55,3.11,3.11,0,0,1,1.15-.2h.56V79h-.79a4.5,4.5,0,0,0-2.06.37,1.38,1.38,0,0,0-.67,1.34v6.55Z"/><path class="cls-9" d="M170.87,87.55a5.66,5.66,0,0,1-2.21-.41A4.44,4.44,0,0,1,167,86a5.24,5.24,0,0,1-1-1.86,8.38,8.38,0,0,1,0-4.86,5.19,5.19,0,0,1,1-1.85,4.53,4.53,0,0,1,1.65-1.16,6.13,6.13,0,0,1,4.41,0,4.53,4.53,0,0,1,1.65,1.16,5.19,5.19,0,0,1,1,1.85,8.16,8.16,0,0,1,0,4.86,5.24,5.24,0,0,1-1,1.86,4.44,4.44,0,0,1-1.65,1.17A5.64,5.64,0,0,1,170.87,87.55Zm0-2.5a1.87,1.87,0,0,0,1.45-.57,2.43,2.43,0,0,0,.51-1.65V80.55a2.39,2.39,0,0,0-.51-1.64,2.12,2.12,0,0,0-2.91,0,2.39,2.39,0,0,0-.51,1.64v2.28a2.43,2.43,0,0,0,.51,1.65A1.88,1.88,0,0,0,170.87,85.05Z"/><path class="cls-9" d="M180.75,87.29l-3.67-11.2h3.11l1.39,4.52,1,4.06h.18l1-4.06,1.34-4.52h3l-3.67,11.2Z"/><path class="cls-9" d="M191.42,74.89a1.92,1.92,0,0,1-1.4-.43,1.53,1.53,0,0,1-.44-1.12v-.47a1.51,1.51,0,0,1,.44-1.12,2.43,2.43,0,0,1,2.79,0,1.48,1.48,0,0,1,.44,1.12v.47a1.49,1.49,0,0,1-.44,1.12A1.91,1.91,0,0,1,191.42,74.89Zm-1.58,1.2H193v11.2h-3.15Z"/><path class="cls-9" d="M202.81,85.42h-.1a2.93,2.93,0,0,1-1.08,1.52,3.45,3.45,0,0,1-.9.45,3.26,3.26,0,0,1-1,.16A3.72,3.72,0,0,1,196.47,86a7.4,7.4,0,0,1-1.09-4.36,7.34,7.34,0,0,1,1.09-4.35,3.74,3.74,0,0,1,3.23-1.5,3.27,3.27,0,0,1,1.93.6A2.65,2.65,0,0,1,202.71,78h.1V71.5H206V87.29h-3.16ZM200.74,85a2.41,2.41,0,0,0,1.48-.44,1.39,1.39,0,0,0,.59-1.2V80a1.41,1.41,0,0,0-.59-1.21,2.41,2.41,0,0,0-1.48-.44,1.93,1.93,0,0,0-1.48.63,2.41,2.41,0,0,0-.59,1.7v1.94a2.41,2.41,0,0,0,.59,1.7A1.93,1.93,0,0,0,200.74,85Z"/><path class="cls-9" d="M213.59,87.55a5.88,5.88,0,0,1-2.29-.42A4.62,4.62,0,0,1,209.61,86a4.86,4.86,0,0,1-1.05-1.85,8,8,0,0,1-.35-2.43,7.86,7.86,0,0,1,.34-2.4,5.33,5.33,0,0,1,1-1.85,4.53,4.53,0,0,1,1.66-1.18,6.22,6.22,0,0,1,4.62,0,4.65,4.65,0,0,1,1.62,1.26,5.09,5.09,0,0,1,.92,1.83,8.1,8.1,0,0,1,.29,2.16v.94h-7.2v.17A2.18,2.18,0,0,0,214,85.05a2.94,2.94,0,0,0,1.6-.39,6,6,0,0,0,1.15-.94l1.58,2a5,5,0,0,1-1.95,1.37A7.16,7.16,0,0,1,213.59,87.55Zm-.07-9.39a1.87,1.87,0,0,0-1.5.63,2.49,2.49,0,0,0-.55,1.67v.18h3.93v-.2a2.71,2.71,0,0,0-.46-1.65A1.63,1.63,0,0,0,213.52,78.16Z"/><path class="cls-9" d="M220.91,87.29V76.09h3.16v2.43h.1a3.66,3.66,0,0,1,.3-.9,2.46,2.46,0,0,1,.57-.78,2.61,2.61,0,0,1,.84-.55,3.11,3.11,0,0,1,1.15-.2h.56V79h-.79a4.5,4.5,0,0,0-2.06.37,1.38,1.38,0,0,0-.67,1.34v6.55Z"/><path class="cls-9" d="M233.33,87.55A6.52,6.52,0,0,1,230.6,87a6.34,6.34,0,0,1-2-1.49l1.86-1.87a4.77,4.77,0,0,0,1.32,1,3.4,3.4,0,0,0,1.64.39,2.22,2.22,0,0,0,1.31-.29.94.94,0,0,0,.36-.78c0-.53-.38-.84-1.13-.94l-1.22-.15Q229,82.48,229,79.48a3.6,3.6,0,0,1,.31-1.48,3.31,3.31,0,0,1,.88-1.15,4.16,4.16,0,0,1,1.36-.75,5.69,5.69,0,0,1,1.81-.27,9,9,0,0,1,1.55.12,5.56,5.56,0,0,1,1.19.34,4.56,4.56,0,0,1,1,.56,9.52,9.52,0,0,1,.86.73l-1.81,1.86a4.07,4.07,0,0,0-1.2-.84,3.22,3.22,0,0,0-1.38-.31,2,2,0,0,0-1.15.25.82.82,0,0,0-.35.69.94.94,0,0,0,.25.69,1.71,1.71,0,0,0,.93.35l1.26.17q3.69.5,3.69,3.37a3.41,3.41,0,0,1-.34,1.5,3.53,3.53,0,0,1-1,1.18,4.46,4.46,0,0,1-1.52.78A6.42,6.42,0,0,1,233.33,87.55Z"/></g></svg>