<svg xmlns="http://www.w3.org/2000/svg" viewBox="0 0 305.62 305.62"><defs><style>.cls-1,.cls-2,.cls-5{fill:none;}.cls-1{stroke:#fff;stroke-width:1.25px;}.cls-1,.cls-2{stroke-miterlimit:10;}.cls-2{stroke:#000;stroke-width:0.25px;}.cls-3{fill:#2c3f50;}.cls-4{fill:#e87e1f;}.cls-5{stroke:#e87e1f;stroke-width:2px;}</style></defs><title>en_innoSurvey_nutzer_back</title><g id="Ebene_2" data-name="Ebene 2"><path class="cls-1" d="M284.62,290.62v15m0-290.62V0M21,290.62v15M21,15V0M290.62,284.62h15M15,284.62H0M290.62,21h15M15,21H0"/><path class="cls-2" d="M284.62,290.62v15m0-290.62V0M21,290.62v15M21,15V0M290.62,284.62h15M15,284.62H0M290.62,21h15M15,21H0"/></g><g id="Ebene_1" data-name="Ebene 1"><path class="cls-3" d="M105.26,254.16l-.56-1.65h-2.25l-.56,1.65h-.68l2-5.58H104l2,5.58Zm-1.67-5h0l-.94,2.72h1.92Z"/><path class="cls-3" d="M107.71,254.16a.69.69,0,0,1-.51-.18.74.74,0,0,1-.17-.5V250.6h-.68V250h.38A.37.37,0,0,0,107,250a.42.42,0,0,0,.07-.29v-.77h.58V250h.9v.56h-.9v3h.84v.57Z"/><path class="cls-4" d="M111.49,248.24h.64v2.46h0a1.31,1.31,0,0,1,.42-.55,1.2,1.2,0,0,1,.74-.21,1.33,1.33,0,0,1,1,.41,1.72,1.72,0,0,1,.37,1.16v2.65h-.64v-2.54c0-.74-.31-1.11-.94-1.11a1.14,1.14,0,0,0-.37.05,1,1,0,0,0-.32.14.59.59,0,0,0-.23.24.68.68,0,0,0-.09.35v2.87h-.64Z"/><path class="cls-4" d="M117,254.16a.69.69,0,0,1-.51-.18.74.74,0,0,1-.17-.5V250.6h-.68V250H116a.37.37,0,0,0,.29-.09.42.42,0,0,0,.07-.29v-.77h.58V250h.9v.56h-.9v3h.84v.57Z"/><path class="cls-4" d="M119.69,254.16a.66.66,0,0,1-.51-.18.69.69,0,0,1-.17-.5V250.6h-.68V250h.38A.35.35,0,0,0,119,250a.37.37,0,0,0,.08-.29v-.77h.58V250h.9v.56h-.9v3h.84v.57Z"/><path class="cls-4" d="M121.58,250h.64v.66h0a1.17,1.17,0,0,1,.47-.57,1.36,1.36,0,0,1,.74-.19,1.6,1.6,0,0,1,.7.15,1.57,1.57,0,0,1,.53.43,2.07,2.07,0,0,1,.34.68,3.74,3.74,0,0,1,0,1.8,1.92,1.92,0,0,1-.34.67,1.49,1.49,0,0,1-.53.44,1.6,1.6,0,0,1-.7.15,1.25,1.25,0,0,1-1.21-.76h0v2.26h-.64Zm1.71,3.65a1.07,1.07,0,0,0,.85-.34,1.28,1.28,0,0,0,.31-.9v-.7a1.28,1.28,0,0,0-.31-.9,1.07,1.07,0,0,0-.85-.34,1.47,1.47,0,0,0-.42.06,1.19,1.19,0,0,0-.34.16.78.78,0,0,0-.22.26.59.59,0,0,0-.09.31v1.55a.74.74,0,0,0,.09.36.78.78,0,0,0,.22.26,1,1,0,0,0,.34.16A1.47,1.47,0,0,0,123.29,253.69Z"/><path class="cls-4" d="M127.46,254.26a1.89,1.89,0,0,1-1-.22,2.21,2.21,0,0,1-.67-.59l.46-.37a1.67,1.67,0,0,0,.53.47,1.41,1.41,0,0,0,.69.16,1,1,0,0,0,.64-.17.59.59,0,0,0,.22-.5.61.61,0,0,0-.15-.41,1,1,0,0,0-.57-.23l-.32-.05a2.57,2.57,0,0,1-.53-.13,1.4,1.4,0,0,1-.42-.22,1,1,0,0,1-.28-.35,1.07,1.07,0,0,1-.1-.49,1.3,1.3,0,0,1,.11-.54,1.15,1.15,0,0,1,.31-.38,1.58,1.58,0,0,1,.47-.23,2.15,2.15,0,0,1,.58-.07,1.74,1.74,0,0,1,.84.18,1.85,1.85,0,0,1,.6.48l-.42.39a1.26,1.26,0,0,0-.4-.35,1.35,1.35,0,0,0-.67-.16.88.88,0,0,0-.6.18.56.56,0,0,0-.21.46.48.48,0,0,0,.21.44,1.45,1.45,0,0,0,.59.2l.32.05a1.65,1.65,0,0,1,1,.4,1,1,0,0,1,.29.76,1.19,1.19,0,0,1-.41.95A1.72,1.72,0,0,1,127.46,254.26Z"/><path class="cls-4" d="M130.61,251a.42.42,0,0,1-.49-.46v-.11a.42.42,0,0,1,.49-.46.46.46,0,0,1,.37.13.44.44,0,0,1,.11.33v.11a.44.44,0,0,1-.11.33A.46.46,0,0,1,130.61,251Zm0,3.25a.49.49,0,0,1-.38-.13.5.5,0,0,1-.11-.33v-.11a.42.42,0,0,1,.49-.46.46.46,0,0,1,.37.13.44.44,0,0,1,.11.33v.11a.46.46,0,0,1-.11.33A.46.46,0,0,1,130.61,254.26Z"/><path class="cls-4" d="M131.85,255.37l2.08-7.13h.58l-2.09,7.13Z"/><path class="cls-4" d="M134,255.37l2.09-7.13h.57l-2.08,7.13Z"/><path class="cls-4" d="M138.86,254.26a1.89,1.89,0,0,1-1-.22,2.21,2.21,0,0,1-.67-.59l.46-.37a1.67,1.67,0,0,0,.53.47,1.41,1.41,0,0,0,.69.16,1,1,0,0,0,.64-.17.59.59,0,0,0,.22-.5.61.61,0,0,0-.15-.41,1,1,0,0,0-.57-.23l-.32-.05a2.57,2.57,0,0,1-.53-.13,1.4,1.4,0,0,1-.42-.22.87.87,0,0,1-.28-.35,1.07,1.07,0,0,1-.1-.49,1.3,1.3,0,0,1,.11-.54,1,1,0,0,1,.31-.38,1.47,1.47,0,0,1,.47-.23,2.15,2.15,0,0,1,.58-.07,1.74,1.74,0,0,1,.84.18,1.85,1.85,0,0,1,.6.48l-.42.39a1.26,1.26,0,0,0-.4-.35,1.35,1.35,0,0,0-.67-.16.88.88,0,0,0-.6.18.56.56,0,0,0-.21.46.48.48,0,0,0,.21.44,1.45,1.45,0,0,0,.59.2l.32.05a1.68,1.68,0,0,1,1,.4,1,1,0,0,1,.29.76,1.19,1.19,0,0,1-.41.95A1.72,1.72,0,0,1,138.86,254.26Z"/><path class="cls-4" d="M144.06,253.5h0a1.33,1.33,0,0,1-.16.28.95.95,0,0,1-.55.42,1.53,1.53,0,0,1-.45.06,1.33,1.33,0,0,1-1-.41,1.69,1.69,0,0,1-.37-1.17V250h.64v2.54c0,.74.31,1.11.94,1.11a1.5,1.5,0,0,0,.37-.05,1,1,0,0,0,.32-.14.78.78,0,0,0,.23-.25.72.72,0,0,0,.08-.35V250h.64v4.12h-.64Z"/><path class="cls-4" d="M146.06,254.16V250h.64v.76h0a1.27,1.27,0,0,1,.4-.53,1.2,1.2,0,0,1,.79-.23h.25v.63h-.37a1.48,1.48,0,0,0-.82.2.59.59,0,0,0-.29.49v2.8Z"/><path class="cls-4" d="M150,254.16,148.54,250h.64l.72,2,.45,1.41h0l.45-1.41.73-2h.62l-1.46,4.12Z"/><path class="cls-4" d="M154.5,254.26a1.87,1.87,0,0,1-.76-.15,1.69,1.69,0,0,1-.59-.44,2,2,0,0,1-.37-.68,2.73,2.73,0,0,1-.13-.89,2.77,2.77,0,0,1,.13-.89,2,2,0,0,1,.37-.68,1.69,1.69,0,0,1,.59-.44,1.87,1.87,0,0,1,.76-.15,1.79,1.79,0,0,1,.75.15,1.65,1.65,0,0,1,.56.42,1.93,1.93,0,0,1,.35.63,2.37,2.37,0,0,1,.13.81v.3h-3v.19a1.64,1.64,0,0,0,.08.5,1.28,1.28,0,0,0,.24.39,1.07,1.07,0,0,0,.39.26,1.19,1.19,0,0,0,.51.1,1.17,1.17,0,0,0,1.14-.71l.45.33a1.64,1.64,0,0,1-.62.69A1.92,1.92,0,0,1,154.5,254.26Zm0-3.79a1.29,1.29,0,0,0-.48.1,1,1,0,0,0-.37.26,1.28,1.28,0,0,0-.24.39,1.35,1.35,0,0,0-.09.5v.05h2.28v-.09a1.29,1.29,0,0,0-.3-.88A1.07,1.07,0,0,0,154.5,250.47Z"/><path class="cls-4" d="M159.85,250h.63l-1.85,5.08a3.33,3.33,0,0,1-.14.31.7.7,0,0,1-.18.2.88.88,0,0,1-.26.1,2,2,0,0,1-.38,0h-.33v-.56H158l.31-.88L156.76,250h.64l1,2.8.19.67h0l.23-.67Z"/><path class="cls-4" d="M161.26,254.26a.43.43,0,0,1-.49-.46v-.11a.45.45,0,0,1,.12-.33.46.46,0,0,1,.37-.13.43.43,0,0,1,.49.46v.11a.46.46,0,0,1-.12.33A.45.45,0,0,1,161.26,254.26Z"/><path class="cls-4" d="M163.35,249.07a.41.41,0,0,1-.3-.1.39.39,0,0,1-.09-.26v-.11a.39.39,0,0,1,.09-.26.5.5,0,0,1,.6,0,.39.39,0,0,1,.09.26v.11a.39.39,0,0,1-.09.26A.41.41,0,0,1,163.35,249.07Zm-.32,1h.64v4.12H163Z"/><path class="cls-4" d="M165,254.16V250h.64v.66h0a1.33,1.33,0,0,1,.43-.55,1.18,1.18,0,0,1,.74-.21,1.3,1.3,0,0,1,1,.41,1.67,1.67,0,0,1,.37,1.16v2.65h-.64v-2.54q0-1.11-.93-1.11a1.14,1.14,0,0,0-.37.05,1.22,1.22,0,0,0-.33.14.76.76,0,0,0-.23.24.78.78,0,0,0-.08.35v2.87Z"/><path class="cls-4" d="M169.57,254.16V250h.64v.66h0a1.31,1.31,0,0,1,.42-.55,1.2,1.2,0,0,1,.74-.21,1.33,1.33,0,0,1,1,.41,1.72,1.72,0,0,1,.37,1.16v2.65h-.64v-2.54c0-.74-.31-1.11-.94-1.11a1.14,1.14,0,0,0-.37.05,1,1,0,0,0-.32.14.59.59,0,0,0-.23.24.68.68,0,0,0-.09.35v2.87Z"/><path class="cls-4" d="M175.68,254.26a1.87,1.87,0,0,1-.76-.15,1.61,1.61,0,0,1-.59-.44A2,2,0,0,1,174,253a2.72,2.72,0,0,1-.14-.89,2.77,2.77,0,0,1,.14-.89,2,2,0,0,1,.38-.68,1.61,1.61,0,0,1,.59-.44,1.87,1.87,0,0,1,.76-.15,1.79,1.79,0,0,1,.75.15,1.61,1.61,0,0,1,.59.44,1.89,1.89,0,0,1,.39.68,2.77,2.77,0,0,1,.13.89,2.73,2.73,0,0,1-.13.89,1.89,1.89,0,0,1-.39.68,1.61,1.61,0,0,1-.59.44A1.79,1.79,0,0,1,175.68,254.26Zm0-.57a1.2,1.2,0,0,0,.85-.32,1.29,1.29,0,0,0,.32-1v-.6a1.29,1.29,0,0,0-.32-1,1.15,1.15,0,0,0-.85-.32,1.14,1.14,0,0,0-.85.32,1.29,1.29,0,0,0-.33,1v.6a1.29,1.29,0,0,0,.33,1A1.18,1.18,0,0,0,175.68,253.69Z"/><path class="cls-4" d="M178.14,254.16v-.54l2.35-3h-2.28V250h3v.48l-2.39,3.07h2.46v.57Z"/><path class="cls-4" d="M182.8,254.26a.45.45,0,0,1-.37-.13.46.46,0,0,1-.12-.33v-.11a.43.43,0,0,1,.49-.46.46.46,0,0,1,.37.13.45.45,0,0,1,.12.33v.11a.43.43,0,0,1-.49.46Z"/><path class="cls-4" d="M185.81,254.26a1.91,1.91,0,0,1-1-.22,2.21,2.21,0,0,1-.67-.59l.46-.37a1.7,1.7,0,0,0,.54.47,1.34,1.34,0,0,0,.68.16,1,1,0,0,0,.64-.17.6.6,0,0,0,.23-.5.57.57,0,0,0-.16-.41,1,1,0,0,0-.56-.23l-.33-.05a2.74,2.74,0,0,1-.53-.13,1.4,1.4,0,0,1-.42-.22,1,1,0,0,1-.28-.35,1.22,1.22,0,0,1-.1-.49,1.16,1.16,0,0,1,.12-.54,1,1,0,0,1,.3-.38,1.58,1.58,0,0,1,.47-.23,2.2,2.2,0,0,1,.58-.07,1.73,1.73,0,0,1,1.44.66l-.42.39a1.16,1.16,0,0,0-.4-.35,1.34,1.34,0,0,0-.66-.16.91.91,0,0,0-.61.18.58.58,0,0,0-.2.46.49.49,0,0,0,.2.44,1.56,1.56,0,0,0,.59.2l.32.05a1.72,1.72,0,0,1,1,.4,1,1,0,0,1,.28.76,1.18,1.18,0,0,1-.4.95A1.76,1.76,0,0,1,185.81,254.26Z"/><path class="cls-4" d="M188.46,250h.64v.66h0a1.17,1.17,0,0,1,.47-.57,1.36,1.36,0,0,1,.74-.19,1.6,1.6,0,0,1,.7.15,1.57,1.57,0,0,1,.53.43,2.07,2.07,0,0,1,.34.68,3.74,3.74,0,0,1,0,1.8,1.92,1.92,0,0,1-.34.67,1.49,1.49,0,0,1-.53.44,1.6,1.6,0,0,1-.7.15,1.25,1.25,0,0,1-1.21-.76h0v2.26h-.64Zm1.71,3.65a1.09,1.09,0,0,0,.85-.34,1.28,1.28,0,0,0,.31-.9v-.7a1.28,1.28,0,0,0-.31-.9,1.09,1.09,0,0,0-.85-.34,1.42,1.42,0,0,0-.42.06,1.19,1.19,0,0,0-.34.16.78.78,0,0,0-.22.26.59.59,0,0,0-.09.31v1.55a.74.74,0,0,0,.09.36.78.78,0,0,0,.22.26,1,1,0,0,0,.34.16A1.42,1.42,0,0,0,190.17,253.69Z"/><path class="cls-4" d="M196.1,254.16a.6.6,0,0,1-.51-.19,1,1,0,0,1-.2-.48h0a1.06,1.06,0,0,1-.45.58,1.36,1.36,0,0,1-.74.19,1.41,1.41,0,0,1-1-.34,1.17,1.17,0,0,1-.37-.91,1,1,0,0,1,.43-.89,2.27,2.27,0,0,1,1.33-.32h.82v-.4a.91.91,0,0,0-.24-.68,1.06,1.06,0,0,0-.74-.23,1.08,1.08,0,0,0-.62.17,1.3,1.3,0,0,0-.42.45l-.39-.36a1.42,1.42,0,0,1,.54-.58,1.73,1.73,0,0,1,.93-.23,1.65,1.65,0,0,1,1.16.37,1.27,1.27,0,0,1,.42,1v2.26h.47v.57Zm-1.84-.45a1.52,1.52,0,0,0,.44-.05,1.25,1.25,0,0,0,.35-.16.83.83,0,0,0,.22-.24.61.61,0,0,0,.08-.3v-.68h-.85a1.6,1.6,0,0,0-.8.16.52.52,0,0,0-.25.47v.17a.55.55,0,0,0,.22.47A.94.94,0,0,0,194.26,253.71Z"/><path class="cls-4" d="M198.91,254.26a1.94,1.94,0,0,1-.78-.15,1.66,1.66,0,0,1-.58-.44,2.14,2.14,0,0,1-.36-.67,3.44,3.44,0,0,1,0-1.8,2.31,2.31,0,0,1,.36-.68,1.76,1.76,0,0,1,.58-.43,1.94,1.94,0,0,1,.78-.15,1.66,1.66,0,0,1,1,.27,1.58,1.58,0,0,1,.55.7l-.53.27a1,1,0,0,0-.37-.5,1.15,1.15,0,0,0-.64-.17,1.28,1.28,0,0,0-.5.09.88.88,0,0,0-.36.26.93.93,0,0,0-.22.39,1.59,1.59,0,0,0-.07.5v.7a1.36,1.36,0,0,0,.29.89,1,1,0,0,0,.86.35A1.16,1.16,0,0,0,200,253l.46.31a1.67,1.67,0,0,1-.59.72A1.82,1.82,0,0,1,198.91,254.26Z"/><path class="cls-4" d="M202.9,254.26a1.84,1.84,0,0,1-.76-.15,1.69,1.69,0,0,1-.59-.44,1.86,1.86,0,0,1-.37-.68,2.72,2.72,0,0,1-.14-.89,2.77,2.77,0,0,1,.14-.89,1.86,1.86,0,0,1,.37-.68,1.69,1.69,0,0,1,.59-.44,1.84,1.84,0,0,1,.76-.15,1.72,1.72,0,0,1,.74.15,1.69,1.69,0,0,1,.57.42,1.93,1.93,0,0,1,.35.63,2.64,2.64,0,0,1,.12.81v.3h-3v.19a1.64,1.64,0,0,0,.08.5,1.28,1.28,0,0,0,.24.39,1,1,0,0,0,.38.26,1.27,1.27,0,0,0,.52.1,1.19,1.19,0,0,0,1.14-.71l.45.33a1.64,1.64,0,0,1-.62.69A1.92,1.92,0,0,1,202.9,254.26Zm0-3.79a1.25,1.25,0,0,0-.48.1,1,1,0,0,0-.37.26,1.3,1.3,0,0,0-.25.39,1.59,1.59,0,0,0-.08.5v.05H204v-.09a1.29,1.29,0,0,0-.3-.88A1.07,1.07,0,0,0,202.9,250.47Z"/><path class="cls-3" d="M115.09,259.63h.63l-1.85,5.09a3.33,3.33,0,0,1-.14.31.7.7,0,0,1-.18.2.88.88,0,0,1-.26.1,2,2,0,0,1-.38,0h-.33v-.56h.65l.31-.88L112,259.63h.64l1,2.81.19.67h0l.23-.67Z"/><path class="cls-3" d="M118.05,263.86a1.91,1.91,0,0,1-.76-.15,1.57,1.57,0,0,1-.58-.44,2,2,0,0,1-.38-.68,2.72,2.72,0,0,1-.14-.89,2.77,2.77,0,0,1,.14-.89,1.88,1.88,0,0,1,.38-.68,1.57,1.57,0,0,1,.58-.44,1.91,1.91,0,0,1,.76-.15,1.87,1.87,0,0,1,.76.15,1.69,1.69,0,0,1,.59.44,2,2,0,0,1,.38.68,2.77,2.77,0,0,1,.14.89,2.72,2.72,0,0,1-.14.89,2.14,2.14,0,0,1-.38.68,1.69,1.69,0,0,1-.59.44A1.87,1.87,0,0,1,118.05,263.86Zm0-.57a1.18,1.18,0,0,0,.85-.32,1.29,1.29,0,0,0,.33-1v-.6a1.29,1.29,0,0,0-.33-1,1.28,1.28,0,0,0-1.69,0,1.29,1.29,0,0,0-.33,1v.6a1.29,1.29,0,0,0,.33,1A1.17,1.17,0,0,0,118.05,263.29Z"/><path class="cls-3" d="M123.52,263.1h0c0,.09-.1.19-.16.28a1.34,1.34,0,0,1-.23.25,1.28,1.28,0,0,1-.33.17,1.42,1.42,0,0,1-.44.06,1.33,1.33,0,0,1-1-.41,1.7,1.7,0,0,1-.38-1.17v-2.65h.64v2.55c0,.74.32,1.11,1,1.11a1.5,1.5,0,0,0,.37-.05,1,1,0,0,0,.32-.14.75.75,0,0,0,.22-.25.63.63,0,0,0,.09-.35v-2.87h.64v4.13h-.64Z"/><path class="cls-3" d="M128.94,263.86a1.89,1.89,0,0,1-.77-.15,1.49,1.49,0,0,1-.58-.44,1.77,1.77,0,0,1-.36-.68,2.73,2.73,0,0,1-.13-.89,2.84,2.84,0,0,1,.13-.9,1.93,1.93,0,0,1,.36-.68,1.57,1.57,0,0,1,.58-.43,1.89,1.89,0,0,1,.77-.15,1.66,1.66,0,0,1,1,.27,1.68,1.68,0,0,1,.56.7l-.54.27a1,1,0,0,0-.37-.5,1.15,1.15,0,0,0-.64-.17,1.28,1.28,0,0,0-.5.09.88.88,0,0,0-.36.26.93.93,0,0,0-.22.39,1.59,1.59,0,0,0-.07.5v.7a1.36,1.36,0,0,0,.29.89,1.07,1.07,0,0,0,.86.35,1.16,1.16,0,0,0,1.12-.72l.47.31a1.67,1.67,0,0,1-.6.71A1.7,1.7,0,0,1,128.94,263.86Z"/><path class="cls-3" d="M134.43,263.76a.64.64,0,0,1-.52-.19,1,1,0,0,1-.19-.48h0a1.06,1.06,0,0,1-.45.58,1.38,1.38,0,0,1-.74.19,1.41,1.41,0,0,1-1-.34,1.14,1.14,0,0,1-.37-.91,1.07,1.07,0,0,1,.43-.9,2.35,2.35,0,0,1,1.33-.31h.82V261a.91.91,0,0,0-.24-.68,1.06,1.06,0,0,0-.74-.23,1.14,1.14,0,0,0-.63.17,1.52,1.52,0,0,0-.42.45l-.38-.36a1.42,1.42,0,0,1,.54-.58,1.72,1.72,0,0,1,.92-.23,1.68,1.68,0,0,1,1.17.37,1.27,1.27,0,0,1,.42,1v2.26h.47v.57Zm-1.84-.45a1.52,1.52,0,0,0,.44-.05,1.07,1.07,0,0,0,.34-.16.87.87,0,0,0,.23-.24.61.61,0,0,0,.08-.3v-.68h-.85a1.57,1.57,0,0,0-.8.16.52.52,0,0,0-.26.47v.16a.58.58,0,0,0,.22.48A1,1,0,0,0,132.59,263.31Z"/><path class="cls-3" d="M135.7,263.76v-4.13h.64v.67h0a1.41,1.41,0,0,1,.43-.55,1.2,1.2,0,0,1,.74-.21,1.29,1.29,0,0,1,1,.41,1.67,1.67,0,0,1,.38,1.16v2.65h-.64v-2.54c0-.74-.32-1.11-.94-1.11a1.14,1.14,0,0,0-.37.05,1.22,1.22,0,0,0-.33.14.64.64,0,0,0-.22.24.68.68,0,0,0-.09.35v2.87Z"/><path class="cls-3" d="M143.37,263.86a1.89,1.89,0,0,1-1-.22,2.21,2.21,0,0,1-.67-.59l.46-.37a1.78,1.78,0,0,0,.53.47,1.41,1.41,0,0,0,.69.16,1,1,0,0,0,.64-.17.6.6,0,0,0,.23-.5.62.62,0,0,0-.16-.41,1,1,0,0,0-.56-.23l-.33-.05a2.74,2.74,0,0,1-.53-.13,1.4,1.4,0,0,1-.42-.22,1,1,0,0,1-.28-.35,1.07,1.07,0,0,1-.1-.49,1.3,1.3,0,0,1,.11-.54,1.15,1.15,0,0,1,.31-.38,1.58,1.58,0,0,1,.47-.23,2.15,2.15,0,0,1,.58-.07,2,2,0,0,1,.85.17,2.11,2.11,0,0,1,.59.49l-.42.39a1.27,1.27,0,0,0-1.07-.51.9.9,0,0,0-.6.18.55.55,0,0,0-.2.46.47.47,0,0,0,.2.44,1.5,1.5,0,0,0,.59.2l.32.05a1.65,1.65,0,0,1,1,.4,1,1,0,0,1,.29.76,1.13,1.13,0,0,1-.41.94A1.67,1.67,0,0,1,143.37,263.86Z"/><path class="cls-3" d="M147.58,263.86a1.84,1.84,0,0,1-.76-.15,1.69,1.69,0,0,1-.59-.44,2.12,2.12,0,0,1-.37-.68,2.73,2.73,0,0,1-.13-.89,2.77,2.77,0,0,1,.13-.89,2,2,0,0,1,.37-.68,1.69,1.69,0,0,1,.59-.44,1.84,1.84,0,0,1,.76-.15,1.79,1.79,0,0,1,.75.15,1.76,1.76,0,0,1,.56.42,1.93,1.93,0,0,1,.35.63,2.64,2.64,0,0,1,.13.81v.3h-3V262a1.64,1.64,0,0,0,.08.5,1.28,1.28,0,0,0,.24.39,1.07,1.07,0,0,0,.39.26,1.19,1.19,0,0,0,.51.1,1.17,1.17,0,0,0,1.14-.71l.45.33a1.64,1.64,0,0,1-.62.69A1.92,1.92,0,0,1,147.58,263.86Zm0-3.79a1.29,1.29,0,0,0-.48.1,1.05,1.05,0,0,0-.37.25,1.25,1.25,0,0,0-.24.4,1.31,1.31,0,0,0-.09.5v.05h2.28v-.09a1.29,1.29,0,0,0-.3-.88A1,1,0,0,0,147.58,260.07Z"/><path class="cls-3" d="M152,263.86a1.87,1.87,0,0,1-.76-.15,1.57,1.57,0,0,1-.58-.44,2,2,0,0,1-.38-.68,2.73,2.73,0,0,1-.13-.89,2.77,2.77,0,0,1,.13-.89,1.88,1.88,0,0,1,.38-.68,1.57,1.57,0,0,1,.58-.44,1.87,1.87,0,0,1,.76-.15,1.79,1.79,0,0,1,.75.15,1.65,1.65,0,0,1,.56.42,1.93,1.93,0,0,1,.35.63,2.37,2.37,0,0,1,.13.81v.3h-3V262a1.64,1.64,0,0,0,.08.5,1.28,1.28,0,0,0,.24.39,1.16,1.16,0,0,0,.39.26,1.19,1.19,0,0,0,.51.1,1.29,1.29,0,0,0,.69-.18,1.3,1.3,0,0,0,.45-.53l.46.33a1.74,1.74,0,0,1-.63.69A1.92,1.92,0,0,1,152,263.86Zm0-3.79a1.29,1.29,0,0,0-.48.1,1.15,1.15,0,0,0-.37.25,1.47,1.47,0,0,0-.24.4,1.31,1.31,0,0,0-.09.5v.05h2.28v-.09a1.29,1.29,0,0,0-.3-.88A1,1,0,0,0,152,260.07Z"/><path class="cls-3" d="M157.61,263.76a.65.65,0,0,1-.5-.18.7.7,0,0,1-.18-.5V260.2h-.68v-.57h.39c.14,0,.23,0,.28-.08a.42.42,0,0,0,.08-.29v-.77h.57v1.14h.91v.57h-.91v3h.84v.57Z"/><path class="cls-3" d="M159.51,257.84h.64v2.46h0a1.33,1.33,0,0,1,.43-.55,1.18,1.18,0,0,1,.74-.21,1.3,1.3,0,0,1,1,.41,1.67,1.67,0,0,1,.37,1.16v2.65h-.64v-2.54q0-1.11-.93-1.11a1.14,1.14,0,0,0-.37.05,1.22,1.22,0,0,0-.33.14.76.76,0,0,0-.23.24.78.78,0,0,0-.08.35v2.87h-.64Z"/><path class="cls-3" d="M165.61,263.86a1.89,1.89,0,0,1-.77-.15,1.66,1.66,0,0,1-.58-.44,2.14,2.14,0,0,1-.38-.68,2.73,2.73,0,0,1-.13-.89,2.77,2.77,0,0,1,.13-.89,2,2,0,0,1,.38-.68,1.66,1.66,0,0,1,.58-.44,1.89,1.89,0,0,1,.77-.15,1.78,1.78,0,0,1,.74.15,1.56,1.56,0,0,1,.56.42,2.16,2.16,0,0,1,.36.63,2.64,2.64,0,0,1,.12.81v.3h-3V262a1.39,1.39,0,0,0,.09.5,1,1,0,0,0,.24.39,1,1,0,0,0,.38.26,1.21,1.21,0,0,0,.52.1,1.25,1.25,0,0,0,.68-.18,1.23,1.23,0,0,0,.45-.53l.46.33a1.67,1.67,0,0,1-.63.69A1.88,1.88,0,0,1,165.61,263.86Zm0-3.79a1.21,1.21,0,0,0-.48.1,1.09,1.09,0,0,0-.38.25,1.47,1.47,0,0,0-.24.4,1.31,1.31,0,0,0-.09.5v.05h2.28v-.09a1.29,1.29,0,0,0-.3-.88A1,1,0,0,0,165.61,260.07Z"/><path class="cls-3" d="M170.33,263.76v-4.13H171v.76h0a1.3,1.3,0,0,1,.4-.52,1.23,1.23,0,0,1,.8-.24h.24v.64h-.37a1.42,1.42,0,0,0-.81.2.58.58,0,0,0-.3.49v2.8Z"/><path class="cls-3" d="M174.78,263.86a1.87,1.87,0,0,1-.76-.15,1.69,1.69,0,0,1-.59-.44,2.12,2.12,0,0,1-.37-.68,2.73,2.73,0,0,1-.13-.89,2.77,2.77,0,0,1,.13-.89,2,2,0,0,1,.37-.68,1.69,1.69,0,0,1,.59-.44,1.87,1.87,0,0,1,.76-.15,1.79,1.79,0,0,1,.75.15,1.65,1.65,0,0,1,.56.42,1.93,1.93,0,0,1,.35.63,2.37,2.37,0,0,1,.13.81v.3h-3V262a1.64,1.64,0,0,0,.08.5,1.28,1.28,0,0,0,.24.39,1.07,1.07,0,0,0,.39.26,1.19,1.19,0,0,0,.51.1,1.17,1.17,0,0,0,1.14-.71l.46.33a1.74,1.74,0,0,1-.63.69A1.92,1.92,0,0,1,174.78,263.86Zm0-3.79a1.29,1.29,0,0,0-.48.1,1.05,1.05,0,0,0-.37.25,1.47,1.47,0,0,0-.24.4,1.31,1.31,0,0,0-.09.5v.05h2.28v-.09a1.29,1.29,0,0,0-.3-.88A1,1,0,0,0,174.78,260.07Z"/><path class="cls-3" d="M178.86,263.86a1.89,1.89,0,0,1-1-.22,2.21,2.21,0,0,1-.67-.59l.46-.37a1.78,1.78,0,0,0,.53.47,1.41,1.41,0,0,0,.69.16,1,1,0,0,0,.64-.17.59.59,0,0,0,.22-.5.61.61,0,0,0-.15-.41,1,1,0,0,0-.57-.23l-.32-.05a2.57,2.57,0,0,1-.53-.13,1.4,1.4,0,0,1-.42-.22,1,1,0,0,1-.28-.35,1.07,1.07,0,0,1-.1-.49,1.3,1.3,0,0,1,.11-.54,1,1,0,0,1,.31-.38,1.58,1.58,0,0,1,.47-.23,2.15,2.15,0,0,1,.58-.07,1.87,1.87,0,0,1,.84.17,2,2,0,0,1,.6.49l-.42.39a1.27,1.27,0,0,0-1.07-.51.88.88,0,0,0-.6.18.56.56,0,0,0-.21.46.48.48,0,0,0,.21.44,1.45,1.45,0,0,0,.59.2l.32.05a1.68,1.68,0,0,1,1,.4,1,1,0,0,1,.29.76,1.16,1.16,0,0,1-.41.94A1.67,1.67,0,0,1,178.86,263.86Z"/><path class="cls-3" d="M184.06,263.1h0a1.33,1.33,0,0,1-.16.28.95.95,0,0,1-.55.42,1.53,1.53,0,0,1-.45.06,1.34,1.34,0,0,1-1-.41,1.69,1.69,0,0,1-.37-1.17v-2.65h.64v2.55c0,.74.31,1.11.94,1.11a1.5,1.5,0,0,0,.37-.05,1,1,0,0,0,.32-.14.78.78,0,0,0,.23-.25.63.63,0,0,0,.08-.35v-2.87h.64v4.13h-.64Z"/><path class="cls-3" d="M186.74,263.76a.66.66,0,0,1-.51-.19.68.68,0,0,1-.17-.47v-5.26h.64v5.35h.61v.57Z"/><path class="cls-3" d="M189.11,263.76a.69.69,0,0,1-.51-.18.74.74,0,0,1-.17-.5V260.2h-.68v-.57h.38a.37.37,0,0,0,.29-.08.42.42,0,0,0,.07-.29v-.77h.58v1.14h.9v.57h-.9v3h.84v.57Z"/><path class="cls-3" d="M192.25,263.86a1.91,1.91,0,0,1-1-.22,2.21,2.21,0,0,1-.67-.59l.46-.37a1.7,1.7,0,0,0,.54.47,1.34,1.34,0,0,0,.68.16,1,1,0,0,0,.64-.17.6.6,0,0,0,.23-.5.57.57,0,0,0-.16-.41,1,1,0,0,0-.56-.23l-.33-.05a2.74,2.74,0,0,1-.53-.13,1.4,1.4,0,0,1-.42-.22,1,1,0,0,1-.28-.35,1.22,1.22,0,0,1-.1-.49,1.3,1.3,0,0,1,.11-.54,1.15,1.15,0,0,1,.31-.38,1.58,1.58,0,0,1,.47-.23,2.2,2.2,0,0,1,.58-.07,2,2,0,0,1,.85.17,2,2,0,0,1,.59.49l-.42.39a1.16,1.16,0,0,0-.4-.35,1.24,1.24,0,0,0-.66-.16.91.91,0,0,0-.61.18.58.58,0,0,0-.2.46.49.49,0,0,0,.2.44,1.5,1.5,0,0,0,.59.2l.32.05a1.72,1.72,0,0,1,1,.4,1,1,0,0,1,.28.76,1.15,1.15,0,0,1-.4.94A1.71,1.71,0,0,1,192.25,263.86Z"/><path class="cls-3" d="M118.61,65v-.59h1.56v-4.5h0l-1.41,1.31-.39-.42,1.48-1.38h1v5h1.44V65Z"/><path class="cls-3" d="M123.76,65.1a.5.5,0,0,1-.37-.13.48.48,0,0,1-.11-.34v-.1a.48.48,0,0,1,.11-.34.5.5,0,0,1,.37-.13.53.53,0,0,1,.38.13.53.53,0,0,1,.11.34v.1a.53.53,0,0,1-.11.34A.53.53,0,0,1,123.76,65.1Z"/><path class="cls-3" d="M129.39,65.1a2,2,0,0,1-1.66-.73,3.32,3.32,0,0,1-.59-2.13,3.45,3.45,0,0,1,.59-2.16,2,2,0,0,1,1.66-.76,2,2,0,0,1,1.18.32,2.07,2.07,0,0,1,.74.9l-.55.32a1.55,1.55,0,0,0-.51-.69,1.42,1.42,0,0,0-.86-.26,1.51,1.51,0,0,0-.65.14,1.29,1.29,0,0,0-.48.39,1.88,1.88,0,0,0-.3.6,2.68,2.68,0,0,0-.1.78v.84a2,2,0,0,0,.4,1.35,1.37,1.37,0,0,0,1.13.49,1.43,1.43,0,0,0,.89-.27,1.63,1.63,0,0,0,.53-.73l.54.33a2,2,0,0,1-2,1.27Z"/><path class="cls-3" d="M132.29,59.08h.64v2.46h0a1.36,1.36,0,0,1,.43-.56,1.2,1.2,0,0,1,.74-.2,1.26,1.26,0,0,1,1,.41,1.65,1.65,0,0,1,.38,1.16V65h-.64V62.46c0-.75-.32-1.12-.94-1.12a1.5,1.5,0,0,0-.37,0,1,1,0,0,0-.33.15.64.64,0,0,0-.22.24.68.68,0,0,0-.09.35V65h-.64Z"/><path class="cls-3" d="M138.36,65.1a1.76,1.76,0,0,1-.76-.16,1.55,1.55,0,0,1-.58-.43,2,2,0,0,1-.38-.68,2.52,2.52,0,0,1-.14-.89,2.48,2.48,0,0,1,.14-.89,1.92,1.92,0,0,1,.38-.69,1.55,1.55,0,0,1,.58-.43,1.91,1.91,0,0,1,.76-.15,1.87,1.87,0,0,1,.76.15,1.66,1.66,0,0,1,.59.43,2.09,2.09,0,0,1,.38.69,2.72,2.72,0,0,1,.14.89,2.77,2.77,0,0,1-.14.89,2.14,2.14,0,0,1-.38.68,1.66,1.66,0,0,1-.59.43A1.73,1.73,0,0,1,138.36,65.1Zm0-.57a1.18,1.18,0,0,0,.85-.32,1.32,1.32,0,0,0,.33-1v-.59a1.32,1.32,0,0,0-.33-1,1.18,1.18,0,0,0-.85-.32,1.15,1.15,0,0,0-.84.32,1.32,1.32,0,0,0-.33,1v.59a1.32,1.32,0,0,0,.33,1A1.15,1.15,0,0,0,138.36,64.53Z"/><path class="cls-3" d="M142.81,65.1a1.73,1.73,0,0,1-.76-.16,1.66,1.66,0,0,1-.59-.43,2.14,2.14,0,0,1-.38-.68,2.77,2.77,0,0,1-.13-.89,2.73,2.73,0,0,1,.13-.89,2.09,2.09,0,0,1,.38-.69,1.66,1.66,0,0,1,.59-.43,2,2,0,0,1,1.52,0,1.76,1.76,0,0,1,.59.43,2.09,2.09,0,0,1,.38.69,2.72,2.72,0,0,1,.14.89,2.77,2.77,0,0,1-.14.89,2.14,2.14,0,0,1-.38.68,1.76,1.76,0,0,1-.59.43A1.73,1.73,0,0,1,142.81,65.1Zm0-.57a1.18,1.18,0,0,0,.85-.32,1.32,1.32,0,0,0,.33-1v-.59a1.32,1.32,0,0,0-.33-1,1.29,1.29,0,0,0-1.7,0,1.36,1.36,0,0,0-.32,1v.59a1.36,1.36,0,0,0,.32,1A1.18,1.18,0,0,0,142.81,64.53Z"/><path class="cls-3" d="M146.94,65.1a2,2,0,0,1-1-.22,2.23,2.23,0,0,1-.67-.59l.45-.37a1.83,1.83,0,0,0,.54.47,1.41,1.41,0,0,0,.69.16,1,1,0,0,0,.63-.17.59.59,0,0,0,.23-.5.59.59,0,0,0-.15-.41,1,1,0,0,0-.57-.24l-.33,0a2.08,2.08,0,0,1-.52-.12,1.67,1.67,0,0,1-.42-.22,1,1,0,0,1-.28-.35,1.32,1.32,0,0,1,0-1,1,1,0,0,1,.31-.38,1.33,1.33,0,0,1,.46-.23,2.22,2.22,0,0,1,.59-.07,1.93,1.93,0,0,1,.84.17,1.88,1.88,0,0,1,.6.49l-.43.38a1.26,1.26,0,0,0-.4-.34,1.2,1.2,0,0,0-.66-.16.91.91,0,0,0-.6.17.58.58,0,0,0-.21.47.49.49,0,0,0,.21.44,1.45,1.45,0,0,0,.58.2l.32,0a1.76,1.76,0,0,1,1,.39,1.06,1.06,0,0,1,.29.77,1.17,1.17,0,0,1-.41.94A1.69,1.69,0,0,1,146.94,65.1Z"/><path class="cls-3" d="M151.12,65.1a1.74,1.74,0,0,1-.77-.16,1.55,1.55,0,0,1-.58-.43,2,2,0,0,1-.38-.68,2.77,2.77,0,0,1-.13-.89,2.73,2.73,0,0,1,.13-.89,1.92,1.92,0,0,1,.38-.69,1.55,1.55,0,0,1,.58-.43,1.89,1.89,0,0,1,.77-.15,1.78,1.78,0,0,1,.74.15,1.56,1.56,0,0,1,.56.42,2,2,0,0,1,.36.63,2.55,2.55,0,0,1,.12.81v.3h-3v.19a1.3,1.3,0,0,0,.09.49,1.09,1.09,0,0,0,.62.66,1.35,1.35,0,0,0,1.2-.09,1.15,1.15,0,0,0,.45-.52l.46.33a1.58,1.58,0,0,1-.63.68A1.82,1.82,0,0,1,151.12,65.1Zm0-3.79a1.21,1.21,0,0,0-.48.09,1.12,1.12,0,0,0-.38.26,1.28,1.28,0,0,0-.24.39,1.39,1.39,0,0,0-.09.5v.06h2.28v-.09a1.25,1.25,0,0,0-.3-.88A1,1,0,0,0,151.12,61.31Z"/><path class="cls-3" d="M158.32,60.87H159L157.11,66a2.26,2.26,0,0,1-.15.31.45.45,0,0,1-.17.19.68.68,0,0,1-.26.11,2.09,2.09,0,0,1-.38,0h-.33V66h.65l.31-.88-1.55-4.28h.65l1,2.8.19.67h0l.22-.67Z"/><path class="cls-3" d="M161.3,65.1a1.73,1.73,0,0,1-.76-.16,1.58,1.58,0,0,1-.59-.43,2.14,2.14,0,0,1-.38-.68,2.77,2.77,0,0,1-.13-.89,2.73,2.73,0,0,1,.13-.89,2.09,2.09,0,0,1,.38-.69,1.58,1.58,0,0,1,.59-.43,2,2,0,0,1,1.52,0,1.63,1.63,0,0,1,.58.43,1.94,1.94,0,0,1,.39.69,2.73,2.73,0,0,1,.13.89,2.77,2.77,0,0,1-.13.89,2,2,0,0,1-.39.68,1.63,1.63,0,0,1-.58.43A1.73,1.73,0,0,1,161.3,65.1Zm0-.57a1.18,1.18,0,0,0,.85-.32,1.32,1.32,0,0,0,.33-1v-.59a1.32,1.32,0,0,0-.33-1,1.29,1.29,0,0,0-1.7,0,1.32,1.32,0,0,0-.33,1v.59a1.32,1.32,0,0,0,.33,1A1.18,1.18,0,0,0,161.3,64.53Z"/><path class="cls-3" d="M166.73,64.34h0a2.79,2.79,0,0,1-.16.28.87.87,0,0,1-.23.24A1,1,0,0,1,166,65a1.25,1.25,0,0,1-.45.07,1.3,1.3,0,0,1-1-.42,1.65,1.65,0,0,1-.37-1.16V60.87h.64v2.54c0,.75.31,1.12.94,1.12a1.5,1.5,0,0,0,.37,0,1,1,0,0,0,.32-.14.78.78,0,0,0,.23-.25.8.8,0,0,0,.08-.36V60.87h.64V65h-.64Z"/><path class="cls-3" d="M168.7,65V60.87h.64v.76h0a1.18,1.18,0,0,1,1.19-.76h.25v.64h-.38a1.47,1.47,0,0,0-.81.2.58.58,0,0,0-.29.49V65Z"/><path class="cls-3" d="M173.46,65V60.87h.64v.76h0a1.18,1.18,0,0,1,1.19-.76h.25v.64h-.38a1.42,1.42,0,0,0-.81.2.56.56,0,0,0-.29.49V65Z"/><path class="cls-3" d="M177.92,65.1a1.73,1.73,0,0,1-.76-.16,1.66,1.66,0,0,1-.59-.43,2.14,2.14,0,0,1-.38-.68,2.77,2.77,0,0,1-.13-.89,2.73,2.73,0,0,1,.13-.89,2.09,2.09,0,0,1,.38-.69,1.66,1.66,0,0,1,.59-.43,2,2,0,0,1,1.52,0,1.76,1.76,0,0,1,.59.43,2.09,2.09,0,0,1,.38.69,2.72,2.72,0,0,1,.14.89,2.77,2.77,0,0,1-.14.89,2.14,2.14,0,0,1-.38.68,1.76,1.76,0,0,1-.59.43A1.73,1.73,0,0,1,177.92,65.1Zm0-.57a1.18,1.18,0,0,0,.85-.32,1.32,1.32,0,0,0,.33-1v-.59a1.32,1.32,0,0,0-.33-1,1.18,1.18,0,0,0-.85-.32,1.2,1.2,0,0,0-.85.32,1.32,1.32,0,0,0-.32,1v.59a1.32,1.32,0,0,0,.32,1A1.2,1.2,0,0,0,177.92,64.53Z"/><path class="cls-3" d="M181.49,65a.66.66,0,0,1-.51-.19.68.68,0,0,1-.17-.47V59.08h.64v5.35h.61V65Z"/><path class="cls-3" d="M184.51,65.1a1.74,1.74,0,0,1-.77-.16,1.63,1.63,0,0,1-.58-.43,2.14,2.14,0,0,1-.38-.68,2.77,2.77,0,0,1-.13-.89,2.73,2.73,0,0,1,.13-.89,2.09,2.09,0,0,1,.38-.69,1.63,1.63,0,0,1,.58-.43,1.89,1.89,0,0,1,.77-.15,1.78,1.78,0,0,1,.74.15,1.65,1.65,0,0,1,.56.42,2,2,0,0,1,.36.63,2.55,2.55,0,0,1,.12.81v.3h-3v.19a1.3,1.3,0,0,0,.09.49,1.09,1.09,0,0,0,.62.66,1.21,1.21,0,0,0,.52.1,1.18,1.18,0,0,0,.68-.19,1.21,1.21,0,0,0,.45-.52l.46.33a1.58,1.58,0,0,1-.63.68A1.82,1.82,0,0,1,184.51,65.1Zm0-3.79a1.21,1.21,0,0,0-.48.09,1.12,1.12,0,0,0-.38.26,1.28,1.28,0,0,0-.24.39,1.39,1.39,0,0,0-.09.5v.06h2.28v-.09a1.25,1.25,0,0,0-.3-.88A1,1,0,0,0,184.51,61.31Z"/><path class="cls-3" d="M119.68,77.8H116v-.69l1.83-1.68a3.81,3.81,0,0,0,.65-.76,1.48,1.48,0,0,0,.27-.82v-.09a1.09,1.09,0,0,0-.26-.76,1,1,0,0,0-.78-.29,1.4,1.4,0,0,0-.44.07,1.27,1.27,0,0,0-.34.2,1.33,1.33,0,0,0-.23.3,2.15,2.15,0,0,0-.15.38l-.6-.24a3.41,3.41,0,0,1,.22-.48,1.61,1.61,0,0,1,.36-.42,1.58,1.58,0,0,1,.51-.29,2.12,2.12,0,0,1,.71-.11,2,2,0,0,1,.72.12,1.35,1.35,0,0,1,.54.34,1.5,1.5,0,0,1,.33.51,1.67,1.67,0,0,1,.12.65,2,2,0,0,1-.09.61,2.61,2.61,0,0,1-.26.53,2.81,2.81,0,0,1-.38.49c-.16.16-.32.32-.5.48l-1.5,1.36h2.94Z"/><path class="cls-3" d="M121.27,77.9a.44.44,0,0,1-.49-.47v-.1a.44.44,0,0,1,.49-.47.5.5,0,0,1,.37.13.49.49,0,0,1,.12.34v.1a.49.49,0,0,1-.12.34A.5.5,0,0,1,121.27,77.9Z"/><path class="cls-3" d="M126.49,77.9a2.45,2.45,0,0,1-1.16-.26,2.54,2.54,0,0,1-.81-.72l.49-.42a2.17,2.17,0,0,0,.66.6,1.65,1.65,0,0,0,.85.2,1.31,1.31,0,0,0,.91-.28,1,1,0,0,0,.32-.77.8.8,0,0,0-.24-.62,1.83,1.83,0,0,0-.79-.34l-.46-.11a2.55,2.55,0,0,1-1.17-.53,1.25,1.25,0,0,1-.41-1,1.53,1.53,0,0,1,.14-.66,1.37,1.37,0,0,1,.38-.48,1.75,1.75,0,0,1,.58-.29,2.57,2.57,0,0,1,.75-.1,2.47,2.47,0,0,1,1.09.23,2.14,2.14,0,0,1,.76.68l-.5.37a1.89,1.89,0,0,0-.56-.5,1.61,1.61,0,0,0-.82-.19,1.38,1.38,0,0,0-.84.23.78.78,0,0,0-.31.68.72.72,0,0,0,.26.61,2,2,0,0,0,.79.32l.45.11a2.24,2.24,0,0,1,1.19.56,1.34,1.34,0,0,1,.37,1,1.73,1.73,0,0,1-.13.69,1.47,1.47,0,0,1-.38.53,2,2,0,0,1-.6.34A2.55,2.55,0,0,1,126.49,77.9Z"/><path class="cls-3" d="M131,77.9a1.89,1.89,0,0,1-.77-.16,1.47,1.47,0,0,1-.58-.43,1.77,1.77,0,0,1-.36-.68,2.73,2.73,0,0,1-.13-.89,2.84,2.84,0,0,1,.13-.9,1.84,1.84,0,0,1,.36-.68,1.47,1.47,0,0,1,.58-.43,1.89,1.89,0,0,1,.77-.15,1.53,1.53,0,0,1,1.55,1l-.54.28a1,1,0,0,0-.37-.5,1.08,1.08,0,0,0-.64-.18,1.12,1.12,0,0,0-.5.1.86.86,0,0,0-.36.25,1.07,1.07,0,0,0-.22.39,1.63,1.63,0,0,0-.07.5v.71a1.36,1.36,0,0,0,.29.89,1.07,1.07,0,0,0,.86.35,1.16,1.16,0,0,0,1.12-.72l.47.31a1.67,1.67,0,0,1-.6.71A1.7,1.7,0,0,1,131,77.9Z"/><path class="cls-3" d="M136.47,77.8a.64.64,0,0,1-.52-.19.94.94,0,0,1-.19-.48h0a1.08,1.08,0,0,1-.45.57,1.4,1.4,0,0,1-.75.2,1.49,1.49,0,0,1-1-.34,1.18,1.18,0,0,1-.36-.91,1,1,0,0,1,.43-.9,2.25,2.25,0,0,1,1.33-.31h.82V75a.89.89,0,0,0-.24-.67,1.28,1.28,0,0,0-1.37-.06,1.36,1.36,0,0,0-.42.44l-.38-.36a1.51,1.51,0,0,1,.53-.57,1.69,1.69,0,0,1,.93-.23,1.74,1.74,0,0,1,1.17.36,1.3,1.3,0,0,1,.42,1v2.27h.47v.57Zm-1.84-.45a2,2,0,0,0,.44,0,1.07,1.07,0,0,0,.34-.16.87.87,0,0,0,.23-.24.61.61,0,0,0,.08-.3v-.68h-.85a1.54,1.54,0,0,0-.81.16.53.53,0,0,0-.25.46v.17a.54.54,0,0,0,.22.47A.93.93,0,0,0,134.63,77.35Z"/><path class="cls-3" d="M137.71,77.8V73.67h.64v.67h0a1.28,1.28,0,0,1,.43-.56,1.18,1.18,0,0,1,.74-.2,1.28,1.28,0,0,1,1,.41,1.65,1.65,0,0,1,.37,1.16V77.8h-.64V75.26c0-.74-.31-1.12-.93-1.12a1.58,1.58,0,0,0-.38,0,.94.94,0,0,0-.32.15.66.66,0,0,0-.23.24.78.78,0,0,0-.08.35V77.8Z"/><path class="cls-3" d="M145,77.8a.63.63,0,0,1-.51-.19.71.71,0,0,1-.17-.49V74.24h-.68v-.57H144a.42.42,0,0,0,.29-.08.46.46,0,0,0,.07-.29v-.77H145v1.14h.9v.57H145v3h.84v.57Z"/><path class="cls-3" d="M146.85,71.88h.64v2.46h0a1.36,1.36,0,0,1,.43-.56,1.2,1.2,0,0,1,.74-.2,1.26,1.26,0,0,1,1,.41,1.65,1.65,0,0,1,.38,1.16V77.8h-.64V75.26c0-.74-.32-1.12-.94-1.12a1.5,1.5,0,0,0-.37,0,1,1,0,0,0-.33.15.64.64,0,0,0-.22.24.68.68,0,0,0-.09.35V77.8h-.64Z"/><path class="cls-3" d="M152.92,77.9a1.89,1.89,0,0,1-.77-.16,1.63,1.63,0,0,1-.58-.43,2.14,2.14,0,0,1-.38-.68,2.77,2.77,0,0,1-.13-.89,2.73,2.73,0,0,1,.13-.89,2.09,2.09,0,0,1,.38-.69,1.63,1.63,0,0,1,.58-.43,1.89,1.89,0,0,1,.77-.15,1.78,1.78,0,0,1,.74.15,1.65,1.65,0,0,1,.56.42,2,2,0,0,1,.36.63,2.55,2.55,0,0,1,.12.81v.3h-3v.19a1.3,1.3,0,0,0,.09.49,1.09,1.09,0,0,0,.62.66,1.21,1.21,0,0,0,.52.1,1.18,1.18,0,0,0,.68-.19,1.27,1.27,0,0,0,.45-.52l.46.33a1.58,1.58,0,0,1-.63.68A1.8,1.8,0,0,1,152.92,77.9Zm0-3.79a1.21,1.21,0,0,0-.48.09,1.12,1.12,0,0,0-.38.26,1.22,1.22,0,0,0-.24.4,1.3,1.3,0,0,0-.09.49v.06H154v-.09a1.25,1.25,0,0,0-.3-.88A1,1,0,0,0,152.92,74.11Z"/><path class="cls-3" d="M161,79.11h-.82a.62.62,0,0,1-.67-.65v-.57a2.26,2.26,0,0,1-.87-.26,1.94,1.94,0,0,1-.67-.57,2.77,2.77,0,0,1-.42-.88,4.15,4.15,0,0,1-.15-1.17,4.22,4.22,0,0,1,.17-1.24,2.55,2.55,0,0,1,.48-.91,1.92,1.92,0,0,1,.74-.55,2.38,2.38,0,0,1,1-.19,2.41,2.41,0,0,1,1,.19,2,2,0,0,1,.75.55,2.7,2.7,0,0,1,.47.91A4.22,4.22,0,0,1,162.1,75a3.29,3.29,0,0,1-.54,2,2.07,2.07,0,0,1-1.45.85v.68H161Zm-1.23-1.81a1.86,1.86,0,0,0,.67-.13,1.56,1.56,0,0,0,.86-1,2.19,2.19,0,0,0,.12-.75v-.93a2.19,2.19,0,0,0-.12-.75,1.56,1.56,0,0,0-.86-1,1.86,1.86,0,0,0-.67-.13,1.76,1.76,0,0,0-.66.13,1.54,1.54,0,0,0-.53.37,1.74,1.74,0,0,0-.34.58,2.19,2.19,0,0,0-.12.75v.93a2.19,2.19,0,0,0,.12.75,1.74,1.74,0,0,0,.34.58,1.54,1.54,0,0,0,.53.37A1.76,1.76,0,0,0,159.73,77.3Z"/><path class="cls-3" d="M164,77.8h-.67V72.22h2.22a1.58,1.58,0,0,1,1.15.4,1.63,1.63,0,0,1,.41,1.18,1.68,1.68,0,0,1-.28,1,1.37,1.37,0,0,1-.84.53l1.28,2.46h-.76l-1.21-2.4H164Zm1.55-3a.86.86,0,0,0,.62-.2.78.78,0,0,0,.22-.6v-.41a.74.74,0,0,0-.22-.59.86.86,0,0,0-.62-.21H164v2Z"/><path class="cls-3" d="M168.17,75.71V75h2.09v.69Z"/><path class="cls-3" d="M173.49,77.9a2,2,0,0,1-1.65-.73,3.26,3.26,0,0,1-.6-2.13,3.39,3.39,0,0,1,.6-2.16,2,2,0,0,1,1.65-.76,2.1,2.1,0,0,1,1.18.32,2,2,0,0,1,.74.9l-.54.32a1.6,1.6,0,0,0-.51-.69,1.43,1.43,0,0,0-.87-.26,1.47,1.47,0,0,0-.64.14,1.29,1.29,0,0,0-.48.39,1.88,1.88,0,0,0-.3.6,2.67,2.67,0,0,0-.11.78v.84a2.09,2.09,0,0,0,.4,1.35,1.38,1.38,0,0,0,1.13.49,1.46,1.46,0,0,0,.9-.27,1.71,1.71,0,0,0,.53-.73l.53.33a2.07,2.07,0,0,1-.76.93A2.12,2.12,0,0,1,173.49,77.9Z"/><path class="cls-3" d="M178,77.9a1.88,1.88,0,0,1-.76-.16,1.58,1.58,0,0,1-.59-.43,2.14,2.14,0,0,1-.38-.68,2.77,2.77,0,0,1-.14-.89,2.72,2.72,0,0,1,.14-.89,2.09,2.09,0,0,1,.38-.69,1.58,1.58,0,0,1,.59-.43,1.87,1.87,0,0,1,.76-.15,1.83,1.83,0,0,1,.75.15,1.58,1.58,0,0,1,.59.43,1.92,1.92,0,0,1,.38.69,2.72,2.72,0,0,1,.14.89,2.77,2.77,0,0,1-.14.89,2,2,0,0,1-.38.68,1.58,1.58,0,0,1-.59.43A1.83,1.83,0,0,1,178,77.9Zm0-.57a1.15,1.15,0,0,0,.84-.32,1.3,1.3,0,0,0,.33-1v-.59a1.32,1.32,0,0,0-.33-1,1.15,1.15,0,0,0-.84-.32,1.18,1.18,0,0,0-.85.32,1.32,1.32,0,0,0-.33,1V76a1.3,1.3,0,0,0,.33,1A1.18,1.18,0,0,0,178,77.33Z"/><path class="cls-3" d="M183.48,77.14h0a1.27,1.27,0,0,1-1.21.76,1.59,1.59,0,0,1-.69-.16,1.38,1.38,0,0,1-.53-.43,1.89,1.89,0,0,1-.34-.68,3,3,0,0,1-.12-.89,3.16,3.16,0,0,1,.12-.9,2,2,0,0,1,.34-.68,1.38,1.38,0,0,1,.53-.43,1.58,1.58,0,0,1,.69-.15,1.42,1.42,0,0,1,.74.18,1.14,1.14,0,0,1,.47.58h0V71.88h.64V77.8h-.64Zm-1.06.19a1.4,1.4,0,0,0,.41-.06,1.07,1.07,0,0,0,.34-.16.85.85,0,0,0,.23-.27.68.68,0,0,0,.08-.36V74.94a.61.61,0,0,0-.08-.32.78.78,0,0,0-.23-.25,1.08,1.08,0,0,0-.34-.17,1.4,1.4,0,0,0-.41-.06,1.11,1.11,0,0,0-.86.35,1.28,1.28,0,0,0-.31.89v.71a1.33,1.33,0,0,0,.31.9A1.14,1.14,0,0,0,182.42,77.33Z"/><path class="cls-3" d="M187,77.9a1.88,1.88,0,0,1-.76-.16,1.66,1.66,0,0,1-.59-.43,2.12,2.12,0,0,1-.37-.68,2.77,2.77,0,0,1-.13-.89,2.73,2.73,0,0,1,.13-.89,2.07,2.07,0,0,1,.37-.69,1.66,1.66,0,0,1,.59-.43,1.87,1.87,0,0,1,.76-.15,1.79,1.79,0,0,1,.75.15,1.65,1.65,0,0,1,.56.42,1.84,1.84,0,0,1,.35.63,2.3,2.3,0,0,1,.13.81v.3h-3v.19a1.53,1.53,0,0,0,.08.49,1.33,1.33,0,0,0,.24.4,1.07,1.07,0,0,0,.39.26,1.19,1.19,0,0,0,.51.1,1.23,1.23,0,0,0,.69-.19,1.27,1.27,0,0,0,.45-.52l.46.33a1.65,1.65,0,0,1-.63.68A1.84,1.84,0,0,1,187,77.9Zm0-3.79a1.28,1.28,0,0,0-.48.09,1.18,1.18,0,0,0-.37.26,1.22,1.22,0,0,0-.24.4,1.3,1.3,0,0,0-.09.49v.06h2.28v-.09a1.25,1.25,0,0,0-.3-.88A1,1,0,0,0,187,74.11Z"/><path class="cls-3" d="M110.26,87.37a1.23,1.23,0,0,0,.85-.26.87.87,0,0,0,.29-.67v0a.82.82,0,0,0-.28-.66,1.16,1.16,0,0,0-.72-.22,1.19,1.19,0,0,0-.71.19,1.49,1.49,0,0,0-.45.51l-.49-.39a2.39,2.39,0,0,1,.25-.33,1.69,1.69,0,0,1,.35-.29,1.94,1.94,0,0,1,.46-.2,2.23,2.23,0,0,1,.6-.08,2.41,2.41,0,0,1,.67.09,1.71,1.71,0,0,1,.54.27,1.39,1.39,0,0,1,.36.44,1.47,1.47,0,0,1,.13.6,1.3,1.3,0,0,1-.09.49,1.14,1.14,0,0,1-.22.37,1.27,1.27,0,0,1-.34.27,1.54,1.54,0,0,1-.42.17v0a1.72,1.72,0,0,1,.43.16,1.29,1.29,0,0,1,.38.28,1.11,1.11,0,0,1,.26.42,1.38,1.38,0,0,1,.1.55,1.6,1.6,0,0,1-.13.67,1.39,1.39,0,0,1-.39.51,1.74,1.74,0,0,1-.6.34,2.35,2.35,0,0,1-.77.12,2.43,2.43,0,0,1-.64-.08,2.09,2.09,0,0,1-.5-.22,2.28,2.28,0,0,1-.38-.3,2.34,2.34,0,0,1-.29-.35l.5-.38a2.37,2.37,0,0,0,.23.3,1.23,1.23,0,0,0,.28.23,1,1,0,0,0,.34.15,1.55,1.55,0,0,0,.45,0,1.3,1.3,0,0,0,.89-.27,1,1,0,0,0,.31-.77V89a1,1,0,0,0-.31-.77,1.3,1.3,0,0,0-.89-.27h-.66v-.59Z"/><path class="cls-3" d="M114,90.7a.44.44,0,0,1-.49-.47v-.1a.44.44,0,0,1,.49-.47.5.5,0,0,1,.37.13.49.49,0,0,1,.12.34v.1a.49.49,0,0,1-.12.34A.5.5,0,0,1,114,90.7Z"/><path class="cls-3" d="M118.36,90.6h-.68V85h2.23a1.58,1.58,0,0,1,1.15.4,1.63,1.63,0,0,1,.41,1.18,1.68,1.68,0,0,1-.29,1,1.34,1.34,0,0,1-.83.53l1.28,2.46h-.76l-1.21-2.4h-1.3Zm1.55-3a.92.92,0,0,0,.62-.2.82.82,0,0,0,.22-.6v-.41a.78.78,0,0,0-.22-.59.88.88,0,0,0-.62-.21h-1.55v2Z"/><path class="cls-3" d="M124.26,90.7a1.84,1.84,0,0,1-.76-.16,1.58,1.58,0,0,1-.59-.43,1.94,1.94,0,0,1-.37-.68,2.77,2.77,0,0,1-.14-.89,2.72,2.72,0,0,1,.14-.89,1.91,1.91,0,0,1,.37-.69,1.58,1.58,0,0,1,.59-.43,1.84,1.84,0,0,1,.76-.15,1.72,1.72,0,0,1,.74.15,1.56,1.56,0,0,1,.56.42,1.7,1.7,0,0,1,.36.63,2.53,2.53,0,0,1,.12.8v.31h-3v.19a1.29,1.29,0,0,0,.08.49,1.33,1.33,0,0,0,.24.4,1,1,0,0,0,.38.26,1.27,1.27,0,0,0,.52.1,1.18,1.18,0,0,0,.68-.19,1.23,1.23,0,0,0,.46-.52l.45.33a1.56,1.56,0,0,1-.62.68A1.86,1.86,0,0,1,124.26,90.7Zm0-3.79a1.21,1.21,0,0,0-.48.09,1.16,1.16,0,0,0-.62.66,1.29,1.29,0,0,0-.08.49v.06h2.28v-.09a1.25,1.25,0,0,0-.3-.88A1,1,0,0,0,124.26,86.91Z"/><path class="cls-3" d="M128.31,90.7a2,2,0,0,1-1-.22,2.19,2.19,0,0,1-.66-.59l.45-.37a1.83,1.83,0,0,0,.54.47,1.35,1.35,0,0,0,.69.16A1,1,0,0,0,129,90a.61.61,0,0,0,.23-.5.56.56,0,0,0-.16-.41.89.89,0,0,0-.56-.24l-.33,0a2.16,2.16,0,0,1-.53-.12,1.67,1.67,0,0,1-.42-.22,1.06,1.06,0,0,1-.28-.35,1.27,1.27,0,0,1-.1-.5,1.12,1.12,0,0,1,.12-.53,1,1,0,0,1,.3-.38,1.38,1.38,0,0,1,.47-.23,2.22,2.22,0,0,1,.59-.07,1.8,1.8,0,0,1,.84.17,2,2,0,0,1,.6.49l-.43.38a1.26,1.26,0,0,0-.4-.34,1.22,1.22,0,0,0-.66-.16,1,1,0,0,0-.61.17.6.6,0,0,0-.2.47.5.5,0,0,0,.2.44,1.56,1.56,0,0,0,.59.2l.32,0a1.76,1.76,0,0,1,1,.39,1.06,1.06,0,0,1,.29.77,1.17,1.17,0,0,1-.41.94A1.69,1.69,0,0,1,128.31,90.7Z"/><path class="cls-3" d="M130.93,86.47h.64v.67h0a1.25,1.25,0,0,1,.47-.58,1.45,1.45,0,0,1,.74-.18,1.6,1.6,0,0,1,.7.15A1.46,1.46,0,0,1,134,87a2,2,0,0,1,.34.68,3.58,3.58,0,0,1,.11.9,3.44,3.44,0,0,1-.11.89,2,2,0,0,1-.34.68,1.46,1.46,0,0,1-.53.43,1.6,1.6,0,0,1-.7.16,1.27,1.27,0,0,1-1.21-.76h0V92.2h-.64Zm1.71,3.66a1.12,1.12,0,0,0,.85-.34,1.28,1.28,0,0,0,.31-.9v-.71a1.24,1.24,0,0,0-.31-.89,1.09,1.09,0,0,0-.85-.35,1.42,1.42,0,0,0-.42.06,1.2,1.2,0,0,0-.34.17.75.75,0,0,0-.22.25.62.62,0,0,0-.09.32v1.54a.69.69,0,0,0,.09.36.82.82,0,0,0,.22.27,1.19,1.19,0,0,0,.34.16A1.42,1.42,0,0,0,132.64,90.13Z"/><path class="cls-3" d="M137.1,90.7a1.88,1.88,0,0,1-.76-.16,1.58,1.58,0,0,1-.59-.43,2.14,2.14,0,0,1-.38-.68,2.77,2.77,0,0,1-.13-.89,2.73,2.73,0,0,1,.13-.89,2.09,2.09,0,0,1,.38-.69,1.58,1.58,0,0,1,.59-.43,2,2,0,0,1,1.52,0,1.63,1.63,0,0,1,.58.43,1.94,1.94,0,0,1,.39.69,2.73,2.73,0,0,1,.13.89,2.77,2.77,0,0,1-.13.89,2,2,0,0,1-.39.68,1.63,1.63,0,0,1-.58.43A1.88,1.88,0,0,1,137.1,90.7Zm0-.57a1.18,1.18,0,0,0,.85-.32,1.32,1.32,0,0,0,.33-1v-.59a1.32,1.32,0,0,0-.33-1,1.29,1.29,0,0,0-1.7,0,1.32,1.32,0,0,0-.33,1v.59a1.32,1.32,0,0,0,.33,1A1.18,1.18,0,0,0,137.1,90.13Z"/><path class="cls-3" d="M140,90.6V86.47h.64v.67h0a1.28,1.28,0,0,1,.43-.56,1.18,1.18,0,0,1,.74-.2,1.28,1.28,0,0,1,1,.41,1.65,1.65,0,0,1,.37,1.16V90.6h-.64V88.06c0-.74-.31-1.12-.93-1.12a1.58,1.58,0,0,0-.38,0,.94.94,0,0,0-.32.15.66.66,0,0,0-.23.24.78.78,0,0,0-.08.35V90.6Z"/><path class="cls-3" d="M147.14,89.94h0a1.28,1.28,0,0,1-1.21.76,1.6,1.6,0,0,1-.7-.16,1.55,1.55,0,0,1-.53-.43,1.8,1.8,0,0,1-.33-.68,3,3,0,0,1-.12-.89,3.16,3.16,0,0,1,.12-.9,1.8,1.8,0,0,1,.33-.68,1.55,1.55,0,0,1,.53-.43,1.6,1.6,0,0,1,.7-.15,1.45,1.45,0,0,1,.74.18,1.25,1.25,0,0,1,.47.58h0V84.68h.64V90.6h-.64Zm-1.06.19a1.4,1.4,0,0,0,.41-.06,1.19,1.19,0,0,0,.34-.16,1,1,0,0,0,.23-.27.8.8,0,0,0,.08-.36V87.74a.72.72,0,0,0-.08-.32.92.92,0,0,0-.23-.25,1.2,1.2,0,0,0-.34-.17,1.4,1.4,0,0,0-.41-.06,1.1,1.1,0,0,0-.86.35,1.24,1.24,0,0,0-.31.89v.71a1.28,1.28,0,0,0,.31.9A1.13,1.13,0,0,0,146.08,90.13Z"/><path class="cls-3" d="M151.87,90.6a.62.62,0,0,1-.5-.19.67.67,0,0,1-.17-.49V87h-.68v-.57h.38a.39.39,0,0,0,.28-.08.46.46,0,0,0,.08-.29v-.77h.57v1.14h.91V87h-.91v3h.85v.57Z"/><path class="cls-3" d="M155.3,90.7a1.88,1.88,0,0,1-.76-.16,1.58,1.58,0,0,1-.59-.43,2.14,2.14,0,0,1-.38-.68,2.77,2.77,0,0,1-.13-.89,2.73,2.73,0,0,1,.13-.89A2.09,2.09,0,0,1,154,87a1.58,1.58,0,0,1,.59-.43,2,2,0,0,1,1.52,0,1.63,1.63,0,0,1,.58.43,1.94,1.94,0,0,1,.39.69,2.73,2.73,0,0,1,.13.89,2.77,2.77,0,0,1-.13.89,2,2,0,0,1-.39.68,1.63,1.63,0,0,1-.58.43A1.88,1.88,0,0,1,155.3,90.7Zm0-.57a1.18,1.18,0,0,0,.85-.32,1.32,1.32,0,0,0,.33-1v-.59a1.32,1.32,0,0,0-.33-1,1.29,1.29,0,0,0-1.7,0,1.32,1.32,0,0,0-.33,1v.59a1.32,1.32,0,0,0,.33,1A1.18,1.18,0,0,0,155.3,90.13Z"/><path class="cls-3" d="M161,90.6a.62.62,0,0,1-.5-.19.67.67,0,0,1-.18-.49V87h-.68v-.57H160a.39.39,0,0,0,.28-.08.46.46,0,0,0,.08-.29v-.77h.57v1.14h.91V87h-.91v3h.84v.57Z"/><path class="cls-3" d="M162.82,84.68h.64v2.46h0a1.28,1.28,0,0,1,.43-.56,1.18,1.18,0,0,1,.74-.2,1.28,1.28,0,0,1,1,.41A1.65,1.65,0,0,1,166,88V90.6h-.64V88.06c0-.74-.31-1.12-.93-1.12a1.58,1.58,0,0,0-.38,0,.86.86,0,0,0-.32.15.66.66,0,0,0-.23.24.67.67,0,0,0-.08.35V90.6h-.64Z"/><path class="cls-3" d="M168.88,90.7a1.84,1.84,0,0,1-.76-.16,1.66,1.66,0,0,1-.59-.43,2.12,2.12,0,0,1-.37-.68,2.77,2.77,0,0,1-.13-.89,2.73,2.73,0,0,1,.13-.89,2.07,2.07,0,0,1,.37-.69,1.66,1.66,0,0,1,.59-.43,1.84,1.84,0,0,1,.76-.15,1.79,1.79,0,0,1,.75.15,1.76,1.76,0,0,1,.56.42,1.84,1.84,0,0,1,.35.63,2.53,2.53,0,0,1,.13.8v.31h-3v.19a1.53,1.53,0,0,0,.08.49,1.33,1.33,0,0,0,.24.4,1.07,1.07,0,0,0,.39.26,1.19,1.19,0,0,0,.51.1,1.23,1.23,0,0,0,.69-.19,1.27,1.27,0,0,0,.45-.52l.45.33a1.56,1.56,0,0,1-.62.68A1.84,1.84,0,0,1,168.88,90.7Zm0-3.79a1.28,1.28,0,0,0-.48.09,1.11,1.11,0,0,0-.61.66,1.3,1.3,0,0,0-.09.49v.06H170v-.09a1.25,1.25,0,0,0-.3-.88A1,1,0,0,0,168.88,86.91Z"/><path class="cls-3" d="M174.78,90.7a2,2,0,0,1-1-.22,2.36,2.36,0,0,1-.67-.59l.46-.37a1.93,1.93,0,0,0,.53.47,1.41,1.41,0,0,0,.69.16,1.08,1.08,0,0,0,.64-.17.61.61,0,0,0,.23-.5.6.6,0,0,0-.16-.41.89.89,0,0,0-.56-.24l-.33,0a2.16,2.16,0,0,1-.53-.12,1.67,1.67,0,0,1-.42-.22,1.06,1.06,0,0,1-.28-.35,1.12,1.12,0,0,1-.1-.5,1.25,1.25,0,0,1,.11-.53,1.15,1.15,0,0,1,.31-.38,1.38,1.38,0,0,1,.47-.23,2.15,2.15,0,0,1,.58-.07,1.82,1.82,0,0,1,.85.17,2,2,0,0,1,.59.49l-.42.38a1.38,1.38,0,0,0-.4-.34,1.26,1.26,0,0,0-.67-.16,1,1,0,0,0-.6.17.57.57,0,0,0-.2.47.48.48,0,0,0,.2.44,1.5,1.5,0,0,0,.59.2l.32,0a1.72,1.72,0,0,1,1,.39,1,1,0,0,1,.29.77,1.14,1.14,0,0,1-.41.94A1.67,1.67,0,0,1,174.78,90.7Z"/><path class="cls-3" d="M180,89.94h0a1.64,1.64,0,0,1-.16.28,1,1,0,0,1-.22.24,1.14,1.14,0,0,1-.33.17,1.52,1.52,0,0,1-.45.07,1.3,1.3,0,0,1-1-.42,1.65,1.65,0,0,1-.37-1.16V86.47H178V89c0,.75.31,1.12.94,1.12a1.5,1.5,0,0,0,.37,0,1,1,0,0,0,.32-.14.78.78,0,0,0,.23-.25.8.8,0,0,0,.08-.36V86.47h.64V90.6H180Z"/><path class="cls-3" d="M181.92,90.6V86.47h.64v.76h0a1.33,1.33,0,0,1,.4-.53,1.26,1.26,0,0,1,.79-.23H184v.64h-.38a1.47,1.47,0,0,0-.81.2.58.58,0,0,0-.29.49v2.8Z"/><path class="cls-3" d="M185.74,90.6l-1.45-4.13h.64l.72,2,.45,1.41h0l.44-1.41.74-2h.62l-1.46,4.13Z"/><path class="cls-3" d="M190.28,90.7a1.84,1.84,0,0,1-.76-.16,1.58,1.58,0,0,1-.59-.43,1.94,1.94,0,0,1-.37-.68,2.77,2.77,0,0,1-.14-.89,2.72,2.72,0,0,1,.14-.89,1.91,1.91,0,0,1,.37-.69,1.58,1.58,0,0,1,.59-.43,1.84,1.84,0,0,1,.76-.15,1.75,1.75,0,0,1,.74.15,1.56,1.56,0,0,1,.56.42,1.7,1.7,0,0,1,.36.63,2.53,2.53,0,0,1,.12.8v.31h-3v.19a1.29,1.29,0,0,0,.08.49,1.15,1.15,0,0,0,.24.4,1,1,0,0,0,.38.26,1.27,1.27,0,0,0,.52.1,1.18,1.18,0,0,0,.68-.19,1.23,1.23,0,0,0,.46-.52l.45.33a1.56,1.56,0,0,1-.62.68A1.86,1.86,0,0,1,190.28,90.7Zm0-3.79a1.21,1.21,0,0,0-.48.09,1.16,1.16,0,0,0-.62.66,1.29,1.29,0,0,0-.08.49v.06h2.28v-.09a1.3,1.3,0,0,0-.3-.88A1,1,0,0,0,190.28,86.91Z"/><path class="cls-3" d="M195.63,86.47h.63l-1.85,5.09a1.51,1.51,0,0,1-.14.31.64.64,0,0,1-.17.19.73.73,0,0,1-.27.11,2,2,0,0,1-.38,0h-.32v-.57h.64l.32-.88-1.55-4.28h.64l1,2.8.2.68h0l.22-.68Z"/><path class="cls-3" d="M99.57,103.4v-1.1h-2.7v-.59l2.34-3.89h1v3.92H101v.56h-.81v1.1Zm-2.07-1.66h2.07v-3.4h0Z"/><path class="cls-3" d="M102.42,103.5a.5.5,0,0,1-.37-.13.48.48,0,0,1-.11-.34v-.1a.48.48,0,0,1,.11-.34.5.5,0,0,1,.37-.13.53.53,0,0,1,.38.13.53.53,0,0,1,.11.34v.1a.53.53,0,0,1-.11.34A.53.53,0,0,1,102.42,103.5Z"/><path class="cls-3" d="M109.58,100.87h-2.83v2.53h-.67V97.82h.67v2.46h2.83V97.82h.67v5.58h-.67Z"/><path class="cls-3" d="M114.64,103.4a.64.64,0,0,1-.52-.19.94.94,0,0,1-.19-.48h0a1,1,0,0,1-.45.57,1.39,1.39,0,0,1-.74.2,1.46,1.46,0,0,1-1-.34,1.16,1.16,0,0,1-.37-.91,1,1,0,0,1,.43-.9,2.27,2.27,0,0,1,1.33-.31h.82v-.41a.9.9,0,0,0-.24-.67,1.28,1.28,0,0,0-1.37-.06,1.61,1.61,0,0,0-.42.44l-.38-.36a1.46,1.46,0,0,1,.54-.57,2,2,0,0,1,2.09.13,1.31,1.31,0,0,1,.42,1v2.26H115v.57ZM112.8,103a2,2,0,0,0,.44,0,1.07,1.07,0,0,0,.34-.16.87.87,0,0,0,.23-.24.61.61,0,0,0,.08-.3v-.68H113a1.48,1.48,0,0,0-.8.16.52.52,0,0,0-.26.46v.17a.56.56,0,0,0,.22.47A.93.93,0,0,0,112.8,103Z"/><path class="cls-3" d="M116.79,103.4l-1.45-4.13H116l.72,2,.45,1.41h0l.45-1.41.74-2H119l-1.45,4.13Z"/><path class="cls-3" d="M121.34,103.5a1.74,1.74,0,0,1-.77-.16,1.63,1.63,0,0,1-.58-.43,2.14,2.14,0,0,1-.38-.68,2.77,2.77,0,0,1-.13-.89,2.73,2.73,0,0,1,.13-.89,2.09,2.09,0,0,1,.38-.69,1.76,1.76,0,0,1,.58-.43,1.89,1.89,0,0,1,.77-.15,1.78,1.78,0,0,1,.74.15,1.56,1.56,0,0,1,.56.42,2,2,0,0,1,.36.63,2.6,2.6,0,0,1,.12.81v.3h-3v.19a1.3,1.3,0,0,0,.09.49,1.09,1.09,0,0,0,.62.66,1.21,1.21,0,0,0,.52.1,1.18,1.18,0,0,0,.68-.19,1.15,1.15,0,0,0,.45-.52l.46.33a1.58,1.58,0,0,1-.63.68A1.8,1.8,0,0,1,121.34,103.5Zm0-3.79a1.21,1.21,0,0,0-.48.09,1.28,1.28,0,0,0-.38.26,1.22,1.22,0,0,0-.24.4,1.3,1.3,0,0,0-.09.49V101h2.28v-.09a1.25,1.25,0,0,0-.3-.88A1,1,0,0,0,121.34,99.71Z"/><path class="cls-3" d="M129,103.4a.64.64,0,0,1-.52-.19.94.94,0,0,1-.19-.48h0a1,1,0,0,1-.45.57,1.39,1.39,0,0,1-.74.2,1.46,1.46,0,0,1-1-.34,1.16,1.16,0,0,1-.37-.91,1,1,0,0,1,.43-.9,2.27,2.27,0,0,1,1.33-.31h.82v-.41A.9.9,0,0,0,128,100a1.28,1.28,0,0,0-1.37-.06,1.61,1.61,0,0,0-.42.44l-.38-.36a1.46,1.46,0,0,1,.54-.57,2,2,0,0,1,2.09.13,1.31,1.31,0,0,1,.42,1v2.26h.47v.57Zm-1.84-.45a2,2,0,0,0,.44,0,1.07,1.07,0,0,0,.34-.16.87.87,0,0,0,.23-.24.61.61,0,0,0,.08-.3v-.68h-.85a1.48,1.48,0,0,0-.8.16.52.52,0,0,0-.26.46v.17a.56.56,0,0,0,.22.47A.93.93,0,0,0,127.16,103Z"/><path class="cls-3" d="M132.78,103.4a.62.62,0,0,1-.68-.66V97.48h.64v5.35h.6v.57Z"/><path class="cls-3" d="M135.8,103.5a1.73,1.73,0,0,1-.76-.16,1.58,1.58,0,0,1-.59-.43,2.14,2.14,0,0,1-.38-.68,2.77,2.77,0,0,1-.13-.89,2.73,2.73,0,0,1,.13-.89,2.09,2.09,0,0,1,.38-.69,1.7,1.7,0,0,1,.59-.43,2,2,0,0,1,1.52,0,1.76,1.76,0,0,1,.58.43,1.94,1.94,0,0,1,.39.69,2.73,2.73,0,0,1,.13.89,2.77,2.77,0,0,1-.13.89,2,2,0,0,1-.39.68,1.63,1.63,0,0,1-.58.43A1.73,1.73,0,0,1,135.8,103.5Zm0-.57a1.18,1.18,0,0,0,.85-.32,1.3,1.3,0,0,0,.33-1V101a1.32,1.32,0,0,0-.33-1,1.29,1.29,0,0,0-1.7,0,1.32,1.32,0,0,0-.33,1v.59a1.3,1.3,0,0,0,.33,1A1.18,1.18,0,0,0,135.8,102.93Z"/><path class="cls-3" d="M140.25,103.5a1.73,1.73,0,0,1-.76-.16,1.58,1.58,0,0,1-.59-.43,2.14,2.14,0,0,1-.38-.68,2.77,2.77,0,0,1-.14-.89,2.72,2.72,0,0,1,.14-.89,2.09,2.09,0,0,1,.38-.69,1.7,1.7,0,0,1,.59-.43,1.87,1.87,0,0,1,.76-.15,1.83,1.83,0,0,1,.75.15,1.7,1.7,0,0,1,.59.43,1.94,1.94,0,0,1,.39.69,2.73,2.73,0,0,1,.13.89,2.77,2.77,0,0,1-.13.89,2,2,0,0,1-.39.68,1.58,1.58,0,0,1-.59.43A1.68,1.68,0,0,1,140.25,103.5Zm0-.57a1.2,1.2,0,0,0,.85-.32,1.34,1.34,0,0,0,.32-1V101a1.36,1.36,0,0,0-.32-1,1.2,1.2,0,0,0-.85-.32,1.18,1.18,0,0,0-.85.32,1.32,1.32,0,0,0-.33,1v.59a1.3,1.3,0,0,0,.33,1A1.18,1.18,0,0,0,140.25,102.93Z"/><path class="cls-3" d="M143.14,97.48h.64v3.75h0l.63-.7,1.17-1.26h.77l-1.52,1.63,1.68,2.5h-.78l-1.37-2.1-.61.63v1.47h-.64Z"/><path class="cls-3" d="M152.18,103.4a.62.62,0,0,1-.52-.19,1,1,0,0,1-.2-.48h0a1.07,1.07,0,0,1-.44.57,1.4,1.4,0,0,1-.75.2,1.46,1.46,0,0,1-1-.34,1.18,1.18,0,0,1-.36-.91,1.06,1.06,0,0,1,.42-.9,2.29,2.29,0,0,1,1.34-.31h.81v-.41a.9.9,0,0,0-.24-.67,1,1,0,0,0-.73-.23,1.06,1.06,0,0,0-.63.17,1.36,1.36,0,0,0-.42.44L149,100a1.51,1.51,0,0,1,.53-.57,1.78,1.78,0,0,1,.93-.23,1.74,1.74,0,0,1,1.17.36,1.33,1.33,0,0,1,.41,1v2.26h.48v.57Zm-1.85-.45a1.9,1.9,0,0,0,.44,0,1.13,1.13,0,0,0,.35-.16.71.71,0,0,0,.22-.24.52.52,0,0,0,.08-.3v-.68h-.84a1.54,1.54,0,0,0-.81.16.51.51,0,0,0-.25.46v.17a.54.54,0,0,0,.22.47A.9.9,0,0,0,150.33,103Z"/><path class="cls-3" d="M154.33,103.4a.63.63,0,0,1-.51-.19.67.67,0,0,1-.17-.49V99.84H153v-.57h.38a.44.44,0,0,0,.29-.08.44.44,0,0,0,.07-.29v-.77h.58v1.14h.9v.57h-.9v3h.84v.57Z"/><path class="cls-3" d="M159,103.4a.63.63,0,0,1-.51-.19.71.71,0,0,1-.17-.49V99.84h-.68v-.57H158a.42.42,0,0,0,.29-.08.44.44,0,0,0,.07-.29v-.77h.58v1.14h.9v.57h-.9v3h.84v.57Z"/><path class="cls-3" d="M160.82,97.48h.64v2.46h0a1.36,1.36,0,0,1,.43-.56,1.46,1.46,0,0,1,1.75.21,1.65,1.65,0,0,1,.38,1.16v2.65h-.65v-2.54c0-.74-.31-1.12-.93-1.12a1.5,1.5,0,0,0-.37.05,1,1,0,0,0-.33.15.64.64,0,0,0-.22.24.68.68,0,0,0-.09.35v2.87h-.64Z"/><path class="cls-3" d="M166.89,103.5a1.74,1.74,0,0,1-.77-.16,1.55,1.55,0,0,1-.58-.43,2.14,2.14,0,0,1-.38-.68,2.77,2.77,0,0,1-.13-.89,2.73,2.73,0,0,1,.13-.89,2.09,2.09,0,0,1,.38-.69,1.66,1.66,0,0,1,.58-.43,1.89,1.89,0,0,1,.77-.15,1.78,1.78,0,0,1,.74.15,1.65,1.65,0,0,1,.56.42,2,2,0,0,1,.36.63,2.6,2.6,0,0,1,.12.81v.3h-3v.19a1.3,1.3,0,0,0,.09.49,1.09,1.09,0,0,0,.62.66,1.21,1.21,0,0,0,.52.1,1.18,1.18,0,0,0,.68-.19,1.21,1.21,0,0,0,.45-.52l.46.33a1.58,1.58,0,0,1-.63.68A1.82,1.82,0,0,1,166.89,103.5Zm0-3.79a1.21,1.21,0,0,0-.48.09,1.28,1.28,0,0,0-.38.26,1.22,1.22,0,0,0-.24.4,1.3,1.3,0,0,0-.09.49V101H168v-.09a1.25,1.25,0,0,0-.3-.88A1,1,0,0,0,166.89,99.71Z"/><path class="cls-3" d="M173.1,103.5a1.7,1.7,0,0,1-.76-.16,1.66,1.66,0,0,1-.59-.43,1.94,1.94,0,0,1-.37-.68,2.77,2.77,0,0,1-.14-.89,2.72,2.72,0,0,1,.14-.89,1.91,1.91,0,0,1,.37-.69,1.8,1.8,0,0,1,.59-.43,1.84,1.84,0,0,1,.76-.15,1.72,1.72,0,0,1,.74.15,1.56,1.56,0,0,1,.56.42,1.7,1.7,0,0,1,.36.63,2.6,2.6,0,0,1,.12.81v.3h-3v.19a1.29,1.29,0,0,0,.08.49,1.33,1.33,0,0,0,.24.4,1,1,0,0,0,.38.26,1.27,1.27,0,0,0,.52.1,1.24,1.24,0,0,0,1.14-.71l.45.33a1.56,1.56,0,0,1-.62.68A1.84,1.84,0,0,1,173.1,103.5Zm0-3.79a1.11,1.11,0,0,0-.85.35,1.09,1.09,0,0,0-.25.4,1.53,1.53,0,0,0-.08.49V101h2.28v-.09a1.25,1.25,0,0,0-.3-.88A1,1,0,0,0,173.1,99.71Z"/><path class="cls-3" d="M176.82,103.4l-1.45-4.13H176l.72,2,.45,1.41h0l.45-1.41.73-2H179l-1.46,4.13Z"/><path class="cls-3" d="M182.81,103.4a.6.6,0,0,1-.51-.19,1,1,0,0,1-.2-.48h0a1,1,0,0,1-.45.57,1.36,1.36,0,0,1-.74.2,1.46,1.46,0,0,1-1-.34,1.19,1.19,0,0,1-.37-.91,1.07,1.07,0,0,1,.43-.9,2.27,2.27,0,0,1,1.33-.31h.82v-.41a.9.9,0,0,0-.24-.67,1.06,1.06,0,0,0-.74-.23,1,1,0,0,0-.62.17,1.36,1.36,0,0,0-.42.44l-.39-.36a1.46,1.46,0,0,1,.54-.57,1.73,1.73,0,0,1,.93-.23,1.7,1.7,0,0,1,1.16.36,1.31,1.31,0,0,1,.42,1v2.26h.47v.57ZM181,103a2,2,0,0,0,.44,0,1.13,1.13,0,0,0,.35-.16.83.83,0,0,0,.22-.24.61.61,0,0,0,.08-.3v-.68h-.85a1.5,1.5,0,0,0-.8.16.51.51,0,0,0-.25.46v.17a.54.54,0,0,0,.22.47A.88.88,0,0,0,181,103Z"/><path class="cls-3" d="M184.73,103.4a.66.66,0,0,1-.51-.19.68.68,0,0,1-.17-.47V97.48h.64v5.35h.61v.57Z"/><path class="cls-3" d="M188.74,102.74h0a2.79,2.79,0,0,1-.16.28,1,1,0,0,1-.23.24,1.09,1.09,0,0,1-.32.17,1.25,1.25,0,0,1-.45.07,1.3,1.3,0,0,1-1-.42,1.65,1.65,0,0,1-.37-1.16V99.27h.64v2.54c0,.75.31,1.12.94,1.12a1.5,1.5,0,0,0,.37-.05,1,1,0,0,0,.32-.14.92.92,0,0,0,.23-.25.8.8,0,0,0,.08-.36V99.27h.64v4.13h-.64Z"/><path class="cls-3" d="M193.71,103.4a.64.64,0,0,1-.52-.19.94.94,0,0,1-.19-.48h0a1.08,1.08,0,0,1-.45.57,1.4,1.4,0,0,1-.75.2,1.49,1.49,0,0,1-1-.34,1.18,1.18,0,0,1-.36-.91,1,1,0,0,1,.43-.9,2.25,2.25,0,0,1,1.33-.31H193v-.41a.9.9,0,0,0-.24-.67,1.28,1.28,0,0,0-1.37-.06,1.36,1.36,0,0,0-.42.44l-.38-.36a1.51,1.51,0,0,1,.53-.57,1.78,1.78,0,0,1,.93-.23,1.74,1.74,0,0,1,1.17.36,1.31,1.31,0,0,1,.42,1v2.26h.47v.57Zm-1.84-.45a2,2,0,0,0,.44,0,1.07,1.07,0,0,0,.34-.16.87.87,0,0,0,.23-.24.61.61,0,0,0,.08-.3v-.68h-.85a1.54,1.54,0,0,0-.81.16.53.53,0,0,0-.25.46v.17a.56.56,0,0,0,.22.47A.93.93,0,0,0,191.87,103Z"/><path class="cls-3" d="M195.86,103.4a.66.66,0,0,1-.51-.19.71.71,0,0,1-.17-.49V99.84h-.68v-.57h.38a.42.42,0,0,0,.29-.08.44.44,0,0,0,.07-.29v-.77h.58v1.14h.9v.57h-.9v3h.84v.57Z"/><path class="cls-3" d="M198,98.3a.4.4,0,0,1-.3-.1.36.36,0,0,1-.09-.26v-.1a.37.37,0,0,1,.09-.26.4.4,0,0,1,.3-.1.38.38,0,0,1,.3.1.34.34,0,0,1,.1.26v.1a.33.33,0,0,1-.1.26A.38.38,0,0,1,198,98.3Zm-.32,1h.64v4.13h-.64Z"/><path class="cls-3" d="M201.25,103.5a1.76,1.76,0,0,1-.76-.16,1.66,1.66,0,0,1-.59-.43,2.14,2.14,0,0,1-.38-.68,2.77,2.77,0,0,1-.13-.89,2.73,2.73,0,0,1,.13-.89,2.09,2.09,0,0,1,.38-.69,1.8,1.8,0,0,1,.59-.43,1.91,1.91,0,0,1,.76-.15,1.87,1.87,0,0,1,.76.15,1.91,1.91,0,0,1,.59.43,2.09,2.09,0,0,1,.38.69,2.72,2.72,0,0,1,.14.89,2.77,2.77,0,0,1-.14.89,2.14,2.14,0,0,1-.38.68,1.76,1.76,0,0,1-.59.43A1.73,1.73,0,0,1,201.25,103.5Zm0-.57a1.18,1.18,0,0,0,.85-.32,1.3,1.3,0,0,0,.33-1V101a1.32,1.32,0,0,0-.33-1,1.18,1.18,0,0,0-.85-.32,1.2,1.2,0,0,0-.85.32,1.36,1.36,0,0,0-.32,1v.59a1.34,1.34,0,0,0,.32,1A1.2,1.2,0,0,0,201.25,102.93Z"/><path class="cls-3" d="M204.14,103.4V99.27h.64v.67h0a1.36,1.36,0,0,1,.43-.56,1.25,1.25,0,0,1,.74-.2,1.27,1.27,0,0,1,1,.41,1.65,1.65,0,0,1,.37,1.16v2.65h-.64v-2.54c0-.74-.31-1.12-.93-1.12a1.5,1.5,0,0,0-.37.05,1,1,0,0,0-.33.15.76.76,0,0,0-.23.24.78.78,0,0,0-.08.35v2.87Z"/><path class="cls-5" d="M244.51,284.58V141c0-.24-.27-23.68-23.68-23.68H84.77c-.24,0-23.68.27-23.68,23.68V284.45"/></g></svg>