<svg xmlns="http://www.w3.org/2000/svg" xmlns:xlink="http://www.w3.org/1999/xlink" viewBox="0 0 305.62 305.62"><defs><style>.cls-1,.cls-2,.cls-3{fill:none;}.cls-2{stroke:#fff;stroke-width:1.25px;}.cls-2,.cls-3{stroke-miterlimit:10;}.cls-3{stroke:#000;stroke-width:0.25px;}.cls-4{clip-path:url(#clip-path);}.cls-5{fill:#e2001a;}.cls-6{fill:#2699d1;}.cls-7{fill:#1a171b;}.cls-8{fill:#2780bb;}</style><clipPath id="clip-path"><rect class="cls-1" x="5.8" y="1.47" width="292.96" height="275.52"/></clipPath></defs><title>feedback_energyandtransport_front</title><g id="Ebene_2" data-name="Ebene 2"><path class="cls-2" d="M284.62,290.62v15m0-290.62V0M21,290.62v15M21,15V0M290.62,284.62h15M15,284.62H0M290.62,21h15M15,21H0"/><path class="cls-3" d="M284.62,290.62v15m0-290.62V0M21,290.62v15M21,15V0M290.62,284.62h15M15,284.62H0M290.62,21h15M15,21H0"/></g><g id="Ebene_1" data-name="Ebene 1"><g class="cls-4"><path class="cls-5" d="M152.33,240.91a4.45,4.45,0,0,0-.46,8.87c1.91.2,2.61,1.32,2.36,3.75,0,.24,0,.48,0,.73a7,7,0,1,0,7-7c-.24,0-.49,0-.73,0-2.43.26-3.55-.45-3.75-2.36a4.42,4.42,0,0,0-4.42-4m8.9,20.49a7.15,7.15,0,0,1-7.14-7.14,6,6,0,0,1,0-.74c.24-2.39-.41-3.44-2.27-3.64a4.55,4.55,0,1,1,5-5c.2,1.86,1.25,2.51,3.64,2.26l.74,0a7.14,7.14,0,1,1,0,14.28"/><path class="cls-5" d="M153.53,243.06a3.5,3.5,0,0,0-.36,7c1.52.16,2.08,1.05,1.88,3a5.54,5.54,0,1,0,5.52-5l-.58,0c-1.92.2-2.82-.36-3-1.88a3.48,3.48,0,0,0-3.48-3.14m7,16.19a5.66,5.66,0,0,1-5.63-6.24c.2-1.88-.32-2.71-1.78-2.86a3.61,3.61,0,1,1,4-4c.15,1.46,1,2,2.86,1.78l.59,0a5.66,5.66,0,0,1,0,11.31"/><path class="cls-5" d="M154.74,245.21a2.56,2.56,0,0,0-.26,5.1c1.12.12,1.53.78,1.39,2.2a3,3,0,0,0,0,.42,4.06,4.06,0,1,0,4.06-4.06l-.42,0c-1.42.15-2.08-.26-2.2-1.38a2.54,2.54,0,0,0-2.54-2.3m5.16,11.89a4.17,4.17,0,0,1-4.16-4.17,3.1,3.1,0,0,1,0-.43c.14-1.37-.23-2-1.3-2.08a2.67,2.67,0,1,1,2.93-2.93c.11,1.07.71,1.44,2.08,1.3a3.1,3.1,0,0,1,.43,0,4.17,4.17,0,1,1,0,8.33"/><path class="cls-5" d="M155.89,250.59c.64.11.88.54.79,1.41a2.44,2.44,0,0,0,0,.27,2.57,2.57,0,1,0,2.57-2.57H159a1.51,1.51,0,0,1-1.06-.17.88.88,0,0,1-.35-.63h0l0-.1a1.61,1.61,0,1,0-1.76,1.76h.11Zm3.35,4.36a2.68,2.68,0,0,1-2.68-2.68,2.64,2.64,0,0,1,0-.28c.11-1.06-.33-1.26-.82-1.31h-.1a1.72,1.72,0,1,1,2-2h0l0,.1a.89.89,0,0,0,.32.67,1.5,1.5,0,0,0,1,.14h.28a2.68,2.68,0,0,1,0,5.36"/><path class="cls-6" d="M161.81,240.71a8.35,8.35,0,0,0-8.27,9.17c.3,2.86-.53,4.18-2.77,4.42a5.25,5.25,0,1,0,5.76,5.76c.23-2.24,1.56-3.07,4.41-2.77a8.44,8.44,0,0,0,.87,0,8.31,8.31,0,1,0,0-16.62M151.3,264.89a5.36,5.36,0,0,1-.55-10.7c2.2-.23,3-1.47,2.68-4.3a8.42,8.42,0,1,1,8.38,7.55,8.65,8.65,0,0,1-.88-.05c-2.82-.29-4.06.49-4.3,2.68a5.34,5.34,0,0,1-5.33,4.82"/><path class="cls-6" d="M161.49,241.75a7.6,7.6,0,0,0-7.59,7.59,7,7,0,0,0,0,.79c.27,2.62-.49,3.82-2.54,4a4.8,4.8,0,1,0,5.26,5.26c.21-2.05,1.42-2.81,4-2.54a7,7,0,0,0,.79,0,7.59,7.59,0,0,0,0-15.18m-9.61,22.1a4.91,4.91,0,0,1-.5-9.79c2-.21,2.72-1.34,2.45-3.92a7.26,7.26,0,0,1,0-.8,7.7,7.7,0,1,1,7.7,7.7c-.26,0-.53,0-.8,0-2.58-.27-3.72.44-3.93,2.44a4.89,4.89,0,0,1-4.88,4.41"/><path class="cls-6" d="M161.16,242.79a6.87,6.87,0,0,0-6.86,6.87c0,.24,0,.48,0,.71.25,2.38-.44,3.47-2.3,3.67a4.34,4.34,0,1,0,4.76,4.76c.19-1.86,1.29-2.55,3.66-2.3l.71,0a6.87,6.87,0,1,0,0-13.74m-8.69,20a4.45,4.45,0,0,1-.46-8.88c1.82-.19,2.46-1.21,2.22-3.54a6.06,6.06,0,0,1,0-.73,7,7,0,1,1,7,7,5.9,5.9,0,0,1-.72,0c-2.33-.24-3.36.4-3.55,2.21a4.43,4.43,0,0,1-4.42,4"/><path class="cls-6" d="M160.84,243.83a6.16,6.16,0,0,0-6.15,6.15c0,.21,0,.43,0,.64.22,2.13-.4,3.12-2.07,3.29a3.89,3.89,0,1,0,4.26,4.26c.17-1.67,1.15-2.29,3.29-2.07l.63,0a6.15,6.15,0,1,0,0-12.3m-7.79,17.94a4,4,0,0,1-.4-8c1.62-.18,2.19-1.09,2-3.18,0-.22,0-.43,0-.65a6.26,6.26,0,1,1,6.25,6.26c-.21,0-.43,0-.64,0-2.09-.22-3,.35-3.18,2a4,4,0,0,1-4,3.59"/><path class="cls-6" d="M160.52,244.88a5.42,5.42,0,0,0-5.4,6c.2,1.88-.35,2.76-1.83,2.91a3.43,3.43,0,1,0,3.75,3.76c.16-1.48,1-2,2.92-1.84l.56,0a5.43,5.43,0,1,0,0-10.85m-6.88,15.85a3.53,3.53,0,0,1-.36-7.05c1.42-.15,1.93-1,1.74-2.8a5.63,5.63,0,0,1,0-.58,5.54,5.54,0,1,1,5,5.51c-1.84-.19-2.65.31-2.8,1.74a3.52,3.52,0,0,1-3.51,3.18"/><path class="cls-6" d="M160.2,245.92a4.71,4.71,0,0,0-4.71,4.71,3.87,3.87,0,0,0,0,.48c.17,1.65-.31,2.41-1.6,2.54a3,3,0,1,0,3.25,3.26c.14-1.29.9-1.77,2.54-1.6a4.1,4.1,0,0,0,.49,0,4.71,4.71,0,1,0,0-9.41m-6,13.76a3.07,3.07,0,0,1-.31-6.13c1.23-.13,1.67-.84,1.5-2.43a4,4,0,0,1,0-.49,4.82,4.82,0,1,1,4.81,4.81l-.5,0c-1.59-.16-2.29.28-2.42,1.51a3.06,3.06,0,0,1-3.06,2.76"/><path class="cls-6" d="M159.88,247a4,4,0,0,0-4,4c0,.13,0,.27,0,.41.15,1.4-.26,2-1.36,2.16a2.52,2.52,0,1,0,2.75,2.76c.12-1.1.77-1.51,2.17-1.37a2.82,2.82,0,0,0,.41,0,4,4,0,1,0,0-8m-5.08,11.68a2.62,2.62,0,0,1-.26-5.22c1-.11,1.41-.7,1.27-2a3,3,0,0,1,0-.42,4.1,4.1,0,1,1,4.09,4.09l-.42,0c-1.35-.14-1.94.23-2.05,1.27a2.62,2.62,0,0,1-2.61,2.35"/><path class="cls-6" d="M155.28,253.38h0l-.11,0a2,2,0,0,0-1.85,2,2.06,2.06,0,0,0,2.06,2.06,2,2,0,0,0,2-1.86v-.11h0c.13-.83.67-1.14,1.78-1l.34,0a3.27,3.27,0,1,0-3.27-3.27c0,.11,0,.22,0,.34.11,1.11-.19,1.65-1,1.77m.11,4.22a2.16,2.16,0,0,1-.32-4.29h.09c.86-.09,1.16-.57,1-1.67,0-.12,0-.24,0-.35a3.38,3.38,0,1,1,3,3.35c-1.1-.11-1.58.19-1.67,1v.11h0a2.13,2.13,0,0,1-2.12,1.84"/><path class="cls-6" d="M155.91,253.25h-.1a1.6,1.6,0,1,0,1.74,1.74v-.09c.11-.65.54-.89,1.41-.8l.26,0a2.55,2.55,0,1,0-2.55-2.55c0,.08,0,.17,0,.26.09.87-.14,1.3-.79,1.4m.06,3.31a1.7,1.7,0,0,1-.27-3.38h0l.1,0c.49,0,.92-.24.81-1.3a2.45,2.45,0,0,1,0-.27,2.66,2.66,0,1,1,2.66,2.65H159c-1.05-.11-1.24.32-1.29.8v.11h0a1.69,1.69,0,0,1-1.67,1.43"/><path class="cls-6" d="M156.55,253.13h-.11a1.14,1.14,0,0,0,.11,2.27,1.12,1.12,0,0,0,1.13-1l0-.11a.56.56,0,0,1,.26-.42.93.93,0,0,1,.62-.13v0l.15,0h.06l.14,0a1.83,1.83,0,1,0-1.83-1.83s0,.09,0,.14v.06l0,.15,0,0a1,1,0,0,1-.13.63.68.68,0,0,1-.43.26m0,2.39a1.25,1.25,0,0,1-.22-2.47h0l.11,0a.58.58,0,0,0,.46-.22,1,1,0,0,0,.1-.7V252h0a.07.07,0,0,1,0-.05,1.94,1.94,0,1,1,1.94,1.93h0l-.15,0a1,1,0,0,0-.7.11.57.57,0,0,0-.22.46l0,.12h0a1.24,1.24,0,0,1-1.22,1"/><path class="cls-7" d="M173.67,248.79a1.14,1.14,0,0,0,.23.73.78.78,0,0,0,1.21,0,1.18,1.18,0,0,0,.23-.75v-.05a1.27,1.27,0,0,0-.11-.52.91.91,0,0,0-.29-.37.84.84,0,0,0-.44-.13.76.76,0,0,0-.6.29,1.18,1.18,0,0,0-.23.75Zm-.27-.07a1.38,1.38,0,0,1,.14-.65,1,1,0,0,1,.39-.44,1,1,0,0,1,.57-.16,1,1,0,0,1,.8.35,1.3,1.3,0,0,1,.31.92v0a1.51,1.51,0,0,1-.14.65,1,1,0,0,1-.39.44,1,1,0,0,1-.57.16,1.05,1.05,0,0,1-.81-.35,1.36,1.36,0,0,1-.3-.92Z"/><path class="cls-7" d="M177.89,248.73a1.3,1.3,0,0,0-.19-.75.63.63,0,0,0-.54-.27.78.78,0,0,0-.44.12.74.74,0,0,0-.27.35v1.19a.75.75,0,0,0,.28.33.83.83,0,0,0,.43.11.61.61,0,0,0,.54-.28,1.37,1.37,0,0,0,.19-.8m.28.05a1.5,1.5,0,0,1-.26.92.8.8,0,0,1-.68.34.92.92,0,0,1-.78-.36V251h-.28v-3.44h.26v.36a.88.88,0,0,1,.78-.4.83.83,0,0,1,.7.34,1.56,1.56,0,0,1,.25.93Z"/><path class="cls-7" d="M179.69,247.7a.72.72,0,0,0-.53.23,1,1,0,0,0-.25.61h1.48v0a.85.85,0,0,0-.2-.58.64.64,0,0,0-.5-.23m.05,2.34a1,1,0,0,1-.58-.16,1,1,0,0,1-.39-.43,1.29,1.29,0,0,1-.15-.62v-.1a1.51,1.51,0,0,1,.14-.65,1.14,1.14,0,0,1,.39-.45.93.93,0,0,1,.54-.16.86.86,0,0,1,.71.31,1.21,1.21,0,0,1,.27.84v.15H178.9v.06a1,1,0,0,0,.24.7.78.78,0,0,0,.61.28,1,1,0,0,0,.39-.08.91.91,0,0,0,.3-.26l.17.13a1,1,0,0,1-.87.44"/><path class="cls-7" d="M181.46,247.52v.42a1,1,0,0,1,.35-.35.9.9,0,0,1,.46-.12.74.74,0,0,1,.59.22,1,1,0,0,1,.2.68V250h-.27v-1.62a.83.83,0,0,0-.14-.5.58.58,0,0,0-.45-.16.67.67,0,0,0-.45.16.89.89,0,0,0-.29.43V250h-.27v-2.47Z"/><path class="cls-7" d="M173.8,253.14v.41a.92.92,0,0,1,.34-.34,1,1,0,0,1,.46-.11.69.69,0,0,1,.74.48,1,1,0,0,1,.36-.36,1,1,0,0,1,.49-.12q.8,0,.81.87v1.65h-.27V254a.68.68,0,0,0-.15-.49.55.55,0,0,0-.45-.16.68.68,0,0,0-.5.19.62.62,0,0,0-.23.45v1.64h-.28V254a.69.69,0,0,0-.15-.48.6.6,0,0,0-.45-.15.77.77,0,0,0-.45.14.92.92,0,0,0-.27.44v1.7h-.28v-2.48Z"/><path class="cls-7" d="M177.83,254.42a1.14,1.14,0,0,0,.23.73.77.77,0,0,0,1.2,0,1.13,1.13,0,0,0,.24-.75v-.05a1.27,1.27,0,0,0-.11-.52.85.85,0,0,0-.3-.37.78.78,0,0,0-.43-.13.74.74,0,0,0-.6.29,1.18,1.18,0,0,0-.23.75Zm-.28-.07a1.55,1.55,0,0,1,.14-.65,1.07,1.07,0,0,1,.4-.44,1,1,0,0,1,.57-.16,1,1,0,0,1,.8.35,1.3,1.3,0,0,1,.31.92v0a1.51,1.51,0,0,1-.14.65,1,1,0,0,1-.39.44,1,1,0,0,1-.58.16,1,1,0,0,1-.8-.35,1.36,1.36,0,0,1-.31-.92Z"/><path class="cls-7" d="M182.05,254.36a1.28,1.28,0,0,0-.19-.76.61.61,0,0,0-.53-.26.73.73,0,0,0-.45.13.81.81,0,0,0-.28.38V255a.73.73,0,0,0,.73.47.61.61,0,0,0,.53-.27,1.35,1.35,0,0,0,.19-.8m.28,0a1.5,1.5,0,0,1-.26.92.81.81,0,0,1-.69.34.89.89,0,0,1-.78-.39v.34h-.26V252.1h.27v1.4a.88.88,0,0,1,.78-.4.83.83,0,0,1,.69.33,1.54,1.54,0,0,1,.26.94Z"/><path class="cls-7" d="M183.24,255.62H183v-2.48h.27Zm-.32-3.19a.15.15,0,0,1,.05-.13.17.17,0,0,1,.14-.06.21.21,0,0,1,.19.19.18.18,0,0,1-.06.13.19.19,0,0,1-.13.05.2.2,0,0,1-.14-.05.17.17,0,0,1-.05-.13"/></g><rect class="cls-7" x="184.02" y="252.1" width="0.27" height="3.52"/><g class="cls-4"><path class="cls-7" d="M185.34,255.62h-.27v-2.48h.27Zm-.32-3.19a.19.19,0,0,1,0-.13.17.17,0,0,1,.14-.06.18.18,0,0,1,.14.06.19.19,0,0,1,.05.13.21.21,0,0,1-.05.13.22.22,0,0,1-.14.05.2.2,0,0,1-.14-.05.21.21,0,0,1,0-.13"/><path class="cls-7" d="M186.51,252.51v.63H187v.23h-.52V255a.52.52,0,0,0,.08.31.28.28,0,0,0,.25.1l.22,0v.22a.78.78,0,0,1-.29,0,.5.5,0,0,1-.41-.16.75.75,0,0,1-.13-.49v-1.65h-.46v-.23h.46v-.63Z"/><path class="cls-7" d="M188.38,255.23l.72-2.09h.3l-1.06,2.9-.05.13a.67.67,0,0,1-.63.45.76.76,0,0,1-.21,0v-.22h.15a.47.47,0,0,0,.32-.1.66.66,0,0,0,.21-.34l.13-.34-.94-2.46h.3Z"/><path class="cls-7" d="M173.75,261.25V259h-.41v-.23h.41v-.3a.81.81,0,0,1,.19-.58.69.69,0,0,1,.54-.2,1.36,1.36,0,0,1,.29,0l0,.23a1,1,0,0,0-.25,0,.45.45,0,0,0-.35.14.58.58,0,0,0-.13.41v.3h.59V259H174v2.25Z"/><path class="cls-7" d="M175.22,260.05a1.14,1.14,0,0,0,.23.73.76.76,0,0,0,.61.29.73.73,0,0,0,.6-.29,1.18,1.18,0,0,0,.23-.75v0a1.24,1.24,0,0,0-.11-.52.83.83,0,0,0-.29-.37.81.81,0,0,0-.44-.13.72.72,0,0,0-.59.29,1.13,1.13,0,0,0-.24.75ZM175,260a1.51,1.51,0,0,1,.14-.65,1,1,0,0,1,.39-.44,1.11,1.11,0,0,1,1.38.19,1.34,1.34,0,0,1,.3.92v.05a1.38,1.38,0,0,1-.14.65,1,1,0,0,1-.39.44,1,1,0,0,1-.57.16,1,1,0,0,1-.8-.35A1.31,1.31,0,0,1,175,260Z"/><path class="cls-7" d="M178.87,259l-.18,0a.67.67,0,0,0-.44.15.8.8,0,0,0-.25.41v1.7h-.27v-2.48H178v.4a.74.74,0,0,1,.7-.44.42.42,0,0,1,.18,0Z"/><path class="cls-7" d="M180.9,260.94a.89.89,0,0,1-.79.36.78.78,0,0,1-.6-.23,1,1,0,0,1-.21-.68v-1.62h.27v1.58c0,.47.19.71.57.71a.71.71,0,0,0,.76-.49v-1.8h.27v2.48h-.26Z"/><path class="cls-7" d="M182.13,258.77v.41a1,1,0,0,1,.35-.34,1,1,0,0,1,.45-.11.7.7,0,0,1,.75.48,1.1,1.1,0,0,1,.35-.36,1.06,1.06,0,0,1,.5-.12q.79,0,.81.87v1.65h-.28v-1.63a.73.73,0,0,0-.14-.49.57.57,0,0,0-.46-.16.69.69,0,0,0-.5.19.7.7,0,0,0-.23.45v1.64h-.27V259.6a.69.69,0,0,0-.15-.48.61.61,0,0,0-.45-.15.73.73,0,0,0-.45.14.92.92,0,0,0-.27.44v1.7h-.28v-2.48Z"/><path class="cls-5" d="M157.12,251.59l0,.15a.13.13,0,0,1,0,.06s0,.09,0,.14a1.83,1.83,0,1,0,1.83-1.83h-.2l-.15,0v0c-.53,0-.8-.15-.87-.57h0v-.1a1.14,1.14,0,1,0-1.25,1.24l.1,0c.42.08.6.35.57.88Zm1.79,2.28a1.94,1.94,0,0,1-1.94-1.93s0,0,0-.06h0v-.15c.08-.71-.17-.88-.56-.93l-.11,0a1.24,1.24,0,0,1-1-1.22,1.25,1.25,0,0,1,2.47-.22h0l0,.1c0,.4.21.64.92.57h.2a1.94,1.94,0,0,1,0,3.87"/><path class="cls-5" d="M155.24,250.46c.84.12,1.15.67,1,1.8,0,.11,0,.23,0,.34a3.32,3.32,0,1,0,3-3.3c-1.13.12-1.68-.19-1.8-1h0v-.11a2.07,2.07,0,0,0-2.06-1.88,2.1,2.1,0,0,0-2.09,2.09,2.07,2.07,0,0,0,1.88,2.06h.12Zm4.33,5.56a3.42,3.42,0,0,1-3.42-3.42c0-.12,0-.24,0-.35.11-1.12-.19-1.61-1.06-1.7H155a2.19,2.19,0,1,1,2.5-2.5h0v.11c.09.87.58,1.17,1.7,1.06a3.42,3.42,0,1,1,.35,6.82"/><path class="cls-5" d="M154.13,244.13a3,3,0,0,0-.3,6.05c1.31.13,1.8.91,1.63,2.58a4.32,4.32,0,0,0,0,.5,4.81,4.81,0,1,0,4.31-4.77c-1.68.17-2.45-.32-2.59-1.64a3,3,0,0,0-3-2.72m6.1,14a4.91,4.91,0,0,1-4.9-4.91,4.43,4.43,0,0,1,0-.51c.17-1.62-.28-2.34-1.54-2.47a3.13,3.13,0,1,1,3.44-3.44c.14,1.26.85,1.71,2.48,1.54l.5,0a4.91,4.91,0,0,1,0,9.82"/><path class="cls-5" d="M152.93,242a4,4,0,0,0-.41,7.93c1.71.18,2.35,1.19,2.12,3.36q0,.33,0,.66a6.29,6.29,0,1,0,6.29-6.29l-.66,0c-2.17.23-3.18-.41-3.36-2.12a4,4,0,0,0-3.95-3.57m8,18.34a6.4,6.4,0,0,1-6.4-6.39c0-.22,0-.45,0-.67.23-2.13-.36-3.07-2-3.24a4.08,4.08,0,1,1,4.48-4.48c.17,1.66,1.11,2.24,3.24,2,.22,0,.45,0,.67,0a6.4,6.4,0,0,1,0,12.79"/><path class="cls-5" d="M158.9,250.17a1.76,1.76,0,1,0,1.76,1.75,1.76,1.76,0,0,0-1.76-1.75m0,3.79a2,2,0,1,1,2-2,2,2,0,0,1-2,2"/></g><path class="cls-8" d="M147.38,186.91l2.89-3.93,2.89-3.93a1,1,0,0,0,.14-.43.91.91,0,0,0-.11-.45.8.8,0,0,0-.31-.32.86.86,0,0,0-.44-.12h-4.86l3.91-4.38L155.4,169l-2.27,3.15-2.28,3.15a.82.82,0,0,0-.12.43.87.87,0,0,0,.42.76.83.83,0,0,0,.44.12H157l-4.81,5.16Zm11.69-12h-5.95l2.1-3.45,2.11-3.46a.86.86,0,0,0-.2-1.12.81.81,0,0,0-.59-.18.8.8,0,0,0-.55.25l-5.55,5.53L144.89,178a.82.82,0,0,0-.23.44.83.83,0,0,0,.05.49.81.81,0,0,0,.31.39.91.91,0,0,0,.48.15h5.35l-3,4.67-3,4.68a.86.86,0,0,0,.18,1.14.94.94,0,0,0,.26.14.92.92,0,0,0,.28,0,1,1,0,0,0,.33-.06,1.07,1.07,0,0,0,.28-.19l6.78-6.77,6.78-6.77a.84.84,0,0,0,.24-.44.86.86,0,0,0,0-.5.87.87,0,0,0-.32-.39.84.84,0,0,0-.47-.14"/><path class="cls-8" d="M152.24,130.29l2.2,1.27,2.2,1.26-5.22,3-5.21,3-2.2-1.27-2.19-1.26,5.21-3Zm.95,25V143.86l1.09-.63,1.1-.63,4.11-2.38,4.12-2.37v11.38l-5.21,3Zm9.56-18.9-5.21,3-5.22,3-2.19-1.27-2.2-1.26,5.21-3,5.22-3,2.19,1.27ZM141,137.8l2.19,1.27,2.2,1.26v6.25a.83.83,0,0,0,.25.61.87.87,0,0,0,1.22,0,.87.87,0,0,0,.25-.61v-5.25l2.2,1.27,2.2,1.27v11.38l-5.26-3-5.25-3V137.8Zm-1.72,11.88a.85.85,0,0,0,.43.75l6.11,3.53,6.12,3.53a.67.67,0,0,0,.21.09l.22,0,.22,0,.21-.09h0l6.07-3.51,6.07-3.5a.89.89,0,0,0,.32-.32.92.92,0,0,0,.11-.43V136.35a.92.92,0,0,0-.11-.43,1,1,0,0,0-.32-.31h0l-3-1.73-3-1.72a.41.41,0,0,0-.11-.07l-.11-.06-3-1.74-3-1.74a.83.83,0,0,0-.86,0l-6.07,3.5-6.07,3.51a.82.82,0,0,0-.32.32.86.86,0,0,0-.11.43h0v13.37Z"/><path class="cls-8" d="M149,118.25a.67.67,0,0,0,.24,0,.86.86,0,0,0,.24-.11l1-.66,1-.65v8.65a.85.85,0,0,0,.26.61.86.86,0,0,0,1.21,0,.85.85,0,0,0,.25-.61v-8.65l1,.65,1,.66a.86.86,0,0,0,1.33-.88.87.87,0,0,0-.37-.55l-1.65-1.1-1.66-1.11a.88.88,0,0,0-.45-.2,1.17,1.17,0,0,0-.5.2l-1.66,1.11-1.65,1.1a.87.87,0,0,0-.37.55.89.89,0,0,0,.13.65.94.94,0,0,0,.32.28.91.91,0,0,0,.4.1"/><path class="cls-8" d="M126.37,139.36a.86.86,0,0,0,.6-.25.9.9,0,0,0,.26-.61v-1.81l4,2.33,4,2.33a.9.9,0,0,0,.21.08.83.83,0,0,0,.22,0,.92.92,0,0,0,.43-.11.82.82,0,0,0,.32-.32.86.86,0,0,0-.32-1.17l-3.29-1.9-3.29-1.9h2.51a.83.83,0,0,0,.61-.25.85.85,0,0,0,.25-.61.81.81,0,0,0-.26-.6.94.94,0,0,0-.6-.26h-5.71a.9.9,0,0,0-.61.21.85.85,0,0,0-.25.65v3.29a.86.86,0,0,0,.24.61.81.81,0,0,0,.6.26h0Z"/><path class="cls-8" d="M178.2,139.36a.86.86,0,0,1-.6-.25.85.85,0,0,1-.26-.61v-1.81l-4,2.33-4,2.33a.9.9,0,0,1-.21.08l-.22,0a.92.92,0,0,1-.43-.11.82.82,0,0,1-.32-.32.86.86,0,0,1,.32-1.17l3.29-1.9,3.29-1.9h-2.52a.82.82,0,0,1-.6-.25.85.85,0,0,1-.25-.61.81.81,0,0,1,.26-.6.94.94,0,0,1,.6-.26h5.7a.91.91,0,0,1,.62.21.84.84,0,0,1,.24.65v3.29a.86.86,0,0,1-.24.61.79.79,0,0,1-.59.26Z"/><path class="cls-8" d="M177.67,160.57H126.9a.86.86,0,0,0-.61,1.47.85.85,0,0,0,.61.25h50.77a.82.82,0,0,0,.6-.25.85.85,0,0,0,0-1.22.86.86,0,0,0-.6-.25"/><path class="cls-8" d="M152.28,110.72a42.56,42.56,0,1,0,30.06,12.47,42.39,42.39,0,0,0-30.06-12.47m0,87a44.57,44.57,0,1,1,31.47-13.06,44.38,44.38,0,0,1-31.47,13.06"/><path class="cls-7" d="M104.09,246.19H106a1.26,1.26,0,0,1,.91.3,1,1,0,0,1,.31.81,1.91,1.91,0,0,1-.06.48,1.33,1.33,0,0,1-.19.42,1.12,1.12,0,0,1-.32.33,1.48,1.48,0,0,1-.48.2v0a1,1,0,0,1,.58.34,1.07,1.07,0,0,1,.2.67,1.88,1.88,0,0,1-.13.72,1.67,1.67,0,0,1-.88.95,1.73,1.73,0,0,1-.69.13H103Zm1.11,5a1.16,1.16,0,0,0,.78-.25,1.13,1.13,0,0,0,.39-.69c0-.14,0-.25,0-.32a1.37,1.37,0,0,0,0-.16.75.75,0,0,0-.22-.56.93.93,0,0,0-.66-.21H104l-.44,2.19Zm.3-2.59a1.33,1.33,0,0,0,.78-.21.9.9,0,0,0,.38-.61c0-.13,0-.23,0-.3a1,1,0,0,0,0-.16.66.66,0,0,0-.2-.52.89.89,0,0,0-.61-.19h-1.46l-.39,2Z"/><path class="cls-7" d="M109.27,251.66a1.39,1.39,0,0,1-1.07-.4,1.77,1.77,0,0,1-.37-1.21,3,3,0,0,1,.15-1,2.42,2.42,0,0,1,.41-.8,1.85,1.85,0,0,1,.63-.55,1.61,1.61,0,0,1,.82-.21,1.87,1.87,0,0,1,.49.07,1.24,1.24,0,0,1,.4.19,1,1,0,0,1,.27.32.92.92,0,0,1,.1.44,1,1,0,0,1-.14.5,1.05,1.05,0,0,1-.47.4,2.64,2.64,0,0,1-.86.27,7.16,7.16,0,0,1-1.34.11.88.88,0,0,0,0,.17,1,1,0,0,0,0,.16,1.22,1.22,0,0,0,.26.84,1,1,0,0,0,.78.29,1.36,1.36,0,0,0,.74-.21,1.9,1.9,0,0,0,.57-.56l.29.24a2.25,2.25,0,0,1-.76.7A1.88,1.88,0,0,1,109.27,251.66Zm.53-3.75a1.23,1.23,0,0,0-.92.39,2,2,0,0,0-.5,1l0,.18a10.58,10.58,0,0,0,1.18-.09,2.8,2.8,0,0,0,.71-.2.72.72,0,0,0,.34-.29.74.74,0,0,0,.09-.36.52.52,0,0,0-.24-.48A1,1,0,0,0,109.8,247.91Z"/><path class="cls-7" d="M116.42,251.57a.4.4,0,0,1-.29-.09.37.37,0,0,1-.09-.25,1.37,1.37,0,0,1,0-.19l.06-.32h0a2.08,2.08,0,0,1-.56.71,1.38,1.38,0,0,1-1.28.13,1.13,1.13,0,0,1-.38-.3,1.41,1.41,0,0,1-.25-.47,2.31,2.31,0,0,1-.08-.61,3.81,3.81,0,0,1,.12-1,2.83,2.83,0,0,1,.36-.85,2,2,0,0,1,.61-.61,1.48,1.48,0,0,1,.84-.24,1.28,1.28,0,0,1,.71.2.91.91,0,0,1,.39.56h0l.13-.66h.42l-.71,3.56h.6l-.07.38Zm-1.55-.28a.93.93,0,0,0,.45-.1,1.53,1.53,0,0,0,.39-.27,1.62,1.62,0,0,0,.36-.45,1.64,1.64,0,0,0,.22-.61l.19-.92a1.15,1.15,0,0,0,0-.37.67.67,0,0,0-.15-.33A.8.8,0,0,0,116,248a1.24,1.24,0,0,0-.5-.09,1.2,1.2,0,0,0-.91.37,2,2,0,0,0-.49,1l-.09.46,0,.22a1.77,1.77,0,0,0,0,.24,1.7,1.7,0,0,0,0,.41.84.84,0,0,0,.44.57A1,1,0,0,0,114.87,251.29Z"/><path class="cls-7" d="M120.48,247.63h.42l-.18.85h0a2.19,2.19,0,0,1,.55-.71,1.22,1.22,0,0,1,.77-.24,1.19,1.19,0,0,1,.51.11,1,1,0,0,1,.39.3,1.39,1.39,0,0,1,.24.47,2,2,0,0,1,.09.61,3.81,3.81,0,0,1-.12.95,2.83,2.83,0,0,1-.36.85,2.21,2.21,0,0,1-.61.61,1.47,1.47,0,0,1-.84.23,1.26,1.26,0,0,1-.71-.19,1,1,0,0,1-.4-.56h0l-.44,2.2h-.43Zm.85,3.66a1.26,1.26,0,0,0,.92-.37,2,2,0,0,0,.48-1l.1-.46a1.5,1.5,0,0,0,0-.22,1.66,1.66,0,0,0,0-.24,1.86,1.86,0,0,0-.05-.42.94.94,0,0,0-.17-.33.71.71,0,0,0-.28-.23,1,1,0,0,0-.4-.08,1.13,1.13,0,0,0-.45.09,1.61,1.61,0,0,0-.38.28,2,2,0,0,0-.37.44,1.89,1.89,0,0,0-.22.62l-.18.92a.92.92,0,0,0,0,.37,1,1,0,0,0,.15.33.87.87,0,0,0,.32.24A1.28,1.28,0,0,0,121.33,251.29Z"/><path class="cls-7" d="M127,251.57a.4.4,0,0,1-.29-.09.37.37,0,0,1-.09-.25,1.37,1.37,0,0,1,0-.19l.06-.32h0a2.08,2.08,0,0,1-.56.71,1.38,1.38,0,0,1-1.28.13,1.13,1.13,0,0,1-.38-.3,1.41,1.41,0,0,1-.25-.47,2.31,2.31,0,0,1-.08-.61,3.81,3.81,0,0,1,.12-1,2.83,2.83,0,0,1,.36-.85,2,2,0,0,1,.61-.61,1.48,1.48,0,0,1,.84-.24,1.28,1.28,0,0,1,.71.2.91.91,0,0,1,.39.56h0l.13-.66h.42l-.71,3.56h.6l-.07.38Zm-1.55-.28a.93.93,0,0,0,.45-.1,1.37,1.37,0,0,0,.39-.27,1.62,1.62,0,0,0,.36-.45,1.64,1.64,0,0,0,.22-.61l.19-.92a1.15,1.15,0,0,0,0-.37.67.67,0,0,0-.15-.33.8.8,0,0,0-.32-.24,1.24,1.24,0,0,0-.5-.09,1.2,1.2,0,0,0-.91.37,2,2,0,0,0-.49,1l-.09.46,0,.22a1.77,1.77,0,0,0,0,.24,1.7,1.7,0,0,0,0,.41.84.84,0,0,0,.44.57A1,1,0,0,0,125.45,251.29Z"/><path class="cls-7" d="M128.47,251.57l.78-3.94h.43l-.17.82h0a3.28,3.28,0,0,1,.2-.31,1.66,1.66,0,0,1,.26-.27,1.56,1.56,0,0,1,.34-.18,1.53,1.53,0,0,1,.45-.06H131l-.08.42h-.26a1.18,1.18,0,0,0-.5.1,1.31,1.31,0,0,0-.4.26,1.39,1.39,0,0,0-.28.38,1.79,1.79,0,0,0-.16.46l-.46,2.32Z"/><path class="cls-7" d="M131.8,251.57a.41.41,0,0,1-.3-.09.34.34,0,0,1-.1-.26.66.66,0,0,1,0-.21l.6-3h-.65l.08-.37h.39a.34.34,0,0,0,.24-.07.55.55,0,0,0,.09-.24l.16-.79h.4l-.22,1.1h.88l-.08.37h-.87l-.64,3.19h.82l-.08.38Z"/><path class="cls-7" d="M136.83,251.66a1.29,1.29,0,0,1-1-.4,1.63,1.63,0,0,1-.38-1.14,3.52,3.52,0,0,1,.14-1,3,3,0,0,1,.4-.82,1.91,1.91,0,0,1,.63-.57,1.7,1.7,0,0,1,.84-.22,1.31,1.31,0,0,1,1,.41,1.61,1.61,0,0,1,.37,1.14,3.52,3.52,0,0,1-.14,1,2.51,2.51,0,0,1-.4.82,1.91,1.91,0,0,1-.63.57A1.65,1.65,0,0,1,136.83,251.66Zm0-.37a1.24,1.24,0,0,0,.89-.37,2.07,2.07,0,0,0,.5-1l.09-.47a.76.76,0,0,0,0-.21,1.62,1.62,0,0,0,0-.22,1.42,1.42,0,0,0-.06-.42.89.89,0,0,0-.19-.33.81.81,0,0,0-.31-.23,1.14,1.14,0,0,0-.43-.08,1.24,1.24,0,0,0-.89.37,2,2,0,0,0-.5,1.05l-.09.47a1.55,1.55,0,0,0,0,.21v.22a1.19,1.19,0,0,0,.24.76A.93.93,0,0,0,136.88,251.29Z"/><path class="cls-7" d="M140,252.48a1,1,0,0,1-.21.47.65.65,0,0,1-.5.16h-.57l.08-.37h.72l1-4.74h-.7l.07-.37h.7l.23-1.13a.94.94,0,0,1,.21-.46.64.64,0,0,1,.5-.17h.65l-.08.38h-.81l-.27,1.38h.79l-.08.37h-.78Z"/><path class="cls-7" d="M98.94,260.82a.4.4,0,0,1-.31-.1.33.33,0,0,1-.09-.25,1.25,1.25,0,0,1,0-.21l.6-3h-.64l.07-.38H99a.29.29,0,0,0,.23-.07.38.38,0,0,0,.1-.23l.16-.8h.4l-.22,1.1h.88l-.08.38h-.87L99,260.44h.81l-.07.38Z"/><path class="cls-7" d="M101.85,255.12h.43l-.51,2.54h0a1.7,1.7,0,0,1,.52-.66,1.22,1.22,0,0,1,.76-.22,1,1,0,0,1,.76.28,1.14,1.14,0,0,1,.25.79,2.26,2.26,0,0,1,0,.25,1.17,1.17,0,0,1,0,.26l-.42,2.08h.61l-.07.38h-.58a.41.41,0,0,1-.27-.08.28.28,0,0,1-.1-.25v-.07a.28.28,0,0,1,0-.08l.4-2,0-.25a1.42,1.42,0,0,0,0-.19c0-.51-.24-.76-.71-.76a1.13,1.13,0,0,0-.45.09,1.16,1.16,0,0,0-.4.29,1.9,1.9,0,0,0-.31.44,2.13,2.13,0,0,0-.2.55l-.45,2.29h-.43Z"/><path class="cls-7" d="M106.51,260.91a1.37,1.37,0,0,1-1.06-.4,1.72,1.72,0,0,1-.38-1.21,3.12,3.12,0,0,1,.15-1,2.63,2.63,0,0,1,.41-.8,1.82,1.82,0,0,1,.63-.54,1.64,1.64,0,0,1,.82-.21,1.53,1.53,0,0,1,.49.07,1.14,1.14,0,0,1,.4.19.94.94,0,0,1,.27.32.89.89,0,0,1,.1.44,1,1,0,0,1-.14.5,1.15,1.15,0,0,1-.46.4,3.45,3.45,0,0,1-.87.27,8.12,8.12,0,0,1-1.34.11.88.88,0,0,0,0,.17c0,.07,0,.12,0,.16a1.22,1.22,0,0,0,.26.84,1,1,0,0,0,.78.28,1.5,1.5,0,0,0,.75-.2,2,2,0,0,0,.56-.56l.29.23a2,2,0,0,1-.76.7A1.86,1.86,0,0,1,106.51,260.91Zm.53-3.75a1.23,1.23,0,0,0-.92.39,2.06,2.06,0,0,0-.5,1l0,.19a10.25,10.25,0,0,0,1.18-.1,2.85,2.85,0,0,0,.71-.19.72.72,0,0,0,.34-.29.74.74,0,0,0,.09-.36.56.56,0,0,0-.23-.49A1.18,1.18,0,0,0,107,257.16Z"/><path class="cls-7" d="M112.22,260.91a1.37,1.37,0,0,1-1.07-.4,1.72,1.72,0,0,1-.37-1.21,3.12,3.12,0,0,1,.14-1,2.87,2.87,0,0,1,.41-.8A1.91,1.91,0,0,1,112,257a1.65,1.65,0,0,1,.83-.21,1.61,1.61,0,0,1,.49.07,1.18,1.18,0,0,1,.39.19.76.76,0,0,1,.27.32.89.89,0,0,1,.1.44.88.88,0,0,1-.14.5,1.09,1.09,0,0,1-.46.4,3.45,3.45,0,0,1-.87.27,8.12,8.12,0,0,1-1.34.11.88.88,0,0,0,0,.17v.16a1.22,1.22,0,0,0,.25.84,1,1,0,0,0,.78.28,1.45,1.45,0,0,0,.75-.2,1.87,1.87,0,0,0,.56-.56l.29.23a2,2,0,0,1-.76.7A1.85,1.85,0,0,1,112.22,260.91Zm.52-3.75a1.21,1.21,0,0,0-.91.39,2,2,0,0,0-.51,1l0,.19a10,10,0,0,0,1.18-.1,2.73,2.73,0,0,0,.71-.19.67.67,0,0,0,.34-.29.74.74,0,0,0,.09-.36.53.53,0,0,0-.23-.49A1.18,1.18,0,0,0,112.74,257.16Z"/><path class="cls-7" d="M114.11,260.82l1.78-2-1-1.92h.45l.82,1.64h0l1.41-1.64h.5l-1.73,2,1,2H117l-.87-1.7h0l-1.46,1.7Z"/><path class="cls-7" d="M119.47,255.12h.42l-.51,2.54h0a1.8,1.8,0,0,1,.52-.66,1.26,1.26,0,0,1,.76-.22,1,1,0,0,1,.77.28,1.19,1.19,0,0,1,.25.79,2.26,2.26,0,0,1,0,.25,2.34,2.34,0,0,1,0,.26l-.42,2.08h.6l-.07.38h-.58a.46.46,0,0,1-.27-.08.31.31,0,0,1-.1-.25v-.07a.45.45,0,0,1,0-.08l.39-2c0-.09,0-.17,0-.25s0-.14,0-.19c0-.51-.24-.76-.72-.76a1.12,1.12,0,0,0-.44.09,1.19,1.19,0,0,0-.41.29,1.88,1.88,0,0,0-.3.44,1.82,1.82,0,0,0-.2.55l-.46,2.29h-.42Z"/><path class="cls-7" d="M123.09,260.82a.39.39,0,0,1-.3-.1.36.36,0,0,1-.09-.26v-.06a.31.31,0,0,1,0-.09l.7-3.44h.42l-.72,3.57h.6l-.07.38Zm.76-5a.27.27,0,0,1-.2-.06.24.24,0,0,1-.06-.15v-.06a.75.75,0,0,0,0-.11.29.29,0,0,1,.33-.25.25.25,0,0,1,.21.07.2.2,0,0,1,.06.15.43.43,0,0,0,0,.05s0,.06,0,.12A.29.29,0,0,1,123.85,255.8Z"/><path class="cls-7" d="M125.69,255.12h.43l-.53,2.61h0a2.08,2.08,0,0,1,.55-.71,1.22,1.22,0,0,1,.77-.24,1.19,1.19,0,0,1,.51.11,1,1,0,0,1,.39.3,1.16,1.16,0,0,1,.24.47,2,2,0,0,1,.09.61,3.87,3.87,0,0,1-.12,1,2.83,2.83,0,0,1-.36.85,2.21,2.21,0,0,1-.61.61,1.55,1.55,0,0,1-.84.23,1.26,1.26,0,0,1-.71-.19,1,1,0,0,1-.4-.56h0l-.13.66h-.43Zm.51,5.41a1.25,1.25,0,0,0,.92-.36,2,2,0,0,0,.48-1l.1-.46a1.8,1.8,0,0,0,0-.22,1.66,1.66,0,0,0,0-.24,1.86,1.86,0,0,0,0-.42,1,1,0,0,0-.17-.34.69.69,0,0,0-.28-.22,1,1,0,0,0-.4-.08,1.13,1.13,0,0,0-.45.09,1.33,1.33,0,0,0-.38.27,2.34,2.34,0,0,0-.37.45,1.92,1.92,0,0,0-.22.61l-.18.92a.81.81,0,0,0,0,.38.71.71,0,0,0,.15.33.76.76,0,0,0,.31.24A1.5,1.5,0,0,0,126.2,260.53Z"/><path class="cls-7" d="M129.37,260.82a.4.4,0,0,1-.3-.1.36.36,0,0,1-.09-.26v-.06a.31.31,0,0,1,0-.09l.69-3.44h.43l-.72,3.57h.6l-.07.38Zm.76-5a.27.27,0,0,1-.2-.06.24.24,0,0,1-.06-.15v-.06a.75.75,0,0,0,0-.11.29.29,0,0,1,.33-.25.25.25,0,0,1,.21.07.2.2,0,0,1,.06.15.11.11,0,0,1,0,.05s0,.06,0,.12A.29.29,0,0,1,130.13,255.8Z"/><path class="cls-7" d="M131.46,260.82a.39.39,0,0,1-.31-.1.33.33,0,0,1-.09-.25.68.68,0,0,1,0-.21l.6-3H131l.08-.38h.39a.3.3,0,0,0,.24-.07.46.46,0,0,0,.09-.23l.17-.8h.4l-.23,1.1h.88l-.08.38h-.87l-.64,3.19h.82l-.08.38Z"/><path class="cls-7" d="M133.71,260.82a.38.38,0,0,1-.3-.1.36.36,0,0,1-.1-.26v-.06a.37.37,0,0,1,0-.09l.69-3.44h.43l-.72,3.57h.6l-.08.38Zm.76-5a.25.25,0,0,1-.2-.06.24.24,0,0,1-.06-.15v-.06a.89.89,0,0,1,0-.11.29.29,0,0,1,.33-.25.25.25,0,0,1,.21.07.25.25,0,0,1,0,.15v.05s0,.06,0,.12A.29.29,0,0,1,134.47,255.8Z"/><path class="cls-7" d="M136.62,260.91a1.26,1.26,0,0,1-1-.41,1.6,1.6,0,0,1-.37-1.13,3.18,3.18,0,0,1,.14-1,2.76,2.76,0,0,1,.39-.83,2.14,2.14,0,0,1,.63-.57,1.69,1.69,0,0,1,.84-.21,1.3,1.3,0,0,1,1,.41,1.6,1.6,0,0,1,.37,1.13,3.14,3.14,0,0,1-.14,1,2.65,2.65,0,0,1-.39.83,2,2,0,0,1-.64.57A1.63,1.63,0,0,1,136.62,260.91Zm0-.38a1.2,1.2,0,0,0,.89-.37,1.92,1.92,0,0,0,.5-1l.09-.47a.89.89,0,0,0,0-.22,1.48,1.48,0,0,0,0-.22,1.4,1.4,0,0,0-.06-.41.88.88,0,0,0-.19-.34.84.84,0,0,0-.3-.22,1.25,1.25,0,0,0-1.33.29,2,2,0,0,0-.5,1.05l-.09.47a.76.76,0,0,0,0,.21,1.55,1.55,0,0,0,0,.22,1.11,1.11,0,0,0,.25.75A.89.89,0,0,0,136.67,260.53Z"/><path class="cls-7" d="M139.35,260.82l.78-3.95h.43l-.16.79h0A1.8,1.8,0,0,1,141,257a1.26,1.26,0,0,1,.76-.22,1,1,0,0,1,.77.28,1.14,1.14,0,0,1,.25.79,2.26,2.26,0,0,1,0,.25,2.34,2.34,0,0,1,0,.26l-.42,2.08h.6l-.08.38h-.57a.43.43,0,0,1-.27-.08.3.3,0,0,1-.1-.24v-.11l0-.11.38-1.92c0-.09,0-.17,0-.25s0-.14,0-.19c0-.51-.24-.76-.72-.76a1.12,1.12,0,0,0-.44.09,1.19,1.19,0,0,0-.41.29,1.88,1.88,0,0,0-.3.44,1.82,1.82,0,0,0-.2.55l-.46,2.29Z"/><path class="cls-8" d="M109.82,62.17V47.27H120v2.88h-6.89v3H119v2.88h-5.91v3.23H120v2.88Z"/><path class="cls-8" d="M122.6,62.17V51h3.16v1.9h.12a3.4,3.4,0,0,1,1.05-1.51,3.59,3.59,0,0,1,4.68.51,5.3,5.3,0,0,1,.89,3.29v7h-3.16V55.4a3,3,0,0,0-.34-1.61,1.34,1.34,0,0,0-1.22-.52,3.06,3.06,0,0,0-.74.09,2,2,0,0,0-.65.31,1.55,1.55,0,0,0-.46.53,1.36,1.36,0,0,0-.17.71v7.26Z"/><path class="cls-8" d="M140,62.42a6,6,0,0,1-2.28-.41,4.68,4.68,0,0,1-1.7-1.18A5,5,0,0,1,135,59a8.08,8.08,0,0,1-.35-2.44,8.18,8.18,0,0,1,.34-2.4,5.07,5.07,0,0,1,1-1.84,4.52,4.52,0,0,1,1.65-1.19,5.85,5.85,0,0,1,2.24-.41,5.4,5.4,0,0,1,2.38.47,4.43,4.43,0,0,1,1.62,1.26,5,5,0,0,1,.92,1.82,8.12,8.12,0,0,1,.29,2.17v.94h-7.19v.16a2.5,2.5,0,0,0,.59,1.75,2.46,2.46,0,0,0,1.88.65,2.85,2.85,0,0,0,1.6-.4,6.05,6.05,0,0,0,1.16-.94l1.57,2a4.84,4.84,0,0,1-2,1.37A7.16,7.16,0,0,1,140,62.42ZM139.93,53a1.89,1.89,0,0,0-1.51.63,2.49,2.49,0,0,0-.54,1.68v.17h3.92v-.19a2.72,2.72,0,0,0-.46-1.66A1.61,1.61,0,0,0,139.93,53Z"/><path class="cls-8" d="M147.31,62.17V51h3.16V53.4h.1a3.6,3.6,0,0,1,.3-.91,2.9,2.9,0,0,1,.57-.78,2.43,2.43,0,0,1,.84-.54,2.91,2.91,0,0,1,1.15-.21H154v2.95h-.79a4.52,4.52,0,0,0-2.06.36,1.39,1.39,0,0,0-.67,1.35v6.55Z"/><path class="cls-8" d="M166.3,63a3.78,3.78,0,0,1-.31,1.58,2.78,2.78,0,0,1-1,1.16,5.33,5.33,0,0,1-1.87.73,14.44,14.44,0,0,1-2.87.24,14.24,14.24,0,0,1-2.46-.18,5.75,5.75,0,0,1-1.65-.51,2.21,2.21,0,0,1-.91-.81,2,2,0,0,1-.29-1.1,2,2,0,0,1,.55-1.48A2.7,2.7,0,0,1,157,62v-.23a1.85,1.85,0,0,1-1.22-.7,2,2,0,0,1-.4-1.27,1.61,1.61,0,0,1,.18-.78,2,2,0,0,1,.47-.57,2.13,2.13,0,0,1,.67-.4,4.5,4.5,0,0,1,.77-.23v-.09A3.31,3.31,0,0,1,156,56.39a3.72,3.72,0,0,1-.49-1.91,3.46,3.46,0,0,1,1.19-2.74,5.36,5.36,0,0,1,3.61-1,7.44,7.44,0,0,1,1.9.21v-.43a1.69,1.69,0,0,1,.44-1.29,1.82,1.82,0,0,1,1.25-.39h1.77v2.35h-2.48v.12a3.31,3.31,0,0,1,1.46,1.29,3.83,3.83,0,0,1,.47,1.91,3.36,3.36,0,0,1-1.19,2.7,5.43,5.43,0,0,1-3.62,1,7.67,7.67,0,0,1-2-.24,1,1,0,0,0-.49.9.73.73,0,0,0,.31.63,1.79,1.79,0,0,0,1,.22h3.25a4.3,4.3,0,0,1,3,.86A3.1,3.1,0,0,1,166.3,63Zm-3,.42a.83.83,0,0,0-.39-.74,2.53,2.53,0,0,0-1.34-.26h-3.84a1.14,1.14,0,0,0-.31.48,1.41,1.41,0,0,0-.1.52,1,1,0,0,0,.53.91,4.15,4.15,0,0,0,1.82.29H161a4.1,4.1,0,0,0,1.81-.29A1,1,0,0,0,163.34,63.4Zm-3.06-7.29a2.05,2.05,0,0,0,1.4-.4,1.39,1.39,0,0,0,.46-1.13v-.26a1.39,1.39,0,0,0-.46-1.13,2.69,2.69,0,0,0-2.79,0,1.39,1.39,0,0,0-.46,1.13v.26a1.39,1.39,0,0,0,.46,1.13A2,2,0,0,0,160.28,56.11Z"/><path class="cls-8" d="M174.56,51h2.94l-4.31,12.93a4,4,0,0,1-1.2,1.93,3.52,3.52,0,0,1-2.23.61h-2V64h2.12l.38-1.24L166.37,51h3.13l1.65,5.23.81,3.24h.12l.84-3.24Z"/><path class="cls-8" d="M193.06,61a7.37,7.37,0,0,1-1.71,1,6.25,6.25,0,0,1-2.56.45,6.8,6.8,0,0,1-2.17-.31,4.23,4.23,0,0,1-1.58-.87,3.71,3.71,0,0,1-1-1.33,4.05,4.05,0,0,1-.33-1.65A3.8,3.8,0,0,1,184,56.9a3.9,3.9,0,0,1,.62-1.09,4.81,4.81,0,0,1,.95-.9c.37-.27.77-.53,1.19-.79a9.51,9.51,0,0,1-.62-.75,8.1,8.1,0,0,1-.53-.85,4.48,4.48,0,0,1-.37-.94,3.77,3.77,0,0,1-.14-1,3.16,3.16,0,0,1,.31-1.38,3.34,3.34,0,0,1,.89-1.14,4.45,4.45,0,0,1,1.41-.77,5.94,5.94,0,0,1,1.85-.27,6.13,6.13,0,0,1,1.7.22,4.15,4.15,0,0,1,1.35.66,3.17,3.17,0,0,1,.91,1.08,3.13,3.13,0,0,1,.33,1.45,3.28,3.28,0,0,1-.24,1.28,3.85,3.85,0,0,1-.64,1.06,5.36,5.36,0,0,1-1,.88,13.36,13.36,0,0,1-1.14.77l2.31,2.5a8.39,8.39,0,0,0,.42-1.45,11.74,11.74,0,0,0,.2-1.52h3.56v2.63H196a9.3,9.3,0,0,1-1,2.36l3,3.23h-3.82Zm-3.8-1.15a3.8,3.8,0,0,0,2.16-.6l-3.14-3.39a3,3,0,0,0-1,.87,1.81,1.81,0,0,0-.3,1v.21a1.75,1.75,0,0,0,.57,1.34A2.47,2.47,0,0,0,189.26,59.8Zm.17-10.37a1.47,1.47,0,0,0-1,.32,1.08,1.08,0,0,0-.39.89v.09a1.48,1.48,0,0,0,.28.84,10,10,0,0,0,.93,1.16,4.24,4.24,0,0,0,1.13-.9,1.65,1.65,0,0,0,.39-1.1v-.09a1.06,1.06,0,0,0-.4-.89A1.44,1.44,0,0,0,189.43,49.43Z"/><path class="cls-8" d="M44.09,75.76v12H40.85v-12h-4V72.88H48.12v2.88Z"/><path class="cls-8" d="M50.17,87.77V76.57h3.16V79h.11a3,3,0,0,1,.3-.9,2.68,2.68,0,0,1,1.4-1.33,3.16,3.16,0,0,1,1.16-.2h.55v3h-.79a4.55,4.55,0,0,0-2.06.36,1.38,1.38,0,0,0-.67,1.34v6.55Z"/><path class="cls-8" d="M67.07,87.77a2,2,0,0,1-1.42-.53,2.47,2.47,0,0,1-.71-1.43h-.13a2.56,2.56,0,0,1-1.13,1.65,3.86,3.86,0,0,1-2.16.57,3.53,3.53,0,0,1-2.58-.89,3.19,3.19,0,0,1-.89-2.36,2.94,2.94,0,0,1,1.29-2.63,6.2,6.2,0,0,1,3.51-.86h1.77v-.71a1.85,1.85,0,0,0-.43-1.29,1.83,1.83,0,0,0-1.43-.48,2.48,2.48,0,0,0-1.49.41,4,4,0,0,0-.92.91l-1.88-1.67a5,5,0,0,1,1.72-1.58A5.86,5.86,0,0,1,63,76.31a5.28,5.28,0,0,1,3.58,1,3.84,3.84,0,0,1,1.2,3v4.91h1v2.45ZM62.7,85.83a2.53,2.53,0,0,0,1.35-.34,1.17,1.17,0,0,0,.57-1.1V83.08H63.08c-1.24,0-1.85.42-1.85,1.25v.32a1,1,0,0,0,.38.9A1.81,1.81,0,0,0,62.7,85.83Z"/><path class="cls-8" d="M70.94,87.77V76.57h3.15v1.9h.13a3.4,3.4,0,0,1,1-1.51,3,3,0,0,1,2.07-.65A3.09,3.09,0,0,1,80,77.47a5.29,5.29,0,0,1,.89,3.28v7H77.68V81a3.06,3.06,0,0,0-.34-1.61,1.35,1.35,0,0,0-1.22-.52,3.14,3.14,0,0,0-.75.09,2.06,2.06,0,0,0-.65.31,1.76,1.76,0,0,0-.46.52,1.53,1.53,0,0,0-.17.72v7.25Z"/><path class="cls-8" d="M87.45,88a5.8,5.8,0,0,1-4.71-2l1.85-1.87a4.77,4.77,0,0,0,1.32,1,3.46,3.46,0,0,0,1.65.39,2.18,2.18,0,0,0,1.3-.29.94.94,0,0,0,.36-.78c0-.53-.37-.84-1.13-.94l-1.21-.15Q83.1,83,83.1,80a3.44,3.44,0,0,1,.31-1.48,3.28,3.28,0,0,1,.87-1.15,4.21,4.21,0,0,1,1.37-.75,5.58,5.58,0,0,1,1.8-.27,8.88,8.88,0,0,1,1.55.12,5.24,5.24,0,0,1,1.19.34,4.56,4.56,0,0,1,1,.56,9.62,9.62,0,0,1,.87.73L90.2,79.92a4,4,0,0,0-1.2-.84,3.22,3.22,0,0,0-1.38-.31,2,2,0,0,0-1.15.25.82.82,0,0,0-.34.69.93.93,0,0,0,.24.69,1.78,1.78,0,0,0,.93.35l1.26.17q3.69.49,3.69,3.38a3.26,3.26,0,0,1-.34,1.49,3.43,3.43,0,0,1-1,1.18,4.41,4.41,0,0,1-1.51.78A6.49,6.49,0,0,1,87.45,88Z"/><path class="cls-8" d="M94.41,76.57h3.16v1.88h.1a2.65,2.65,0,0,1,1.08-1.54,3.25,3.25,0,0,1,1.93-.6,3.74,3.74,0,0,1,3.23,1.5A7.37,7.37,0,0,1,105,82.16a7.46,7.46,0,0,1-1.08,4.37,3.74,3.74,0,0,1-3.23,1.5,3.19,3.19,0,0,1-1-.16,3.24,3.24,0,0,1-.89-.45,2.88,2.88,0,0,1-.67-.68,2.73,2.73,0,0,1-.41-.84h-.1V92H94.41Zm5.23,8.9a1.94,1.94,0,0,0,1.48-.63,2.41,2.41,0,0,0,.59-1.7V81.2a2.37,2.37,0,0,0-.59-1.69,1.94,1.94,0,0,0-1.48-.63,2.44,2.44,0,0,0-1.49.43,1.43,1.43,0,0,0-.58,1.21v3.31a1.41,1.41,0,0,0,.58,1.2A2.44,2.44,0,0,0,99.64,85.47Z"/><path class="cls-8" d="M111.93,88a5.69,5.69,0,0,1-2.21-.41,4.4,4.4,0,0,1-1.64-1.17,5.26,5.26,0,0,1-1-1.86,8.38,8.38,0,0,1,0-4.86,5.21,5.21,0,0,1,1-1.85,4.49,4.49,0,0,1,1.64-1.16,6.16,6.16,0,0,1,4.42,0,4.58,4.58,0,0,1,1.64,1.16,5.37,5.37,0,0,1,1,1.85,8.38,8.38,0,0,1,0,4.86,5.42,5.42,0,0,1-1,1.86,4.48,4.48,0,0,1-1.64,1.17A5.73,5.73,0,0,1,111.93,88Zm0-2.5a1.85,1.85,0,0,0,1.45-.57,2.41,2.41,0,0,0,.51-1.65V81a2.39,2.39,0,0,0-.51-1.64,2.1,2.1,0,0,0-2.9,0A2.39,2.39,0,0,0,110,81v2.28a2.41,2.41,0,0,0,.51,1.65A1.84,1.84,0,0,0,111.93,85.53Z"/><path class="cls-8" d="M119.42,87.77V76.57h3.16V79h.1a3.66,3.66,0,0,1,.3-.9,2.7,2.7,0,0,1,.57-.78,2.61,2.61,0,0,1,.84-.55,3.11,3.11,0,0,1,1.15-.2h.56v3h-.79a4.52,4.52,0,0,0-2.06.36,1.38,1.38,0,0,0-.67,1.34v6.55Z"/><path class="cls-8" d="M132,87.77a3.37,3.37,0,0,1-2.49-.83,3.26,3.26,0,0,1-.84-2.43V79h-1.58V76.57h.79a1,1,0,0,0,.87-.31,1.4,1.4,0,0,0,.24-.88V73.54h2.84v3H134V79H131.8v6.3h2v2.45Z"/><path class="cls-8" d="M152.56,78h-.06l-1.09,2.18-2.91,5.27-2.83-5.25-1.13-2.35h-.07v9.92h-3.05V72.88h3.44l3.64,7h.05l3.6-7h3.46V87.77h-3.05Z"/><path class="cls-8" d="M167,87.77a2,2,0,0,1-1.42-.53,2.42,2.42,0,0,1-.72-1.43h-.13a2.53,2.53,0,0,1-1.13,1.65,3.85,3.85,0,0,1-2.15.57,3.5,3.5,0,0,1-2.58-.89,3.2,3.2,0,0,1-.9-2.36,2.94,2.94,0,0,1,1.29-2.63,6.2,6.2,0,0,1,3.51-.86h1.77v-.71a1.89,1.89,0,0,0-.42-1.29,1.85,1.85,0,0,0-1.43-.48,2.49,2.49,0,0,0-1.5.41,4.18,4.18,0,0,0-.92.91l-1.87-1.67a4.88,4.88,0,0,1,1.71-1.58,5.86,5.86,0,0,1,2.81-.57,5.32,5.32,0,0,1,3.59,1,3.87,3.87,0,0,1,1.19,3v4.91h1v2.45Zm-4.38-1.94a2.57,2.57,0,0,0,1.36-.34,1.18,1.18,0,0,0,.56-1.1V83.08H163c-1.24,0-1.86.42-1.86,1.25v.32a1.06,1.06,0,0,0,.38.9A1.81,1.81,0,0,0,162.63,85.83Z"/><path class="cls-8" d="M170.87,87.77V76.57H174v1.9h.13a3.3,3.3,0,0,1,1-1.51,3.56,3.56,0,0,1,4.68.51,5.23,5.23,0,0,1,.89,3.28v7h-3.16V81a3,3,0,0,0-.34-1.61,1.34,1.34,0,0,0-1.22-.52,3.06,3.06,0,0,0-.74.09,2.06,2.06,0,0,0-.65.31,1.52,1.52,0,0,0-.46.52,1.42,1.42,0,0,0-.17.72v7.25Z"/><path class="cls-8" d="M191.87,87.77a2,2,0,0,1-1.42-.53,2.42,2.42,0,0,1-.72-1.43h-.12a2.57,2.57,0,0,1-1.14,1.65,3.85,3.85,0,0,1-2.15.57,3.51,3.51,0,0,1-2.58-.89,3.2,3.2,0,0,1-.9-2.36,2.94,2.94,0,0,1,1.29-2.63,6.2,6.2,0,0,1,3.51-.86h1.77v-.71a1.89,1.89,0,0,0-.42-1.29,1.84,1.84,0,0,0-1.43-.48,2.49,2.49,0,0,0-1.5.41,3.93,3.93,0,0,0-.91.91l-1.88-1.67A4.82,4.82,0,0,1,185,76.88a5.81,5.81,0,0,1,2.8-.57,5.32,5.32,0,0,1,3.59,1,3.87,3.87,0,0,1,1.19,3v4.91h1.05v2.45Zm-4.38-1.94a2.57,2.57,0,0,0,1.36-.34,1.18,1.18,0,0,0,.56-1.1V83.08h-1.53c-1.24,0-1.86.42-1.86,1.25v.32a1.06,1.06,0,0,0,.38.9A1.81,1.81,0,0,0,187.49,85.83Z"/><path class="cls-8" d="M206.1,88.59a3.7,3.7,0,0,1-.31,1.57,2.74,2.74,0,0,1-1,1.17,5.14,5.14,0,0,1-1.87.72,13.65,13.65,0,0,1-2.87.25,14.24,14.24,0,0,1-2.46-.18,5.44,5.44,0,0,1-1.65-.52,2.21,2.21,0,0,1-.91-.81,2,2,0,0,1-.29-1.1,2,2,0,0,1,.55-1.47,2.7,2.7,0,0,1,1.54-.66v-.23a1.85,1.85,0,0,1-1.22-.7,2.07,2.07,0,0,1-.4-1.27,1.61,1.61,0,0,1,.18-.78,2.18,2.18,0,0,1,.47-.58,2.32,2.32,0,0,1,.67-.39,5.68,5.68,0,0,1,.77-.24v-.08A3.37,3.37,0,0,1,195.77,82a3.74,3.74,0,0,1-.49-1.91,3.46,3.46,0,0,1,1.19-2.74,5.36,5.36,0,0,1,3.61-1,7.4,7.4,0,0,1,1.9.22V76.1a1.66,1.66,0,0,1,.44-1.29,1.82,1.82,0,0,1,1.25-.39h1.77v2.34H203v.13a3.2,3.2,0,0,1,1.46,1.29,3.83,3.83,0,0,1,.46,1.91,3.36,3.36,0,0,1-1.18,2.7,5.45,5.45,0,0,1-3.62,1,7.67,7.67,0,0,1-2-.24,1,1,0,0,0-.49.9.73.73,0,0,0,.31.63,1.79,1.79,0,0,0,1,.22h3.25a4.3,4.3,0,0,1,3,.85A3.13,3.13,0,0,1,206.1,88.59Zm-3,.42a.81.81,0,0,0-.38-.74,2.43,2.43,0,0,0-1.34-.26h-3.84a1.14,1.14,0,0,0-.31.48,1.41,1.41,0,0,0-.1.52,1,1,0,0,0,.53.91,4.15,4.15,0,0,0,1.82.29h1.28a4.1,4.1,0,0,0,1.81-.29A1,1,0,0,0,203.13,89Zm-3-7.3a2.11,2.11,0,0,0,1.4-.39,1.39,1.39,0,0,0,.46-1.13v-.26a1.39,1.39,0,0,0-.46-1.13,2.69,2.69,0,0,0-2.79,0,1.39,1.39,0,0,0-.46,1.13v.26a1.39,1.39,0,0,0,.46,1.13A2.1,2.1,0,0,0,200.08,81.71Z"/><path class="cls-8" d="M212.18,88a5.87,5.87,0,0,1-2.28-.42,4.54,4.54,0,0,1-1.7-1.17,4.85,4.85,0,0,1-1-1.85,7.67,7.67,0,0,1-.35-2.43,7.86,7.86,0,0,1,.34-2.4,4.91,4.91,0,0,1,1-1.84,4.48,4.48,0,0,1,1.65-1.19,5.7,5.7,0,0,1,2.24-.42,5.55,5.55,0,0,1,2.38.47A4.6,4.6,0,0,1,216.06,78a5.07,5.07,0,0,1,.91,1.83,7.72,7.72,0,0,1,.29,2.16V83h-7.19v.17a2.18,2.18,0,0,0,2.48,2.39,3,3,0,0,0,1.6-.39,6.32,6.32,0,0,0,1.15-.94l1.58,2a5,5,0,0,1-2,1.37A7.12,7.12,0,0,1,212.18,88Zm-.06-9.39a1.9,1.9,0,0,0-1.51.63,2.49,2.49,0,0,0-.54,1.68v.17H214v-.2a2.78,2.78,0,0,0-.46-1.65A1.65,1.65,0,0,0,212.12,78.64Z"/><path class="cls-8" d="M219.5,87.77V76.57h3.16v1.9h.13a3.45,3.45,0,0,1,1-1.53,3,3,0,0,1,2-.63,3.32,3.32,0,0,1,2,.58,3.2,3.2,0,0,1,1.17,1.69H229a2.9,2.9,0,0,1,.46-.89,2.87,2.87,0,0,1,.76-.71,4,4,0,0,1,2.19-.67,2.93,2.93,0,0,1,2.49,1.16,5.36,5.36,0,0,1,.86,3.28v7h-3.15V81c0-1.42-.52-2.13-1.54-2.13a2.16,2.16,0,0,0-1.28.4,1.4,1.4,0,0,0-.58,1.24v7.25h-3.16V81q0-2.13-1.53-2.13a2.52,2.52,0,0,0-.67.09,1.8,1.8,0,0,0-.6.31,1.66,1.66,0,0,0-.43.52,1.53,1.53,0,0,0-.16.72v7.25Z"/><path class="cls-8" d="M243.25,88a5.87,5.87,0,0,1-2.28-.42,4.62,4.62,0,0,1-1.7-1.17,4.85,4.85,0,0,1-1-1.85,7.67,7.67,0,0,1-.35-2.43,7.86,7.86,0,0,1,.34-2.4,5,5,0,0,1,1-1.84,4.44,4.44,0,0,1,1.66-1.19,6.22,6.22,0,0,1,4.62,0A4.65,4.65,0,0,1,247.13,78a5.07,5.07,0,0,1,.91,1.83,7.72,7.72,0,0,1,.29,2.16V83h-7.19v.17a2.18,2.18,0,0,0,2.48,2.39,3,3,0,0,0,1.6-.39,6.32,6.32,0,0,0,1.15-.94l1.58,2A5.09,5.09,0,0,1,246,87.54,7.21,7.21,0,0,1,243.25,88Zm-.06-9.39a1.87,1.87,0,0,0-1.5.63,2.45,2.45,0,0,0-.55,1.68v.17h3.93v-.2a2.78,2.78,0,0,0-.46-1.65A1.65,1.65,0,0,0,243.19,78.64Z"/><path class="cls-8" d="M250.57,87.77V76.57h3.16v1.9h.13a3.4,3.4,0,0,1,1-1.51,3,3,0,0,1,2.07-.65,3.09,3.09,0,0,1,2.61,1.16,5.29,5.29,0,0,1,.89,3.28v7h-3.16V81A3.06,3.06,0,0,0,257,79.4a1.35,1.35,0,0,0-1.22-.52A3.08,3.08,0,0,0,255,79a2.06,2.06,0,0,0-.65.31,1.76,1.76,0,0,0-.46.52,1.53,1.53,0,0,0-.17.72v7.25Z"/><path class="cls-8" d="M267.22,87.77a3.37,3.37,0,0,1-2.49-.83,3.26,3.26,0,0,1-.84-2.43V79h-1.58V76.57h.79a1,1,0,0,0,.88-.31,1.46,1.46,0,0,0,.23-.88V73.54h2.84v3h2.22V79h-2.22v6.3h2.05v2.45Z"/></g></svg>