<svg xmlns="http://www.w3.org/2000/svg" viewBox="0 0 305.62 305.62"><defs><style>.cls-1,.cls-2,.cls-8{fill:none;stroke-miterlimit:10;}.cls-1{stroke:#fff;stroke-width:1.25px;}.cls-2{stroke:#000;stroke-width:0.25px;}.cls-3{fill:#e2001a;}.cls-4{fill:#2699d1;}.cls-5{fill:#1a171b;}.cls-6{fill:#e87e1d;}.cls-7{fill:#ea7c1b;}.cls-8{stroke:#ea7c1b;stroke-width:1.8px;}</style></defs><title>en_innoSurvey_nutzer_front</title><g id="Ebene_2" data-name="Ebene 2"><path class="cls-1" d="M284.62,290.62v15m0-290.62V0M21,290.62v15M21,15V0M290.62,284.62h15M15,284.62H0M290.62,21h15M15,21H0"/><path class="cls-2" d="M284.62,290.62v15m0-290.62V0M21,290.62v15M21,15V0M290.62,284.62h15M15,284.62H0M290.62,21h15M15,21H0"/></g><g id="Ebene_1" data-name="Ebene 1"><path class="cls-3" d="M152.52,240.91a4.45,4.45,0,0,0-.45,8.87c1.91.2,2.61,1.32,2.36,3.75,0,.24,0,.48,0,.73a7,7,0,1,0,7-7c-.24,0-.49,0-.73,0-2.43.26-3.55-.45-3.75-2.36a4.43,4.43,0,0,0-4.43-4m8.91,20.49a7.15,7.15,0,0,1-7.14-7.14c0-.25,0-.5,0-.74.25-2.39-.4-3.44-2.26-3.64a4.55,4.55,0,1,1,5-5c.2,1.86,1.25,2.51,3.64,2.26.24,0,.49,0,.74,0a7.14,7.14,0,0,1,0,14.28"/><path class="cls-3" d="M153.73,243.06a3.5,3.5,0,0,0-.36,7c1.52.16,2.08,1.05,1.88,3a5.55,5.55,0,1,0,4.94-4.94c-1.93.2-2.82-.36-3-1.88a3.49,3.49,0,0,0-3.48-3.14m7,16.19a5.66,5.66,0,0,1-5.62-6.24c.2-1.88-.32-2.71-1.78-2.86a3.61,3.61,0,1,1,4-4c.15,1.46,1,2,2.86,1.78l.58,0a5.66,5.66,0,1,1,0,11.31"/><path class="cls-3" d="M154.93,245.21a2.56,2.56,0,0,0-.26,5.1c1.12.12,1.54.78,1.39,2.2,0,.14,0,.28,0,.42a4.06,4.06,0,1,0,4.06-4.06l-.42,0c-1.42.15-2.08-.26-2.2-1.38a2.55,2.55,0,0,0-2.55-2.3m5.17,11.89a4.17,4.17,0,0,1-4.17-4.17,3.11,3.11,0,0,1,0-.43c.14-1.37-.24-2-1.3-2.08a2.67,2.67,0,1,1,2.92-2.93c.12,1.07.72,1.44,2.09,1.3a3.1,3.1,0,0,1,.43,0,4.17,4.17,0,1,1,0,8.33"/><path class="cls-3" d="M156.08,250.59c.65.11.89.54.8,1.41a2.44,2.44,0,0,0,0,.27,2.57,2.57,0,1,0,2.57-2.57h-.27a1.5,1.5,0,0,1-1.06-.17.88.88,0,0,1-.35-.63h0l0-.1a1.61,1.61,0,1,0-1.76,1.76h.1Zm3.36,4.36a2.68,2.68,0,0,1-2.68-2.68,2.62,2.62,0,0,1,0-.28c.11-1.06-.32-1.26-.81-1.31h-.1a1.72,1.72,0,1,1,2-2h0l0,.1a.83.83,0,0,0,.32.67,1.5,1.5,0,0,0,1,.14h.28a2.68,2.68,0,0,1,0,5.36"/><path class="cls-4" d="M162,240.71a8.32,8.32,0,0,0-8.31,8.31,8.43,8.43,0,0,0,.05.86c.29,2.86-.54,4.18-2.78,4.42a5.25,5.25,0,1,0,5.77,5.76c.23-2.24,1.55-3.07,4.41-2.77a8.31,8.31,0,1,0,.86-16.58m-10.5,24.18a5.36,5.36,0,0,1-.55-10.7c2.2-.23,3-1.47,2.68-4.3a8.47,8.47,0,1,1,7.5,7.5c-2.82-.29-4.07.49-4.3,2.68a5.34,5.34,0,0,1-5.33,4.82"/><path class="cls-4" d="M161.68,241.75a7.61,7.61,0,0,0-7.59,7.59c0,.26,0,.53,0,.79.27,2.62-.49,3.82-2.54,4a4.8,4.8,0,1,0,5.27,5.26c.21-2.05,1.42-2.81,4-2.54a6.91,6.91,0,0,0,.78,0,7.59,7.59,0,1,0,0-15.18m-9.6,22.1a4.91,4.91,0,0,1-.5-9.79c2-.21,2.71-1.34,2.45-3.92a7.26,7.26,0,0,1,0-.8,7.7,7.7,0,1,1,7.69,7.7c-.26,0-.53,0-.8,0-2.57-.27-3.71.44-3.92,2.44a4.89,4.89,0,0,1-4.88,4.41"/><path class="cls-4" d="M161.36,242.79a6.88,6.88,0,0,0-6.87,6.87,5.53,5.53,0,0,0,0,.71c.24,2.38-.44,3.47-2.31,3.67A4.34,4.34,0,1,0,157,258.8c.2-1.86,1.3-2.55,3.67-2.3l.71,0a6.87,6.87,0,0,0,0-13.74m-8.7,20a4.45,4.45,0,0,1-.45-8.88c1.81-.19,2.45-1.21,2.21-3.54,0-.25,0-.49,0-.73a7,7,0,1,1,7,7,5.79,5.79,0,0,1-.72,0c-2.33-.24-3.36.4-3.55,2.21a4.43,4.43,0,0,1-4.43,4"/><path class="cls-4" d="M161,243.83a6.16,6.16,0,0,0-6.15,6.15c0,.21,0,.43,0,.64.22,2.13-.39,3.12-2.07,3.29a3.89,3.89,0,1,0,4.26,4.26c.18-1.67,1.16-2.29,3.29-2.07l.64,0a6.15,6.15,0,1,0,0-12.3m-7.79,17.94a4,4,0,0,1-.41-8c1.62-.18,2.19-1.09,2-3.18,0-.22,0-.43,0-.65a6.26,6.26,0,1,1,6.26,6.26l-.65,0c-2.08-.22-3,.35-3.17,2a4,4,0,0,1-4,3.59"/><path class="cls-4" d="M160.72,244.88a5.42,5.42,0,0,0-5.4,6c.2,1.88-.35,2.76-1.84,2.91a3.43,3.43,0,1,0,3.76,3.76c.16-1.48,1-2,2.92-1.84l.56,0a5.43,5.43,0,1,0,0-10.85m-6.89,15.85a3.53,3.53,0,0,1-.36-7.05c1.43-.15,1.93-1,1.74-2.8a5.63,5.63,0,0,1,0-.58,5.54,5.54,0,1,1,5.54,5.54,5.44,5.44,0,0,1-.57,0c-1.84-.19-2.65.31-2.8,1.74a3.53,3.53,0,0,1-3.52,3.18"/><path class="cls-4" d="M160.4,245.92a4.71,4.71,0,0,0-4.71,4.71c0,.16,0,.32,0,.48.17,1.65-.3,2.41-1.6,2.54a3,3,0,1,0,3.26,3.26c.14-1.29.9-1.77,2.54-1.6a4,4,0,0,0,.49,0,4.71,4.71,0,1,0,0-9.41m-6,13.76a3.07,3.07,0,0,1-.32-6.13c1.24-.13,1.67-.84,1.51-2.43a4,4,0,0,1,0-.49,4.82,4.82,0,1,1,4.82,4.81,4.19,4.19,0,0,1-.5,0c-1.59-.16-2.29.28-2.42,1.51a3.06,3.06,0,0,1-3.06,2.76"/><path class="cls-4" d="M160.08,247a4,4,0,0,0-4,4c0,.13,0,.27,0,.41.15,1.4-.26,2-1.37,2.16a2.52,2.52,0,1,0,2.76,2.76c.12-1.1.76-1.51,2.16-1.37a3,3,0,0,0,.42,0,4,4,0,1,0,0-8M155,258.64a2.62,2.62,0,0,1-.27-5.22c1.05-.11,1.41-.7,1.27-2,0-.14,0-.28,0-.42a4.1,4.1,0,1,1,4.1,4.09l-.43,0c-1.34-.14-1.94.23-2,1.27a2.62,2.62,0,0,1-2.61,2.35"/><path class="cls-4" d="M155.48,253.38h0l-.11,0a2,2,0,0,0-1.85,2,2,2,0,0,0,4.09.2v-.11h0c.13-.83.67-1.14,1.78-1l.34,0a3.27,3.27,0,1,0-3.27-3.27,2,2,0,0,0,0,.34c.11,1.11-.2,1.65-1,1.77m.1,4.22a2.16,2.16,0,0,1-.32-4.29h.1c.85-.09,1.15-.57,1-1.67,0-.12,0-.24,0-.35a3.38,3.38,0,1,1,3,3.35c-1.1-.11-1.59.19-1.68,1v.11h0a2.14,2.14,0,0,1-2.13,1.84"/><path class="cls-4" d="M156.11,253.25H156a1.6,1.6,0,1,0,1.74,1.74v-.09c.11-.65.53-.89,1.4-.8l.27,0a2.55,2.55,0,1,0-2.55-2.55,2.35,2.35,0,0,0,0,.26c.09.87-.15,1.3-.79,1.4m.06,3.31a1.7,1.7,0,0,1-.28-3.38h0l.1,0c.48,0,.91-.24.8-1.3,0-.09,0-.18,0-.27a2.66,2.66,0,1,1,2.66,2.65h-.28c-1-.11-1.25.32-1.3.8v.11h0a1.69,1.69,0,0,1-1.67,1.43"/><path class="cls-4" d="M156.74,253.13h-.1a1.14,1.14,0,1,0,1.24,1.24v-.11a.63.63,0,0,1,.26-.42,1,1,0,0,1,.63-.13l0,0,.16,0H159l.14,0a1.83,1.83,0,1,0-1.83-1.83.71.71,0,0,0,0,.14v.19a1,1,0,0,1-.14.63.65.65,0,0,1-.43.26m0,2.39a1.25,1.25,0,0,1-.23-2.47h0l.1,0a.59.59,0,0,0,.47-.22,1.09,1.09,0,0,0,.1-.7V252h0v-.05a1.94,1.94,0,1,1,1.94,1.93h-.05l-.15,0a1,1,0,0,0-.71.11.63.63,0,0,0-.22.46v.12h0a1.24,1.24,0,0,1-1.22,1"/><path class="cls-5" d="M173.87,248.79a1.14,1.14,0,0,0,.23.73.77.77,0,0,0,1.2,0,1.12,1.12,0,0,0,.23-.75v-.05a1.27,1.27,0,0,0-.1-.52.85.85,0,0,0-.3-.37.78.78,0,0,0-.43-.13.73.73,0,0,0-.6.29,1.18,1.18,0,0,0-.23.75Zm-.28-.07a1.51,1.51,0,0,1,.14-.65,1,1,0,0,1,.39-.44,1,1,0,0,1,.58-.16,1,1,0,0,1,.8.35,1.35,1.35,0,0,1,.31.92v0a1.51,1.51,0,0,1-.14.65,1,1,0,0,1-.39.44,1.11,1.11,0,0,1-1.38-.19,1.36,1.36,0,0,1-.31-.92Z"/><path class="cls-5" d="M178.09,248.73a1.3,1.3,0,0,0-.19-.75.65.65,0,0,0-.55-.27.75.75,0,0,0-.43.12.82.82,0,0,0-.28.35v1.19a.83.83,0,0,0,.28.33.9.9,0,0,0,.44.11.61.61,0,0,0,.54-.28,1.37,1.37,0,0,0,.19-.8m.28.05a1.5,1.5,0,0,1-.26.92.81.81,0,0,1-.69.34.92.92,0,0,1-.78-.36V251h-.27v-3.44h.25l0,.36a.87.87,0,0,1,.77-.4.81.81,0,0,1,.7.34,1.49,1.49,0,0,1,.26.93Z"/><path class="cls-5" d="M179.88,247.7a.7.7,0,0,0-.52.23,1,1,0,0,0-.26.61h1.49v0a1,1,0,0,0-.2-.58.65.65,0,0,0-.51-.23m.05,2.34a1,1,0,0,1-.57-.16,1.11,1.11,0,0,1-.4-.43,1.41,1.41,0,0,1-.14-.62v-.1a1.51,1.51,0,0,1,.14-.65,1.07,1.07,0,0,1,.39-.45.92.92,0,0,1,.53-.16.9.9,0,0,1,.72.31,1.26,1.26,0,0,1,.26.84v.15h-1.77v.06a1,1,0,0,0,.25.7.78.78,0,0,0,.6.28.82.82,0,0,0,.7-.34l.17.13a1,1,0,0,1-.88.44"/><path class="cls-5" d="M181.66,247.52v.42a1,1,0,0,1,.34-.35.94.94,0,0,1,.47-.12.74.74,0,0,1,.59.22,1.08,1.08,0,0,1,.2.68V250H183v-1.62a.76.76,0,0,0-.14-.5.54.54,0,0,0-.44-.16.67.67,0,0,0-.45.16.89.89,0,0,0-.29.43V250h-.27v-2.47Z"/><path class="cls-5" d="M174,253.14v.41a1,1,0,0,1,.35-.34,1,1,0,0,1,.45-.11.7.7,0,0,1,.75.48,1.1,1.1,0,0,1,.35-.36,1.06,1.06,0,0,1,.5-.12q.79,0,.81.87v1.65h-.28V254a.73.73,0,0,0-.14-.49.57.57,0,0,0-.46-.16.69.69,0,0,0-.5.19.7.7,0,0,0-.23.45v1.64h-.27V254a.69.69,0,0,0-.15-.48.61.61,0,0,0-.45-.15.73.73,0,0,0-.45.14.92.92,0,0,0-.27.44v1.7h-.28v-2.48Z"/><path class="cls-5" d="M178,254.42a1.08,1.08,0,0,0,.23.73.77.77,0,0,0,1.2,0,1.12,1.12,0,0,0,.23-.75v-.05a1.27,1.27,0,0,0-.1-.52.85.85,0,0,0-.3-.37.8.8,0,0,0-.43-.13.73.73,0,0,0-.6.29,1.12,1.12,0,0,0-.23.75Zm-.28-.07a1.55,1.55,0,0,1,.14-.65,1,1,0,0,1,.39-.44,1.11,1.11,0,0,1,1.38.19,1.34,1.34,0,0,1,.3.92v0a1.51,1.51,0,0,1-.13.65,1.12,1.12,0,0,1-.39.44,1.11,1.11,0,0,1-1.38-.19,1.31,1.31,0,0,1-.31-.92Z"/><path class="cls-5" d="M182.25,254.36a1.28,1.28,0,0,0-.19-.76.63.63,0,0,0-.54-.26.72.72,0,0,0-.44.13.75.75,0,0,0-.28.38V255a.73.73,0,0,0,.73.47.61.61,0,0,0,.53-.27,1.35,1.35,0,0,0,.19-.8m.28,0a1.5,1.5,0,0,1-.26.92.81.81,0,0,1-.69.34.87.87,0,0,1-.78-.39l0,.34h-.25V252.1h.27v1.4a.85.85,0,0,1,.77-.4.83.83,0,0,1,.7.33,1.54,1.54,0,0,1,.26.94Z"/><path class="cls-5" d="M183.44,255.62h-.28v-2.48h.28Zm-.33-3.19a.19.19,0,0,1,0-.13.18.18,0,0,1,.14-.06.17.17,0,0,1,.14.06.19.19,0,0,1,.05.13.21.21,0,0,1-.05.13.2.2,0,0,1-.14.05.22.22,0,0,1-.14-.05.21.21,0,0,1,0-.13"/><rect class="cls-5" x="184.21" y="252.1" width="0.27" height="3.52"/><path class="cls-5" d="M185.54,255.62h-.27v-2.48h.27Zm-.32-3.19a.15.15,0,0,1,.05-.13.17.17,0,0,1,.14-.06.21.21,0,0,1,.19.19.18.18,0,0,1-.06.13.19.19,0,0,1-.13.05.2.2,0,0,1-.14-.05.17.17,0,0,1-.05-.13"/><path class="cls-5" d="M186.71,252.51v.63h.51v.23h-.51V255a.52.52,0,0,0,.08.31.26.26,0,0,0,.24.1l.23,0v.22a.8.8,0,0,1-.3,0,.53.53,0,0,1-.41-.16.82.82,0,0,1-.12-.49v-1.65H186v-.23h.46v-.63Z"/><path class="cls-5" d="M188.58,255.23l.72-2.09h.3l-1.06,2.9-.06.13a.66.66,0,0,1-.63.45l-.21,0v-.22h.14a.48.48,0,0,0,.33-.1.83.83,0,0,0,.21-.34l.12-.34-.93-2.46h.3Z"/><path class="cls-5" d="M173.94,261.25V259h-.41v-.23h.41v-.3a.82.82,0,0,1,.2-.58.68.68,0,0,1,.54-.2,1.36,1.36,0,0,1,.29,0l0,.23a1,1,0,0,0-.25,0,.49.49,0,0,0-.36.14.63.63,0,0,0-.12.41v.3h.59V259h-.59v2.25Z"/><path class="cls-5" d="M175.42,260.05a1.14,1.14,0,0,0,.23.73.75.75,0,0,0,.61.29.76.76,0,0,0,.6-.29,1.18,1.18,0,0,0,.23-.75v0a1.24,1.24,0,0,0-.11-.52.91.91,0,0,0-.29-.37.84.84,0,0,0-.44-.13.76.76,0,0,0-.6.29,1.18,1.18,0,0,0-.23.75Zm-.27-.07a1.38,1.38,0,0,1,.14-.65,1,1,0,0,1,.39-.44,1,1,0,0,1,.57-.16,1,1,0,0,1,.8.35,1.3,1.3,0,0,1,.31.92v.05a1.51,1.51,0,0,1-.14.65,1,1,0,0,1-.39.44,1,1,0,0,1-.57.16,1.05,1.05,0,0,1-.81-.35,1.36,1.36,0,0,1-.3-.92Z"/><path class="cls-5" d="M179.07,259l-.19,0a.64.64,0,0,0-.43.15.74.74,0,0,0-.25.41v1.7h-.28v-2.48h.27v.4a.73.73,0,0,1,.7-.44.48.48,0,0,1,.18,0Z"/><path class="cls-5" d="M181.1,260.94a.9.9,0,0,1-.79.36.75.75,0,0,1-.6-.23,1,1,0,0,1-.22-.68v-1.62h.28v1.58c0,.47.19.71.57.71a.69.69,0,0,0,.75-.49v-1.8h.28v2.48h-.27Z"/><path class="cls-5" d="M182.33,258.77v.41a.88.88,0,0,1,.8-.45.71.71,0,0,1,.75.48.91.91,0,0,1,.84-.48c.53,0,.8.29.82.87v1.65h-.28v-1.63a.73.73,0,0,0-.14-.49.59.59,0,0,0-.46-.16.68.68,0,0,0-.5.19.66.66,0,0,0-.23.45v1.64h-.27V259.6a.69.69,0,0,0-.15-.48.62.62,0,0,0-.46-.15.72.72,0,0,0-.44.14.86.86,0,0,0-.28.44v1.7h-.27v-2.48Z"/><path class="cls-3" d="M157.32,251.59l0,.15s0,0,0,.06a.66.66,0,0,0,0,.14,1.83,1.83,0,1,0,1.83-1.83h-.2l-.16,0,0,0c-.53,0-.8-.15-.88-.57h0l0-.1a1.14,1.14,0,1,0-1.24,1.24l.1,0c.42.08.59.35.57.88Zm1.79,2.28a1.94,1.94,0,0,1-1.94-1.93v-.06h0v-.15c.08-.71-.17-.88-.57-.93l-.1,0a1.23,1.23,0,0,1-1-1.22,1.25,1.25,0,0,1,1.25-1.24,1.23,1.23,0,0,1,1.22,1h0v.1c0,.4.21.64.93.57h.2a1.94,1.94,0,0,1,0,3.87"/><path class="cls-3" d="M155.43,250.46c.85.12,1.16.67,1,1.8,0,.11,0,.23,0,.34a3.32,3.32,0,1,0,3-3.3c-1.13.12-1.67-.19-1.8-1h0v-.11a2.07,2.07,0,0,0-2.06-1.88,2.1,2.1,0,0,0-2.09,2.09,2.07,2.07,0,0,0,1.88,2.06h.12Zm4.34,5.56a3.42,3.42,0,0,1-3.42-3.42c0-.12,0-.24,0-.35.12-1.12-.19-1.61-1.05-1.7h-.11a2.19,2.19,0,1,1,2.49-2.5h0v.11c.09.87.58,1.17,1.69,1.06a3.42,3.42,0,1,1,.36,6.82"/><path class="cls-3" d="M154.33,244.13a3,3,0,0,0-.31,6.05c1.32.13,1.81.91,1.63,2.58,0,.17,0,.34,0,.5a4.8,4.8,0,1,0,4.3-4.77c-1.67.17-2.45-.32-2.59-1.64a3,3,0,0,0-3-2.72m6.1,14a4.91,4.91,0,0,1-4.91-4.91,4.49,4.49,0,0,1,0-.51c.17-1.62-.28-2.34-1.54-2.47a3.13,3.13,0,1,1,3.44-3.44c.13,1.26.85,1.71,2.47,1.54l.51,0a4.91,4.91,0,0,1,0,9.82"/><path class="cls-3" d="M153.13,242a4,4,0,0,0-.41,7.93c1.71.18,2.34,1.19,2.12,3.36,0,.22,0,.44,0,.66a6.29,6.29,0,1,0,6.29-6.29l-.65,0c-2.18.23-3.18-.41-3.36-2.12a4,4,0,0,0-4-3.57m8,18.34a6.4,6.4,0,0,1-6.39-6.39c0-.22,0-.45,0-.67.22-2.13-.36-3.07-2-3.24a4.08,4.08,0,1,1,4.47-4.48c.18,1.66,1.12,2.24,3.25,2q.33,0,.66,0a6.4,6.4,0,1,1,0,12.79"/><path class="cls-3" d="M159.1,250.17a1.76,1.76,0,1,0,1.76,1.75,1.76,1.76,0,0,0-1.76-1.75m0,3.79a2,2,0,1,1,2-2,2,2,0,0,1-2,2"/><path class="cls-6" d="M123.32,47.27V56.4a3.76,3.76,0,0,0,.62,2.36,3.14,3.14,0,0,0,4.14,0,3.76,3.76,0,0,0,.62-2.36V47.27h3.16v8.79a11.83,11.83,0,0,1-.31,2.85,4.64,4.64,0,0,1-1,2,4.18,4.18,0,0,1-1.81,1.15,10.11,10.11,0,0,1-5.42,0,4.21,4.21,0,0,1-1.82-1.15,4.74,4.74,0,0,1-1-2,11.34,11.34,0,0,1-.31-2.85V47.27Z"/><path class="cls-6" d="M138.68,62.42A6.36,6.36,0,0,1,136,61.9a6.27,6.27,0,0,1-2-1.48l1.85-1.88a4.67,4.67,0,0,0,1.33,1,3.4,3.4,0,0,0,1.64.39,2.16,2.16,0,0,0,1.3-.29,1,1,0,0,0,.37-.78c0-.52-.38-.84-1.14-.94l-1.21-.15q-3.78-.47-3.78-3.45a3.49,3.49,0,0,1,.31-1.49,3.4,3.4,0,0,1,.87-1.15,4.21,4.21,0,0,1,1.37-.75,5.93,5.93,0,0,1,1.8-.26,10.07,10.07,0,0,1,1.55.11,5.48,5.48,0,0,1,1.2.35,4.59,4.59,0,0,1,1,.55,9.66,9.66,0,0,1,.86.74l-1.81,1.85a4.38,4.38,0,0,0-1.21-.84,3.22,3.22,0,0,0-1.38-.31,2,2,0,0,0-1.15.26.8.8,0,0,0-.34.68.9.9,0,0,0,.25.69,1.7,1.7,0,0,0,.93.36l1.25.17c2.46.32,3.7,1.45,3.7,3.37a3.24,3.24,0,0,1-.35,1.49,3.45,3.45,0,0,1-1,1.19,4.58,4.58,0,0,1-1.51.77A6.44,6.44,0,0,1,138.68,62.42Z"/><path class="cls-6" d="M150.31,62.42A6.06,6.06,0,0,1,148,62a4.77,4.77,0,0,1-1.7-1.18,4.88,4.88,0,0,1-1-1.84,7.78,7.78,0,0,1-.35-2.44,7.86,7.86,0,0,1,.34-2.4,4.91,4.91,0,0,1,1-1.84A4.55,4.55,0,0,1,148,51.12a5.81,5.81,0,0,1,2.24-.41,5.46,5.46,0,0,1,2.38.47,4.43,4.43,0,0,1,1.62,1.26,5,5,0,0,1,.91,1.82,7.74,7.74,0,0,1,.29,2.17v.94H148.2v.16a2.19,2.19,0,0,0,2.48,2.4,2.9,2.9,0,0,0,1.6-.4,6.32,6.32,0,0,0,1.15-.94l1.58,2a5,5,0,0,1-1.95,1.37A7.21,7.21,0,0,1,150.31,62.42ZM150.25,53a1.87,1.87,0,0,0-1.5.63,2.45,2.45,0,0,0-.55,1.68v.17h3.93v-.19a2.79,2.79,0,0,0-.46-1.66A1.65,1.65,0,0,0,150.25,53Z"/><path class="cls-6" d="M157.63,62.17V51h3.16V53.4h.11a3.24,3.24,0,0,1,.3-.91,2.86,2.86,0,0,1,.56-.78,2.57,2.57,0,0,1,.85-.54,2.88,2.88,0,0,1,1.15-.21h.55v2.95h-.79a4.55,4.55,0,0,0-2.06.36,1.4,1.4,0,0,0-.67,1.35v6.55Z"/><path class="cls-6" d="M170.05,62.42a6.36,6.36,0,0,1-2.73-.52,6.27,6.27,0,0,1-2-1.48l1.85-1.88a4.67,4.67,0,0,0,1.33,1,3.4,3.4,0,0,0,1.64.39,2.16,2.16,0,0,0,1.3-.29.94.94,0,0,0,.36-.78c0-.52-.37-.84-1.13-.94l-1.21-.15q-3.78-.47-3.78-3.45a3.49,3.49,0,0,1,.31-1.49,3.4,3.4,0,0,1,.87-1.15,4.21,4.21,0,0,1,1.37-.75,5.88,5.88,0,0,1,1.8-.26,10.07,10.07,0,0,1,1.55.11,5.23,5.23,0,0,1,1.19.35,4.42,4.42,0,0,1,1,.55,11.32,11.32,0,0,1,.86.74l-1.81,1.85a4.38,4.38,0,0,0-1.21-.84,3.22,3.22,0,0,0-1.38-.31,2,2,0,0,0-1.15.26.8.8,0,0,0-.34.68.9.9,0,0,0,.25.69,1.7,1.7,0,0,0,.92.36l1.26.17c2.46.32,3.69,1.45,3.69,3.37a3.23,3.23,0,0,1-.34,1.49,3.45,3.45,0,0,1-1,1.19,4.58,4.58,0,0,1-1.51.77A6.44,6.44,0,0,1,170.05,62.42Z"/><path class="cls-5" d="M104.09,246.19H106a1.26,1.26,0,0,1,.91.3,1,1,0,0,1,.31.81,1.91,1.91,0,0,1-.06.48,1.33,1.33,0,0,1-.19.42,1.12,1.12,0,0,1-.32.33,1.48,1.48,0,0,1-.48.2v0a1,1,0,0,1,.58.34,1.07,1.07,0,0,1,.2.67,1.88,1.88,0,0,1-.13.72,1.67,1.67,0,0,1-.88.95,1.73,1.73,0,0,1-.69.13H103Zm1.11,5a1.16,1.16,0,0,0,.78-.25,1.13,1.13,0,0,0,.39-.69c0-.14,0-.25,0-.32a1.37,1.37,0,0,0,0-.16.75.75,0,0,0-.22-.56.93.93,0,0,0-.66-.21H104l-.44,2.19Zm.3-2.59a1.35,1.35,0,0,0,.78-.21.9.9,0,0,0,.38-.61c0-.13,0-.23,0-.3a1,1,0,0,0,0-.16.66.66,0,0,0-.2-.52.89.89,0,0,0-.61-.19h-1.46l-.39,2Z"/><path class="cls-5" d="M109.27,251.66a1.35,1.35,0,0,1-1.06-.4,1.72,1.72,0,0,1-.38-1.21,3,3,0,0,1,.15-1,2.42,2.42,0,0,1,.41-.8,1.85,1.85,0,0,1,.63-.55,1.61,1.61,0,0,1,.82-.21,1.87,1.87,0,0,1,.49.07,1.24,1.24,0,0,1,.4.19.92.92,0,0,1,.37.76,1,1,0,0,1-.14.5,1.05,1.05,0,0,1-.47.4,2.64,2.64,0,0,1-.86.27,7.16,7.16,0,0,1-1.34.11.88.88,0,0,0,0,.17,1,1,0,0,0,0,.16,1.22,1.22,0,0,0,.26.84,1,1,0,0,0,.78.29,1.36,1.36,0,0,0,.74-.21,1.9,1.9,0,0,0,.57-.56l.29.24a2.25,2.25,0,0,1-.76.7A1.88,1.88,0,0,1,109.27,251.66Zm.53-3.75a1.23,1.23,0,0,0-.92.39,2,2,0,0,0-.5,1l0,.18a10.58,10.58,0,0,0,1.18-.09,2.8,2.8,0,0,0,.71-.2.72.72,0,0,0,.34-.29.74.74,0,0,0,.09-.36.52.52,0,0,0-.24-.48A1,1,0,0,0,109.8,247.91Z"/><path class="cls-5" d="M116.42,251.57a.4.4,0,0,1-.29-.09.37.37,0,0,1-.09-.25,1.37,1.37,0,0,1,0-.19l.06-.32h0a2.08,2.08,0,0,1-.56.71,1.38,1.38,0,0,1-1.28.13,1.13,1.13,0,0,1-.38-.3,1.41,1.41,0,0,1-.25-.47,2.31,2.31,0,0,1-.08-.61,3.81,3.81,0,0,1,.12-1,2.83,2.83,0,0,1,.36-.85,2,2,0,0,1,.61-.61,1.48,1.48,0,0,1,.84-.24,1.28,1.28,0,0,1,.71.2.91.91,0,0,1,.39.56h0l.13-.66h.42l-.71,3.56h.6l-.07.38Zm-1.55-.28a.93.93,0,0,0,.45-.1,1.53,1.53,0,0,0,.39-.27,1.62,1.62,0,0,0,.36-.45,1.64,1.64,0,0,0,.22-.61l.19-.92a1.15,1.15,0,0,0,0-.37.67.67,0,0,0-.15-.33A.8.8,0,0,0,116,248a1.24,1.24,0,0,0-.5-.09,1.2,1.2,0,0,0-.91.37,2,2,0,0,0-.49,1l-.09.46,0,.22a1.77,1.77,0,0,0,0,.24,1.7,1.7,0,0,0,0,.41.84.84,0,0,0,.44.57A1,1,0,0,0,114.87,251.29Z"/><path class="cls-5" d="M120.48,247.63h.42l-.18.85h0a2.19,2.19,0,0,1,.55-.71,1.22,1.22,0,0,1,.77-.24,1.19,1.19,0,0,1,.51.11,1,1,0,0,1,.39.3,1.39,1.39,0,0,1,.24.47,2,2,0,0,1,.09.61,3.81,3.81,0,0,1-.12.95,2.61,2.61,0,0,1-.37.85,2.05,2.05,0,0,1-.6.61,1.47,1.47,0,0,1-.84.23,1.23,1.23,0,0,1-.71-.19,1,1,0,0,1-.4-.56h0l-.44,2.2h-.43Zm.85,3.66a1.22,1.22,0,0,0,.91-.37,2,2,0,0,0,.49-1l.1-.46a1.5,1.5,0,0,0,0-.22,1.77,1.77,0,0,0,0-.24,1.42,1.42,0,0,0,0-.42.85.85,0,0,0-.44-.56,1,1,0,0,0-.4-.08,1.13,1.13,0,0,0-.45.09,1.61,1.61,0,0,0-.38.28,2,2,0,0,0-.37.44,1.89,1.89,0,0,0-.22.62l-.18.92a.92.92,0,0,0,0,.37,1,1,0,0,0,.15.33.87.87,0,0,0,.32.24A1.28,1.28,0,0,0,121.33,251.29Z"/><path class="cls-5" d="M127,251.57a.4.4,0,0,1-.29-.09.37.37,0,0,1-.09-.25,1.37,1.37,0,0,1,0-.19l.06-.32h0a2.08,2.08,0,0,1-.56.71,1.38,1.38,0,0,1-1.28.13,1.13,1.13,0,0,1-.38-.3,1.41,1.41,0,0,1-.25-.47,2.31,2.31,0,0,1-.08-.61,3.81,3.81,0,0,1,.12-1,2.83,2.83,0,0,1,.36-.85,2,2,0,0,1,.61-.61,1.48,1.48,0,0,1,.84-.24,1.28,1.28,0,0,1,.71.2,1,1,0,0,1,.4.56h0l.13-.66h.42l-.71,3.56h.6l-.07.38Zm-1.55-.28a.93.93,0,0,0,.45-.1,1.53,1.53,0,0,0,.39-.27,1.62,1.62,0,0,0,.36-.45,1.64,1.64,0,0,0,.22-.61l.19-.92a1.15,1.15,0,0,0,0-.37.67.67,0,0,0-.15-.33.8.8,0,0,0-.32-.24,1.24,1.24,0,0,0-.5-.09,1.2,1.2,0,0,0-.91.37,2,2,0,0,0-.49,1l-.09.46,0,.22a1.77,1.77,0,0,0,0,.24,1.7,1.7,0,0,0,0,.41.84.84,0,0,0,.44.57A1,1,0,0,0,125.45,251.29Z"/><path class="cls-5" d="M128.47,251.57l.78-3.94h.43l-.17.82h0a3.28,3.28,0,0,1,.2-.31,1.66,1.66,0,0,1,.26-.27,1.56,1.56,0,0,1,.34-.18,1.53,1.53,0,0,1,.45-.06H131l-.08.42h-.26a1.18,1.18,0,0,0-.5.1,1.31,1.31,0,0,0-.4.26,1.39,1.39,0,0,0-.28.38,1.79,1.79,0,0,0-.16.46l-.46,2.32Z"/><path class="cls-5" d="M131.8,251.57a.41.41,0,0,1-.3-.09.34.34,0,0,1-.1-.26.66.66,0,0,1,0-.21l.6-3h-.65l.08-.37h.39a.34.34,0,0,0,.24-.07.55.55,0,0,0,.09-.24l.16-.79h.4l-.22,1.1h.88l-.08.37h-.87l-.64,3.19h.82l-.08.38Z"/><path class="cls-5" d="M136.83,251.66a1.29,1.29,0,0,1-1-.4,1.63,1.63,0,0,1-.37-1.14,3.51,3.51,0,0,1,.13-1,3,3,0,0,1,.4-.82,1.91,1.91,0,0,1,.63-.57,1.7,1.7,0,0,1,.84-.22,1.31,1.31,0,0,1,1,.41,1.61,1.61,0,0,1,.37,1.14,3.52,3.52,0,0,1-.14,1,2.51,2.51,0,0,1-.4.82,1.91,1.91,0,0,1-.63.57A1.65,1.65,0,0,1,136.83,251.66Zm0-.37a1.24,1.24,0,0,0,.89-.37,2.07,2.07,0,0,0,.5-1l.09-.47a.76.76,0,0,0,0-.21,1.62,1.62,0,0,0,0-.22,1.42,1.42,0,0,0-.06-.42.89.89,0,0,0-.19-.33.81.81,0,0,0-.31-.23,1.15,1.15,0,0,0-.44-.08,1.23,1.23,0,0,0-.88.37,1.92,1.92,0,0,0-.5,1.05l-.09.47a1.55,1.55,0,0,0,0,.21v.22a1.19,1.19,0,0,0,.24.76A.93.93,0,0,0,136.88,251.29Z"/><path class="cls-5" d="M140,252.48a1,1,0,0,1-.21.47.67.67,0,0,1-.5.16h-.57l.08-.37h.72l1-4.74h-.7l.07-.37h.7l.23-1.13a.94.94,0,0,1,.21-.46.64.64,0,0,1,.5-.17h.65l-.08.38h-.81l-.27,1.38h.79l-.08.37h-.78Z"/><path class="cls-5" d="M98.94,260.82a.4.4,0,0,1-.31-.1.33.33,0,0,1-.09-.25,1.25,1.25,0,0,1,0-.21l.6-3h-.64l.07-.38H99a.29.29,0,0,0,.23-.07.38.38,0,0,0,.1-.23l.16-.8h.4l-.22,1.1h.87l-.07.38h-.87L99,260.44h.81l-.07.38Z"/><path class="cls-5" d="M101.85,255.12h.43l-.51,2.54h0a1.61,1.61,0,0,1,.52-.66,1.22,1.22,0,0,1,.76-.22,1,1,0,0,1,.76.28,1.14,1.14,0,0,1,.25.79,2.26,2.26,0,0,1,0,.25,2.34,2.34,0,0,1,0,.26l-.42,2.08h.61l-.07.38h-.58a.41.41,0,0,1-.27-.08.28.28,0,0,1-.1-.25v-.07a.28.28,0,0,1,0-.08l.4-2,0-.25a1.42,1.42,0,0,0,0-.19c0-.51-.24-.76-.71-.76a1.13,1.13,0,0,0-.45.09,1.16,1.16,0,0,0-.4.29,1.9,1.9,0,0,0-.31.44,2.13,2.13,0,0,0-.2.55l-.45,2.29h-.43Z"/><path class="cls-5" d="M106.51,260.91a1.37,1.37,0,0,1-1.06-.4,1.72,1.72,0,0,1-.38-1.21,3.12,3.12,0,0,1,.15-1,2.63,2.63,0,0,1,.41-.8,1.82,1.82,0,0,1,.63-.54,1.64,1.64,0,0,1,.82-.21,1.53,1.53,0,0,1,.49.07,1.14,1.14,0,0,1,.4.19.94.94,0,0,1,.27.32.89.89,0,0,1,.1.44,1,1,0,0,1-.14.5,1.15,1.15,0,0,1-.46.4,3.45,3.45,0,0,1-.87.27,8.12,8.12,0,0,1-1.34.11.88.88,0,0,0,0,.17c0,.07,0,.12,0,.16a1.22,1.22,0,0,0,.26.84,1,1,0,0,0,.78.28,1.44,1.44,0,0,0,.74-.2,1.9,1.9,0,0,0,.57-.56l.29.23a2,2,0,0,1-.76.7A1.86,1.86,0,0,1,106.51,260.91Zm.53-3.75a1.23,1.23,0,0,0-.92.39,2.06,2.06,0,0,0-.5,1l0,.19a10.25,10.25,0,0,0,1.18-.1,2.85,2.85,0,0,0,.71-.19.72.72,0,0,0,.34-.29.74.74,0,0,0,.09-.36.56.56,0,0,0-.23-.49A1.18,1.18,0,0,0,107,257.16Z"/><path class="cls-5" d="M112.22,260.91a1.37,1.37,0,0,1-1.07-.4,1.72,1.72,0,0,1-.38-1.21,3.12,3.12,0,0,1,.15-1,2.87,2.87,0,0,1,.41-.8A1.91,1.91,0,0,1,112,257a1.65,1.65,0,0,1,.83-.21,1.61,1.61,0,0,1,.49.07,1.18,1.18,0,0,1,.39.19.76.76,0,0,1,.27.32.89.89,0,0,1,.1.44.88.88,0,0,1-.14.5,1.09,1.09,0,0,1-.46.4,3.45,3.45,0,0,1-.87.27,8.12,8.12,0,0,1-1.34.11.88.88,0,0,0,0,.17v.16a1.22,1.22,0,0,0,.25.84,1,1,0,0,0,.78.28,1.45,1.45,0,0,0,.75-.2,2,2,0,0,0,.56-.56l.29.23a2,2,0,0,1-.76.7A1.85,1.85,0,0,1,112.22,260.91Zm.52-3.75a1.21,1.21,0,0,0-.91.39,2,2,0,0,0-.51,1l0,.19a10,10,0,0,0,1.18-.1,2.73,2.73,0,0,0,.71-.19.67.67,0,0,0,.34-.29.74.74,0,0,0,.09-.36.56.56,0,0,0-.23-.49A1.18,1.18,0,0,0,112.74,257.16Z"/><path class="cls-5" d="M114.11,260.82l1.78-2-1-1.92h.45l.82,1.64h0l1.41-1.64h.5l-1.73,2,1,2H117l-.87-1.7h0l-1.46,1.7Z"/><path class="cls-5" d="M119.47,255.12h.42l-.51,2.54h0a1.8,1.8,0,0,1,.52-.66,1.26,1.26,0,0,1,.76-.22,1,1,0,0,1,.77.28,1.19,1.19,0,0,1,.25.79,2.26,2.26,0,0,1,0,.25,2.34,2.34,0,0,1,0,.26l-.42,2.08h.6l-.07.38h-.58a.46.46,0,0,1-.27-.08.31.31,0,0,1-.1-.25v-.07a.45.45,0,0,1,0-.08l.39-2c0-.09,0-.17,0-.25s0-.14,0-.19c0-.51-.24-.76-.72-.76a1.12,1.12,0,0,0-.44.09,1.19,1.19,0,0,0-.41.29,1.88,1.88,0,0,0-.3.44,1.82,1.82,0,0,0-.2.55l-.46,2.29h-.42Z"/><path class="cls-5" d="M123.09,260.82a.4.4,0,0,1-.3-.1.36.36,0,0,1-.09-.26v-.06a.31.31,0,0,1,0-.09l.69-3.44h.43l-.72,3.57h.6l-.07.38Zm.76-5a.27.27,0,0,1-.2-.06.24.24,0,0,1-.06-.15v-.06a.75.75,0,0,0,0-.11.29.29,0,0,1,.33-.25.25.25,0,0,1,.21.07.2.2,0,0,1,.06.15.11.11,0,0,1,0,.05s0,.06,0,.12A.29.29,0,0,1,123.85,255.8Z"/><path class="cls-5" d="M125.69,255.12h.43l-.53,2.61h0a2.08,2.08,0,0,1,.55-.71,1.22,1.22,0,0,1,.77-.24,1.19,1.19,0,0,1,.51.11,1,1,0,0,1,.39.3,1.3,1.3,0,0,1,.24.47,2,2,0,0,1,.09.61,3.87,3.87,0,0,1-.12,1,2.83,2.83,0,0,1-.36.85,2.21,2.21,0,0,1-.61.61,1.55,1.55,0,0,1-.84.23,1.26,1.26,0,0,1-.71-.19,1,1,0,0,1-.4-.56h0l-.13.66h-.43Zm.51,5.41a1.25,1.25,0,0,0,.92-.36,2,2,0,0,0,.48-1l.1-.46a1.8,1.8,0,0,0,0-.22,1.66,1.66,0,0,0,0-.24,1.86,1.86,0,0,0,0-.42,1,1,0,0,0-.17-.34.69.69,0,0,0-.28-.22,1,1,0,0,0-.4-.08,1.13,1.13,0,0,0-.45.09,1.33,1.33,0,0,0-.38.27,2.34,2.34,0,0,0-.37.45,1.92,1.92,0,0,0-.22.61l-.18.92a1,1,0,0,0,0,.38.84.84,0,0,0,.16.33.73.73,0,0,0,.32.24A1.4,1.4,0,0,0,126.2,260.53Z"/><path class="cls-5" d="M129.37,260.82a.39.39,0,0,1-.3-.1.36.36,0,0,1-.09-.26v-.06a.31.31,0,0,1,0-.09l.69-3.44h.43l-.72,3.57h.6l-.07.38Zm.76-5a.27.27,0,0,1-.2-.06.24.24,0,0,1-.06-.15v-.06a.75.75,0,0,0,0-.11.29.29,0,0,1,.33-.25.25.25,0,0,1,.21.07.2.2,0,0,1,.06.15.43.43,0,0,0,0,.05s0,.06,0,.12A.29.29,0,0,1,130.13,255.8Z"/><path class="cls-5" d="M131.46,260.82a.39.39,0,0,1-.31-.1.33.33,0,0,1-.09-.25.68.68,0,0,1,0-.21l.6-3H131l.08-.38h.39a.3.3,0,0,0,.24-.07.46.46,0,0,0,.09-.23l.17-.8h.4l-.23,1.1h.88l-.08.38h-.87l-.64,3.19h.82l-.08.38Z"/><path class="cls-5" d="M133.71,260.82a.38.38,0,0,1-.3-.1.36.36,0,0,1-.1-.26v-.06a.37.37,0,0,1,0-.09l.69-3.44h.43l-.72,3.57h.6l-.08.38Zm.76-5a.25.25,0,0,1-.2-.06.24.24,0,0,1-.06-.15v-.06a.89.89,0,0,1,0-.11.29.29,0,0,1,.33-.25.25.25,0,0,1,.21.07.25.25,0,0,1,0,.15v.05s0,.06,0,.12A.29.29,0,0,1,134.47,255.8Z"/><path class="cls-5" d="M136.62,260.91a1.26,1.26,0,0,1-1-.41,1.6,1.6,0,0,1-.37-1.13,3.18,3.18,0,0,1,.14-1,2.76,2.76,0,0,1,.39-.83,2.27,2.27,0,0,1,.63-.57,1.69,1.69,0,0,1,.84-.21,1.3,1.3,0,0,1,1,.41,1.6,1.6,0,0,1,.37,1.13,3.14,3.14,0,0,1-.14,1,2.65,2.65,0,0,1-.39.83,2.12,2.12,0,0,1-.63.57A1.69,1.69,0,0,1,136.62,260.91Zm0-.38a1.2,1.2,0,0,0,.89-.37,1.92,1.92,0,0,0,.5-1l.09-.47a.89.89,0,0,0,0-.22,1.48,1.48,0,0,0,0-.22,1.4,1.4,0,0,0-.06-.41.88.88,0,0,0-.19-.34.84.84,0,0,0-.3-.22,1.25,1.25,0,0,0-1.33.29,2,2,0,0,0-.5,1.05l-.09.47a.76.76,0,0,0,0,.21,1.55,1.55,0,0,0,0,.22,1.11,1.11,0,0,0,.25.75A.89.89,0,0,0,136.67,260.53Z"/><path class="cls-5" d="M139.35,260.82l.78-3.95h.43l-.16.79h0A1.8,1.8,0,0,1,141,257a1.26,1.26,0,0,1,.76-.22,1,1,0,0,1,.77.28,1.19,1.19,0,0,1,.25.79,2.26,2.26,0,0,1,0,.25,2.34,2.34,0,0,1,0,.26l-.42,2.08h.6l-.08.38h-.57a.43.43,0,0,1-.27-.08.3.3,0,0,1-.1-.24v-.11l0-.11.38-1.92c0-.09,0-.17,0-.25s0-.14,0-.19c0-.51-.24-.76-.72-.76a1.12,1.12,0,0,0-.44.09,1.19,1.19,0,0,0-.41.29,1.88,1.88,0,0,0-.3.44,1.82,1.82,0,0,0-.2.55l-.46,2.29Z"/><path class="cls-7" d="M151.28,110.72a42.56,42.56,0,1,0,30.06,12.47,42.39,42.39,0,0,0-30.06-12.47m0,87a44.57,44.57,0,1,1,31.47-13.06,44.38,44.38,0,0,1-31.47,13.06"/><ellipse class="cls-8" cx="151.03" cy="146.18" rx="6.8" ry="7.81"/><path class="cls-8" d="M161.39,165.88c-.06,5.4-4.68,7.77-10.45,7.77s-10.53-2.37-10.46-7.77c.08-6.51,4.68-11.76,10.46-11.76S161.48,159.37,161.39,165.88Z"/><ellipse class="cls-8" cx="132.86" cy="140.68" rx="6.8" ry="7.81"/><path class="cls-8" d="M140.18,166.26a13.29,13.29,0,0,1-7.41,1.89c-5.78,0-10.53-2.37-10.46-7.77.08-6.51,4.68-11.76,10.46-11.76,5,0,9.21,3.9,10.22,9.15"/><ellipse class="cls-8" cx="169.86" cy="140.68" rx="6.8" ry="7.81"/><path class="cls-8" d="M159.47,158.44c.87-5.58,5.11-9.82,10.3-9.82,5.78,0,10.54,5.25,10.46,11.76-.07,5.4-4.68,7.77-10.46,7.77-3.41,0-6.46-.83-8.37-2.61"/></g></svg>