<?xml version="1.0" encoding="utf-8"?>
<!-- Generator: Adobe Illustrator 21.1.0, SVG Export Plug-In . SVG Version: 6.00 Build 0)  -->
<svg version="1.1" xmlns="http://www.w3.org/2000/svg" xmlns:xlink="http://www.w3.org/1999/xlink" x="0px" y="0px"
	 viewBox="0 0 305.6 305.6" style="enable-background:new 0 0 305.6 305.6;" xml:space="preserve">
<style type="text/css">
	.st0{fill:#2C3E50;}
	.st1{fill:#2881BB;}
	.st2{fill:none;stroke:#FFFFFF;stroke-width:1.25;stroke-miterlimit:10;}
	.st3{fill:none;stroke:#000000;stroke-width:0.25;stroke-miterlimit:10;}
	.st4{fill:#52B36E;}
	.st5{fill:#3B95D2;}
	.st6{fill:none;stroke:#E30613;stroke-width:0.4819;stroke-miterlimit:10;}
	.st7{fill:none;stroke:#2699D6;stroke-width:0.5669;stroke-miterlimit:10;}
	.st8{fill:#1D1D1B;}
	.st9{fill:none;stroke:#E30613;stroke-width:0.7087;stroke-miterlimit:10;}
	.st10{fill:#93C01F;}
	.st11{fill:#575756;}
</style>
<g id="Ebene_1">
	<g>
		<path class="st0" d="M113.3,107.1h6.4v1h-6.4v6.5h-1.1v-14.3h8.6v1h-7.6V107.1z"/>
		<path class="st0" d="M126.4,113.8c1,0,2-0.4,2.7-1.2l0.8,0.6c-0.9,1-2.2,1.5-3.5,1.5c-2.7,0-4.1-1.7-4.1-4.9s1.4-4.9,3.9-4.9
			c2.4,0,3.9,1.7,3.9,4.7v0.5h-6.7C123.3,112.4,124.3,113.8,126.4,113.8z M128.6,107.3c-0.6-1.4-2.2-2-3.6-1.4
			c-0.6,0.3-1.1,0.8-1.4,1.4c-0.2,0.6-0.3,1.2-0.3,1.8h5.7C128.9,108.5,128.8,107.9,128.6,107.3z"/>
		<path class="st0" d="M136.8,113.8c1,0,2-0.4,2.7-1.2l0.8,0.6c-0.9,1-2.2,1.5-3.5,1.5c-2.7,0-4.1-1.7-4.1-4.9s1.4-4.9,3.9-4.9
			c2.4,0,3.9,1.7,3.9,4.7v0.5h-6.7C133.7,112.4,134.8,113.8,136.8,113.8z M139,107.3c-0.6-1.4-2.2-2-3.6-1.4
			c-0.6,0.3-1.1,0.8-1.4,1.4c-0.2,0.6-0.3,1.2-0.3,1.8h5.7C139.4,108.5,139.3,107.9,139,107.3z"/>
		<path class="st0" d="M149.6,113.3c-0.6,0.9-1.7,1.4-2.9,1.4c-0.9,0-1.7-0.3-2.4-0.8c-0.9-1.2-1.4-2.6-1.2-4.1
			c-0.1-1.5,0.3-2.9,1.2-4.1c0.6-0.6,1.5-0.9,2.4-0.8c1.1-0.1,2.2,0.4,2.9,1.4v-5.8h1v14.2h-1V113.3z M146.9,105.7
			c-2.4,0-2.7,2-2.7,4s0.4,4,2.7,4c2.4,0,2.7-2,2.7-4S149.3,105.7,146.9,105.7z"/>
		<path class="st0" d="M160.7,113.8c-0.6,0.6-1.5,0.9-2.4,0.8c-1.1,0.1-2.2-0.4-2.9-1.4v1.2h-1v-14.2h1v5.8c0.6-0.9,1.7-1.4,2.9-1.4
			c0.9,0,1.7,0.3,2.4,0.8c0.9,1.2,1.4,2.6,1.2,4.1C162.1,111.2,161.7,112.7,160.7,113.8z M158.3,105.7c-2.4,0-2.7,2-2.7,4
			s0.4,4,2.7,4c2.4,0,2.7-2,2.7-4S160.6,105.7,158.3,105.7z"/>
		<path class="st0" d="M171,113.6c-0.8,0.8-1.8,1.2-2.9,1.1c-1,0.1-2.1-0.2-2.8-0.9c-0.5-0.5-0.7-1.2-0.7-1.9c0-1.8,1.3-2.8,3.4-2.8
			h3.1V108c0-1.5-0.7-2.4-2.7-2.4c-1-0.1-2.1,0.3-2.7,1.2l-0.7-0.6c0.8-1.1,2.1-1.6,3.4-1.5c2.6,0,3.7,1.1,3.7,3.2v6.6h-1L171,113.6
			z M168,110c-1.6,0-2.5,0.6-2.5,1.9s0.8,1.9,2.5,1.9c0.9,0.1,1.7-0.2,2.4-0.7c0.4-0.5,0.6-1.2,0.5-1.8V110H168z"/>
		<path class="st0" d="M179.5,114.7c-2.6,0-4.2-1.9-4.2-4.9s1.6-4.9,4.2-4.9c1.2-0.1,2.4,0.5,3.2,1.5l-0.7,0.6
			c-0.6-0.8-1.5-1.2-2.5-1.2c-1,0-2,0.5-2.6,1.3c-0.9,1.7-0.9,3.8,0,5.5c0.6,0.8,1.5,1.3,2.6,1.3c1,0,1.9-0.4,2.5-1.2l0.7,0.6
			C181.9,114.2,180.7,114.7,179.5,114.7z"/>
		<path class="st0" d="M188.9,109.3l-2.2,2.5v2.8h-1v-14.2h1v10l4.8-5.4h1.3l-3.2,3.6l3.9,6h-1.3L188.9,109.3z"/>
	</g>
	<path class="st1" d="M243.5,293.1V152.5c-0.2-4-1.2-7.9-3-11.5c-3.8-7.4-10.4-11.2-19.7-11.2h-136c-4,0.2-7.9,1.2-11.5,3
		c-7.4,3.8-11.2,10.4-11.2,19.7v140.7h-2V152.5c0-24.4,24.4-24.7,24.7-24.7h136.1c24.4,0,24.7,24.4,24.7,24.7v140.7H243.5z"/>
	<g>
		<path class="st1" d="M139,200.7h-0.1l-10-1.7c-0.8-0.1-1.4-0.9-1.4-1.7c0-2.3,0.1-10.4,1.6-15.7c0.4-1.2,1.5-2.2,2.8-2.3l1.5-0.2
			c1.9-0.3,3.7-0.4,5.6-0.5l0,0c0.5,0,0.8,0.4,0.8,0.8s-0.4,0.8-0.8,0.8c-1.8,0-3.6,0.2-5.4,0.5L132,181c-0.6,0.1-1.2,0.5-1.4,1.1
			c-1.5,5.1-1.6,12.9-1.6,15.2l10,1.7c0.4,0.1,0.8,0.5,0.7,0.9C139.7,200.4,139.3,200.7,139,200.7L139,200.7z"/>
		<path class="st1" d="M129.8,216.7c-3,0-5.4-2.4-5.4-5.4s2.4-5.4,5.4-5.4s5.4,2.4,5.4,5.4v0C135.2,214.3,132.8,216.7,129.8,216.7z
			 M129.8,207.6c-2.1,0-3.8,1.7-3.8,3.8s1.7,3.8,3.8,3.8s3.8-1.7,3.8-3.8C133.5,209.2,131.8,207.6,129.8,207.6z"/>
		<path class="st1" d="M137.3,210.7c-0.5,0-0.8-0.4-0.8-0.8v0c0-4.9-2.8-5.9-5.1-5.9h-5.3c-1,0.1-1.9,0.4-2.7,0.8
			c-0.4,0.2-0.9,0.1-1.1-0.3c-0.2-0.4-0.1-0.9,0.3-1.1c1.1-0.6,2.3-0.9,3.6-1h5.3c2,0,6.7,0.7,6.7,7.5
			C138.1,210.3,137.7,210.7,137.3,210.7z"/>
		<path class="st1" d="M168.3,210.7c-0.5,0-0.8-0.4-0.8-0.8v0c0-6.8,4.7-7.5,6.7-7.5h5.3c1.2,0.1,2.5,0.4,3.6,1
			c0.2,0.1,0.3,0.3,0.4,0.5c0,0.1,0.3,1.5,0.5,2.6c0.1,0.5-0.3,0.9-0.7,0.9s-0.9-0.3-0.9-0.7c-0.1-0.7-0.3-1.6-0.4-2.1
			c-0.8-0.4-1.6-0.6-2.4-0.7h-5.3c-2.3,0-5.1,1-5.1,5.9C169.2,210.3,168.8,210.6,168.3,210.7C168.4,210.7,168.3,210.7,168.3,210.7z"
			/>
		<path class="st1" d="M166.6,200.7c-0.5,0-0.8-0.4-0.8-0.8c0-0.4,0.3-0.7,0.7-0.8l10-1.7c0.1-2.4,0-10.2-1.5-15.3
			c-0.2-0.6-0.7-1.1-1.4-1.1l-1.5-0.2c-1.8-0.3-3.6-0.4-5.4-0.5c-0.5,0-0.8-0.4-0.8-0.8s0.4-0.8,0.8-0.8l0,0c1.9,0,3.8,0.2,5.6,0.5
			l1.5,0.2c1.3,0.1,2.4,1.1,2.8,2.3c1.6,5.3,1.6,13.3,1.6,15.7c0,0.8-0.6,1.6-1.4,1.7l-10,1.7L166.6,200.7z"/>
		<path class="st1" d="M163,209.8h-10.2c-0.5,0-0.8-0.4-0.8-0.8c0,0,0,0,0,0v-30.8c0-0.5,0.4-0.8,0.8-0.8h0H163
			c0.5,0,0.8,0.4,0.8,0.8v0V209C163.8,209.4,163.5,209.8,163,209.8C163,209.8,163,209.8,163,209.8z M153.7,208.2h8.5v-29.1h-8.5
			V208.2z"/>
		<path class="st1" d="M152.8,209.8h-10.2c-0.5,0-0.8-0.4-0.8-0.8v0v-30.8c0-0.5,0.4-0.8,0.8-0.8h0h10.2c0.5,0,0.8,0.4,0.8,0.8v0
			V209C153.6,209.4,153.3,209.8,152.8,209.8C152.8,209.8,152.8,209.8,152.8,209.8z M143.5,208.2h8.5v-29.1h-8.5L143.5,208.2z"/>
		<path class="st1" d="M165.3,175.2c-0.4,0-0.7-0.2-0.8-0.6l-0.8-3c-7.2-1-14.5-1-21.8,0l-0.8,3c-0.1,0.4-0.6,0.7-1,0.6
			s-0.7-0.6-0.6-1l1-3.5c0.1-0.3,0.3-0.5,0.7-0.6c7.7-1.1,15.6-1.1,23.3,0c0.3,0,0.6,0.3,0.7,0.6l1,3.5c0.1,0.4-0.2,0.9-0.6,1
			C165.5,175.2,165.4,175.2,165.3,175.2L165.3,175.2z"/>
		<path class="st1" d="M175.8,216.7c-3,0-5.4-2.4-5.4-5.4c0-3,2.4-5.4,5.4-5.4s5.4,2.4,5.4,5.4c0,0,0,0,0,0
			C181.2,214.3,178.8,216.7,175.8,216.7z M175.8,207.6c-2.1,0-3.8,1.7-3.8,3.8s1.7,3.8,3.8,3.8s3.8-1.7,3.8-3.8
			C179.6,209.2,177.9,207.6,175.8,207.6z"/>
		<path class="st1" d="M182.8,213.4c-0.5,0-0.8-0.4-0.8-0.8c0-0.3,0.2-0.6,0.5-0.8c0.5-0.3,0.9-0.6,1.3-1v-2.6
			c-0.3-0.3-0.7-0.6-1.1-0.8c-0.2-0.1-0.4-0.4-0.4-0.6c-0.1-1.1-0.4-2.5-0.4-2.5c-0.1-0.3,0.1-0.7,0.4-0.9c0.4-0.3,0.8-0.7,1.1-1.1
			c0-1.5-0.1-3.4-0.2-4.3c-0.5-6.2-1.4-12.3-2.8-18.3c-0.4-1.8-1.9-3.1-3.7-3.4c-7.5-0.9-15.1-1.2-22.7-1.1h-2.1
			c-7.6-0.1-15.2,0.2-22.8,1.1c-1.8,0.2-3.3,1.6-3.7,3.3c-1.4,6-2.3,12.1-2.7,18.3c-0.1,1.3-0.2,2.9-0.2,4.3
			c0.3,0.4,0.6,0.8,1.1,1.1c0.3,0.2,0.4,0.5,0.4,0.9c0,0-0.3,1.4-0.4,2.5c0,0.3-0.2,0.5-0.4,0.6c-0.4,0.2-0.8,0.5-1.1,0.8v2.6
			c0.4,0.4,0.9,0.7,1.3,1c0.4,0.2,0.6,0.7,0.5,1.1c-0.2,0.4-0.7,0.6-1.1,0.4c-0.8-0.4-1.5-0.9-2.1-1.6c-0.2-0.2-0.2-0.4-0.2-0.6
			v-3.4c0-0.2,0.1-0.5,0.3-0.6c0.4-0.4,0.9-0.8,1.4-1.1c0.1-0.6,0.2-1.3,0.3-1.7c-0.5-0.4-0.9-0.9-1.2-1.5c-0.1-0.1-0.1-0.3-0.1-0.4
			c0-1.5,0.1-3.2,0.2-4.6c0.5-6.2,1.4-12.4,2.8-18.5c0.6-2.5,2.6-4.3,5.1-4.6c7.6-0.9,15.3-1.3,22.9-1.1h2.1
			c7.7-0.1,15.3,0.2,22.9,1.1c2.5,0.3,4.6,2.1,5.1,4.6c1.4,6.1,2.3,12.3,2.8,18.5c0.1,1.5,0.2,3.2,0.2,4.6c0,0.1,0,0.3-0.1,0.4
			c-0.3,0.6-0.8,1.1-1.2,1.5c0.1,0.4,0.2,1.1,0.3,1.7c0.5,0.3,0.9,0.7,1.4,1.1c0.2,0.2,0.3,0.4,0.3,0.6v3.4c0,0.2-0.1,0.4-0.2,0.6
			c-0.6,0.6-1.3,1.2-2.1,1.6C183,213.4,182.9,213.4,182.8,213.4z"/>
		<path class="st1" d="M169.1,213.4h-32.6c-0.5,0-0.8-0.4-0.8-0.8s0.4-0.8,0.8-0.8h32.6c0.5,0,0.8,0.4,0.8,0.8
			S169.6,213.4,169.1,213.4L169.1,213.4z"/>
		<path class="st1" d="M152.8,148.5c-24.6,0-44.5,19.9-44.5,44.5s19.9,44.5,44.5,44.5s44.5-19.9,44.5-44.5l0,0
			C197.3,168.4,177.4,148.5,152.8,148.5z M152.8,235.5c-23.5,0-42.5-19-42.5-42.5c0-23.5,19-42.5,42.5-42.5
			c23.5,0,42.5,19,42.5,42.5c0,0,0,0,0,0C195.3,216.5,176.3,235.5,152.8,235.5L152.8,235.5z"/>
	</g>
	<path class="st2" d="M284.6,290.6v15 M284.6,15V0 M21,290.6v15 M21,15V0 M290.6,284.6h15 M15,284.6H0 M290.6,21h15 M15,21H0"/>
	<path class="st3" d="M284.6,290.6v15 M284.6,15V0 M21,290.6v15 M21,15V0 M290.6,284.6h15 M15,284.6H0 M290.6,21h15 M15,21H0"/>
	<g>
		<path class="st6" d="M140.5,77.2c-7.5,0-13.7-6.1-13.7-13.7c0-0.5,0-0.9,0.1-1.4c0.5-4.6-0.8-6.6-4.3-7c-4.5-0.5-7.8-4.2-7.8-8.7
			c0-4.8,3.9-8.7,8.7-8.7c4.5,0,8.2,3.4,8.7,7.8c0.4,3.6,2.4,4.8,7,4.3c0.5,0,1-0.1,1.4-0.1c7.5,0,13.7,6.1,13.7,13.7
			C154.2,71.1,148,77.2,140.5,77.2z"/>
		<path class="st6" d="M139.2,73.1c-6,0-10.8-4.9-10.8-10.8c0-0.4,0-0.7,0.1-1.1c0.4-3.6-0.6-5.2-3.4-5.5c-3.5-0.4-6.2-3.3-6.2-6.9
			c0-3.8,3.1-6.9,6.9-6.9c3.6,0,6.5,2.7,6.9,6.2c0.3,2.8,1.9,3.8,5.5,3.4c0.4,0,0.8-0.1,1.1-0.1c6,0,10.8,4.9,10.8,10.8
			C150,68.2,145.2,73.1,139.2,73.1z"/>
		<path class="st6" d="M138,69c-4.4,0-8-3.6-8-8c0-0.3,0-0.5,0-0.8c0.3-2.6-0.4-3.8-2.5-4c-2.6-0.3-4.6-2.4-4.6-5.1
			c0-2.8,2.3-5.1,5.1-5.1c2.6,0,4.8,2,5.1,4.6c0.2,2,1.4,2.7,4,2.5c0.3,0,0.5,0,0.8,0c4.4,0,8,3.6,8,8C145.9,65.4,142.4,69,138,69z"
			/>
		<path class="st6" d="M136.7,64.9c-2.8,0-5.1-2.3-5.1-5.1c0-0.2,0-0.4,0-0.5c0.2-2-0.6-2.4-1.6-2.5l-0.2,0l0,0
			c-1.6-0.3-2.8-1.6-2.8-3.2c0-1.8,1.5-3.3,3.3-3.3c1.6,0,3,1.2,3.2,2.8l0,0l0,0.2c0.1,0.6,0.3,1,0.6,1.3c0.4,0.3,1,0.4,1.9,0.3
			c0.2,0,0.4,0,0.5,0c2.8,0,5.1,2.3,5.1,5.1C141.8,62.6,139.5,64.9,136.7,64.9z"/>
		<path class="st7" d="M121.5,83.9c-5.7,0-10.3-4.6-10.3-10.3c0-5.3,4-9.7,9.2-10.2c4.2-0.4,5.7-2.8,5.1-8.2
			c-0.1-0.6-0.1-1.1-0.1-1.7c0-8.9,7.2-16.1,16.1-16.1s16.1,7.2,16.1,16.1c0,8.9-7.2,16.1-16.1,16.1c-0.6,0-1.1,0-1.7-0.1
			c-5.4-0.6-7.8,0.9-8.2,5.1C131.2,79.9,126.8,83.9,121.5,83.9z"/>
		<path class="st7" d="M122.6,81.9c-5.2,0-9.4-4.2-9.4-9.4c0-4.8,3.6-8.9,8.4-9.3c3.8-0.4,5.2-2.6,4.7-7.5c-0.1-0.5-0.1-1-0.1-1.5
			c0-8.1,6.6-14.7,14.7-14.7c8.1,0,14.7,6.6,14.7,14.7s-6.6,14.7-14.7,14.7c-0.5,0-1,0-1.5-0.1c-4.9-0.5-7.1,0.8-7.5,4.7
			C131.5,78.3,127.5,81.9,122.6,81.9z"/>
		<path class="st7" d="M123.7,79.9c-4.7,0-8.5-3.8-8.5-8.5c0-4.4,3.3-8,7.6-8.5c3.5-0.4,4.7-2.3,4.2-6.8c0-0.5-0.1-0.9-0.1-1.4
			c0-7.4,6-13.3,13.3-13.3s13.3,6,13.3,13.3c0,7.4-6,13.3-13.3,13.3c-0.5,0-0.9,0-1.4-0.1c-4.5-0.5-6.4,0.8-6.8,4.2
			C131.8,76.6,128.1,79.9,123.7,79.9z"/>
		<path class="st7" d="M124.8,77.9c-4.2,0-7.6-3.4-7.6-7.6c0-3.9,2.9-7.2,6.9-7.6c3.1-0.3,4.2-2.1,3.8-6.1c0-0.4-0.1-0.8-0.1-1.2
			c0-6.6,5.4-12,12-12c6.6,0,12,5.4,12,12c0,6.6-5.4,12-12,12c-0.4,0-0.8,0-1.2-0.1c-4-0.4-5.7,0.7-6.1,3.8
			C132.1,75,128.8,77.9,124.8,77.9z"/>
		<path class="st7" d="M126,75.9c-3.7,0-6.8-3-6.8-6.8c0-3.5,2.6-6.4,6.1-6.7c2.7-0.3,3.7-1.8,3.3-5.4c0-0.4-0.1-0.7-0.1-1.1
			c0-5.8,4.8-10.6,10.6-10.6c5.8,0,10.6,4.8,10.6,10.6c0,5.8-4.8,10.6-10.6,10.6c-0.4,0-0.7,0-1.1-0.1c-3.5-0.4-5.1,0.6-5.4,3.3
			C132.3,73.3,129.5,75.9,126,75.9z"/>
		<path class="st7" d="M127.1,73.9c-3.2,0-5.9-2.6-5.9-5.9c0-3,2.3-5.6,5.3-5.9c2.4-0.2,3.2-1.6,2.9-4.6c0-0.3,0-0.6,0-1
			c0-5.1,4.1-9.2,9.2-9.2s9.2,4.1,9.2,9.2c0,5.1-4.1,9.2-9.2,9.2c-0.3,0-0.6,0-1,0c-3-0.3-4.4,0.5-4.6,2.9
			C132.6,71.7,130.1,73.9,127.1,73.9z"/>
		<path class="st7" d="M128.2,71.9c-2.8,0-5-2.2-5-5c0-2.6,1.9-4.7,4.5-5c2-0.2,2.7-1.3,2.4-3.9c0-0.3,0-0.5,0-0.8
			c0-4.3,3.5-7.8,7.8-7.8s7.8,3.5,7.8,7.8c0,4.3-3.5,7.8-7.8,7.8c-0.3,0-0.5,0-0.8,0c-2.6-0.3-3.7,0.4-3.9,2.4
			C132.9,70,130.8,71.9,128.2,71.9z"/>
		<path class="st7" d="M129.3,69.9c-2.3,0-4.1-1.9-4.1-4.1c0-2.1,1.5-3.8,3.5-4.1l0,0l0.2,0c1.6-0.2,2.2-1.1,2-3.2
			c0-0.2,0-0.4,0-0.7c0-3.6,2.9-6.5,6.5-6.5s6.5,2.9,6.5,6.5c0,3.8-3.3,6.8-7.1,6.4c-2.1-0.2-3,0.4-3.2,2l0,0.2l0,0
			C133.1,68.4,131.4,69.9,129.3,69.9z"/>
		<path class="st7" d="M130.4,68c-1.8,0-3.3-1.5-3.3-3.3c0-1.6,1.2-3,2.7-3.2l0,0l0.2,0c0.9-0.1,1.7-0.5,1.5-2.5c0-0.2,0-0.4,0-0.5
			c0-2.8,2.3-5.1,5.1-5.1c2.8,0,5.1,2.3,5.1,5.1c0,2.8-2.3,5.1-5.1,5.1c-0.2,0-0.3,0-0.5,0c-2-0.2-2.4,0.6-2.5,1.5l0,0.2l0,0
			C133.4,66.8,132,68,130.4,68"/>
		<path class="st7" d="M131.6,66c-1.3,0-2.4-1.1-2.4-2.4c0-1.2,0.8-2.1,2-2.3l0,0l0.2,0c0.4,0,0.7-0.2,0.9-0.4
			c0.2-0.3,0.3-0.7,0.2-1.3l0-0.3l0,0c0,0,0-0.1,0-0.1c0-2,1.7-3.7,3.7-3.7c2,0,3.7,1.7,3.7,3.7c0,2-1.6,3.7-3.7,3.7
			c0,0-0.1,0-0.1,0l-0.3,0c-0.6-0.1-1.1,0-1.3,0.2c-0.2,0.2-0.4,0.5-0.4,0.9l0,0.2l0,0C133.7,65.1,132.7,66,131.6,66"/>
		<path class="st8" d="M163.8,53c0-0.5,0.1-0.9,0.3-1.2c0.2-0.4,0.4-0.6,0.7-0.9c0.3-0.2,0.7-0.3,1.1-0.3c0.6,0,1.1,0.2,1.5,0.7
			c0.4,0.4,0.6,1,0.6,1.8v0.1c0,0.5-0.1,0.9-0.3,1.2c-0.2,0.4-0.4,0.6-0.7,0.8c-0.3,0.2-0.7,0.3-1.1,0.3c-0.6,0-1.1-0.2-1.5-0.7
			c-0.4-0.4-0.6-1-0.6-1.8V53z M164.3,53.1c0,0.6,0.1,1,0.4,1.4c0.3,0.4,0.7,0.5,1.2,0.5c0.5,0,0.9-0.2,1.2-0.5
			c0.3-0.4,0.4-0.8,0.4-1.4V53c0-0.4-0.1-0.7-0.2-1c-0.1-0.3-0.3-0.5-0.6-0.7s-0.5-0.2-0.8-0.2c-0.5,0-0.8,0.2-1.1,0.5
			C164.4,51.9,164.3,52.4,164.3,53.1L164.3,53.1z"/>
		<path class="st8" d="M172.9,53.1c0,0.7-0.2,1.3-0.5,1.8c-0.3,0.4-0.8,0.7-1.3,0.7c-0.6,0-1.1-0.2-1.5-0.7v2.4h-0.5v-6.6h0.5l0,0.7
			c0.3-0.5,0.8-0.8,1.5-0.8c0.6,0,1,0.2,1.3,0.6C172.7,51.6,172.9,52.2,172.9,53.1L172.9,53.1z M172.4,53c0-0.6-0.1-1.1-0.4-1.4
			c-0.2-0.4-0.6-0.5-1-0.5c-0.3,0-0.6,0.1-0.8,0.2c-0.2,0.2-0.4,0.4-0.5,0.7v2.3c0.1,0.3,0.3,0.5,0.5,0.6c0.2,0.1,0.5,0.2,0.8,0.2
			c0.4,0,0.8-0.2,1-0.5C172.3,54.2,172.4,53.6,172.4,53"/>
		<path class="st8" d="M175.9,55.5c-0.4,0-0.8-0.1-1.1-0.3c-0.3-0.2-0.6-0.5-0.8-0.8c-0.2-0.4-0.3-0.8-0.3-1.2V53
			c0-0.5,0.1-0.9,0.3-1.2c0.2-0.4,0.4-0.7,0.7-0.9c0.3-0.2,0.7-0.3,1-0.3c0.6,0,1,0.2,1.4,0.6c0.3,0.4,0.5,0.9,0.5,1.6v0.3h-3.4v0.1
			c0,0.5,0.2,1,0.5,1.3c0.3,0.4,0.7,0.5,1.2,0.5c0.3,0,0.5-0.1,0.7-0.2c0.2-0.1,0.4-0.3,0.6-0.5l0.3,0.3
			C177.2,55.2,176.6,55.5,175.9,55.5 M175.8,51c-0.4,0-0.7,0.1-1,0.4c-0.3,0.3-0.4,0.7-0.5,1.2h2.8v-0.1c0-0.5-0.1-0.8-0.4-1.1
			C176.5,51.2,176.2,51,175.8,51"/>
		<path class="st8" d="M179.2,50.6l0,0.8c0.2-0.3,0.4-0.5,0.7-0.7c0.3-0.2,0.6-0.2,0.9-0.2c0.5,0,0.9,0.1,1.1,0.4
			c0.2,0.3,0.4,0.7,0.4,1.3v3.1h-0.5v-3.1c0-0.4-0.1-0.7-0.3-0.9c-0.2-0.2-0.5-0.3-0.8-0.3c-0.3,0-0.6,0.1-0.9,0.3
			c-0.2,0.2-0.4,0.5-0.6,0.8v3.2h-0.5v-4.7H179.2z"/>
		<path class="st8" d="M164.5,61.4l0,0.8c0.2-0.3,0.4-0.5,0.7-0.6c0.3-0.1,0.6-0.2,0.9-0.2c0.7,0,1.2,0.3,1.4,0.9
			c0.2-0.3,0.4-0.5,0.7-0.7c0.3-0.2,0.6-0.2,0.9-0.2c1,0,1.5,0.6,1.6,1.7v3.2h-0.5V63c0-0.4-0.1-0.7-0.3-0.9
			c-0.2-0.2-0.5-0.3-0.9-0.3c-0.4,0-0.7,0.1-1,0.4c-0.3,0.2-0.4,0.5-0.4,0.9v3.1h-0.5V63c0-0.4-0.1-0.7-0.3-0.9
			c-0.2-0.2-0.5-0.3-0.9-0.3c-0.3,0-0.6,0.1-0.9,0.3c-0.2,0.2-0.4,0.5-0.5,0.8v3.3H164v-4.7H164.5z"/>
		<path class="st8" d="M171.7,63.7c0-0.5,0.1-0.9,0.3-1.2c0.2-0.4,0.4-0.6,0.7-0.9c0.3-0.2,0.7-0.3,1.1-0.3c0.6,0,1.1,0.2,1.5,0.7
			c0.4,0.4,0.6,1,0.6,1.8v0.1c0,0.5-0.1,0.9-0.3,1.2c-0.2,0.4-0.4,0.6-0.7,0.8c-0.3,0.2-0.7,0.3-1.1,0.3c-0.6,0-1.1-0.2-1.5-0.7
			c-0.4-0.4-0.6-1-0.6-1.8V63.7z M172.3,63.9c0,0.6,0.1,1,0.4,1.4c0.3,0.4,0.7,0.5,1.2,0.5c0.5,0,0.9-0.2,1.2-0.5
			c0.3-0.4,0.4-0.8,0.4-1.4v-0.1c0-0.4-0.1-0.7-0.2-1c-0.1-0.3-0.3-0.5-0.6-0.7c-0.2-0.2-0.5-0.2-0.8-0.2c-0.5,0-0.8,0.2-1.1,0.5
			C172.4,62.7,172.3,63.2,172.3,63.9L172.3,63.9z"/>
		<path class="st8" d="M180.9,63.8c0,0.7-0.2,1.3-0.5,1.8c-0.3,0.4-0.8,0.7-1.3,0.7c-0.7,0-1.2-0.2-1.5-0.7l0,0.6H177v-6.7h0.5v2.7
			c0.3-0.5,0.8-0.8,1.5-0.8c0.6,0,1,0.2,1.3,0.6C180.7,62.4,180.9,63,180.9,63.8L180.9,63.8z M180.3,63.7c0-0.6-0.1-1.1-0.4-1.4
			c-0.2-0.3-0.6-0.5-1-0.5c-0.3,0-0.6,0.1-0.9,0.2c-0.2,0.2-0.4,0.4-0.5,0.7v2.1c0.3,0.6,0.7,0.9,1.4,0.9c0.4,0,0.8-0.2,1-0.5
			C180.2,64.9,180.3,64.4,180.3,63.7"/>
		<path class="st8" d="M182,60c0-0.1,0-0.2,0.1-0.2c0.1-0.1,0.2-0.1,0.3-0.1c0.1,0,0.2,0,0.3,0.1c0.1,0.1,0.1,0.2,0.1,0.2
			c0,0.1,0,0.2-0.1,0.2c-0.1,0.1-0.2,0.1-0.3,0.1c-0.1,0-0.2,0-0.3-0.1C182,60.2,182,60.1,182,60 M182.6,66.2h-0.5v-4.7h0.5V66.2z"
			/>
		<rect x="184.1" y="59.4" class="st8" width="0.5" height="6.7"/>
		<path class="st8" d="M186,60c0-0.1,0-0.2,0.1-0.2c0.1-0.1,0.2-0.1,0.3-0.1c0.1,0,0.2,0,0.3,0.1c0.1,0.1,0.1,0.2,0.1,0.2
			c0,0.1,0,0.2-0.1,0.2c-0.1,0.1-0.2,0.1-0.3,0.1c-0.1,0-0.2,0-0.3-0.1C186,60.2,186,60.1,186,60 M186.6,66.2h-0.5v-4.7h0.5V66.2z"
			/>
		<path class="st8" d="M188.9,60.2v1.2h1v0.4h-1V65c0,0.3,0,0.5,0.1,0.6c0.1,0.1,0.3,0.2,0.5,0.2c0.1,0,0.2,0,0.4,0l0,0.4
			c-0.1,0-0.3,0.1-0.6,0.1c-0.4,0-0.6-0.1-0.8-0.3c-0.2-0.2-0.2-0.5-0.2-0.9v-3.2h-0.9v-0.4h0.9v-1.2H188.9z"/>
		<path class="st8" d="M192.4,65.4l1.4-4h0.6l-2,5.5l-0.1,0.2c-0.3,0.6-0.7,0.9-1.2,0.9c-0.1,0-0.3,0-0.4-0.1l0-0.4l0.3,0
			c0.3,0,0.5-0.1,0.6-0.2c0.2-0.1,0.3-0.3,0.4-0.7l0.2-0.6l-1.8-4.7h0.6L192.4,65.4z"/>
		<path class="st8" d="M164.4,76.9v-4.3h-0.8v-0.4h0.8v-0.6c0-0.5,0.1-0.9,0.4-1.1c0.2-0.3,0.6-0.4,1-0.4c0.2,0,0.4,0,0.6,0.1l0,0.4
			c-0.1,0-0.3-0.1-0.5-0.1c-0.3,0-0.5,0.1-0.7,0.3c-0.2,0.2-0.2,0.4-0.2,0.8v0.6h1.1v0.4H165v4.3H164.4z"/>
		<path class="st8" d="M166.7,74.5c0-0.5,0.1-0.9,0.3-1.2c0.2-0.4,0.4-0.6,0.7-0.9c0.3-0.2,0.7-0.3,1.1-0.3c0.6,0,1.1,0.2,1.5,0.7
			c0.4,0.4,0.6,1,0.6,1.8v0.1c0,0.5-0.1,0.9-0.3,1.2c-0.2,0.4-0.4,0.6-0.7,0.8c-0.3,0.2-0.7,0.3-1.1,0.3c-0.6,0-1.1-0.2-1.5-0.7
			c-0.4-0.4-0.6-1-0.6-1.8V74.5z M167.3,74.6c0,0.6,0.1,1,0.4,1.4c0.3,0.4,0.7,0.5,1.2,0.5c0.5,0,0.9-0.2,1.2-0.5
			c0.3-0.4,0.4-0.8,0.4-1.4v-0.1c0-0.4-0.1-0.7-0.2-1c-0.1-0.3-0.3-0.5-0.6-0.7c-0.2-0.2-0.5-0.2-0.8-0.2c-0.5,0-0.8,0.2-1.1,0.5
			C167.4,73.5,167.3,73.9,167.3,74.6L167.3,74.6z"/>
		<path class="st8" d="M174.3,72.6c-0.1,0-0.2,0-0.4,0c-0.3,0-0.6,0.1-0.8,0.3c-0.2,0.2-0.4,0.4-0.5,0.8v3.3h-0.5v-4.7h0.5l0,0.8
			c0.3-0.6,0.7-0.8,1.3-0.8c0.1,0,0.3,0,0.3,0.1L174.3,72.6z"/>
		<path class="st8" d="M178.1,76.3c-0.3,0.5-0.8,0.7-1.5,0.7c-0.5,0-0.9-0.1-1.2-0.4c-0.3-0.3-0.4-0.7-0.4-1.3v-3.1h0.5v3
			c0,0.9,0.4,1.4,1.1,1.4c0.8,0,1.2-0.3,1.4-0.9v-3.4h0.5v4.7h-0.5L178.1,76.3z"/>
		<path class="st8" d="M180.5,72.2l0,0.8c0.2-0.3,0.4-0.5,0.7-0.6c0.3-0.1,0.6-0.2,0.9-0.2c0.7,0,1.2,0.3,1.4,0.9
			c0.2-0.3,0.4-0.5,0.7-0.7c0.3-0.2,0.6-0.2,0.9-0.2c1,0,1.5,0.6,1.6,1.7v3.2h-0.5v-3.1c0-0.4-0.1-0.7-0.3-0.9
			c-0.2-0.2-0.5-0.3-0.9-0.3c-0.4,0-0.7,0.1-1,0.4s-0.4,0.5-0.4,0.9v3.1H183v-3.2c0-0.4-0.1-0.7-0.3-0.9c-0.2-0.2-0.5-0.3-0.9-0.3
			c-0.3,0-0.6,0.1-0.9,0.3c-0.2,0.2-0.4,0.5-0.5,0.8v3.3H180v-4.7H180.5z"/>
		<path class="st6" d="M136.1,62.8c-2,0-3.7-1.7-3.7-3.7c0,0,0-0.1,0-0.1l0,0l0-0.3c0.1-1.4-0.3-1.7-1.1-1.8l-0.2,0
			c-1.1-0.2-1.9-1.2-1.9-2.3c0-1.3,1.1-2.4,2.4-2.4c1.2,0,2.1,0.8,2.3,2l0,0l0,0.2c0.1,0.8,0.4,1.2,1.8,1.1l0.3,0l0,0
			c0,0,0.1,0,0.1,0c2,0,3.7,1.7,3.7,3.7S138.1,62.8,136.1,62.8"/>
		<path class="st6" d="M137.3,66.9c-3.6,0-6.5-2.9-6.5-6.5c0-0.2,0-0.5,0-0.7c0.2-2.1-0.4-3.1-2-3.2l-0.2,0c-2-0.3-3.5-2.1-3.5-4.1
			c0-2.3,1.9-4.2,4.2-4.2c2.1,0,3.8,1.5,4.1,3.6l0,0l0,0.2c0.2,1.7,1.1,2.2,3.2,2c3.9-0.4,7.2,2.7,7.2,6.5
			C143.9,64,140.9,66.9,137.3,66.9z"/>
		<path class="st6" d="M138.6,71c-5.2,0-9.4-4.2-9.4-9.4c0-0.3,0-0.6,0.1-1c0.3-3.1-0.5-4.5-2.9-4.7c-3.1-0.3-5.4-2.9-5.4-6
			c0-3.3,2.7-6,6-6c3.1,0,5.7,2.3,6,5.4c0.3,2.4,1.6,3.3,4.7,2.9c0.3,0,0.7-0.1,1-0.1c5.2,0,9.4,4.2,9.4,9.4
			C148,66.8,143.8,71,138.6,71z"/>
		<path class="st6" d="M139.9,75.1c-6.7,0-12.2-5.5-12.2-12.2c0-0.4,0-0.8,0.1-1.3c0.4-4.1-0.7-5.9-3.9-6.2c-4-0.4-7-3.7-7-7.8
			c0-4.3,3.5-7.8,7.8-7.8c4,0,7.4,3,7.8,7c0.3,3.2,2.1,4.3,6.2,3.9c0.4,0,0.8-0.1,1.3-0.1c6.7,0,12.2,5.5,12.2,12.2
			S146.6,75.1,139.9,75.1z"/>
		<path class="st9" d="M136,62.8c-2.1,0-3.7-1.7-3.7-3.7s1.7-3.7,3.7-3.7s3.7,1.7,3.7,3.7S138.1,62.8,136,62.8"/>
	</g>
</g>
<g id="Ebene_2">
	<g>
		<path class="st0" d="M138.1,270.9v-8.5h5.6v1.5h-4v2h3.4v1.5h-3.4v2.1h4v1.5H138.1z"/>
		<path class="st0" d="M152.5,270.9v-3.8c0-0.9-0.5-1.1-1-1.1c-0.5,0-1,0.3-1,1.1v3.8h-1.6v-3.8c0-0.9-0.5-1.1-1-1.1s-1,0.3-1,1.1
			v3.8h-1.6v-6.2h1.5v0.6c0.4-0.4,1-0.6,1.6-0.6c0.7,0,1.3,0.3,1.7,0.8c0.5-0.6,1.1-0.8,1.9-0.8c0.6,0,1.2,0.2,1.5,0.6
			c0.5,0.5,0.7,1.1,0.7,1.8v4H152.5z"/>
		<path class="st0" d="M155.7,263.6v-1.3h1.6v1.3H155.7z M155.7,270.9v-6.2h1.6v6.2H155.7z"/>
		<path class="st0" d="M160.8,270.9c-1.3,0-1.8-0.9-1.8-1.8v-6.8h1.6v6.7c0,0.4,0.2,0.6,0.6,0.6h0.6v1.3H160.8z"/>
		<path class="st0" d="M164.9,271.9c-0.1,0.3-0.3,0.6-0.5,0.8c-0.4,0.4-0.8,0.5-1.3,0.5h-0.6v-1.4h0.4c0.4,0,0.6-0.1,0.8-0.6
			l0.3-0.8l-2.1-5.8h1.6l1.3,3.9l1.2-3.9h1.6L164.9,271.9z"/>
	</g>
</g>
</svg>
